#N canvas 420 148 597 349 10;
#X obj 327 142 hsl 128 15 0 2 0 0 empty empty empty -2 -8 0 10 -262144
-1 -1 0 1;
#X obj 131 169 osc~ 440;
#X obj 227 111 phasor~ 200;
#X obj 227 139 *~ 0.5;
#X msg 324 169 volume \$1;
#X obj 131 202 +dsp;
#X msg 38 62 \; pd dsp 1;
#X msg 105 62 \; pd dsp 0;
#X obj 324 65 tgl 15 0 empty empty empty 17 7 0 10 -262144 -1 -1 0
1;
#X msg 324 91 on \$1;
#X msg 380 112 save;
#X msg 430 111 restore;
#X msg 378 70 save 1;
#X msg 438 69 restore 1;
#X msg 224 44 vol+ 0.01;
#X msg 305 30 vol- 0.01;
#X msg 397 31 midilearn volume 7;
#X msg 412 216 midilearn on 55;
#X msg 408 257 midilearn stereo-width 23;
#X connect 0 0 4 0;
#X connect 1 0 5 0;
#X connect 2 0 3 0;
#X connect 3 0 5 1;
#X connect 4 0 5 2;
#X connect 8 0 9 0;
#X connect 9 0 5 2;
#X connect 10 0 5 2;
#X connect 11 0 5 2;
#X connect 12 0 5 2;
#X connect 13 0 5 2;
#X connect 14 0 5 2;
#X connect 15 0 5 2;
#X connect 16 0 5 2;
#X connect 17 0 5 2;
#X connect 18 0 5 2;
