#N canvas 38 99 575 612 10;
#X obj 94 41 inlet~;
#X obj 162 41 inlet~;
#X obj 94 393 *~;
#X obj 109 311 line~;
#X obj 162 393 *~;
#X msg 13 177 \; pd dsp \$1;
#X msg 109 287 \$1 20;
#X obj 109 352 *~;
#X obj 101 103 cnv 15 108 90 empty empty +dsp 6 10 0 10 -245754 -66577
0;
#X obj 108 146 tgl 15 0 +dsp-toggle-s +dsp-toggle empty 17 7 0 10 -258699
-1 -262144 0 1;
#X floatatom 109 124 6 0 0 0 - #0-level-ind-r #0-level-ind-s;
#X obj 384 161 sel 1;
#X msg 384 231 \; +dsp-toggle color 16;
#X msg 411 191 \; +dsp-toggle color 13;
#X obj 431 71 r pd;
#X obj 431 98 route dsp;
#X msg 431 129 set \$1;
#X obj 238 41 inlet;
#X obj 164 107 vu 8 80 \$0-pvu-l empty -1 -8 0 10 -66577 -1 0 0;
#X obj 186 107 vu 8 80 \$0-pvu-r empty -1 -8 0 10 -66577 -1 0 0;
#X obj 174 107 vsl 10 79 0 1.8 0 0 \$0-level-s \$0-level-r empty 0
-9 0 10 -162280 -4032 -1 0 1;
#X obj 178 299 s \$0-level-ind-r;
#X obj 178 270 r \$0-level-s;
#X obj 162 418 s~ \$0-right;
#X obj 94 418 s~ \$0-left;
#X obj 78 490 r~ \$0-left;
#X obj 156 490 r~ \$0-right;
#X obj 135 534 dac~;
#X obj 259 520 pvu~;
#X obj 259 546 s \$0-pvu-l;
#X obj 259 491 r~ \$0-left;
#X obj 359 521 pvu~;
#X obj 359 492 r~ \$0-right;
#X obj 359 547 s \$0-pvu-r;
#X obj 238 95 s \$0-level-r;
#X symbolatom 107 195 16 0 0 0 - #0-save-fname-r #0-save-fname-s;
#X obj 108 169 tgl 15 0 \$0-btn-save-s \$0-btn-save-r save 18 7 0 10
-262144 -1 -1 0 1;
#N canvas 347 146 683 375 save 0;
#X obj 52 52 sel 1;
#X obj 52 82 savepanel;
#X obj 52 224 s \$0-save-fname-r;
#X obj 52 19 r \$0-btn-save-s;
#X obj 52 197 strippath;
#X obj 250 194 writesf~ 2;
#X obj 250 128 r~ \$0-left;
#X obj 307 168 r~ \$0-right;
#X msg 157 177 start;
#X msg 250 69 stop;
#X msg 184 127 open \$1;
#X obj 157 99 t b s;
#X obj 157 154 del 500;
#X obj 368 14 r \$0-save-ctrl;
#X obj 52 123 symbol;
#X obj 368 63 route file save;
#X obj 492 137 print unknown save action;
#X obj 411 110 sel start stop;
#X msg 451 252 \; \$1 set 0;
#X obj 411 86 symbol;
#X obj 411 160 symbol \$0-btn-save-r;
#X msg 411 186 \; \$1 set 1;
#X obj 451 227 symbol \$0-btn-save-r;
#X obj 368 86 symbol;
#X connect 0 0 1 0;
#X connect 0 1 9 0;
#X connect 1 0 14 0;
#X connect 3 0 0 0;
#X connect 4 0 2 0;
#X connect 6 0 5 0;
#X connect 7 0 5 1;
#X connect 8 0 5 0;
#X connect 9 0 5 0;
#X connect 10 0 5 0;
#X connect 11 0 12 0;
#X connect 11 1 10 0;
#X connect 12 0 8 0;
#X connect 13 0 15 0;
#X connect 14 0 4 0;
#X connect 14 0 11 0;
#X connect 15 0 23 0;
#X connect 15 1 19 0;
#X connect 17 0 20 0;
#X connect 17 1 22 0;
#X connect 17 2 16 0;
#X connect 19 0 17 0;
#X connect 20 0 21 0;
#X connect 20 0 8 0;
#X connect 22 0 18 0;
#X connect 22 0 9 0;
#X connect 23 0 10 0;
#X restore 482 547 pd save;
#X obj 238 66 route float;
#X obj 301 120 s \$0-save-ctrl;
#X obj 78 558 outlet~;
#X obj 187 559 outlet~;
#X connect 0 0 2 0;
#X connect 1 0 4 0;
#X connect 2 0 24 0;
#X connect 3 0 7 0;
#X connect 3 0 7 1;
#X connect 4 0 23 0;
#X connect 6 0 3 0;
#X connect 7 0 2 1;
#X connect 7 0 4 1;
#X connect 9 0 5 0;
#X connect 9 0 11 0;
#X connect 11 0 12 0;
#X connect 11 1 13 0;
#X connect 14 0 15 0;
#X connect 15 0 16 0;
#X connect 15 0 11 0;
#X connect 16 0 9 0;
#X connect 17 0 38 0;
#X connect 22 0 21 0;
#X connect 22 0 6 0;
#X connect 25 0 27 0;
#X connect 25 0 40 0;
#X connect 26 0 27 1;
#X connect 26 0 41 0;
#X connect 28 0 29 0;
#X connect 30 0 28 0;
#X connect 31 0 33 0;
#X connect 32 0 31 0;
#X connect 38 0 34 0;
#X connect 38 1 39 0;
#X coords 0 -1 1 1 110 115 1 100 100;
