#N canvas 172 22 745 746 10;
#X obj 94 41 inlet~;
#X obj 162 41 inlet~;
#X obj 94 393 *~;
#X obj 109 311 line~;
#X obj 162 393 *~;
#X msg 13 161 \; pd dsp \$1;
#X msg 109 287 \$1 20;
#X obj 109 352 *~;
#X obj 101 103 cnv 15 108 90 empty empty +dsp 6 10 0 10 -191407 -66577
0;
#X obj 109 146 tgl 15 0 +dsp-toggle-s +dsp-toggle empty 17 7 0 10 -24198
-1 -262144 0 1;
#X floatatom 109 124 6 0 0 0 - #0-level-ind-r #0-level-ind-s;
#X obj 574 161 sel 1;
#X msg 574 231 \; +dsp-toggle color 16;
#X msg 601 191 \; +dsp-toggle color 13;
#X obj 621 71 r pd;
#X obj 621 98 route dsp;
#X msg 621 129 set \$1;
#X obj 238 41 inlet;
#X obj 172 107 vu 8 80 \$0-pvu-l empty -1 -8 0 10 -66577 -1 0 0;
#X obj 194 107 vu 8 80 \$0-pvu-r empty -1 -8 0 10 -66577 -1 0 0;
#X obj 182 107 vsl 10 79 0 1.8 0 0 \$0-level-s \$0-level-r empty 0
-9 0 10 -162280 -4032 -1 0 1;
#X obj 178 299 s \$0-level-ind-r;
#X obj 178 270 r \$0-level-s;
#X obj 162 418 s~ \$0-right;
#X obj 94 418 s~ \$0-left;
#X obj 83 460 r~ \$0-left;
#X obj 161 460 r~ \$0-right;
#X obj 140 558 dac~;
#X obj 549 520 pvu~;
#X obj 549 546 s \$0-pvu-l;
#X obj 549 491 r~ \$0-left;
#X obj 649 521 pvu~;
#X obj 649 492 r~ \$0-right;
#X obj 649 547 s \$0-pvu-r;
#X obj 238 95 s \$0-level-r;
#X obj 83 558 outlet~;
#X obj 192 559 outlet~;
#X obj 83 523 hip~ 1;
#X obj 161 522 hip~ 1;
#X obj 305 140 tgl 15 0 empty empty empty 17 7 0 10 -262144 -1 -1 1
1;
#X obj 22 588 > 106;
#X obj 273 587 > 106;
#X obj 22 614 sel 1;
#X obj 273 612 sel 1;
#X msg 273 639 0;
#X msg 22 639 0;
#X obj 273 666 s \$0-level-r;
#X obj 22 666 s \$0-level-r;
#X obj 234 539 spigot~;
#X obj 22 540 spigot~;
#X obj 273 560 env~;
#X obj 22 561 env~;
#X obj 372 111 clip 90 140;
#X obj 238 66 route volume protect protect_level;
#X connect 0 0 2 0;
#X connect 1 0 4 0;
#X connect 2 0 24 0;
#X connect 3 0 7 0;
#X connect 3 0 7 1;
#X connect 4 0 23 0;
#X connect 6 0 3 0;
#X connect 7 0 2 1;
#X connect 7 0 4 1;
#X connect 9 0 5 0;
#X connect 9 0 11 0;
#X connect 11 0 12 0;
#X connect 11 1 13 0;
#X connect 14 0 15 0;
#X connect 15 0 16 0;
#X connect 15 0 11 0;
#X connect 16 0 9 0;
#X connect 17 0 53 0;
#X connect 22 0 21 0;
#X connect 22 0 6 0;
#X connect 25 0 37 0;
#X connect 26 0 38 0;
#X connect 28 0 29 0;
#X connect 30 0 28 0;
#X connect 31 0 33 0;
#X connect 32 0 31 0;
#X connect 37 0 27 0;
#X connect 37 0 35 0;
#X connect 37 0 49 0;
#X connect 38 0 27 1;
#X connect 38 0 36 0;
#X connect 38 0 48 0;
#X connect 39 0 48 1;
#X connect 39 0 49 1;
#X connect 40 0 42 0;
#X connect 41 0 43 0;
#X connect 42 0 45 0;
#X connect 43 0 44 0;
#X connect 44 0 46 0;
#X connect 45 0 47 0;
#X connect 48 1 50 0;
#X connect 49 1 51 0;
#X connect 50 0 41 0;
#X connect 51 0 40 0;
#X connect 52 0 41 1;
#X connect 52 0 40 1;
#X connect 53 0 34 0;
#X connect 53 1 39 0;
#X connect 53 2 52 0;
#X coords 0 -1 1 1 110 95 1 100 100;
