#N canvas 202 37 752 647 10;
#X obj 226 170 tgl 15 0 empty empty empty 17 7 0 10 -262144 -1 -1 0
1;
#X obj 255 170 tgl 15 0 empty empty empty 17 7 0 10 -262144 -1 -1 0
1;
#X obj 283 170 tgl 15 0 empty empty empty 17 7 0 10 -262144 -1 -1 0
1;
#X obj 313 170 tgl 15 0 empty empty empty 17 7 0 10 -262144 -1 -1 1
1;
#X obj 341 170 tgl 15 0 empty empty empty 17 7 0 10 -262144 -1 -1 1
1;
#X obj 370 170 tgl 15 0 empty empty empty 17 7 0 10 -262144 -1 -1 0
1;
#X obj 399 170 tgl 15 0 empty empty empty 17 7 0 10 -262144 -1 -1 1
1;
#X obj 428 170 tgl 15 0 empty empty empty 17 7 0 10 -262144 -1 -1 0
1;
#X obj 457 170 tgl 15 0 empty empty empty 17 7 0 10 -262144 -1 -1 1
1;
#X obj 62 181 vsl 15 128 0 127 0 0 empty empty empty 0 -9 0 10 -262144
-1 -1 0 1;
#X obj 486 170 tgl 15 0 empty empty empty 17 7 0 10 -262144 -1 -1 0
1;
#X obj 515 170 tgl 15 0 empty empty empty 17 7 0 10 -262144 -1 -1 0
1;
#X obj 544 170 tgl 15 0 empty empty empty 17 7 0 10 -262144 -1 -1 1
1;
#X obj 147 242 mtof;
#X msg 147 213 60;
#X obj 147 275 osc~;
#X obj 146 499 +dsp;
#X obj 147 304 *~;
#X obj 197 242 mtof;
#X obj 197 275 osc~;
#X obj 197 304 *~;
#X obj 247 242 mtof;
#X obj 247 275 osc~;
#X obj 247 304 *~;
#X obj 287 242 mtof;
#X obj 287 275 osc~;
#X obj 287 304 *~;
#X obj 337 242 mtof;
#X obj 337 275 osc~;
#X obj 337 304 *~;
#X msg 247 213 77;
#X obj 387 242 mtof;
#X obj 387 275 osc~;
#X obj 387 304 *~;
#X obj 437 242 mtof;
#X obj 437 275 osc~;
#X obj 437 304 *~;
#X obj 481 242 mtof;
#X obj 481 275 osc~;
#X obj 481 304 *~;
#X obj 147 386 *~ 0.15;
#X obj 524 242 mtof;
#X obj 524 275 osc~;
#X obj 524 304 *~;
#X obj 567 242 mtof;
#X obj 567 275 osc~;
#X obj 567 304 *~;
#X obj 607 242 mtof;
#X obj 607 275 osc~;
#X obj 607 304 *~;
#X obj 647 242 mtof;
#X obj 647 304 *~;
#X msg 337 213 81;
#X msg 387 213 86;
#X msg 437 213 89;
#X msg 481 213 63;
#X msg 524 213 68;
#X msg 567 213 61;
#X msg 607 213 64;
#X msg 647 213 72;
#X msg 197 213 67.2;
#X msg 287 213 93.7;
#X obj 647 275 phasor~;
#X obj 84 180 vsl 15 128 0 127 0 0 empty empty empty 0 -9 0 10 -262144
-1 -1 0 1;
#X obj 111 29 nanopad;
#X obj 62 366 osc~;
#X obj 84 426 osc~;
#X obj 62 341 * 10;
#X obj 62 462 *~;
#X obj 84 391 + 200;
#X connect 0 0 14 0;
#X connect 0 0 17 1;
#X connect 1 0 60 0;
#X connect 1 0 20 1;
#X connect 2 0 30 0;
#X connect 2 0 23 1;
#X connect 3 0 61 0;
#X connect 3 0 26 1;
#X connect 4 0 52 0;
#X connect 4 0 29 1;
#X connect 5 0 53 0;
#X connect 5 0 33 1;
#X connect 6 0 54 0;
#X connect 6 0 36 1;
#X connect 7 0 55 0;
#X connect 7 0 39 1;
#X connect 8 0 56 0;
#X connect 8 0 43 1;
#X connect 9 0 67 0;
#X connect 10 0 46 1;
#X connect 10 0 57 0;
#X connect 11 0 58 0;
#X connect 11 0 49 1;
#X connect 12 0 51 1;
#X connect 12 0 59 0;
#X connect 13 0 15 0;
#X connect 14 0 13 0;
#X connect 15 0 17 0;
#X connect 17 0 40 0;
#X connect 18 0 19 0;
#X connect 19 0 20 0;
#X connect 20 0 40 0;
#X connect 21 0 22 0;
#X connect 22 0 23 0;
#X connect 23 0 40 0;
#X connect 24 0 25 0;
#X connect 25 0 26 0;
#X connect 26 0 40 0;
#X connect 27 0 28 0;
#X connect 28 0 29 0;
#X connect 29 0 40 0;
#X connect 30 0 21 0;
#X connect 31 0 32 0;
#X connect 32 0 33 0;
#X connect 33 0 40 0;
#X connect 34 0 35 0;
#X connect 35 0 36 0;
#X connect 36 0 40 0;
#X connect 37 0 38 0;
#X connect 38 0 39 0;
#X connect 39 0 40 0;
#X connect 40 0 16 0;
#X connect 40 0 16 1;
#X connect 41 0 42 0;
#X connect 42 0 43 0;
#X connect 43 0 40 0;
#X connect 44 0 45 0;
#X connect 45 0 46 0;
#X connect 46 0 40 0;
#X connect 47 0 48 0;
#X connect 48 0 49 0;
#X connect 49 0 40 0;
#X connect 50 0 62 0;
#X connect 51 0 40 0;
#X connect 52 0 27 0;
#X connect 53 0 31 0;
#X connect 54 0 34 0;
#X connect 55 0 37 0;
#X connect 56 0 41 0;
#X connect 57 0 44 0;
#X connect 58 0 47 0;
#X connect 59 0 50 0;
#X connect 60 0 18 0;
#X connect 61 0 24 0;
#X connect 62 0 51 0;
#X connect 63 0 69 0;
#X connect 64 2 9 0;
#X connect 64 3 63 0;
#X connect 64 4 0 0;
#X connect 64 5 1 0;
#X connect 64 6 2 0;
#X connect 64 7 3 0;
#X connect 64 8 4 0;
#X connect 64 9 5 0;
#X connect 64 10 6 0;
#X connect 64 11 7 0;
#X connect 64 12 8 0;
#X connect 64 13 10 0;
#X connect 64 14 11 0;
#X connect 64 15 12 0;
#X connect 65 0 68 0;
#X connect 66 0 68 1;
#X connect 67 0 65 0;
#X connect 68 0 16 0;
#X connect 69 0 66 0;
