#N canvas 240 51 593 616 10;
#N canvas 0 22 450 278 (subpatch) 0;
#X array \$0-auto-volume 100 float 0;
#X coords 0 1 100 0 500 100 1 0 0;
#X restore 34 40 graph;
#X obj 23 233 inlet;
#X obj 34 147 hsl 500 15 0 100 0 0 \$0-pos-ind-s \$0-pos-ind-r empty
-2 -8 0 10 -262144 -1 -1 58 1;
#X obj 23 333 v \$0-av-duration;
#X msg 23 312 bang;
#X obj 42 489 s \$0-pos-ind-r;
#X obj 23 465 line;
#X obj 23 512 tabread \$0-auto-volume;
#X obj 23 544 outlet;
#X msg 62 312 stop;
#X msg 141 438 0;
#X obj 23 358 t f f;
#X obj 23 407 list append;
#X obj 86 384 * 1000;
#X msg 23 438 0 \, \$1 \$2;
#X floatatom 34 173 5 0 0 0 - #0-pos-r #0-pos-s;
#X text 68 172 ms;
#X floatatom 96 173 5 0 0 0 - #0-volume-r #0-volume-s;
#X obj 76 544 s \$0-volume-r;
#X obj 140 490 s \$0-pos-r;
#X obj 23 280 route start stop duration reset read clear init write
;
#N canvas 627 129 209 189 read 0;
#X obj 44 53 route bang;
#X obj 44 80 openpanel;
#X msg 44 110 read \$1;
#X obj 44 139 s \$0-auto-volume;
#X obj 121 80 symbol;
#X obj 44 27 inlet;
#X connect 0 0 1 0;
#X connect 0 1 4 0;
#X connect 1 0 2 0;
#X connect 2 0 3 0;
#X connect 4 0 2 0;
#X connect 5 0 0 0;
#X restore 180 408 pd read;
#N canvas 515 115 166 129 clear 0;
#X msg 30 51 const 0;
#X obj 30 87 s \$0-auto-volume;
#X obj 30 20 inlet;
#X connect 0 0 1 0;
#X connect 2 0 0 0;
#X restore 219 376 pd clear;
#N canvas 583 281 150 137 init 0;
#X obj 26 27 inlet;
#X msg 26 58 const \$1;
#X obj 26 93 s \$0-auto-volume;
#X connect 0 0 1 0;
#X connect 1 0 2 0;
#X restore 259 345 pd init;
#N canvas 667 181 178 208 write 0;
#X obj 33 29 inlet;
#X obj 33 64 route bang;
#X obj 33 94 savepanel;
#X obj 108 94 symbol;
#X msg 33 131 write \$1;
#X obj 33 162 s \$0-auto-volume;
#X connect 0 0 1 0;
#X connect 1 0 2 0;
#X connect 1 1 3 0;
#X connect 2 0 4 0;
#X connect 3 0 4 0;
#X connect 4 0 5 0;
#X restore 298 319 pd write;
#N canvas 624 118 523 419 setup-view 0;
#X obj 183 365 s \$0-auto-volume;
#X msg 132 44 bang;
#X obj 132 71 v \$0-av-duration;
#X obj 183 198 moses 300;
#X obj 132 130 moses 101;
#X obj 219 127 s \$0-pos-ind-r;
#X msg 219 104 range 0 \$1;
#X obj 19 294 sfruit/list-range;
#X obj 19 325 list prepend xlabel 0.9;
#X msg 132 178 resize \$1 \, bounds 0 1 \$1 0 \, xticks 0 1 10;
#X obj 105 153 t f f;
#X msg 183 219 resize \$1 \, bounds 0 1 \$1 0 \, xticks 0 2 5;
#X msg 234 241 resize \$1 \, bounds 0 1 \$1 0 \, xticks 0 5 5;
#X obj 19 348 list trim;
#X msg 83 261 25 \$1 25;
#X msg 19 260 10 \$1 10;
#X msg 145 260 50 \$1 50;
#X obj 132 11 inlet;
#X text 241 70 Change slider range;
#X connect 1 0 2 0;
#X connect 2 0 4 0;
#X connect 2 0 6 0;
#X connect 3 0 11 0;
#X connect 3 0 14 0;
#X connect 3 1 12 0;
#X connect 3 1 16 0;
#X connect 4 0 10 0;
#X connect 4 1 3 0;
#X connect 6 0 5 0;
#X connect 7 0 8 0;
#X connect 8 0 13 0;
#X connect 9 0 0 0;
#X connect 10 0 15 0;
#X connect 10 1 9 0;
#X connect 11 0 0 0;
#X connect 12 0 0 0;
#X connect 13 0 0 0;
#X connect 14 0 7 0;
#X connect 15 0 7 0;
#X connect 16 0 7 0;
#X connect 17 0 1 0;
#X restore 299 439 pd setup-view;
#N canvas 442 383 342 178 init 1;
#X obj 33 102 outlet;
#X msg 33 68 duration 100 \, init 0.5;
#X obj 33 35 loadbang;
#X obj 123 133 s \$0-auto-volume;
#X msg 120 102 color 13 14 15;
#X connect 1 0 0 0;
#X connect 2 0 1 0;
#X connect 4 0 3 0;
#X restore 98 233 pd init;
#N canvas 119 140 195 223 duration 0;
#X obj 42 31 inlet;
#X obj 42 108 t b f;
#X obj 69 134 v \$0-av-duration;
#X obj 42 83 clip 10 100000;
#X obj 42 175 outlet;
#X connect 0 0 3 0;
#X connect 1 0 4 0;
#X connect 1 1 2 0;
#X connect 3 0 1 0;
#X restore 299 407 pd duration;
#X obj 338 346 s \$0-auto-volume;
#X connect 1 0 20 0;
#X connect 3 0 11 0;
#X connect 4 0 3 0;
#X connect 6 0 5 0;
#X connect 6 0 7 0;
#X connect 6 0 19 0;
#X connect 7 0 8 0;
#X connect 7 0 18 0;
#X connect 9 0 6 0;
#X connect 10 0 6 0;
#X connect 11 0 12 0;
#X connect 11 1 13 0;
#X connect 12 0 14 0;
#X connect 13 0 12 1;
#X connect 14 0 6 0;
#X connect 20 0 4 0;
#X connect 20 1 9 0;
#X connect 20 2 27 0;
#X connect 20 3 10 0;
#X connect 20 4 21 0;
#X connect 20 5 22 0;
#X connect 20 6 23 0;
#X connect 20 7 24 0;
#X connect 20 8 28 0;
#X connect 26 0 20 0;
#X connect 27 0 25 0;
#X coords 0 -1 1 1 530 180 2 20 20;
