#N canvas 683 66 456 270 10;
#X obj 33 33 inlet~;
#X obj 33 62 env~;
#X obj 33 161 change;
#X obj 33 189 select 1;
#X obj 33 219 outlet attack;
#X msg 33 134 0;
#X obj 33 93 moses \$1;
#X obj 78 122 moses \$2;
#X msg 123 144 1;
#X obj 276 31 inlet hyst_upper in db;
#X obj 129 31 inlet hyst_lower in db;
#X connect 0 0 1 0;
#X connect 1 0 6 0;
#X connect 2 0 3 0;
#X connect 3 0 4 0;
#X connect 5 0 2 0;
#X connect 6 0 5 0;
#X connect 6 1 7 0;
#X connect 7 1 8 0;
#X connect 8 0 2 0;
#X connect 9 0 7 1;
#X connect 10 0 6 1;
