#N canvas 304 225 581 282 10;
#X obj 155 32 inlet phase;
#X obj 59 119 osc~ \$1;
#X obj 59 155 cheby~ \$2;
#X obj 59 229 outlet~;
#X obj 247 32 inlet control;
#X msg 247 65 coef \$1 \$2;
#X obj 357 32 loadbang;
#X msg 357 63 coef 1 1;
#X obj 59 32 inlet~ freq;
#X connect 0 0 1 1;
#X connect 1 0 2 0;
#X connect 2 0 3 0;
#X connect 4 0 5 0;
#X connect 5 0 2 0;
#X connect 6 0 7 0;
#X connect 7 0 2 0;
#X connect 8 0 1 0;
