#N canvas 0 22 450 300 10;
#X obj 139 142 sp-aosc~ 440 16;
#X obj 139 202 dac~;
#X msg 226 101 3 \$1;
#X obj 229 74 hsl 128 15 0 1 0 0 empty empty empty -2 -8 0 10 -262144
-1 -1 0 1;
#X connect 0 0 1 0;
#X connect 0 0 1 1;
#X connect 2 0 0 2;
#X connect 3 0 2 0;
