#N canvas 13 50 828 412 10;
#X obj 75 74 inlet;
#X obj 75 154 comport \$1 57600;
#X obj 23 339 outlet;
#X obj 87 339 outlet;
#X obj 143 339 outlet;
#X obj 197 339 outlet;
#X obj 254 339 outlet;
#X obj 311 339 outlet;
#X obj 406 90 sel 0;
#X msg 371 117 32;
#X msg 407 117 33;
#X obj 484 90 sel 0;
#X msg 451 117 16;
#X msg 487 117 17;
#X obj 370 339 outlet;
#X obj 428 339 outlet;
#X obj 75 179 repack 2;
#X obj 75 201 unpack f f;
#X obj 75 287 int;
#X obj 103 287 int;
#X obj 131 287 int;
#X obj 158 286 int;
#X obj 194 286 int;
#X obj 223 285 int;
#X obj 256 285 int;
#X obj 290 284 int;
#X obj 349 25 inlet;
#X obj 580 91 print [arduino] unknown message;
#X obj 349 54 route sync led_green led_red skip_pedal;
#X obj 522 134 route 0 1;
#X msg 522 195 48;
#X msg 556 195 49;
#X obj 522 167 sel 0;
#X obj 75 239 sel 16 32 48 64 80 96 112 128 144;
#X obj 592 167 sel 0;
#X msg 592 195 64;
#X msg 626 195 65;
#X obj 522 233 s \$0-ard;
#X obj 102 112 r \$0-ard;
#X obj 322 256 sel 1;
#X msg 349 90 0;
#X msg 322 281 80;
#X obj 207 193 print [sp-arduino];
#X connect 0 0 1 0;
#X connect 1 0 16 0;
#X connect 1 1 42 0;
#X connect 8 0 9 0;
#X connect 8 1 10 0;
#X connect 9 0 37 0;
#X connect 10 0 37 0;
#X connect 11 0 12 0;
#X connect 11 1 13 0;
#X connect 12 0 37 0;
#X connect 13 0 37 0;
#X connect 16 0 17 0;
#X connect 17 0 33 0;
#X connect 17 1 18 1;
#X connect 17 1 19 1;
#X connect 17 1 20 1;
#X connect 17 1 21 1;
#X connect 17 1 22 1;
#X connect 17 1 23 1;
#X connect 17 1 24 1;
#X connect 17 1 25 1;
#X connect 18 0 2 0;
#X connect 19 0 3 0;
#X connect 20 0 4 0;
#X connect 21 0 5 0;
#X connect 22 0 6 0;
#X connect 23 0 7 0;
#X connect 24 0 14 0;
#X connect 25 0 15 0;
#X connect 26 0 28 0;
#X connect 28 0 40 0;
#X connect 28 1 8 0;
#X connect 28 2 11 0;
#X connect 28 3 29 0;
#X connect 28 4 27 0;
#X connect 29 0 32 0;
#X connect 29 1 34 0;
#X connect 30 0 37 0;
#X connect 31 0 37 0;
#X connect 32 0 30 0;
#X connect 32 1 31 0;
#X connect 33 0 18 0;
#X connect 33 1 19 0;
#X connect 33 2 20 0;
#X connect 33 3 21 0;
#X connect 33 5 22 0;
#X connect 33 6 23 0;
#X connect 33 7 24 0;
#X connect 33 8 25 0;
#X connect 33 9 39 0;
#X connect 34 0 35 0;
#X connect 34 1 36 0;
#X connect 35 0 37 0;
#X connect 36 0 37 0;
#X connect 38 0 1 0;
#X connect 39 0 41 0;
#X connect 40 0 16 0;
#X connect 41 0 37 0;
