#N canvas 0 22 697 486 10;
#X msg 125 51 start;
#X msg 180 51 stop;
#X msg 229 52 reset;
#X msg 304 52 duration 600;
#X msg 304 21 duration 100;
#X msg 59 51 init 0.5;
#X msg 141 17 write;
#X msg 187 17 write 1.txt;
#X msg 408 54 duration \$1;
#X obj 411 22 hsl 128 15 0 1000 0 0 empty empty empty -2 -8 0 10 -262144
-1 -1 1200 1;
#X obj 41 344 *~;
#X obj 125 327 line~;
#X obj 41 286 osc~ 440;
#X msg 125 301 \$1 20;
#X obj 41 379 dac~;
#X msg 59 18 read 1.txt;
#X msg 23 83 init 0;
#X msg 25 18 read;
#X obj 125 100 sp-autovolume;
#X msg 534 51 normalize 0.5;
#X connect 0 0 18 0;
#X connect 1 0 18 0;
#X connect 2 0 18 0;
#X connect 3 0 18 0;
#X connect 4 0 18 0;
#X connect 5 0 18 0;
#X connect 6 0 18 0;
#X connect 7 0 18 0;
#X connect 8 0 18 0;
#X connect 9 0 8 0;
#X connect 10 0 14 0;
#X connect 11 0 10 1;
#X connect 12 0 10 0;
#X connect 13 0 11 0;
#X connect 15 0 18 0;
#X connect 16 0 18 0;
#X connect 17 0 18 0;
#X connect 18 0 13 0;
#X connect 19 0 18 0;
