#N canvas 240 51 940 727 10;
#N canvas 0 22 450 278 (subpatch) 0;
#X array \$0-auto-volume 100 float 1;
#A 0 0.5 0.5 0.5 0.5 0.5 0.5 0.5 0.5 0.5 0.5 0 0 0 0 0 0 0 0 0 0 0
0 0 0 0 0 0 0 0 0 0 0 0 0 0 0 0 0 0 0 0 0 0 0 0 0 0 0 0 0 0 0 0 0 0
0 0 0 0 0 0 0 0 0 0 0 0 0 0 0 0 0 0 0 0 0 0 0 0 0 0 0 0 0 0 0 0 0 0
0 0 0 0 0 0 0 0 0 0 0;
#X coords 0 1 100 0 500 100 1 0 0;
#X restore 34 40 graph;
#X obj 23 261 inlet;
#X obj 34 147 hsl 500 15 0 100 0 0 \$0-pos-ind-s \$0-pos-ind-r empty
-2 -8 0 10 -262144 -1 -1 0 1;
#X obj 23 333 v \$0-av-duration;
#X msg 23 312 bang;
#X obj 42 489 s \$0-pos-ind-r;
#X obj 23 465 line;
#X obj 23 512 tabread \$0-auto-volume;
#X obj 23 544 outlet;
#X msg 62 312 stop;
#X msg 141 438 0;
#X obj 177 468 s \$0-auto-volume;
#X msg 177 407 read \$1;
#X obj 453 585 s \$0-auto-volume;
#X msg 402 264 bang;
#X msg 219 313 const 0;
#X obj 402 291 v \$0-av-duration;
#X obj 453 418 moses 300;
#X obj 402 350 moses 101;
#X obj 23 358 t f f;
#X obj 23 407 list append;
#X obj 86 384 * 1000;
#X msg 23 438 0 \, \$1 \$2;
#X floatatom 34 173 5 0 0 0 - #0-pos-r #0-pos-s;
#X obj 489 347 s \$0-pos-ind-r;
#X msg 489 324 range 0 \$1;
#X obj 133 358 t b f;
#X obj 160 384 v \$0-av-duration;
#X msg 133 262 100;
#X obj 133 236 loadbang;
#X msg 177 261 const 0.5;
#X text 68 172 ms;
#X floatatom 96 173 5 0 0 0 - #0-volume-r #0-volume-s;
#X obj 76 544 s \$0-volume-r;
#X obj 140 490 s \$0-pos-r;
#X msg 259 333 const \$1;
#X obj 298 356 route bang;
#X msg 298 441 write \$1;
#X obj 23 290 route start stop duration reset read clear init write
;
#X obj 306 412 symbol;
#X obj 298 384 savepanel;
#X obj 289 514 sfruit/list-range;
#X obj 289 545 list prepend xlabel 0.9;
#X msg 402 398 resize \$1 \, bounds 0 1 \$1 0 \, xticks 0 1 10;
#X obj 375 373 t f f;
#X msg 453 439 resize \$1 \, bounds 0 1 \$1 0 \, xticks 0 2 5;
#X msg 504 461 resize \$1 \, bounds 0 1 \$1 0 \, xticks 0 5 5;
#X text 512 300 Change slider range;
#X obj 289 568 list trim;
#X obj 133 333 clip 10 100000;
#X msg 353 481 25 \$1 25;
#X msg 289 480 10 \$1 10;
#X msg 415 480 50 \$1 50;
#X connect 1 0 38 0;
#X connect 3 0 19 0;
#X connect 4 0 3 0;
#X connect 6 0 5 0;
#X connect 6 0 7 0;
#X connect 6 0 34 0;
#X connect 7 0 8 0;
#X connect 7 0 33 0;
#X connect 9 0 6 0;
#X connect 10 0 6 0;
#X connect 12 0 11 0;
#X connect 14 0 16 0;
#X connect 15 0 11 0;
#X connect 16 0 18 0;
#X connect 16 0 25 0;
#X connect 17 0 45 0;
#X connect 17 0 50 0;
#X connect 17 1 46 0;
#X connect 17 1 52 0;
#X connect 18 0 44 0;
#X connect 18 1 17 0;
#X connect 19 0 20 0;
#X connect 19 1 21 0;
#X connect 20 0 22 0;
#X connect 21 0 20 1;
#X connect 22 0 6 0;
#X connect 25 0 24 0;
#X connect 26 0 14 0;
#X connect 26 1 27 0;
#X connect 28 0 49 0;
#X connect 29 0 28 0;
#X connect 29 0 30 0;
#X connect 30 0 11 0;
#X connect 35 0 11 0;
#X connect 36 0 40 0;
#X connect 36 1 39 0;
#X connect 37 0 11 0;
#X connect 38 0 4 0;
#X connect 38 1 9 0;
#X connect 38 2 49 0;
#X connect 38 3 10 0;
#X connect 38 4 12 0;
#X connect 38 5 15 0;
#X connect 38 6 35 0;
#X connect 38 7 36 0;
#X connect 39 0 37 0;
#X connect 40 0 37 0;
#X connect 41 0 42 0;
#X connect 42 0 48 0;
#X connect 43 0 13 0;
#X connect 44 0 51 0;
#X connect 44 1 43 0;
#X connect 45 0 13 0;
#X connect 46 0 13 0;
#X connect 48 0 13 0;
#X connect 49 0 26 0;
#X connect 50 0 41 0;
#X connect 51 0 41 0;
#X connect 52 0 41 0;
#X coords 0 -1 1 1 530 180 2 20 20;
