#N canvas 260 110 806 556 10;
#X declare -lib maxlib;
#X msg 120 109 open 3;
#X msg 168 109 close;
#X obj 53 258 tgl 30 0 empty empty empty 17 7 0 10 -258113 -1 -1 0
1;
#X obj 91 258 tgl 30 0 empty empty empty 17 7 0 10 -260097 -1 -1 0
1;
#X obj 129 258 tgl 30 0 empty empty empty 17 7 0 10 -4032 -1 -1 0 1
;
#X obj 167 258 tgl 30 0 empty empty empty 17 7 0 10 -4034 -1 -1 0 1
;
#X obj 221 268 bng 30 250 50 0 empty empty empty 17 7 0 10 -204786
-1 -1;
#X obj 266 266 bng 30 250 50 0 empty empty empty 17 7 0 10 -261234
-1 -1;
#X obj 221 235 sel 1;
#X obj 266 236 sel 1;
#X obj 400 90 metro 500;
#X obj 400 63 tgl 15 0 empty empty empty 17 7 0 10 -262144 -1 -1 0
1;
#X obj 422 113 del 20;
#X obj 454 63 hsl 128 15 0 1000 0 0 empty empty empty -2 -8 0 10 -262144
-1 -1 0 1;
#X obj 303 439 +dsp;
#X obj 303 394 sp-ghub2~;
#X msg 422 161 led_green 0;
#X msg 400 136 led_green 1;
#X floatatom 457 385 5 0 0 0 - - -;
#X msg 167 308 \; pd dsp \$1;
#X obj 153 34 tgl 15 0 empty empty empty 17 7 0 10 -262144 -1 -1 0
1;
#X msg 153 57 skip_pedal 0 \$1;
#X obj 261 37 tgl 15 0 empty empty empty 17 7 0 10 -262144 -1 -1 0
1;
#X msg 261 60 skip_pedal 1 \$1;
#X msg 221 151 sync;
#X obj 161 350 phasor~ 75;
#X obj 431 224 vsl 15 128 0 251 0 0 empty empty empty 0 -9 0 10 -262144
-1 -1 0 1;
#X obj 457 224 vsl 15 128 0 251 0 0 empty empty empty 0 -9 0 10 -262144
-1 -1 0 1;
#X msg 274 343 2 \$1;
#X msg 314 342 1 \$1;
#X floatatom 476 90 5 0 0 0 - - -;
#X msg 457 408 volume \$1;
#X obj 83 349 osc~ 440;
#X obj 168 205 sp-arduino 3;
#X obj 600 90 metro 500;
#X obj 600 63 tgl 15 0 empty empty empty 17 7 0 10 -262144 -1 -1 0
1;
#X obj 622 113 del 20;
#X obj 654 63 hsl 128 15 0 1000 0 0 empty empty empty -2 -8 0 10 -262144
-1 -1 0 1;
#X floatatom 676 90 5 0 0 0 - - -;
#X msg 600 136 led_red 1;
#X msg 622 161 led_red 0;
#X obj 602 273 import maxlib;
#X obj 457 364 maxlib/scale 0 251 0 1 0;
#X connect 0 0 33 0;
#X connect 1 0 33 0;
#X connect 2 0 29 0;
#X connect 3 0 28 0;
#X connect 5 0 19 0;
#X connect 6 0 11 0;
#X connect 7 0 35 0;
#X connect 8 0 6 0;
#X connect 9 0 7 0;
#X connect 10 0 17 0;
#X connect 10 0 12 0;
#X connect 11 0 10 0;
#X connect 12 0 16 0;
#X connect 13 0 10 1;
#X connect 13 0 30 0;
#X connect 15 0 14 0;
#X connect 15 1 14 1;
#X connect 16 0 33 1;
#X connect 17 0 33 1;
#X connect 18 0 31 0;
#X connect 20 0 21 0;
#X connect 21 0 33 1;
#X connect 22 0 23 0;
#X connect 23 0 33 1;
#X connect 24 0 33 1;
#X connect 25 0 15 1;
#X connect 27 0 42 0;
#X connect 28 0 15 2;
#X connect 29 0 15 2;
#X connect 31 0 14 2;
#X connect 32 0 15 0;
#X connect 33 0 2 0;
#X connect 33 1 3 0;
#X connect 33 2 4 0;
#X connect 33 3 5 0;
#X connect 33 4 8 0;
#X connect 33 5 9 0;
#X connect 33 6 26 0;
#X connect 33 7 27 0;
#X connect 34 0 39 0;
#X connect 34 0 36 0;
#X connect 35 0 34 0;
#X connect 36 0 40 0;
#X connect 37 0 34 1;
#X connect 37 0 38 0;
#X connect 39 0 33 1;
#X connect 40 0 33 1;
#X connect 42 0 18 0;
