#N canvas 0 22 450 300 10;
#X obj 83 56 adc~;
#X obj 83 88 sp-attack-detector 50 75;
#X obj 83 123 sp-beep~ 330;
#X obj 83 162 dac~;
#X text 153 36 hysteresis lower;
#X text 223 62 hyst upper;
#X connect 0 0 1 0;
#X connect 0 1 1 0;
#X connect 1 0 2 0;
#X connect 2 0 3 0;
#X connect 2 0 3 1;
