#N canvas 193 242 450 300 10;
#X obj 103 183 timer;
#X obj 69 37 inlet sync;
#X obj 86 233 del;
#X obj 69 259 outlet beat;
#X obj 202 38 inlet ratio;
#X obj 202 139 clip 0.01 0.99;
#X obj 103 207 *;
#X obj 294 38 loadbang;
#X obj 294 68 f \$1;
#X obj 69 70 t b b b b;
#X connect 0 0 6 0;
#X connect 1 0 9 0;
#X connect 2 0 3 0;
#X connect 4 0 5 0;
#X connect 5 0 6 1;
#X connect 6 0 2 1;
#X connect 7 0 8 0;
#X connect 8 0 5 0;
#X connect 9 0 3 0;
#X connect 9 1 2 0;
#X connect 9 2 0 0;
#X connect 9 3 0 1;
