#N canvas 0 22 492 399 10;
#X obj 41 27 inlet;
#X obj 80 283 expr 60 / $f1 * 1000;
#X obj 53 84 f;
#X obj 53 108 t f f;
#X obj 80 250 f;
#X obj 53 131 < 1;
#X obj 41 59 t b f;
#X obj 80 216 t b f;
#X obj 53 158 sel 1;
#X msg 53 183 1e-06;
#X obj 80 314 outlet;
#X connect 0 0 6 0;
#X connect 1 0 10 0;
#X connect 2 0 3 0;
#X connect 3 0 5 0;
#X connect 3 1 7 0;
#X connect 4 0 1 0;
#X connect 5 0 8 0;
#X connect 6 0 2 0;
#X connect 6 1 2 1;
#X connect 7 0 4 0;
#X connect 7 1 4 1;
#X connect 8 0 9 0;
#X connect 9 0 7 0;
