#N canvas 424 260 295 292 10;
#X obj 157 47 inlet;
#X obj 83 47 inlet;
#X obj 157 123 - 1;
#X obj 83 73 b;
#X obj 83 230 outlet;
#X obj 208 230 outlet;
#X obj 83 195 sel 1;
#X obj 157 92 int;
#X obj 208 157 sel 1;
#X obj 208 195 b;
#X obj 151 230 outlet;
#X obj 83 122 int \$1;
#X obj 83 158 == \$1;
#X connect 0 0 7 0;
#X connect 0 0 11 1;
#X connect 1 0 3 0;
#X connect 2 0 11 1;
#X connect 3 0 11 0;
#X connect 6 0 4 0;
#X connect 7 0 12 1;
#X connect 8 0 9 0;
#X connect 9 0 5 0;
#X connect 11 0 2 0;
#X connect 11 0 8 0;
#X connect 11 0 10 0;
#X connect 11 0 12 0;
#X connect 12 0 6 0;
