#N canvas 539 203 387 305 10;
#X obj 33 42 inlet control;
#X obj 33 228 metro;
#X obj 138 42 inlet lower-range;
#X obj 117 211 + \$1;
#X obj 260 42 inlet upper-range;
#X obj 117 187 random;
#X obj 150 142 -;
#X obj 150 118 \$2;
#X obj 178 118 \$1;
#X obj 150 72 loadbang;
#X obj 150 94 t b b;
#X obj 230 125 t b f;
#X obj 33 256 outlet;
#X obj 167 257 outlet time;
#X obj 150 165 clip 10 100000;
#X connect 0 0 1 0;
#X connect 1 0 5 0;
#X connect 1 0 12 0;
#X connect 2 0 3 1;
#X connect 2 0 11 0;
#X connect 3 0 1 1;
#X connect 3 0 13 0;
#X connect 4 0 6 0;
#X connect 5 0 3 0;
#X connect 6 0 14 0;
#X connect 7 0 6 0;
#X connect 8 0 6 1;
#X connect 9 0 10 0;
#X connect 10 0 7 0;
#X connect 10 1 8 0;
#X connect 11 0 6 0;
#X connect 11 1 6 1;
#X connect 14 0 5 1;
