#N canvas 95 220 356 355 10;
#X obj 174 284 outlet~;
#X obj 189 126 inlet;
#X obj 174 196 osc~ 1000;
#X obj 174 257 *~;
#X msg 189 219 1;
#X msg 248 220 0;
#X obj 248 186 del 100;
#X obj 225 126 inlet;
#X obj 45 16 loadbang;
#X obj 45 41 f \$1;
#X obj 45 97 sel 1;
#X obj 45 68 != 0;
#X obj 45 119 f \$1;
#X obj 45 143 clip 20 20000;
#X connect 1 0 4 0;
#X connect 1 0 6 0;
#X connect 2 0 3 0;
#X connect 3 0 0 0;
#X connect 4 0 3 1;
#X connect 5 0 3 1;
#X connect 6 0 5 0;
#X connect 7 0 2 0;
#X connect 8 0 9 0;
#X connect 9 0 11 0;
#X connect 10 0 12 0;
#X connect 11 0 10 0;
#X connect 12 0 13 0;
#X connect 13 0 2 0;
