#N canvas 232 49 497 408 10;
#X obj 158 57 inlet~;
#N canvas 639 153 340 365 bus 1;
#X obj 25 21 inlet~;
#X obj 125 23 inlet;
#X obj 25 178 *~;
#X obj 77 70 sel 0;
#X msg 68 101 0 5;
#X msg 104 100 1 5;
#X obj 68 130 line~;
#X obj 179 24 loadbang;
#X msg 179 53 1;
#X msg 124 150 0;
#X obj 124 128 del 5;
#X obj 68 280 prepend set;
#X msg 95 314 bus-0;
#X obj 68 218 r \$0-bus-s;
#X obj 68 259 sprintf bus-%d;
#X obj 68 238 change;
#X msg 172 126 1;
#X obj 203 204 loadbang;
#X obj 203 230 f \$2;
#X obj 203 254 s \$0-bus-r;
#X obj 25 333 throw~ bus-0;
#X obj 124 173 switch~;
#X connect 0 0 2 0;
#X connect 1 0 3 0;
#X connect 2 0 20 0;
#X connect 3 0 4 0;
#X connect 3 0 10 0;
#X connect 3 1 5 0;
#X connect 3 1 16 0;
#X connect 4 0 6 0;
#X connect 5 0 6 0;
#X connect 6 0 2 1;
#X connect 7 0 8 0;
#X connect 8 0 3 0;
#X connect 9 0 21 0;
#X connect 10 0 9 0;
#X connect 11 0 12 0;
#X connect 11 0 20 0;
#X connect 13 0 15 0;
#X connect 14 0 11 0;
#X connect 15 0 14 0;
#X connect 16 0 21 0;
#X connect 17 0 18 0;
#X connect 18 0 19 0;
#X restore 158 125 pd bus;
#X obj 11 11 cnv 15 98 20 empty empty empty 20 12 0 14 -66577 -66577
0;
#X obj 48 15 nbx 2 12 0 11 0 0 \$0-bus-s \$0-bus-r bus: -30 7 0 10
-262144 -1 -260097 0 256;
#X obj 91 15 tgl 12 0 \$0-on-s \$0-on-r empty 17 7 0 10 -262144 -1
-1 1 1;
#N canvas 407 240 298 261 save 0;
#X obj 33 45 tof/param /bus/\$1/bus 0;
#X obj 33 70 change;
#X obj 33 95 s \$0-bus-r;
#X obj 168 20 r \$0-bus-s;
#X obj 33 160 change;
#X obj 162 110 r \$0-on-s;
#X obj 33 135 tof/param /bus/\$1/on 1;
#X obj 33 185 s \$0-on-r;
#X obj 33 218 sp-param-file;
#X connect 0 0 1 0;
#X connect 1 0 2 0;
#X connect 3 0 0 1;
#X connect 4 0 7 0;
#X connect 5 0 6 1;
#X connect 6 0 4 0;
#X restore 38 190 pd save;
#X connect 0 0 1 0;
#X connect 4 0 1 1;
#X coords 0 -1 1 1 100 22 1 10 10;
