#N canvas 39 142 450 300 10;
#X obj 71 49 inlet;
#X obj 71 108 f 0;
#X obj 111 108 + 1;
#X obj 71 269 outlet;
#X msg 160 165 reset;
#X obj 71 78 route bang;
#X obj 160 95 symbol;
#X obj 160 127 sel reset;
#X msg 220 163 0;
#X obj 71 180 sel 1;
#X obj 71 227 sp-bangonce;
#X obj 71 145 >= \$1;
#X connect 0 0 5 0;
#X connect 1 0 2 0;
#X connect 1 0 11 0;
#X connect 2 0 1 1;
#X connect 4 0 10 0;
#X connect 5 0 1 0;
#X connect 5 1 6 0;
#X connect 6 0 7 0;
#X connect 7 0 4 0;
#X connect 7 0 8 0;
#X connect 8 0 1 1;
#X connect 9 0 10 0;
#X connect 10 0 3 0;
#X connect 11 0 9 0;
