#N canvas 738 126 214 205 10;
#X obj 48 49 bng 15 250 50 0 empty empty empty 17 7 0 10 -262144 -1
-1;
#X obj 48 113 bng 15 250 50 0 empty empty empty 17 7 0 10 -262144 -1
-1;
#X floatatom 100 150 5 0 0 0 - - -;
#X obj 153 114 bng 15 250 50 0 empty empty empty 17 7 0 10 -262144
-1 -1;
#X msg 153 46 4;
#X obj 48 80 sp-bangsync-loop 6;
#X connect 0 0 5 0;
#X connect 4 0 5 1;
#X connect 5 0 1 0;
#X connect 5 1 2 0;
#X connect 5 2 3 0;
