#N canvas 340 116 228 208 10;
#X obj 29 2 inlet;
#X obj 29 151 spigot;
#X obj 29 174 outlet;
#X msg 49 114 0;
#X msg 86 114 1;
#X obj 29 30 route bang;
#X obj 86 54 symbol;
#X obj 86 83 select reset;
#X obj 134 54 loadbang;
#X connect 0 0 5 0;
#X connect 1 0 2 0;
#X connect 1 0 3 0;
#X connect 3 0 1 1;
#X connect 4 0 1 1;
#X connect 5 0 1 0;
#X connect 5 1 6 0;
#X connect 6 0 7 0;
#X connect 7 0 4 0;
#X connect 8 0 4 0;
