#N canvas 193 242 450 300 10;
#X obj 69 37 inlet sync;
#X obj 69 259 outlet beat;
#X obj 69 84 sp-bangsync-divider \$1;
#X obj 198 38 inlet ratio 1;
#X obj 288 98 inlet ratio 2;
#X obj 159 144 sp-bangsync-divider \$2;
#X connect 0 0 2 0;
#X connect 0 0 5 0;
#X connect 2 0 1 0;
#X connect 3 0 2 1;
#X connect 4 0 5 1;
#X connect 5 0 1 0;
