#N canvas 590 120 450 300 10;
#X obj 71 139 +dsp;
#X obj 71 60 bng 15 250 50 0 empty empty empty 17 7 0 10 -262144 -1
-1;
#X obj 71 99 sp-beep~;
#X obj 119 41 hsl 128 15 100 5000 0 0 empty empty empty -2 -8 0 10
-262144 -1 -1 1900 1;
#X text 115 17 Frequency;
#X obj 224 92 sp-beep~ 440;
#X obj 224 68 bng 15 250 50 0 empty empty empty 17 7 0 10 -262144 -1
-1;
#X obj 339 122 sp-beep~;
#X obj 339 97 bng 15 250 50 0 empty empty empty 17 7 0 10 -262144 -1
-1;
#X connect 1 0 2 0;
#X connect 2 0 0 0;
#X connect 3 0 2 1;
#X connect 5 0 0 1;
#X connect 6 0 5 0;
#X connect 7 0 0 1;
#X connect 8 0 7 0;
