#N canvas 472 447 450 300 10;
#X obj 58 84 inlet~;
#X obj 128 84 inlet~;
#X obj 58 218 outlet~;
#X obj 128 218 outlet~;
#X obj 58 145 spigot~;
#X obj 128 145 spigot~;
#X obj 197 56 inlet;
#X obj 197 82 sel 0 1;
#X msg 97 113 0;
#X msg 167 114 1;
#X connect 0 0 4 0;
#X connect 1 0 5 0;
#X connect 4 0 2 0;
#X connect 4 1 3 0;
#X connect 5 0 3 0;
#X connect 5 1 2 0;
#X connect 6 0 7 0;
#X connect 7 0 8 0;
#X connect 7 1 9 0;
#X connect 8 0 4 1;
#X connect 8 0 5 1;
#X connect 9 0 5 1;
#X connect 9 0 4 1;
