#N canvas 237 205 450 300 10;
#X obj 92 26 inlet;
#X obj 92 252 outlet;
#X obj 92 58 route start stop pause;
#X msg 92 99 1;
#X obj 92 216 f;
#X obj 228 117 loadbang;
#X msg 228 188 0;
#X msg 135 99 0;
#X obj 178 100 tgl 15 0 empty empty empty 17 7 0 10 -262144 -1 -1 0
1;
#X obj 178 123 sel 1;
#X msg 178 148 0;
#X msg 211 83 set 0;
#X obj 92 176 metro \$1;
#X obj 145 215 + 1;
#X connect 0 0 2 0;
#X connect 2 0 3 0;
#X connect 2 1 7 0;
#X connect 2 2 8 0;
#X connect 3 0 12 0;
#X connect 4 0 1 0;
#X connect 4 0 13 0;
#X connect 5 0 6 0;
#X connect 6 0 4 1;
#X connect 7 0 4 0;
#X connect 7 0 11 0;
#X connect 7 0 12 0;
#X connect 8 0 9 0;
#X connect 9 0 10 0;
#X connect 9 1 3 0;
#X connect 10 0 12 0;
#X connect 11 0 8 0;
#X connect 12 0 4 0;
#X connect 13 0 4 1;
