#N canvas 230 242 295 207 10;
#X obj 86 23 inlet~;
#X obj 86 163 outlet~;
#X obj 86 118 tof/crossfade~ 1;
#X obj 132 23 inlet~;
#X obj 187 23 inlet;
#X obj 179 89 line~;
#X msg 179 60 \$1 5;
#X connect 0 0 2 0;
#X connect 2 0 1 0;
#X connect 3 0 2 1;
#X connect 4 0 6 0;
#X connect 5 0 2 2;
#X connect 6 0 5 0;
