#N canvas 146 186 747 349 10;
#X declare -lib zexy -lib bsaylor;
#X obj 29 137 inlet~;
#X obj 114 138 inlet~;
#X obj 29 304 outlet~;
#X obj 114 304 outlet~;
#X obj 555 50 table \$0-irL;
#X obj 29 192 partconv~ \$0-irL 2048;
#X obj 428 48 inlet;
#X msg 428 93 read -resize \$1 \$2-irL;
#X obj 428 71 pack s \$0;
#X obj 428 117 soundfiler;
#X msg 354 94 set \$2-irL;
#X obj 114 223 partconv~ \$0-irL 2048;
#X obj 555 20 declare -lib zexy -lib bsaylor;
#X connect 0 0 5 0;
#X connect 1 0 11 0;
#X connect 5 0 2 0;
#X connect 6 0 8 0;
#X connect 7 0 9 0;
#X connect 8 0 7 0;
#X connect 8 0 10 0;
#X connect 10 0 5 0;
#X connect 10 0 11 0;
#X connect 11 0 3 0;
