#N canvas 550 177 339 312 10;
#X obj 46 66 inlet~;
#X obj 131 66 inlet~;
#X obj 46 275 outlet~;
#X obj 200 66 inlet;
#X obj 200 96 clip 0 1;
#X msg 61 184 \$1 5;
#X obj 61 207 line~;
#X obj 46 230 *~;
#X obj 253 31 loadbang;
#X msg 253 52 0.5;
#X obj 146 206 line~;
#X obj 131 230 *~;
#X msg 146 182 \$1 5;
#X obj 146 159 sin;
#X obj 61 159 cos;
#X obj 200 122 scale 0 1 0 1.5708;
#X connect 0 0 7 0;
#X connect 1 0 11 0;
#X connect 3 0 4 0;
#X connect 4 0 15 0;
#X connect 5 0 6 0;
#X connect 6 0 7 1;
#X connect 7 0 2 0;
#X connect 8 0 9 0;
#X connect 9 0 4 0;
#X connect 10 0 11 1;
#X connect 11 0 2 0;
#X connect 12 0 10 0;
#X connect 13 0 12 0;
#X connect 14 0 5 0;
#X connect 15 0 13 0;
#X connect 15 0 14 0;
