#N canvas 200 182 445 189 10;
#X obj 78 82 sp-counter 100;
#X msg 78 44 start;
#X floatatom 78 131 5 0 0 0 - - -;
#X msg 132 45 stop;
#X msg 185 45 pause;
#X text 177 82 interval between counts in ms;
#X connect 0 0 2 0;
#X connect 1 0 0 0;
#X connect 3 0 0 0;
#X connect 4 0 0 0;
