#N canvas 0 22 644 384 10;
#X obj 127 139 zexy/date;
#X obj 216 140 zexy/time;
#X obj 127 59 inlet;
#X obj 127 93 t b b;
#X obj 127 225 pack f f f f f f;
#X obj 127 300 outlet;
#X obj 224 262 sprintf %04d.%02d.%2d-%02d:%02d:%02d;
#X obj 224 300 outlet;
#X connect 0 0 4 0;
#X connect 0 1 4 1;
#X connect 0 2 4 2;
#X connect 1 0 4 3;
#X connect 1 1 4 4;
#X connect 1 2 4 5;
#X connect 2 0 3 0;
#X connect 3 0 0 0;
#X connect 3 1 1 0;
#X connect 4 0 5 0;
#X connect 4 0 6 0;
#X connect 6 0 7 0;
