#N canvas 567 205 323 263 10;
#X obj 56 41 inlet~;
#X obj 104 41 inlet~;
#X obj 183 41 inlet;
#X obj 56 190 outlet~;
#X obj 183 73 clip 0 1;
#X obj 56 117 sp-crossfade~;
#X obj 242 10 loadbang;
#X msg 242 40 1;
#X connect 0 0 5 0;
#X connect 1 0 5 1;
#X connect 2 0 4 0;
#X connect 4 0 5 2;
#X connect 5 0 3 0;
#X connect 6 0 7 0;
#X connect 7 0 4 0;
