#N canvas 425 22 468 366 10;
#X obj 40 -30 inlet~;
#X obj 42 244 outlet~;
#X obj 40 16 delwrite~ \$0-buffer \$1;
#X obj 42 218 vd~ \$0-buffer;
#X obj 200 -29 inlet;
#X obj 42 194 sig~;
#X obj 200 49 clip 0 \$1;
#X obj 200 80 s \$0-delay;
#X obj 42 165 r \$0-delay;
#X obj 200 12 route delay feedback;
#X obj 276 48 clip 0 90;
#X obj 162 235 *~;
#X obj 162 262 s~ \$0-feedback;
#X obj 199 218 line~;
#X msg 199 188 \$1 20;
#X obj 199 159 expr $f1 / 100;
#X obj 199 132 r \$0-feedback;
#X obj 363 -30 loadbang;
#X obj 363 15 s \$0-delay;
#X obj 363 -7 expr \$1;
#X obj 86 -30 r~ \$0-feedback;
#X obj 276 80 s \$0-feedback;
#X connect 0 0 2 0;
#X connect 3 0 1 0;
#X connect 3 0 11 0;
#X connect 4 0 9 0;
#X connect 5 0 3 0;
#X connect 6 0 7 0;
#X connect 8 0 5 0;
#X connect 9 0 6 0;
#X connect 9 1 10 0;
#X connect 10 0 21 0;
#X connect 11 0 12 0;
#X connect 13 0 11 1;
#X connect 14 0 13 0;
#X connect 15 0 14 0;
#X connect 16 0 15 0;
#X connect 17 0 19 0;
#X connect 19 0 18 0;
#X connect 20 0 2 0;
