#N canvas 567 205 323 263 10;
#X obj 56 41 inlet~;
#X obj 104 41 inlet~;
#X obj 183 11 inlet;
#X obj 56 190 outlet~;
#X obj 56 117 sp-crossfade~;
#X obj 242 10 loadbang;
#X obj 183 73 clip 0 100;
#X msg 242 40 100;
#X obj 183 100 / 100;
#X connect 0 0 4 0;
#X connect 1 0 4 1;
#X connect 2 0 6 0;
#X connect 4 0 3 0;
#X connect 5 0 7 0;
#X connect 6 0 8 0;
#X connect 7 0 6 0;
#X connect 8 0 4 2;
