#N canvas 227 85 943 475 10;
#X declare -path contrib/partconvEQ10~;
#X obj 299 18 inlet~;
#X obj 299 429 outlet~;
#X obj 22 486 declare -path contrib/partconvEQ10~;
#N canvas 444 120 433 433 slidermapping............... 0;
#X obj 21 29 inlet;
#X obj 61 29 inlet;
#X obj 100 29 inlet;
#X obj 140 29 inlet;
#X obj 179 29 inlet;
#X obj 219 29 inlet;
#X obj 258 29 inlet;
#X obj 298 29 inlet;
#X obj 337 29 inlet;
#X obj 377 29 inlet;
#X obj 130 113 list;
#X obj 130 356 outlet;
#X obj 130 141 unpack;
#X floatatom 184 158 3 0 0 0 - - -;
#X obj 123 181 cnv 15 200 140 empty empty empty 20 12 0 14 -233017
-66577 0;
#X obj 130 190 - 0.5;
#X obj 130 215 * 24;
#X floatatom 185 232 5 0 0 0 - - -;
#X floatatom 74 158 5 0 0 0 - - -;
#X obj 130 248 + 100;
#X obj 130 275 dbtorms;
#X floatatom 185 292 5 0 0 0 - - -;
#X obj 130 329 pack;
#X text 211 154 slider index;
#X text 32 155 value;
#X text 225 233 dB;
#X text 20 380 map slider range [0 1] to dB range and convert to RMS
amplitude;
#X text 225 292 RMS amplitude;
#X msg 21 59 \$1 0;
#X msg 61 59 \$1 1;
#X msg 100 59 \$1 2;
#X msg 140 59 \$1 3;
#X msg 179 59 \$1 4;
#X msg 219 59 \$1 5;
#X msg 258 59 \$1 6;
#X msg 298 59 \$1 7;
#X msg 337 59 \$1 8;
#X msg 377 59 \$1 9;
#X text 182 201 mapping -12 to +12 dB;
#X connect 0 0 28 0;
#X connect 1 0 29 0;
#X connect 2 0 30 0;
#X connect 3 0 31 0;
#X connect 4 0 32 0;
#X connect 5 0 33 0;
#X connect 6 0 34 0;
#X connect 7 0 35 0;
#X connect 8 0 36 0;
#X connect 9 0 37 0;
#X connect 10 0 12 0;
#X connect 12 0 15 0;
#X connect 12 0 18 0;
#X connect 12 1 22 1;
#X connect 12 1 13 0;
#X connect 15 0 16 0;
#X connect 16 0 17 0;
#X connect 16 0 19 0;
#X connect 19 0 20 0;
#X connect 20 0 21 0;
#X connect 20 0 22 0;
#X connect 22 0 11 0;
#X connect 28 0 10 0;
#X connect 29 0 10 0;
#X connect 30 0 10 0;
#X connect 31 0 10 0;
#X connect 32 0 10 0;
#X connect 33 0 10 0;
#X connect 34 0 10 0;
#X connect 35 0 10 0;
#X connect 36 0 10 0;
#X connect 37 0 10 0;
#X restore 33 312 pd slidermapping...............;
#X obj 231 114 r \$0-all;
#X obj 21 118 cnv 15 198 160 empty empty empty 20 12 0 14 -66577 -66577
0;
#X obj 63 155 vsl 15 100 0 1 0 0 \$0-cl1-s \$0-cl1 140 0 -9 0 10 -262144
-1 -262144 4450 1;
#X obj 78 155 vsl 15 100 0 1 0 0 \$0-cl2-s \$0-cl2 170 0 110 0 10 -262144
-1 -262144 6050 1;
#X obj 93 155 vsl 15 100 0 1 0 0 \$0-cl3-s \$0-cl3 230 0 -9 0 10 -262144
-1 -262144 4350 1;
#X obj 108 155 vsl 15 100 0 1 0 0 \$0-cl4-s \$0-cl4 350 0 110 0 10
-262144 -1 -262144 5450 1;
#X obj 123 155 vsl 15 100 0 1 0 0 \$0-cl5-s \$0-cl5 590 0 -9 0 10 -262144
-1 -262144 3350 1;
#X obj 138 155 vsl 15 100 0 1 0 0 \$0-cl6-s \$0-cl6 1.1 0 110 0 10
-262144 -1 -262144 6550 1;
#X obj 153 155 vsl 15 100 0 1 0 0 \$0-cl7-s \$0-cl7 2.1 0 -9 0 10 -262144
-1 -262144 5550 1;
#X obj 168 155 vsl 15 100 0 1 0 0 \$0-cl8-s \$0-cl8 4 0 110 0 10 -262144
-1 -262144 3650 1;
#X obj 183 155 vsl 15 100 0 1 0 0 \$0-cl9-s \$0-cl9 7.9 0 -9 0 10 -262144
-1 -262144 4950 1;
#X obj 198 155 vsl 15 100 0 1 0 0 \$0-cl10-s \$0-cl10 15 0 110 0 10
-262144 -1 -262144 5850 1;
#N canvas 536 79 663 578 centerfreqs------------- 0;
#X obj 151 145 samplerate~;
#X obj 151 170 / 2048;
#X obj 83 266 *;
#X obj 83 168 t b f;
#X obj 83 216 pow;
#X obj 83 145 * 0.99943;
#X obj 83 192 f 2;
#X obj 83 121 + 0.5;
#X obj 38 104 t f f;
#N canvas 489 206 298 300 round 0;
#X obj 29 19 inlet;
#X obj 29 47 moses 1000;
#X obj 29 74 / 10;
#X obj 29 131 int;
#X obj 29 156 * 10;
#X obj 29 262 outlet;
#X obj 86 129 int;
#X obj 86 74 / 100;
#X obj 86 156 / 10;
#X obj 29 105 + 0.5;
#X obj 86 104 + 0.5;
#X obj 86 194 moses 10;
#X obj 131 222 int;
#X connect 0 0 1 0;
#X connect 1 0 2 0;
#X connect 1 1 7 0;
#X connect 2 0 9 0;
#X connect 3 0 4 0;
#X connect 4 0 5 0;
#X connect 6 0 8 0;
#X connect 7 0 10 0;
#X connect 8 0 11 0;
#X connect 9 0 3 0;
#X connect 10 0 6 0;
#X connect 11 0 5 0;
#X connect 11 1 12 0;
#X connect 12 0 5 0;
#X restore 83 289 pd round;
#X obj 38 27 loadbang;
#X obj 38 338 route 0 1 2 3 4 5 6 7 8 9;
#N canvas 417 344 314 260 forloop 0;
#X obj 54 13 inlet;
#X obj 54 41 t b b;
#X obj 54 163 f;
#X obj 84 163 + 1;
#X msg 69 136 0;
#X msg 54 71 10;
#X obj 54 198 outlet;
#X obj 54 107 until;
#X connect 0 0 1 0;
#X connect 1 0 5 0;
#X connect 1 1 4 0;
#X connect 2 0 3 0;
#X connect 2 0 6 0;
#X connect 3 0 2 1;
#X connect 4 0 2 1;
#X connect 5 0 7 0;
#X connect 7 0 2 0;
#X restore 38 80 pd forloop;
#X obj 38 53 t b b;
#X text 195 170 FFT size 2048 assumed;
#X text 115 240 start exponential curve at bin 4;
#X obj 38 7 bng 15 250 50 0 empty empty empty 17 7 0 10 -262144 -1
-1;
#X obj 38 312 pack f f;
#X obj 17 396 l2s;
#X obj 17 447 outlet;
#X msg 17 421 label \$1;
#X obj 77 396 l2s;
#X obj 77 447 outlet;
#X msg 77 421 label \$1;
#X obj 137 396 l2s;
#X obj 137 447 outlet;
#X msg 137 421 label \$1;
#X obj 197 396 l2s;
#X obj 197 447 outlet;
#X msg 197 421 label \$1;
#X obj 257 396 l2s;
#X obj 257 447 outlet;
#X msg 257 421 label \$1;
#X obj 317 396 l2s;
#X obj 317 447 outlet;
#X msg 317 421 label \$1;
#X obj 377 396 l2s;
#X obj 377 447 outlet;
#X msg 377 421 label \$1;
#X obj 437 396 l2s;
#X obj 437 447 outlet;
#X msg 437 421 label \$1;
#X obj 477 480 l2s;
#X obj 477 531 outlet;
#X msg 477 505 label \$1;
#X obj 547 480 l2s;
#X obj 547 531 outlet;
#X msg 547 505 label \$1;
#X obj 83 242 + 5;
#X connect 0 0 1 0;
#X connect 1 0 2 1;
#X connect 2 0 9 0;
#X connect 3 0 6 0;
#X connect 3 1 4 1;
#X connect 4 0 48 0;
#X connect 5 0 3 0;
#X connect 6 0 4 0;
#X connect 7 0 5 0;
#X connect 8 0 17 0;
#X connect 8 1 7 0;
#X connect 9 0 17 1;
#X connect 10 0 13 0;
#X connect 11 0 18 0;
#X connect 11 1 21 0;
#X connect 11 2 24 0;
#X connect 11 3 27 0;
#X connect 11 4 30 0;
#X connect 11 5 33 0;
#X connect 11 6 36 0;
#X connect 11 7 39 0;
#X connect 11 8 42 0;
#X connect 11 9 45 0;
#X connect 12 0 8 0;
#X connect 13 0 12 0;
#X connect 13 1 0 0;
#X connect 16 0 10 0;
#X connect 17 0 11 0;
#X connect 18 0 20 0;
#X connect 20 0 19 0;
#X connect 21 0 23 0;
#X connect 23 0 22 0;
#X connect 24 0 26 0;
#X connect 26 0 25 0;
#X connect 27 0 29 0;
#X connect 29 0 28 0;
#X connect 30 0 32 0;
#X connect 32 0 31 0;
#X connect 33 0 35 0;
#X connect 35 0 34 0;
#X connect 36 0 38 0;
#X connect 38 0 37 0;
#X connect 39 0 41 0;
#X connect 41 0 40 0;
#X connect 42 0 44 0;
#X connect 44 0 43 0;
#X connect 45 0 47 0;
#X connect 47 0 46 0;
#X connect 48 0 2 0;
#X restore 30 43 pd centerfreqs-------------;
#X obj 64 155 cnv 1 13 54 empty \$0-cnv1 empty 20 12 0 14 -233017 -66577
0;
#X obj 79 155 cnv 1 13 37 empty \$0-cnv2 empty 20 12 0 14 -233017 -66577
0;
#X obj 94 155 cnv 1 13 55 empty \$0-cnv3 empty 20 12 0 14 -233017 -66577
0;
#X obj 109 155 cnv 1 13 43 empty \$0-cnv4 empty 20 12 0 14 -233017
-66577 0;
#X obj 124 155 cnv 1 13 65 empty \$0-cnv5 empty 20 12 0 14 -233017
-66577 0;
#X obj 139 155 cnv 1 13 32 empty \$0-cnv6 empty 20 12 0 14 -233017
-66577 0;
#X obj 154 155 cnv 1 13 42 empty \$0-cnv7 empty 20 12 0 14 -233017
-66577 0;
#X obj 169 155 cnv 1 13 62 empty \$0-cnv8 empty 20 12 0 14 -233017
-66577 0;
#X obj 184 155 cnv 1 13 49 empty \$0-cnv9 empty 20 12 0 14 -233017
-66577 0;
#X obj 199 155 cnv 1 13 39 empty \$0-cnv10 empty 20 12 0 14 -233017
-66577 0;
#X text 46 197 0;
#X text 27 151 +12db;
#X text 61 196 -------------------------;
#X text 27 245 -12db;
#X obj 31 126 bng 12 250 50 0 \$0-reset-s \$0-reset-r reset 16 6 0
10 -262144 -1 -262144;
#X obj 201 126 tgl 12 0 \$0-pass-s \$0-pass-r pass -30 6 0 10 -262130
-1 -262144 0 1;
#X obj 299 377 sp-pass~;
#X obj 344 351 r \$0-pass-s;
#N canvas 604 394 450 300 eq10~ 0;
#X obj 39 41 inlet~;
#X obj 39 219 outlet~;
#X obj 114 39 inlet;
#X obj 39 129 partconvEQ10~;
#X obj 172 39 r \$0-pass-s;
#X obj 172 99 del 20;
#X msg 172 125 0;
#X msg 222 127 1;
#X obj 172 73 sel 1;
#X obj 172 150 switch~;
#X obj 276 40 loadbang;
#X connect 0 0 3 0;
#X connect 2 0 3 1;
#X connect 3 0 1 0;
#X connect 4 0 8 0;
#X connect 5 0 6 0;
#X connect 6 0 9 0;
#X connect 7 0 9 0;
#X connect 8 0 5 0;
#X connect 8 1 7 0;
#X connect 10 0 7 0;
#X restore 299 329 pd eq10~;
#N canvas 401 217 188 152 reset 0;
#X obj 31 105 s \$0-all;
#X obj 31 25 loadbang;
#X obj 31 52 del 10;
#X msg 31 76 0.5;
#X obj 84 52 r \$0-reset-s;
#X connect 1 0 2 0;
#X connect 2 0 3 0;
#X connect 3 0 0 0;
#X connect 4 0 3 0;
#X restore 17 397 pd reset;
#N canvas 499 154 548 284 place 0;
#N canvas 266 75 800 532 colors 0;
#X obj 26 96 *;
#X obj 26 46 t b f;
#X obj 26 119 * -1;
#X obj 176 96 *;
#X obj 176 46 t b f;
#X obj 176 119 * -1;
#X obj 321 96 *;
#X obj 321 46 t b f;
#X obj 321 119 * -1;
#X obj 471 96 *;
#X obj 471 46 t b f;
#X obj 471 119 * -1;
#X obj 621 96 *;
#X obj 621 46 t b f;
#X obj 621 119 * -1;
#X obj 26 24 r \$0-cl1-s;
#X msg 26 74 100;
#X obj 26 163 pack f \$0 f;
#X obj 246 94 f 13;
#X msg 26 186 \; \$2-cnv1 vis_size \$3 \$1;
#X obj 176 163 pack f \$0 f;
#X obj 321 163 pack f \$0 f;
#X obj 471 163 pack f \$0 f;
#X obj 621 163 pack f \$0 f;
#X obj 246 69 loadbang;
#X msg 176 74 100;
#X msg 321 74 100;
#X msg 471 74 100;
#X msg 621 74 100;
#X obj 176 24 r \$0-cl2-s;
#X obj 321 24 r \$0-cl3-s;
#X obj 471 24 r \$0-cl4-s;
#X obj 621 24 r \$0-cl5-s;
#X msg 176 186 \; \$2-cnv2 vis_size \$3 \$1;
#X msg 321 186 \; \$2-cnv3 vis_size \$3 \$1;
#X msg 471 186 \; \$2-cnv4 vis_size \$3 \$1;
#X msg 621 186 \; \$2-cnv5 vis_size \$3 \$1;
#X obj 247 44 bng 15 250 50 0 empty empty empty 17 7 0 10 -262144 -1
-1;
#X obj 176 141 + 99;
#X obj 321 141 + 99;
#X obj 621 141 + 99;
#X obj 471 141 + 99;
#X obj 26 141 + 99;
#X obj 26 316 *;
#X obj 26 266 t b f;
#X obj 26 339 * -1;
#X obj 176 316 *;
#X obj 176 266 t b f;
#X obj 176 339 * -1;
#X obj 321 316 *;
#X obj 321 266 t b f;
#X obj 321 339 * -1;
#X obj 471 316 *;
#X obj 471 266 t b f;
#X obj 471 339 * -1;
#X obj 621 316 *;
#X obj 621 266 t b f;
#X obj 621 339 * -1;
#X msg 26 294 100;
#X obj 26 383 pack f \$0 f;
#X obj 176 383 pack f \$0 f;
#X obj 321 383 pack f \$0 f;
#X obj 471 383 pack f \$0 f;
#X obj 621 383 pack f \$0 f;
#X msg 176 294 100;
#X msg 321 294 100;
#X msg 471 294 100;
#X msg 621 294 100;
#X obj 176 361 + 99;
#X obj 321 361 + 99;
#X obj 621 361 + 99;
#X obj 471 361 + 99;
#X obj 26 361 + 99;
#X obj 26 244 r \$0-cl6-s;
#X obj 176 244 r \$0-cl7-s;
#X obj 321 244 r \$0-cl8-s;
#X obj 471 244 r \$0-cl9-s;
#X obj 621 244 r \$0-cl10-s;
#X msg 26 406 \; \$2-cnv6 vis_size \$3 \$1;
#X msg 176 406 \; \$2-cnv7 vis_size \$3 \$1;
#X msg 321 406 \; \$2-cnv8 vis_size \$3 \$1;
#X msg 471 406 \; \$2-cnv9 vis_size \$3 \$1;
#X msg 621 406 \; \$2-cnv10 vis_size \$3 \$1;
#X connect 0 0 2 0;
#X connect 1 0 16 0;
#X connect 1 1 0 1;
#X connect 2 0 42 0;
#X connect 3 0 5 0;
#X connect 4 0 25 0;
#X connect 4 1 3 1;
#X connect 5 0 38 0;
#X connect 6 0 8 0;
#X connect 7 0 26 0;
#X connect 7 1 6 1;
#X connect 8 0 39 0;
#X connect 9 0 11 0;
#X connect 10 0 27 0;
#X connect 10 1 9 1;
#X connect 11 0 41 0;
#X connect 12 0 14 0;
#X connect 13 0 28 0;
#X connect 13 1 12 1;
#X connect 14 0 40 0;
#X connect 15 0 1 0;
#X connect 16 0 0 0;
#X connect 17 0 19 0;
#X connect 18 0 17 2;
#X connect 18 0 20 2;
#X connect 18 0 21 2;
#X connect 18 0 22 2;
#X connect 18 0 23 2;
#X connect 18 0 59 2;
#X connect 18 0 60 2;
#X connect 18 0 61 2;
#X connect 18 0 62 2;
#X connect 18 0 63 2;
#X connect 20 0 33 0;
#X connect 21 0 34 0;
#X connect 22 0 35 0;
#X connect 23 0 36 0;
#X connect 24 0 18 0;
#X connect 25 0 3 0;
#X connect 26 0 6 0;
#X connect 27 0 9 0;
#X connect 28 0 12 0;
#X connect 29 0 4 0;
#X connect 30 0 7 0;
#X connect 31 0 10 0;
#X connect 32 0 13 0;
#X connect 37 0 24 0;
#X connect 38 0 20 0;
#X connect 39 0 21 0;
#X connect 40 0 23 0;
#X connect 41 0 22 0;
#X connect 42 0 17 0;
#X connect 43 0 45 0;
#X connect 44 0 58 0;
#X connect 44 1 43 1;
#X connect 45 0 72 0;
#X connect 46 0 48 0;
#X connect 47 0 64 0;
#X connect 47 1 46 1;
#X connect 48 0 68 0;
#X connect 49 0 51 0;
#X connect 50 0 65 0;
#X connect 50 1 49 1;
#X connect 51 0 69 0;
#X connect 52 0 54 0;
#X connect 53 0 66 0;
#X connect 53 1 52 1;
#X connect 54 0 71 0;
#X connect 55 0 57 0;
#X connect 56 0 67 0;
#X connect 56 1 55 1;
#X connect 57 0 70 0;
#X connect 58 0 43 0;
#X connect 59 0 78 0;
#X connect 60 0 79 0;
#X connect 61 0 80 0;
#X connect 62 0 81 0;
#X connect 63 0 82 0;
#X connect 64 0 46 0;
#X connect 65 0 49 0;
#X connect 66 0 52 0;
#X connect 67 0 55 0;
#X connect 68 0 60 0;
#X connect 69 0 61 0;
#X connect 70 0 63 0;
#X connect 71 0 62 0;
#X connect 72 0 59 0;
#X connect 73 0 44 0;
#X connect 74 0 47 0;
#X connect 75 0 50 0;
#X connect 76 0 53 0;
#X connect 77 0 56 0;
#X restore 455 24 pd colors;
#X obj 50 111 for++ 1 10;
#X obj 50 146 pack f \$0;
#X obj 220 91 for++ 1 10;
#X obj 220 183 pack f f \$0;
#X obj 220 115 t f f;
#X obj 50 51 loadbang;
#X obj 29 36 bng 15 250 50 0 empty empty empty 17 7 0 10 -262144 -1
-1;
#X msg 220 207 \; \$3-cl\$1 pos \$2 155 \;;
#X obj 360 183 pack f f \$0;
#X msg 360 207 \; \$3-cnv\$1 pos \$2 155 \;;
#X obj 391 154 + 1;
#X obj 247 141 * 15;
#X obj 247 162 + 48;
#X msg 50 180 \; \$2-cl\$1 size 15 100 \; \$2-cnv\$1 vis_size 13 100
\; \$2-cnv\$1 size 1 1 \;;
#X obj 50 74 t b b b;
#X obj 135 143 s \$0-reset-r;
#X connect 1 0 2 0;
#X connect 2 0 14 0;
#X connect 3 0 5 0;
#X connect 4 0 8 0;
#X connect 5 0 4 0;
#X connect 5 0 9 0;
#X connect 5 1 12 0;
#X connect 6 0 15 0;
#X connect 7 0 6 0;
#X connect 9 0 10 0;
#X connect 11 0 9 1;
#X connect 12 0 13 0;
#X connect 13 0 4 1;
#X connect 13 0 11 0;
#X connect 15 0 16 0;
#X connect 15 1 1 0;
#X connect 15 2 3 0;
#X restore 18 423 pd place;
#X obj 460 20 inlet;
#X obj 460 88 route eq10;
#X obj 517 399 outlet;
#X obj 505 20 r sp-\$1;
#X obj 460 152 s \$0-reset-r;
#X obj 502 184 sp-param-file;
#X obj 460 119 route reset save restore pass;
#X obj 588 151 s \$0-pass-r;
#X obj 631 181 print [sp-eq10~] unknown command;
#N canvas 235 146 659 487 save 0;
#X obj 22 81 change;
#X obj 22 62 tof/param /eq10/\$1/1/volume 0.5;
#X obj 205 42 r \$0-cl1-s;
#X obj 22 151 change;
#X obj 22 132 tof/param /eq10/\$1/2/volume 0.5;
#X obj 205 112 r \$0-cl2-s;
#X obj 22 231 change;
#X obj 205 192 r \$0-cl3-s;
#X obj 22 212 tof/param /eq10/\$1/3/volume 0.5;
#X obj 22 301 change;
#X obj 205 262 r \$0-cl4-s;
#X obj 22 282 tof/param /eq10/\$1/4/volume 0.5;
#X obj 22 371 change;
#X obj 205 332 r \$0-cl5-s;
#X obj 22 352 tof/param /eq10/\$1/5/volume 0.5;
#X obj 332 81 change;
#X obj 515 42 r \$0-cl6-s;
#X obj 332 62 tof/param /eq10/\$1/6/volume 0.5;
#X obj 332 151 change;
#X obj 515 112 r \$0-cl7-s;
#X obj 332 132 tof/param /eq10/\$1/7/volume 0.5;
#X obj 332 221 change;
#X obj 515 182 r \$0-cl8-s;
#X obj 332 202 tof/param /eq10/\$1/8/volume 0.5;
#X obj 332 291 change;
#X obj 515 252 r \$0-cl9-s;
#X obj 332 272 tof/param /eq10/\$1/9/volume 0.5;
#X obj 332 371 change;
#X obj 521 332 r \$0-cl10-s;
#X obj 332 352 tof/param /eq10/\$1/10/volume 0.5;
#X obj 22 100 s \$0-cl1;
#X obj 22 170 s \$0-cl2;
#X obj 22 250 s \$0-cl3;
#X obj 22 320 s \$0-cl4;
#X obj 22 390 s \$0-cl5;
#X obj 332 100 s \$0-cl6;
#X obj 332 170 s \$0-cl7;
#X obj 332 240 s \$0-cl8;
#X obj 332 310 s \$0-cl9;
#X obj 332 390 s \$0-cl10;
#X connect 0 0 30 0;
#X connect 1 0 0 0;
#X connect 2 0 1 1;
#X connect 3 0 31 0;
#X connect 4 0 3 0;
#X connect 5 0 4 1;
#X connect 6 0 32 0;
#X connect 7 0 8 1;
#X connect 8 0 6 0;
#X connect 9 0 33 0;
#X connect 10 0 11 1;
#X connect 11 0 9 0;
#X connect 12 0 34 0;
#X connect 13 0 14 1;
#X connect 14 0 12 0;
#X connect 15 0 35 0;
#X connect 16 0 17 1;
#X connect 17 0 15 0;
#X connect 18 0 36 0;
#X connect 19 0 20 1;
#X connect 20 0 18 0;
#X connect 21 0 37 0;
#X connect 22 0 23 1;
#X connect 23 0 21 0;
#X connect 24 0 38 0;
#X connect 25 0 26 1;
#X connect 26 0 24 0;
#X connect 27 0 39 0;
#X connect 28 0 29 1;
#X connect 29 0 27 0;
#X restore 19 448 pd save;
#X connect 0 0 33 1;
#X connect 0 0 35 0;
#X connect 3 0 35 1;
#X connect 4 0 6 0;
#X connect 4 0 7 0;
#X connect 4 0 8 0;
#X connect 4 0 9 0;
#X connect 4 0 10 0;
#X connect 4 0 11 0;
#X connect 4 0 12 0;
#X connect 4 0 13 0;
#X connect 4 0 14 0;
#X connect 4 0 15 0;
#X connect 6 0 3 0;
#X connect 7 0 3 1;
#X connect 8 0 3 2;
#X connect 9 0 3 3;
#X connect 10 0 3 4;
#X connect 11 0 3 5;
#X connect 12 0 3 6;
#X connect 13 0 3 7;
#X connect 14 0 3 8;
#X connect 15 0 3 9;
#X connect 16 0 6 0;
#X connect 16 1 7 0;
#X connect 16 2 8 0;
#X connect 16 3 9 0;
#X connect 16 4 10 0;
#X connect 16 5 11 0;
#X connect 16 6 12 0;
#X connect 16 7 13 0;
#X connect 16 8 14 0;
#X connect 16 9 15 0;
#X connect 33 0 1 0;
#X connect 34 0 33 2;
#X connect 35 0 33 0;
#X connect 38 0 39 0;
#X connect 39 0 44 0;
#X connect 39 1 40 0;
#X connect 41 0 44 0;
#X connect 44 0 42 0;
#X connect 44 1 43 0;
#X connect 44 2 43 1;
#X connect 44 3 45 0;
#X connect 44 4 46 0;
#X coords 0 -1 1 1 200 180 1 20 100;
