#N canvas 293 106 695 629 10;
#X obj 111 139 vsl 12 70 0 1 0 0 iurwyiurtyiuuyiyeedxxv mmnhjhjyuyutrtweiuiu
empty 0 -9 0 10 -133152 -1 -262144 3450 0;
#X obj 123 139 vsl 12 70 0 1 0 0 iurwyiurtyiuuyiyeedxxv mmnhjhjyuyutrtweiuiu
empty 0 -9 0 10 -137314 -1 -262144 3450 0;
#X obj 135 139 vsl 12 70 0 1 0 0 iurwyiurtyiuuyiyeedxxv mmnhjhjyuyutrtweiuiu
empty 0 -9 0 10 -149797 -1 -262144 3450 0;
#X obj 147 139 vsl 12 70 0 1 0 0 iurwyiurtyiuuyiyeedxxv mmnhjhjyuyutrtweiuiu
empty 0 -9 0 10 -153958 -1 -262144 3450 0;
#X obj 159 139 vsl 12 70 0 1 0 0 iurwyiurtyiuuyiyeedxxv mmnhjhjyuyutrtweiuiu
empty 0 -9 0 10 -170602 -1 -262144 3450 0;
#X obj 171 139 vsl 12 70 0 1 0 0 iurwyiurtyiuuyiyeedxxv mmnhjhjyuyutrtweiuiu
empty 0 -9 0 10 -174763 -1 -262144 3450 0;
#X obj 183 139 vsl 12 70 0 1 0 0 iurwyiurtyiuuyiyeedxxv mmnhjhjyuyutrtweiuiu
empty 0 -9 0 10 -183085 -1 -262144 3450 0;
#X obj 195 139 vsl 12 70 0 1 0 0 iurwyiurtyiuuyiyeedxxv mmnhjhjyuyutrtweiuiu
empty 0 -9 0 10 -195568 -1 -262144 3450 0;
#X obj 207 139 vsl 12 70 0 1 0 0 iurwyiurtyiuuyiyeedxxv mmnhjhjyuyutrtweiuiu
empty 0 -9 0 10 -203890 -1 -262144 3450 0;
#X obj 219 139 vsl 12 70 0 1 0 0 iurwyiurtyiuuyiyeedxxv mmnhjhjyuyutrtweiuiu
empty 0 -9 0 10 -216373 -1 -262144 3450 0;
#X obj 231 139 vsl 12 70 0 1 0 0 iurwyiurtyiuuyiyeedxxv mmnhjhjyuyutrtweiuiu
empty 0 -9 0 10 -237178 -1 -262144 3450 0;
#X obj 243 139 vsl 12 70 0 1 0 0 iurwyiurtyiuuyiyeedxxv mmnhjhjyuyutrtweiuiu
empty 0 -9 0 10 -257983 -1 -262144 3450 0;
#X obj 279 139 vsl 12 70 0 1 0 0 iurwyiurtyiuuyiyeedxxv mmnhjhjyuyutrtweiuiu
empty 0 -9 0 10 -4032 -1 -1 3450 1;
#X msg 146 32 0.5;
#X obj 255 139 vsl 12 70 0 1 0 0 iurwyiurtyiuuyiyeedxxv mmnhjhjyuyutrtweiuiu
empty 0 -9 0 10 -262144 -1 -262144 3450 0;
#N canvas 0 22 928 589 equalizer13bands---------------------- 0;
#X obj 48 82 inlet~;
#X obj 89 489 outlet~;
#X obj 82 170 para_bp2~ 20 0.2 0 10;
#X obj 81 191 para_bp2~ 150 0.4 0 10;
#X obj 81 212 para_bp2~ 300 0.5 0 10;
#X obj 80 233 para_bp2~ 600 1 0 10;
#X obj 81 255 para_bp2~ 1000 2 0 10;
#X obj 80 275 para_bp2~ 1500 2 0 10;
#X obj 80 296 para_bp2~ 2500 1.5 0 10;
#X obj 79 317 para_bp2~ 4000 1.5 0 10;
#X obj 732 299 inlet;
#X obj 91 458 *~ 1;
#X obj 161 19 inlet;
#X obj 200 19 inlet;
#X obj 236 19 inlet;
#X obj 275 19 inlet;
#X obj 312 18 inlet;
#X obj 351 18 inlet;
#X obj 387 18 inlet;
#X obj 426 18 inlet;
#X obj 464 18 inlet;
#X obj 503 18 inlet;
#X obj 539 18 inlet;
#X obj 161 42 expr if ($f1<0.5 \, ($f1-0.5)*80 \, ($f1-0.5)*20);
#X obj 177 64 expr if ($f1<0.5 \, ($f1-0.5)*80 \, ($f1-0.5)*20);
#X obj 196 85 expr if ($f1<0.5 \, ($f1-0.5)*80 \, ($f1-0.5)*20);
#X obj 212 107 expr if ($f1<0.5 \, ($f1-0.5)*80 \, ($f1-0.5)*20);
#X obj 230 128 expr if ($f1<0.5 \, ($f1-0.5)*80 \, ($f1-0.5)*20);
#X obj 246 150 expr if ($f1<0.5 \, ($f1-0.5)*80 \, ($f1-0.5)*20);
#X obj 265 171 expr if ($f1<0.5 \, ($f1-0.5)*80 \, ($f1-0.5)*20);
#X obj 281 193 expr if ($f1<0.5 \, ($f1-0.5)*80 \, ($f1-0.5)*20);
#X obj 291 214 expr if ($f1<0.5 \, ($f1-0.5)*80 \, ($f1-0.5)*20);
#X obj 310 235 expr if ($f1<0.5 \, ($f1-0.5)*80 \, ($f1-0.5)*20);
#X obj 326 257 expr if ($f1<0.5 \, ($f1-0.5)*80 \, ($f1-0.5)*20);
#X obj 734 330 * 2;
#X obj 735 355 expr pow($f1 \, 2);
#X obj 78 358 para_bp2~ 7000 1 0 10;
#X obj 79 338 para_bp2~ 5500 1.5 0 10;
#X obj 77 378 para_bp2~ 10000 0.5 0 10;
#X obj 83 146 hip~ 20;
#X obj 77 399 para_bp2~ 15000 0.5 0 10;
#X obj 338 280 expr if ($f1<0.5 \, ($f1-0.5)*80 \, ($f1-0.5)*20);
#X obj 580 18 inlet;
#X obj 344 305 expr if ($f1<0.5 \, ($f1-0.5)*80 \, ($f1-0.5)*20);
#X obj 617 18 inlet;
#X obj 78 419 para_bp2~ 20000 0.2 0 10;
#X connect 0 0 39 0;
#X connect 2 0 3 0;
#X connect 3 0 4 0;
#X connect 4 0 5 0;
#X connect 5 0 6 0;
#X connect 6 0 7 0;
#X connect 7 0 8 0;
#X connect 8 0 9 0;
#X connect 9 0 37 0;
#X connect 10 0 34 0;
#X connect 11 0 1 0;
#X connect 12 0 23 0;
#X connect 13 0 24 0;
#X connect 14 0 25 0;
#X connect 15 0 26 0;
#X connect 16 0 27 0;
#X connect 17 0 28 0;
#X connect 18 0 29 0;
#X connect 19 0 30 0;
#X connect 20 0 31 0;
#X connect 21 0 32 0;
#X connect 22 0 33 0;
#X connect 23 0 2 3;
#X connect 24 0 3 3;
#X connect 25 0 4 3;
#X connect 26 0 5 3;
#X connect 27 0 6 3;
#X connect 28 0 7 3;
#X connect 29 0 8 3;
#X connect 30 0 9 3;
#X connect 31 0 37 3;
#X connect 32 0 36 3;
#X connect 33 0 38 3;
#X connect 34 0 35 0;
#X connect 35 0 11 1;
#X connect 36 0 38 0;
#X connect 37 0 36 0;
#X connect 38 0 40 0;
#X connect 39 0 2 0;
#X connect 40 0 45 0;
#X connect 41 0 40 3;
#X connect 42 0 41 0;
#X connect 43 0 45 3;
#X connect 44 0 43 0;
#X connect 45 0 11 0;
#X restore 41 240 pd equalizer13bands----------------------;
#X obj 41 37 inlet~;
#X obj 41 376 outlet~;
#X obj 149 120 bng 12 250 50 0 empty empty reset -35 6 0 10 -262144
-1 -1;
#X msg 185 315 1 \$1;
#X msg 195 337 2 \$1;
#X msg 203 359 3 \$1;
#X msg 210 380 4 \$1;
#X msg 218 403 5 \$1;
#X msg 224 429 6 \$1;
#X msg 231 453 7 \$1;
#X msg 236 475 8 \$1;
#X msg 255 329 9 \$1;
#X msg 263 354 10 \$1;
#X msg 272 385 11 \$1;
#X msg 282 409 12 \$1;
#X msg 289 441 13 \$1;
#X obj 218 546 outlet;
#X obj 99 -26 inlet;
#X msg 299 469 0 \$1;
#X obj 99 -3 route 0 1 2 3 4 5 6 7 8 9 10 11 12 13;
#X obj 338 15 loadbang;
#X obj 41 326 sp-pass~;
#X obj 279 120 tgl 12 0 \$0-pass-s \$0-pass-r pass -30 6 0 10 -262130
-1 -1 0 1;
#X obj 86 286 r \$0-pass-s;
#X connect 0 0 15 1;
#X connect 0 0 19 0;
#X connect 1 0 15 2;
#X connect 1 0 20 0;
#X connect 2 0 15 3;
#X connect 2 0 21 0;
#X connect 3 0 15 4;
#X connect 3 0 22 0;
#X connect 4 0 15 5;
#X connect 4 0 23 0;
#X connect 5 0 15 6;
#X connect 5 0 24 0;
#X connect 6 0 15 7;
#X connect 6 0 25 0;
#X connect 7 0 15 8;
#X connect 7 0 26 0;
#X connect 8 0 15 9;
#X connect 8 0 27 0;
#X connect 9 0 15 10;
#X connect 9 0 28 0;
#X connect 10 0 15 11;
#X connect 10 0 29 0;
#X connect 11 0 15 12;
#X connect 11 0 30 0;
#X connect 12 0 15 14;
#X connect 12 0 34 0;
#X connect 13 0 0 0;
#X connect 13 0 1 0;
#X connect 13 0 2 0;
#X connect 13 0 3 0;
#X connect 13 0 4 0;
#X connect 13 0 5 0;
#X connect 13 0 6 0;
#X connect 13 0 7 0;
#X connect 13 0 8 0;
#X connect 13 0 9 0;
#X connect 13 0 10 0;
#X connect 13 0 11 0;
#X connect 13 0 12 0;
#X connect 13 0 14 0;
#X connect 14 0 15 13;
#X connect 14 0 31 0;
#X connect 15 0 37 0;
#X connect 16 0 37 1;
#X connect 16 0 15 0;
#X connect 18 0 13 0;
#X connect 19 0 32 0;
#X connect 20 0 32 0;
#X connect 21 0 32 0;
#X connect 22 0 32 0;
#X connect 23 0 32 0;
#X connect 24 0 32 0;
#X connect 25 0 32 0;
#X connect 26 0 32 0;
#X connect 27 0 32 0;
#X connect 28 0 32 0;
#X connect 29 0 32 0;
#X connect 30 0 32 0;
#X connect 31 0 32 0;
#X connect 33 0 35 0;
#X connect 34 0 32 0;
#X connect 35 0 12 0;
#X connect 35 1 0 0;
#X connect 35 2 1 0;
#X connect 35 3 2 0;
#X connect 35 4 3 0;
#X connect 35 5 4 0;
#X connect 35 6 5 0;
#X connect 35 7 6 0;
#X connect 35 8 7 0;
#X connect 35 9 8 0;
#X connect 35 10 9 0;
#X connect 35 11 10 0;
#X connect 35 12 11 0;
#X connect 35 13 14 0;
#X connect 36 0 13 0;
#X connect 37 0 17 0;
#X connect 39 0 37 2;
#X coords 0 -1 1 1 200 120 1 100 100;
