#N canvas 369 163 450 300 10;
#X obj 76 56 inlet~;
#X obj 161 56 inlet~;
#X obj 76 241 outlet~;
#X obj 230 56 inlet;
#X obj 230 86 clip 0 1;
#X obj 91 127 sqrt;
#X msg 91 150 \$1 5;
#X obj 91 173 line~;
#X obj 76 196 *~;
#X obj 283 21 loadbang;
#X msg 283 42 0.5;
#X obj 176 172 line~;
#X obj 161 196 *~;
#X msg 176 148 \$1 5;
#X obj 176 125 sqrt;
#X obj 91 103 expr 1 - $f1;
#X connect 0 0 8 0;
#X connect 1 0 12 0;
#X connect 3 0 4 0;
#X connect 4 0 14 0;
#X connect 4 0 15 0;
#X connect 5 0 6 0;
#X connect 6 0 7 0;
#X connect 7 0 8 1;
#X connect 8 0 2 0;
#X connect 9 0 10 0;
#X connect 10 0 4 0;
#X connect 11 0 12 1;
#X connect 12 0 2 0;
#X connect 13 0 11 0;
#X connect 14 0 13 0;
#X connect 15 0 5 0;
