#N canvas 227 85 943 475 10;
#X declare -path contrib/partconvEQ10~;
#X obj 299 238 inlet~;
#X obj 299 429 outlet~;
#N canvas 266 75 800 532 colors 0;
#X obj 26 96 *;
#X obj 26 46 t b f;
#X obj 26 119 * -1;
#X obj 176 96 *;
#X obj 176 46 t b f;
#X obj 176 119 * -1;
#X obj 321 96 *;
#X obj 321 46 t b f;
#X obj 321 119 * -1;
#X obj 471 96 *;
#X obj 471 46 t b f;
#X obj 471 119 * -1;
#X obj 621 96 *;
#X obj 621 46 t b f;
#X obj 621 119 * -1;
#X obj 26 24 r \$0-cl1-s;
#X msg 26 74 100;
#X obj 26 163 pack f \$0 f;
#X obj 246 94 f 13;
#X msg 26 186 \; \$2-cnv1 vis_size \$3 \$1;
#X obj 176 163 pack f \$0 f;
#X obj 321 163 pack f \$0 f;
#X obj 471 163 pack f \$0 f;
#X obj 621 163 pack f \$0 f;
#X obj 246 69 loadbang;
#X msg 176 74 100;
#X msg 321 74 100;
#X msg 471 74 100;
#X msg 621 74 100;
#X obj 176 24 r \$0-cl2-s;
#X obj 321 24 r \$0-cl3-s;
#X obj 471 24 r \$0-cl4-s;
#X obj 621 24 r \$0-cl5-s;
#X msg 176 186 \; \$2-cnv2 vis_size \$3 \$1;
#X msg 321 186 \; \$2-cnv3 vis_size \$3 \$1;
#X msg 471 186 \; \$2-cnv4 vis_size \$3 \$1;
#X msg 621 186 \; \$2-cnv5 vis_size \$3 \$1;
#X obj 247 44 bng 15 250 50 0 empty empty empty 17 7 0 10 -262144 -1
-1;
#X obj 176 141 + 99;
#X obj 321 141 + 99;
#X obj 621 141 + 99;
#X obj 471 141 + 99;
#X obj 26 141 + 99;
#X obj 26 316 *;
#X obj 26 266 t b f;
#X obj 26 339 * -1;
#X obj 176 316 *;
#X obj 176 266 t b f;
#X obj 176 339 * -1;
#X obj 321 316 *;
#X obj 321 266 t b f;
#X obj 321 339 * -1;
#X obj 471 316 *;
#X obj 471 266 t b f;
#X obj 471 339 * -1;
#X obj 621 316 *;
#X obj 621 266 t b f;
#X obj 621 339 * -1;
#X msg 26 294 100;
#X obj 26 383 pack f \$0 f;
#X obj 176 383 pack f \$0 f;
#X obj 321 383 pack f \$0 f;
#X obj 471 383 pack f \$0 f;
#X obj 621 383 pack f \$0 f;
#X msg 176 294 100;
#X msg 321 294 100;
#X msg 471 294 100;
#X msg 621 294 100;
#X obj 176 361 + 99;
#X obj 321 361 + 99;
#X obj 621 361 + 99;
#X obj 471 361 + 99;
#X obj 26 361 + 99;
#X obj 26 244 r \$0-cl6-s;
#X obj 176 244 r \$0-cl7-s;
#X obj 321 244 r \$0-cl8-s;
#X obj 471 244 r \$0-cl9-s;
#X obj 621 244 r \$0-cl10-s;
#X msg 26 406 \; \$2-cnv6 vis_size \$3 \$1;
#X msg 176 406 \; \$2-cnv7 vis_size \$3 \$1;
#X msg 321 406 \; \$2-cnv8 vis_size \$3 \$1;
#X msg 471 406 \; \$2-cnv9 vis_size \$3 \$1;
#X msg 621 406 \; \$2-cnv10 vis_size \$3 \$1;
#X connect 0 0 2 0;
#X connect 1 0 16 0;
#X connect 1 1 0 1;
#X connect 2 0 42 0;
#X connect 3 0 5 0;
#X connect 4 0 25 0;
#X connect 4 1 3 1;
#X connect 5 0 38 0;
#X connect 6 0 8 0;
#X connect 7 0 26 0;
#X connect 7 1 6 1;
#X connect 8 0 39 0;
#X connect 9 0 11 0;
#X connect 10 0 27 0;
#X connect 10 1 9 1;
#X connect 11 0 41 0;
#X connect 12 0 14 0;
#X connect 13 0 28 0;
#X connect 13 1 12 1;
#X connect 14 0 40 0;
#X connect 15 0 1 0;
#X connect 16 0 0 0;
#X connect 17 0 19 0;
#X connect 18 0 17 2;
#X connect 18 0 20 2;
#X connect 18 0 21 2;
#X connect 18 0 22 2;
#X connect 18 0 23 2;
#X connect 18 0 59 2;
#X connect 18 0 60 2;
#X connect 18 0 61 2;
#X connect 18 0 62 2;
#X connect 18 0 63 2;
#X connect 20 0 33 0;
#X connect 21 0 34 0;
#X connect 22 0 35 0;
#X connect 23 0 36 0;
#X connect 24 0 18 0;
#X connect 25 0 3 0;
#X connect 26 0 6 0;
#X connect 27 0 9 0;
#X connect 28 0 12 0;
#X connect 29 0 4 0;
#X connect 30 0 7 0;
#X connect 31 0 10 0;
#X connect 32 0 13 0;
#X connect 37 0 24 0;
#X connect 38 0 20 0;
#X connect 39 0 21 0;
#X connect 40 0 23 0;
#X connect 41 0 22 0;
#X connect 42 0 17 0;
#X connect 43 0 45 0;
#X connect 44 0 58 0;
#X connect 44 1 43 1;
#X connect 45 0 72 0;
#X connect 46 0 48 0;
#X connect 47 0 64 0;
#X connect 47 1 46 1;
#X connect 48 0 68 0;
#X connect 49 0 51 0;
#X connect 50 0 65 0;
#X connect 50 1 49 1;
#X connect 51 0 69 0;
#X connect 52 0 54 0;
#X connect 53 0 66 0;
#X connect 53 1 52 1;
#X connect 54 0 71 0;
#X connect 55 0 57 0;
#X connect 56 0 67 0;
#X connect 56 1 55 1;
#X connect 57 0 70 0;
#X connect 58 0 43 0;
#X connect 59 0 78 0;
#X connect 60 0 79 0;
#X connect 61 0 80 0;
#X connect 62 0 81 0;
#X connect 63 0 82 0;
#X connect 64 0 46 0;
#X connect 65 0 49 0;
#X connect 66 0 52 0;
#X connect 67 0 55 0;
#X connect 68 0 60 0;
#X connect 69 0 61 0;
#X connect 70 0 63 0;
#X connect 71 0 62 0;
#X connect 72 0 59 0;
#X connect 73 0 44 0;
#X connect 74 0 47 0;
#X connect 75 0 50 0;
#X connect 76 0 53 0;
#X connect 77 0 56 0;
#X restore 666 22 pd colors;
#X obj 22 486 declare -path contrib/partconvEQ10~;
#X obj 299 386 partconvEQ10~;
#X obj 162 351 partconvEQ10~-help;
#N canvas 444 120 433 433 slidermapping............... 0;
#X obj 21 29 inlet;
#X obj 61 29 inlet;
#X obj 100 29 inlet;
#X obj 140 29 inlet;
#X obj 179 29 inlet;
#X obj 219 29 inlet;
#X obj 258 29 inlet;
#X obj 298 29 inlet;
#X obj 337 29 inlet;
#X obj 377 29 inlet;
#X obj 130 113 list;
#X obj 130 356 outlet;
#X obj 130 141 unpack;
#X floatatom 184 158 3 0 0 0 - - -;
#X obj 123 181 cnv 15 200 140 empty empty empty 20 12 0 14 -233017
-66577 0;
#X obj 130 190 - 0.5;
#X obj 130 215 * 24;
#X floatatom 185 232 5 0 0 0 - - -;
#X floatatom 74 158 5 0 0 0 - - -;
#X obj 130 248 + 100;
#X obj 130 275 dbtorms;
#X floatatom 185 292 5 0 0 0 - - -;
#X obj 130 329 pack;
#X text 211 154 slider index;
#X text 32 155 value;
#X text 225 233 dB;
#X text 20 380 map slider range [0 1] to dB range and convert to RMS
amplitude;
#X text 225 292 RMS amplitude;
#X msg 21 59 \$1 0;
#X msg 61 59 \$1 1;
#X msg 100 59 \$1 2;
#X msg 140 59 \$1 3;
#X msg 179 59 \$1 4;
#X msg 219 59 \$1 5;
#X msg 258 59 \$1 6;
#X msg 298 59 \$1 7;
#X msg 337 59 \$1 8;
#X msg 377 59 \$1 9;
#X text 182 201 mapping -12 to +12 dB;
#X connect 0 0 28 0;
#X connect 1 0 29 0;
#X connect 2 0 30 0;
#X connect 3 0 31 0;
#X connect 4 0 32 0;
#X connect 5 0 33 0;
#X connect 6 0 34 0;
#X connect 7 0 35 0;
#X connect 8 0 36 0;
#X connect 9 0 37 0;
#X connect 10 0 12 0;
#X connect 12 0 15 0;
#X connect 12 0 18 0;
#X connect 12 1 22 1;
#X connect 12 1 13 0;
#X connect 15 0 16 0;
#X connect 16 0 17 0;
#X connect 16 0 19 0;
#X connect 19 0 20 0;
#X connect 20 0 21 0;
#X connect 20 0 22 0;
#X connect 22 0 11 0;
#X connect 28 0 10 0;
#X connect 29 0 10 0;
#X connect 30 0 10 0;
#X connect 31 0 10 0;
#X connect 32 0 10 0;
#X connect 33 0 10 0;
#X connect 34 0 10 0;
#X connect 35 0 10 0;
#X connect 36 0 10 0;
#X connect 37 0 10 0;
#X restore 33 369 pd slidermapping...............;
#X obj 231 114 r \$0-all;
#X obj 443 329 s \$0-all;
#X obj 21 118 cnv 15 198 160 empty empty empty 20 12 0 14 -66577 -66577
0;
#X obj 63 155 vsl 15 100 0 1 0 0 \$0-cl1-s \$0-cl1 140 0 -9 0 10 -262144
-1 -262144 0 1;
#X obj 78 155 vsl 15 100 0 1 0 0 \$0-cl2-s \$0-cl2 170 0 110 0 10 -262144
-1 -262144 0 1;
#X obj 93 155 vsl 15 100 0 1 0 0 \$0-cl3-s \$0-cl3 230 0 -9 0 10 -262144
-1 -262144 0 1;
#X obj 108 155 vsl 15 100 0 1 0 0 \$0-cl4-s \$0-cl4 350 0 110 0 10
-262144 -1 -262144 0 1;
#X obj 123 155 vsl 15 100 0 1 0 0 \$0-cl5-s \$0-cl5 590 0 -9 0 10 -262144
-1 -262144 0 1;
#X obj 138 155 vsl 15 100 0 1 0 0 \$0-cl6-s \$0-cl6 1.1 0 110 0 10
-262144 -1 -262144 0 1;
#X obj 153 155 vsl 15 100 0 1 0 0 \$0-cl7-s \$0-cl7 2.1 0 -9 0 10 -262144
-1 -262144 0 1;
#X obj 168 155 vsl 15 100 0 1 0 0 \$0-cl8-s \$0-cl8 4 0 110 0 10 -262144
-1 -262144 0 1;
#X obj 183 155 vsl 15 100 0 1 0 0 \$0-cl9-s \$0-cl9 7.9 0 -9 0 10 -262144
-1 -262144 0 1;
#X obj 198 155 vsl 15 100 0 1 0 0 \$0-cl10-s \$0-cl10 15 0 110 0 10
-262144 -1 -262144 0 1;
#N canvas 536 79 663 578 centerfreqs------------- 0;
#X obj 151 145 samplerate~;
#X obj 151 170 / 2048;
#X obj 83 266 *;
#X obj 83 168 t b f;
#X obj 83 216 pow;
#X obj 83 145 * 0.99943;
#X obj 83 192 f 2;
#X obj 83 121 + 0.5;
#X obj 38 104 t f f;
#N canvas 489 206 298 300 round 0;
#X obj 29 19 inlet;
#X obj 29 47 moses 1000;
#X obj 29 74 / 10;
#X obj 29 131 int;
#X obj 29 156 * 10;
#X obj 29 262 outlet;
#X obj 86 129 int;
#X obj 86 74 / 100;
#X obj 86 156 / 10;
#X obj 29 105 + 0.5;
#X obj 86 104 + 0.5;
#X obj 86 194 moses 10;
#X obj 131 222 int;
#X connect 0 0 1 0;
#X connect 1 0 2 0;
#X connect 1 1 7 0;
#X connect 2 0 9 0;
#X connect 3 0 4 0;
#X connect 4 0 5 0;
#X connect 6 0 8 0;
#X connect 7 0 10 0;
#X connect 8 0 11 0;
#X connect 9 0 3 0;
#X connect 10 0 6 0;
#X connect 11 0 5 0;
#X connect 11 1 12 0;
#X connect 12 0 5 0;
#X restore 83 289 pd round;
#X obj 38 27 loadbang;
#X obj 38 338 route 0 1 2 3 4 5 6 7 8 9;
#N canvas 417 344 314 260 forloop 0;
#X obj 54 13 inlet;
#X obj 54 41 t b b;
#X obj 54 163 f;
#X obj 84 163 + 1;
#X msg 69 136 0;
#X msg 54 71 10;
#X obj 54 198 outlet;
#X obj 54 107 until;
#X connect 0 0 1 0;
#X connect 1 0 5 0;
#X connect 1 1 4 0;
#X connect 2 0 3 0;
#X connect 2 0 6 0;
#X connect 3 0 2 1;
#X connect 4 0 2 1;
#X connect 5 0 7 0;
#X connect 7 0 2 0;
#X restore 38 80 pd forloop;
#X obj 38 53 t b b;
#X text 195 170 FFT size 2048 assumed;
#X text 115 240 start exponential curve at bin 4;
#X obj 38 7 bng 15 250 50 0 empty empty empty 17 7 0 10 -262144 -1
-1;
#X obj 38 312 pack f f;
#X obj 17 396 l2s;
#X obj 17 447 outlet;
#X msg 17 421 label \$1;
#X obj 77 396 l2s;
#X obj 77 447 outlet;
#X msg 77 421 label \$1;
#X obj 137 396 l2s;
#X obj 137 447 outlet;
#X msg 137 421 label \$1;
#X obj 197 396 l2s;
#X obj 197 447 outlet;
#X msg 197 421 label \$1;
#X obj 257 396 l2s;
#X obj 257 447 outlet;
#X msg 257 421 label \$1;
#X obj 317 396 l2s;
#X obj 317 447 outlet;
#X msg 317 421 label \$1;
#X obj 377 396 l2s;
#X obj 377 447 outlet;
#X msg 377 421 label \$1;
#X obj 437 396 l2s;
#X obj 437 447 outlet;
#X msg 437 421 label \$1;
#X obj 477 480 l2s;
#X obj 477 531 outlet;
#X msg 477 505 label \$1;
#X obj 547 480 l2s;
#X obj 547 531 outlet;
#X msg 547 505 label \$1;
#X obj 83 242 + 5;
#X connect 0 0 1 0;
#X connect 1 0 2 1;
#X connect 2 0 9 0;
#X connect 3 0 6 0;
#X connect 3 1 4 1;
#X connect 4 0 48 0;
#X connect 5 0 3 0;
#X connect 6 0 4 0;
#X connect 7 0 5 0;
#X connect 8 0 17 0;
#X connect 8 1 7 0;
#X connect 9 0 17 1;
#X connect 10 0 13 0;
#X connect 11 0 18 0;
#X connect 11 1 21 0;
#X connect 11 2 24 0;
#X connect 11 3 27 0;
#X connect 11 4 30 0;
#X connect 11 5 33 0;
#X connect 11 6 36 0;
#X connect 11 7 39 0;
#X connect 11 8 42 0;
#X connect 11 9 45 0;
#X connect 12 0 8 0;
#X connect 13 0 12 0;
#X connect 13 1 0 0;
#X connect 16 0 10 0;
#X connect 17 0 11 0;
#X connect 18 0 20 0;
#X connect 20 0 19 0;
#X connect 21 0 23 0;
#X connect 23 0 22 0;
#X connect 24 0 26 0;
#X connect 26 0 25 0;
#X connect 27 0 29 0;
#X connect 29 0 28 0;
#X connect 30 0 32 0;
#X connect 32 0 31 0;
#X connect 33 0 35 0;
#X connect 35 0 34 0;
#X connect 36 0 38 0;
#X connect 38 0 37 0;
#X connect 39 0 41 0;
#X connect 41 0 40 0;
#X connect 42 0 44 0;
#X connect 44 0 43 0;
#X connect 45 0 47 0;
#X connect 47 0 46 0;
#X connect 48 0 2 0;
#X restore 30 43 pd centerfreqs-------------;
#X obj 420 48 for++ 1 10;
#X obj 420 83 pack f \$0;
#X obj 590 48 for++ 1 10;
#X obj 590 153 pack f f \$0;
#X obj 590 72 t f f;
#X obj 420 21 loadbang;
#X obj 64 155 cnv 1 13 99 empty \$0-cnv1 empty 20 12 0 14 -233017 -66577
0;
#X obj 79 155 cnv 1 13 99 empty \$0-cnv2 empty 20 12 0 14 -233017 -66577
0;
#X obj 94 155 cnv 1 13 99 empty \$0-cnv3 empty 20 12 0 14 -233017 -66577
0;
#X obj 109 155 cnv 1 13 99 empty \$0-cnv4 empty 20 12 0 14 -233017
-66577 0;
#X obj 124 155 cnv 1 13 99 empty \$0-cnv5 empty 20 12 0 14 -233017
-66577 0;
#X obj 139 155 cnv 1 13 99 empty \$0-cnv6 empty 20 12 0 14 -233017
-66577 0;
#X obj 154 155 cnv 1 13 99 empty \$0-cnv7 empty 20 12 0 14 -233017
-66577 0;
#X obj 169 155 cnv 1 13 99 empty \$0-cnv8 empty 20 12 0 14 -233017
-66577 0;
#X obj 184 155 cnv 1 13 99 empty \$0-cnv9 empty 20 12 0 14 -233017
-66577 0;
#X obj 199 155 cnv 1 13 99 empty \$0-cnv10 empty 20 12 0 14 -233017
-66577 0;
#X obj 359 37 bng 15 250 50 0 empty empty empty 17 7 0 10 -262144 -1
-1;
#X msg 590 177 \; \$3-cl\$1 pos \$2 155 \;;
#X obj 730 153 pack f f \$0;
#X msg 730 177 \; \$3-cnv\$1 pos \$2 155 \;;
#X obj 761 124 + 1;
#X text 46 197 0;
#X text 27 151 +12db;
#X obj 617 98 * 15;
#X obj 617 125 + 48;
#X text 61 196 -------------------------;
#X msg 420 117 \; \$2-cl\$1 size 15 100 \; \$2-cnv\$1 vis_size 13 100
\; \$2-cnv\$1 size 1 1 \;;
#X text 27 241 -12db;
#X obj 443 249 loadbang;
#X obj 443 276 del 10;
#X msg 443 300 0.5;
#X obj 31 126 bng 12 250 50 0 \$0-reset-s \$0-reset-r reset 16 6 0
10 -262144 -1 -262144;
#X obj 496 276 r \$0-reset-s;
#X connect 0 0 4 0;
#X connect 4 0 1 0;
#X connect 6 0 4 1;
#X connect 7 0 10 0;
#X connect 7 0 11 0;
#X connect 7 0 12 0;
#X connect 7 0 13 0;
#X connect 7 0 14 0;
#X connect 7 0 15 0;
#X connect 7 0 16 0;
#X connect 7 0 17 0;
#X connect 7 0 18 0;
#X connect 7 0 19 0;
#X connect 10 0 6 0;
#X connect 11 0 6 1;
#X connect 12 0 6 2;
#X connect 13 0 6 3;
#X connect 14 0 6 4;
#X connect 15 0 6 5;
#X connect 16 0 6 6;
#X connect 17 0 6 7;
#X connect 18 0 6 8;
#X connect 19 0 6 9;
#X connect 20 0 10 0;
#X connect 20 1 11 0;
#X connect 20 2 12 0;
#X connect 20 3 13 0;
#X connect 20 4 14 0;
#X connect 20 5 15 0;
#X connect 20 6 16 0;
#X connect 20 7 17 0;
#X connect 20 8 18 0;
#X connect 20 9 19 0;
#X connect 21 0 22 0;
#X connect 22 0 47 0;
#X connect 23 0 25 0;
#X connect 24 0 38 0;
#X connect 25 0 24 0;
#X connect 25 0 39 0;
#X connect 25 1 44 0;
#X connect 26 0 21 0;
#X connect 26 0 23 0;
#X connect 37 0 26 0;
#X connect 39 0 40 0;
#X connect 41 0 39 1;
#X connect 44 0 45 0;
#X connect 45 0 24 1;
#X connect 45 0 41 0;
#X connect 49 0 50 0;
#X connect 50 0 51 0;
#X connect 51 0 8 0;
#X connect 53 0 51 0;
#X coords 0 -1 1 1 200 180 1 20 100;
