#N canvas 75 325 450 300 10;
#X obj 26 76 inlet~;
#X obj 26 129 outlet~;
#N canvas 0 22 647 684 workings 0;
#X obj 11 401 bp~ 440 80;
#X obj 89 401 bp~ 440 80;
#X obj 166 401 bp~ 440 80;
#X obj 244 401 bp~ 440 80;
#X obj 83 236 unpack 1 2 3 4 5;
#X msg 83 46 3454 5645 6433 6999 600;
#X text 11 46 metal;
#X text 9 73 glass 2;
#X text 11 179 wood;
#X msg 83 208 109 230 352 413 10;
#X msg 83 127 1245 1503 2131 2575 100;
#X text 11 151 plastic;
#X text 10 125 china;
#X text 10 99 glass 1;
#X text 7 207 cardboard;
#X msg 83 154 627 781 972 1184 70;
#X text 65 12 Simple material formants;
#X msg 83 71 2312 2466 3200 5314 380;
#X msg 82 98 1679 1233 4251 4640 340;
#X msg 83 181 221 333 426 527 40;
#X obj 9 266 inlet~;
#X obj 122 558 outlet~;
#X obj 123 454 *~ 1;
#X obj 365 315 / 10;
#X obj 355 169 route 0 1 2 3 4 5 6;
#X obj 355 139 f 0;
#X obj 242 246 t f f;
#X obj 355 98 int;
#X obj 122 496 tanh~;
#X obj 355 71 inlet;
#X obj 432 122 loadbang;
#X connect 0 0 22 0;
#X connect 1 0 22 0;
#X connect 2 0 22 0;
#X connect 3 0 22 0;
#X connect 4 0 0 1;
#X connect 4 1 1 1;
#X connect 4 2 2 1;
#X connect 4 3 3 1;
#X connect 4 4 23 0;
#X connect 4 4 26 0;
#X connect 5 0 4 0;
#X connect 9 0 4 0;
#X connect 10 0 4 0;
#X connect 15 0 4 0;
#X connect 17 0 4 0;
#X connect 18 0 4 0;
#X connect 19 0 4 0;
#X connect 20 0 0 0;
#X connect 20 0 1 0;
#X connect 20 0 2 0;
#X connect 20 0 3 0;
#X connect 22 0 28 0;
#X connect 23 0 22 1;
#X connect 24 0 9 0;
#X connect 24 1 19 0;
#X connect 24 2 15 0;
#X connect 24 3 10 0;
#X connect 24 4 18 0;
#X connect 24 5 17 0;
#X connect 24 6 5 0;
#X connect 25 0 24 0;
#X connect 26 0 3 2;
#X connect 26 0 2 2;
#X connect 26 0 1 2;
#X connect 26 0 0 2;
#X connect 26 1 23 0;
#X connect 27 0 25 0;
#X connect 28 0 21 0;
#X connect 29 0 27 0;
#X connect 30 0 25 0;
#X restore 26 101 pd workings;
#X obj 253 29 inlet;
#X obj 253 61 clip 0 7;
#X connect 0 0 2 0;
#X connect 2 0 1 0;
#X connect 3 0 4 0;
#X connect 4 0 2 1;
