#N canvas 363 165 654 472 10;
#X obj 251 26 inlet~;
#X obj 288 214 mtof;
#X obj 410 53 loadbang;
#X obj 288 428 outlet~;
#X obj 410 85 int \$1;
#X obj 321 277 phasor~;
#X obj 288 277 osc~;
#X obj 375 277 sp-square~;
#X obj 288 323 multiplex~ . . .;
#X obj 489 60 inlet;
#X obj 489 88 int;
#X obj 348 26 inlet;
#X obj 537 426 outlet;
#X obj 288 173 expr $f1 + 12 * $f2;
#X obj 506 192 sig~;
#X obj 288 357 *~;
#X obj 506 163 dbtorms;
#X obj 251 111 sigmund~ pitch env -stabletime 10;
#X obj 288 383 hip~ 20;
#X connect 0 0 17 0;
#X connect 1 0 5 0;
#X connect 1 0 6 0;
#X connect 1 0 7 0;
#X connect 1 0 12 0;
#X connect 2 0 4 0;
#X connect 4 0 13 1;
#X connect 5 0 8 1;
#X connect 6 0 8 0;
#X connect 7 0 8 2;
#X connect 8 0 15 0;
#X connect 9 0 10 0;
#X connect 10 0 13 1;
#X connect 11 0 8 0;
#X connect 13 0 1 0;
#X connect 14 0 15 1;
#X connect 15 0 18 0;
#X connect 16 0 14 0;
#X connect 17 0 13 0;
#X connect 17 1 16 0;
#X connect 18 0 3 0;
