#N canvas 204 346 429 127 10;
#X obj 26 16 inlet~;
#X obj 26 89 outlet~;
#N canvas 294 40 316 427 workings 0;
#X obj 80 36 inlet~ signal;
#X obj 80 353 outlet~;
#N canvas 0 22 667 695 patch 0;
#X obj 103 44 inlet~;
#X obj 86 472 outlet~;
#X obj 182 301 z~ 15;
#X obj 134 244 z~ 20;
#X obj 24 133 z~ 5;
#X obj 68 192 z~ 12;
#X obj 240 150 * 2;
#X obj 269 173 * 3;
#X obj 468 446 z~ 15;
#X obj 252 365 z~ 5;
#X obj 314 418 z~ 12;
#X obj 301 191 * 5;
#X obj 337 211 * 7;
#X obj 369 219 * 11;
#X obj 409 227 * 13;
#X obj 442 240 * 17;
#X obj 401 27 r \$0-delay;
#X obj 403 90 * 30;
#X obj 504 37 r \$0-feedback;
#X obj 188 36 vd~ \$0-wii 12;
#X obj 413 591 delwrite~ \$0-wii 50;
#X msg 505 61 \$1 10;
#X msg 401 46 \$1 10;
#X obj 403 71 line 0 1;
#X obj 506 85 line~;
#X obj 41 162 *~;
#X obj 87 218 *~;
#X obj 157 275 *~;
#X obj 203 331 *~;
#X obj 273 389 *~;
#X obj 344 446 *~;
#X obj 388 483 z~ 20;
#X obj 417 531 *~;
#X connect 0 0 5 0;
#X connect 0 0 3 0;
#X connect 0 0 2 0;
#X connect 0 0 9 0;
#X connect 0 0 10 0;
#X connect 0 0 8 0;
#X connect 0 0 31 0;
#X connect 2 0 1 0;
#X connect 2 0 28 0;
#X connect 3 0 1 0;
#X connect 3 0 27 0;
#X connect 4 0 1 0;
#X connect 4 0 25 0;
#X connect 5 0 1 0;
#X connect 5 0 26 0;
#X connect 6 0 4 1;
#X connect 7 0 5 1;
#X connect 9 0 1 0;
#X connect 9 0 29 0;
#X connect 10 0 1 0;
#X connect 10 0 30 0;
#X connect 11 0 3 1;
#X connect 12 0 9 1;
#X connect 13 0 10 1;
#X connect 14 0 31 1;
#X connect 15 0 8 1;
#X connect 16 0 22 0;
#X connect 17 0 6 0;
#X connect 17 0 7 0;
#X connect 17 0 11 0;
#X connect 17 0 12 0;
#X connect 17 0 13 0;
#X connect 17 0 14 0;
#X connect 17 0 15 0;
#X connect 17 0 2 0;
#X connect 17 0 19 0;
#X connect 18 0 21 0;
#X connect 19 0 4 0;
#X connect 21 0 24 0;
#X connect 22 0 23 0;
#X connect 23 0 17 0;
#X connect 24 0 25 1;
#X connect 24 0 26 1;
#X connect 24 0 27 1;
#X connect 24 0 28 1;
#X connect 24 0 29 1;
#X connect 24 0 30 1;
#X connect 24 0 32 1;
#X connect 25 0 5 0;
#X connect 26 0 3 0;
#X connect 27 0 2 0;
#X connect 28 0 9 0;
#X connect 29 0 10 0;
#X connect 30 0 31 0;
#X connect 31 0 8 0;
#X connect 31 0 1 0;
#X connect 31 0 32 0;
#X connect 32 0 20 0;
#X restore 80 190 pd patch;
#X obj 80 220 /~ 5;
#X connect 0 0 2 0;
#X connect 2 0 3 0;
#X connect 3 0 1 0;
#X restore 26 49 pd workings;
#X obj 160 19 inlet;
#X obj 160 57 s \$0-delay;
#X obj 255 18 inlet;
#X obj 255 56 s \$0-feedback;
#X connect 0 0 2 0;
#X connect 2 0 1 0;
#X connect 3 0 4 0;
#X connect 5 0 6 0;
