#N canvas 0 22 450 300 10;
#X obj 111 48 adc~;
#X obj 111 110 sp-filter-octaver~ -1;
#X obj 111 190 +dsp;
#X obj 172 49 hradio 15 1 0 3 empty empty shape 0 -8 0 10 -262144 -1
-1 0;
#X obj 259 49 hradio 15 1 0 8 empty empty empty 0 -8 0 10 -262144 -1
-1 1;
#X floatatom 293 112 5 0 0 0 - - -;
#X obj 259 77 - 3;
#X connect 0 0 1 0;
#X connect 1 0 2 0;
#X connect 3 0 1 1;
#X connect 4 0 6 0;
#X connect 6 0 5 0;
#X connect 6 0 1 2;
