#N canvas 149 84 567 612 10;
#X obj 84 474 lop~ 400;
#X obj 84 570 s~ out;
#X obj 20 18 r~ out;
#X obj 82 35 sp-filtergraph~;
#X obj 82 373 demux~ 1 2 3 4 5 6;
#X obj 132 320 hradio 15 1 0 8 empty empty empty 0 -8 0 10 -262144
-1 -1 2;
#X obj 147 475 hip~ 1000;
#X obj 215 474 bp~ 5000 10;
#X connect 0 0 1 0;
#X connect 2 0 3 0;
#X connect 3 0 4 0;
#X connect 4 0 0 0;
#X connect 4 1 6 0;
#X connect 4 2 7 0;
#X connect 5 0 4 0;
#X connect 6 0 1 0;
#X connect 7 0 1 0;
