#N canvas 0 22 778 472 10;
#X obj 142 60 inlet~;
#X obj 142 114 wahwah~;
#X obj 203 18 loadbang;
#X obj 142 263 outlet~;
#X obj 351 220 hsl 128 15 0 100 0 0 empty empty empty 20 8 0 8 -262144
-1 -1 9652 0;
#X text 356 200 The pedal (step);
#X obj 350 121 f;
#X obj 381 121 + 1;
#X msg 348 63 bang;
#X obj 394 147 > 100;
#X obj 437 146 route 1;
#X msg 434 120 -1;
#X msg 308 121 0;
#X obj 442 90 route 1;
#X obj 413 91 < 0;
#X msg 439 64 1;
#X msg 304 65 stop;
#X msg 203 57 preset 1;
#X obj 349 90 metro 30;
#X connect 0 0 1 0;
#X connect 1 0 3 0;
#X connect 2 0 17 0;
#X connect 2 0 8 0;
#X connect 4 0 1 7;
#X connect 6 0 7 0;
#X connect 6 0 9 0;
#X connect 6 0 14 0;
#X connect 6 0 4 0;
#X connect 7 0 6 1;
#X connect 8 0 18 0;
#X connect 9 0 10 0;
#X connect 10 0 11 0;
#X connect 11 0 7 1;
#X connect 12 0 6 0;
#X connect 13 0 15 0;
#X connect 14 0 13 0;
#X connect 15 0 7 1;
#X connect 16 0 18 0;
#X connect 17 0 1 0;
#X connect 18 0 6 0;
