#N canvas 132 104 899 390 10;
#X obj 240 16 inlet~;
#X obj 230 307 outlet~;
#X obj 240 120 freqshift~;
#X obj 287 307 outlet~;
#X obj 512 306 outlet;
#X obj 425 16 inlet;
#X obj 425 51 route freqshift;
#X obj 11 27 cnv 15 198 60 empty empty empty 20 12 0 14 -151681 -66577
0;
#X obj 566 114 print [sp-gfreqshift~] unknown command;
#X obj 230 276 sp-pass~;
#X obj 193 33 tgl 12 0 \$0-pass-s \$0-pass-r pass -30 6 0 10 -262130
-1 -262144 0 1;
#X obj 364 16 r sp-\$2;
#X obj 287 276 sp-pass~;
#X obj 332 245 r \$0-pass-s;
#X obj 647 16 loadbang;
#X obj 647 41 f \$1;
#X obj 91 32 nbx 6 12 -10000 10000 0 0 \$0-shift-nbx-s \$0-shift-nbx-r
shift: -40 6 0 10 -262144 -1 -262144 3.7 256;
#X obj 472 185 s \$0-pass-r;
#X obj 297 86 r \$0-shift-nbx-s;
#X obj 425 208 s \$0-shift-nbx-r;
#X obj 647 66 s \$0-shift-nbx-r;
#X obj 125 48 bng 12 250 50 0 \$0-plus-sm-s \$0-plus-sm-r + 4 5 0 10
-262144 -1 -1;
#N canvas 650 417 164 212 plus-sm 0;
#X msg 28 47 bang;
#X obj 43 97 r \$0-shift-nbx-s;
#X obj 28 119 f;
#X obj 28 145 + 0.1;
#X obj 28 171 s \$0-shift-nbx-r;
#X obj 28 22 r \$0-plus-sm-s;
#X connect 0 0 2 0;
#X connect 1 0 2 1;
#X connect 2 0 3 0;
#X connect 3 0 4 0;
#X connect 5 0 0 0;
#X restore 24 137 pd plus-sm;
#N canvas 650 417 164 212 plus-big 0;
#X msg 28 47 bang;
#X obj 43 97 r \$0-shift-nbx-s;
#X obj 28 119 f;
#X obj 28 171 s \$0-shift-nbx-r;
#X obj 28 22 r \$0-plus-big-s;
#X obj 28 145 + 50;
#X connect 0 0 2 0;
#X connect 1 0 2 1;
#X connect 2 0 5 0;
#X connect 4 0 0 0;
#X connect 5 0 3 0;
#X restore 24 157 pd plus-big;
#X obj 142 48 bng 12 250 50 0 \$0-plus-big-s \$0-plus-big-r + 3 5 0
12 -261234 -1 -1;
#N canvas 650 417 164 212 minus-sm 0;
#X msg 28 47 bang;
#X obj 43 97 r \$0-shift-nbx-s;
#X obj 28 119 f;
#X obj 28 171 s \$0-shift-nbx-r;
#X obj 28 22 r \$0-minus-sm-s;
#X obj 28 145 - 0.1;
#X connect 0 0 2 0;
#X connect 1 0 2 1;
#X connect 2 0 5 0;
#X connect 4 0 0 0;
#X connect 5 0 3 0;
#X restore 24 177 pd minus-sm;
#N canvas 650 417 164 212 minus-big 0;
#X msg 28 47 bang;
#X obj 43 97 r \$0-shift-nbx-s;
#X obj 28 119 f;
#X obj 28 171 s \$0-shift-nbx-r;
#X obj 28 22 r \$0-minus-big-s;
#X obj 28 145 - 50;
#X connect 0 0 2 0;
#X connect 1 0 2 1;
#X connect 2 0 5 0;
#X connect 4 0 0 0;
#X connect 5 0 3 0;
#X restore 24 197 pd minus-big;
#X obj 91 48 bng 12 250 50 0 \$0-minus-big-s \$0-minus-big-r - 4 5
0 10 -204800 -1 -1;
#X obj 108 48 bng 12 250 50 0 \$0-minus-sm-s \$0-minus-ms-r - 3 5 0
12 -262144 -1 -1;
#X obj 72 68 hsl 90 12 0 100 0 0 \$0-drywet-s \$0-drywet-r dry/wet:
-55 6 0 10 -262144 -1 -262144 7832 1;
#X obj 170 68 nbx 3 12 0 100 0 0 \$0-drywet-s \$0-drywet-r empty 0
-8 0 10 -262144 -1 -1 88 256;
#X obj 609 244 r \$0-drywet-s;
#X obj 609 264 change;
#X obj 609 283 s \$0-drywet-r;
#X obj 425 86 route shift pass dry-wet;
#X obj 209 197 sp-dry-wet~;
#X obj 297 197 sp-dry-wet~;
#X obj 303 164 / 100;
#X obj 303 147 r \$0-drywet-s;
#X msg 754 42 100;
#X obj 754 66 s \$0-drywet-s;
#X obj 519 152 s \$0-drywet-s;
#X connect 0 0 2 0;
#X connect 0 0 12 1;
#X connect 0 0 9 1;
#X connect 0 0 35 0;
#X connect 0 0 36 0;
#X connect 2 0 35 1;
#X connect 2 1 36 1;
#X connect 5 0 6 0;
#X connect 6 0 34 0;
#X connect 6 1 4 0;
#X connect 9 0 1 0;
#X connect 11 0 34 0;
#X connect 12 0 3 0;
#X connect 13 0 12 2;
#X connect 13 0 9 2;
#X connect 14 0 15 0;
#X connect 14 0 39 0;
#X connect 15 0 20 0;
#X connect 18 0 2 1;
#X connect 31 0 32 0;
#X connect 32 0 33 0;
#X connect 34 0 19 0;
#X connect 34 1 17 0;
#X connect 34 2 41 0;
#X connect 34 3 8 0;
#X connect 35 0 9 0;
#X connect 36 0 12 0;
#X connect 37 0 35 2;
#X connect 37 0 36 2;
#X connect 38 0 37 0;
#X connect 39 0 40 0;
#X coords 0 -1 1 1 200 80 1 10 10;
