#N canvas 225 159 707 454 10;
#X obj 171 231 env~;
#X floatatom 171 254 5 0 0 0 - - -;
#X obj 191 291 env~;
#X floatatom 191 314 5 0 0 0 - - -;
#X obj 211 231 env~;
#X floatatom 211 254 5 0 0 0 - - -;
#X obj 231 291 env~;
#X floatatom 231 314 5 0 0 0 - - -;
#X obj 171 145 osc~ 440;
#X obj 251 231 env~;
#X floatatom 251 254 5 0 0 0 - - -;
#X obj 271 291 env~;
#X floatatom 271 314 5 0 0 0 - - -;
#X obj 292 231 env~;
#X floatatom 292 254 5 0 0 0 - - -;
#X obj 312 291 env~;
#X floatatom 312 314 5 0 0 0 - - -;
#X obj 332 231 env~;
#X floatatom 332 254 5 0 0 0 - - -;
#X obj 352 291 env~;
#X floatatom 352 314 5 0 0 0 - - -;
#X obj 372 231 env~;
#X floatatom 372 254 5 0 0 0 - - -;
#X obj 393 291 env~;
#X floatatom 393 314 5 0 0 0 - - -;
#X obj 413 231 env~;
#X floatatom 413 254 5 0 0 0 - - -;
#X obj 433 291 env~;
#X floatatom 433 314 5 0 0 0 - - -;
#X obj 453 231 env~;
#X floatatom 453 254 5 0 0 0 - - -;
#X obj 474 291 env~;
#X floatatom 474 314 5 0 0 0 - - -;
#X obj 171 186 sp-ghub16~;
#X msg 448 54 hub16 invert;
#X msg 477 82 hub16 save;
#X msg 552 82 hub16 restore;
#X msg 256 81 hub16 \$1 1;
#X obj 259 23 hsl 128 15 1 16 0 0 empty empty empty -2 -8 0 10 -262144
-1 -1 5200 1;
#X obj 256 49 int;
#X obj 399 23 hsl 128 15 1 16 0 0 empty empty empty -2 -8 0 10 -262144
-1 -1 0 1;
#X obj 396 49 int;
#X msg 396 81 hub16 \$1 0;
#X connect 0 0 1 0;
#X connect 2 0 3 0;
#X connect 4 0 5 0;
#X connect 6 0 7 0;
#X connect 8 0 33 0;
#X connect 8 0 33 1;
#X connect 8 0 33 2;
#X connect 8 0 33 3;
#X connect 8 0 33 4;
#X connect 8 0 33 5;
#X connect 8 0 33 6;
#X connect 8 0 33 7;
#X connect 8 0 33 8;
#X connect 8 0 33 9;
#X connect 8 0 33 10;
#X connect 8 0 33 11;
#X connect 8 0 33 12;
#X connect 8 0 33 13;
#X connect 8 0 33 14;
#X connect 8 0 33 15;
#X connect 9 0 10 0;
#X connect 11 0 12 0;
#X connect 13 0 14 0;
#X connect 15 0 16 0;
#X connect 17 0 18 0;
#X connect 19 0 20 0;
#X connect 21 0 22 0;
#X connect 23 0 24 0;
#X connect 25 0 26 0;
#X connect 27 0 28 0;
#X connect 29 0 30 0;
#X connect 31 0 32 0;
#X connect 33 0 0 0;
#X connect 33 1 2 0;
#X connect 33 2 4 0;
#X connect 33 3 6 0;
#X connect 33 4 9 0;
#X connect 33 5 11 0;
#X connect 33 6 13 0;
#X connect 33 7 15 0;
#X connect 33 8 17 0;
#X connect 33 9 19 0;
#X connect 33 10 21 0;
#X connect 33 11 23 0;
#X connect 33 12 25 0;
#X connect 33 13 27 0;
#X connect 33 14 29 0;
#X connect 33 15 31 0;
#X connect 34 0 33 16;
#X connect 35 0 33 16;
#X connect 36 0 33 16;
#X connect 37 0 33 16;
#X connect 38 0 39 0;
#X connect 39 0 37 0;
#X connect 40 0 41 0;
#X connect 41 0 42 0;
#X connect 42 0 33 16;
