#N canvas 187 22 621 716 10;
#X obj 162 254 hsl 128 15 0 100 0 0 empty empty empty -2 -8 0 10 -262144
-1 -1 0 1;
#X obj 46 580 +dsp;
#X obj 162 204 hsl 128 15 0 100 0 0 empty empty empty -2 -8 0 10 -262144
-1 -1 0 1;
#X obj 162 154 hsl 128 15 0 100 0 0 empty empty empty -2 -8 0 10 -262144
-1 -1 0 1;
#X obj 162 104 hsl 128 15 0 100 0 0 empty empty empty -2 -8 0 10 -262144
-1 -1 0 1;
#X obj 162 54 hsl 128 15 0 100 0 0 empty empty empty -2 -8 0 10 -262144
-1 -1 0 1;
#X obj 309 51 tgl 15 0 empty empty empty 17 7 0 10 -262144 -1 -1 0
1;
#X obj 309 111 tgl 15 0 empty empty empty 17 7 0 10 -262144 -1 -1 0
1;
#X obj 45 208 sp-gbeep~;
#X obj 46 307 sp-gfreeverb~ v1;
#X msg 159 75 freeverb dry \$1;
#X msg 159 125 freeverb wet \$1;
#X msg 159 175 freeverb width \$1;
#X msg 159 225 freeverb damping \$1;
#X msg 159 275 freeverb roomsize \$1;
#X msg 309 290 freeverb print;
#X msg 309 135 freeverb pass \$1;
#X msg 309 75 freeverb freeze \$1;
#X msg 317 226 volume 0.5;
#X msg 317 165 freeverb save;
#X msg 317 195 freeverb restore;
#X msg 418 165 freeverb save 1;
#X msg 438 195 freeverb restore 1;
#X connect 0 0 14 0;
#X connect 2 0 13 0;
#X connect 3 0 12 0;
#X connect 4 0 11 0;
#X connect 5 0 10 0;
#X connect 6 0 17 0;
#X connect 7 0 16 0;
#X connect 8 0 9 0;
#X connect 8 0 9 1;
#X connect 9 0 1 0;
#X connect 9 1 1 1;
#X connect 9 2 1 2;
#X connect 10 0 9 2;
#X connect 11 0 9 2;
#X connect 12 0 9 2;
#X connect 13 0 9 2;
#X connect 14 0 9 2;
#X connect 15 0 9 2;
#X connect 16 0 9 2;
#X connect 17 0 9 2;
#X connect 18 0 9 2;
#X connect 19 0 9 2;
#X connect 20 0 9 2;
#X connect 21 0 9 2;
#X connect 22 0 9 2;
