#N canvas 0 22 518 442 10;
#X obj 108 251 Scope~ 130 130 256 3 128 -1 1 0 0 0 0 102 255 51 135
135 135 0;
#X obj 314 321 *~;
#X obj 314 270 osc~ 200;
#X obj 355 296 abs~;
#X obj 314 387 dac~;
#X obj 314 355 *~ 0.1;
#X msg 335 219 range -1.2 1.2;
#X msg 108 47 lfo reset;
#X msg 197 37 lfo shape 2;
#X msg 284 37 lfo stop;
#X msg 351 38 lfo start;
#X msg 327 72 lfo freq 4.5;
#X msg 336 127 \; sp-lfo1 freq 0.01;
#X obj 108 96 sp-glfo~ lfo1;
#X msg 29 23 lfo save;
#X msg 29 47 lfo restore;
#X connect 1 0 5 0;
#X connect 2 0 1 0;
#X connect 3 0 1 1;
#X connect 5 0 4 0;
#X connect 5 0 4 1;
#X connect 6 0 0 0;
#X connect 7 0 13 0;
#X connect 8 0 13 0;
#X connect 9 0 13 0;
#X connect 10 0 13 0;
#X connect 11 0 13 0;
#X connect 13 0 0 0;
#X connect 13 0 3 0;
#X connect 14 0 13 0;
#X connect 15 0 13 0;
