#N canvas 413 93 653 459 10;
#X obj 41 57 cnv 15 98 60 empty empty empty 20 12 0 14 -33289 -66577
0;
#X obj 48 102 hsl 84 10 0 1 0 0 \$0-level-s \$0-level-r level -2 -8
0 10 -262144 -1 -262144 4150 1;
#X obj 48 73 hsl 84 10 0.01 1 1 0 \$0-density-s \$0-density-r density
-2 -8 0 10 -262144 -1 -262144 6300 1;
#X obj 140 411 outlet~;
#X obj 216 36 inlet control;
#X obj 216 65 route cracks;
#X obj 285 241 outlet;
#X obj 216 123 sp-param-file;
#X obj 140 388 *~;
#X obj 155 362 line~;
#X msg 155 341 \$1 20;
#X obj 155 318 r \$0-level-s;
#X obj 345 34 loadbang;
#X obj 216 94 route save restore level density;
#X obj 310 123 s \$0-level-r;
#X obj 405 197 print [sp-gcracks~] unknwon parameter;
#N canvas 554 361 450 300 param 0;
#X obj 33 48 tof/param /cracks/\$1/value;
#X obj 186 19 r \$0-level-s;
#X obj 33 73 change;
#X obj 33 98 s \$0-level-r;
#X obj 33 183 change;
#X obj 33 158 tof/param /cracks/\$1/density;
#X obj 198 129 r \$0-density-s;
#X obj 33 208 s \$0-density-r;
#X connect 0 0 2 0;
#X connect 1 0 0 1;
#X connect 2 0 3 0;
#X connect 4 0 7 0;
#X connect 5 0 4 0;
#X connect 6 0 5 1;
#X restore 558 67 pd param;
#X msg 345 57 level 0.5 \, density 0.5;
#X obj 357 150 s \$0-density;
#X obj 70 150 r \$0-density-s;
#X obj 140 270 phasor~;
#X obj 140 296 hip~ 10;
#X obj 140 219 random 20;
#X obj 140 242 + 1;
#X obj 43 262 metro;
#X obj 70 233 * 1000;
#X obj 191 198 + 1;
#X obj 191 177 * 40;
#X obj 70 178 swap 1;
#X obj 70 206 -;
#X obj 43 131 loadbang;
#X msg 43 150 1;
#X connect 4 0 5 0;
#X connect 5 0 13 0;
#X connect 5 1 6 0;
#X connect 8 0 3 0;
#X connect 9 0 8 1;
#X connect 10 0 9 0;
#X connect 11 0 10 0;
#X connect 12 0 17 0;
#X connect 13 0 7 0;
#X connect 13 1 7 1;
#X connect 13 2 14 0;
#X connect 13 3 18 0;
#X connect 13 4 15 0;
#X connect 17 0 13 0;
#X connect 19 0 27 0;
#X connect 19 0 28 0;
#X connect 20 0 21 0;
#X connect 21 0 8 0;
#X connect 22 0 23 0;
#X connect 23 0 20 0;
#X connect 24 0 22 0;
#X connect 25 0 24 1;
#X connect 26 0 22 1;
#X connect 27 0 26 0;
#X connect 28 0 29 0;
#X connect 28 1 29 1;
#X connect 29 0 25 0;
#X connect 30 0 31 0;
#X connect 31 0 24 0;
#X coords 0 -1 1 1 100 80 1 40 40;
