#N canvas 0 22 772 438 10;
#X obj 131 131 adc~ 2;
#X obj 131 306 +dsp;
#X obj 131 172 sp-goctaver~ -1 oct1;
#X msg 324 100 octaver pass \$1;
#X obj 324 82 tgl 15 0 empty empty empty 17 7 0 10 -262144 -1 -1 0
1;
#X msg 378 68 octaver shape 3;
#X connect 0 0 2 0;
#X connect 2 0 1 0;
#X connect 3 0 2 1;
#X connect 4 0 3 0;
#X connect 5 0 2 1;
