#N canvas 425 187 492 424 10;
#X obj 40 301 +dsp;
#X msg 290 100 limiter threshold 90;
#X msg 197 100 diode mode 2;
#X obj 172 51 tgl 15 0 empty empty empty 17 7 0 10 -262144 -1 -1 0
1;
#X msg 172 74 diode pass \$1;
#X msg 66 52 diode invalid;
#X obj 295 23 hsl 128 15 0 100 0 0 empty empty empty -2 -8 0 10 -262144
-1 -1 1000 1;
#X msg 292 54 diode dry-wet \$1;
#X obj 40 96 osc~ 220;
#X obj 40 219 sp-glimiter~;
#X msg 305 149 \; sp-f1 pass 1;
#X obj 40 151 sp-gdiode~ f1;
#X connect 1 0 11 1;
#X connect 2 0 11 1;
#X connect 3 0 4 0;
#X connect 4 0 11 1;
#X connect 5 0 11 1;
#X connect 6 0 7 0;
#X connect 7 0 11 1;
#X connect 8 0 11 0;
#X connect 9 0 0 0;
#X connect 9 1 0 1;
#X connect 11 0 9 0;
#X connect 11 0 9 1;
#X connect 11 1 9 2;
