#N canvas 0 22 567 358 10;
#X obj 170 80 inlet~;
#X obj 306 80 inlet;
#X obj 306 111 route pass;
#X obj 363 279 outlet;
#X obj 306 148 s \$0-pass-r;
#X obj 170 174 sp-pass~;
#X obj 228 80 inlet~;
#X obj 215 144 r \$0-pass-s;
#X obj 170 279 outlet~;
#X obj 11 26 cnv 15 98 20 empty empty empty 20 12 0 14 -162280 -66577
0;
#X obj 91 30 tgl 12 0 \$0-pass-s \$0-pass-r pass: -35 6 0 10 -262130
-1 -1 0 1;
#X obj 396 80 r sp-\$1;
#X connect 0 0 5 0;
#X connect 1 0 2 0;
#X connect 2 0 4 0;
#X connect 2 1 3 0;
#X connect 5 0 8 0;
#X connect 6 0 5 1;
#X connect 7 0 5 2;
#X connect 11 0 4 0;
#X coords 0 -1 1 1 100 40 1 10 10;
