#N canvas 191 224 537 349 10;
#X obj 284 52 sp-gparam;
#X floatatom -24 283 5 0 0 0 - - -;
#X msg 113 289 \; sp-dm1 select 2;
#X obj 153 85 hradio 15 1 0 8 empty empty empty 0 -8 0 10 -262144 -1
-1 1;
#X msg 112 256 set;
#X obj 112 209 list prepend set;
#X obj 112 233 list trim;
#X symbolatom 278 148 10 0 0 0 - - -;
#X msg 180 41 mux8 unknown;
#X msg 153 111 mux8 select \$1;
#X msg 280 121 mux8 next;
#X msg 361 121 mux8 prev;
#X obj -50 164 sp-gmux8~ dm1;
#X obj -50 223 fiddle~;
#X obj -24 253 mtof;
#X obj -39 52 osc~ 500;
#X obj -50 32 osc~ 400;
#X obj -27 72 osc~ 600;
#X obj -16 92 osc~ 700;
#X obj -4 112 osc~ 800;
#X obj 8 32 osc~ 900;
#X obj 19 52 osc~ 1000;
#X obj 31 72 osc~ 1100;
#X connect 3 0 9 0;
#X connect 5 0 6 0;
#X connect 6 0 4 0;
#X connect 7 0 12 8;
#X connect 8 0 12 8;
#X connect 9 0 12 8;
#X connect 10 0 12 8;
#X connect 11 0 12 8;
#X connect 12 0 13 0;
#X connect 12 1 5 0;
#X connect 13 2 14 0;
#X connect 14 0 1 0;
#X connect 15 0 12 1;
#X connect 16 0 12 0;
#X connect 17 0 12 2;
#X connect 18 0 12 3;
#X connect 19 0 12 4;
#X connect 20 0 12 5;
#X connect 21 0 12 6;
#X connect 22 0 12 7;
