#N canvas 89 178 962 357 10;
#X obj 311 180 compressor~;
#X obj 311 91 inlet~;
#X obj 311 287 outlet~;
#X obj 10 26 cnv 15 198 41 empty empty empty 20 12 0 14 -994 -66577
0;
#X obj 304 8 loadbang;
#X obj 304 61 s \$0-level-r;
#X obj 607 31 inlet;
#X obj 670 303 outlet;
#X obj 607 175 s \$0-level-r;
#X obj 374 147 r \$0-level-s;
#X obj 20 49 hsl 130 12 -1 5 0 0 \$0-level-s \$0-level-r strength -2
-9 0 10 -262144 -1 -262144 2700 1;
#X obj 158 49 nbx 4 12 -1 5 0 0 \$0-level-s \$0-level-r empty 0 -8
0 10 -262144 -1 -1 0.255814 256;
#X msg 304 31 0;
#X obj 191 30 tgl 12 0 \$0-pass-s \$0-pass-r pass: -35 6 0 10 -262130
-1 -262144 0 1;
#X obj 356 206 r \$0-pass-s;
#X obj 35 156 r \$0-level-s;
#X obj 35 181 change;
#X obj 35 205 s \$0-level-r;
#X obj 311 233 sp-pass~;
#X obj 607 80 route compr;
#X obj 607 118 route level pass;
#X obj 653 145 s \$0-pass-r;
#X obj 700 175 print [sp-gcompr~] unknown command;
#X obj 697 31 r sp-\$1;
#X connect 0 0 18 0;
#X connect 1 0 18 1;
#X connect 1 0 0 0;
#X connect 4 0 12 0;
#X connect 6 0 19 0;
#X connect 9 0 0 1;
#X connect 12 0 5 0;
#X connect 14 0 18 2;
#X connect 15 0 16 0;
#X connect 16 0 17 0;
#X connect 18 0 2 0;
#X connect 19 0 20 0;
#X connect 19 1 7 0;
#X connect 20 0 8 0;
#X connect 20 1 21 0;
#X connect 20 2 22 0;
#X connect 23 0 20 0;
#X coords 0 -1 1 1 200 60 1 10 10;
