#N canvas 194 154 985 475 10;
#X declare -lib flatgui;
#X obj 790 36 import flatgui;
#X obj 175 35 inlet~;
#X obj 239 35 inlet~;
#X obj 300 35 inlet~;
#X obj 359 35 inlet~;
#X obj 175 355 outlet~;
#X obj 239 355 outlet~;
#X obj 598 66 route pan4;
#X obj 598 153 sp-param-file;
#N canvas 453 217 232 366 param 0;
#X obj 21 38 tof/param /pan4/\$1/0;
#X obj 138 17 r \$0-pan0-s;
#X obj 21 59 change;
#X obj 21 80 s \$0-pan0-r;
#X obj 21 149 change;
#X obj 21 128 tof/param /pan4/\$1/1;
#X obj 138 107 r \$0-pan1-s;
#X obj 21 229 change;
#X obj 21 208 tof/param /pan4/\$1/2;
#X obj 138 187 r \$0-pan2-s;
#X obj 21 319 change;
#X obj 21 298 tof/param /pan4/\$1/3;
#X obj 138 277 r \$0-pan3-s;
#X obj 21 250 s \$0-pan2-r;
#X obj 21 340 s \$0-pan3-r;
#X obj 21 170 s \$0-pan1-r;
#X connect 0 0 2 0;
#X connect 1 0 0 1;
#X connect 2 0 3 0;
#X connect 4 0 15 0;
#X connect 5 0 4 0;
#X connect 6 0 5 1;
#X connect 7 0 13 0;
#X connect 8 0 7 0;
#X connect 9 0 8 1;
#X connect 10 0 14 0;
#X connect 11 0 10 0;
#X connect 12 0 11 1;
#X restore 9 248 pd param;
#X obj 175 182 pan~;
#X obj 239 182 pan~;
#X obj 300 182 pan~;
#X obj 359 182 pan~;
#X obj 196 129 r \$0-pan0-s;
#X obj 196 156 * 45;
#X obj 260 106 * 45;
#X obj 321 156 * 45;
#X obj 380 106 * 45;
#X obj 260 79 r \$0-pan1-s;
#X obj 321 129 r \$0-pan2-s;
#X obj 380 79 r \$0-pan3-s;
#N canvas 443 189 450 300 init 0;
#X restore 9 221 pd init;
#X msg 684 153 0 pan \$1 \, 1 pan \$1 \, 2 pan \$1 \, 3 pan \$1;
#X obj 684 190 select 0 1 2 3;
#X obj 765 221 print [sp-gpan4~] unknown command;
#X obj 684 289 s \$0-pan0-r;
#X obj 704 309 s \$0-pan1-r;
#X obj 724 329 s \$0-pan2-r;
#X obj 744 349 s \$0-pan3-r;
#N canvas 191 381 450 300 midi 0;
#X obj 163 32 inlet;
#X obj 87 34 ctlin;
#X obj 100 85 ==;
#X obj 87 118 spigot;
#X obj 163 68 route 0 1 2 3;
#X connect 0 0 4 0;
#X connect 1 0 3 0;
#X connect 1 1 2 0;
#X connect 2 0 3 1;
#X connect 4 0 2 1;
#X restore 845 305 pd midi;
#X obj 598 110 route save restore pan;
#X obj 598 35 inlet control;
#X obj 655 244 outlet control;
#X obj 11 12 cnv 15 133 66 \$0-cnv-s \$0-cnv-r sp-gpan~[0] 5 8 0 10
-66577 -262144 0;
#X obj 17 31 knob 24 24 -1 1 0 0 \$0-pan0-s \$0-pan0-r empty 0 -8 1
9 -262144 -260097 -262144 1150 1;
#X obj 49 31 knob 24 24 -1 1 0 0 \$0-pan1-s \$0-pan1-r empty 0 -8 0
8 -262144 -260097 -1 1100 1;
#X obj 81 31 knob 24 24 -1 1 0 0 \$0-pan2-s \$0-pan2-r empty 0 -8 0
8 -262144 -260097 -1 450 1;
#X obj 113 31 knob 24 24 -1 1 0 0 \$0-pan3-s \$0-pan3-r empty 0 -8
0 8 -262144 -260097 -1 1700 1;
#X obj 449 201 loadbang;
#X msg 449 246 label sp-gpan~[\$1];
#X obj 449 269 s \$0-cnv-r;
#X obj 449 224 f \$1;
#X obj 20 59 bng 14 250 50 0 \$0-center1-s \$0-center1-r c 5 7 0 10
-66577 -1 -262144;
#X obj 52 59 bng 15 250 50 0 \$0-center1-s \$0-center1-r c 6 7 0 10
-66577 -1 -262144;
#X obj 86 59 bng 15 250 50 0 \$0-center1-s \$0-center1-r c 6 7 0 10
-66577 -1 -262144;
#X obj 118 59 bng 15 250 50 0 \$0-center1-s \$0-center1-r c 6 7 0 10
-66577 -1 -262144;
#X msg 16 115 0;
#X msg 46 115 0;
#X msg 76 115 0;
#X msg 106 115 0;
#X connect 1 0 10 0;
#X connect 2 0 11 0;
#X connect 3 0 12 0;
#X connect 4 0 13 0;
#X connect 7 0 31 0;
#X connect 7 1 33 0;
#X connect 10 0 5 0;
#X connect 10 1 6 0;
#X connect 11 0 5 0;
#X connect 11 1 6 0;
#X connect 12 0 5 0;
#X connect 12 1 6 0;
#X connect 13 0 5 0;
#X connect 13 1 6 0;
#X connect 14 0 15 0;
#X connect 15 0 10 1;
#X connect 16 0 11 1;
#X connect 17 0 12 1;
#X connect 18 0 13 1;
#X connect 19 0 16 0;
#X connect 20 0 17 0;
#X connect 21 0 18 0;
#X connect 23 0 24 0;
#X connect 24 0 26 0;
#X connect 24 1 27 0;
#X connect 24 2 28 0;
#X connect 24 3 29 0;
#X connect 24 4 25 0;
#X connect 31 0 8 0;
#X connect 31 1 8 1;
#X connect 31 2 23 0;
#X connect 32 0 7 0;
#X connect 39 0 42 0;
#X connect 40 0 41 0;
#X connect 42 0 40 0;
#X connect 43 0 47 0;
#X connect 44 0 48 0;
#X connect 45 0 49 0;
#X connect 46 0 50 0;
#X connect 47 0 35 0;
#X connect 48 0 36 0;
#X connect 49 0 37 0;
#X connect 50 0 38 0;
#X coords 0 -1 1 1 135 70 2 10 10;
