#N canvas 0 22 694 516 10;
#X obj 281 51 tgl 15 0 empty empty empty 17 7 0 10 -262144 -1 -1 0
1;
#X msg 281 83 arduino led_red \$1;
#X obj 281 247 sp-garduino;
#X obj 211 65 bng 15 250 50 0 empty empty empty 17 7 0 10 -262144 -1
-1;
#X msg 211 113 arduino led_red;
#X obj 111 53 tgl 15 0 empty empty empty 17 7 0 10 -262144 -1 -1 0
1;
#X obj 41 67 bng 15 250 50 0 empty empty empty 17 7 0 10 -262144 -1
-1;
#X msg 111 85 arduino led_green \$1;
#X msg 41 115 arduino led_green;
#X floatatom 329 475 5 0 0 0 - - -;
#X floatatom 353 451 5 0 0 0 - - -;
#X obj 281 425 tgl 15 0 empty empty empty 17 7 0 10 -262144 -1 -1 0
1;
#X obj 305 425 tgl 15 0 empty empty empty 17 7 0 10 -262144 -1 -1 0
1;
#X obj 377 425 tgl 15 0 empty empty empty 17 7 0 10 -262144 -1 -1 0
1;
#X obj 401 425 tgl 15 0 empty empty empty 17 7 0 10 -262144 -1 -1 0
1;
#X obj 425 425 tgl 15 0 empty empty empty 17 7 0 10 -262144 -1 -1 0
1;
#X obj 449 425 tgl 15 0 empty empty empty 17 7 0 10 -262144 -1 -1 0
1;
#X obj 366 161 tgl 15 0 empty empty empty 17 7 0 10 -262144 -1 -1 0
1;
#X obj 432 162 tgl 15 0 empty empty empty 17 7 0 10 -262144 -1 -1 0
1;
#X connect 0 0 1 0;
#X connect 1 0 2 0;
#X connect 2 0 11 0;
#X connect 2 1 12 0;
#X connect 2 2 9 0;
#X connect 2 3 10 0;
#X connect 2 4 13 0;
#X connect 2 5 14 0;
#X connect 2 6 15 0;
#X connect 2 7 16 0;
#X connect 3 0 4 0;
#X connect 4 0 2 0;
#X connect 5 0 7 0;
#X connect 6 0 8 0;
#X connect 7 0 2 0;
#X connect 8 0 2 0;
#X connect 17 0 2 1;
#X connect 18 0 2 2;
