#N canvas 544 105 588 368 10;
#X obj 212 24 inlet~;
#X obj 212 104 outlet~;
#X obj 21 37 cnv 15 118 40 empty empty empty 20 12 0 14 -66577 -66577
0;
#X obj 308 21 inlet;
#X obj 423 61 loadbang;
#X obj 423 89 f \$1;
#X obj 423 119 s \$0-nmb-r;
#X obj 89 59 nbx 4 14 -1e+37 1e+37 0 0 \$0-nmb-s \$0-nmb-r threshold:
-62 7 0 10 -261689 -1 -262144 99 256;
#X obj 212 62 sp-gate~ \$1;
#X obj 89 42 nbx 4 14 -1e+37 1e+37 0 0 \$0-level-s \$0-level-r level:
-63 7 0 10 -262144 -1 -262144 88.9894 256;
#X obj 243 147 s \$0-level-r;
#X obj 275 187 sel 1;
#X obj 275 256 s \$0-nmb-r;
#X msg 345 222 color 3;
#X msg 275 223 color 6;
#X obj 368 255 outlet;
#X obj 431 255 outlet;
#X obj 308 45 route ggate;
#X connect 0 0 8 0;
#X connect 3 0 17 0;
#X connect 4 0 5 0;
#X connect 5 0 6 0;
#X connect 8 0 1 0;
#X connect 8 1 10 0;
#X connect 8 2 11 0;
#X connect 8 2 15 0;
#X connect 11 0 14 0;
#X connect 11 1 13 0;
#X connect 13 0 12 0;
#X connect 14 0 12 0;
#X connect 17 0 8 1;
#X connect 17 0 5 0;
#X connect 17 1 16 0;
#X coords 0 -1 1 1 120 60 1 20 20;
