#N canvas 348 110 711 344 10;
#X obj 59 233 sp-hub2~;
#X obj 59 184 inlet~;
#X obj 108 184 inlet~;
#X obj 59 282 outlet~;
#X obj 113 282 outlet~;
#X obj 34 84 r \$0-ch1-s;
#X msg 34 112 1 \$1;
#X msg 104 112 2 \$1;
#X obj 104 140 list;
#X obj 21 23 cnv 10 40 14 empty empty empty 20 12 0 14 -128992 -66577
0;
#X obj 20 24 tgl 12 0 \$0-ch1-s \$0-ch1-r empty 17 7 0 10 -225271 -1
-262144 1 1;
#X obj 230 18 inlet;
#X obj 452 157 unpack f f;
#X obj 452 239 pack f f f;
#X obj 452 187 expr \$0 \; $f1 \; $f2 \;;
#X obj 425 94 Uzi 2;
#X msg 452 266 \; \$1-ch\$2-r \$3;
#X obj 425 58 r \$0-tgl-s;
#X msg 452 121 \$1 0;
#X obj 485 94 Uzi 2;
#X msg 512 121 \$1 1;
#X obj 501 58 loadbang;
#X obj 287 282 outlet;
#X obj 230 50 route hub2;
#X obj 104 84 r \$0-ch2-s;
#X obj 37 24 tgl 12 0 \$0-ch2-s \$0-ch2-r empty 17 7 0 10 -258699 -1
-262144 0 1;
#X obj 53 26 bng 8 250 50 0 \$0-tgl-s \$0-tgl-r empty 17 7 0 10 -203904
-1 -1;
#N canvas 314 163 230 282 invert 0;
#X obj 64 89 Uzi 2;
#X obj 64 66 bang;
#X msg 91 122 \$1 bang;
#X obj 91 197 pack f f;
#X obj 91 156 expr \$0 \; $f1 \;;
#X msg 91 226 \; \$1-ch\$2-r bang;
#X obj 64 40 inlet;
#X connect 0 2 2 0;
#X connect 1 0 0 0;
#X connect 2 0 4 0;
#X connect 3 0 5 0;
#X connect 4 0 3 0;
#X connect 4 1 3 1;
#X connect 6 0 1 0;
#X restore 230 122 pd invert;
#N canvas 586 324 193 293 color 0;
#X obj 41 167 expr \$0 \; $f1 \; $f2 \;;
#X obj 41 217 pack f f f;
#X msg 41 241 \; \$1-ch\$2-r color \$3;
#X obj 98 112 sel 0;
#X obj 41 87 unpack f f;
#X msg 98 141 13;
#X msg 130 141 6;
#X obj 41 35 inlet;
#X connect 0 0 1 0;
#X connect 0 1 1 1;
#X connect 0 2 1 2;
#X connect 1 0 2 0;
#X connect 3 0 5 0;
#X connect 3 1 6 0;
#X connect 4 0 0 0;
#X connect 4 1 3 0;
#X connect 5 0 0 1;
#X connect 6 0 0 1;
#X connect 7 0 4 0;
#X restore 168 184 pd color;
#X obj 306 50 r sp-\$1;
#N canvas 574 311 450 300 attrs 1;
#X obj 155 20 r \$0-ch1-s;
#X obj 155 44 change;
#X obj 155 134 change;
#X obj 155 110 r \$0-ch2-s;
#X obj 20 70 tof/param /ghub2/\$1/ch1;
#X obj 20 160 tof/param /ghub2/\$1/ch2;
#X obj 20 199 s \$0-ch2-r;
#X obj 20 100 s \$0-ch1-r;
#X connect 0 0 1 0;
#X connect 1 0 4 1;
#X connect 2 0 5 1;
#X connect 3 0 2 0;
#X connect 4 0 7 0;
#X connect 5 0 6 0;
#X restore 619 34 pd attrs;
#X obj 230 86 route invert save restore;
#X obj 279 179 tof/param file;
#X msg 279 154 bang;
#X msg 360 153 bang;
#X connect 0 0 3 0;
#X connect 0 1 4 0;
#X connect 1 0 0 0;
#X connect 2 0 0 1;
#X connect 5 0 6 0;
#X connect 6 0 8 0;
#X connect 7 0 8 0;
#X connect 8 0 0 2;
#X connect 8 0 28 0;
#X connect 11 0 23 0;
#X connect 12 0 14 0;
#X connect 12 1 14 1;
#X connect 13 0 16 0;
#X connect 14 0 13 0;
#X connect 14 1 13 1;
#X connect 14 2 13 2;
#X connect 15 2 18 0;
#X connect 17 0 15 0;
#X connect 18 0 12 0;
#X connect 19 2 20 0;
#X connect 20 0 12 0;
#X connect 21 0 19 0;
#X connect 23 0 31 0;
#X connect 23 1 22 0;
#X connect 24 0 7 0;
#X connect 29 0 31 0;
#X connect 31 0 27 0;
#X connect 31 1 33 0;
#X connect 31 2 34 0;
#X connect 31 3 12 0;
#X connect 31 3 8 0;
#X connect 33 0 32 0;
#X connect 34 0 32 1;
#X coords 0 -1 1 1 42 19 2 20 20;
