#N canvas 0 22 703 449 10;
#X obj 295 146 osc~ 440;
#X obj 391 147 osc~ 660;
#X obj 295 281 +dsp;
#X floatatom 488 114 5 0 0 0 - - -;
#X msg 566 115 volume 0.3;
#X obj 295 192 sp-gcrossfade1~ cf1;
#X msg 547 212 \; sp-cf1 -30;
#X text 15 17 Two channel crossfade to one mono signal. Values are
in [-100 to 100] range. Equal crossfade value == 0;
#X msg 439 32 crossfade1 save;
#X msg 429 62 crossfade1 restore;
#X msg 488 149 crossfade1 \$1;
#X msg 569 32 crossfade1 save 1;
#X msg 559 62 crossfade1 restore 1;
#X connect 0 0 5 0;
#X connect 1 0 5 1;
#X connect 3 0 10 0;
#X connect 4 0 5 2;
#X connect 5 0 2 0;
#X connect 5 0 2 1;
#X connect 5 1 2 2;
#X connect 8 0 5 2;
#X connect 9 0 5 2;
#X connect 10 0 5 2;
#X connect 11 0 5 2;
#X connect 12 0 5 2;
