#N canvas 47 53 722 314 10;
#X obj 11 27 cnv 15 198 40 empty empty empty 20 12 0 14 -13330 -66577
0;
#X obj 235 16 inlet~;
#X obj 299 16 inlet~;
#X obj 235 253 outlet~;
#X obj 469 16 inlet;
#X obj 562 275 outlet;
#X obj 21 47 hsl 120 12 -100 100 0 0 \$0-cross-s \$0-cross-r crossfade:
-2 -8 0 10 -262144 -1 -262144 5950 1;
#X obj 156 47 nbx 4 12 -100 100 0 0 \$0-cross-s \$0-cross-r empty 0
-8 0 10 -262144 -1 -1 0 256;
#X obj 574 126 clip -100 100;
#X obj 574 153 s \$0-cross-r;
#X obj 583 21 r sp-\$1;
#X obj 655 18 loadbang;
#X msg 655 41 0;
#X obj 235 210 sp-crossfade~;
#X obj 318 149 r \$0-cross-s;
#X obj 318 175 scale -100 100 0 1 0;
#X obj 217 45 change;
#X obj 469 93 route save restore;
#N canvas 190 384 294 139 param 0;
#X obj 21 72 tof/param /crossfade1/\$1/level;
#X obj 21 103 s \$0-cross-r;
#X obj 198 17 r \$0-cross-s;
#X obj 198 44 change;
#X connect 0 0 1 0;
#X connect 2 0 3 0;
#X connect 3 0 0 1;
#X restore 56 184 pd param;
#X obj 469 51 route crossfade1;
#X obj 469 126 sp-param-file;
#X connect 1 0 13 0;
#X connect 2 0 13 1;
#X connect 4 0 19 0;
#X connect 6 0 7 0;
#X connect 7 0 16 0;
#X connect 8 0 9 0;
#X connect 10 0 17 0;
#X connect 11 0 12 0;
#X connect 12 0 17 0;
#X connect 13 0 3 0;
#X connect 14 0 15 0;
#X connect 15 0 13 2;
#X connect 16 0 6 0;
#X connect 17 0 20 0;
#X connect 17 1 20 1;
#X connect 17 2 8 0;
#X connect 19 0 17 0;
#X connect 19 1 5 0;
#X coords 0 -1 1 1 200 60 1 10 10;
