#N canvas 0 30 1172 619 10;
#X obj 11 48 inlet~;
#X obj 11 410 outlet~;
#X obj 45 18 inlet~;
#X obj 45 440 outlet~;
#X obj 79 67 inlet~;
#X obj 79 410 outlet~;
#X obj 113 18 inlet~;
#X obj 113 440 outlet~;
#X obj 147 48 inlet~;
#X obj 147 410 outlet~;
#X obj 181 18 inlet~;
#X obj 181 440 outlet~;
#X obj 215 67 inlet~;
#X obj 215 410 outlet~;
#X obj 249 18 inlet~;
#X obj 249 440 outlet~;
#X obj 283 48 inlet~;
#X obj 283 410 outlet~;
#X obj 317 18 inlet~;
#X obj 317 440 outlet~;
#X obj 351 67 inlet~;
#X obj 351 410 outlet~;
#X obj 385 18 inlet~;
#X obj 576 74 inlet;
#X obj 385 440 outlet~;
#X obj 663 475 outlet;
#N canvas 194 241 200 385 solo 0;
#X obj 72 180 ==;
#X obj 72 205 sel 1;
#X obj 72 252 f;
#X obj 108 251 f;
#X msg 72 308 \$1 mute 0;
#X msg 108 279 \$1 mute 1;
#X obj 72 123 - 1;
#X msg 72 228 bang;
#X msg 108 228 bang;
#X obj 72 154 t f f f;
#X obj 39 63 t b f;
#X obj 39 25 inlet;
#X obj 72 340 outlet;
#X obj 39 93 Uzi 16;
#X connect 0 0 1 0;
#X connect 1 0 7 0;
#X connect 1 1 8 0;
#X connect 2 0 4 0;
#X connect 3 0 5 0;
#X connect 4 0 12 0;
#X connect 5 0 12 0;
#X connect 6 0 9 0;
#X connect 7 0 2 0;
#X connect 8 0 3 0;
#X connect 9 0 0 0;
#X connect 9 1 2 1;
#X connect 9 2 3 1;
#X connect 10 0 13 0;
#X connect 10 1 0 1;
#X connect 11 0 10 0;
#X connect 13 2 6 0;
#X restore 731 246 pd solo;
#N canvas 341 226 182 221 init 0;
#X obj 40 33 loadbang;
#X obj 67 111 pack f f;
#X obj 67 87 - 1;
#X msg 67 135 \$1 label ch\$2;
#X obj 67 165 outlet;
#X obj 40 62 Uzi 16;
#X connect 0 0 5 0;
#X connect 1 0 3 0;
#X connect 2 0 1 0;
#X connect 3 0 4 0;
#X connect 5 2 1 1;
#X connect 5 2 2 0;
#X restore 704 66 pd init;
#N canvas 346 181 217 274 mute 0;
#X obj 35 36 inlet;
#X obj 35 67 t b f;
#X obj 68 129 - 1;
#X obj 68 159 pack f f;
#X msg 68 188 \$1 mute \$2;
#X obj 68 217 outlet;
#X obj 113 129 f;
#X obj 35 100 Uzi 16;
#X connect 0 0 1 0;
#X connect 1 0 7 0;
#X connect 1 1 6 0;
#X connect 2 0 3 0;
#X connect 3 0 4 0;
#X connect 4 0 5 0;
#X connect 6 0 3 1;
#X connect 7 2 2 0;
#X restore 775 274 pd mute;
#N canvas 346 181 217 274 volume 0;
#X obj 35 36 inlet;
#X obj 35 67 t b f;
#X obj 68 129 - 1;
#X obj 68 159 pack f f;
#X obj 68 217 outlet;
#X obj 113 129 f;
#X msg 68 188 \$1 volume \$2;
#X obj 35 100 Uzi 16;
#X connect 0 0 1 0;
#X connect 1 0 7 0;
#X connect 1 1 5 0;
#X connect 2 0 3 0;
#X connect 3 0 6 0;
#X connect 5 0 3 1;
#X connect 6 0 4 0;
#X connect 7 2 2 0;
#X restore 820 304 pd volume;
#N canvas 346 181 156 248 save 0;
#X obj 35 36 inlet;
#X obj 68 129 - 1;
#X obj 68 187 outlet;
#X msg 68 158 \$1 save;
#X obj 35 100 Uzi 16;
#X connect 0 0 4 0;
#X connect 1 0 3 0;
#X connect 3 0 2 0;
#X connect 4 2 1 0;
#X restore 864 274 pd save;
#N canvas 346 181 156 248 restore 0;
#X obj 35 36 inlet;
#X obj 68 129 - 1;
#X obj 68 187 outlet;
#X msg 68 158 \$1 restore;
#X obj 35 100 Uzi 16;
#X connect 0 0 4 0;
#X connect 1 0 3 0;
#X connect 3 0 2 0;
#X connect 4 2 1 0;
#X restore 909 304 pd restore;
#X obj 11 103 sp-gmix~ ch1-\$1;
#X obj 45 103 sp-gmix~ ch2-\$1;
#X obj 79 103 sp-gmix~ ch3-\$1;
#X obj 113 103 sp-gmix~ ch4-\$1;
#X obj 147 103 sp-gmix~ ch5-\$1;
#X obj 181 103 sp-gmix~ ch6-\$1;
#X obj 215 103 sp-gmix~ ch7-\$1;
#X obj 249 103 sp-gmix~ ch8-\$1;
#X obj 283 103 sp-gmix~ ch9-\$1;
#X obj 317 103 sp-gmix~ 10-\$1;
#X obj 351 103 sp-gmix~ ch11-\$1;
#X obj 385 103 sp-gmix~ ch12-\$1;
#X obj 639 26 r sp-\$1;
#X obj 998 246 print [sp-gmix16~] unknown command;
#X obj 419 103 sp-gmix~ ch13-\$1;
#X obj 419 410 outlet~;
#X obj 453 440 outlet~;
#X obj 487 410 outlet~;
#X obj 521 440 outlet~;
#X obj 419 48 inlet~;
#X obj 453 18 inlet~;
#X obj 487 67 inlet~;
#X obj 521 18 inlet~;
#X obj 453 103 sp-gmix~ ch14-\$1;
#X obj 487 103 sp-gmix~ ch15-\$1;
#X obj 521 103 sp-gmix~ ch16-\$1;
#X obj 576 136 route 0 1 2 3 4 5 6 7 8 9 10 11 12 13 14 15;
#X obj 576 108 route mix mix16;
#X obj 731 217 route solo mute volume save restore midilearn;
#N canvas 237 312 212 282 midilearn 0;
#X obj 37 27 inlet;
#X obj 37 60 t b f;
#X obj 37 95 Uzi 16;
#X obj 70 124 - 1;
#X obj 70 165 pack f f;
#X msg 70 199 \$1 midilearn \$2;
#X obj 70 230 outlet;
#X connect 0 0 1 0;
#X connect 1 0 2 0;
#X connect 1 1 4 1;
#X connect 2 2 3 0;
#X connect 3 0 4 0;
#X connect 4 0 5 0;
#X connect 5 0 6 0;
#X restore 954 354 pd midilearn;
#X connect 0 0 32 0;
#X connect 2 0 33 0;
#X connect 4 0 34 0;
#X connect 6 0 35 0;
#X connect 8 0 36 0;
#X connect 10 0 37 0;
#X connect 12 0 38 0;
#X connect 14 0 39 0;
#X connect 16 0 40 0;
#X connect 18 0 41 0;
#X connect 20 0 42 0;
#X connect 22 0 43 0;
#X connect 23 0 59 0;
#X connect 26 0 58 0;
#X connect 27 0 58 0;
#X connect 28 0 58 0;
#X connect 29 0 58 0;
#X connect 30 0 58 0;
#X connect 31 0 58 0;
#X connect 32 0 1 0;
#X connect 33 0 3 0;
#X connect 34 0 5 0;
#X connect 35 0 7 0;
#X connect 36 0 9 0;
#X connect 37 0 11 0;
#X connect 38 0 13 0;
#X connect 39 0 15 0;
#X connect 40 0 17 0;
#X connect 41 0 19 0;
#X connect 42 0 21 0;
#X connect 43 0 24 0;
#X connect 44 0 58 0;
#X connect 46 0 47 0;
#X connect 51 0 46 0;
#X connect 52 0 55 0;
#X connect 53 0 56 0;
#X connect 54 0 57 0;
#X connect 55 0 48 0;
#X connect 56 0 49 0;
#X connect 57 0 50 0;
#X connect 58 0 32 1;
#X connect 58 1 33 1;
#X connect 58 2 34 1;
#X connect 58 3 35 1;
#X connect 58 4 36 1;
#X connect 58 5 37 1;
#X connect 58 6 38 1;
#X connect 58 7 39 1;
#X connect 58 8 40 1;
#X connect 58 9 41 1;
#X connect 58 10 42 1;
#X connect 58 11 43 1;
#X connect 58 12 46 1;
#X connect 58 13 55 1;
#X connect 58 14 56 1;
#X connect 58 15 57 1;
#X connect 58 16 60 0;
#X connect 59 0 58 0;
#X connect 59 1 58 0;
#X connect 59 2 25 0;
#X connect 60 0 26 0;
#X connect 60 1 28 0;
#X connect 60 2 29 0;
#X connect 60 3 30 0;
#X connect 60 4 31 0;
#X connect 60 5 61 0;
#X connect 60 6 45 0;
#X connect 61 0 58 0;
#X coords 0 -1 1 1 544 185 2 10 100;
