#N canvas 378 76 799 354 10;
#X obj 249 21 inlet control;
#X obj 21 21 cnv 15 199 90 empty empty sp-gpattern4 5 7 0 10 -66577
-262144 0;
#X obj 166 40 nbx 3 14 0 400 0 0 \$0-bpm-s \$0-bpm-r bpm -23 7 0 10
-262144 -1 -262144 120 256;
#X obj 27 40 tgl 15 0 \$0-on-s \$0-on-r on 18 7 0 10 -262144 -1 -262144
0 1;
#X obj 27 92 nbx 2 14 0 99 0 0 \$0-p1-s \$0-p1-r pat-1 0 -8 0 10 -262144
-1 -260097 2 256;
#X obj 29 316 outlet p1;
#X obj 330 316 outlet control;
#X obj 99 316 outlet p2;
#X obj 169 316 outlet p3;
#X obj 239 316 outlet p4;
#X obj 74 92 nbx 2 14 0 99 0 0 \$0-p2-s \$0-p2-r pat-2 0 -8 0 10 -262144
-1 -260097 3 256;
#X obj 121 92 nbx 2 14 0 99 0 0 \$0-p3-s \$0-p3-r pat-3 0 -8 0 10 -262144
-1 -260097 5 256;
#X obj 166 92 nbx 2 14 0 99 0 0 \$0-p4-s \$0-p4-r pat-4 0 -8 0 10 -262144
-1 -260097 7 256;
#X obj 29 229 sp-pattern4 11 5 7 4;
#X obj 249 107 s \$0-p1-r;
#X obj 277 137 s \$0-p2-r;
#X obj 306 168 s \$0-p3-r;
#X obj 334 197 s \$0-p4-r;
#X obj 363 111 s \$0-bpm-r;
#X obj 358 21 loadbang;
#X msg 358 48 bpm 120 \, random;
#N canvas 220 333 309 139 random 0;
#X obj 21 68 random 10;
#X obj 21 98 s \$0-p1-r;
#X obj 91 68 random 10;
#X obj 161 68 random 10;
#X obj 231 68 random 10;
#X obj 91 98 s \$0-p2-r;
#X obj 161 98 s \$0-p3-r;
#X obj 231 98 s \$0-p4-r;
#X obj 21 41 b;
#X obj 21 14 r \$0-random-s;
#X connect 0 0 1 0;
#X connect 2 0 5 0;
#X connect 3 0 6 0;
#X connect 4 0 7 0;
#X connect 8 0 0 0;
#X connect 8 0 2 0;
#X connect 8 0 3 0;
#X connect 8 0 4 0;
#X connect 9 0 8 0;
#X restore 626 28 pd random;
#X obj 27 60 bng 15 250 50 0 \$0-random-s \$0-random-r random 18 7
0 10 -262144 -1 -262144;
#X obj 478 106 s \$0-random-r;
#X obj 392 141 sp-param-file;
#X obj 452 173 s \$0-on-r;
#X obj 564 106 print [sp-gpattern4] unknown command;
#X obj 166 61 nbx 3 14 1 32 0 0 \$0-subdiv-s \$0-subdiv-r subdiv -40
7 0 10 -262144 -1 -262144 8 256;
#X obj 249 50 route pattern4;
#N canvas 235 117 546 355 param 0;
#X obj 30 72 tof/param /\$1/pattern4/bpm 120;
#X obj 207 44 r \$0-bpm-s;
#X obj 30 96 change;
#X obj 30 120 s \$0-bpm-r;
#X obj 30 196 change;
#X obj 213 144 r \$0-subdiv-s;
#X obj 30 172 tof/param /\$1/pattern4/subdiv 1;
#X obj 30 220 s \$0-subdiv-r;
#X obj 30 286 change;
#X obj 30 262 tof/param /\$1/pattern4/mode 0;
#X obj 201 234 r \$0-mode-s;
#X obj 30 310 s \$0-mode-r;
#X obj 310 81 change;
#X obj 469 43 r \$0-p1-s;
#X obj 310 62 tof/param /\$1/pattern4/p1 0;
#X obj 310 100 s \$0-p1-r;
#X obj 310 141 change;
#X obj 310 201 change;
#X obj 310 261 change;
#X obj 310 122 tof/param /\$1/pattern4/p2 0;
#X obj 469 103 r \$0-p2-s;
#X obj 310 160 s \$0-p2-r;
#X obj 469 163 r \$0-p3-s;
#X obj 310 182 tof/param /\$1/pattern4/p3 0;
#X obj 310 220 s \$0-p3-r;
#X obj 469 223 r \$0-p4-s;
#X obj 310 242 tof/param /\$1/pattern4/p4 0;
#X obj 310 280 s \$0-p4-r;
#X connect 0 0 2 0;
#X connect 1 0 0 1;
#X connect 2 0 3 0;
#X connect 4 0 7 0;
#X connect 5 0 6 1;
#X connect 6 0 4 0;
#X connect 8 0 11 0;
#X connect 9 0 8 0;
#X connect 10 0 9 1;
#X connect 12 0 15 0;
#X connect 13 0 14 1;
#X connect 14 0 12 0;
#X connect 16 0 21 0;
#X connect 17 0 24 0;
#X connect 18 0 27 0;
#X connect 19 0 16 0;
#X connect 20 0 19 1;
#X connect 22 0 23 1;
#X connect 23 0 17 0;
#X connect 25 0 26 1;
#X connect 26 0 18 0;
#X restore 626 58 pd param;
#X obj 506 233 s \$0-subdiv-r;
#X obj 535 134 unpack f f f f;
#X obj 535 155 s \$0-p1-r;
#X obj 562 175 s \$0-p2-r;
#X obj 589 195 s \$0-p3-r;
#X obj 616 215 s \$0-p4-r;
#X obj 249 77 route p1 p2 p3 p4 bpm save restore on random subdiv p
;
#X text 4 43;
#X text 4 58;
#X obj 29 178 sp-timebase 60 4;
#X connect 0 0 28 0;
#X connect 2 0 39 1;
#X connect 3 0 39 0;
#X connect 4 0 13 1;
#X connect 10 0 13 2;
#X connect 11 0 13 3;
#X connect 12 0 13 4;
#X connect 13 0 5 0;
#X connect 13 1 7 0;
#X connect 13 2 8 0;
#X connect 13 3 9 0;
#X connect 19 0 20 0;
#X connect 20 0 36 0;
#X connect 27 0 39 2;
#X connect 28 0 36 0;
#X connect 28 1 6 0;
#X connect 31 0 32 0;
#X connect 31 1 33 0;
#X connect 31 2 34 0;
#X connect 31 3 35 0;
#X connect 36 0 14 0;
#X connect 36 1 15 0;
#X connect 36 2 16 0;
#X connect 36 3 17 0;
#X connect 36 4 18 0;
#X connect 36 5 24 0;
#X connect 36 6 24 1;
#X connect 36 7 25 0;
#X connect 36 8 23 0;
#X connect 36 9 30 0;
#X connect 36 10 31 0;
#X connect 36 11 26 0;
#X connect 39 0 13 0;
#X coords 0 -1 1 1 200 93 2 20 20;
