#N canvas 308 357 450 300 10;
#X obj 135 123 sp-gxcross~;
#X obj 228 63 tgl 15 0 empty empty empty 17 7 0 10 -262144 -1 -1 0
1;
#X obj 135 64 osc~ 400;
#X obj 181 93 osc~ 600;
#X obj 135 167 sigmund~;
#X obj 228 167 sigmund~;
#X obj 135 198 mtof;
#X floatatom 135 226 5 0 0 0 - - -;
#X obj 228 199 mtof;
#X floatatom 228 226 5 0 0 0 - - -;
#X connect 0 0 4 0;
#X connect 0 1 5 0;
#X connect 1 0 0 2;
#X connect 2 0 0 0;
#X connect 3 0 0 1;
#X connect 4 0 6 0;
#X connect 5 0 8 0;
#X connect 6 0 7 0;
#X connect 8 0 9 0;
