#N canvas 437 200 678 468 10;
#X obj 11 11 cnv 10 98 58 empty empty empty 20 12 0 14 -228856 -66577
0;
#X obj 19 34 hradio 10 1 0 8 \$0-radio-s \$0-radio-r empty 0 -8 0 10
-262144 -1 -1 0;
#X obj 19 17 bng 12 250 50 0 \$0-load-s \$0-load-r load 17 7 0 10 -204800
-1 -1;
#X obj 19 50 bng 12 250 50 0 \$0-save-s \$0-save-r save 17 7 0 10 -261682
-1 -1;
#X obj 101 132 r \$0-load-s;
#X obj 283 133 r \$0-save-s;
#X obj 101 176 f;
#X obj 283 177 f;
#X obj 191 131 r \$0-radio-s;
#X obj 185 265 s sp-param;
#X msg 283 208 save \$1;
#X msg 101 211 restore \$1;
#X connect 4 0 6 0;
#X connect 5 0 7 0;
#X connect 6 0 11 0;
#X connect 7 0 10 0;
#X connect 8 0 6 1;
#X connect 8 0 7 1;
#X connect 10 0 9 0;
#X connect 11 0 9 0;
#X coords 0 -1 1 1 100 60 2 10 10;
