#N canvas 24 88 1122 566 10;
#X obj 321 23 inlet~;
#X obj 321 422 outlet~;
#X obj 321 234 decimate~ 0.5 16;
#X obj 11 26 cnv 15 198 75 empty empty empty 20 12 0 14 -220545 -66577
0;
#X obj 460 20 inlet;
#X obj 460 48 route gdecimate;
#X obj 547 372 outlet;
#X obj 496 110 clip 0 1;
#X obj 533 181 clip 1 32;
#X obj 64 65 hsl 95 12 1 32 0 0 \$0-bits-s \$0-bits-r bits: -48 6 0
10 -262144 -1 -1 7200 1;
#X obj 171 65 nbx 2 12 -1e+37 1e+37 0 0 \$0-bits-nbx-s \$0-bits-nbx-r
empty 0 -8 0 10 -262144 -1 -1 29.2532 256;
#X obj 533 214 s \$0-bits-r;
#X obj 414 208 r \$0-bits-s;
#X obj 717 79 s \$0-bits-r;
#X obj 717 51 change;
#X obj 766 51 s \$0-bits-nbx-r;
#X obj 717 20 r \$0-bits-s;
#X obj 874 18 r \$0-bits-nbx-s;
#X obj 874 51 change;
#X obj 874 128 s \$0-bits-nbx-r;
#X obj 909 102 s \$0-bits-r;
#X obj 64 47 hsl 95 12 0 1 0 0 \$0-ratio-s \$0-ratio-r ratio: -48 6
0 10 -262144 -1 -1 800 1;
#X obj 170 47 nbx 3 12 -1e+37 1e+37 0 0 \$0-ratio-nbx-s \$0-ratio-nbx-r
empty 0 -8 0 10 -262144 -1 -1 0.101266 256;
#X obj 192 29 tgl 12 0 \$0-skip-s \$0-skip-r pass -26 5 0 10 -262130
-1 -1 1 1;
#X obj 496 140 s \$0-ratio-r;
#X obj 367 187 r \$0-ratio-s;
#X obj 64 84 hsl 95 12 0 1 0 0 \$0-mix-s \$0-mix-r mix: -48 6 0 10
-262144 -1 -1 7900 1;
#X obj 171 84 nbx 3 12 -1e+37 1e+37 0 0 \$0-mix-nbx-s \$0-mix-nbx-r
empty 0 -8 0 10 -262144 -1 -1 1 256;
#X obj 716 163 r \$0-mix-s;
#X obj 716 190 change;
#X obj 769 190 s \$0-mix-nbx-r;
#X obj 716 218 s \$0-mix-r;
#X obj 875 160 r \$0-mix-nbx-s;
#X obj 875 190 change;
#X obj 875 221 s \$0-mix-nbx-r;
#X obj 988 219 s \$0-mix-r;
#X obj 988 128 loadbang;
#X msg 988 155 1;
#X obj 396 293 r \$0-mix-s;
#X obj 321 329 sp-crossfade~;
#X obj 321 377 sp-switch2~;
#X obj 460 80 route pass ratio bits mix;
#X obj 570 247 clip 0 1;
#X obj 570 270 s \$0-mix-r;
#X obj 607 107 print [sp-decimate] unknown action;
#X obj 392 20 r sp-\$1;
#X obj 714 260 r \$0-ratio-s;
#X obj 714 288 change;
#X obj 714 317 s \$0-ratio-r;
#X obj 885 290 change;
#X obj 885 260 r \$0-ratio-nbx-s;
#X obj 994 321 s \$0-ratio-r;
#X obj 885 321 s \$0-ratio-nbx-r;
#X obj 767 288 s \$0-ratio-nbx-r;
#X connect 0 0 2 0;
#X connect 0 0 40 1;
#X connect 0 0 39 0;
#X connect 2 0 39 1;
#X connect 4 0 5 0;
#X connect 5 0 41 0;
#X connect 5 1 6 0;
#X connect 7 0 24 0;
#X connect 8 0 11 0;
#X connect 12 0 2 2;
#X connect 14 0 13 0;
#X connect 16 0 14 0;
#X connect 16 0 15 0;
#X connect 17 0 18 0;
#X connect 18 0 19 0;
#X connect 18 0 20 0;
#X connect 23 0 40 2;
#X connect 25 0 2 1;
#X connect 28 0 29 0;
#X connect 28 0 30 0;
#X connect 29 0 31 0;
#X connect 32 0 33 0;
#X connect 33 0 34 0;
#X connect 33 0 35 0;
#X connect 36 0 37 0;
#X connect 37 0 35 0;
#X connect 38 0 39 2;
#X connect 39 0 40 0;
#X connect 40 0 1 0;
#X connect 40 1 1 0;
#X connect 41 0 23 0;
#X connect 41 1 7 0;
#X connect 41 2 8 0;
#X connect 41 3 42 0;
#X connect 41 4 44 0;
#X connect 42 0 43 0;
#X connect 45 0 41 0;
#X connect 46 0 47 0;
#X connect 46 0 53 0;
#X connect 47 0 48 0;
#X connect 49 0 52 0;
#X connect 49 0 51 0;
#X connect 50 0 49 0;
#X coords 0 -1 1 1 200 95 1 10 10;
