#N canvas 212 284 912 361 10;
#X obj 412 24 inlet~;
#X obj 412 104 outlet~;
#X obj 21 37 cnv 15 148 41 empty empty empty 20 12 0 14 -66577 -66577
0;
#X obj 548 21 inlet;
#X obj 663 61 loadbang;
#X obj 663 89 f \$1;
#X obj 663 119 s \$0-nmb-r;
#X obj 118 59 nbx 4 14 -1e+37 1e+37 0 0 \$0-nmb-s \$0-nmb-r threshold:
-90 7 0 10 -261689 -1 -262144 100 256;
#X obj 412 62 sp-gate~ \$1;
#X obj 118 42 nbx 4 14 -1e+37 1e+37 0 0 \$0-level-s \$0-level-r level:
-90 7 0 10 -262144 -1 -262144 0 256;
#X obj 443 147 s \$0-level-r;
#X obj 475 187 sel 1;
#X obj 475 256 s \$0-nmb-r;
#X msg 585 222 color 3;
#X msg 475 223 color 6;
#X obj 608 255 outlet;
#X obj 671 255 outlet;
#X obj 739 62 r sp-\$2;
#X obj 548 45 route gate;
#X connect 0 0 8 0;
#X connect 3 0 18 0;
#X connect 4 0 5 0;
#X connect 5 0 6 0;
#X connect 8 0 1 0;
#X connect 8 1 10 0;
#X connect 8 2 11 0;
#X connect 8 2 15 0;
#X connect 11 0 14 0;
#X connect 11 1 13 0;
#X connect 13 0 12 0;
#X connect 14 0 12 0;
#X connect 17 0 5 0;
#X connect 18 0 8 1;
#X connect 18 0 5 0;
#X connect 18 1 16 0;
#X coords 0 -1 1 1 150 60 1 20 20;
