#N canvas 49 24 963 683 10;
#X obj 40 166 sp-gmix12~;
#X obj 40 109 osc~ 440;
#X obj 441 38 hradio 15 1 0 12 empty empty empty 0 -8 0 10 -262144
-1 -1 0;
#X msg 441 67 mix12 solo \$1;
#X msg 366 105 mix12 mute \$1;
#X obj 366 82 tgl 15 0 empty empty empty 17 7 0 10 -262144 -1 -1 0
1;
#X obj 39 20 sp-gcpu;
#X obj 214 30 hsl 128 15 0 2 0 0 empty empty empty -2 -8 0 10 -262144
-1 -1 0 1;
#X msg 211 63 mix12 volume \$1;
#X msg 826 359 mix12 save;
#X msg 826 329 mix12 restore;
#X obj 455 427 sp-gmix12~ m12;
#X msg 630 117 \; sp-m12 mute 0;
#X connect 1 0 0 0;
#X connect 1 0 0 2;
#X connect 1 0 0 4;
#X connect 1 0 0 6;
#X connect 1 0 0 8;
#X connect 1 0 0 10;
#X connect 1 0 0 11;
#X connect 1 0 0 1;
#X connect 1 0 0 3;
#X connect 1 0 0 5;
#X connect 1 0 0 7;
#X connect 1 0 0 9;
#X connect 2 0 3 0;
#X connect 3 0 0 12;
#X connect 4 0 0 12;
#X connect 5 0 4 0;
#X connect 7 0 8 0;
#X connect 8 0 0 12;
#X connect 9 0 11 12;
#X connect 10 0 11 12;
