#N canvas 80 208 632 317 10;
#X obj 129 51 inlet~;
#X obj 129 168 outlet~;
#X obj 168 23 inlet;
#X obj 129 135 sp-mix~;
#X obj 304 81 route mute volume;
#X obj 21 21 cnv 15 30 148 empty \$0-cnv-r empty 20 12 0 14 -128992
-262144 0;
#X obj 26 43 vsl 10 119 0.001 1 0 0 \$0-vol-s \$0-vol-r empty 0 -9
0 10 -228856 -257985 -262144 11800 1;
#X obj 37 43 vu 8 120 \$0-vu-r empty -1 -8 0 10 -66577 -1 0 0;
#X obj 394 141 sel 0;
#X obj 304 19 loadbang;
#X obj 36 25 tgl 10 0 \$0-mute-s \$0-mute-r M -8 5 0 10 -258699 -1
-262144 1 1;
#X msg 451 46 mute \$1;
#X obj 451 19 r \$0-mute-s;
#X msg 304 137 set \$1;
#X obj 304 168 s \$0-mute-r;
#X msg 304 45 mute 0 \, volume 1;
#X msg 549 109 set \$1;
#X obj 549 138 s \$0-vol-r;
#X msg 152 104 volume \$1;
#X obj 152 80 r \$0-vol-s;
#X obj 225 80 r \$0-mute-s;
#X msg 225 103 mute \$1;
#X obj 394 199 s \$0-mute-r;
#X msg 394 168 color 6;
#X msg 460 168 color 13;
#X obj 202 276 s \$0-vu-r;
#X obj 202 152 env~;
#X obj 247 219 max;
#X obj 293 219 - 0.05;
#X obj 202 189 - 100;
#X obj 202 246 pack f f;
#X obj 304 113 route float bang;
#X connect 0 0 3 0;
#X connect 2 0 4 0;
#X connect 2 0 3 1;
#X connect 3 0 1 0;
#X connect 3 0 26 0;
#X connect 4 0 31 0;
#X connect 4 1 16 0;
#X connect 8 0 23 0;
#X connect 8 1 24 0;
#X connect 9 0 15 0;
#X connect 11 0 4 0;
#X connect 12 0 11 0;
#X connect 13 0 14 0;
#X connect 15 0 4 0;
#X connect 16 0 17 0;
#X connect 18 0 3 1;
#X connect 19 0 18 0;
#X connect 20 0 21 0;
#X connect 21 0 3 1;
#X connect 23 0 22 0;
#X connect 24 0 22 0;
#X connect 26 0 29 0;
#X connect 27 0 28 0;
#X connect 27 0 30 1;
#X connect 28 0 27 1;
#X connect 29 0 27 0;
#X connect 29 0 30 0;
#X connect 30 0 25 0;
#X connect 31 0 13 0;
#X connect 31 0 8 0;
#X connect 31 1 14 0;
#X coords 0 -1 1 1 32 150 2 20 20;
