#N canvas 137 262 739 520 10;
#X obj 99 173 osc~ 440;
#X obj 99 406 env~;
#X floatatom 99 447 5 0 0 0 - - -;
#X obj 99 211 sp-gmix~;
#X obj 164 174 tgl 15 0 empty empty empty 17 7 0 10 -262144 -1 -1 0
1;
#X msg 164 194 mute \$1;
#X msg 224 194 volume \$1;
#X obj 227 165 hsl 128 15 0 3 0 0 empty empty empty -2 -8 0 10 -262144
-1 -1 0 1;
#X obj 37 423 dbtorms;
#X floatatom 37 447 5 0 0 0 - - -;
#X obj 127 43 hsl 128 15 0 127 0 0 empty empty empty -2 -8 0 10 -262144
-1 -1 0 1;
#X floatatom 80 65 5 0 0 0 - - -;
#X msg 97 123 label 2 d;
#X msg 124 65 color \$1 3;
#X msg 141 93 save;
#X msg 182 93 restore;
#X msg 486 167 save;
#X msg 532 166 restore;
#X text 484 210 [sp-gmix~ mix1];
#X msg 225 122 midilearn 7;
#X msg 255 92 midilearn 17;
#X msg 350 121 vol+ 0.1;
#X msg 424 122 vol- 0.1;
#X msg 364 76 fade 0 1000;
#X obj 436 213 sp-gmix~ mix1;
#X msg 449 75 fade 1 2000;
#X connect 0 0 3 0;
#X connect 1 0 2 0;
#X connect 1 0 8 0;
#X connect 3 0 1 0;
#X connect 4 0 5 0;
#X connect 5 0 3 1;
#X connect 6 0 3 1;
#X connect 7 0 6 0;
#X connect 8 0 9 0;
#X connect 10 0 13 0;
#X connect 10 0 11 0;
#X connect 12 0 3 1;
#X connect 13 0 3 1;
#X connect 14 0 3 1;
#X connect 15 0 3 1;
#X connect 16 0 24 1;
#X connect 17 0 24 1;
#X connect 19 0 3 1;
#X connect 20 0 3 1;
#X connect 21 0 3 1;
#X connect 22 0 3 1;
#X connect 23 0 3 1;
#X connect 25 0 3 1;
