#N canvas 64 91 1063 600 10;
#X obj 19 384 inlet~;
#X obj 42 357 inlet~;
#X obj 19 442 outlet~;
#X obj 42 472 outlet~;
#X obj 151 23 cnv 10 328 14 \$0-cnv-s \$0-cnv-r empty 20 12 0 14 -128992
-66577 0;
#X obj 150 24 tgl 12 0 \$0-ch1-s \$0-ch1-r empty 17 7 0 10 -225271
-1 -262144 0 1;
#X obj 170 24 tgl 12 0 \$0-ch2-s \$0-ch2-r empty 17 7 0 10 -225271
-1 -262144 0 1;
#X obj 429 62 inlet;
#X obj 469 26 bng 8 250 50 0 \$0-tgl-s \$0-tgl-r empty 17 7 0 10 -203904
-1 -1;
#X obj 30 146 r \$0-ch1-s;
#X obj 53 190 r \$0-ch2-s;
#X obj 555 411 s \$0-ch2-r;
#X msg 429 87 \$1;
#X obj 30 170 t f;
#X obj 53 214 t f;
#X obj 65 384 inlet~;
#X obj 88 357 inlet~;
#X obj 66 442 outlet~;
#X obj 90 472 outlet~;
#X obj 189 24 tgl 12 0 \$0-ch3-s \$0-ch3-r empty 17 7 0 10 -225271
-1 -262144 0 1;
#X obj 209 24 tgl 12 0 \$0-ch4-s \$0-ch4-r empty 17 7 0 10 -225271
-1 -262144 0 1;
#X obj 99 282 r \$0-ch4-s;
#X obj 76 234 r \$0-ch3-s;
#X obj 76 262 t f;
#X obj 99 308 t f;
#X obj 111 384 inlet~;
#X obj 134 357 inlet~;
#X obj 157 384 inlet~;
#X obj 114 442 outlet~;
#X obj 138 472 outlet~;
#X obj 161 442 outlet~;
#X obj 185 472 outlet~;
#X obj 180 357 inlet~;
#X obj 230 24 tgl 12 0 \$0-ch5-s \$0-ch5-r empty 17 7 0 10 -225271
-1 -262144 0 1;
#X obj 250 24 tgl 12 0 \$0-ch6-s \$0-ch6-r empty 17 7 0 10 -225271
-1 -262144 0 1;
#X obj 270 24 tgl 12 0 \$0-ch7-s \$0-ch7-r empty 17 7 0 10 -225271
-1 -262144 0 1;
#X obj 290 24 tgl 12 0 \$0-ch8-s \$0-ch8-r empty 17 7 0 10 -225271
-1 -262144 0 1;
#X obj 541 435 s \$0-ch1-r;
#X obj 570 384 s \$0-ch3-r;
#X obj 584 361 s \$0-ch4-r;
#X obj 643 400 s \$0-ch8-r;
#X obj 628 425 s \$0-ch7-r;
#X obj 614 451 s \$0-ch6-r;
#X obj 599 475 s \$0-ch5-r;
#X obj 541 210 unpack f f;
#X obj 541 234 sel 0;
#X msg 541 285 color 6;
#X msg 568 259 color 13;
#X obj 858 79 until;
#X obj 858 109 f 1;
#X obj 894 109 + 1;
#X msg 906 79 1;
#X obj 930 108 f \$0;
#X obj 937 79 loadbang;
#X obj 961 166 sel 1;
#X obj 858 139 pack f f;
#X msg 858 166 \; \$2-ch\$1-r bang;
#X obj 541 151 r \$0-ch1-s;
#X msg 541 169 \$1 0;
#X obj 541 109 r \$0-ch2-s;
#X msg 541 127 \$1 1;
#X obj 541 66 r \$0-ch3-s;
#X msg 541 84 \$1 2;
#X obj 858 22 r \$0-tgl-s;
#X obj 541 22 r \$0-ch4-s;
#X msg 541 40 \$1 3;
#X obj 611 22 r \$0-ch5-s;
#X msg 611 40 \$1 4;
#X obj 611 66 r \$0-ch6-s;
#X msg 611 84 \$1 5;
#X obj 611 109 r \$0-ch7-s;
#X msg 611 127 \$1 6;
#X msg 611 169 \$1 7;
#X obj 611 151 r \$0-ch8-s;
#X obj 479 53 loadbang;
#X msg 479 70 0;
#X obj 657 375 s \$0-ch9-r;
#X obj 672 350 s \$0-ch10-r;
#X obj 687 474 s \$0-ch11-r;
#X obj 701 449 s \$0-ch12-r;
#X obj 681 151 r \$0-ch9-s;
#X obj 681 109 r \$0-ch10-s;
#X obj 681 66 r \$0-ch11-s;
#X obj 681 22 r \$0-ch12-s;
#X msg 681 40 \$1 11;
#X msg 681 84 \$1 10;
#X msg 681 127 \$1 9;
#X msg 681 169 \$1 8;
#X obj 203 384 inlet~;
#X obj 226 357 inlet~;
#X obj 249 384 inlet~;
#X obj 272 357 inlet~;
#X obj 209 442 outlet~;
#X obj 233 472 outlet~;
#X obj 257 442 outlet~;
#X obj 280 472 outlet~;
#X obj 311 24 tgl 12 0 \$0-ch9-s \$0-ch9-r empty 17 7 0 10 -225271
-1 -262144 0 1;
#X obj 331 24 tgl 12 0 \$0-ch10-s \$0-ch10-r empty 17 7 0 10 -225271
-1 -262144 0 1;
#X obj 351 24 tgl 12 0 \$0-ch11-s \$0-ch11-r empty 17 7 0 10 -225271
-1 -262144 0 1;
#X obj 371 24 tgl 12 0 \$0-ch12-s \$0-ch12-r empty 17 7 0 10 -225271
-1 -262144 0 1;
#X obj 19 413 sp-hub16~ ..................................................
;
#X obj 304 442 outlet~;
#X obj 328 472 outlet~;
#X obj 352 442 outlet~;
#X obj 376 472 outlet~;
#X obj 295 384 inlet~;
#X obj 318 357 inlet~;
#X obj 341 384 inlet~;
#X obj 364 357 inlet~;
#X obj 122 170 t f;
#X obj 145 214 t f;
#X obj 168 262 t f;
#X obj 191 308 t f;
#X obj 214 170 t f;
#X obj 237 214 t f;
#X obj 260 262 t f;
#X obj 283 308 t f;
#X obj 306 170 t f;
#X obj 329 214 t f;
#X obj 352 262 t f;
#X obj 376 308 t f;
#X obj 122 146 r \$0-ch5-s;
#X obj 145 190 r \$0-ch6-s;
#X obj 168 234 r \$0-ch7-s;
#X obj 191 282 r \$0-ch8-s;
#X obj 214 146 r \$0-ch9-s;
#X obj 237 190 r \$0-ch10-s;
#X obj 260 234 r \$0-ch11-s;
#X obj 283 282 r \$0-ch12-s;
#X obj 306 146 r \$0-ch13-s;
#X obj 329 190 r \$0-ch14-s;
#X obj 352 234 r \$0-ch15-s;
#X obj 376 282 r \$0-ch16-s;
#X obj 391 24 tgl 12 0 \$0-ch13-s \$0-ch13-r empty 17 7 0 10 -225271
-1 -262144 0 1;
#X obj 411 24 tgl 12 0 \$0-ch14-s \$0-ch14-r empty 17 7 0 10 -225271
-1 -262144 0 1;
#X obj 431 24 tgl 12 0 \$0-ch15-s \$0-ch15-r empty 17 7 0 10 -225271
-1 -262144 0 1;
#X obj 451 24 tgl 12 0 \$0-ch16-s \$0-ch16-r empty 17 7 0 10 -225271
-1 -262144 0 1;
#X msg 858 51 16;
#X obj 961 141 == 16;
#X obj 541 312 demux . . . . . . . . . . . . . . . .;
#X obj 716 424 s \$0-ch13-r;
#X obj 730 399 s \$0-ch14-r;
#X obj 745 374 s \$0-ch15-r;
#X obj 760 349 s \$0-ch16-r;
#X obj 761 22 r \$0-ch13-s;
#X msg 761 40 \$1 12;
#X obj 761 66 r \$0-ch14-s;
#X msg 761 84 \$1 13;
#X obj 761 109 r \$0-ch15-s;
#X msg 761 127 \$1 14;
#X obj 761 151 r \$0-ch16-s;
#X msg 761 169 \$1 15;
#X connect 0 0 100 0;
#X connect 1 0 100 2;
#X connect 7 0 12 0;
#X connect 9 0 13 0;
#X connect 10 0 14 0;
#X connect 12 0 36 0;
#X connect 12 0 35 0;
#X connect 12 0 34 0;
#X connect 12 0 33 0;
#X connect 12 0 20 0;
#X connect 12 0 19 0;
#X connect 12 0 6 0;
#X connect 12 0 5 0;
#X connect 12 0 96 0;
#X connect 12 0 97 0;
#X connect 12 0 98 0;
#X connect 12 0 99 0;
#X connect 12 0 133 0;
#X connect 12 0 134 0;
#X connect 12 0 135 0;
#X connect 12 0 136 0;
#X connect 13 0 100 1;
#X connect 14 0 100 3;
#X connect 15 0 100 4;
#X connect 16 0 100 6;
#X connect 21 0 24 0;
#X connect 22 0 23 0;
#X connect 23 0 100 5;
#X connect 24 0 100 7;
#X connect 25 0 100 8;
#X connect 26 0 100 10;
#X connect 27 0 100 12;
#X connect 32 0 100 14;
#X connect 44 0 45 0;
#X connect 44 1 139 1;
#X connect 45 0 46 0;
#X connect 45 1 47 0;
#X connect 46 0 139 0;
#X connect 47 0 139 0;
#X connect 48 0 49 0;
#X connect 49 0 50 0;
#X connect 49 0 55 0;
#X connect 49 0 138 0;
#X connect 50 0 49 1;
#X connect 51 0 49 1;
#X connect 52 0 55 1;
#X connect 53 0 52 0;
#X connect 54 0 51 0;
#X connect 55 0 56 0;
#X connect 57 0 58 0;
#X connect 58 0 44 0;
#X connect 59 0 60 0;
#X connect 60 0 44 0;
#X connect 61 0 62 0;
#X connect 62 0 44 0;
#X connect 63 0 137 0;
#X connect 64 0 65 0;
#X connect 65 0 44 0;
#X connect 66 0 67 0;
#X connect 67 0 44 0;
#X connect 68 0 69 0;
#X connect 69 0 44 0;
#X connect 70 0 71 0;
#X connect 71 0 44 0;
#X connect 72 0 44 0;
#X connect 73 0 72 0;
#X connect 74 0 75 0;
#X connect 75 0 12 0;
#X connect 80 0 87 0;
#X connect 81 0 86 0;
#X connect 82 0 85 0;
#X connect 83 0 84 0;
#X connect 84 0 44 0;
#X connect 85 0 44 0;
#X connect 86 0 44 0;
#X connect 87 0 44 0;
#X connect 88 0 100 16;
#X connect 89 0 100 18;
#X connect 90 0 100 20;
#X connect 91 0 100 22;
#X connect 100 0 2 0;
#X connect 100 1 3 0;
#X connect 100 2 17 0;
#X connect 100 3 18 0;
#X connect 100 4 28 0;
#X connect 100 5 29 0;
#X connect 100 6 30 0;
#X connect 100 7 31 0;
#X connect 100 8 92 0;
#X connect 100 9 93 0;
#X connect 100 10 94 0;
#X connect 100 11 95 0;
#X connect 100 12 101 0;
#X connect 100 13 102 0;
#X connect 100 14 103 0;
#X connect 100 15 104 0;
#X connect 105 0 100 24;
#X connect 106 0 100 26;
#X connect 107 0 100 28;
#X connect 108 0 100 30;
#X connect 109 0 100 9;
#X connect 110 0 100 11;
#X connect 111 0 100 13;
#X connect 112 0 100 15;
#X connect 113 0 100 17;
#X connect 114 0 100 19;
#X connect 115 0 100 21;
#X connect 116 0 100 23;
#X connect 117 0 100 25;
#X connect 118 0 100 27;
#X connect 119 0 100 29;
#X connect 120 0 100 31;
#X connect 121 0 109 0;
#X connect 122 0 110 0;
#X connect 123 0 111 0;
#X connect 124 0 112 0;
#X connect 125 0 113 0;
#X connect 126 0 114 0;
#X connect 127 0 115 0;
#X connect 128 0 116 0;
#X connect 129 0 117 0;
#X connect 130 0 118 0;
#X connect 131 0 119 0;
#X connect 132 0 120 0;
#X connect 137 0 48 0;
#X connect 138 0 54 0;
#X connect 139 0 37 0;
#X connect 139 1 11 0;
#X connect 139 2 38 0;
#X connect 139 3 39 0;
#X connect 139 4 43 0;
#X connect 139 5 42 0;
#X connect 139 6 41 0;
#X connect 139 7 40 0;
#X connect 139 8 76 0;
#X connect 139 9 77 0;
#X connect 139 10 78 0;
#X connect 139 11 79 0;
#X connect 139 12 140 0;
#X connect 139 13 141 0;
#X connect 139 14 142 0;
#X connect 139 15 143 0;
#X connect 144 0 145 0;
#X connect 145 0 44 0;
#X connect 146 0 147 0;
#X connect 147 0 44 0;
#X connect 148 0 149 0;
#X connect 149 0 44 0;
#X connect 150 0 151 0;
#X connect 151 0 44 0;
#X coords 0 -1 1 1 330 19 2 150 20;
