#N canvas 105 56 827 625 10;
#X obj 591 32 loadbang;
#X msg 591 53 1;
#X obj 591 75 switch~ 64 1 1;
#X obj 293 28 inlet~;
#X obj 244 533 outlet~;
#X obj 293 174 hip~ 15.9;
#X obj 293 197 hip~ 15.6;
#X obj 293 280 +~;
#X obj 308 222 *~ 1.667;
#X obj 293 387 hip~ 3;
#X obj 293 411 hip~ 3;
#X obj 11 27 cnv 15 198 140 empty empty empty 20 12 0 14 -84418 -66577
0;
#X obj 244 506 sp-pass~;
#X obj 189 34 tgl 12 0 \$0-pass-s \$0-pass-r pass -30 6 0 10 -262130
-1 -262144 0 1;
#X obj 289 473 r \$0-pass-s;
#X obj 396 29 inlet;
#X obj 396 58 route fuzz;
#X obj 453 512 outlet;
#X obj 396 130 sp-param-file;
#X obj 459 30 r sp-\$1;
#X obj 578 128 s \$0-pass-r;
#N canvas 200 92 683 338 param 0;
#X obj 42 62 tof/param /fuzz/\$1/pass 0;
#X obj 189 13 r \$0-pass-s;
#X obj 189 37 change;
#X obj 42 93 s \$0-pass-r;
#X obj 207 117 change;
#X obj 207 93 r \$0-drive-s;
#X obj 42 142 tof/param /fuzz/\$1/drive 0.5;
#X obj 42 173 s \$0-drive-r;
#X obj 201 227 change;
#X obj 201 203 r \$0-tone-s;
#X obj 42 252 tof/param /fuzz/\$1/tone 0.5;
#X obj 42 283 s \$0-tone-r;
#X obj 489 37 change;
#X obj 489 14 r \$0-dry-wet-s;
#X obj 312 62 tof/param /fuzz/\$1/dry-wet 100;
#X obj 312 93 s \$0-dry-wet-r;
#X obj 489 167 change;
#X obj 489 144 r \$0-level-s;
#X obj 312 192 tof/param /fuzz/\$1/level 100;
#X obj 312 223 s \$0-level-r;
#X connect 0 0 3 0;
#X connect 1 0 2 0;
#X connect 2 0 0 1;
#X connect 4 0 6 1;
#X connect 5 0 4 0;
#X connect 6 0 7 0;
#X connect 8 0 10 1;
#X connect 9 0 8 0;
#X connect 10 0 11 0;
#X connect 12 0 14 1;
#X connect 13 0 12 0;
#X connect 14 0 15 0;
#X connect 16 0 18 1;
#X connect 17 0 16 0;
#X connect 18 0 19 0;
#X restore 60 289 pd param;
#X obj 369 174 r \$0-drive-s;
#X obj 24 53 hsl 120 12 0 1 0 0 \$0-drive-s \$0-drive-r drive -2 -8
0 10 -262144 -1 -262144 11500 1;
#X obj 157 53 nbx 4 12 0 1 0 0 \$0-drive-ind-s \$0-drive-ind-r empty
0 -8 0 10 -262144 -1 -1 0.966387 256;
#X obj 221 50 change;
#X obj 468 163 s \$0-drive-r;
#X obj 308 249 ts/TS-clipping_opamp~;
#X obj 293 310 ts/TS-tone_stage~;
#X obj 24 82 hsl 120 12 0 1 0 0 \$0-tone-s \$0-tone-r tone -2 -8 0
10 -262144 -1 -262144 8600 1;
#X obj 157 82 nbx 4 12 0 1 0 0 \$0-tone-ind-s \$0-tone-ind-r empty
0 -8 0 10 -262144 -1 -1 0.722689 256;
#X obj 221 79 change;
#X obj 392 282 r \$0-tone-s;
#X obj 431 210 init 1;
#X obj 25 142 hsl 120 12 0 100 0 0 \$0-dry-wet-s \$0-dry-wet-r dry/wet
-2 -8 0 10 -262144 -1 -262144 11900 1;
#X obj 157 141 nbx 3 12 0 100 0 0 \$0-dry-wet-ind-s \$0-dry-wet-ind-r
empty 0 -8 0 10 -262144 -1 -1 100 256;
#X obj 222 139 change;
#X obj 25 112 hsl 120 12 0.01 1 1 0 \$0-level-s \$0-level-r level -2
-8 0 10 -262144 -1 -262144 11900 1;
#X obj 157 111 nbx 4 12 0 1 0 0 \$0-level-ind-s \$0-level-ind-r empty
0 -8 0 10 -262144 -1 -1 1 256;
#X obj 222 109 change;
#X obj 505 289 r \$0-level-s;
#X obj 505 139 s \$0-tone-r;
#X obj 541 197 s \$0-level-r;
#X obj 244 437 sp-dry-wet~;
#X obj 348 408 r \$0-dry-wet-s;
#X obj 481 210 r \$0-on-s;
#X obj 396 99 route save restore drive tone level pass;
#X obj 505 348 line~;
#X obj 293 365 *~;
#X msg 505 319 \$1 10;
#X connect 0 0 1 0;
#X connect 1 0 2 0;
#X connect 3 0 5 0;
#X connect 3 0 12 1;
#X connect 3 0 43 0;
#X connect 5 0 6 0;
#X connect 6 0 8 0;
#X connect 6 0 7 0;
#X connect 7 0 28 0;
#X connect 8 0 27 0;
#X connect 9 0 10 0;
#X connect 10 0 43 1;
#X connect 12 0 4 0;
#X connect 14 0 12 2;
#X connect 15 0 16 0;
#X connect 16 0 46 0;
#X connect 16 1 17 0;
#X connect 19 0 46 0;
#X connect 22 0 27 1;
#X connect 23 0 24 0;
#X connect 24 0 25 0;
#X connect 25 0 23 0;
#X connect 27 0 7 1;
#X connect 28 0 48 0;
#X connect 29 0 30 0;
#X connect 30 0 31 0;
#X connect 31 0 29 0;
#X connect 32 0 28 1;
#X connect 33 0 27 2;
#X connect 34 0 35 0;
#X connect 35 0 36 0;
#X connect 36 0 34 0;
#X connect 37 0 38 0;
#X connect 38 0 39 0;
#X connect 39 0 37 0;
#X connect 40 0 49 0;
#X connect 43 0 12 0;
#X connect 44 0 43 2;
#X connect 45 0 27 2;
#X connect 46 0 18 0;
#X connect 46 1 18 1;
#X connect 46 2 26 0;
#X connect 46 3 41 0;
#X connect 46 4 42 0;
#X connect 46 5 20 0;
#X connect 47 0 48 1;
#X connect 48 0 9 0;
#X connect 49 0 47 0;
#X coords 0 -1 1 1 200 160 1 10 10;
