#N canvas 92 199 877 297 10;
#X obj 252 243 outlet;
#X obj 252 55 ctlin 102;
#X obj 11 27 cnv 15 198 40 empty empty empty 20 12 0 14 -191407 -66577
0;
#X obj 19 35 vradio 12 1 0 2 \$0-select-s \$0-select-r empty 0 -8 0
10 -262144 -1 -1 0;
#X text 35 32 MBOX foot switch;
#X obj 252 165 mux . . .;
#X obj 303 138 r \$0-select-s;
#X obj 252 87 == 127;
#X obj 175 34 tgl 25 0 \$0-ind-s \$0-ind-r empty 17 7 0 10 -262144
-1 -1 0 1;
#X obj 311 219 s \$0-ind-r;
#X obj 325 55 r \$0-ind-s;
#X obj 325 79 change;
#X text 36 44 checkbox;
#X obj 542 242 outlet;
#X obj 590 149 print [sp-gfoot-switch] unknown command;
#X obj 443 242 s \$0-select-r;
#X obj 384 243 outlet;
#X obj 384 218 sel 1;
#X obj 443 91 route foot-switch;
#X obj 443 121 route source save restore;
#X obj 443 54 inlet control;
#X obj 492 169 sp-param-file;
#N canvas 484 477 326 180 param 1;
#X obj 212 23 r \$0-select-s;
#X obj 29 101 change;
#X obj 29 130 s \$0-select-r;
#X obj 29 68 tof/param /footswitch/\$1/source;
#X connect 0 0 3 1;
#X connect 1 0 2 0;
#X connect 3 0 1 0;
#X restore 13 124 pd param;
#X connect 1 0 7 0;
#X connect 5 0 0 0;
#X connect 5 0 9 0;
#X connect 5 0 17 0;
#X connect 6 0 5 3;
#X connect 7 0 5 0;
#X connect 10 0 11 0;
#X connect 11 0 5 1;
#X connect 17 0 16 0;
#X connect 18 0 19 0;
#X connect 18 1 13 0;
#X connect 19 0 15 0;
#X connect 19 1 21 0;
#X connect 19 2 21 1;
#X connect 19 3 14 0;
#X connect 20 0 18 0;
#X coords 0 -1 1 1 200 60 1 10 10;
