#N canvas 218 224 836 370 10;
#X obj 304 15 inlet~;
#X obj 304 71 sigpack/diode~;
#X obj 304 101 hip~ 20;
#X obj 273 304 outlet~;
#X obj 483 15 inlet;
#X obj 11 25 cnv 15 198 42 empty empty empty 20 12 0 14 -9622 -66577
0;
#X obj 68 32 hradio 12 1 0 3 \$0-mode-s \$0-mode-r mode: -35 6 0 10
-262144 -1 -262144 1;
#X obj 483 124 s \$0-mode-r;
#X obj 385 15 r \$0-mode-s;
#X obj 71 49 hsl 90 12 0 100 0 0 \$0-dry-wet-s \$0-dry-wet-r dry/wet:
-55 6 0 10 -262144 -1 -262144 0 1;
#X obj 171 49 nbx 3 12 0 100 0 0 \$0-dry-wet-nbx-s \$0-dry-wet-nbx-r
empty 0 -8 0 10 -262144 -1 -1 0 256;
#X obj 273 204 sp-dry-wet~;
#X obj 336 172 r \$0-dry-wet-s;
#X obj 467 201 r \$0-dry-wet-s;
#X obj 467 232 change;
#X obj 467 272 s \$0-dry-wet-r;
#X obj 507 249 s \$0-dry-wet-nbx-r;
#X obj 638 201 r \$0-dry-wet-nbx-s;
#X obj 638 234 change;
#X obj 638 273 s \$0-dry-wet-nbx-r;
#X obj 705 251 s \$0-dry-wet-r;
#X obj 705 146 loadbang;
#X obj 483 83 route mode pass dry-wet;
#X obj 573 140 s \$0-dry-wet-r;
#X obj 546 328 outlet;
#X obj 618 112 print [sp-gdiode~] unknown command;
#X obj 193 30 tgl 12 0 \$0-pass-s \$0-pass-r pass -30 6 0 10 -262130
-1 -262144 0 1;
#X obj 528 166 s \$0-pass-r;
#X obj 483 49 route diode;
#X obj 273 253 sp-pass~;
#X obj 318 226 r \$0-pass-s;
#X obj 568 15 r sp-\$1;
#X msg 705 171 100;
#X connect 0 0 1 0;
#X connect 0 0 11 0;
#X connect 0 0 29 1;
#X connect 1 0 2 0;
#X connect 2 0 11 1;
#X connect 4 0 28 0;
#X connect 8 0 1 1;
#X connect 11 0 29 0;
#X connect 12 0 11 2;
#X connect 13 0 14 0;
#X connect 14 0 15 0;
#X connect 14 0 16 0;
#X connect 17 0 18 0;
#X connect 18 0 19 0;
#X connect 18 0 20 0;
#X connect 21 0 32 0;
#X connect 22 0 7 0;
#X connect 22 1 27 0;
#X connect 22 2 23 0;
#X connect 22 3 25 0;
#X connect 28 0 22 0;
#X connect 28 1 24 0;
#X connect 29 0 3 0;
#X connect 30 0 29 2;
#X connect 31 0 22 0;
#X connect 32 0 20 0;
#X coords 0 -1 1 1 200 60 1 10 10;
