#N canvas 0 22 689 662 10;
#X obj 479 82 sp-gparam;
#X obj 112 29 adc~ 1;
#X obj 112 522 +dsp;
#X obj 112 73 sp-gring1~;
#X msg 319 34 gring1 freq 0.5;
#X obj 112 233 sp-gfreeverb~;
#X obj 402 340 delwrite~ \$0-b1 1000;
#X obj 396 249 delread~ \$0-b1 500;
#X obj 396 277 *~ 0.7;
#X obj 112 446 sp-glimiter~;
#X connect 1 0 3 0;
#X connect 3 0 5 0;
#X connect 3 0 6 0;
#X connect 4 0 3 1;
#X connect 5 0 9 0;
#X connect 5 1 9 1;
#X connect 7 0 8 0;
#X connect 8 0 3 0;
#X connect 9 0 2 0;
#X connect 9 1 2 1;
