#N canvas 61 156 762 286 10;
#X obj 187 16 inlet~;
#X obj 187 100 demux~ . . . .;
#X obj 187 246 outlet~;
#X obj 237 246 outlet~;
#X obj 287 246 outlet~;
#X obj 337 246 outlet~;
#X obj 11 28 cnv 15 98 25 empty empty empty 20 12 0 14 -66577 -66577
0;
#X obj 350 15 inlet control;
#X obj 350 46 route demux4;
#X obj 452 46 r sp-\$1;
#X obj 350 110 sp-param-file;
#X obj 419 186 outlet control;
#X obj 350 79 route save restore select;
#X obj 448 110 s \$0-select-r;
#X obj 56 35 hradio 12 1 0 4 \$0-select-s \$0-select-r select -40 6
0 10 -262144 -1 -262144 3;
#N canvas 149 294 333 195 save 0;
#X obj 44 103 tof/param /sp/demux/select 0;
#X obj 44 128 s \$0-select-r;
#X obj 209 47 r \$0-select-s;
#X obj 209 74 change;
#X connect 0 0 1 0;
#X connect 2 0 3 0;
#X connect 3 0 0 1;
#X restore 53 155 pd save;
#X obj 215 47 r \$0-select-s;
#X obj 497 153 print [sp-gdemux4~] unknown command;
#X connect 0 0 1 0;
#X connect 1 0 2 0;
#X connect 1 1 3 0;
#X connect 1 2 4 0;
#X connect 1 3 5 0;
#X connect 7 0 8 0;
#X connect 8 0 12 0;
#X connect 8 1 11 0;
#X connect 9 0 12 0;
#X connect 12 0 10 0;
#X connect 12 1 10 1;
#X connect 12 2 13 0;
#X connect 12 3 17 0;
#X connect 16 0 1 0;
#X coords 0 -1 1 1 100 45 1 10 10;
