#N canvas 179 283 422 308 10;
#X obj 159 213 sp-hub2~;
#X obj 159 164 inlet~;
#X obj 220 164 inlet~;
#X obj 159 262 outlet~;
#X obj 220 262 outlet~;
#X obj 151 23 cnv 10 40 14 empty empty empty 20 12 0 14 -128992 -66577
0;
#X obj 150 24 tgl 12 0 \$0-ch1-s \$0-ch1-r empty 17 7 0 10 -225271
-1 -262144 0 1;
#X obj 167 24 tgl 12 0 \$0-ch2-s \$0-ch2-r empty 17 7 0 10 -225271
-1 -262144 0 1;
#X obj 280 50 inlet;
#X obj 183 26 bng 8 250 50 0 \$0-tgl-s \$0-tgl-r empty 17 7 0 10 -203904
-1 -1;
#X obj 174 76 r \$0-ch1-s;
#X obj 204 50 r \$0-ch2-s;
#X obj 280 130 sel 0;
#X obj 280 223 s \$0-ch2-r;
#X msg 280 159 color 6;
#X msg 344 159 color 13;
#X obj 132 50 loadbang;
#X msg 132 76 0;
#X obj 18 130 sel 0;
#X msg 18 159 color 6;
#X msg 82 159 color 13;
#X obj 18 223 s \$0-ch1-r;
#X obj 35 190 r \$0-tgl-s;
#X msg 280 80 \$1;
#X obj 174 113 t f;
#X obj 204 113 t f;
#X obj 328 194 r \$0-tgl-s;
#X connect 0 0 3 0;
#X connect 0 1 4 0;
#X connect 1 0 0 0;
#X connect 2 0 0 2;
#X connect 8 0 23 0;
#X connect 10 0 24 0;
#X connect 11 0 25 0;
#X connect 12 0 14 0;
#X connect 12 1 15 0;
#X connect 14 0 13 0;
#X connect 15 0 13 0;
#X connect 16 0 17 0;
#X connect 17 0 25 0;
#X connect 17 0 24 0;
#X connect 18 0 19 0;
#X connect 18 1 20 0;
#X connect 19 0 21 0;
#X connect 20 0 21 0;
#X connect 22 0 21 0;
#X connect 23 0 24 0;
#X connect 23 0 25 0;
#X connect 23 0 13 0;
#X connect 23 0 21 0;
#X connect 24 0 0 1;
#X connect 24 0 18 0;
#X connect 25 0 0 3;
#X connect 25 0 12 0;
#X connect 26 0 13 0;
#X coords 0 -1 1 1 42 19 2 150 20;
