#N canvas 11 121 884 596 10;
#X obj 101 103 sp-gmix~;
#X obj 101 38 inlet~;
#X obj 101 420 outlet~;
#X obj 135 8 inlet~;
#X obj 135 450 outlet~;
#X obj 169 57 inlet~;
#X obj 169 420 outlet~;
#X obj 203 8 inlet~;
#X obj 203 450 outlet~;
#X obj 237 52 inlet~;
#X obj 237 420 outlet~;
#X obj 271 8 inlet~;
#X obj 271 450 outlet~;
#X obj 305 57 inlet~;
#X obj 305 420 outlet~;
#X obj 339 8 inlet~;
#X obj 339 450 outlet~;
#X obj 434 139 inlet;
#X obj 485 422 outlet;
#X obj 434 187 route 0 1 2 3 4 5 6 7;
#X obj 557 217 route solo;
#X obj 614 245 print [sp-gmix~] unknown command;
#X obj 434 163 route mix;
#X obj 630 23 loadbang;
#X obj 630 52 Uzi 8;
#X obj 657 101 pack f f;
#X obj 657 77 - 1;
#X msg 657 125 \$1 label ch\$2;
#X obj 135 103 sp-gmix~;
#X obj 169 103 sp-gmix~;
#X obj 203 103 sp-gmix~;
#X obj 237 103 sp-gmix~;
#X obj 271 103 sp-gmix~;
#X obj 305 103 sp-gmix~;
#X obj 339 103 sp-gmix~;
#X obj 557 303 Uzi 8;
#X obj 584 390 ==;
#X obj 584 415 sel 1;
#X obj 584 462 f;
#X obj 620 461 f;
#X msg 584 518 \$1 mute 0;
#X msg 620 489 \$1 mute 1;
#X obj 584 333 - 1;
#X msg 584 438 bang;
#X msg 620 438 bang;
#X obj 584 364 t f f f;
#X obj 557 273 t b f;
#X connect 0 0 2 0;
#X connect 1 0 0 0;
#X connect 3 0 28 0;
#X connect 5 0 29 0;
#X connect 7 0 30 0;
#X connect 9 0 31 0;
#X connect 11 0 32 0;
#X connect 13 0 33 0;
#X connect 15 0 34 0;
#X connect 17 0 22 0;
#X connect 19 0 0 1;
#X connect 19 1 28 1;
#X connect 19 2 29 1;
#X connect 19 3 30 1;
#X connect 19 4 31 1;
#X connect 19 5 32 1;
#X connect 19 6 33 1;
#X connect 19 7 34 1;
#X connect 19 8 20 0;
#X connect 20 0 46 0;
#X connect 20 1 21 0;
#X connect 22 0 19 0;
#X connect 22 1 18 0;
#X connect 23 0 24 0;
#X connect 24 2 25 1;
#X connect 24 2 26 0;
#X connect 25 0 27 0;
#X connect 26 0 25 0;
#X connect 27 0 19 0;
#X connect 28 0 4 0;
#X connect 29 0 6 0;
#X connect 30 0 8 0;
#X connect 31 0 10 0;
#X connect 32 0 12 0;
#X connect 33 0 14 0;
#X connect 34 0 16 0;
#X connect 35 2 42 0;
#X connect 36 0 37 0;
#X connect 37 0 43 0;
#X connect 37 1 44 0;
#X connect 38 0 40 0;
#X connect 39 0 41 0;
#X connect 40 0 19 0;
#X connect 41 0 19 0;
#X connect 42 0 45 0;
#X connect 43 0 38 0;
#X connect 44 0 39 0;
#X connect 45 0 36 0;
#X connect 45 1 38 1;
#X connect 45 2 39 1;
#X connect 46 0 35 0;
#X connect 46 1 36 1;
#X coords 0 -1 1 1 272 175 2 100 100;
