#N canvas 0 22 450 300 10;
#X obj 102 64 osc~ 440;
#X obj 102 174 +dsp;
#X obj 102 96 sp-gpan~;
#X msg 201 41 pan save;
#X msg 276 41 pan restore;
#X connect 0 0 2 0;
#X connect 2 0 1 0;
#X connect 2 1 1 1;
#X connect 3 0 2 1;
#X connect 4 0 2 1;
