#N canvas 0 30 1179 616 10;
#X obj 101 68 inlet~;
#X obj 101 410 outlet~;
#X obj 135 28 inlet~;
#X obj 135 440 outlet~;
#X obj 169 68 inlet~;
#X obj 169 410 outlet~;
#X obj 203 28 inlet~;
#X obj 203 440 outlet~;
#X obj 237 68 inlet~;
#X obj 237 410 outlet~;
#X obj 271 28 inlet~;
#X obj 271 440 outlet~;
#X obj 305 68 inlet~;
#X obj 305 410 outlet~;
#X obj 339 28 inlet~;
#X obj 339 440 outlet~;
#X obj 373 68 inlet~;
#X obj 373 410 outlet~;
#X obj 407 28 inlet~;
#X obj 407 440 outlet~;
#X obj 441 68 inlet~;
#X obj 441 410 outlet~;
#X obj 475 28 inlet~;
#X obj 556 74 inlet;
#X obj 475 440 outlet~;
#X obj 642 475 outlet;
#X obj 556 108 route mix mix12;
#X obj 556 136 route 0 1 2 3 4 5 6 7 8 9 10 11;
#X obj 946 275 print [sp-gmix12~] unknown command;
#N canvas 194 241 200 385 solo 0;
#X obj 72 180 ==;
#X obj 72 205 sel 1;
#X obj 72 252 f;
#X obj 108 251 f;
#X msg 72 308 \$1 mute 0;
#X msg 108 279 \$1 mute 1;
#X obj 72 123 - 1;
#X msg 72 228 bang;
#X msg 108 228 bang;
#X obj 72 154 t f f f;
#X obj 39 63 t b f;
#X obj 39 93 Uzi 12;
#X obj 39 25 inlet;
#X obj 72 340 outlet;
#X connect 0 0 1 0;
#X connect 1 0 7 0;
#X connect 1 1 8 0;
#X connect 2 0 4 0;
#X connect 3 0 5 0;
#X connect 4 0 13 0;
#X connect 5 0 13 0;
#X connect 6 0 9 0;
#X connect 7 0 2 0;
#X connect 8 0 3 0;
#X connect 9 0 0 0;
#X connect 9 1 2 1;
#X connect 9 2 3 1;
#X connect 10 0 11 0;
#X connect 10 1 0 1;
#X connect 11 2 6 0;
#X connect 12 0 10 0;
#X restore 679 276 pd solo;
#N canvas 341 226 182 221 init 0;
#X obj 40 33 loadbang;
#X obj 67 111 pack f f;
#X obj 67 87 - 1;
#X msg 67 135 \$1 label ch\$2;
#X obj 40 62 Uzi 12;
#X obj 67 165 outlet;
#X connect 0 0 4 0;
#X connect 1 0 3 0;
#X connect 2 0 1 0;
#X connect 3 0 5 0;
#X connect 4 2 1 1;
#X connect 4 2 2 0;
#X restore 684 66 pd init;
#N canvas 346 181 217 274 mute 0;
#X obj 35 36 inlet;
#X obj 35 67 t b f;
#X obj 35 100 Uzi 12;
#X obj 68 129 - 1;
#X obj 68 159 pack f f;
#X msg 68 188 \$1 mute \$2;
#X obj 68 217 outlet;
#X obj 113 129 f;
#X connect 0 0 1 0;
#X connect 1 0 2 0;
#X connect 1 1 7 0;
#X connect 2 2 3 0;
#X connect 3 0 4 0;
#X connect 4 0 5 0;
#X connect 5 0 6 0;
#X connect 7 0 4 1;
#X restore 723 304 pd mute;
#N canvas 346 181 217 274 volume 0;
#X obj 35 36 inlet;
#X obj 35 67 t b f;
#X obj 35 100 Uzi 12;
#X obj 68 129 - 1;
#X obj 68 159 pack f f;
#X obj 68 217 outlet;
#X obj 113 129 f;
#X msg 68 188 \$1 volume \$2;
#X connect 0 0 1 0;
#X connect 1 0 2 0;
#X connect 1 1 6 0;
#X connect 2 2 3 0;
#X connect 3 0 4 0;
#X connect 4 0 7 0;
#X connect 6 0 4 1;
#X connect 7 0 5 0;
#X restore 768 334 pd volume;
#N canvas 346 181 156 248 save 0;
#X obj 35 36 inlet;
#X obj 35 100 Uzi 12;
#X obj 68 129 - 1;
#X obj 68 187 outlet;
#X msg 68 158 \$1 save;
#X connect 0 0 1 0;
#X connect 1 2 2 0;
#X connect 2 0 4 0;
#X connect 4 0 3 0;
#X restore 812 304 pd save;
#N canvas 346 181 156 248 restore 0;
#X obj 35 36 inlet;
#X obj 35 100 Uzi 12;
#X obj 68 129 - 1;
#X obj 68 187 outlet;
#X msg 68 158 \$1 restore;
#X connect 0 0 1 0;
#X connect 1 2 2 0;
#X connect 2 0 4 0;
#X connect 4 0 3 0;
#X restore 857 334 pd restore;
#X obj 101 103 sp-gmix~ ch1-\$1;
#X obj 135 103 sp-gmix~ ch2-\$1;
#X obj 169 103 sp-gmix~ ch3-\$1;
#X obj 203 103 sp-gmix~ ch4-\$1;
#X obj 237 103 sp-gmix~ ch5-\$1;
#X obj 271 103 sp-gmix~ ch6-\$1;
#X obj 305 103 sp-gmix~ ch7-\$1;
#X obj 339 103 sp-gmix~ ch8-\$1;
#X obj 373 103 sp-gmix~ ch9-\$1;
#X obj 407 103 sp-gmix~ 10-\$1;
#X obj 441 103 sp-gmix~ ch11-\$1;
#X obj 475 103 sp-gmix~ ch12-\$1;
#X obj 619 26 r sp-\$1;
#X obj 679 247 route solo mute volume save restore midilearn;
#N canvas 366 350 220 280 midilearn 0;
#X obj 51 29 inlet;
#X obj 51 58 t b f;
#X obj 51 89 Uzi 12;
#X obj 84 118 - 1;
#X obj 84 169 pack f f;
#X msg 84 200 \$1 midilearn \$2;
#X obj 84 228 outlet;
#X connect 0 0 1 0;
#X connect 1 0 2 0;
#X connect 1 1 4 1;
#X connect 2 2 3 0;
#X connect 3 0 4 0;
#X connect 4 0 5 0;
#X connect 5 0 6 0;
#X restore 901 389 pd midilearn;
#X connect 0 0 35 0;
#X connect 2 0 36 0;
#X connect 4 0 37 0;
#X connect 6 0 38 0;
#X connect 8 0 39 0;
#X connect 10 0 40 0;
#X connect 12 0 41 0;
#X connect 14 0 42 0;
#X connect 16 0 43 0;
#X connect 18 0 44 0;
#X connect 20 0 45 0;
#X connect 22 0 46 0;
#X connect 23 0 26 0;
#X connect 26 0 27 0;
#X connect 26 1 27 0;
#X connect 26 2 25 0;
#X connect 27 0 35 1;
#X connect 27 1 36 1;
#X connect 27 2 37 1;
#X connect 27 3 38 1;
#X connect 27 4 39 1;
#X connect 27 5 40 1;
#X connect 27 6 41 1;
#X connect 27 7 42 1;
#X connect 27 8 43 1;
#X connect 27 9 44 1;
#X connect 27 10 45 1;
#X connect 27 11 46 1;
#X connect 27 12 48 0;
#X connect 29 0 27 0;
#X connect 30 0 27 0;
#X connect 31 0 27 0;
#X connect 32 0 27 0;
#X connect 33 0 27 0;
#X connect 34 0 27 0;
#X connect 35 0 1 0;
#X connect 36 0 3 0;
#X connect 37 0 5 0;
#X connect 38 0 7 0;
#X connect 39 0 9 0;
#X connect 40 0 11 0;
#X connect 41 0 13 0;
#X connect 42 0 15 0;
#X connect 43 0 17 0;
#X connect 44 0 19 0;
#X connect 45 0 21 0;
#X connect 46 0 24 0;
#X connect 47 0 27 0;
#X connect 48 0 29 0;
#X connect 48 1 31 0;
#X connect 48 2 32 0;
#X connect 48 3 33 0;
#X connect 48 4 34 0;
#X connect 48 5 49 0;
#X connect 48 6 28 0;
#X connect 49 0 27 0;
#X coords 0 -1 1 1 408 185 2 100 100;
