#N canvas 399 63 735 506 10;
#X declare -lib bsaylor;
#X obj 11 27 cnv 15 198 120 empty empty empty 20 11 0 14 -66577 -228856
0;
#X obj 319 22 inlet;
#X obj 319 69 route looper;
#X obj 388 99 outlet;
#X obj 121 344 sp-looper~;
#X obj 319 187 sp-param-file;
#X obj 121 389 outlet~;
#X msg 329 327 setarray \$1;
#X obj 420 188 l2s;
#X obj 20 36 cnv 12 180 12 \$0-arrayname-s \$0-arrayname-r 1122-loop-v1
6 6 0 10 -262144 -66577 0;
#X obj 420 248 s \$0-arrayname-r;
#X msg 420 217 label \$1;
#X obj 22 67 hsl 128 12 0.5 2 0 0 \$0-speed-s \$0-speed-r speed -2
-8 0 10 -262144 -1 -262144 4233 1;
#X obj 158 67 nbx 4 12 0.5 2 0 0 \$0-speed-nbx-s \$0-speed-nbx-r empty
0 -8 0 10 -262144 -1 -1 0.999961 256;
#X obj 220 65 change;
#X obj 121 201 r \$0-speed-s;
#X msg 121 232 speed \$1;
#X obj 22 97 hsl 180 12 0 1 0 0 \$0-start-s \$0-start-r start -2 -8
0 10 -262144 -1 -262144 0 1;
#X obj 22 127 hsl 180 12 0 1 0 0 \$0-end-s \$0-end-r end -2 -8 0 10
-262144 -1 -262144 17900 1;
#X obj 211 201 r \$0-start-s;
#X msg 211 232 loopbegin \$1;
#X obj 211 261 r \$0-end-s;
#X msg 211 292 loopend \$1;
#X msg 572 191 start;
#X obj 245 110 loadbang;
#X msg 245 139 1;
#X obj 319 156 route save restore setarray loopstart loopend start
speed;
#X obj 609 221 s \$0-speed-r;
#X obj 512 304 s \$0-end-r;
#X obj 333 99 r sp-\$1;
#X connect 1 0 2 0;
#X connect 2 0 26 0;
#X connect 2 1 3 0;
#X connect 4 0 6 0;
#X connect 7 0 4 0;
#X connect 8 0 11 0;
#X connect 8 0 7 0;
#X connect 11 0 10 0;
#X connect 12 0 13 0;
#X connect 13 0 14 0;
#X connect 14 0 12 0;
#X connect 15 0 16 0;
#X connect 16 0 4 0;
#X connect 19 0 20 0;
#X connect 20 0 4 0;
#X connect 21 0 22 0;
#X connect 22 0 4 0;
#X connect 23 0 4 0;
#X connect 24 0 25 0;
#X connect 25 0 18 0;
#X connect 25 0 12 0;
#X connect 26 0 5 0;
#X connect 26 1 5 1;
#X connect 26 2 8 0;
#X connect 26 4 28 0;
#X connect 26 5 23 0;
#X connect 26 6 27 0;
#X connect 29 0 26 0;
#X coords 0 -1 1 1 200 140 1 10 10;
