#N canvas 51 36 1129 626 10;
#X obj 101 103 sp-gmix~;
#X obj 101 48 inlet~;
#X obj 101 410 outlet~;
#X obj 135 103 sp-gmix~;
#X obj 135 18 inlet~;
#X obj 135 440 outlet~;
#X obj 169 103 sp-gmix~;
#X obj 169 67 inlet~;
#X obj 169 410 outlet~;
#X obj 203 103 sp-gmix~;
#X obj 203 18 inlet~;
#X obj 203 440 outlet~;
#X obj 237 103 sp-gmix~;
#X obj 237 62 inlet~;
#X obj 237 410 outlet~;
#X obj 271 103 sp-gmix~;
#X obj 271 18 inlet~;
#X obj 271 440 outlet~;
#X obj 305 103 sp-gmix~;
#X obj 305 67 inlet~;
#X obj 305 410 outlet~;
#X obj 339 103 sp-gmix~;
#X obj 339 18 inlet~;
#X obj 339 440 outlet~;
#X obj 374 103 sp-gmix~;
#X obj 374 62 inlet~;
#X obj 374 410 outlet~;
#X obj 408 103 sp-gmix~;
#X obj 408 18 inlet~;
#X obj 408 440 outlet~;
#X obj 442 103 sp-gmix~;
#X obj 442 67 inlet~;
#X obj 442 410 outlet~;
#X obj 476 103 sp-gmix~;
#X obj 476 18 inlet~;
#X obj 616 74 inlet;
#X obj 476 440 outlet~;
#X obj 702 475 outlet;
#X obj 616 108 route mix mix12;
#X obj 820 13 loadbang;
#X obj 847 91 pack f f;
#X obj 847 67 - 1;
#X msg 847 115 \$1 label ch\$2;
#X obj 820 42 Uzi 12;
#X obj 616 136 route 0 1 2 3 4 5 6 7 8 9 10 11;
#X obj 799 227 route solo;
#X obj 832 400 ==;
#X obj 832 425 sel 1;
#X obj 832 472 f;
#X obj 868 471 f;
#X msg 832 528 \$1 mute 0;
#X msg 868 499 \$1 mute 1;
#X obj 832 343 - 1;
#X msg 832 448 bang;
#X msg 868 448 bang;
#X obj 832 374 t f f f;
#X obj 799 283 t b f;
#X obj 856 255 print [sp-gmix12~] unknown command;
#X obj 799 313 Uzi 12;
#X connect 0 0 2 0;
#X connect 1 0 0 0;
#X connect 3 0 5 0;
#X connect 4 0 3 0;
#X connect 6 0 8 0;
#X connect 7 0 6 0;
#X connect 9 0 11 0;
#X connect 10 0 9 0;
#X connect 12 0 14 0;
#X connect 13 0 12 0;
#X connect 15 0 17 0;
#X connect 16 0 15 0;
#X connect 18 0 20 0;
#X connect 19 0 18 0;
#X connect 21 0 23 0;
#X connect 22 0 21 0;
#X connect 24 0 26 0;
#X connect 25 0 24 0;
#X connect 27 0 29 0;
#X connect 28 0 27 0;
#X connect 30 0 32 0;
#X connect 31 0 30 0;
#X connect 33 0 36 0;
#X connect 34 0 33 0;
#X connect 35 0 38 0;
#X connect 38 0 44 0;
#X connect 38 1 44 0;
#X connect 38 2 37 0;
#X connect 39 0 43 0;
#X connect 40 0 42 0;
#X connect 41 0 40 0;
#X connect 42 0 44 0;
#X connect 43 2 40 1;
#X connect 43 2 41 0;
#X connect 44 0 0 1;
#X connect 44 1 3 1;
#X connect 44 2 6 1;
#X connect 44 3 9 1;
#X connect 44 4 12 1;
#X connect 44 5 15 1;
#X connect 44 6 18 1;
#X connect 44 7 21 1;
#X connect 44 8 24 1;
#X connect 44 9 27 1;
#X connect 44 10 30 1;
#X connect 44 11 33 1;
#X connect 44 12 45 0;
#X connect 45 0 56 0;
#X connect 45 1 57 0;
#X connect 46 0 47 0;
#X connect 47 0 53 0;
#X connect 47 1 54 0;
#X connect 48 0 50 0;
#X connect 49 0 51 0;
#X connect 50 0 44 0;
#X connect 51 0 44 0;
#X connect 52 0 55 0;
#X connect 53 0 48 0;
#X connect 54 0 49 0;
#X connect 55 0 46 0;
#X connect 55 1 48 1;
#X connect 55 2 49 1;
#X connect 56 0 58 0;
#X connect 56 1 46 1;
#X connect 58 2 52 0;
#X coords 0 -1 1 1 408 175 2 100 100;
