#N canvas 14 96 1074 564 10;
#X declare -lib flatgui;
#X obj 942 28 import flatgui;
#X obj 35 155 inlet~;
#X obj 99 155 inlet~;
#X obj 160 155 inlet~;
#X obj 219 155 inlet~;
#X obj 195 475 outlet~;
#X obj 259 475 outlet~;
#X obj 588 242 sp-param-file;
#N canvas 453 217 448 377 param 0;
#X obj 21 38 tof/param /pan4/\$1/0;
#X obj 138 17 r \$0-pan0-s;
#X obj 21 59 change;
#X obj 21 80 s \$0-pan0-r;
#X obj 21 149 change;
#X obj 21 128 tof/param /pan4/\$1/1;
#X obj 138 107 r \$0-pan1-s;
#X obj 21 229 change;
#X obj 21 208 tof/param /pan4/\$1/2;
#X obj 138 187 r \$0-pan2-s;
#X obj 21 319 change;
#X obj 21 298 tof/param /pan4/\$1/3;
#X obj 138 277 r \$0-pan3-s;
#X obj 21 250 s \$0-pan2-r;
#X obj 21 340 s \$0-pan3-r;
#X obj 21 170 s \$0-pan1-r;
#X obj 241 59 change;
#X obj 241 149 change;
#X obj 241 229 change;
#X obj 241 319 change;
#X obj 358 17 r \$0-pan4-s;
#X obj 241 38 tof/param /pan4/\$1/4;
#X obj 241 80 s \$0-pan4-r;
#X obj 358 107 r \$0-pan5-s;
#X obj 241 128 tof/param /pan4/\$1/5;
#X obj 241 170 s \$0-pan5-r;
#X obj 358 187 r \$0-pan6-s;
#X obj 241 208 tof/param /pan4/\$1/6;
#X obj 241 250 s \$0-pan6-r;
#X obj 358 277 r \$0-pan7-s;
#X obj 241 298 tof/param /pan4/\$1/7;
#X obj 241 340 s \$0-pan7-r;
#X connect 0 0 2 0;
#X connect 1 0 0 1;
#X connect 2 0 3 0;
#X connect 4 0 15 0;
#X connect 5 0 4 0;
#X connect 6 0 5 1;
#X connect 7 0 13 0;
#X connect 8 0 7 0;
#X connect 9 0 8 1;
#X connect 10 0 14 0;
#X connect 11 0 10 0;
#X connect 12 0 11 1;
#X connect 16 0 22 0;
#X connect 17 0 25 0;
#X connect 18 0 28 0;
#X connect 19 0 31 0;
#X connect 20 0 21 1;
#X connect 21 0 16 0;
#X connect 23 0 24 1;
#X connect 24 0 17 0;
#X connect 26 0 27 1;
#X connect 27 0 18 0;
#X connect 29 0 30 1;
#X connect 30 0 19 0;
#X restore 29 117 pd param;
#X obj 35 302 pan~;
#X obj 99 302 pan~;
#X obj 160 302 pan~;
#X obj 219 302 pan~;
#X obj 56 249 r \$0-pan0-s;
#X obj 56 276 * 45;
#X obj 120 226 * 45;
#X obj 181 276 * 45;
#X obj 240 226 * 45;
#X obj 120 199 r \$0-pan1-s;
#X obj 181 249 r \$0-pan2-s;
#X obj 240 199 r \$0-pan3-s;
#N canvas 443 189 450 300 init 0;
#X restore 29 81 pd init;
#X obj 588 199 route save restore pan;
#X obj 674 378 s \$0-pan0-r;
#X obj 690 398 s \$0-pan1-r;
#X obj 706 418 s \$0-pan2-r;
#X obj 722 438 s \$0-pan3-r;
#X obj 275 155 inlet~;
#X obj 339 155 inlet~;
#X obj 400 155 inlet~;
#X obj 459 155 inlet~;
#X obj 275 302 pan~;
#X obj 339 302 pan~;
#X obj 400 302 pan~;
#X obj 459 302 pan~;
#X obj 296 276 * 45;
#X obj 360 226 * 45;
#X obj 421 276 * 45;
#X obj 480 226 * 45;
#X obj 588 24 inlet control;
#X obj 645 519 outlet control_bus;
#X obj 588 59 route pan8;
#X obj 600 161 r sp-\$1;
#X obj 296 249 r \$0-pan4-s;
#X obj 360 199 r \$0-pan5-s;
#X obj 421 249 r \$0-pan6-s;
#X obj 480 199 r \$0-pan7-s;
#X obj 803 314 print [sp-gpan8~] unknown command;
#X obj 738 458 s \$0-pan4-r;
#X obj 754 478 s \$0-pan5-r;
#X obj 770 498 s \$0-pan6-r;
#X obj 786 518 s \$0-pan7-r;
#X obj 674 279 route 0 1 2 3 4 5 6 7;
#X msg 674 242 0 \$1 \, 1 \$1 \, 2 \$1 \, 3 \$1 \, 4 \$1 \, 5 \$1 \,
6 \$1 \, 7 \$1;
#X obj 11 12 cnv 15 270 46 empty empty empty 20 12 0 14 -99865 -66577
0;
#X obj 23 24 knob 24 24 -1 1 0 0 \$0-pan0-s \$0-pan0-r empty 0 -8 0
8 -262144 -260097 -1 1150 1;
#X obj 55 24 knob 24 24 -1 1 0 0 \$0-pan1-s \$0-pan1-r empty 0 -8 0
8 -262144 -260097 -1 1150 1;
#X obj 87 24 knob 24 24 -1 1 0 0 \$0-pan2-s \$0-pan2-r empty 0 -8 0
8 -262144 -260097 -1 1150 1;
#X obj 119 24 knob 24 24 -1 1 0 0 \$0-pan3-s \$0-pan3-r empty 0 -8
0 8 -262144 -260097 -1 1150 1;
#X obj 151 24 knob 24 24 -1 1 0 0 \$0-pan4-s \$0-pan4-r empty 0 -8
0 8 -262144 -260097 -1 1150 1;
#X obj 183 24 knob 24 24 -1 1 0 0 \$0-pan5-s \$0-pan5-r empty 0 -8
0 8 -262144 -260097 -1 1150 1;
#X obj 215 24 knob 24 24 -1 1 0 0 \$0-pan6-s \$0-pan6-r empty 0 -8
0 8 -262144 -260097 -1 1150 1;
#X obj 247 24 knob 24 24 -1 1 0 0 \$0-pan7-s \$0-pan7-r empty 0 -8
0 8 -262144 -260097 -1 1150 1;
#X connect 1 0 9 0;
#X connect 2 0 10 0;
#X connect 3 0 11 0;
#X connect 4 0 12 0;
#X connect 9 0 5 0;
#X connect 9 1 6 0;
#X connect 10 0 5 0;
#X connect 10 1 6 0;
#X connect 11 0 5 0;
#X connect 11 1 6 0;
#X connect 12 0 5 0;
#X connect 12 1 6 0;
#X connect 13 0 14 0;
#X connect 14 0 9 1;
#X connect 15 0 10 1;
#X connect 16 0 11 1;
#X connect 17 0 12 1;
#X connect 18 0 15 0;
#X connect 19 0 16 0;
#X connect 20 0 17 0;
#X connect 22 0 7 0;
#X connect 22 1 7 1;
#X connect 22 2 53 0;
#X connect 22 3 52 0;
#X connect 27 0 31 0;
#X connect 28 0 32 0;
#X connect 29 0 33 0;
#X connect 30 0 34 0;
#X connect 31 0 5 0;
#X connect 31 1 6 0;
#X connect 32 0 5 0;
#X connect 32 1 6 0;
#X connect 33 0 5 0;
#X connect 33 1 6 0;
#X connect 34 0 5 0;
#X connect 34 1 6 0;
#X connect 35 0 31 1;
#X connect 36 0 32 1;
#X connect 37 0 33 1;
#X connect 38 0 34 1;
#X connect 39 0 41 0;
#X connect 41 0 22 0;
#X connect 41 1 40 0;
#X connect 42 0 22 0;
#X connect 43 0 35 0;
#X connect 44 0 36 0;
#X connect 45 0 37 0;
#X connect 46 0 38 0;
#X connect 52 0 23 0;
#X connect 52 1 24 0;
#X connect 52 2 25 0;
#X connect 52 3 26 0;
#X connect 52 4 48 0;
#X connect 52 5 49 0;
#X connect 52 6 50 0;
#X connect 52 7 51 0;
#X connect 52 8 47 0;
#X connect 53 0 52 0;
#X coords 0 -1 1 1 272 50 2 10 10;
