#N canvas 105 114 981 424 10;
#X obj 280 29 inlet~;
#X obj 280 198 outlet~;
#X obj 280 121 freeverb~;
#X obj 343 29 inlet~;
#X obj 345 198 outlet~;
#X obj 409 30 inlet;
#X obj 673 87 outlet;
#X obj 21 37 cnv 15 198 180 empty empty empty 20 12 0 14 -2681 -66577
0;
#X obj 176 61 nbx 3 12 0 100 0 0 \$0-roomsize-s \$0-roomsize-r empty
-60 7 0 10 -262144 -1 -262144 85 256;
#X obj 34 61 hsl 130 12 0 100 0 0 \$0-roomsize-s \$0-roomsize-r roomsize:
-2 -8 0 10 -262144 -1 -262144 10965 1;
#X obj 122 290 r \$0-roomsize-s;
#X obj 175 90 nbx 3 12 0 100 0 0 \$0-damping-s \$0-damping-r empty
-60 7 0 10 -262144 -1 -262144 50 256;
#X obj 33 90 hsl 130 12 0 100 0 0 \$0-damping-s \$0-damping-r damping:
-2 -8 0 10 -262144 -1 -262144 6450 1;
#X obj 293 76 r \$0-param;
#X obj 122 360 s \$0-param;
#X obj 27 361 s \$0-param;
#X obj 27 290 r \$0-damping-s;
#X obj 175 119 nbx 3 12 0 100 0 0 \$0-width-s \$0-width-r empty -60
7 0 10 -262144 -1 -262144 0 256;
#X obj 33 119 hsl 130 12 0 100 0 0 \$0-width-s \$0-width-r stereo_width:
-2 -8 0 10 -262144 -1 -262144 0 1;
#X obj 175 150 nbx 3 12 0 100 0 0 \$0-wet-s \$0-wet-r empty -60 7 0
10 -262144 -1 -262144 33 256;
#X obj 33 150 hsl 130 12 0 100 0 0 \$0-wet-s \$0-wet-r wet: -2 -8 0
10 -262144 -1 -262144 4257 1;
#X obj 175 179 nbx 3 12 0 100 0 0 \$0-dry-s \$0-dry-r empty -60 7 0
10 -262144 -1 -262144 0 256;
#X obj 33 179 hsl 130 12 0 100 0 0 \$0-dry-s \$0-dry-r dry: -2 -8 0
10 -262144 -1 -262144 0 1;
#X obj 174 199 tgl 12 0 \$0-freeze-s \$0-freeze-r freeze: -60 7 0 10
-262144 -1 -262144 0 1;
#X obj 226 371 s \$0-param;
#X obj 226 290 r \$0-width-s;
#X msg 226 343 width \$1;
#X msg 122 336 roomsize \$1;
#X msg 27 337 damping \$1;
#X obj 310 366 s \$0-param;
#X msg 310 341 wet \$1;
#X obj 310 290 r \$0-wet-s;
#X obj 390 366 s \$0-param;
#X obj 390 290 r \$0-dry-s;
#X msg 390 341 dry \$1;
#X obj 464 290 r \$0-freeze-s;
#X msg 464 316 freeze \$1;
#X obj 464 341 s \$0-param;
#X obj 590 220 s \$0-freeze-r;
#X obj 764 249 s \$0-param;
#N canvas 420 382 446 231 init 0;
#X obj 48 192 outlet;
#X obj 48 44 loadbang;
#X msg 48 78 roomsize 85 \, damping 50 \, width 100 \, wet 33 \, dry
0 \, print;
#X connect 1 0 2 0;
#X connect 2 0 0 0;
#X restore 543 32 pd init;
#X msg 559 316 bypass \$1;
#X obj 559 341 s \$0-param;
#X obj 200 43 tgl 12 0 \$0-pass-s \$0-pass-r pass: -35 6 0 10 -262130
-1 -262144 0 1;
#X obj 409 159 s \$0-roomsize-r;
#X obj 122 314 / 100;
#X obj 445 191 s \$0-damping-r;
#X obj 27 314 / 100;
#X obj 226 316 / 100;
#X obj 481 220 s \$0-width-r;
#X obj 409 70 route freeverb;
#X obj 518 159 s \$0-wet-r;
#X obj 310 316 / 100;
#X obj 462 30 r sp-\$1;
#X obj 390 316 / 100;
#X obj 554 191 s \$0-dry-r;
#X obj 627 159 s \$0-pass-r;
#X obj 736 285 print [sp-gfreeverb~] unknown command;
#X obj 559 290 r \$0-pass-s;
#X obj 409 129 route roomsize damping stereo-width wet dry freeze pass
save restore;
#N canvas 409 78 698 414 param 0;
#X obj 231 55 change;
#X obj 30 82 tof/param /freeverb/\$1/roomsize 85;
#X obj 231 30 r \$0-roomsize-s;
#X obj 30 110 s \$0-roomsize-r;
#X obj 225 135 change;
#X obj 225 110 r \$0-damping-s;
#X obj 30 162 tof/param /freeverb/\$1/damping 50;
#X obj 30 190 s \$0-damping-r;
#X obj 249 215 change;
#X obj 249 190 r \$0-width-s;
#X obj 30 270 s \$0-width-r;
#X obj 201 315 change;
#X obj 201 290 r \$0-wet-s;
#X obj 30 242 tof/param /freeverb/\$1/stereo-width 0;
#X obj 30 370 s \$0-wet-r;
#X obj 30 342 tof/param /freeverb/\$1/wet 33;
#X obj 565 55 change;
#X obj 400 82 tof/param /freeverb/\$1/dry 0;
#X obj 565 30 r \$0-dry-s;
#X obj 400 110 s \$0-dry-r;
#X obj 571 165 change;
#X obj 571 140 r \$0-pass-s;
#X obj 400 192 tof/param /freeverb/\$1/pass 0;
#X obj 400 220 s \$0-pass-r;
#X obj 583 245 change;
#X obj 583 220 r \$0-freeze-s;
#X obj 400 272 tof/param /freeverb/\$1/freeze 0;
#X obj 400 300 s \$0-freeze-r;
#X connect 0 0 1 1;
#X connect 1 0 3 0;
#X connect 2 0 0 0;
#X connect 4 0 6 1;
#X connect 5 0 4 0;
#X connect 6 0 7 0;
#X connect 8 0 13 1;
#X connect 9 0 8 0;
#X connect 11 0 15 1;
#X connect 12 0 11 0;
#X connect 13 0 10 0;
#X connect 15 0 14 0;
#X connect 16 0 17 1;
#X connect 17 0 19 0;
#X connect 18 0 16 0;
#X connect 20 0 22 1;
#X connect 21 0 20 0;
#X connect 22 0 23 0;
#X connect 24 0 26 1;
#X connect 25 0 24 0;
#X connect 26 0 27 0;
#X restore 759 34 pd param;
#X obj 232 58 change;
#X obj 232 87 change;
#X obj 232 115 change;
#X obj 233 147 change;
#X obj 232 175 change;
#X obj 663 190 sp-param-file;
#X connect 0 0 2 0;
#X connect 2 0 1 0;
#X connect 2 1 4 0;
#X connect 3 0 2 1;
#X connect 5 0 50 0;
#X connect 8 0 61 0;
#X connect 9 0 8 0;
#X connect 10 0 45 0;
#X connect 11 0 62 0;
#X connect 12 0 11 0;
#X connect 13 0 2 0;
#X connect 16 0 47 0;
#X connect 17 0 63 0;
#X connect 18 0 17 0;
#X connect 19 0 64 0;
#X connect 20 0 19 0;
#X connect 21 0 65 0;
#X connect 22 0 21 0;
#X connect 25 0 48 0;
#X connect 26 0 24 0;
#X connect 27 0 14 0;
#X connect 28 0 15 0;
#X connect 30 0 29 0;
#X connect 31 0 52 0;
#X connect 33 0 54 0;
#X connect 34 0 32 0;
#X connect 35 0 36 0;
#X connect 36 0 37 0;
#X connect 40 0 59 0;
#X connect 41 0 42 0;
#X connect 45 0 27 0;
#X connect 47 0 28 0;
#X connect 48 0 26 0;
#X connect 50 0 59 0;
#X connect 50 1 6 0;
#X connect 52 0 30 0;
#X connect 53 0 59 0;
#X connect 54 0 34 0;
#X connect 58 0 41 0;
#X connect 59 0 44 0;
#X connect 59 1 46 0;
#X connect 59 2 49 0;
#X connect 59 3 51 0;
#X connect 59 4 55 0;
#X connect 59 5 38 0;
#X connect 59 6 56 0;
#X connect 59 7 66 0;
#X connect 59 8 66 1;
#X connect 59 9 57 0;
#X connect 59 9 39 0;
#X connect 61 0 9 0;
#X connect 62 0 12 0;
#X connect 63 0 18 0;
#X connect 64 0 20 0;
#X connect 65 0 22 0;
#X coords 0 -1 1 1 200 200 1 20 20;
