#N canvas 191 224 537 349 10;
#X obj 278 256 sp-gparam;
#X floatatom -24 303 5 0 0 0 - - -;
#X msg 113 289 \; sp-dm1 select 2;
#X obj 153 85 hradio 15 1 0 8 empty empty empty 0 -8 0 10 -262144 -1
-1 1;
#X msg 112 256 set;
#X obj 112 209 list prepend set;
#X obj 112 233 list trim;
#X symbolatom 278 148 10 0 0 0 - - -;
#X obj -50 223 fiddle~;
#X obj -24 253 mtof;
#X obj -27 52 osc~ 500;
#X obj -50 32 osc~ 400;
#X obj -4 72 osc~ 600;
#X obj 19 92 osc~ 700;
#X msg 180 41 mux4 unknown;
#X msg 153 111 mux4 select \$1;
#X msg 280 121 mux4 next;
#X msg 361 121 mux4 prev;
#X obj -50 164 sp-gmux8~ dm1;
#X obj -24 276 int;
#X connect 3 0 15 0;
#X connect 5 0 6 0;
#X connect 6 0 4 0;
#X connect 7 0 18 4;
#X connect 8 2 9 0;
#X connect 9 0 19 0;
#X connect 10 0 18 1;
#X connect 11 0 18 0;
#X connect 12 0 18 2;
#X connect 13 0 18 3;
#X connect 14 0 18 4;
#X connect 15 0 18 4;
#X connect 16 0 18 4;
#X connect 17 0 18 4;
#X connect 18 0 8 0;
#X connect 18 1 5 0;
#X connect 19 0 1 0;
