#N canvas 27 64 1089 475 10;
#X obj 276 20 inlet~;
#X obj 508 19 inlet;
#X obj 276 175 sp-filter-comb~;
#X obj 11 27 cnv 15 198 100 empty empty empty 20 12 0 14 -261682 -66577
0;
#X obj 276 391 outlet~;
#X obj 508 92 route filter-comb;
#X obj 607 346 outlet;
#X obj 508 123 route save restore pass dry-wet delay feedback;
#X obj 508 152 sp-param-file;
#X obj 276 328 sp-pass~;
#X obj 321 291 r \$0-pass-s;
#X obj 192 32 tgl 12 0 \$0-pass-s \$0-pass-r pass -30 6 0 10 -262144
-1 -1 0 1;
#X obj 22 50 hsl 120 12 0 100 0 0 \$0-delay-s \$0-delay-r delay -2
-8 0 10 -262144 -1 -1 5950 1;
#X obj 162 50 nbx 3 12 0 100 0 0 \$0-delayn-s \$0-delayn-r empty 0
-8 0 10 -262144 -1 -1 50 256;
#X obj 217 47 change;
#X obj 319 130 r \$0-delay-s;
#X obj 319 151 / 100;
#X obj 22 80 hsl 120 12 0 100 0 0 \$0-feedback-s \$0-feedback-r feedback
-2 -8 0 10 -262144 -1 -1 9520 1;
#X obj 162 80 nbx 3 12 0 100 0 0 \$0-feedbackn-s \$0-feedbackn-r empty
0 -8 0 10 -262144 -1 -1 80 256;
#X obj 217 77 change;
#X obj 363 101 / 100;
#X obj 363 80 r \$0-feedback-s;
#X obj 22 110 hsl 120 12 0 100 0 0 \$0-dry-wet-s \$0-dry-wet-r dry/wet
-2 -8 0 10 -262144 -1 -1 11900 1;
#X obj 162 110 nbx 3 12 0 100 0 0 \$0-feedbackn-s \$0-feedbackn-r empty
0 -8 0 10 -262144 -1 -1 100 256;
#X obj 217 107 change;
#X obj 245 277 sp-dry-wet~;
#X obj 308 238 r \$0-dry-wet-s;
#X obj 448 19 r sp-\$1;
#X obj 566 19 loadbang;
#X obj 599 165 s \$0-pass-r;
#X msg 566 44 dry-wet 100 \, delay 50 \, feedback 80 \, pass 0;
#X obj 644 195 s \$0-dry-wet-r;
#X obj 690 163 s \$0-delay-r;
#X obj 735 195 s \$0-feedback-r;
#X obj 781 223 print [sp-filter-comb~] unknown command;
#N canvas 164 236 588 380 param 1;
#X obj 32 71 tof/param /filter-comb/\$1/pass 0;
#X obj 221 50 change;
#X obj 221 27 r \$0-pass-s;
#X obj 32 95 s \$0-pass-r;
#X obj 233 130 change;
#X obj 233 107 r \$0-delay-s;
#X obj 32 175 s \$0-delay-r;
#X obj 251 220 change;
#X obj 251 197 r \$0-feedback-s;
#X obj 32 265 s \$0-feedback-r;
#X obj 251 310 change;
#X obj 251 287 r \$0-dry-wet-s;
#X obj 32 331 tof/param /filter-comb/\$1/dry-wet 100;
#X obj 32 151 tof/param /filter-comb/\$1/delay 50;
#X obj 32 241 tof/param /filter-comb/\$1/feedback 50;
#X obj 32 355 s \$0-dry-wet-r;
#X connect 0 0 3 0;
#X connect 1 0 0 1;
#X connect 2 0 1 0;
#X connect 4 0 13 1;
#X connect 5 0 4 0;
#X connect 7 0 14 1;
#X connect 8 0 7 0;
#X connect 10 0 12 1;
#X connect 11 0 10 0;
#X connect 12 0 15 0;
#X connect 13 0 6 0;
#X connect 14 0 9 0;
#X restore 44 226 pd param;
#X connect 0 0 2 0;
#X connect 0 0 9 1;
#X connect 0 0 25 0;
#X connect 1 0 5 0;
#X connect 2 0 25 1;
#X connect 5 0 7 0;
#X connect 5 1 6 0;
#X connect 7 0 8 0;
#X connect 7 1 8 1;
#X connect 7 2 29 0;
#X connect 7 3 31 0;
#X connect 7 4 32 0;
#X connect 7 5 33 0;
#X connect 7 6 34 0;
#X connect 9 0 4 0;
#X connect 10 0 9 2;
#X connect 12 0 13 0;
#X connect 13 0 14 0;
#X connect 14 0 12 0;
#X connect 15 0 16 0;
#X connect 16 0 2 1;
#X connect 17 0 18 0;
#X connect 18 0 19 0;
#X connect 19 0 17 0;
#X connect 20 0 2 2;
#X connect 21 0 20 0;
#X connect 22 0 23 0;
#X connect 23 0 24 0;
#X connect 24 0 22 0;
#X connect 25 0 9 0;
#X connect 26 0 25 2;
#X connect 27 0 5 0;
#X connect 28 0 30 0;
#X connect 30 0 7 0;
#X coords 0 -1 1 1 200 120 1 10 10;
