#N canvas -19 48 539 657 10;
#X declare -lib zexy;
#X obj 114 226 until;
#X obj 114 251 f 0;
#X msg 159 226 0;
#X obj 114 202 t f b;
#X msg 114 178 4;
#X obj 159 252 + 1;
#X obj 114 299 random 4000;
#X obj 114 324 + 20;
#X obj 114 428 list prepend;
#X obj 114 275 t b f;
#X msg 114 384 osc freq \$1;
#X obj 170 458 outlet;
#X obj 224 226 until;
#X obj 224 251 f 0;
#X msg 269 226 0;
#X obj 224 202 t f b;
#X msg 224 178 4;
#X obj 269 252 + 1;
#X obj 224 299 random 4000;
#X obj 224 324 + 20;
#X obj 224 275 t b f;
#X obj 224 448 demux . . . .;
#X obj 365 118 import zexy;
#X obj 224 348 t f f b;
#X obj 263 396 + 20;
#X obj 224 420 list append;
#X obj 224 477 line;
#X obj 254 477 line;
#X obj 284 477 line;
#X obj 314 477 line;
#X msg 224 501 0 osc freq \$1;
#X msg 254 521 1 osc freq \$1;
#X msg 284 541 2 osc freq \$1;
#X msg 314 561 3 osc freq \$1;
#X obj 263 372 random 10000;
#X obj 101 101 cnv 15 98 37 empty empty freqgen4 5 8 0 10 -99865 -262144
0;
#X obj 106 120 bng 15 250 50 0 \$0-once-s \$0-once-r once 17 7 0 10
-262144 -260097 -262144;
#X obj 155 120 bng 15 250 50 0 \$0-line-s \$0-line-r line 17 7 0 10
-262144 -260097 -262144;
#X connect 0 0 1 0;
#X connect 1 0 5 0;
#X connect 1 0 9 0;
#X connect 2 0 1 1;
#X connect 3 0 0 0;
#X connect 3 1 2 0;
#X connect 4 0 3 0;
#X connect 5 0 1 1;
#X connect 6 0 7 0;
#X connect 7 0 10 0;
#X connect 8 0 11 0;
#X connect 9 0 6 0;
#X connect 9 1 8 1;
#X connect 10 0 8 0;
#X connect 12 0 13 0;
#X connect 13 0 17 0;
#X connect 13 0 20 0;
#X connect 14 0 13 1;
#X connect 15 0 12 0;
#X connect 15 1 14 0;
#X connect 16 0 15 0;
#X connect 17 0 13 1;
#X connect 18 0 19 0;
#X connect 19 0 23 0;
#X connect 20 0 18 0;
#X connect 20 1 21 1;
#X connect 21 0 26 0;
#X connect 21 1 27 0;
#X connect 21 2 28 0;
#X connect 21 3 29 0;
#X connect 23 0 25 0;
#X connect 23 2 34 0;
#X connect 24 0 25 1;
#X connect 25 0 21 0;
#X connect 26 0 30 0;
#X connect 27 0 31 0;
#X connect 28 0 32 0;
#X connect 29 0 33 0;
#X connect 30 0 11 0;
#X connect 31 0 11 0;
#X connect 32 0 11 0;
#X connect 33 0 11 0;
#X connect 34 0 24 0;
#X connect 36 0 4 0;
#X connect 37 0 16 0;
#X coords 0 -1 1 1 100 40 2 100 100;
