#N canvas 180 203 1060 503 10;
#X obj 306 44 inlet~;
#X obj 306 301 outlet~;
#X obj 640 43 inlet control;
#X obj 715 410 outlet control;
#X obj 100 117 unauthorized/grid 0-grid 150 0 1 130 0 1 1 0.005 0.005
10 10 95 122;
#X obj 306 229 *~;
#X obj 386 44 inlet~;
#X obj 386 229 *~;
#X obj 321 160 r \$0-v1;
#X obj 401 160 r \$0-v2;
#X obj 466 44 inlet~;
#X obj 466 229 *~;
#X obj 481 160 r \$0-v3;
#X obj 100 259 s \$0-x;
#X obj 243 258 s \$0-y;
#X obj 23 378 swap 1;
#X obj 23 402 -;
#X obj 23 427 *;
#X obj 23 355 r \$0-x;
#X obj 58 401 r \$0-y;
#X obj 23 454 s \$0-v1;
#X obj 113 417 *;
#X obj 113 365 r \$0-x;
#X obj 148 391 r \$0-y;
#X obj 113 454 s \$0-v2;
#X obj 203 378 swap 1;
#X obj 203 402 -;
#X obj 203 427 *;
#X obj 238 401 r \$0-x;
#X obj 203 355 r \$0-y;
#X obj 203 454 s \$0-v3;
#X obj 546 44 inlet~;
#X obj 546 229 *~;
#X obj 561 160 r \$0-v4;
#N canvas 216 295 424 360 param 0;
#X obj 316 129 r \$0-x;
#X obj 71 207 s \$0-x-s;
#X obj 310 223 r \$0-y;
#X obj 71 297 s \$0-y-s;
#X obj 24 23 r sp-param;
#X obj 264 44 inlet;
#X obj 71 174 tof/param /sp/gridmix/\$1/x 0.5 /wfb;
#X obj 71 264 tof/param /sp/gridmix/\$1/y 0.5 /wfb;
#X obj 264 67 bang;
#X obj 264 92 del 50;
#X obj 264 117 t b b;
#X obj 301 157 f;
#X obj 295 247 f;
#X obj 163 44 inlet;
#X obj 163 68 bang;
#X obj 163 117 t b b;
#X obj 24 44 route save restore;
#X connect 0 0 11 1;
#X connect 2 0 12 1;
#X connect 4 0 16 0;
#X connect 5 0 8 0;
#X connect 6 0 1 0;
#X connect 7 0 3 0;
#X connect 8 0 9 0;
#X connect 9 0 10 0;
#X connect 10 0 7 0;
#X connect 10 1 6 0;
#X connect 11 0 6 1;
#X connect 12 0 7 1;
#X connect 13 0 14 0;
#X connect 14 0 15 0;
#X connect 15 0 12 0;
#X connect 15 1 11 0;
#X connect 16 0 14 0;
#X connect 16 1 8 0;
#X restore 627 228 pd param;
#X obj 100 10 r \$0-x-s;
#X obj 170 10 r \$0-y-s;
#X obj 100 55 pack f f;
#X msg 100 78 values \$1 \$2;
#X obj 640 72 route gridmix;
#X obj 640 106 route save restore x y;
#X obj 640 151 sp-param-file;
#X obj 704 178 s \$0-x-s;
#X obj 774 178 s \$0-y-s;
#X obj 293 378 swap 1;
#X obj 293 402 -;
#X obj 293 427 *;
#X obj 293 355 r \$0-x;
#X obj 343 378 swap 1;
#X obj 343 402 -;
#X obj 343 355 r \$0-y;
#X obj 293 454 s \$0-v4;
#X obj 744 43 loadbang;
#X obj 820 42 r sp-\$1;
#X msg 744 71 x 0.5 \, y 0.5 \, restore 0;
#X obj 170 35 t b f;
#X obj 243 11 loadbang;
#X msg 243 79 color 50 50 50;
#N canvas 567 409 161 280 f 1;
#X obj 39 36 inlet;
#X obj 39 70 moses 0.25;
#X obj 39 98 * 4;
#X obj 39 127 pow 2;
#X obj 39 155 / 4;
#X msg 39 189 \$1 100;
#X obj 39 215 line~;
#X obj 39 243 outlet~;
#X connect 0 0 1 0;
#X connect 1 0 2 0;
#X connect 1 1 5 0;
#X connect 2 0 3 0;
#X connect 3 0 4 0;
#X connect 4 0 5 0;
#X connect 5 0 6 0;
#X connect 6 0 7 0;
#X restore 321 193 pd f;
#N canvas 567 409 130 287 f 0;
#X obj 39 36 inlet;
#X obj 39 70 moses 0.25;
#X obj 39 98 * 4;
#X obj 39 127 pow 2;
#X obj 39 155 / 4;
#X msg 39 189 \$1 100;
#X obj 39 215 line~;
#X obj 39 243 outlet~;
#X connect 0 0 1 0;
#X connect 1 0 2 0;
#X connect 1 1 5 0;
#X connect 2 0 3 0;
#X connect 3 0 4 0;
#X connect 4 0 5 0;
#X connect 5 0 6 0;
#X connect 6 0 7 0;
#X restore 401 193 pd f;
#N canvas 567 409 130 287 f 0;
#X obj 39 36 inlet;
#X obj 39 70 moses 0.25;
#X obj 39 98 * 4;
#X obj 39 127 pow 2;
#X obj 39 155 / 4;
#X msg 39 189 \$1 100;
#X obj 39 215 line~;
#X obj 39 243 outlet~;
#X connect 0 0 1 0;
#X connect 1 0 2 0;
#X connect 1 1 5 0;
#X connect 2 0 3 0;
#X connect 3 0 4 0;
#X connect 4 0 5 0;
#X connect 5 0 6 0;
#X connect 6 0 7 0;
#X restore 481 193 pd f;
#N canvas 567 409 130 287 f 0;
#X obj 39 36 inlet;
#X obj 39 70 moses 0.25;
#X obj 39 98 * 4;
#X obj 39 127 pow 2;
#X obj 39 155 / 4;
#X msg 39 189 \$1 100;
#X obj 39 215 line~;
#X obj 39 243 outlet~;
#X connect 0 0 1 0;
#X connect 1 0 2 0;
#X connect 1 1 5 0;
#X connect 2 0 3 0;
#X connect 3 0 4 0;
#X connect 4 0 5 0;
#X connect 5 0 6 0;
#X connect 6 0 7 0;
#X restore 561 193 pd f;
#X connect 0 0 5 0;
#X connect 2 0 39 0;
#X connect 4 0 13 0;
#X connect 4 1 14 0;
#X connect 5 0 1 0;
#X connect 6 0 7 0;
#X connect 7 0 1 0;
#X connect 8 0 58 0;
#X connect 9 0 59 0;
#X connect 10 0 11 0;
#X connect 11 0 1 0;
#X connect 12 0 60 0;
#X connect 15 0 16 0;
#X connect 15 1 16 1;
#X connect 16 0 17 0;
#X connect 17 0 20 0;
#X connect 18 0 15 0;
#X connect 19 0 17 1;
#X connect 21 0 24 0;
#X connect 22 0 21 0;
#X connect 23 0 21 1;
#X connect 25 0 26 0;
#X connect 25 1 26 1;
#X connect 26 0 27 0;
#X connect 27 0 30 0;
#X connect 28 0 27 1;
#X connect 29 0 25 0;
#X connect 31 0 32 0;
#X connect 32 0 1 0;
#X connect 33 0 61 0;
#X connect 35 0 37 0;
#X connect 36 0 55 0;
#X connect 37 0 38 0;
#X connect 38 0 4 0;
#X connect 39 0 40 0;
#X connect 39 1 3 0;
#X connect 40 0 41 0;
#X connect 40 0 34 0;
#X connect 40 1 41 1;
#X connect 40 1 34 1;
#X connect 40 2 42 0;
#X connect 40 3 43 0;
#X connect 44 0 45 0;
#X connect 44 1 45 1;
#X connect 45 0 46 0;
#X connect 46 0 51 0;
#X connect 47 0 44 0;
#X connect 48 0 49 0;
#X connect 48 1 49 1;
#X connect 49 0 46 1;
#X connect 50 0 48 0;
#X connect 52 0 54 0;
#X connect 53 0 40 0;
#X connect 54 0 40 0;
#X connect 55 0 37 0;
#X connect 55 1 37 1;
#X connect 56 0 57 0;
#X connect 57 0 4 0;
#X connect 58 0 5 1;
#X connect 59 0 7 1;
#X connect 60 0 11 1;
#X connect 61 0 32 1;
#X coords 0 -1 1 1 150 150 1 100 100;
