#N canvas 0 22 530 511 10;
#X declare -lib ggee;
#X msg 310 135 moog pass \$1;
#X obj 310 114 tgl 15 0 empty empty empty 17 7 0 10 -262144 -1 -1 0
1;
#X obj 117 377 +dsp;
#X msg 243 91 volume 0.6;
#X obj 117 124 phasor~;
#X obj 121 60 hsl 128 15 0 127 0 0 empty empty empty -2 -8 0 10 -262144
-1 -1 5600 1;
#X obj 118 95 mtof;
#X obj 117 176 sp-gmoog~ mg1;
#X msg 337 86 moog unknown;
#X msg 370 200 \; sp-mg1 pass 1 \; sp-mg1 q 2 \; sp-mg1 freq 0.2 \;
sp-mg1 low 200 \; sp-mg1 high 3000 \;;
#X connect 0 0 7 1;
#X connect 1 0 0 0;
#X connect 3 0 7 1;
#X connect 4 0 7 0;
#X connect 5 0 6 0;
#X connect 6 0 4 0;
#X connect 7 0 2 0;
#X connect 7 0 2 1;
#X connect 7 1 2 2;
#X connect 8 0 7 1;
