#N canvas 86 83 1046 542 10;
#X obj 99 324 inlet~;
#X obj 130 297 inlet~;
#X obj 99 402 outlet~;
#X obj 132 432 outlet~;
#X obj 151 23 cnv 10 166 14 \$0-cnv-s \$0-cnv-r empty 20 12 0 14 -128992
-66577 0;
#X obj 150 24 tgl 12 0 \$0-ch1-s \$0-ch1-r empty 17 7 0 10 -225271
-1 -262144 0 1;
#X obj 170 24 tgl 12 0 \$0-ch2-s \$0-ch2-r empty 17 7 0 10 -225271
-1 -262144 0 1;
#X obj 460 5 inlet;
#X obj 306 26 bng 8 250 50 0 \$0-tgl-s \$0-tgl-r empty 17 7 0 10 -203904
-1 -1;
#X obj 114 136 r \$0-ch1-s;
#X obj 146 160 r \$0-ch2-s;
#X obj 638 411 s \$0-ch2-r;
#X msg 460 30 \$1;
#X obj 114 160 t f;
#X obj 146 184 t f;
#X obj 162 325 inlet~;
#X obj 193 295 inlet~;
#X obj 166 402 outlet~;
#X obj 200 432 outlet~;
#X obj 189 24 tgl 12 0 \$0-ch3-s \$0-ch3-r empty 17 7 0 10 -225271
-1 -262144 0 1;
#X obj 209 24 tgl 12 0 \$0-ch4-s \$0-ch4-r empty 17 7 0 10 -225271
-1 -262144 0 1;
#X obj 209 212 r \$0-ch4-s;
#X obj 178 184 r \$0-ch3-s;
#X obj 178 212 t f;
#X obj 209 238 t f;
#X obj 99 373 sp-hub8~ ...............................;
#X obj 225 345 inlet~;
#X obj 257 318 inlet~;
#X obj 288 344 inlet~;
#X obj 234 402 outlet~;
#X obj 268 432 outlet~;
#X obj 302 402 outlet~;
#X obj 336 432 outlet~;
#X obj 320 316 inlet~;
#X obj 230 24 tgl 12 0 \$0-ch5-s \$0-ch5-r empty 17 7 0 10 -225271
-1 -262144 0 1;
#X obj 249 24 tgl 12 0 \$0-ch6-s \$0-ch6-r empty 17 7 0 10 -225271
-1 -262144 0 1;
#X obj 269 24 tgl 12 0 \$0-ch7-s \$0-ch7-r empty 17 7 0 10 -225271
-1 -262144 0 1;
#X obj 289 24 tgl 12 0 \$0-ch8-s \$0-ch8-r empty 17 7 0 10 -225271
-1 -262144 0 1;
#X obj 241 136 r \$0-ch5-s;
#X obj 241 160 t f;
#X obj 272 184 t f;
#X obj 272 160 r \$0-ch6-s;
#X obj 304 212 t f;
#X obj 336 237 t f;
#X obj 304 184 r \$0-ch7-s;
#X obj 336 212 r \$0-ch8-s;
#X obj 621 312 demux . . . . . . . .;
#X obj 621 435 s \$0-ch1-r;
#X obj 656 385 s \$0-ch3-r;
#X obj 673 361 s \$0-ch4-r;
#X obj 743 401 s \$0-ch8-r;
#X obj 726 425 s \$0-ch7-r;
#X obj 708 451 s \$0-ch6-r;
#X obj 691 475 s \$0-ch5-r;
#X obj 621 210 unpack f f;
#X obj 621 234 sel 0;
#X msg 621 264 color 6;
#X msg 678 264 color 13;
#X obj 858 79 until;
#X msg 858 51 8;
#X obj 858 109 f 1;
#X obj 894 109 + 1;
#X msg 906 79 1;
#X obj 930 108 f \$0;
#X obj 937 79 loadbang;
#X obj 961 141 == 8;
#X obj 961 166 sel 1;
#X obj 858 139 pack f f;
#X msg 858 166 \; \$2-ch\$1-r bang;
#X obj 621 151 r \$0-ch1-s;
#X msg 621 169 \$1 0;
#X obj 631 109 r \$0-ch2-s;
#X msg 631 127 \$1 1;
#X obj 641 66 r \$0-ch3-s;
#X msg 641 84 \$1 2;
#X obj 858 22 r \$0-tgl-s;
#X obj 651 22 r \$0-ch4-s;
#X msg 651 40 \$1 3;
#X obj 731 22 r \$0-ch5-s;
#X msg 731 40 \$1 4;
#X obj 721 66 r \$0-ch6-s;
#X msg 721 84 \$1 5;
#X obj 711 109 r \$0-ch7-s;
#X msg 711 127 \$1 6;
#X msg 701 169 \$1 7;
#X obj 701 151 r \$0-ch8-s;
#X obj 510 -4 loadbang;
#X msg 510 13 0;
#X connect 0 0 25 0;
#X connect 1 0 25 2;
#X connect 7 0 12 0;
#X connect 9 0 13 0;
#X connect 10 0 14 0;
#X connect 12 0 37 0;
#X connect 12 0 36 0;
#X connect 12 0 35 0;
#X connect 12 0 34 0;
#X connect 12 0 20 0;
#X connect 12 0 19 0;
#X connect 12 0 6 0;
#X connect 12 0 5 0;
#X connect 13 0 25 1;
#X connect 14 0 25 3;
#X connect 15 0 25 4;
#X connect 16 0 25 6;
#X connect 21 0 24 0;
#X connect 22 0 23 0;
#X connect 23 0 25 5;
#X connect 24 0 25 7;
#X connect 25 0 2 0;
#X connect 25 1 3 0;
#X connect 25 2 17 0;
#X connect 25 3 18 0;
#X connect 25 4 29 0;
#X connect 25 5 30 0;
#X connect 25 6 31 0;
#X connect 25 7 32 0;
#X connect 26 0 25 8;
#X connect 27 0 25 10;
#X connect 28 0 25 12;
#X connect 33 0 25 14;
#X connect 38 0 39 0;
#X connect 39 0 25 9;
#X connect 40 0 25 11;
#X connect 41 0 40 0;
#X connect 42 0 25 13;
#X connect 43 0 25 15;
#X connect 44 0 42 0;
#X connect 45 0 43 0;
#X connect 46 0 47 0;
#X connect 46 1 11 0;
#X connect 46 2 48 0;
#X connect 46 3 49 0;
#X connect 46 4 53 0;
#X connect 46 5 52 0;
#X connect 46 6 51 0;
#X connect 46 7 50 0;
#X connect 54 0 55 0;
#X connect 54 1 46 1;
#X connect 55 0 56 0;
#X connect 55 1 57 0;
#X connect 56 0 46 0;
#X connect 57 0 46 0;
#X connect 58 0 60 0;
#X connect 59 0 58 0;
#X connect 60 0 61 0;
#X connect 60 0 65 0;
#X connect 60 0 67 0;
#X connect 61 0 60 1;
#X connect 62 0 60 1;
#X connect 63 0 67 1;
#X connect 64 0 63 0;
#X connect 65 0 66 0;
#X connect 66 0 62 0;
#X connect 67 0 68 0;
#X connect 69 0 70 0;
#X connect 70 0 54 0;
#X connect 71 0 72 0;
#X connect 72 0 54 0;
#X connect 73 0 74 0;
#X connect 74 0 54 0;
#X connect 75 0 59 0;
#X connect 76 0 77 0;
#X connect 77 0 54 0;
#X connect 78 0 79 0;
#X connect 79 0 54 0;
#X connect 80 0 81 0;
#X connect 81 0 54 0;
#X connect 82 0 83 0;
#X connect 83 0 54 0;
#X connect 84 0 54 0;
#X connect 85 0 84 0;
#X connect 86 0 87 0;
#X connect 87 0 12 0;
#X coords 0 -1 1 1 168 19 2 150 20;
