#N canvas 46 138 1049 494 10;
#X obj 101 67 inlet~;
#X obj 101 420 outlet~;
#X obj 135 28 inlet~;
#X obj 135 450 outlet~;
#X obj 169 67 inlet~;
#X obj 169 420 outlet~;
#X obj 203 28 inlet~;
#X obj 203 450 outlet~;
#X obj 237 62 inlet~;
#X obj 237 420 outlet~;
#X obj 271 28 inlet~;
#X obj 271 450 outlet~;
#X obj 305 67 inlet~;
#X obj 305 420 outlet~;
#X obj 339 28 inlet~;
#X obj 339 450 outlet~;
#X obj 434 187 route 0 1 2 3 4 5 6 7;
#N canvas 555 225 178 192 label_init 0;
#X obj 50 23 loadbang;
#X obj 50 52 Uzi 8;
#X obj 77 101 pack f f;
#X obj 77 77 - 1;
#X msg 77 125 \$1 label ch\$2;
#X obj 49 158 outlet;
#X connect 0 0 1 0;
#X connect 1 2 2 1;
#X connect 1 2 3 0;
#X connect 2 0 4 0;
#X connect 3 0 2 0;
#X connect 4 0 5 0;
#X restore 527 78 pd label_init;
#X obj 824 245 print [sp-gmix8~] unknown command;
#X obj 635 79 r sp-\$1;
#X obj 434 133 route mix mix8;
#N canvas 494 234 459 397 solo 0;
#X obj 81 42 inlet;
#X obj 81 103 Uzi 8;
#X obj 108 190 ==;
#X obj 108 215 sel 1;
#X obj 108 262 f;
#X obj 144 261 f;
#X msg 108 318 \$1 mute 0;
#X msg 144 289 \$1 mute 1;
#X obj 108 133 - 1;
#X msg 108 238 bang;
#X msg 144 238 bang;
#X obj 108 164 t f f f;
#X obj 81 73 t b f;
#X obj 77 352 outlet;
#X connect 0 0 12 0;
#X connect 1 2 8 0;
#X connect 2 0 3 0;
#X connect 3 0 9 0;
#X connect 3 1 10 0;
#X connect 4 0 6 0;
#X connect 5 0 7 0;
#X connect 6 0 13 0;
#X connect 7 0 13 0;
#X connect 8 0 11 0;
#X connect 9 0 4 0;
#X connect 10 0 5 0;
#X connect 11 0 2 0;
#X connect 11 1 4 1;
#X connect 11 2 5 1;
#X connect 12 0 1 0;
#X connect 12 1 2 1;
#X restore 557 243 pd solo;
#N canvas 704 389 152 291 mute 0;
#X obj 31 24 inlet;
#X obj 31 58 t b f;
#X obj 31 93 Uzi 8;
#X obj 58 126 - 1;
#X msg 58 217 \$1 mute \$2;
#X obj 103 154 f;
#X obj 58 186 pack f f;
#X obj 58 247 outlet;
#X connect 0 0 1 0;
#X connect 1 0 2 0;
#X connect 1 1 5 0;
#X connect 2 2 3 0;
#X connect 3 0 6 0;
#X connect 4 0 7 0;
#X connect 5 0 6 1;
#X connect 6 0 4 0;
#X restore 601 271 pd mute;
#X obj 101 103 sp-gmix~ ch1-\$1;
#N canvas 618 260 152 291 volume 0;
#X obj 31 24 inlet;
#X obj 31 58 t b f;
#X obj 31 93 Uzi 8;
#X obj 58 126 - 1;
#X obj 103 154 f;
#X obj 58 186 pack f f;
#X obj 58 247 outlet;
#X msg 58 217 \$1 volume \$2;
#X connect 0 0 1 0;
#X connect 1 0 2 0;
#X connect 1 1 4 0;
#X connect 2 2 3 0;
#X connect 3 0 5 0;
#X connect 4 0 5 1;
#X connect 5 0 7 0;
#X connect 7 0 6 0;
#X restore 646 301 pd volume;
#N canvas 618 260 330 339 save 0;
#X obj 31 24 inlet;
#X obj 31 93 Uzi 8;
#X obj 58 126 - 1;
#X obj 58 242 outlet;
#X msg 58 157 \$1 save;
#X obj 58 187 list append;
#X obj 58 212 list trim;
#X obj 31 58 t b a;
#X connect 0 0 7 0;
#X connect 1 2 2 0;
#X connect 2 0 4 0;
#X connect 4 0 5 0;
#X connect 5 0 6 0;
#X connect 6 0 3 0;
#X connect 7 0 1 0;
#X connect 7 1 5 1;
#X restore 690 248 pd save;
#N canvas 646 166 300 310 restore 0;
#X obj 31 24 inlet;
#X obj 31 93 Uzi 8;
#X obj 58 126 - 1;
#X obj 58 257 outlet;
#X msg 58 177 \$1 restore;
#X obj 31 58 t b a;
#X obj 58 207 list append;
#X obj 58 232 list trim;
#X connect 0 0 5 0;
#X connect 1 2 2 0;
#X connect 2 0 4 0;
#X connect 4 0 6 0;
#X connect 5 0 1 0;
#X connect 5 1 6 1;
#X connect 6 0 7 0;
#X connect 7 0 3 0;
#X restore 735 301 pd restore;
#X obj 135 103 sp-gmix~ ch2-\$1;
#X obj 169 103 sp-gmix~ ch3-\$1;
#X obj 203 103 sp-gmix~ ch4-\$1;
#X obj 237 103 sp-gmix~ ch5-\$1;
#X obj 271 103 sp-gmix~ ch6-\$1;
#X obj 305 103 sp-gmix~ ch7-\$1;
#X obj 339 103 sp-gmix~ ch8-\$1;
#X obj 515 445 outlet control-bus;
#X obj 434 30 inlet control;
#X obj 557 217 route solo mute volume save restore midilearn;
#N canvas 211 282 206 289 midilearn 0;
#X obj 42 34 inlet;
#X obj 42 69 t b f;
#X obj 42 106 Uzi 8;
#X obj 69 131 - 1;
#X obj 69 187 pack f f;
#X obj 69 249 outlet;
#X msg 69 218 \$1 midilearn \$2;
#X connect 0 0 1 0;
#X connect 1 0 2 0;
#X connect 1 1 4 1;
#X connect 2 2 3 0;
#X connect 3 0 4 0;
#X connect 4 0 6 0;
#X connect 6 0 5 0;
#X restore 779 343 pd midilearn;
#X connect 0 0 23 0;
#X connect 2 0 27 0;
#X connect 4 0 28 0;
#X connect 6 0 29 0;
#X connect 8 0 30 0;
#X connect 10 0 31 0;
#X connect 12 0 32 0;
#X connect 14 0 33 0;
#X connect 16 0 23 1;
#X connect 16 1 27 1;
#X connect 16 2 28 1;
#X connect 16 3 29 1;
#X connect 16 4 30 1;
#X connect 16 5 31 1;
#X connect 16 6 32 1;
#X connect 16 7 33 1;
#X connect 16 8 36 0;
#X connect 17 0 16 0;
#X connect 19 0 16 0;
#X connect 20 0 16 0;
#X connect 20 1 16 0;
#X connect 20 2 34 0;
#X connect 21 0 16 0;
#X connect 22 0 16 0;
#X connect 23 0 1 0;
#X connect 24 0 16 0;
#X connect 25 0 16 0;
#X connect 26 0 16 0;
#X connect 27 0 3 0;
#X connect 28 0 5 0;
#X connect 29 0 7 0;
#X connect 30 0 9 0;
#X connect 31 0 11 0;
#X connect 32 0 13 0;
#X connect 33 0 15 0;
#X connect 35 0 20 0;
#X connect 36 0 21 0;
#X connect 36 1 22 0;
#X connect 36 2 24 0;
#X connect 36 3 25 0;
#X connect 36 4 26 0;
#X connect 36 5 37 0;
#X connect 36 6 18 0;
#X connect 37 0 16 0;
#X coords 0 -1 1 1 272 185 2 100 100;
