#N canvas 289 324 690 375 10;
#X obj 151 23 cnv 10 85 14 \$0-cnv-s \$0-cnv-r empty 20 12 0 14 -128992
-66577 0;
#X obj 150 24 tgl 12 0 \$0-ch1-s \$0-ch1-r empty 17 7 0 10 -225271
-1 -262144 1 1;
#X obj 169 24 tgl 12 0 \$0-ch2-s \$0-ch2-r empty 17 7 0 10 -225271
-1 -262144 1 1;
#X obj 225 26 bng 8 250 50 0 \$0-tgl-s \$0-tgl-r empty 17 7 0 10 -203904
-1 -1;
#X obj 189 24 tgl 12 0 \$0-ch3-s \$0-ch3-r empty 17 7 0 10 -225271
-1 -262144 1 1;
#X obj 209 24 tgl 12 0 \$0-ch4-s \$0-ch4-r empty 17 7 0 10 -225271
-1 -262144 1 1;
#X obj 79 194 inlet~;
#X obj 106 214 inlet~;
#X obj 79 292 outlet~;
#X obj 116 321 outlet~;
#X obj 340 54 inlet;
#X obj 54 80 r \$0-ch1-s;
#X obj 124 80 r \$0-ch2-s;
#X obj 251 233 expr \$0 \; $f1 \; $f2 \;;
#X obj 251 283 pack f f f;
#X msg 251 307 \; \$1-ch\$2-r color \$3;
#X obj 308 178 sel 0;
#X obj 251 153 unpack f f;
#X msg 308 207 13;
#X msg 340 207 6;
#X obj 422 197 unpack f f;
#X obj 422 279 pack f f f;
#X msg 54 108 1 \$1;
#X msg 124 108 2 \$1;
#X obj 124 136 list;
#X obj 422 227 expr \$0 \; $f1 \; $f2 \;;
#X msg 422 306 \; \$1-ch\$2-r \$3;
#X obj 395 98 r \$0-tgl-s;
#X msg 422 161 \$1 0;
#X msg 502 161 \$1 1;
#X obj 475 98 loadbang;
#X obj 79 243 sp-hub4~ ..........;
#X obj 153 292 outlet~;
#X obj 190 321 outlet~;
#X obj 134 194 inlet~;
#X obj 162 214 inlet~;
#X msg 264 108 4 \$1;
#X msg 194 108 3 \$1;
#X obj 194 80 r \$0-ch3-s;
#X obj 264 80 r \$0-ch4-s;
#X obj 395 134 Uzi 4;
#X obj 475 134 Uzi 4;
#X connect 6 0 31 0;
#X connect 7 0 31 1;
#X connect 10 0 24 0;
#X connect 10 0 20 0;
#X connect 11 0 22 0;
#X connect 12 0 23 0;
#X connect 13 0 14 0;
#X connect 13 1 14 1;
#X connect 13 2 14 2;
#X connect 14 0 15 0;
#X connect 16 0 18 0;
#X connect 16 1 19 0;
#X connect 17 0 13 0;
#X connect 17 1 16 0;
#X connect 18 0 13 1;
#X connect 19 0 13 1;
#X connect 20 0 25 0;
#X connect 20 1 25 1;
#X connect 21 0 26 0;
#X connect 22 0 24 0;
#X connect 23 0 24 0;
#X connect 24 0 17 0;
#X connect 24 0 31 4;
#X connect 25 0 21 0;
#X connect 25 1 21 1;
#X connect 25 2 21 2;
#X connect 27 0 40 0;
#X connect 28 0 20 0;
#X connect 29 0 20 0;
#X connect 30 0 41 0;
#X connect 31 0 8 0;
#X connect 31 1 9 0;
#X connect 31 2 32 0;
#X connect 31 3 33 0;
#X connect 34 0 31 2;
#X connect 35 0 31 3;
#X connect 36 0 24 0;
#X connect 37 0 24 0;
#X connect 38 0 37 0;
#X connect 39 0 36 0;
#X connect 40 2 28 0;
#X connect 41 2 29 0;
#X coords 0 -1 1 1 86 19 2 150 20;
