#N canvas 172 22 825 567 10;
#X declare -lib flatgui;
#X declare -lib flatgui;
#X declare -lib flatgui;
#X declare -lib flatgui;
#X obj 88 394 sp-sum4~;
#X obj 184 394 sp-sum4~;
#X obj 88 434 +dsp;
#X obj 88 162 sp-gpattern4;
#X obj 320 198 sp-goscbank4~;
#X obj 88 355 *~;
#X obj 136 355 *~;
#X obj 184 355 *~;
#X obj 232 355 *~;
#X obj 455 79 sp-gparam;
#X obj 88 94 tgl 15 0 empty empty empty 17 7 0 10 -262144 -1 -1 0 1
;
#X msg 88 121 pattern4 on \$1;
#X msg 131 94 pattern4 random;
#X msg 237 122 pattern4 bpm \$1;
#X floatatom 237 94 5 0 0 0 - - -;
#X msg 111 70 pattern4 subdiv \$1;
#X floatatom 111 48 5 0 0 0 - - -;
#X msg 217 44 pattern4 p 2 3 5 7;
#X obj 88 260 sp-gbang2ar;
#X connect 0 0 2 0;
#X connect 0 0 2 1;
#X connect 1 0 2 1;
#X connect 1 0 2 0;
#X connect 3 0 18 0;
#X connect 3 1 18 1;
#X connect 3 2 18 2;
#X connect 3 3 18 3;
#X connect 3 4 18 4;
#X connect 4 0 5 1;
#X connect 4 1 6 1;
#X connect 4 2 7 1;
#X connect 4 3 8 1;
#X connect 5 0 0 0;
#X connect 6 0 0 1;
#X connect 7 0 1 0;
#X connect 8 0 1 1;
#X connect 10 0 11 0;
#X connect 11 0 3 0;
#X connect 12 0 3 0;
#X connect 13 0 3 0;
#X connect 14 0 13 0;
#X connect 15 0 3 0;
#X connect 16 0 15 0;
#X connect 17 0 3 0;
#X connect 18 0 5 0;
#X connect 18 1 6 0;
#X connect 18 2 7 0;
#X connect 18 3 8 0;
