#N canvas 37 131 988 390 10;
#X obj 11 241 env~;
#X floatatom 11 264 5 0 0 0 - - -;
#X obj 33 301 env~;
#X floatatom 33 324 5 0 0 0 - - -;
#X obj 55 241 env~;
#X floatatom 55 264 5 0 0 0 - - -;
#X obj 77 301 env~;
#X floatatom 77 324 5 0 0 0 - - -;
#X obj 99 251 env~;
#X floatatom 99 274 5 0 0 0 - - -;
#X obj 121 311 env~;
#X floatatom 121 334 5 0 0 0 - - -;
#X obj 143 251 env~;
#X floatatom 143 274 5 0 0 0 - - -;
#X obj 165 311 env~;
#X floatatom 165 334 5 0 0 0 - - -;
#X obj 187 251 env~;
#X floatatom 187 274 5 0 0 0 - - -;
#X obj 209 311 env~;
#X floatatom 209 334 5 0 0 0 - - -;
#X obj 231 251 env~;
#X floatatom 231 274 5 0 0 0 - - -;
#X obj 254 311 env~;
#X floatatom 254 334 5 0 0 0 - - -;
#X obj 11 155 osc~ 440;
#X obj 254 126 tgl 15 0 empty empty empty 17 7 0 10 -262144 -1 -1 1
1;
#X obj 323 126 tgl 15 0 empty empty empty 17 7 0 10 -262144 -1 -1 1
1;
#X obj 393 126 tgl 15 0 empty empty empty 17 7 0 10 -262144 -1 -1 0
1;
#X obj 463 126 tgl 15 0 empty empty empty 17 7 0 10 -262144 -1 -1 0
1;
#X obj 533 126 tgl 15 0 empty empty empty 17 7 0 10 -262144 -1 -1 1
1;
#X obj 606 126 tgl 15 0 empty empty empty 17 7 0 10 -262144 -1 -1 1
1;
#X obj 678 126 tgl 15 0 empty empty empty 17 7 0 10 -262144 -1 -1 1
1;
#X obj 751 126 tgl 15 0 empty empty empty 17 7 0 10 -262144 -1 -1 1
1;
#X msg 751 147 8 \$1;
#X obj 254 37 loadbang;
#X obj 526 54 tgl 15 0 empty empty empty 17 7 0 10 -262144 -1 -1 0
1;
#X obj 616 54 tgl 15 0 empty empty empty 17 7 0 10 -262144 -1 -1 1
1;
#X obj 714 54 tgl 15 0 empty empty empty 17 7 0 10 -262144 -1 -1 1
1;
#X obj 804 54 tgl 15 0 empty empty empty 17 7 0 10 -262144 -1 -1 1
1;
#X obj 11 196 sp-ghub12~;
#X msg 348 30 hub12 invert;
#X msg 447 30 hub12 save;
#X msg 527 30 hub12 restore;
#X msg 254 147 hub12 1 \$1;
#X msg 323 147 hub12 2 \$1;
#X msg 393 147 hub12 3 \$1;
#X msg 463 147 hub12 4 \$1;
#X msg 533 147 hub12 5 \$1;
#X msg 606 147 hub12 6 \$1;
#X msg 678 147 hub12 7 \$1;
#X msg 526 75 hub12 9 \$1;
#X msg 616 75 hub12 10 \$1;
#X msg 714 75 hub12 11 \$1;
#X msg 804 75 hub12 12 \$1;
#X connect 0 0 1 0;
#X connect 2 0 3 0;
#X connect 4 0 5 0;
#X connect 6 0 7 0;
#X connect 8 0 9 0;
#X connect 10 0 11 0;
#X connect 12 0 13 0;
#X connect 14 0 15 0;
#X connect 16 0 17 0;
#X connect 18 0 19 0;
#X connect 20 0 21 0;
#X connect 22 0 23 0;
#X connect 24 0 39 0;
#X connect 24 0 39 1;
#X connect 24 0 39 2;
#X connect 24 0 39 3;
#X connect 24 0 39 4;
#X connect 24 0 39 5;
#X connect 24 0 39 6;
#X connect 24 0 39 7;
#X connect 24 0 39 8;
#X connect 24 0 39 9;
#X connect 24 0 39 10;
#X connect 24 0 39 11;
#X connect 25 0 43 0;
#X connect 26 0 44 0;
#X connect 27 0 45 0;
#X connect 28 0 46 0;
#X connect 29 0 47 0;
#X connect 30 0 48 0;
#X connect 31 0 49 0;
#X connect 32 0 33 0;
#X connect 33 0 39 12;
#X connect 34 0 25 0;
#X connect 34 0 26 0;
#X connect 34 0 27 0;
#X connect 34 0 28 0;
#X connect 34 0 29 0;
#X connect 34 0 30 0;
#X connect 34 0 31 0;
#X connect 34 0 32 0;
#X connect 34 0 35 0;
#X connect 34 0 36 0;
#X connect 34 0 37 0;
#X connect 34 0 38 0;
#X connect 35 0 50 0;
#X connect 36 0 51 0;
#X connect 37 0 52 0;
#X connect 38 0 53 0;
#X connect 39 0 0 0;
#X connect 39 1 2 0;
#X connect 39 2 4 0;
#X connect 39 3 6 0;
#X connect 39 4 8 0;
#X connect 39 5 10 0;
#X connect 39 6 12 0;
#X connect 39 7 14 0;
#X connect 39 8 16 0;
#X connect 39 9 18 0;
#X connect 39 10 20 0;
#X connect 39 11 22 0;
#X connect 40 0 39 12;
#X connect 41 0 39 12;
#X connect 42 0 39 12;
#X connect 43 0 39 12;
#X connect 44 0 39 12;
#X connect 45 0 39 12;
#X connect 46 0 39 12;
#X connect 47 0 39 12;
#X connect 48 0 39 12;
#X connect 49 0 39 12;
#X connect 50 0 39 12;
#X connect 51 0 39 12;
#X connect 52 0 39 12;
#X connect 53 0 39 12;
