#N canvas 266 169 455 337 10;
#X obj 210 57 metro 1000;
#X obj 210 27 loadbang;
#X obj 210 123 cputime;
#X obj 210 94 t b b;
#X obj 210 152 int;
#X obj 210 173 / 10;
#X obj 100 100 cnv 15 65 20 \$0-cnv-s \$0-cnv-r cpu:2% 3 10 0 14 -203904
-66577 0;
#X obj 210 297 s \$0-cnv-r;
#X msg 210 273 label \$1;
#X obj 307 60 loadbang;
#X obj 308 123 s \$0-cnv-r;
#X obj 210 220 symbol;
#X obj 210 200 sprintf %2d%%;
#X msg 308 92 label_pos 3 10;
#X obj 210 247 makefilename cpu:%s;
#X connect 0 0 3 0;
#X connect 1 0 0 0;
#X connect 2 0 4 0;
#X connect 3 0 2 0;
#X connect 3 1 2 1;
#X connect 4 0 5 0;
#X connect 5 0 12 0;
#X connect 8 0 7 0;
#X connect 9 0 13 0;
#X connect 11 0 14 0;
#X connect 12 0 11 0;
#X connect 13 0 10 0;
#X connect 14 0 8 0;
#X coords 0 -1 1 1 65 20 1 100 100;
