#N canvas 192 71 783 613 10;
#X declare -lib ggee;
#X obj 41 58 cnv 15 198 120 \$0-back-s \$0-back-r empty 20 12 0 14
-99865 -66577 0;
#X obj 649 33 import ggee;
#X obj 49 67 envgen 140 83 1 0 1004-env-s 1004-env-r;
#X obj 211 64 bng 12 250 50 0 \$0-up-s \$0-up-r empty 17 7 0 10 -262144
-1 -1;
#X obj 198 76 bng 12 250 50 0 \$0-left-s \$0-left-r empty 17 7 0 10
-262144 -1 -1;
#X obj 211 88 bng 12 250 50 0 \$0-down-s \$0-down-r empty 17 7 0 10
-262144 -1 -1;
#X obj 223 76 bng 12 250 50 0 \$0-right-s \$0-right-r empty 17 7 0
10 -262144 -1 -1;
#X obj 47 12 r \$0-env-r;
#X obj 349 51 inlet;
#X obj 349 76 route envgen;
#X obj 349 154 sp-param-file;
#X msg 492 128 dump;
#X obj 427 184 s \$0-env-r;
#X obj 262 190 s \$0-dump;
#X obj 492 50 r sp-param;
#X obj 492 77 route save;
#X obj 97 159 bng 12 250 50 0 \$0-reset-s \$0-reset-r reset 17 7 0
10 -262130 -1 -262144;
#N canvas 336 225 529 292 motion 0;
#X obj 104 142 r \$0-up-s;
#X msg 104 184 motion 0 \$1;
#X obj 104 231 s \$0-env-r;
#X msg 24 184 motion 0 \$1;
#X obj 24 142 r \$0-down-s;
#X obj 24 162 f 4;
#X msg 184 184 motion \$1 0;
#X obj 184 142 r \$0-left-s;
#X obj 184 162 f -4;
#X obj 104 162 f -4;
#X msg 264 184 motion \$1 0;
#X obj 264 142 r \$0-right-s;
#X obj 264 162 f 4;
#X obj 37 58 keyname;
#X obj 76 110 select Down Up Left Right;
#X obj 76 84 spigot;
#X obj 136 42 route motion;
#X obj 136 67 expr ($f1 > 40 && $f1 < 240) && ($f2 > 40 && $f2 < 200)
;
#X obj 136 17 inlet;
#X connect 0 0 9 0;
#X connect 1 0 2 0;
#X connect 3 0 2 0;
#X connect 4 0 5 0;
#X connect 5 0 3 0;
#X connect 6 0 2 0;
#X connect 7 0 8 0;
#X connect 8 0 6 0;
#X connect 9 0 1 0;
#X connect 10 0 2 0;
#X connect 11 0 12 0;
#X connect 12 0 10 0;
#X connect 13 1 15 0;
#X connect 14 0 5 0;
#X connect 14 1 9 0;
#X connect 14 2 8 0;
#X connect 14 3 12 0;
#X connect 15 0 14 0;
#X connect 16 0 17 0;
#X connect 17 0 15 1;
#X connect 18 0 16 0;
#X restore 606 265 pd motion;
#N canvas 209 362 301 251 save 1;
#X obj 28 54 tof/param /genvgen/\$1/env;
#X obj 175 13 r \$0-dump;
#X obj 28 84 s \$0-env-r;
#X obj 205 103 r \$0-dur-s;
#X obj 28 144 tof/param /genvgen/\$1/dur 1000;
#X obj 28 204 s \$0-dur-r;
#X obj 28 173 change;
#X connect 0 0 2 0;
#X connect 1 0 0 1;
#X connect 3 0 4 1;
#X connect 4 0 6 0;
#X connect 6 0 5 0;
#X restore 669 299 pd save;
#X obj 305 267 r \$0-reset-s;
#X msg 305 293 0 50 1 50;
#X obj 305 319 s \$0-env-r;
#X obj 47 159 bng 12 250 50 0 \$0-bang-s \$0-bang-r bang 17 7 0 10
-204786 -1 -262144;
#X obj 205 349 s \$0-env-r;
#X obj 205 267 r \$0-bang-s;
#X obj 466 154 s \$0-reset-r;
#X obj 349 101 route restore save env reset bang;
#X obj 505 184 s \$0-bang-r;
#X obj 606 236 iemguts/receivecanvas;
#X obj 529 451 outlet;
#X obj 47 229 unpack f f;
#X obj 164 160 nbx 7 14 100 1e+37 0 0 \$0-dur-s \$0-dur-r dur: 40 -8
0 10 -262144 -1 -262144 1893 256;
#X obj 108 494 vline~;
#X obj 108 542 outlet~;
#X obj 205 299 t b b b;
#X msg 248 411 0;
#X obj 36 516 snapshot~;
#X floatatom 34 546 5 0 0 0 - - -;
#X obj 34 451 metro 10;
#X obj 34 407 tgl 15 0 empty empty empty 17 7 0 10 -262144 -1 -1 0
1;
#X obj 104 278 +;
#X obj 138 278 f;
#X obj 104 305 -;
#X obj 123 340 print;
#X obj 47 373 pack f f f;
#X obj 75 254 t f f;
#X msg 164 191 duration \$1;
#X obj 164 217 s \$0-env-r;
#X connect 2 0 30 0;
#X connect 2 1 13 0;
#X connect 7 0 2 0;
#X connect 8 0 9 0;
#X connect 9 0 26 0;
#X connect 9 1 29 0;
#X connect 11 0 12 0;
#X connect 14 0 15 0;
#X connect 15 0 11 0;
#X connect 19 0 20 0;
#X connect 20 0 21 0;
#X connect 24 0 34 0;
#X connect 26 0 10 0;
#X connect 26 1 10 1;
#X connect 26 1 11 0;
#X connect 26 2 12 0;
#X connect 26 3 25 0;
#X connect 26 4 27 0;
#X connect 28 0 17 0;
#X connect 30 0 44 0;
#X connect 30 1 45 0;
#X connect 31 0 46 0;
#X connect 32 0 33 0;
#X connect 32 0 36 0;
#X connect 34 1 23 0;
#X connect 34 2 35 0;
#X connect 35 0 40 1;
#X connect 36 0 37 0;
#X connect 38 0 36 0;
#X connect 39 0 38 0;
#X connect 40 0 41 0;
#X connect 40 0 42 0;
#X connect 41 0 40 1;
#X connect 42 0 43 0;
#X connect 45 0 44 1;
#X connect 45 1 40 0;
#X connect 46 0 47 0;
#X coords 0 -1 1 1 200 140 1 40 40;
