#N canvas 431 262 450 300 10;
#X obj 252 102 inlet~;
#X obj 252 183 outlet~;
#X obj 303 203 outlet~;
#X obj 277 76 inlet~;
#X obj 252 146 sp-cross~;
#X obj 303 111 inlet;
#X obj 21 22 cnv 15 98 16 empty empty empty 20 12 0 14 -99865 -66577
0;
#X obj 102 24 tgl 12 0 \$0-cross-s \$0-cross-r xcross -40 6 0 10 -262144
-1 -262144 0 1;
#X obj 349 111 r \$0-cross-s;
#X msg 337 146 set \$1;
#X obj 337 173 s \$0-cross-r;
#X connect 0 0 4 0;
#X connect 3 0 4 1;
#X connect 4 0 1 0;
#X connect 4 1 2 0;
#X connect 5 0 4 2;
#X connect 5 0 9 0;
#X connect 8 0 4 2;
#X connect 9 0 10 0;
#X coords 0 -1 1 1 100 20 1 20 20;
