#N canvas 97 194 507 381 10;
#X obj 59 233 sp-hub2~;
#X obj 59 184 inlet~;
#X obj 108 184 inlet~;
#X obj 59 282 outlet~;
#X obj 113 282 outlet~;
#X obj 151 23 cnv 10 40 14 empty empty empty 20 12 0 14 -128992 -66577
0;
#X obj 150 24 tgl 12 0 \$0-ch1-s \$0-ch1-r empty 17 7 0 10 -225271
-1 -262144 0 1;
#X obj 167 24 tgl 12 0 \$0-ch2-s \$0-ch2-r empty 17 7 0 10 -225271
-1 -262144 0 1;
#X obj 230 58 inlet;
#X obj 183 26 bng 8 250 50 0 \$0-tgl-s \$0-tgl-r empty 17 7 0 10 -203904
-1 -1;
#X obj 34 84 r \$0-ch1-s;
#X obj 104 84 r \$0-ch2-s;
#X obj 221 237 expr \$0 \; $f1 \; $f2 \;;
#X obj 221 287 pack f f f;
#X msg 221 311 \; \$1-ch\$2-r color \$3;
#X obj 278 182 sel 0;
#X obj 221 157 unpack f f;
#X msg 278 211 13;
#X msg 310 211 6;
#X obj 352 157 unpack f f;
#X obj 352 239 pack f f f;
#X msg 34 112 1 \$1;
#X msg 104 112 2 \$1;
#X obj 104 140 list;
#X obj 352 187 expr \$0 \; $f1 \; $f2 \;;
#X obj 325 94 Uzi 2;
#X msg 352 266 \; \$1-ch\$2-r \$3;
#X obj 325 58 r \$0-tgl-s;
#X msg 352 121 \$1 0;
#X obj 385 94 Uzi 2;
#X msg 412 121 \$1 1;
#X obj 401 60 loadbang;
#X connect 0 0 3 0;
#X connect 0 1 4 0;
#X connect 1 0 0 0;
#X connect 2 0 0 1;
#X connect 8 0 23 0;
#X connect 8 0 19 0;
#X connect 10 0 21 0;
#X connect 11 0 22 0;
#X connect 12 0 13 0;
#X connect 12 1 13 1;
#X connect 12 2 13 2;
#X connect 13 0 14 0;
#X connect 15 0 17 0;
#X connect 15 1 18 0;
#X connect 16 0 12 0;
#X connect 16 1 15 0;
#X connect 17 0 12 1;
#X connect 18 0 12 1;
#X connect 19 0 24 0;
#X connect 19 1 24 1;
#X connect 20 0 26 0;
#X connect 21 0 23 0;
#X connect 22 0 23 0;
#X connect 23 0 0 2;
#X connect 23 0 16 0;
#X connect 24 0 20 0;
#X connect 24 1 20 1;
#X connect 24 2 20 2;
#X connect 25 2 28 0;
#X connect 27 0 25 0;
#X connect 28 0 19 0;
#X connect 29 2 30 0;
#X connect 30 0 19 0;
#X connect 31 0 29 0;
#X coords 0 -1 1 1 42 19 2 150 20;
