#N canvas 11 40 1062 616 10;
#X obj 19 474 inlet~;
#X obj 41 447 inlet~;
#X obj 19 532 outlet~;
#X obj 42 562 outlet~;
#X obj 151 23 cnv 10 328 14 \$0-cnv-s \$0-cnv-r empty 20 12 0 14 -128992
-66577 0;
#X obj 150 24 tgl 12 0 \$0-ch1-s \$0-ch1-r empty 17 7 0 10 -225271
-1 -262144 1 1;
#X obj 170 24 tgl 12 0 \$0-ch2-s \$0-ch2-r empty 17 7 0 10 -225271
-1 -262144 1 1;
#X obj 469 26 bng 8 250 50 0 \$0-tgl-s \$0-tgl-r empty 17 7 0 10 -203904
-1 -1;
#X obj 63 474 inlet~;
#X obj 85 447 inlet~;
#X obj 66 532 outlet~;
#X obj 90 562 outlet~;
#X obj 189 24 tgl 12 0 \$0-ch3-s \$0-ch3-r empty 17 7 0 10 -225271
-1 -262144 1 1;
#X obj 209 24 tgl 12 0 \$0-ch4-s \$0-ch4-r empty 17 7 0 10 -225271
-1 -262144 1 1;
#X obj 108 474 inlet~;
#X obj 130 447 inlet~;
#X obj 152 474 inlet~;
#X obj 114 532 outlet~;
#X obj 138 562 outlet~;
#X obj 161 532 outlet~;
#X obj 185 562 outlet~;
#X obj 175 447 inlet~;
#X obj 230 24 tgl 12 0 \$0-ch5-s \$0-ch5-r empty 17 7 0 10 -225271
-1 -262144 1 1;
#X obj 250 24 tgl 12 0 \$0-ch6-s \$0-ch6-r empty 17 7 0 10 -225271
-1 -262144 1 1;
#X obj 270 24 tgl 12 0 \$0-ch7-s \$0-ch7-r empty 17 7 0 10 -225271
-1 -262144 1 1;
#X obj 290 24 tgl 12 0 \$0-ch8-s \$0-ch8-r empty 17 7 0 10 -258699
-1 -262144 0 1;
#X obj 197 474 inlet~;
#X obj 219 447 inlet~;
#X obj 242 474 inlet~;
#X obj 264 447 inlet~;
#X obj 209 532 outlet~;
#X obj 233 562 outlet~;
#X obj 257 532 outlet~;
#X obj 280 562 outlet~;
#X obj 311 24 tgl 12 0 \$0-ch9-s \$0-ch9-r empty 17 7 0 10 -225271
-1 -262144 1 1;
#X obj 331 24 tgl 12 0 \$0-ch10-s \$0-ch10-r empty 17 7 0 10 -258699
-1 -262144 0 1;
#X obj 351 24 tgl 12 0 \$0-ch11-s \$0-ch11-r empty 17 7 0 10 -258699
-1 -262144 0 1;
#X obj 371 24 tgl 12 0 \$0-ch12-s \$0-ch12-r empty 17 7 0 10 -225271
-1 -262144 1 1;
#X obj 19 503 sp-hub16~ ..................................................
;
#X obj 304 532 outlet~;
#X obj 328 562 outlet~;
#X obj 352 532 outlet~;
#X obj 376 562 outlet~;
#X obj 286 474 inlet~;
#X obj 309 447 inlet~;
#X obj 331 474 inlet~;
#X obj 353 447 inlet~;
#X obj 391 24 tgl 12 0 \$0-ch13-s \$0-ch13-r empty 17 7 0 10 -225271
-1 -262144 1 1;
#X obj 411 24 tgl 12 0 \$0-ch14-s \$0-ch14-r empty 17 7 0 10 -225271
-1 -262144 1 1;
#X obj 431 24 tgl 12 0 \$0-ch15-s \$0-ch15-r empty 17 7 0 10 -225271
-1 -262144 1 1;
#X obj 451 24 tgl 12 0 \$0-ch16-s \$0-ch16-r empty 17 7 0 10 -225271
-1 -262144 1 1;
#X obj 376 416 list;
#N canvas 586 324 193 293 color 0;
#X obj 41 167 expr \$0 \; $f1 \; $f2 \;;
#X obj 41 217 pack f f f;
#X msg 41 241 \; \$1-ch\$2-r color \$3;
#X obj 98 112 sel 0;
#X obj 41 87 unpack f f;
#X msg 98 141 13;
#X msg 130 141 6;
#X obj 41 35 inlet;
#X connect 0 0 1 0;
#X connect 0 1 1 1;
#X connect 0 2 1 2;
#X connect 1 0 2 0;
#X connect 3 0 5 0;
#X connect 3 1 6 0;
#X connect 4 0 0 0;
#X connect 4 1 3 0;
#X connect 5 0 0 1;
#X connect 6 0 0 1;
#X connect 7 0 4 0;
#X restore 429 433 pd color;
#X obj 14 150 r \$0-ch1-s;
#X obj 84 150 r \$0-ch2-s;
#X msg 14 178 1 \$1;
#X msg 84 178 2 \$1;
#X msg 224 178 4 \$1;
#X msg 154 178 3 \$1;
#X obj 154 150 r \$0-ch3-s;
#X obj 224 150 r \$0-ch4-s;
#X msg 295 178 5 \$1;
#X msg 365 178 6 \$1;
#X msg 435 178 7 \$1;
#X msg 505 178 8 \$1;
#X obj 295 150 r \$0-ch5-s;
#X obj 365 150 r \$0-ch6-s;
#X obj 435 150 r \$0-ch7-s;
#X obj 505 150 r \$0-ch8-s;
#X obj 13 210 r \$0-ch9-s;
#X msg 13 238 9 \$1;
#X msg 83 238 10 \$1;
#X obj 83 210 r \$0-ch10-s;
#X obj 163 210 r \$0-ch11-s;
#X msg 163 238 11 \$1;
#X obj 243 210 r \$0-ch12-s;
#X msg 243 238 12 \$1;
#X msg 320 238 13 \$1;
#X msg 393 238 14 \$1;
#X msg 473 238 15 \$1;
#X msg 553 238 16 \$1;
#X obj 320 210 r \$0-ch13-s;
#X obj 393 210 r \$0-ch14-s;
#X obj 473 210 r \$0-ch15-s;
#X obj 553 210 r \$0-ch16-s;
#X obj 913 353 unpack f f;
#X obj 913 435 pack f f f;
#X obj 913 383 expr \$0 \; $f1 \; $f2 \;;
#X msg 913 462 \; \$1-ch\$2-r \$3;
#X obj 880 254 r \$0-tgl-s;
#X msg 913 317 \$1 0;
#X msg 999 317 \$1 1;
#X obj 966 254 loadbang;
#X obj 620 30 inlet;
#X obj 683 509 outlet;
#X obj 620 109 route invert save restore;
#N canvas 314 163 229 295 invert 0;
#X obj 64 66 bang;
#X msg 97 123 \$1 bang;
#X obj 97 198 pack f f;
#X obj 97 157 expr \$0 \; $f1 \;;
#X obj 64 40 inlet;
#X msg 97 227 \; \$1-ch\$2-r bang;
#X obj 64 89 Uzi 16;
#X connect 0 0 6 0;
#X connect 1 0 3 0;
#X connect 2 0 5 0;
#X connect 3 0 2 0;
#X connect 3 1 2 1;
#X connect 4 0 0 0;
#X connect 6 2 1 0;
#X restore 620 136 pd invert;
#X msg 669 175 bang;
#X obj 669 201 tof/param file;
#X msg 750 174 bang;
#N canvas 26 70 922 453 attrs 0;
#X obj 155 20 r \$0-ch1-s;
#X obj 155 44 change;
#X obj 155 134 change;
#X obj 155 110 r \$0-ch2-s;
#X obj 20 199 s \$0-ch2-r;
#X obj 20 100 s \$0-ch1-r;
#X obj 365 44 change;
#X obj 365 20 r \$0-ch3-s;
#X obj 365 134 change;
#X obj 365 110 r \$0-ch4-s;
#X obj 230 199 s \$0-ch4-r;
#X obj 230 109 s \$0-ch3-r;
#X obj 165 254 change;
#X obj 165 344 change;
#X obj 375 254 change;
#X obj 375 344 change;
#X obj 165 230 r \$0-ch5-s;
#X obj 375 230 r \$0-ch6-s;
#X obj 30 310 s \$0-ch5-r;
#X obj 240 319 s \$0-ch6-r;
#X obj 165 320 r \$0-ch7-s;
#X obj 375 320 r \$0-ch8-s;
#X obj 30 409 s \$0-ch7-r;
#X obj 240 409 s \$0-ch8-r;
#X obj 585 44 change;
#X obj 585 134 change;
#X obj 595 254 change;
#X obj 595 344 change;
#X obj 585 20 r \$0-ch9-s;
#X obj 450 109 s \$0-ch9-r;
#X obj 585 110 r \$0-ch10-s;
#X obj 450 199 s \$0-ch10-r;
#X obj 595 230 r \$0-ch11-s;
#X obj 460 319 s \$0-ch11-r;
#X obj 595 320 r \$0-ch12-s;
#X obj 460 409 s \$0-ch12-r;
#X obj 20 70 tof/param /ghub16/\$1/ch1;
#X obj 230 70 tof/param /ghub16/\$1/ch3;
#X obj 450 70 tof/param /ghub16/\$1/ch9;
#X obj 20 160 tof/param /ghub16/\$1/ch2;
#X obj 230 160 tof/param /ghub16/\$1/ch4;
#X obj 450 160 tof/param /ghub16/\$1/ch10;
#X obj 30 280 tof/param /ghub16/\$1/ch5;
#X obj 240 280 tof/param /ghub16/\$1/ch6;
#X obj 460 280 tof/param /ghub16/\$1/ch11;
#X obj 30 370 tof/param /ghub16/\$1/ch7;
#X obj 240 370 tof/param /ghub16/\$1/ch8;
#X obj 460 370 tof/param /ghub16/\$1/ch12;
#X obj 825 44 change;
#X obj 825 134 change;
#X obj 835 254 change;
#X obj 835 344 change;
#X obj 690 70 tof/param /ghub16/\$1/ch13;
#X obj 825 20 r \$0-ch13-s;
#X obj 690 109 s \$0-ch13-r;
#X obj 825 110 r \$0-ch14-s;
#X obj 690 160 tof/param /ghub16/\$1/ch14;
#X obj 690 199 s \$0-ch14-r;
#X obj 835 230 r \$0-ch15-s;
#X obj 700 280 tof/param /ghub16/\$1/ch15;
#X obj 700 319 s \$0-ch15-r;
#X obj 835 320 r \$0-ch16-s;
#X obj 700 370 tof/param /ghub16/\$1/ch16;
#X obj 700 409 s \$0-ch16-r;
#X connect 0 0 1 0;
#X connect 1 0 36 1;
#X connect 2 0 39 1;
#X connect 3 0 2 0;
#X connect 6 0 37 1;
#X connect 7 0 6 0;
#X connect 8 0 40 1;
#X connect 9 0 8 0;
#X connect 12 0 42 1;
#X connect 13 0 45 1;
#X connect 14 0 43 1;
#X connect 15 0 46 1;
#X connect 16 0 12 0;
#X connect 17 0 14 0;
#X connect 20 0 13 0;
#X connect 21 0 15 0;
#X connect 24 0 38 1;
#X connect 25 0 41 1;
#X connect 26 0 44 1;
#X connect 27 0 47 1;
#X connect 28 0 24 0;
#X connect 30 0 25 0;
#X connect 32 0 26 0;
#X connect 34 0 27 0;
#X connect 36 0 5 0;
#X connect 37 0 11 0;
#X connect 38 0 29 0;
#X connect 39 0 4 0;
#X connect 40 0 10 0;
#X connect 41 0 31 0;
#X connect 42 0 18 0;
#X connect 43 0 19 0;
#X connect 44 0 33 0;
#X connect 45 0 22 0;
#X connect 46 0 23 0;
#X connect 47 0 35 0;
#X connect 48 0 52 1;
#X connect 49 0 56 1;
#X connect 50 0 59 1;
#X connect 51 0 62 1;
#X connect 52 0 54 0;
#X connect 53 0 48 0;
#X connect 55 0 49 0;
#X connect 56 0 57 0;
#X connect 58 0 50 0;
#X connect 59 0 60 0;
#X connect 61 0 51 0;
#X connect 62 0 63 0;
#X restore 849 44 pd attrs;
#X obj 966 290 Uzi 16;
#X obj 880 290 Uzi 16;
#X obj 620 80 route hub16;
#X obj 709 80 r sp-\$1;
#X connect 0 0 38 0;
#X connect 1 0 38 1;
#X connect 8 0 38 2;
#X connect 9 0 38 3;
#X connect 14 0 38 4;
#X connect 15 0 38 5;
#X connect 16 0 38 6;
#X connect 21 0 38 7;
#X connect 26 0 38 8;
#X connect 27 0 38 9;
#X connect 28 0 38 10;
#X connect 29 0 38 11;
#X connect 38 0 2 0;
#X connect 38 1 3 0;
#X connect 38 2 10 0;
#X connect 38 3 11 0;
#X connect 38 4 17 0;
#X connect 38 5 18 0;
#X connect 38 6 19 0;
#X connect 38 7 20 0;
#X connect 38 8 30 0;
#X connect 38 9 31 0;
#X connect 38 10 32 0;
#X connect 38 11 33 0;
#X connect 38 12 39 0;
#X connect 38 13 40 0;
#X connect 38 14 41 0;
#X connect 38 15 42 0;
#X connect 43 0 38 12;
#X connect 44 0 38 13;
#X connect 45 0 38 14;
#X connect 46 0 38 15;
#X connect 51 0 52 0;
#X connect 51 0 38 16;
#X connect 53 0 55 0;
#X connect 54 0 56 0;
#X connect 55 0 51 0;
#X connect 56 0 51 0;
#X connect 57 0 51 0;
#X connect 58 0 51 0;
#X connect 59 0 58 0;
#X connect 60 0 57 0;
#X connect 61 0 51 0;
#X connect 62 0 51 0;
#X connect 63 0 51 0;
#X connect 64 0 51 0;
#X connect 65 0 61 0;
#X connect 66 0 62 0;
#X connect 67 0 63 0;
#X connect 68 0 64 0;
#X connect 69 0 70 0;
#X connect 70 0 51 0;
#X connect 71 0 51 0;
#X connect 72 0 71 0;
#X connect 73 0 74 0;
#X connect 74 0 51 0;
#X connect 75 0 76 0;
#X connect 76 0 51 0;
#X connect 77 0 51 0;
#X connect 78 0 51 0;
#X connect 79 0 51 0;
#X connect 80 0 51 0;
#X connect 81 0 77 0;
#X connect 82 0 78 0;
#X connect 83 0 79 0;
#X connect 84 0 80 0;
#X connect 85 0 87 0;
#X connect 85 1 87 1;
#X connect 86 0 88 0;
#X connect 87 0 86 0;
#X connect 87 1 86 1;
#X connect 87 2 86 2;
#X connect 89 0 102 0;
#X connect 90 0 85 0;
#X connect 91 0 85 0;
#X connect 92 0 101 0;
#X connect 93 0 103 0;
#X connect 95 0 96 0;
#X connect 95 1 97 0;
#X connect 95 2 99 0;
#X connect 95 3 85 0;
#X connect 95 3 51 0;
#X connect 97 0 98 0;
#X connect 99 0 98 1;
#X connect 101 2 91 0;
#X connect 102 2 90 0;
#X connect 103 0 95 0;
#X connect 103 1 94 0;
#X connect 104 0 95 0;
#X coords 0 -1 1 1 330 19 2 150 20;
