#N canvas 317 204 568 408 10;
#X declare -lib flatgui;
#X obj 37 195 sp-gmonitor~;
#X obj 37 101 osc~ 440;
#X obj 133 101 osc~ 880;
#X obj 37 329 sp-gparam;
#X msg 251 44 monitor left 2;
#X msg 267 75 monitor right 8;
#X msg 150 73 monitor mute \$1;
#X obj 150 44 tgl 15 0 empty empty empty 17 7 0 10 -262144 -1 -1 0
1;
#X connect 1 0 0 0;
#X connect 2 0 0 1;
#X connect 4 0 0 2;
#X connect 5 0 0 2;
#X connect 6 0 0 2;
#X connect 7 0 6 0;
