#N canvas 85 77 1012 407 10;
#X obj 21 200 compressor~;
#X obj 21 111 inlet~;
#X obj 21 307 outlet~;
#X obj 10 26 cnv 15 198 41 empty empty empty 20 12 0 14 -994 -66577
0;
#X obj 304 8 loadbang;
#X obj 304 61 s \$0-level-r;
#X obj 427 31 inlet;
#X obj 490 303 outlet;
#X obj 427 175 s \$0-level-r;
#X obj 84 167 r \$0-level-s;
#X obj 20 49 hsl 130 12 -1 5 0 0 \$0-level-s \$0-level-r strength -2
-9 0 10 -262144 -1 -262144 2150 1;
#X obj 158 49 nbx 4 12 -1 5 0 0 \$0-level-s \$0-level-r empty 0 -8
0 10 -262144 -1 -1 0 256;
#X msg 304 31 0;
#X obj 191 30 tgl 12 0 \$0-pass-s \$0-pass-r pass: -35 6 0 10 -262130
-1 -262144 0 1;
#X obj 66 226 r \$0-pass-s;
#X obj 21 253 sp-pass~;
#X obj 427 80 route compr;
#X obj 469 145 s \$0-pass-r;
#X obj 598 175 print [sp-gcompr~] unknown command;
#X obj 517 31 r sp-\$1;
#X obj 427 118 route level pass save restore;
#X obj 220 49 change;
#N canvas 380 334 296 254 param 0;
#X obj 187 51 change;
#X obj 28 81 tof/param /compr/\$1/level 0;
#X obj 31 170 tof/param /compr/\$1/pass 0;
#X obj 31 200 s \$0-pass-r;
#X obj 184 121 r \$0-pass-s;
#X obj 184 145 change;
#X obj 187 26 r \$0-level-s;
#X obj 28 108 s \$0-level-r;
#X connect 0 0 1 1;
#X connect 1 0 7 0;
#X connect 2 0 3 0;
#X connect 4 0 5 0;
#X connect 5 0 2 1;
#X connect 6 0 0 0;
#X restore 256 212 pd param;
#X obj 512 216 sp-param-file;
#X connect 0 0 15 0;
#X connect 1 0 15 1;
#X connect 1 0 0 0;
#X connect 4 0 12 0;
#X connect 6 0 16 0;
#X connect 9 0 0 1;
#X connect 10 0 21 0;
#X connect 11 0 10 0;
#X connect 12 0 5 0;
#X connect 14 0 15 2;
#X connect 15 0 2 0;
#X connect 16 0 20 0;
#X connect 16 1 7 0;
#X connect 19 0 20 0;
#X connect 20 0 8 0;
#X connect 20 1 17 0;
#X connect 20 2 23 0;
#X connect 20 3 23 1;
#X connect 20 4 18 0;
#X connect 21 0 11 0;
#X coords 0 -1 1 1 200 60 1 10 10;
