#N canvas 371 277 616 285 10;
#X obj 173 52 inlet~;
#X obj 227 52 inlet~;
#X obj 288 52 inlet~;
#X obj 346 52 inlet~;
#X obj 397 21 inlet;
#X obj 11 26 cnv 15 108 42 empty empty empty 20 12 0 14 -128992 -66577
0;
#X obj 258 176 tof/crossfade~ 2;
#X msg 399 135 \$1 5;
#X obj 399 159 line~;
#X obj 258 217 outlet~;
#X obj 351 216 outlet~;
#X obj 16 51 hsl 98 10 0 1 0 0 \$0-level-s \$0-level-r crossfade -2
-10 0 10 -262144 -1 -262144 0 1;
#X obj 81 34 nbx 3 13 -1e+37 1e+37 0 0 \$0-ind-s \$0-ind-r empty 0
-8 0 10 -262144 -1 -1 0 256;
#X obj 425 215 outlet;
#X obj 399 95 r \$0-level-s;
#X obj 397 52 s \$0-level-r;
#X connect 0 0 6 0;
#X connect 1 0 6 1;
#X connect 2 0 6 2;
#X connect 3 0 6 3;
#X connect 4 0 15 0;
#X connect 6 0 9 0;
#X connect 6 1 10 0;
#X connect 7 0 8 0;
#X connect 8 0 6 4;
#X connect 11 0 12 0;
#X connect 14 0 7 0;
#X coords 0 -1 1 1 110 60 1 10 10;
