#N canvas 1 22 1043 427 10;
#X declare -lib flatgui;
#X obj 21 117 cnv 15 198 100 empty empty empty 20 12 0 14 -128992 -66577
0;
#X obj 292 20 inlet~;
#X obj 405 20 inlet~;
#X obj 536 20 inlet;
#X obj 292 382 outlet~;
#X obj 405 382 outlet~;
#X obj 611 382 outlet;
#X obj 536 51 route monitor;
#X obj 536 119 sp-param-file;
#X obj 191 127 vu 8 80 \$0-lvl-l empty -1 -8 0 10 -66577 -1 0 0;
#X obj 201 127 vu 8 80 \$0-lvl-r empty -1 -8 0 10 -66577 -1 0 0;
#X obj 190 12 r \$0-lvl1-r;
#X obj 193 32 r \$0-lvl2-r;
#X obj 200 51 r \$0-lvr1-r;
#X obj 203 70 r \$0-lvr2-r;
#N canvas 621 171 413 342 level-indicator 0;
#X obj 40 38 inlet~;
#X obj 117 39 inlet~;
#X obj 40 82 pvu~;
#X obj 117 81 pvu~;
#X obj 40 123 s \$0-lvl2-r;
#X obj 117 123 s \$0-lvr2-r;
#X obj 160 196 env~ 4096;
#X obj 160 221 - 100;
#X obj 160 246 s \$0-lvl1-r;
#X obj 250 196 env~ 4096;
#X obj 250 221 - 100;
#X obj 250 246 s \$0-lvr1-r;
#X obj 226 41 inlet control;
#X obj 226 102 switch~;
#X obj 226 71 == 0;
#X msg 262 159 0;
#X obj 262 132 sel 0;
#X obj 334 41 loadbang;
#X msg 334 65 1;
#X obj 40 303 outlet~;
#X obj 117 303 outlet~;
#X connect 0 0 2 0;
#X connect 0 0 6 0;
#X connect 0 0 19 0;
#X connect 1 0 3 0;
#X connect 1 0 9 0;
#X connect 1 0 20 0;
#X connect 2 0 4 0;
#X connect 3 0 5 0;
#X connect 6 0 7 0;
#X connect 7 0 8 0;
#X connect 9 0 10 0;
#X connect 10 0 11 0;
#X connect 12 0 14 0;
#X connect 14 0 13 0;
#X connect 14 0 16 0;
#X connect 15 0 7 0;
#X connect 15 0 10 0;
#X connect 16 0 15 0;
#X connect 17 0 18 0;
#X connect 18 0 13 0;
#X restore 320 259 pd level-indicator;
#X obj 62 190 hradio 12 1 0 9 \$0-sel2-s \$0-sel2-r right -33 8 0 10
-262144 -1 -262144 4;
#X obj 62 178 hradio 12 1 0 9 \$0-sel1-s \$0-sel1-r left -28 8 0 10
-262144 -1 -262144 3;
#N canvas 560 198 433 181 init 0;
#X obj 41 28 loadbang;
#X obj 41 67 t b b b;
#X obj 80 128 s \$0-sel1-r;
#X obj 170 128 s \$0-sel2-r;
#X msg 80 100 3;
#X msg 170 100 4;
#X connect 0 0 1 0;
#X connect 1 2 4 0;
#X connect 1 2 5 0;
#X connect 4 0 2 0;
#X connect 5 0 3 0;
#X restore 25 328 pd init;
#X obj 854 18 import flatgui;
#X obj 145 133 knob 24 24 0 2 0 0 \$0-right-s \$0-right-r R 10 -8 0
10 -262144 -1 -262144 1150 1;
#X obj 105 133 knob 24 24 0 2 0 0 \$0-left-s \$0-left-r L 10 -8 0 10
-262144 -1 -262144 1150 1;
#X text 76 160 1;
#X text 89 160 2;
#X text 100 160 3;
#X text 112 160 4;
#X text 124 160 5;
#X text 136 160 6;
#X text 148 160 7;
#X text 160 160 8;
#X text 49 160 none;
#N canvas 301 333 427 205 selector 0;
#X obj 33 39 r \$0-sel1-s;
#X obj 33 73 sel 0;
#X obj 33 157 s \$0-sel1-r;
#X msg 33 111 color 1 11 0;
#X msg 123 111 color 0 -1 0;
#X obj 223 73 sel 0;
#X msg 223 111 color 1 11 0;
#X msg 313 111 color 0 -1 0;
#X obj 223 157 s \$0-sel2-r;
#X obj 223 39 r \$0-sel2-s;
#X connect 0 0 1 0;
#X connect 1 0 3 0;
#X connect 1 1 4 0;
#X connect 3 0 2 0;
#X connect 4 0 2 0;
#X connect 5 0 6 0;
#X connect 5 1 7 0;
#X connect 6 0 8 0;
#X connect 7 0 8 0;
#X connect 9 0 5 0;
#X restore 27 259 pd selector;
#N canvas 126 324 810 320 save 0;
#X obj 210 29 r \$0-sel1-s;
#X obj 21 85 change;
#X obj 21 117 s \$0-sel1-r;
#X obj 21 195 change;
#X obj 216 139 r \$0-sel2-s;
#X obj 21 227 s \$0-sel2-r;
#X obj 21 56 tof/param /monitor/\$1/left/out 3;
#X obj 21 166 tof/param /monitor/\$1/right/out 4;
#X obj 311 85 change;
#X obj 512 30 r \$0-left-s;
#X obj 311 225 change;
#X obj 311 56 tof/param /monitor/\$1/left/value 1;
#X obj 311 196 tof/param /monitor/\$1/right/value 1;
#X obj 518 170 r \$0-right-s;
#X obj 311 257 s \$0-right-r;
#X obj 311 117 s \$0-left-r;
#X connect 0 0 6 1;
#X connect 1 0 2 0;
#X connect 3 0 5 0;
#X connect 4 0 7 1;
#X connect 6 0 1 0;
#X connect 7 0 3 0;
#X connect 8 0 15 0;
#X connect 9 0 11 1;
#X connect 10 0 14 0;
#X connect 11 0 8 0;
#X connect 12 0 10 0;
#X connect 13 0 12 1;
#X restore 26 293 pd save;
#X obj 62 134 tgl 24 0 \$0-mute-s \$0-mute-r mute 0 -8 0 10 -261682
-1 -262144 0 1;
#N canvas 311 383 575 281 demux 0;
#X obj 53 26 inlet~;
#X obj 223 25 inlet~;
#X obj 122 200 dac~ 1 2 3 4 5 6 7 8;
#X obj 53 119 demux~ . . . . . . . . .;
#X obj 223 119 demux~ . . . . . . . . .;
#X obj 110 51 r \$0-sel1-s;
#X obj 280 51 r \$0-sel2-s;
#X obj 393 85 switch~;
#X obj 393 26 inlet control;
#X obj 393 56 == 0;
#X obj 495 27 loadbang;
#X msg 495 52 1;
#X connect 0 0 3 0;
#X connect 1 0 4 0;
#X connect 3 1 2 0;
#X connect 3 2 2 1;
#X connect 3 3 2 2;
#X connect 3 4 2 3;
#X connect 3 5 2 4;
#X connect 3 6 2 5;
#X connect 3 7 2 6;
#X connect 3 8 2 7;
#X connect 4 1 2 0;
#X connect 4 2 2 1;
#X connect 4 3 2 2;
#X connect 4 4 2 3;
#X connect 4 5 2 4;
#X connect 4 6 2 5;
#X connect 4 7 2 6;
#X connect 4 8 2 7;
#X connect 5 0 3 0;
#X connect 6 0 4 0;
#X connect 8 0 9 0;
#X connect 9 0 7 0;
#X connect 10 0 11 0;
#X connect 11 0 7 0;
#X restore 320 304 pd demux;
#X obj 737 115 print [sp-gmonitor~] unknown command;
#X obj 616 146 s \$0-sel1-r;
#X obj 656 176 s \$0-sel2-r;
#X obj 536 85 route save restore left right mute;
#X obj 696 212 s \$0-mute-r;
#X obj 425 214 r \$0-mute-s;
#N canvas 520 205 264 308 level 0;
#X obj 40 36 inlet~;
#X obj 145 37 inlet~;
#X obj 40 251 outlet~;
#X obj 145 250 outlet~;
#X obj 40 203 *~;
#X obj 145 202 *~;
#X obj 55 179 line~;
#X obj 160 179 line~;
#X msg 160 154 \$1 10;
#X msg 55 154 \$1 10;
#X obj 55 111 r \$0-left-s;
#X obj 160 111 r \$0-right-s;
#X connect 0 0 4 0;
#X connect 1 0 5 0;
#X connect 4 0 2 0;
#X connect 5 0 3 0;
#X connect 6 0 4 1;
#X connect 7 0 5 1;
#X connect 8 0 7 0;
#X connect 9 0 6 0;
#X connect 10 0 9 0;
#X connect 11 0 8 0;
#X restore 320 187 pd level;
#X connect 1 0 4 0;
#X connect 1 0 41 0;
#X connect 2 0 5 0;
#X connect 2 0 41 1;
#X connect 3 0 7 0;
#X connect 7 0 38 0;
#X connect 7 1 6 0;
#X connect 11 0 9 0;
#X connect 12 0 9 1;
#X connect 13 0 10 0;
#X connect 14 0 10 1;
#X connect 15 0 34 0;
#X connect 15 1 34 1;
#X connect 38 0 8 0;
#X connect 38 1 8 1;
#X connect 38 2 36 0;
#X connect 38 3 37 0;
#X connect 38 4 39 0;
#X connect 38 5 35 0;
#X connect 40 0 34 2;
#X connect 40 0 15 2;
#X connect 41 0 15 0;
#X connect 41 1 15 1;
#X coords 0 -1 1 1 200 120 1 20 100;
