#N canvas 255 377 450 300 10;
#X obj 67 99 sp-gfoot-switch;
#X msg 67 53 foot-switch source 1;
#X msg 67 23 foot-switch source 0;
#X obj 67 185 tgl 15 0 empty empty empty 17 7 0 10 -262144 -1 -1 0
1;
#X obj 163 185 tgl 15 0 empty empty empty 17 7 0 10 -262144 -1 -1 0
1;
#X text 171 163 bang output;
#X text 74 163 value output;
#X connect 0 0 3 0;
#X connect 0 1 4 0;
#X connect 1 0 0 0;
#X connect 2 0 0 0;
