#N canvas 205 38 910 527 10;
#X obj 11 28 cnv 15 198 120 empty empty empty 20 12 0 14 -66577 -66577
0;
#X obj 373 269 sp-arduino 3 ...;
#X obj 313 15 inlet;
#X obj 313 86 route arduino;
#X obj 681 443 outlet;
#X obj 221 208 r \$0-connect-s;
#X obj 153 52 bng 16 250 50 0 \$0-red-s \$0-red-r empty 17 7 0 10 -166441
-233017 -262144;
#X obj 313 148 route led_red led_green;
#N canvas 198 206 405 299 red_color 0;
#X obj 139 206 sel 0;
#X msg 89 235 color 1 10 0;
#X obj 139 19 inlet;
#X obj 139 53 route bang;
#X obj 73 70 t b b;
#X msg 108 117 0;
#X obj 139 149 f;
#X msg 73 117 1;
#X obj 320 192 outlet;
#X obj 108 94 del 100;
#X obj 139 268 s \$0-green-r;
#X msg 189 235 color 16 10 0;
#X msg 320 166 led_green \$1;
#X connect 0 0 1 0;
#X connect 0 1 11 0;
#X connect 1 0 10 0;
#X connect 2 0 3 0;
#X connect 3 0 4 0;
#X connect 3 1 6 0;
#X connect 4 0 7 0;
#X connect 4 1 9 0;
#X connect 5 0 6 0;
#X connect 6 0 0 0;
#X connect 6 0 12 0;
#X connect 7 0 6 0;
#X connect 9 0 5 0;
#X connect 11 0 10 0;
#X connect 12 0 8 0;
#X restore 380 197 pd red_color;
#X obj 115 52 bng 16 250 50 0 \$0-green-s \$0-green-r empty 17 7 0
10 -166441 -233017 -262144;
#X obj 188 54 vsl 12 60 0 127 0 0 \$0-right-s \$0-right-r pd1 0 70
0 10 -262144 -1 -1 0 1;
#X obj 84 54 vsl 12 60 0 127 0 0 \$0-left-s \$0-left-r pd0 0 70 0 10
-262144 -1 -1 0 1;
#X obj 188 36 tgl 12 0 \$0-right-t-s \$0-right-t-r empty 17 7 0 10
-262144 -1 -1 0 1;
#X obj 84 36 tgl 12 0 \$0-left-t-s \$0-left-t-r empty 17 7 0 10 -262144
-1 -1 0 1;
#X msg 584 101 skip_pedal 0 \$1;
#X obj 584 46 r \$0-left-t-s;
#X msg 694 101 skip_pedal 1 \$1;
#X obj 694 46 r \$0-right-t-s;
#X obj 584 73 != 1;
#X obj 694 72 != 1;
#X obj 48 449 outlet;
#X obj 112 449 outlet;
#X obj 180 449 outlet;
#X obj 241 449 outlet;
#X obj 300 449 outlet;
#X obj 368 449 outlet;
#X obj 435 449 outlet;
#X obj 525 449 outlet;
#X obj 221 230 sel 0;
#X msg 221 252 close;
#X msg 276 252 open 3;
#X obj 614 260 loadbang;
#X msg 614 301 label close \, set 1;
#X obj 614 328 s \$0-connect-r;
#X msg 221 278 label open;
#X obj 221 307 s \$0-connect-r;
#X msg 295 278 label close;
#X obj 11 28 cnv 20 60 120 empty empty empty 20 12 0 14 -99865 -66577
0;
#X obj 19 36 tgl 12 0 \$0-connect-s \$0-connect-r close 16 6 0 10 -262144
-1 -262144 1 1;
#X obj 635 391 s \$0-left-t-s;
#X msg 635 366 0;
#X obj 735 391 s \$0-right-t-s;
#X msg 735 366 0;
#X obj 624 128 s \$0-left-t-r;
#X obj 744 128 s \$0-right-t-r;
#X msg 430 84 bang;
#X obj 624 73 f 0;
#X obj 744 73 f 0;
#X obj 430 111 del 2000;
#X obj 109 88 tgl 28 0 \$0-btn0-s \$0-btn0-r b0 9 36 0 10 -262144 -1
-1 0 1;
#X obj 147 88 tgl 28 0 \$0-btn1-s \$0-btn1-r b1 9 36 0 10 -262144 -1
-1 0 1;
#X obj 17 99 hradio 12 1 0 3 \$0-btn0-mode-s \$0-btn0-mode-r b0 40
7 0 10 -262144 -1 -262144 1;
#N canvas 114 114 509 449 b0 0;
#X obj 55 31 inlet;
#X obj 118 57 r \$0-btn0-mode-s;
#X obj 172 361 outlet;
#X msg 55 183 bang;
#X msg 111 224 1;
#X msg 142 224 0;
#X obj 111 256 s \$0-btn0-r;
#X obj 55 159 sel 1;
#X obj 142 200 del 100;
#X obj 55 103 demux . . .;
#X msg 215 198 1;
#X obj 235 260 s \$0-btn0-r;
#X obj 215 159 sel 1;
#X msg 242 198 0;
#X obj 235 229 f;
#X obj 320 160 tgl 15 0 empty empty empty 17 7 0 10 -262144 -1 -1 0
1;
#X obj 320 120 sel 1;
#X obj 357 281 r \$0-ind-s;
#X obj 324 322 spigot;
#X obj 324 253 r \$0-btn0-s;
#X msg 324 353 led_green \$1;
#X obj 324 385 s \$0-arduino;
#X connect 0 0 9 0;
#X connect 1 0 9 1;
#X connect 3 0 4 0;
#X connect 3 0 2 0;
#X connect 3 0 8 0;
#X connect 4 0 6 0;
#X connect 5 0 6 0;
#X connect 7 0 3 0;
#X connect 8 0 5 0;
#X connect 9 0 7 0;
#X connect 9 1 12 0;
#X connect 9 2 16 0;
#X connect 10 0 14 0;
#X connect 12 0 10 0;
#X connect 12 1 13 0;
#X connect 13 0 14 0;
#X connect 14 0 11 0;
#X connect 14 0 2 0;
#X connect 15 0 2 0;
#X connect 15 0 11 0;
#X connect 16 0 15 0;
#X connect 17 0 18 1;
#X connect 18 0 20 0;
#X connect 19 0 18 0;
#X connect 20 0 21 0;
#X restore 48 385 pd b0;
#X obj 17 111 hradio 12 1 0 3 \$0-btn1-mode-s \$0-btn1-mode-r b1 40
7 0 10 -262144 -1 -262144 1;
#N canvas 326 94 509 449 b1 0;
#X obj 55 31 inlet;
#X obj 172 361 outlet;
#X msg 55 183 bang;
#X msg 111 224 1;
#X msg 142 224 0;
#X obj 55 159 sel 1;
#X obj 142 200 del 100;
#X obj 55 103 demux . . .;
#X msg 215 198 1;
#X obj 215 159 sel 1;
#X msg 242 198 0;
#X obj 235 229 f;
#X obj 320 160 tgl 15 0 empty empty empty 17 7 0 10 -262144 -1 -1 0
1;
#X obj 320 120 sel 1;
#X obj 235 260 s \$0-btn1-r;
#X obj 111 256 s \$0-btn1-r;
#X obj 118 57 r \$0-btn1-mode-s;
#X obj 367 291 r \$0-ind-s;
#X obj 334 332 spigot;
#X obj 334 395 s \$0-arduino;
#X obj 334 263 r \$0-btn1-s;
#X msg 334 363 led_red \$1;
#X connect 0 0 7 0;
#X connect 2 0 3 0;
#X connect 2 0 1 0;
#X connect 2 0 6 0;
#X connect 3 0 15 0;
#X connect 4 0 15 0;
#X connect 5 0 2 0;
#X connect 6 0 4 0;
#X connect 7 0 5 0;
#X connect 7 1 9 0;
#X connect 7 2 13 0;
#X connect 8 0 11 0;
#X connect 9 0 8 0;
#X connect 9 1 10 0;
#X connect 10 0 11 0;
#X connect 11 0 1 0;
#X connect 11 0 14 0;
#X connect 12 0 1 0;
#X connect 12 0 14 0;
#X connect 13 0 12 0;
#X connect 16 0 7 1;
#X connect 17 0 18 1;
#X connect 18 0 21 0;
#X connect 20 0 18 0;
#X connect 21 0 19 0;
#X restore 88 385 pd b1;
#X obj 19 63 tgl 12 0 \$0-ind-s \$0-ind-r ind 16 6 0 10 -262144 -1
-262144 1 1;
#X obj 269 115 r \$0-arduino;
#N canvas 238 145 405 299 red_color 0;
#X obj 139 268 s \$0-red-r;
#X msg 189 235 color 13 10 0;
#X obj 139 206 sel 0;
#X msg 89 235 color 1 10 0;
#X obj 139 19 inlet;
#X obj 139 53 route bang;
#X obj 73 70 t b b;
#X msg 108 117 0;
#X obj 139 149 f;
#X msg 73 117 1;
#X msg 320 166 led_red \$1;
#X obj 320 192 outlet;
#X obj 108 94 del 100;
#X connect 1 0 0 0;
#X connect 2 0 3 0;
#X connect 2 1 1 0;
#X connect 3 0 0 0;
#X connect 4 0 5 0;
#X connect 5 0 6 0;
#X connect 5 1 8 0;
#X connect 6 0 9 0;
#X connect 6 1 12 0;
#X connect 7 0 8 0;
#X connect 8 0 2 0;
#X connect 8 0 10 0;
#X connect 9 0 8 0;
#X connect 10 0 11 0;
#X connect 12 0 7 0;
#X restore 313 175 pd red_color;
#X obj 452 295 s \$0-left-r;
#X obj 466 325 s \$0-right-r;
#X obj 180 402 r \$0-left-s;
#X obj 241 382 r \$0-right-s;
#X obj 11 130 cnv 15 198 18 \$0-label-s \$0-label b0 b1 pd0 pd1 ft0 ft1 ft2 ft3
8 9 0 10 -66577 -262144 0;
#X obj 11 208 loadbang;
#X obj 11 308 s \$0-label;
#X obj 11 260 l2s;
#X msg 11 282 label \$1;
#X msg 11 233 b0 b1 pd0 pd1 ft0 ft1 ft2 ft3;
#X obj 390 16 inlet;
#X obj 470 16 inlet;
#X msg 470 45 led_red \$1;
#X msg 390 45 led_green \$1;
#X text 16 82 mode:;
#X connect 1 0 24 0;
#X connect 1 1 25 0;
#X connect 1 2 26 0;
#X connect 1 3 27 0;
#X connect 1 4 52 0;
#X connect 1 5 54 0;
#X connect 1 6 58 0;
#X connect 1 7 59 0;
#X connect 2 0 3 0;
#X connect 3 0 7 0;
#X connect 3 1 4 0;
#X connect 5 0 28 0;
#X connect 7 0 57 0;
#X connect 7 1 8 0;
#X connect 8 0 1 1;
#X connect 14 0 1 1;
#X connect 15 0 18 0;
#X connect 15 0 46 1;
#X connect 16 0 1 1;
#X connect 17 0 19 0;
#X connect 17 0 47 1;
#X connect 18 0 14 0;
#X connect 19 0 16 0;
#X connect 28 0 29 0;
#X connect 28 1 30 0;
#X connect 28 1 36 0;
#X connect 28 1 45 0;
#X connect 29 0 1 0;
#X connect 29 0 34 0;
#X connect 30 0 1 0;
#X connect 31 0 32 0;
#X connect 31 0 40 0;
#X connect 31 0 42 0;
#X connect 32 0 33 0;
#X connect 34 0 35 0;
#X connect 36 0 35 0;
#X connect 40 0 39 0;
#X connect 42 0 41 0;
#X connect 45 0 48 0;
#X connect 46 0 43 0;
#X connect 47 0 44 0;
#X connect 48 0 46 0;
#X connect 48 0 47 0;
#X connect 52 0 20 0;
#X connect 54 0 21 0;
#X connect 56 0 7 0;
#X connect 57 0 1 1;
#X connect 60 0 22 0;
#X connect 61 0 23 0;
#X connect 63 0 67 0;
#X connect 65 0 66 0;
#X connect 66 0 64 0;
#X connect 67 0 65 0;
#X connect 68 0 71 0;
#X connect 69 0 70 0;
#X connect 70 0 7 0;
#X connect 71 0 7 0;
#X coords 0 -1 1 1 200 140 1 10 10;
