#N canvas 389 150 692 329 10;
#X obj 31 48 cnv 15 98 100 empty empty empty 20 12 0 14 -66577 -66577
0;
#X obj 252 28 inlet~;
#X obj 252 287 outlet bang;
#X obj 252 225 sp-attack-detector 50 75;
#X obj 110 223 - 100;
#X obj 178 198 pvu~;
#X obj 80 52 nbx 4 14 -1e+37 1e+37 0 0 \$0-level-s \$0-level-r vu -16
7 0 10 -128992 -262144 -204786 -47.9151 256;
#X obj 80 68 nbx 4 14 -1e+37 1e+37 0 0 \$0-peak-s \$0-peak-r peak -26
7 0 10 -128992 -262144 -261234 -35.5169 256;
#X obj 110 198 env~ 8192;
#X obj 37 53 bng 16 100 50 0 \$0-attack-ind-s \$0-attack-ind-r empty
17 7 0 10 -128992 -260097 -1;
#X obj 266 258 s \$0-attack-ind-r;
#X obj 66 118 nbx 4 19 -199 20 0 0 \$0-lhyst-s \$0-lhyst-r low -30
10 0 13 -228856 -260097 -262144 -50 256;
#X obj 66 90 nbx 4 19 -199 20 0 0 \$0-uhyst-s \$0-uhyst-r up -30 10
0 13 -228856 -260097 -262144 -30 256;
#X obj 322 167 r \$0-lhyst-s;
#X obj 322 191 + 100;
#X obj 402 191 + 100;
#X obj 402 167 r \$0-rhyst-s;
#N canvas 558 87 348 245 param 0;
#X obj 24 45 tof/param /\$1/attack-detect/hlower -50;
#X obj 249 14 r \$0-lhyst-s;
#X obj 24 76 change;
#X obj 24 107 s \$0-lhyst-r;
#X obj 24 176 change;
#X obj 24 145 tof/param /\$1/attack-detect/hupper -30;
#X obj 249 114 r \$0-uhyst-s;
#X obj 24 207 s \$0-uhyst-r;
#X connect 0 0 2 0;
#X connect 1 0 0 1;
#X connect 2 0 3 0;
#X connect 4 0 7 0;
#X connect 5 0 4 0;
#X connect 6 0 5 1;
#X restore 32 289 pd param;
#X obj 462 33 inlet control;
#X obj 462 57 route attack;
#X obj 531 286 outlet control_bus;
#X obj 462 84 route save restore;
#X obj 462 116 sp-param-file;
#X connect 1 0 3 0;
#X connect 1 0 5 0;
#X connect 1 0 8 0;
#X connect 3 0 2 0;
#X connect 3 0 10 0;
#X connect 4 0 6 0;
#X connect 5 0 7 0;
#X connect 8 0 4 0;
#X connect 13 0 14 0;
#X connect 14 0 3 1;
#X connect 15 0 3 2;
#X connect 16 0 15 0;
#X connect 18 0 19 0;
#X connect 19 0 21 0;
#X connect 19 1 20 0;
#X connect 21 0 22 0;
#X connect 21 1 22 1;
#X coords 0 -1 1 1 100 120 1 30 30;
