#N canvas 50 87 841 461 10;
#X obj 101 38 inlet~;
#X obj 101 300 outlet~;
#X obj 135 8 inlet~;
#X obj 135 330 outlet~;
#X obj 303 46 route mix mix2;
#X obj 560 23 loadbang;
#X obj 303 114 route 0 1;
#X msg 560 49 0 label ch1 \, 1 label ch2;
#X obj 338 80 r sp-\$1;
#X obj 621 165 print [sp-gmix2~] unknown command;
#X obj 135 103 sp-gmix~ \$1-ch2;
#X obj 160 66 r \$0-ctrl-all;
#X obj 398 406 s \$0-ctrl-all;
#N canvas 439 124 206 371 solo 0;
#X obj 49 32 inlet;
#X obj 82 339 outlet;
#X obj 82 180 ==;
#X obj 82 205 sel 1;
#X obj 82 252 f;
#X obj 118 251 f;
#X msg 82 308 \$1 mute 0;
#X msg 118 279 \$1 mute 1;
#X obj 82 123 - 1;
#X msg 82 228 bang;
#X msg 118 228 bang;
#X obj 82 154 t f f f;
#X obj 49 63 t b f;
#X obj 49 93 Uzi 2;
#X connect 0 0 12 0;
#X connect 2 0 3 0;
#X connect 3 0 9 0;
#X connect 3 1 10 0;
#X connect 4 0 6 0;
#X connect 5 0 7 0;
#X connect 6 0 1 0;
#X connect 7 0 1 0;
#X connect 8 0 11 0;
#X connect 9 0 4 0;
#X connect 10 0 5 0;
#X connect 11 0 2 0;
#X connect 11 1 4 1;
#X connect 11 2 5 1;
#X connect 12 0 13 0;
#X connect 12 1 2 1;
#X connect 13 2 8 0;
#X restore 354 167 pd solo;
#X msg 487 165 0 mute \$1 \, 1 mute \$1;
#X msg 532 189 0 volume \$1 \, 1 volume \$1;
#X obj 398 323 list prepend save;
#X obj 443 263 list prepend restore;
#X obj 101 103 sp-gmix~ ch1-\$1;
#X obj 398 352 list trim;
#X obj 443 292 list trim;
#X obj 354 137 route solo save restore mute volume midilearn;
#X obj 384 427 outlet ctrl-bus;
#X obj 303 22 inlet control;
#X msg 576 212 0 midilearn \$1 \, 1 midilearn \$1;
#X obj 410 61 r \$0-route;
#X obj 532 234 s \$0-route;
#X obj 354 196 s \$0-route;
#X connect 0 0 18 0;
#X connect 2 0 10 0;
#X connect 4 0 6 0;
#X connect 4 1 6 0;
#X connect 4 2 22 0;
#X connect 5 0 7 0;
#X connect 6 0 18 1;
#X connect 6 1 10 1;
#X connect 6 2 21 0;
#X connect 7 0 6 0;
#X connect 8 0 6 0;
#X connect 10 0 3 0;
#X connect 11 0 10 1;
#X connect 11 0 18 1;
#X connect 13 0 27 0;
#X connect 14 0 26 0;
#X connect 15 0 26 0;
#X connect 16 0 19 0;
#X connect 17 0 20 0;
#X connect 18 0 1 0;
#X connect 19 0 12 0;
#X connect 20 0 12 0;
#X connect 21 0 13 0;
#X connect 21 1 16 0;
#X connect 21 2 17 0;
#X connect 21 3 14 0;
#X connect 21 4 15 0;
#X connect 21 5 24 0;
#X connect 21 6 9 0;
#X connect 23 0 4 0;
#X connect 24 0 26 0;
#X connect 25 0 6 0;
#X coords 0 -1 1 1 68 185 2 100 100;
