#N canvas 119 91 898 506 10;
#X obj 129 51 inlet~;
#X obj 129 188 outlet~;
#X obj 129 135 sp-mix~;
#X obj 21 21 cnv 15 30 178 empty \$0-cnv-r empty 20 12 0 14 -99865
-262144 0;
#X obj 26 45 vsl 10 119 0 2 0 0 \$0-vol-s \$0-vol-r empty 0 -9 0 10
-228856 -257985 -262144 1180 1;
#X obj 37 45 vu 8 120 \$0-vu-r empty -1 -8 0 10 -66577 -1 0 0;
#X obj 18 402 sel 0;
#X obj 414 19 loadbang;
#X obj 36 27 tgl 10 0 \$0-mute-s \$0-mute-r M -8 5 0 10 -225271 -1
-262144 0 1;
#X obj 334 148 s \$0-mute-r;
#X obj 367 178 s \$0-vol-r;
#X msg 152 104 volume \$1;
#X obj 152 80 r \$0-vol-s;
#X obj 225 80 r \$0-mute-s;
#X msg 225 103 mute \$1;
#X obj 18 460 s \$0-mute-r;
#X msg 18 429 color 6;
#X msg 84 429 color 13;
#X obj 401 333 s \$0-cnv-r;
#X obj 21 184 cnv 15 30 15 empty \$0-cnv-label-r mono 5 5 0 10 -99865
-262144 0;
#X obj 473 333 s \$0-cnv-label-r;
#X obj 435 272 s \$0-cnv-label-r;
#X msg 435 236 label \$1;
#X obj 435 212 l2s;
#X msg 401 306 color \$1 \$2;
#X obj 18 226 r \$0-vol-s;
#X obj 18 257 sprintf %03.1f;
#X msg 18 314 label \$1;
#X obj 18 284 l2s;
#X obj 24 169 cnv 12 20 12 empty \$0-ind-r 0.2 3 6 0 10 -99865 -262144
0;
#X obj 18 339 s \$0-ind-r;
#X obj 329 333 s \$0-ind-r;
#X msg 414 45 mute 0 \, volume 1 \, label mono \, color 21 0;
#X obj 18 374 r \$0-mute-s;
#X obj 673 156 print [sp-gmix~] unknown command;
#X obj 469 148 sp-param-file;
#N canvas 291 329 515 191 env 0;
#X obj 52 100 - 100;
#X obj 52 72 env~ 16392;
#X obj 129 72 pvu~;
#X obj 52 35 inlet~;
#X obj 129 145 outlet peak;
#X obj 52 145 outlet rms;
#X obj 214 35 inlet;
#X obj 214 124 switch~;
#X obj 214 63 sel 0;
#X msg 214 94 1;
#X msg 251 94 0;
#X msg 286 94 -100;
#X connect 0 0 5 0;
#X connect 1 0 0 0;
#X connect 2 0 4 0;
#X connect 3 0 1 0;
#X connect 3 0 2 0;
#X connect 6 0 8 0;
#X connect 8 0 9 0;
#X connect 8 1 10 0;
#X connect 8 1 11 0;
#X connect 9 0 7 0;
#X connect 10 0 7 0;
#X connect 11 0 5 0;
#X restore 250 152 pd env;
#N canvas 516 93 384 315 midi 0;
#X obj 28 26 ctlin;
#X obj 28 147 spigot;
#X obj 41 65 == -1;
#X obj 28 176 / 127;
#X obj 28 236 line;
#X obj 28 266 s \$0-vol-r;
#X msg 28 210 \$1 50;
#X obj 81 26 r \$0-midi-learn;
#X connect 0 0 1 0;
#X connect 0 1 2 0;
#X connect 1 0 3 0;
#X connect 2 0 1 1;
#X connect 3 0 6 0;
#X connect 4 0 5 0;
#X connect 6 0 4 0;
#X connect 7 0 2 1;
#X restore 808 282 pd midi;
#N canvas 359 408 646 300 param 0;
#X obj 28 109 s \$0-vol-r;
#X obj 187 30 r \$0-vol-s;
#X obj 187 57 change;
#X obj 28 189 s \$0-mute-r;
#X obj 175 142 change;
#X obj 175 120 r \$0-mute-s;
#X obj 28 86 tof/param /gmix/\$1/volume 1;
#X obj 28 165 tof/param /gmix/\$1/mute 1;
#X obj 461 30 r \$0-midi-learn;
#X obj 278 85 tof/param /gmix/\$1/midilearn -1;
#X obj 278 109 s \$0-midi-learn;
#X obj 461 57 change;
#X connect 1 0 2 0;
#X connect 2 0 6 1;
#X connect 4 0 7 1;
#X connect 5 0 4 0;
#X connect 6 0 0 0;
#X connect 7 0 3 0;
#X connect 8 0 11 0;
#X connect 9 0 10 0;
#X connect 11 0 9 1;
#X restore 808 317 pd param;
#X obj 334 19 inlet ctrl;
#X obj 537 199 s \$0-midi-learn;
#N canvas 723 250 450 300 vol 0;
#X obj 51 36 inlet;
#X obj 51 114 +;
#X obj 87 113 f;
#X obj 102 69 r \$0-vol-r;
#X obj 51 165 s \$0-vol-s;
#X obj 183 36 loadbang;
#X obj 183 66 del 10;
#X obj 121 39 inlet;
#X connect 0 0 1 0;
#X connect 1 0 2 0;
#X connect 1 0 4 0;
#X connect 2 0 1 1;
#X connect 3 0 2 1;
#X connect 5 0 6 0;
#X connect 6 0 2 0;
#X connect 7 0 2 1;
#X restore 571 265 pd vol;
#X obj 605 238 * -1;
#X obj 334 81 route mute volume color label save restore midilearn
vol+ vol- fade;
#X obj 639 127 s \$0-fade;
#X obj 195 20 r \$0-fade;
#X msg 690 34 fade 0 1000;
#X msg 195 46 fade \$1 \$2;
#X msg 168 229 set \$1;
#X connect 0 0 2 0;
#X connect 2 0 1 0;
#X connect 2 0 36 0;
#X connect 2 1 48 0;
#X connect 2 1 26 0;
#X connect 2 1 41 1;
#X connect 6 0 16 0;
#X connect 6 1 17 0;
#X connect 7 0 32 0;
#X connect 11 0 2 1;
#X connect 12 0 11 0;
#X connect 13 0 14 0;
#X connect 13 0 36 1;
#X connect 14 0 2 1;
#X connect 16 0 15 0;
#X connect 17 0 15 0;
#X connect 22 0 21 0;
#X connect 23 0 22 0;
#X connect 24 0 18 0;
#X connect 24 0 20 0;
#X connect 24 0 31 0;
#X connect 25 0 26 0;
#X connect 26 0 28 0;
#X connect 27 0 30 0;
#X connect 28 0 27 0;
#X connect 32 0 43 0;
#X connect 33 0 6 0;
#X connect 36 0 5 0;
#X connect 36 1 5 1;
#X connect 39 0 43 0;
#X connect 42 0 41 0;
#X connect 43 0 9 0;
#X connect 43 1 10 0;
#X connect 43 2 24 0;
#X connect 43 3 23 0;
#X connect 43 4 35 0;
#X connect 43 5 35 1;
#X connect 43 6 40 0;
#X connect 43 7 41 0;
#X connect 43 8 42 0;
#X connect 43 9 44 0;
#X connect 43 10 34 0;
#X connect 45 0 47 0;
#X connect 46 0 43 0;
#X connect 47 0 2 1;
#X connect 48 0 4 0;
#X coords 0 -1 1 1 32 180 2 20 20;
