#N canvas 174 22 836 560 10;
#X obj 79 38 inlet~;
#X obj 79 168 outlet~;
#X obj 248 19 inlet;
#X obj 21 21 cnv 15 38 178 empty \$0-cnv-r empty 20 12 0 14 -128992
-262144 0;
#X obj 35 43 vsl 10 119 0 1.8 0 0 \$0-vol-s \$0-vol-r empty 0 -9 0
10 -228856 -257985 -262144 6556 1;
#X obj 46 43 vu 8 120 \$0-vu-right-r empty -1 -8 0 10 -66577 -1 0 0
;
#X obj 394 141 sel 0;
#X obj 304 19 loadbang;
#X obj 35 26 tgl 10 0 \$0-mute-s \$0-mute-r M -8 5 0 10 -225271 -1
-262144 0 1;
#X msg 511 45 mute \$1;
#X obj 511 19 r \$0-mute-s;
#X msg 304 137 set \$1;
#X obj 304 168 s \$0-mute-r;
#X obj 345 288 s \$0-vol-r;
#X msg 151 104 volume \$1;
#X obj 151 80 r \$0-vol-s;
#X obj 225 80 r \$0-mute-s;
#X msg 225 103 mute \$1;
#X obj 394 199 s \$0-mute-r;
#X msg 394 168 color 6;
#X msg 460 168 color 13;
#X obj 304 113 route float bang;
#X obj 387 373 s \$0-cnv-r;
#X obj 21 184 cnv 15 38 16 empty \$0-cnv-label-r l_-_r 6 4 0 10 -128992
-262144 0;
#X obj 459 373 s \$0-cnv-label-r;
#X obj 428 302 s \$0-cnv-label-r;
#X msg 428 275 label \$1;
#X obj 428 252 l2s;
#X msg 387 346 color \$1 \$2;
#X obj 26 43 vu 8 120 \$0-vu-left-r empty -1 -8 0 10 -66577 -1 0 0
;
#X obj 129 38 inlet~;
#X obj 79 135 sp-smix~;
#X obj 160 168 outlet~;
#X obj 182 274 s \$0-vu-right-r;
#N canvas 673 276 450 300 env 0;
#X obj 30 25 inlet~;
#X obj 30 85 - 100;
#X obj 30 55 env~ 8192;
#X obj 75 142 max;
#X obj 121 142 - 0.05;
#X obj 30 169 pack f f;
#X obj 30 120 t f f;
#X obj 30 201 outlet;
#X connect 0 0 2 0;
#X connect 1 0 6 0;
#X connect 2 0 1 0;
#X connect 3 0 4 0;
#X connect 3 0 5 1;
#X connect 4 0 3 1;
#X connect 5 0 7 0;
#X connect 6 0 5 0;
#X connect 6 1 3 0;
#X restore 64 230 pd env;
#X obj 64 274 s \$0-vu-left-r;
#N canvas 673 276 450 300 env 0;
#X obj 30 25 inlet~;
#X obj 30 85 - 100;
#X obj 30 55 env~ 8192;
#X obj 75 142 max;
#X obj 121 142 - 0.05;
#X obj 30 169 pack f f;
#X obj 30 120 t f f;
#X obj 30 201 outlet;
#X connect 0 0 2 0;
#X connect 1 0 6 0;
#X connect 2 0 1 0;
#X connect 3 0 4 0;
#X connect 3 0 5 1;
#X connect 4 0 3 1;
#X connect 5 0 7 0;
#X connect 6 0 5 0;
#X connect 6 1 3 0;
#X restore 182 230 pd env;
#X obj 27 168 cnv 12 25 12 empty \$0-ind-r 1 3 6 0 10 -128992 -1 0
;
#X obj 63 328 r \$0-vol-s;
#X msg 63 407 label \$1;
#X obj 63 432 s \$0-ind-r;
#X obj 63 381 l2s;
#X obj 63 357 sprintf %04.2f;
#X obj 318 373 s \$0-ind-r;
#X msg 304 45 mute 0 \, volume 1 \, label l - r;
#X obj 304 81 route mute volume color label save restore;
#X obj 553 116 print [sp-gsmix~] unknown command;
#X obj 470 144 sp-param-file;
#N canvas 572 119 281 250 param 0;
#X obj 186 27 r \$0-vol-s;
#X obj 186 59 change;
#X obj 21 92 tof/param /gsmix/\$1/volume 1;
#X obj 21 126 s \$0-vol-r;
#X obj 21 182 tof/param /gsmix/\$1/mute 0;
#X obj 174 155 change;
#X obj 174 130 r \$0-mute-s;
#X obj 21 211 s \$0-mute-r;
#X connect 0 0 1 0;
#X connect 1 0 2 1;
#X connect 2 0 3 0;
#X connect 4 0 7 0;
#X connect 5 0 4 1;
#X connect 6 0 5 0;
#X restore 175 443 pd param;
#X connect 0 0 31 0;
#X connect 2 0 45 0;
#X connect 6 0 19 0;
#X connect 6 1 20 0;
#X connect 7 0 44 0;
#X connect 9 0 45 0;
#X connect 10 0 9 0;
#X connect 11 0 12 0;
#X connect 14 0 31 2;
#X connect 15 0 14 0;
#X connect 16 0 17 0;
#X connect 17 0 31 2;
#X connect 19 0 18 0;
#X connect 20 0 18 0;
#X connect 21 0 11 0;
#X connect 21 0 6 0;
#X connect 21 1 12 0;
#X connect 26 0 25 0;
#X connect 27 0 26 0;
#X connect 28 0 22 0;
#X connect 28 0 24 0;
#X connect 28 0 43 0;
#X connect 30 0 31 1;
#X connect 31 0 1 0;
#X connect 31 0 34 0;
#X connect 31 1 32 0;
#X connect 31 1 36 0;
#X connect 34 0 35 0;
#X connect 36 0 33 0;
#X connect 38 0 42 0;
#X connect 39 0 40 0;
#X connect 41 0 39 0;
#X connect 42 0 41 0;
#X connect 44 0 45 0;
#X connect 45 0 21 0;
#X connect 45 1 13 0;
#X connect 45 2 28 0;
#X connect 45 3 27 0;
#X connect 45 4 47 0;
#X connect 45 5 47 1;
#X connect 45 6 46 0;
#X coords 0 -1 1 1 40 180 2 20 20;
