#N canvas 86 83 928 439 10;
#X obj 151 23 cnv 10 166 14 \$0-cnv-s \$0-cnv-r empty 20 12 0 14 -128992
-66577 0;
#X obj 150 24 tgl 12 0 \$0-ch1-s \$0-ch1-r empty 17 7 0 10 -225271
-1 -262144 1 1;
#X obj 170 24 tgl 12 0 \$0-ch2-s \$0-ch2-r empty 17 7 0 10 -225271
-1 -262144 1 1;
#X obj 306 26 bng 8 250 50 0 \$0-tgl-s \$0-tgl-r empty 17 7 0 10 -203904
-1 -1;
#X obj 189 24 tgl 12 0 \$0-ch3-s \$0-ch3-r empty 17 7 0 10 -225271
-1 -262144 1 1;
#X obj 209 24 tgl 12 0 \$0-ch4-s \$0-ch4-r empty 17 7 0 10 -225271
-1 -262144 1 1;
#X obj 230 24 tgl 12 0 \$0-ch5-s \$0-ch5-r empty 17 7 0 10 -225271
-1 -262144 1 1;
#X obj 249 24 tgl 12 0 \$0-ch6-s \$0-ch6-r empty 17 7 0 10 -225271
-1 -262144 1 1;
#X obj 269 24 tgl 12 0 \$0-ch7-s \$0-ch7-r empty 17 7 0 10 -225271
-1 -262144 1 1;
#X obj 289 24 tgl 12 0 \$0-ch8-s \$0-ch8-r empty 17 7 0 10 -225271
-1 -262144 1 1;
#X obj 89 244 inlet~;
#X obj 111 264 inlet~;
#X obj 89 342 outlet~;
#X obj 115 371 outlet~;
#X obj 680 104 inlet;
#X obj 64 130 r \$0-ch1-s;
#X obj 134 130 r \$0-ch2-s;
#X obj 621 283 expr \$0 \; $f1 \; $f2 \;;
#X obj 621 333 pack f f f;
#X msg 621 357 \; \$1-ch\$2-r color \$3;
#X obj 678 228 sel 0;
#X obj 621 203 unpack f f;
#X msg 678 257 13;
#X msg 710 257 6;
#X obj 762 247 unpack f f;
#X obj 762 329 pack f f f;
#X msg 64 158 1 \$1;
#X msg 134 158 2 \$1;
#X obj 134 186 list;
#X obj 762 277 expr \$0 \; $f1 \; $f2 \;;
#X msg 762 356 \; \$1-ch\$2-r \$3;
#X obj 735 148 r \$0-tgl-s;
#X msg 762 211 \$1 0;
#X msg 842 211 \$1 1;
#X obj 815 148 loadbang;
#X obj 141 342 outlet~;
#X obj 167 371 outlet~;
#X obj 134 244 inlet~;
#X obj 157 264 inlet~;
#X msg 274 158 4 \$1;
#X msg 204 158 3 \$1;
#X obj 204 130 r \$0-ch3-s;
#X obj 274 130 r \$0-ch4-s;
#X msg 344 158 5 \$1;
#X msg 414 158 6 \$1;
#X msg 484 158 7 \$1;
#X msg 554 158 8 \$1;
#X obj 89 293 sp-hub8~ ......................;
#X obj 193 342 outlet~;
#X obj 219 371 outlet~;
#X obj 245 342 outlet~;
#X obj 272 371 outlet~;
#X obj 180 244 inlet~;
#X obj 203 264 inlet~;
#X obj 226 244 inlet~;
#X obj 249 264 inlet~;
#X obj 735 184 Uzi 8;
#X obj 815 184 Uzi 8;
#X obj 344 130 r \$0-ch5-s;
#X obj 414 130 r \$0-ch6-s;
#X obj 484 130 r \$0-ch7-s;
#X obj 554 130 r \$0-ch8-s;
#X connect 10 0 47 0;
#X connect 11 0 47 1;
#X connect 14 0 28 0;
#X connect 14 0 24 0;
#X connect 15 0 26 0;
#X connect 16 0 27 0;
#X connect 17 0 18 0;
#X connect 17 1 18 1;
#X connect 17 2 18 2;
#X connect 18 0 19 0;
#X connect 20 0 22 0;
#X connect 20 1 23 0;
#X connect 21 0 17 0;
#X connect 21 1 20 0;
#X connect 22 0 17 1;
#X connect 23 0 17 1;
#X connect 24 0 29 0;
#X connect 24 1 29 1;
#X connect 25 0 30 0;
#X connect 26 0 28 0;
#X connect 27 0 28 0;
#X connect 28 0 21 0;
#X connect 28 0 47 8;
#X connect 29 0 25 0;
#X connect 29 1 25 1;
#X connect 29 2 25 2;
#X connect 31 0 56 0;
#X connect 32 0 24 0;
#X connect 33 0 24 0;
#X connect 34 0 57 0;
#X connect 37 0 47 2;
#X connect 38 0 47 3;
#X connect 39 0 28 0;
#X connect 40 0 28 0;
#X connect 41 0 40 0;
#X connect 42 0 39 0;
#X connect 43 0 28 0;
#X connect 44 0 28 0;
#X connect 45 0 28 0;
#X connect 46 0 28 0;
#X connect 47 0 12 0;
#X connect 47 1 13 0;
#X connect 47 2 35 0;
#X connect 47 3 36 0;
#X connect 47 4 48 0;
#X connect 47 5 49 0;
#X connect 47 6 50 0;
#X connect 47 7 51 0;
#X connect 52 0 47 4;
#X connect 53 0 47 5;
#X connect 54 0 47 6;
#X connect 55 0 47 7;
#X connect 56 2 32 0;
#X connect 57 2 33 0;
#X connect 58 0 43 0;
#X connect 59 0 44 0;
#X connect 60 0 45 0;
#X connect 61 0 46 0;
#X coords 0 -1 1 1 168 19 2 150 20;
