#N canvas 59 91 993 420 10;
#X obj 31 47 cnv 15 198 80 empty empty empty 20 12 0 14 -4117 -262144
0;
#X obj 253 224 outlet~;
#X obj 253 37 inlet~ sig;
#X obj 253 125 sp-aosc~ 440 12;
#X obj 38 57 vsl 8 60 0 1 0 0 \$0-p1-s \$0-p1-r empty 0 -9 0 10 -262144
-1 -1 5900 1;
#X obj 46 57 vsl 8 60 0 1 0 0 \$0-p2-s \$0-p2-r empty 0 -9 0 10 -262144
-1 -1 0 1;
#X obj 54 57 vsl 8 60 0 1 0 0 \$0-p3-s \$0-p3-r empty 0 -9 0 10 -262144
-1 -1 5900 1;
#X obj 62 57 vsl 8 60 0 1 0 0 \$0-p4-s \$0-p4-r empty 0 -9 0 10 -262144
-1 -1 0 1;
#X obj 70 57 vsl 8 60 0 1 0 0 \$0-p5-s \$0-p5-r empty 0 -9 0 10 -262144
-1 -1 5900 1;
#X obj 78 57 vsl 8 60 0 1 0 0 \$0-p6-s \$0-p6-r empty 0 -9 0 10 -262144
-1 -1 0 1;
#X obj 86 57 vsl 8 60 0 1 0 0 \$0-p7-s \$0-p7-r empty 0 -9 0 10 -262144
-1 -1 5900 1;
#X obj 94 57 vsl 8 60 0 1 0 0 \$0-p8-s \$0-p8-r empty 0 -9 0 10 -262144
-1 -1 0 1;
#X obj 102 57 vsl 8 60 0 1 0 0 \$0-p9-s \$0-p9-r empty 0 -9 0 10 -262144
-1 -1 5900 1;
#X obj 110 57 vsl 8 60 0 1 0 0 \$0-p10-s \$0-p10-r empty 0 -9 0 10
-262144 -1 -1 0 1;
#X obj 118 57 vsl 8 60 0 1 0 0 \$0-p11-s \$0-p11-r empty 0 -9 0 10
-262144 -1 -1 5900 1;
#X obj 126 57 vsl 8 60 0 1 0 0 \$0-p12-s \$0-p12-r empty 0 -9 0 10
-262144 -1 -1 0 1;
#N canvas 38 177 1031 451 partials 0;
#X obj 39 19 r \$0-p1-s;
#X obj 59 366 outlet;
#X obj 39 116 list prepend 1;
#X obj 59 331 list trim;
#X obj 189 116 list prepend 2;
#X obj 339 116 list prepend 3;
#X obj 489 116 list prepend 4;
#X obj 639 116 list prepend 5;
#X obj 789 116 list prepend 6;
#X obj 89 246 list prepend 7;
#X obj 239 246 list prepend 8;
#X obj 389 246 list prepend 9;
#X obj 539 246 list prepend 10;
#X obj 689 246 list prepend 11;
#X obj 839 246 list prepend 12;
#X obj 39 72 line;
#X obj 39 46 list append;
#X obj 39 93 sqrt;
#X obj 102 19 r \$0-trans-s;
#X obj 189 72 line;
#X obj 189 46 list append;
#X obj 189 93 sqrt;
#X obj 252 19 r \$0-trans-s;
#X obj 189 19 r \$0-p2-s;
#X obj 339 72 line;
#X obj 339 46 list append;
#X obj 339 93 sqrt;
#X obj 402 19 r \$0-trans-s;
#X obj 339 19 r \$0-p3-s;
#X obj 489 72 line;
#X obj 489 46 list append;
#X obj 489 93 sqrt;
#X obj 552 19 r \$0-trans-s;
#X obj 639 72 line;
#X obj 639 46 list append;
#X obj 639 93 sqrt;
#X obj 702 19 r \$0-trans-s;
#X obj 789 72 line;
#X obj 789 46 list append;
#X obj 789 93 sqrt;
#X obj 852 19 r \$0-trans-s;
#X obj 489 19 r \$0-p4-s;
#X obj 89 202 line;
#X obj 89 176 list append;
#X obj 89 223 sqrt;
#X obj 152 149 r \$0-trans-s;
#X obj 239 202 line;
#X obj 239 176 list append;
#X obj 239 223 sqrt;
#X obj 302 149 r \$0-trans-s;
#X obj 389 202 line;
#X obj 389 176 list append;
#X obj 389 223 sqrt;
#X obj 452 149 r \$0-trans-s;
#X obj 539 202 line;
#X obj 539 176 list append;
#X obj 539 223 sqrt;
#X obj 606 149 r \$0-trans-s;
#X obj 689 202 line;
#X obj 689 176 list append;
#X obj 689 223 sqrt;
#X obj 755 149 r \$0-trans-s;
#X obj 839 202 line;
#X obj 839 176 list append;
#X obj 839 223 sqrt;
#X obj 906 149 r \$0-trans-s;
#X obj 89 149 r \$0-p7-s;
#X obj 239 149 r \$0-p8-s;
#X obj 389 149 r \$0-p9-s;
#X obj 539 149 r \$0-p10-s;
#X obj 689 149 r \$0-p11-s;
#X obj 839 149 r \$0-p12-s;
#X obj 639 19 r \$0-p5-s;
#X obj 789 19 r \$0-p6-s;
#X connect 0 0 16 0;
#X connect 2 0 3 0;
#X connect 3 0 1 0;
#X connect 4 0 3 0;
#X connect 5 0 3 0;
#X connect 6 0 3 0;
#X connect 7 0 3 0;
#X connect 8 0 3 0;
#X connect 9 0 3 0;
#X connect 10 0 3 0;
#X connect 11 0 3 0;
#X connect 12 0 3 0;
#X connect 13 0 3 0;
#X connect 14 0 3 0;
#X connect 15 0 17 0;
#X connect 16 0 15 0;
#X connect 17 0 2 0;
#X connect 18 0 16 1;
#X connect 19 0 21 0;
#X connect 20 0 19 0;
#X connect 21 0 4 0;
#X connect 22 0 20 1;
#X connect 23 0 20 0;
#X connect 24 0 26 0;
#X connect 25 0 24 0;
#X connect 26 0 5 0;
#X connect 27 0 25 1;
#X connect 28 0 25 0;
#X connect 29 0 31 0;
#X connect 30 0 29 0;
#X connect 31 0 6 0;
#X connect 32 0 30 1;
#X connect 33 0 35 0;
#X connect 34 0 33 0;
#X connect 35 0 7 0;
#X connect 36 0 34 1;
#X connect 37 0 39 0;
#X connect 38 0 37 0;
#X connect 39 0 8 0;
#X connect 40 0 38 1;
#X connect 41 0 30 0;
#X connect 42 0 44 0;
#X connect 43 0 42 0;
#X connect 44 0 9 0;
#X connect 45 0 43 1;
#X connect 46 0 48 0;
#X connect 47 0 46 0;
#X connect 48 0 10 0;
#X connect 49 0 47 1;
#X connect 50 0 52 0;
#X connect 51 0 50 0;
#X connect 52 0 11 0;
#X connect 53 0 51 1;
#X connect 54 0 56 0;
#X connect 55 0 54 0;
#X connect 56 0 12 0;
#X connect 57 0 55 1;
#X connect 58 0 60 0;
#X connect 59 0 58 0;
#X connect 60 0 13 0;
#X connect 61 0 59 1;
#X connect 62 0 64 0;
#X connect 63 0 62 0;
#X connect 64 0 14 0;
#X connect 65 0 63 1;
#X connect 66 0 43 0;
#X connect 67 0 47 0;
#X connect 68 0 51 0;
#X connect 69 0 55 0;
#X connect 70 0 59 0;
#X connect 71 0 63 0;
#X connect 72 0 34 0;
#X connect 73 0 38 0;
#X restore 340 81 pd partials;
#X obj 431 35 inlet control;
#X obj 431 61 route aosc;
#N canvas 76 105 389 548 process_partials 0;
#X obj 40 32 inlet;
#X obj 40 62 list prepend \$0;
#X obj 40 89 list trim;
#X msg 40 128 \; \$1-p\$2-r \$3;
#X obj 168 32 inlet;
#X obj 168 153 until;
#X obj 203 184 + 1;
#X obj 168 94 zl len;
#X obj 168 272 zl nth;
#X obj 168 246 list;
#X obj 168 211 t b f;
#X obj 168 58 t a a;
#X obj 168 120 t f b f;
#X obj 168 184 f 1;
#X msg 216 153 1;
#X obj 135 391 pack f f;
#X obj 135 351 spigot;
#X obj 168 298 t f f;
#X obj 168 327 != -1;
#X connect 0 0 1 0;
#X connect 1 0 2 0;
#X connect 2 0 3 0;
#X connect 4 0 11 0;
#X connect 5 0 13 0;
#X connect 6 0 13 1;
#X connect 7 0 12 0;
#X connect 8 0 17 0;
#X connect 9 0 8 0;
#X connect 10 0 9 0;
#X connect 10 1 8 1;
#X connect 11 0 7 0;
#X connect 11 1 9 1;
#X connect 12 0 5 0;
#X connect 12 1 14 0;
#X connect 13 0 6 0;
#X connect 13 0 10 0;
#X connect 13 0 16 0;
#X connect 14 0 13 1;
#X connect 15 0 1 0;
#X connect 16 0 15 0;
#X connect 17 0 18 0;
#X connect 17 1 15 1;
#X connect 18 0 16 1;
#X restore 431 351 pd process_partials;
#X obj 536 35 loadbang;
#X obj 488 273 outlet control;
#X msg 496 165 0 0 0 0 0 0 0 0 0 0 0 0;
#X msg 561 224 -1 \$1 -1 \$1 -1 \$1 -1 \$1 -1 \$1 -1 \$1;
#X msg 529 195 -1 -1 \$1 -1 \$1 -1 \$1 -1 \$1 -1 \$1;
#X obj 214 58 bng 12 250 50 0 \$0-rand-s \$0-rand-r rand: -32 6 0 10
-262144 -260097 -262144;
#X obj 42 180 r \$0-rand-s;
#N canvas 397 166 476 410 rand 0;
#X obj 52 27 inlet;
#X msg 52 83 12;
#X obj 52 109 until;
#X obj 52 55 t b b;
#X obj 52 143 f 1;
#X msg 95 83 1;
#X obj 91 142 + 1;
#X obj 52 260 pack f f;
#X obj 79 222 / 1000;
#X obj 79 199 random 1001;
#X obj 52 292 list prepend \$0;
#X obj 52 318 list trim;
#X obj 52 170 t f b;
#X msg 52 345 \; \$1-p\$2-r \$3;
#X connect 0 0 3 0;
#X connect 1 0 2 0;
#X connect 2 0 4 0;
#X connect 3 0 1 0;
#X connect 3 1 5 0;
#X connect 4 0 6 0;
#X connect 4 0 12 0;
#X connect 5 0 4 1;
#X connect 6 0 4 1;
#X connect 7 0 10 0;
#X connect 8 0 7 1;
#X connect 9 0 8 0;
#X connect 10 0 11 0;
#X connect 11 0 13 0;
#X connect 12 0 7 0;
#X connect 12 1 9 0;
#X restore 42 207 pd rand;
#X obj 594 256 s \$0-rand-r;
#X msg 627 310 1 0 0.57735 0 0.447214 0 0.377964 0 0.333333 0 0.301511
0;
#X obj 171 78 nbx 5 14 1 20000 0 0 \$0-trans-s \$0-trans-r ramp: -32
6 0 10 -262144 -1 -262144 1000 256;
#X obj 659 165 s \$0-trans-r;
#X msg 536 59 partial 1 1 \, trans 1000;
#X obj 431 109 route partial partials clear odd even rand square trans
save restore;
#X obj 769 164 sp-param-file;
#X obj 758 258 print [sp-gaocs~] unknown param;
#N canvas 156 242 742 396 param 1;
#X obj 156 12 r \$0-p1-s;
#X obj 21 31 tof/param /\$1/aosc/p1 1;
#X obj 21 50 change;
#X obj 21 69 s \$0-p1-r;
#X obj 21 110 change;
#X obj 156 72 r \$0-p2-s;
#X obj 21 91 tof/param /\$1/aosc/p2 0;
#X obj 21 129 s \$0-p2-r;
#X obj 21 170 change;
#X obj 21 230 change;
#X obj 21 151 tof/param /\$1/aosc/p3 1;
#X obj 21 211 tof/param /\$1/aosc/p4 0;
#X obj 21 189 s \$0-p3-r;
#X obj 21 249 s \$0-p4-r;
#X obj 156 192 r \$0-p4-s;
#X obj 156 132 r \$0-p3-s;
#X obj 21 290 change;
#X obj 21 350 change;
#X obj 156 252 r \$0-p5-s;
#X obj 156 312 r \$0-p6-s;
#X obj 21 271 tof/param /\$1/aosc/p5 1;
#X obj 21 331 tof/param /\$1/aosc/p6 0;
#X obj 21 309 s \$0-p5-r;
#X obj 21 369 s \$0-p6-r;
#X obj 231 50 change;
#X obj 231 110 change;
#X obj 231 170 change;
#X obj 231 230 change;
#X obj 231 290 change;
#X obj 231 350 change;
#X obj 366 12 r \$0-p7-s;
#X obj 231 31 tof/param /\$1/aosc/p7 1;
#X obj 231 69 s \$0-p7-r;
#X obj 366 72 r \$0-p8-s;
#X obj 231 91 tof/param /\$1/aosc/p8 0;
#X obj 231 129 s \$0-p8-r;
#X obj 366 132 r \$0-p9-s;
#X obj 231 151 tof/param /\$1/aosc/p9 1;
#X obj 231 189 s \$0-p9-r;
#X obj 366 192 r \$0-p10-s;
#X obj 231 211 tof/param /\$1/aosc/p10 0;
#X obj 231 249 s \$0-p10-r;
#X obj 366 252 r \$0-p11-s;
#X obj 231 271 tof/param /\$1/aosc/p11 1;
#X obj 231 309 s \$0-p11-r;
#X obj 366 312 r \$0-p12-s;
#X obj 231 331 tof/param /\$1/aosc/p12 0;
#X obj 231 369 s \$0-p12-r;
#X obj 469 58 tof/param /\$1/aosc/trans 1000;
#X obj 640 28 r \$0-trans-s;
#X obj 469 82 change;
#X obj 469 103 s \$0-trans-r;
#X connect 0 0 1 1;
#X connect 1 0 2 0;
#X connect 2 0 3 0;
#X connect 4 0 7 0;
#X connect 5 0 6 1;
#X connect 6 0 4 0;
#X connect 8 0 12 0;
#X connect 9 0 13 0;
#X connect 10 0 8 0;
#X connect 11 0 9 0;
#X connect 14 0 11 1;
#X connect 15 0 10 1;
#X connect 16 0 22 0;
#X connect 17 0 23 0;
#X connect 18 0 20 1;
#X connect 19 0 21 1;
#X connect 20 0 16 0;
#X connect 21 0 17 0;
#X connect 24 0 32 0;
#X connect 25 0 35 0;
#X connect 26 0 38 0;
#X connect 27 0 41 0;
#X connect 28 0 44 0;
#X connect 29 0 47 0;
#X connect 30 0 31 1;
#X connect 31 0 24 0;
#X connect 33 0 34 1;
#X connect 34 0 25 0;
#X connect 36 0 37 1;
#X connect 37 0 26 0;
#X connect 39 0 40 1;
#X connect 40 0 27 0;
#X connect 42 0 43 1;
#X connect 43 0 28 0;
#X connect 45 0 46 1;
#X connect 46 0 29 0;
#X connect 48 0 50 0;
#X connect 49 0 48 1;
#X connect 50 0 51 0;
#X restore 47 341 pd param;
#X obj 706 59 r sp-\$1;
#X connect 2 0 3 0;
#X connect 3 0 1 0;
#X connect 16 0 3 2;
#X connect 17 0 18 0;
#X connect 18 0 33 0;
#X connect 18 1 21 0;
#X connect 20 0 32 0;
#X connect 22 0 19 1;
#X connect 23 0 19 1;
#X connect 24 0 19 1;
#X connect 26 0 27 0;
#X connect 29 0 19 1;
#X connect 32 0 33 0;
#X connect 33 0 19 0;
#X connect 33 1 19 1;
#X connect 33 2 22 0;
#X connect 33 3 24 0;
#X connect 33 4 23 0;
#X connect 33 5 28 0;
#X connect 33 6 29 0;
#X connect 33 7 31 0;
#X connect 33 8 34 0;
#X connect 33 9 34 1;
#X connect 33 10 35 0;
#X connect 37 0 33 0;
#X coords 0 -1 1 1 200 100 1 30 30;
