#N canvas 68 138 780 467 10;
#X obj 101 103 sp-gmix~;
#X obj 101 38 inlet~;
#X obj 101 290 outlet~;
#X obj 135 103 sp-gmix~;
#X obj 135 8 inlet~;
#X obj 135 320 outlet~;
#X obj 169 103 sp-gmix~;
#X obj 169 57 inlet~;
#X obj 169 290 outlet~;
#X obj 203 103 sp-gmix~;
#X obj 203 8 inlet~;
#X obj 203 320 outlet~;
#X obj 271 320 outlet;
#X obj 310 10 inlet;
#X obj 310 65 route mix mix4;
#X obj 310 124 route 0 1 2 3;
#X obj 480 13 loadbang;
#X obj 507 91 pack f f;
#X obj 507 67 - 1;
#X msg 507 115 \$1 label ch\$2;
#X obj 480 42 Uzi 4;
#X obj 399 157 route solo;
#X obj 432 300 ==;
#X obj 432 325 sel 1;
#X obj 432 372 f;
#X obj 468 371 f;
#X msg 432 428 \$1 mute 0;
#X msg 468 399 \$1 mute 1;
#X obj 432 243 - 1;
#X msg 432 348 bang;
#X msg 468 348 bang;
#X obj 432 274 t f f f;
#X obj 399 183 t b f;
#X obj 399 213 Uzi 12;
#X obj 456 185 print [sp-gmix4~] unknown command;
#X obj 381 12 r sp-\$1;
#X connect 0 0 2 0;
#X connect 1 0 0 0;
#X connect 3 0 5 0;
#X connect 4 0 3 0;
#X connect 6 0 8 0;
#X connect 7 0 6 0;
#X connect 9 0 11 0;
#X connect 10 0 9 0;
#X connect 13 0 14 0;
#X connect 14 0 15 0;
#X connect 14 1 15 0;
#X connect 14 2 12 0;
#X connect 15 0 0 1;
#X connect 15 1 3 1;
#X connect 15 2 6 1;
#X connect 15 3 9 1;
#X connect 15 4 21 0;
#X connect 16 0 20 0;
#X connect 17 0 19 0;
#X connect 18 0 17 0;
#X connect 19 0 15 0;
#X connect 20 2 17 1;
#X connect 20 2 18 0;
#X connect 21 0 32 0;
#X connect 21 1 34 0;
#X connect 22 0 23 0;
#X connect 23 0 29 0;
#X connect 23 1 30 0;
#X connect 24 0 26 0;
#X connect 25 0 27 0;
#X connect 26 0 15 0;
#X connect 27 0 15 0;
#X connect 28 0 31 0;
#X connect 29 0 24 0;
#X connect 30 0 25 0;
#X connect 31 0 22 0;
#X connect 31 1 24 1;
#X connect 31 2 25 1;
#X connect 32 0 33 0;
#X connect 32 1 22 1;
#X connect 33 2 28 0;
#X connect 35 0 15 0;
#X coords 0 -1 1 1 135 175 2 100 100;
