#N canvas 92 22 1068 422 10;
#X obj 11 28 cnv 15 198 80 empty empty empty 20 12 0 14 -83269 -262144
0;
#X obj 304 32 inlet~;
#X obj 476 16 inlet;
#X obj 273 312 outlet~;
#X obj 545 308 outlet;
#X obj 476 68 route gshape;
#X obj 273 214 sp-dry-wet~;
#X obj 336 182 r \$0-dry-wet-s;
#X obj 273 263 sp-pass~;
#X obj 318 236 r \$0-pass-s;
#X obj 304 81 sigpack/shape~;
#X obj 190 35 tgl 12 0 \$0-pass-s \$0-pass-r pass: -35 6 0 10 -262130
-1 -262144 0 1;
#X obj 25 86 hsl 120 12 0 100 0 0 \$0-dry-wet-s \$0-dry-wet-r dry/wet:
-2 -8 0 10 -262144 -1 -262144 200 1;
#X obj 158 86 nbx 4 12 0 100 0 0 \$0-dry-wet-nbx-s \$0-dry-wet-nbx-r
empty 0 -8 0 10 -262144 -1 -1 1.68067 256;
#X obj 219 85 change;
#X msg 583 57 dry-wet 100;
#X obj 583 27 loadbang;
#X obj 607 124 s \$0-dry-wet-r;
#X obj 563 149 s \$0-pass-r;
#X obj 476 175 sp-param-file;
#X obj 385 54 r \$0-shape-s;
#X obj 523 16 r sp-\$1;
#X obj 25 56 hsl 120 12 -10 10 0 0 \$0-shape-s \$0-shape-r shape: -2
-8 0 10 -262144 -1 -262144 11900 1;
#X obj 158 56 nbx 4 12 -10 10 0 0 \$0-shape-nbx-s \$0-shape-nbx-r empty
0 -8 0 10 -262144 -1 -1 10 256;
#X obj 219 53 change;
#N canvas 337 143 591 387 param 0;
#X obj 17 74 tof/param /gshape/\$1/pass 0;
#X obj 176 47 change;
#X obj 176 19 r \$0-pass-s;
#X obj 17 102 s \$0-pass-r;
#X obj 17 172 tof/param /gshape/\$1/shape 10;
#X obj 188 147 change;
#X obj 188 121 r \$0-shape-s;
#X obj 17 200 s \$0-shape-r;
#X obj 19 266 tof/param /gshape/\$1/dry-wet 100;
#X obj 208 239 change;
#X obj 208 214 r \$0-dry-wet-s;
#X obj 19 298 s \$0-dry-wet-r;
#X connect 0 0 3 0;
#X connect 1 0 0 1;
#X connect 2 0 1 0;
#X connect 4 0 7 0;
#X connect 5 0 4 1;
#X connect 6 0 5 0;
#X connect 8 0 11 0;
#X connect 9 0 8 1;
#X connect 10 0 9 0;
#X restore 20 189 pd param;
#X obj 476 96 route save restore pass dry-wet shape;
#X obj 651 173 s \$0-shape-r;
#X obj 695 199 print [sp-shape~] unknown command;
#X connect 1 0 10 0;
#X connect 1 0 6 0;
#X connect 1 0 8 1;
#X connect 2 0 5 0;
#X connect 5 0 26 0;
#X connect 5 1 4 0;
#X connect 6 0 8 0;
#X connect 7 0 6 2;
#X connect 8 0 3 0;
#X connect 9 0 8 2;
#X connect 10 0 6 1;
#X connect 12 0 13 0;
#X connect 13 0 14 0;
#X connect 14 0 12 0;
#X connect 15 0 26 0;
#X connect 16 0 15 0;
#X connect 20 0 10 1;
#X connect 21 0 26 0;
#X connect 22 0 23 0;
#X connect 23 0 24 0;
#X connect 24 0 22 0;
#X connect 26 0 19 0;
#X connect 26 1 19 1;
#X connect 26 2 18 0;
#X connect 26 3 17 0;
#X connect 26 4 27 0;
#X connect 26 5 28 0;
#X coords 0 -1 1 1 200 100 1 10 10;
