#N canvas 74 200 988 523 10;
#X obj 101 38 inlet~;
#X obj 101 330 outlet~;
#X obj 135 8 inlet~;
#X obj 135 360 outlet~;
#X obj 169 57 inlet~;
#X obj 169 330 outlet~;
#X obj 203 8 inlet~;
#X obj 203 360 outlet~;
#X obj 391 450 outlet;
#X obj 310 10 inlet;
#X obj 310 65 route mix mix4;
#X obj 310 124 route 0 1 2 3;
#X obj 666 182 print [sp-gmix4~] unknown command;
#X obj 381 12 r sp-\$1;
#X msg 443 276 0 mute \$1 \, 1 mute \$1 \, 2 mute \$1 \, 3 mute \$1
;
#N canvas 517 164 210 401 solo 0;
#X obj 51 52 inlet;
#X obj 78 200 ==;
#X obj 78 225 sel 1;
#X obj 78 272 f;
#X obj 114 271 f;
#X msg 78 328 \$1 mute 0;
#X msg 114 299 \$1 mute 1;
#X obj 78 143 - 1;
#X msg 78 248 bang;
#X msg 114 248 bang;
#X obj 78 174 t f f f;
#X obj 51 83 t b f;
#X obj 47 362 outlet;
#X obj 51 113 Uzi 4;
#X connect 0 0 11 0;
#X connect 1 0 2 0;
#X connect 2 0 8 0;
#X connect 2 1 9 0;
#X connect 3 0 5 0;
#X connect 4 0 6 0;
#X connect 5 0 12 0;
#X connect 6 0 12 0;
#X connect 7 0 10 0;
#X connect 8 0 3 0;
#X connect 9 0 4 0;
#X connect 10 0 1 0;
#X connect 10 1 3 1;
#X connect 10 2 4 1;
#X connect 11 0 13 0;
#X connect 11 1 1 1;
#X connect 13 2 7 0;
#X restore 399 181 pd solo;
#X msg 488 308 0 volume \$1 \, 1 volume \$1 \, 2 volume \$1 \, 3 volume
\$1;
#X obj 532 451 s \$0-ctrl-all;
#X obj 228 37 r \$0-ctrl-all;
#X obj 101 103 sp-gmix~ ch1-\$1;
#X obj 135 103 sp-gmix~ ch2-\$1;
#X obj 169 103 sp-gmix~ ch3-\$1;
#X obj 203 103 sp-gmix~ ch4-\$1;
#X obj 532 353 list prepend save;
#X obj 532 381 list trim;
#X obj 613 409 list trim;
#X obj 613 381 list prepend restore;
#X obj 399 157 route solo mute volume save restore midilearn;
#N canvas 187 208 199 281 midilearn 0;
#X obj 48 37 inlet midictl;
#X obj 48 160 pack f f;
#X obj 48 220 outlet msg;
#X msg 48 191 \$1 midilearn \$2;
#X obj 21 101 Uzi 4;
#X obj 48 126 - 1;
#X obj 48 69 t b f;
#X connect 0 0 6 0;
#X connect 1 0 3 0;
#X connect 3 0 2 0;
#X connect 4 2 5 0;
#X connect 5 0 1 0;
#X connect 6 0 4 0;
#X connect 6 1 1 1;
#X restore 621 210 pd midilearn;
#X obj 621 237 s \$0-route;
#N canvas 594 221 165 191 label 0;
#X obj 30 23 loadbang;
#X obj 57 93 pack f f;
#X obj 57 69 - 1;
#X msg 57 117 \$1 label ch\$2;
#X obj 30 44 Uzi 4;
#X obj 57 147 outlet;
#X connect 0 0 4 0;
#X connect 1 0 3 0;
#X connect 2 0 1 0;
#X connect 3 0 5 0;
#X connect 4 2 1 1;
#X connect 4 2 2 0;
#X restore 448 107 pd label;
#X connect 0 0 19 0;
#X connect 2 0 20 0;
#X connect 4 0 21 0;
#X connect 6 0 22 0;
#X connect 9 0 10 0;
#X connect 10 0 11 0;
#X connect 10 1 11 0;
#X connect 10 2 8 0;
#X connect 11 0 19 1;
#X connect 11 1 20 1;
#X connect 11 2 21 1;
#X connect 11 3 22 1;
#X connect 11 4 27 0;
#X connect 13 0 11 0;
#X connect 14 0 11 0;
#X connect 15 0 11 0;
#X connect 16 0 11 0;
#X connect 18 0 19 1;
#X connect 18 0 20 1;
#X connect 18 0 21 1;
#X connect 18 0 22 1;
#X connect 19 0 1 0;
#X connect 20 0 3 0;
#X connect 21 0 5 0;
#X connect 22 0 7 0;
#X connect 23 0 24 0;
#X connect 24 0 17 0;
#X connect 25 0 17 0;
#X connect 26 0 25 0;
#X connect 27 0 15 0;
#X connect 27 1 14 0;
#X connect 27 2 16 0;
#X connect 27 3 23 0;
#X connect 27 4 26 0;
#X connect 27 5 28 0;
#X connect 27 6 12 0;
#X connect 28 0 29 0;
#X connect 30 0 11 0;
#X coords 0 -1 1 1 135 185 2 100 100;
