#N canvas 259 180 575 515 10;
#X obj 101 104 sp-gmix~;
#X obj 101 38 inlet~;
#X obj 101 300 outlet~;
#X obj 135 104 sp-gmix~;
#X obj 134 8 inlet~;
#X obj 135 330 outlet~;
#X obj 214 297 outlet;
#X obj 213 46 inlet;
#X obj 213 76 route mix mix2;
#X obj 340 23 loadbang;
#X obj 213 114 route 0 1;
#X obj 264 147 route solo;
#X obj 297 320 ==;
#X obj 297 345 sel 1;
#X obj 297 392 f;
#X obj 333 391 f;
#X msg 297 448 \$1 mute 0;
#X msg 333 419 \$1 mute 1;
#X obj 297 263 - 1;
#X msg 297 368 bang;
#X msg 333 368 bang;
#X obj 297 294 t f f f;
#X obj 264 203 t b f;
#X obj 264 233 Uzi 2;
#X msg 340 49 0 label ch1 \, 1 label ch2;
#X obj 275 23 r sp-\$1;
#X obj 321 175 print [sp-gmix2~] unknown command;
#X connect 0 0 2 0;
#X connect 1 0 0 0;
#X connect 3 0 5 0;
#X connect 4 0 3 0;
#X connect 7 0 8 0;
#X connect 8 0 10 0;
#X connect 8 1 10 0;
#X connect 8 2 6 0;
#X connect 9 0 24 0;
#X connect 10 0 0 1;
#X connect 10 1 3 1;
#X connect 10 2 11 0;
#X connect 11 0 22 0;
#X connect 11 1 26 0;
#X connect 12 0 13 0;
#X connect 13 0 19 0;
#X connect 13 1 20 0;
#X connect 14 0 16 0;
#X connect 15 0 17 0;
#X connect 16 0 10 0;
#X connect 17 0 10 0;
#X connect 18 0 21 0;
#X connect 19 0 14 0;
#X connect 20 0 15 0;
#X connect 21 0 12 0;
#X connect 21 1 14 1;
#X connect 21 2 15 1;
#X connect 22 0 23 0;
#X connect 22 1 12 1;
#X connect 23 2 18 0;
#X connect 24 0 10 0;
#X connect 25 0 10 0;
#X coords 0 -1 1 1 68 175 2 100 100;
