#N canvas 57 124 997 329 10;
#X obj 167 26 inlet~;
#X obj 167 256 outlet~;
#X obj 41 38 cnv 15 98 25 empty empty empty 20 12 0 14 -66577 -66577
0;
#X obj 520 26 inlet control;
#X obj 622 57 r sp-\$1;
#X obj 520 121 sp-param-file;
#X obj 577 257 outlet control;
#X obj 602 151 s \$0-select-r;
#X obj 42 45 hradio 12 1 0 8 \$0-select-s \$0-select-r empty -40 6
0 10 -262144 -1 -262144 0;
#N canvas 149 294 333 195 save 0;
#X obj 44 128 s \$0-select-r;
#X obj 203 47 r \$0-select-s;
#X obj 203 74 change;
#X obj 44 103 tof/param /sp/mux8/select 0;
#X connect 1 0 2 0;
#X connect 2 0 3 1;
#X connect 3 0 0 0;
#X restore 83 165 pd save;
#X obj 195 57 r \$0-select-s;
#N canvas 159 350 450 300 select 0;
#X obj 21 20 inlet next;
#X obj 21 48 bang;
#X obj 54 103 f;
#X obj 69 62 r \$0-select-s;
#X obj 54 128 + 1;
#X obj 54 153 s \$0-select-r;
#X obj 201 48 bang;
#X obj 234 103 f;
#X obj 249 62 r \$0-select-s;
#X obj 234 153 s \$0-select-r;
#X obj 234 128 - 1;
#X obj 201 20 inlet prev;
#X connect 0 0 1 0;
#X connect 1 0 2 0;
#X connect 2 0 4 0;
#X connect 3 0 2 1;
#X connect 4 0 5 0;
#X connect 6 0 7 0;
#X connect 7 0 10 0;
#X connect 8 0 7 1;
#X connect 10 0 9 0;
#X connect 11 0 6 0;
#X restore 644 121 pd select;
#X obj 520 90 route save restore select next prev;
#X obj 167 110 multiplex~ . . . . . . . .;
#X obj 210 26 inlet~;
#X obj 253 26 inlet~;
#X obj 296 26 inlet~;
#X obj 339 26 inlet~;
#X obj 382 26 inlet~;
#X obj 425 26 inlet~;
#X obj 468 26 inlet~;
#X obj 727 151 print [sp-gmux8~] unknown command;
#X obj 520 57 route mux8;
#X connect 0 0 13 0;
#X connect 3 0 22 0;
#X connect 4 0 12 0;
#X connect 10 0 13 0;
#X connect 12 0 5 0;
#X connect 12 1 5 1;
#X connect 12 2 7 0;
#X connect 12 3 11 0;
#X connect 12 4 11 1;
#X connect 12 5 21 0;
#X connect 13 0 1 0;
#X connect 14 0 13 1;
#X connect 15 0 13 2;
#X connect 16 0 13 3;
#X connect 17 0 13 4;
#X connect 18 0 13 5;
#X connect 19 0 13 6;
#X connect 20 0 13 7;
#X connect 22 0 12 0;
#X connect 22 1 6 0;
#X coords 0 -1 1 1 100 45 1 40 20;
