#N canvas 117 234 826 367 10;
#X obj 101 38 inlet~;
#X obj 101 300 outlet~;
#X obj 135 8 inlet~;
#X obj 135 330 outlet~;
#X obj 384 297 outlet;
#X obj 303 46 inlet;
#X obj 303 76 route mix mix2;
#X obj 430 23 loadbang;
#X obj 303 114 route 0 1;
#X msg 430 49 0 label ch1 \, 1 label ch2;
#X obj 365 23 r sp-\$1;
#X obj 561 175 print [sp-gmix2~] unknown command;
#X obj 101 103 sp-gmix~ ch1-\$1;
#X obj 135 103 sp-gmix~ \$1-ch2;
#X msg 395 166 save;
#X msg 436 166 restore;
#X obj 354 137 route solo save restore mute volume;
#X obj 160 66 r \$0-ctrl-all;
#X obj 436 194 s \$0-ctrl-all;
#N canvas 439 124 206 371 solo 0;
#X obj 49 32 inlet;
#X obj 82 339 outlet;
#X obj 82 180 ==;
#X obj 82 205 sel 1;
#X obj 82 252 f;
#X obj 118 251 f;
#X msg 82 308 \$1 mute 0;
#X msg 118 279 \$1 mute 1;
#X obj 82 123 - 1;
#X msg 82 228 bang;
#X msg 118 228 bang;
#X obj 82 154 t f f f;
#X obj 49 63 t b f;
#X obj 49 93 Uzi 2;
#X connect 0 0 12 0;
#X connect 2 0 3 0;
#X connect 3 0 9 0;
#X connect 3 1 10 0;
#X connect 4 0 6 0;
#X connect 5 0 7 0;
#X connect 6 0 1 0;
#X connect 7 0 1 0;
#X connect 8 0 11 0;
#X connect 9 0 4 0;
#X connect 10 0 5 0;
#X connect 11 0 2 0;
#X connect 11 1 4 1;
#X connect 11 2 5 1;
#X connect 12 0 13 0;
#X connect 12 1 2 1;
#X connect 13 2 8 0;
#X restore 354 237 pd solo;
#X msg 478 225 0 mute \$1 \, 1 mute \$1;
#X msg 519 259 0 volume \$1 \, 1 volume \$1;
#X connect 0 0 12 0;
#X connect 2 0 13 0;
#X connect 5 0 6 0;
#X connect 6 0 8 0;
#X connect 6 1 8 0;
#X connect 6 2 4 0;
#X connect 7 0 9 0;
#X connect 8 0 12 1;
#X connect 8 1 13 1;
#X connect 8 2 16 0;
#X connect 9 0 8 0;
#X connect 10 0 8 0;
#X connect 12 0 1 0;
#X connect 13 0 3 0;
#X connect 14 0 18 0;
#X connect 15 0 18 0;
#X connect 16 0 19 0;
#X connect 16 1 14 0;
#X connect 16 2 15 0;
#X connect 16 3 20 0;
#X connect 16 4 21 0;
#X connect 16 5 11 0;
#X connect 17 0 12 1;
#X connect 17 0 13 1;
#X connect 19 0 8 0;
#X connect 20 0 8 0;
#X connect 21 0 8 0;
#X coords 0 -1 1 1 68 185 2 100 100;
