#N canvas 259 182 849 355 10;
#X obj 21 22 cnv 15 199 56 empty empty sp-gbang2ar 5 10 0 10 -66577
-262144 0;
#X obj 20 101 inlet in1;
#X obj 325 21 inlet ctrl;
#X obj 230 101 inlet in4;
#X obj 160 101 inlet in3;
#X obj 90 101 inlet in2;
#X obj 20 231 outlet out1;
#N canvas 128 182 175 167 (subpatch) 0;
#X obj 20 16 inlet;
#X obj 20 40 t b b;
#X msg 20 67 1;
#X obj 124 17 inlet;
#X obj 91 57 del 20;
#X msg 91 82 0;
#X obj 20 129 outlet;
#X connect 0 0 1 0;
#X connect 1 0 2 0;
#X connect 1 1 4 0;
#X connect 2 0 6 0;
#X connect 3 0 4 1;
#X connect 4 0 5 0;
#X connect 5 0 6 0;
#X restore 20 161 pd;
#N canvas 128 182 175 167 (subpatch) 0;
#X obj 20 16 inlet;
#X obj 20 40 t b b;
#X msg 20 67 1;
#X obj 124 17 inlet;
#X obj 91 57 del 20;
#X msg 91 82 0;
#X obj 20 129 outlet;
#X connect 0 0 1 0;
#X connect 1 0 2 0;
#X connect 1 1 4 0;
#X connect 2 0 6 0;
#X connect 3 0 4 1;
#X connect 4 0 5 0;
#X connect 5 0 6 0;
#X restore 90 131 pd;
#X obj 90 200 outlet out2;
#N canvas 128 182 175 167 (subpatch) 0;
#X obj 20 16 inlet;
#X obj 20 40 t b b;
#X msg 20 67 1;
#X obj 124 17 inlet;
#X obj 91 57 del 20;
#X msg 91 82 0;
#X obj 20 129 outlet;
#X connect 0 0 1 0;
#X connect 1 0 2 0;
#X connect 1 1 4 0;
#X connect 2 0 6 0;
#X connect 3 0 4 1;
#X connect 4 0 5 0;
#X connect 5 0 6 0;
#X restore 160 161 pd;
#N canvas 128 182 175 167 (subpatch) 0;
#X obj 20 16 inlet;
#X obj 20 40 t b b;
#X msg 20 67 1;
#X obj 124 17 inlet;
#X obj 91 57 del 20;
#X msg 91 82 0;
#X obj 20 129 outlet;
#X connect 0 0 1 0;
#X connect 1 0 2 0;
#X connect 1 1 4 0;
#X connect 2 0 6 0;
#X connect 3 0 4 1;
#X connect 4 0 5 0;
#X connect 5 0 6 0;
#X restore 230 131 pd;
#X obj 160 230 outlet out3;
#X obj 230 200 outlet out4;
#X obj 400 158 outlet control;
#X obj 23 60 nbx 4 14 5 10000 0 0 \$0-ar1-s \$0-ar1-r ar1 0 -6 0 10
-262144 -1 -262144 10 256;
#X obj 73 60 nbx 4 14 5 10000 0 0 \$0-ar2-s \$0-ar2-r ar2 0 -6 0 10
-262144 -1 -262144 10 256;
#X obj 123 60 nbx 4 14 5 10000 0 0 \$0-ar3-s \$0-ar3-r ar3 0 -6 0 10
-262144 -1 -262144 10 256;
#X obj 173 60 nbx 4 14 5 10000 0 0 \$0-ar4-s \$0-ar4-r ar4 0 -6 0 10
-262144 -1 -262144 10 256;
#X obj 325 46 route bang2ar;
#X obj 325 70 route save restore ar1 ar2 ar3 ar4 ar;
#X obj 325 96 sp-param-file;
#X obj 512 96 s \$0-ar-all-r;
#X obj 345 224 r \$0-ar-all-s;
#X obj 345 245 s \$0-ar1-r;
#X obj 355 265 s \$0-ar2-r;
#X obj 365 285 s \$0-ar3-r;
#X obj 375 305 s \$0-ar4-r;
#X obj 173 28 nbx 4 14 10 10000 0 0 \$0-ar-all-s \$0-ar-all-r all -20
7 0 10 -262144 -260097 -262144 38 256;
#N canvas 407 74 315 394 param 0;
#X obj 188 19 r \$0-ar1-s;
#X obj 23 64 change;
#X obj 23 86 s \$0-ar1-r;
#X obj 23 154 change;
#X obj 188 109 r \$0-ar2-s;
#X obj 23 176 s \$0-ar2-r;
#X obj 23 244 change;
#X obj 23 334 change;
#X obj 188 289 r \$0-ar4-s;
#X obj 23 356 s \$0-ar4-r;
#X obj 23 266 s \$0-ar3-r;
#X obj 23 41 tof/param /bang2ar/\$1/ar1 10;
#X obj 23 131 tof/param /bang2ar/\$1/ar2 10;
#X obj 23 221 tof/param /bang2ar/\$1/ar3 10;
#X obj 23 311 tof/param /bang2ar/\$1/ar4 10;
#X obj 188 199 r \$0-ar3-s;
#X connect 0 0 11 1;
#X connect 1 0 2 0;
#X connect 3 0 5 0;
#X connect 4 0 12 1;
#X connect 6 0 10 0;
#X connect 7 0 9 0;
#X connect 8 0 14 1;
#X connect 11 0 1 0;
#X connect 12 0 3 0;
#X connect 13 0 6 0;
#X connect 14 0 7 0;
#X connect 15 0 13 1;
#X restore 29 290 pd param;
#X connect 1 0 7 0;
#X connect 2 0 19 0;
#X connect 3 0 11 0;
#X connect 4 0 10 0;
#X connect 5 0 8 0;
#X connect 7 0 6 0;
#X connect 8 0 9 0;
#X connect 10 0 12 0;
#X connect 11 0 13 0;
#X connect 15 0 7 1;
#X connect 16 0 8 1;
#X connect 17 0 10 1;
#X connect 18 0 11 1;
#X connect 19 0 20 0;
#X connect 19 1 14 0;
#X connect 20 0 21 0;
#X connect 20 1 21 1;
#X connect 20 2 15 0;
#X connect 20 3 16 0;
#X connect 20 4 17 0;
#X connect 20 5 18 0;
#X connect 20 6 22 0;
#X connect 23 0 24 0;
#X connect 23 0 25 0;
#X connect 23 0 26 0;
#X connect 23 0 27 0;
#X coords 0 -1 1 1 200 60 1 20 20;
