#N canvas 172 219 927 382 10;
#X obj 193 91 inlet~;
#X obj 302 90 inlet~;
#X obj 193 305 *~;
#X obj 325 305 *~;
#X obj 193 339 outlet~;
#X obj 325 339 outlet~;
#X obj 11 26 cnv 15 198 45 empty empty empty 20 12 0 14 -98702 -66577
0;
#X obj 19 50 hsl 140 12 70 120 0 0 \$0-threshold-s \$0-threshold-r
threshold(db) 0 -10 0 10 -262144 -1 -262144 8340 1;
#X obj 168 50 nbx 3 12 -1e+37 1e+37 0 0 \$0-threshold-num-s \$0-threshold-num-r
empty 0 -8 0 10 -262144 -1 -1 100 256;
#X obj 448 27 inlet;
#X msg 448 214 limit \$1;
#X obj 391 92 loadbang;
#X msg 391 116 100;
#X obj 191 33 tgl 12 0 \$0-skip-s \$0-skip-r pass -31 5 0 10 -262130
-1 -262144 1 1;
#X obj 193 161 sp-switch~;
#X obj 302 161 sp-switch~;
#X obj 523 339 outlet;
#X obj 250 134 r \$0-skip-s;
#X text 537 317 # output unhandled commands;
#X obj 448 61 route limiter;
#X obj 448 92 route threshold pass;
#X obj 590 207 change;
#X obj 703 235 s \$0-threshold-num-r;
#X obj 590 236 s \$0-threshold-r;
#X obj 590 178 r \$0-threshold-s;
#X obj 533 127 s \$0-skip-r;
#X obj 613 127 print [sp-glimiter~] unknown command;
#X obj 562 28 r sp-\$1;
#X obj 461 184 r \$0-threshold-s;
#X obj 193 273 z~ 64;
#X obj 325 273 z~ 64;
#X obj 233 231 limiter~ 1 1;
#X obj 448 159 s \$0-threshold-r;
#X obj 448 127 clip 70 120;
#X connect 0 0 14 0;
#X connect 1 0 15 0;
#X connect 2 0 4 0;
#X connect 3 0 5 0;
#X connect 9 0 19 0;
#X connect 10 0 31 0;
#X connect 11 0 12 0;
#X connect 12 0 32 0;
#X connect 14 0 29 0;
#X connect 14 0 31 0;
#X connect 14 1 4 0;
#X connect 15 0 30 0;
#X connect 15 0 31 1;
#X connect 15 1 5 0;
#X connect 17 0 14 1;
#X connect 17 0 15 1;
#X connect 19 0 20 0;
#X connect 19 1 16 0;
#X connect 20 0 33 0;
#X connect 20 1 25 0;
#X connect 20 2 26 0;
#X connect 21 0 22 0;
#X connect 21 0 23 0;
#X connect 24 0 21 0;
#X connect 27 0 20 0;
#X connect 28 0 10 0;
#X connect 29 0 2 0;
#X connect 30 0 3 0;
#X connect 31 0 2 1;
#X connect 31 0 3 1;
#X connect 33 0 32 0;
#X coords 0 -1 1 1 200 64 1 10 10;
