#N canvas 445 297 531 442 10;
#X obj 40 105 osc~ 440;
#X obj 40 249 +dsp;
#X obj 40 145 sp-gsaturate~;
#X msg 142 21 volume 0.5;
#X msg 150 73 saturate pass \$1;
#X obj 150 47 tgl 15 0 empty empty empty 17 7 0 10 -262144 -1 -1 0
1;
#X msg 248 43 saturate unknown;
#X msg 273 116 saturate dry-wet \$1;
#X obj 276 90 hsl 128 15 0 127 0 0 empty empty empty -2 -8 0 10 -262144
-1 -1 12700 1;
#X msg 375 53 saturate threshold \$1;
#X obj 378 23 hsl 128 15 -1 1 0 0 empty empty empty -2 -8 0 10 -262144
-1 -1 0 1;
#X connect 0 0 2 0;
#X connect 2 0 1 0;
#X connect 2 1 1 2;
#X connect 3 0 2 1;
#X connect 4 0 2 1;
#X connect 5 0 4 0;
#X connect 6 0 2 1;
#X connect 7 0 2 1;
#X connect 8 0 7 0;
#X connect 9 0 2 1;
#X connect 10 0 9 0;
