#N canvas 80 208 768 471 10;
#X obj 129 51 inlet~;
#X obj 129 168 outlet~;
#X obj 241 19 inlet;
#X obj 129 135 sp-mix~;
#X obj 21 21 cnv 15 30 178 empty \$0-cnv-r empty 20 12 0 14 -128992
-262144 0;
#X obj 26 45 vsl 10 119 0 2 0 0 \$0-vol-s \$0-vol-r empty 0 -9 0 10
-228856 -257985 -262144 2950 1;
#X obj 37 45 vu 8 120 \$0-vu-r empty -1 -8 0 10 -66577 -1 0 0;
#X obj 394 141 sel 0;
#X obj 304 19 loadbang;
#X obj 36 27 tgl 10 0 \$0-mute-s \$0-mute-r M -8 5 0 10 -225271 -1
-262144 0 1;
#X msg 492 45 mute \$1;
#X obj 492 19 r \$0-mute-s;
#X msg 304 137 set \$1;
#X obj 304 168 s \$0-mute-r;
#X obj 346 288 s \$0-vol-r;
#X msg 152 104 volume \$1;
#X obj 152 80 r \$0-vol-s;
#X obj 225 80 r \$0-mute-s;
#X msg 225 103 mute \$1;
#X obj 394 199 s \$0-mute-r;
#X msg 394 168 color 6;
#X msg 460 168 color 13;
#X obj 202 276 s \$0-vu-r;
#X obj 202 152 env~;
#X obj 247 219 max;
#X obj 293 219 - 0.05;
#X obj 202 189 - 100;
#X obj 202 246 pack f f;
#X obj 304 113 route float bang;
#X obj 389 373 s \$0-cnv-r;
#X obj 21 184 cnv 15 30 15 empty \$0-cnv-label-r flt 5 5 0 10 -128992
-262144 0;
#X obj 461 373 s \$0-cnv-label-r;
#X obj 432 302 s \$0-cnv-label-r;
#X msg 432 275 label \$1;
#X obj 432 252 l2s;
#X msg 389 346 color \$1 \$2;
#X obj 304 81 route mute volume color label;
#X obj 73 267 r \$0-vol-s;
#X obj 73 298 sprintf %03.1f;
#X msg 73 355 label \$1;
#X obj 73 325 l2s;
#X msg 304 45 mute 0 \, volume 1 \, label mono;
#X obj 24 169 cnv 12 20 12 empty \$0-ind-r 0.5 3 6 0 10 -128992 -1
0;
#X obj 73 380 s \$0-ind-r;
#X obj 317 373 s \$0-ind-r;
#X connect 0 0 3 0;
#X connect 2 0 36 0;
#X connect 3 0 1 0;
#X connect 3 0 23 0;
#X connect 7 0 20 0;
#X connect 7 1 21 0;
#X connect 8 0 41 0;
#X connect 10 0 36 0;
#X connect 11 0 10 0;
#X connect 12 0 13 0;
#X connect 15 0 3 1;
#X connect 16 0 15 0;
#X connect 17 0 18 0;
#X connect 18 0 3 1;
#X connect 20 0 19 0;
#X connect 21 0 19 0;
#X connect 23 0 26 0;
#X connect 24 0 25 0;
#X connect 24 0 27 1;
#X connect 25 0 24 1;
#X connect 26 0 24 0;
#X connect 26 0 27 0;
#X connect 27 0 22 0;
#X connect 28 0 12 0;
#X connect 28 0 7 0;
#X connect 28 1 13 0;
#X connect 33 0 32 0;
#X connect 34 0 33 0;
#X connect 35 0 29 0;
#X connect 35 0 31 0;
#X connect 35 0 44 0;
#X connect 36 0 28 0;
#X connect 36 1 14 0;
#X connect 36 2 35 0;
#X connect 36 3 34 0;
#X connect 37 0 38 0;
#X connect 38 0 40 0;
#X connect 39 0 43 0;
#X connect 40 0 39 0;
#X connect 41 0 36 0;
#X coords 0 -1 1 1 32 180 2 20 20;
