#N canvas 248 183 818 533 10;
#X obj 40 266 inlet~;
#X obj 40 483 outlet~;
#X obj 181 27 loadbang;
#X obj 11 26 cnv 15 98 78 empty empty empty 20 12 0 14 -128992 -66577
0;
#X obj 352 32 inlet;
#X obj 19 76 hsl 80 8 0 100 0 0 \$0-feedback-s \$0-feedback-r empty
-2 -8 0 10 -262144 -1 -1 1228 1;
#X floatatom 61 54 5 0 100 1 % #0-feedback-ind-r #0-feedback-ind-s
;
#X floatatom 60 32 5 0 0 1 ms #0-delay-ind-r #0-delay-ind-s;
#X obj 76 89 tgl 10 0 \$0-skip \$0-skip-r empty 17 7 0 10 -262130 -1
-1 0 1;
#X obj 109 363 expr $i1;
#X text 14 86 Skip:;
#X obj 352 163 clip 0 \$1;
#X obj 352 192 == 0;
#X obj 352 221 sel 1;
#X obj 352 250 print error: invalid delay value;
#X obj 242 400 r \$0-feedback-s;
#X obj 242 423 s \$0-feedback-ind-r;
#X obj 242 472 s \$0-delay-ind-r;
#X obj 109 337 r \$0-delay;
#X obj 181 80 s \$0-delay;
#X obj 251 192 s \$0-delay;
#X obj 242 448 r \$0-delay;
#X obj 397 221 s \$0-feedback-r;
#X obj 442 162 sel 1;
#X obj 442 299 s \$0-skip-r;
#X msg 442 272 1;
#X msg 469 272 0;
#X obj 397 193 clip 0 100;
#X text 13 32 Delay:;
#X obj 40 419 sp-delay~ \$1;
#X msg 109 391 delay \$1;
#X obj 40 300 sp-switch~;
#X obj 189 337 r \$0-feedback-s;
#X msg 189 363 feedback \$1;
#X text 14 53 Fback:;
#N canvas 594 109 556 396 param 1;
#X obj 40 55 tof/param /delay/\$1/value;
#X obj 187 20 r \$0-delay;
#X obj 40 84 change;
#X obj 40 113 s \$0-delay;
#X obj 40 194 change;
#X obj 40 165 tof/param /delay/\$1/fb;
#X obj 40 314 change;
#X obj 40 285 tof/param /delay/\$1/skip;
#X obj 169 130 r \$0-feedback-s;
#X obj 40 223 s \$0-feedback-r;
#X obj 181 250 r \$0-skip;
#X obj 40 343 s \$0-skip-r;
#X connect 0 0 2 0;
#X connect 1 0 0 1;
#X connect 2 0 3 0;
#X connect 4 0 9 0;
#X connect 5 0 4 0;
#X connect 6 0 11 0;
#X connect 7 0 6 0;
#X connect 8 0 5 1;
#X connect 10 0 7 1;
#X restore 12 147 pd param;
#X obj 352 74 route delay;
#X obj 487 193 sp-param-file;
#X obj 415 472 outlet;
#X obj 577 152 print [sp-gdelay~] unknown command;
#X obj 352 124 route delay feedback skip save restore;
#X obj 414 32 r sp-\$2;
#X text 511 4 Creation: [sp-vdelay buffer_size id];
#X obj 181 54 expr \$1 / 2;
#X obj 97 266 r \$0-skip;
#X connect 0 0 31 0;
#X connect 2 0 43 0;
#X connect 4 0 36 0;
#X connect 9 0 30 0;
#X connect 11 0 12 0;
#X connect 11 0 20 0;
#X connect 12 0 13 0;
#X connect 13 0 14 0;
#X connect 15 0 16 0;
#X connect 18 0 9 0;
#X connect 21 0 17 0;
#X connect 23 0 25 0;
#X connect 23 1 26 0;
#X connect 25 0 24 0;
#X connect 26 0 24 0;
#X connect 27 0 22 0;
#X connect 29 0 1 0;
#X connect 30 0 29 1;
#X connect 31 0 29 0;
#X connect 31 1 1 0;
#X connect 32 0 33 0;
#X connect 33 0 29 1;
#X connect 36 0 40 0;
#X connect 36 1 38 0;
#X connect 40 0 11 0;
#X connect 40 1 27 0;
#X connect 40 2 23 0;
#X connect 40 3 37 0;
#X connect 40 4 37 1;
#X connect 40 5 39 0;
#X connect 41 0 40 0;
#X connect 43 0 19 0;
#X connect 44 0 31 1;
#X coords 0 -1 1 1 100 96 1 10 10;
