#N canvas 0 22 707 454 10;
#X obj 171 145 osc~ 440;
#X obj 171 261 env~;
#X floatatom 171 284 5 0 0 0 - - -;
#X obj 197 311 env~;
#X floatatom 197 334 5 0 0 0 - - -;
#X obj 223 231 env~;
#X floatatom 223 254 5 0 0 0 - - -;
#X obj 250 291 env~;
#X floatatom 250 314 5 0 0 0 - - -;
#X obj 171 198 sp-ghub4~;
#X obj 250 124 tgl 15 0 empty empty empty 17 7 0 10 -262144 -1 -1 1
1;
#X obj 320 124 tgl 15 0 empty empty empty 17 7 0 10 -262144 -1 -1 0
1;
#X obj 400 124 tgl 15 0 empty empty empty 17 7 0 10 -262144 -1 -1 0
1;
#X obj 480 124 tgl 15 0 empty empty empty 17 7 0 10 -262144 -1 -1 1
1;
#X obj 250 97 loadbang;
#X msg 343 83 hub4 invert;
#X msg 250 145 hub4 1 \$1;
#X msg 320 145 hub4 2 \$1;
#X msg 400 145 hub4 3 \$1;
#X msg 480 145 hub4 4 \$1;
#X msg 464 55 hub4 save;
#X msg 530 81 hub4 restore;
#X connect 0 0 9 0;
#X connect 0 0 9 1;
#X connect 0 0 9 2;
#X connect 0 0 9 3;
#X connect 1 0 2 0;
#X connect 3 0 4 0;
#X connect 5 0 6 0;
#X connect 7 0 8 0;
#X connect 9 0 1 0;
#X connect 9 1 3 0;
#X connect 9 2 5 0;
#X connect 9 3 7 0;
#X connect 10 0 16 0;
#X connect 11 0 17 0;
#X connect 12 0 18 0;
#X connect 13 0 19 0;
#X connect 14 0 10 0;
#X connect 14 0 11 0;
#X connect 14 0 12 0;
#X connect 14 0 13 0;
#X connect 15 0 9 4;
#X connect 16 0 9 4;
#X connect 17 0 9 4;
#X connect 18 0 9 4;
#X connect 19 0 9 4;
#X connect 20 0 9 4;
#X connect 21 0 9 4;
