#N canvas 40 292 919 427 10;
#X obj 151 23 cnv 10 85 14 \$0-cnv-s \$0-cnv-r empty 20 12 0 14 -128992
-66577 0;
#X obj 150 24 tgl 12 0 \$0-ch1-s \$0-ch1-r empty 17 7 0 10 -225271
-1 -262144 1 1;
#X obj 169 24 tgl 12 0 \$0-ch2-s \$0-ch2-r empty 17 7 0 10 -258699
-1 -262144 0 1;
#X obj 225 26 bng 8 250 50 0 \$0-tgl-s \$0-tgl-r empty 17 7 0 10 -203904
-1 -1;
#X obj 189 24 tgl 12 0 \$0-ch3-s \$0-ch3-r empty 17 7 0 10 -258699
-1 -262144 0 1;
#X obj 209 24 tgl 12 0 \$0-ch4-s \$0-ch4-r empty 17 7 0 10 -225271
-1 -262144 1 1;
#X obj 59 242 inlet~;
#X obj 86 262 inlet~;
#X obj 59 340 outlet~;
#X obj 96 369 outlet~;
#X obj 340 14 inlet;
#X obj 34 98 r \$0-ch1-s;
#X obj 104 98 r \$0-ch2-s;
#X obj 572 137 unpack f f;
#X obj 572 219 pack f f f;
#X msg 34 126 1 \$1;
#X msg 104 126 2 \$1;
#X obj 170 162 list;
#X obj 572 167 expr \$0 \; $f1 \; $f2 \;;
#X msg 572 246 \; \$1-ch\$2-r \$3;
#X obj 545 38 r \$0-tgl-s;
#X msg 572 101 \$1 0;
#X msg 652 101 \$1 1;
#X obj 625 38 loadbang;
#X obj 59 291 sp-hub4~ ..........;
#X obj 133 340 outlet~;
#X obj 170 369 outlet~;
#X obj 114 242 inlet~;
#X obj 142 262 inlet~;
#X msg 244 126 4 \$1;
#X msg 174 126 3 \$1;
#X obj 174 98 r \$0-ch3-s;
#X obj 244 98 r \$0-ch4-s;
#X obj 545 74 Uzi 4;
#X obj 625 74 Uzi 4;
#X obj 340 41 route hub4;
#X obj 340 68 route invert save restore;
#X obj 430 41 r sp-\$1;
#N canvas 314 163 229 295 invert 1;
#X obj 64 66 bang;
#X msg 91 122 \$1 bang;
#X obj 91 197 pack f f;
#X obj 91 156 expr \$0 \; $f1 \;;
#X obj 64 40 inlet;
#X obj 64 89 Uzi 4;
#X msg 91 226 \; \$1-ch\$2-r bang;
#X connect 0 0 5 0;
#X connect 1 0 3 0;
#X connect 2 0 6 0;
#X connect 3 0 2 0;
#X connect 3 1 2 1;
#X connect 4 0 0 0;
#X connect 5 2 1 0;
#X restore 340 97 pd invert;
#X obj 397 202 outlet;
#X msg 389 118 bang;
#X obj 389 144 tof/param file;
#X msg 470 117 bang;
#N canvas 586 324 193 293 color 0;
#X obj 41 167 expr \$0 \; $f1 \; $f2 \;;
#X obj 41 217 pack f f f;
#X msg 41 241 \; \$1-ch\$2-r color \$3;
#X obj 98 112 sel 0;
#X obj 41 87 unpack f f;
#X msg 98 141 13;
#X msg 130 141 6;
#X obj 41 35 inlet;
#X connect 0 0 1 0;
#X connect 0 1 1 1;
#X connect 0 2 1 2;
#X connect 1 0 2 0;
#X connect 3 0 5 0;
#X connect 3 1 6 0;
#X connect 4 0 0 0;
#X connect 4 1 3 0;
#X connect 5 0 0 1;
#X connect 6 0 0 1;
#X connect 7 0 4 0;
#X restore 184 192 pd color;
#N canvas 341 340 450 300 attrs 0;
#X obj 155 20 r \$0-ch1-s;
#X obj 155 44 change;
#X obj 155 134 change;
#X obj 155 110 r \$0-ch2-s;
#X obj 20 199 s \$0-ch2-r;
#X obj 20 100 s \$0-ch1-r;
#X obj 20 70 tof/param /ghub4/\$1/ch1;
#X obj 20 160 tof/param /ghub4/\$1/ch2;
#X obj 365 44 change;
#X obj 230 70 tof/param /ghub4/\$1/ch3;
#X obj 365 20 r \$0-ch3-s;
#X obj 365 134 change;
#X obj 230 160 tof/param /ghub4/\$1/ch4;
#X obj 365 110 r \$0-ch4-s;
#X obj 230 199 s \$0-ch4-r;
#X obj 230 109 s \$0-ch3-r;
#X connect 0 0 1 0;
#X connect 1 0 6 1;
#X connect 2 0 7 1;
#X connect 3 0 2 0;
#X connect 6 0 5 0;
#X connect 7 0 4 0;
#X connect 8 0 9 1;
#X connect 9 0 15 0;
#X connect 10 0 8 0;
#X connect 11 0 12 1;
#X connect 12 0 14 0;
#X connect 13 0 11 0;
#X restore 759 34 pd attrs;
#X msg 271 16 invert;
#X connect 6 0 24 0;
#X connect 7 0 24 1;
#X connect 10 0 35 0;
#X connect 11 0 15 0;
#X connect 12 0 16 0;
#X connect 13 0 18 0;
#X connect 13 1 18 1;
#X connect 14 0 19 0;
#X connect 15 0 17 0;
#X connect 16 0 17 0;
#X connect 17 0 24 4;
#X connect 17 0 43 0;
#X connect 18 0 14 0;
#X connect 18 1 14 1;
#X connect 18 2 14 2;
#X connect 20 0 33 0;
#X connect 21 0 13 0;
#X connect 22 0 13 0;
#X connect 23 0 34 0;
#X connect 24 0 8 0;
#X connect 24 1 9 0;
#X connect 24 2 25 0;
#X connect 24 3 26 0;
#X connect 27 0 24 2;
#X connect 28 0 24 3;
#X connect 29 0 17 0;
#X connect 30 0 17 0;
#X connect 31 0 30 0;
#X connect 32 0 29 0;
#X connect 33 2 21 0;
#X connect 34 2 22 0;
#X connect 35 0 36 0;
#X connect 35 1 39 0;
#X connect 36 0 38 0;
#X connect 36 1 40 0;
#X connect 36 2 42 0;
#X connect 36 3 17 0;
#X connect 36 3 13 0;
#X connect 37 0 36 0;
#X connect 40 0 41 0;
#X connect 42 0 41 1;
#X connect 45 0 36 0;
#X coords 0 -1 1 1 86 19 2 150 20;
