#N canvas 191 224 563 271 10;
#X obj 176 40 sp-gparam;
#X obj -48 80 osc~ 440;
#X obj -48 194 env~;
#X floatatom -48 219 5 0 0 0 - - -;
#X obj -8 194 env~;
#X floatatom -8 219 5 0 0 0 - - -;
#X obj 32 194 env~;
#X floatatom 32 219 5 0 0 0 - - -;
#X obj 72 194 env~;
#X floatatom 72 219 5 0 0 0 - - -;
#X msg -48 28 \; sp-dm1 select 2;
#X obj 45 73 hradio 15 1 0 8 empty empty empty 0 -8 0 10 -262144 -1
-1 5;
#X msg 294 218 set;
#X obj 294 171 list prepend set;
#X obj 294 195 list trim;
#X symbolatom 170 136 10 0 0 0 - - -;
#X obj -48 126 sp-gdemux8~ dm1;
#X msg 45 99 demux8 select \$1;
#X msg 72 29 demux8 unknown;
#X obj 114 194 env~;
#X floatatom 114 219 5 0 0 0 - - -;
#X obj 154 194 env~;
#X floatatom 154 219 5 0 0 0 - - -;
#X obj 194 194 env~;
#X floatatom 194 219 5 0 0 0 - - -;
#X obj 234 194 env~;
#X floatatom 234 219 5 0 0 0 - - -;
#X msg 296 51 demux8 next;
#X msg 377 51 demux8 prev;
#X connect 1 0 16 0;
#X connect 2 0 3 0;
#X connect 4 0 5 0;
#X connect 6 0 7 0;
#X connect 8 0 9 0;
#X connect 11 0 17 0;
#X connect 13 0 14 0;
#X connect 14 0 12 0;
#X connect 15 0 16 1;
#X connect 16 0 2 0;
#X connect 16 1 4 0;
#X connect 16 2 6 0;
#X connect 16 3 8 0;
#X connect 16 4 19 0;
#X connect 16 5 21 0;
#X connect 16 6 23 0;
#X connect 16 7 25 0;
#X connect 16 8 13 0;
#X connect 17 0 16 1;
#X connect 18 0 16 1;
#X connect 19 0 20 0;
#X connect 21 0 22 0;
#X connect 23 0 24 0;
#X connect 25 0 26 0;
#X connect 27 0 16 1;
#X connect 28 0 16 1;
