#N canvas 523 72 614 457 10;
#X declare -lib flatgui;
#X declare -lib flatgui;
#X declare -lib flatgui;
#X declare -lib flatgui;
#X obj 100 119 sp-gosc~ \$1-ob1;
#X obj 100 343 outlet~;
#X obj 200 342 outlet~;
#X obj 200 119 sp-gosc~ \$1-ob2;
#X obj 300 119 sp-gosc~ \$1-ob3;
#X obj 400 119 sp-gosc~ \$1-ob4;
#X obj 101 117 cnv 15 398 20 empty empty empty 20 12 0 14 -233017 -66577
0;
#X obj 288 339 outlet~;
#X obj 376 336 outlet~;
#X connect 0 0 1 0;
#X connect 3 0 2 0;
#X connect 4 0 7 0;
#X connect 5 0 8 0;
#X coords 0 -1 1 1 400 160 1 100 100;
