#N canvas 129 154 978 434 10;
#X obj 293 37 inlet~;
#X obj 293 328 outlet~;
#X obj 293 297 sp-pass~;
#X obj 338 271 r \$0-pass-s;
#X obj 262 232 sp-dry-wet~;
#X obj 11 26 cnv 15 198 80 empty empty empty 20 12 0 14 -13381 -66577
0;
#X obj 472 38 inlet;
#X obj 523 322 outlet;
#X obj 192 32 tgl 12 0 \$0-pass-s \$0-pass-r pass: -35 6 0 10 -262130
-1 -262144 0 1;
#X obj 19 80 hsl 120 12 0 100 0 0 \$0-dry-wet-s \$0-dry-wet-r dry/wet:
-2 -8 0 10 -262144 -1 -262144 9900 1;
#X obj 150 80 nbx 3 12 0 100 0 0 \$0-dry-wet-s \$0-dry-wet-r empty
0 -8 0 10 -262144 -1 -1 83.1933 256;
#X obj 325 205 r \$0-dry-wet-s;
#X obj 19 50 hsl 120 12 20 20000 1 0 \$0-cutoff-s \$0-cutoff-r cutoff(hz):
-2 -8 0 10 -262144 -1 -262144 2207 1;
#X obj 150 50 nbx 5 12 20 20000 0 0 \$0-cutoff-s \$0-cutoff-r empty
0 -8 0 10 -262144 -1 -1 72.0139 256;
#X obj 368 119 r \$0-cutoff-s;
#X obj 472 145 s \$0-cutoff-r;
#X obj 517 181 s \$0-pass-r;
#X obj 562 213 s \$0-dry-wet-r;
#X obj 414 38 r sp-\$1;
#X obj 581 40 loadbang;
#X obj 472 112 route cutoff pass dry-wet save restore;
#X obj 607 150 sp-param-file;
#X obj 218 48 change;
#X obj 218 80 change;
#N canvas 267 369 606 254 param 0;
#X obj 191 17 r \$0-cutoff-s;
#X obj 191 46 change;
#X obj 32 104 s \$0-cutoff-r;
#X obj 174 155 change;
#X obj 174 131 r \$0-pass-s;
#X obj 33 209 s \$0-pass-r;
#X obj 500 53 change;
#X obj 500 28 r \$0-dry-wet-s;
#X obj 329 108 s \$0-dry-wet-r;
#X obj 329 79 tof/param /hip/\$1/dry-wet 100;
#X obj 32 77 tof/param /hip/\$1/cutoff 20;
#X obj 33 182 tof/param /hip/\$1/pass 0;
#X connect 0 0 1 0;
#X connect 1 0 10 1;
#X connect 3 0 11 1;
#X connect 4 0 3 0;
#X connect 6 0 9 1;
#X connect 7 0 6 0;
#X connect 9 0 8 0;
#X connect 10 0 2 0;
#X connect 11 0 5 0;
#X restore 36 184 pd param;
#X obj 293 136 hip~ 20000;
#X obj 293 166 hip~ 20000;
#X msg 581 74 cutoff 20000 \, dry-wet 100;
#X obj 697 150 print [sp-ghip~] unknown command;
#X obj 472 75 route hip;
#X connect 0 0 2 1;
#X connect 0 0 4 0;
#X connect 0 0 25 0;
#X connect 2 0 1 0;
#X connect 3 0 2 2;
#X connect 4 0 2 0;
#X connect 6 0 29 0;
#X connect 9 0 10 0;
#X connect 10 0 23 0;
#X connect 11 0 4 2;
#X connect 12 0 13 0;
#X connect 13 0 22 0;
#X connect 14 0 25 1;
#X connect 14 0 26 1;
#X connect 18 0 20 0;
#X connect 19 0 27 0;
#X connect 20 0 15 0;
#X connect 20 1 16 0;
#X connect 20 2 17 0;
#X connect 20 3 21 0;
#X connect 20 4 21 1;
#X connect 20 5 28 0;
#X connect 22 0 12 0;
#X connect 23 0 9 0;
#X connect 25 0 26 0;
#X connect 26 0 4 1;
#X connect 27 0 20 0;
#X connect 29 0 20 0;
#X connect 29 1 7 0;
#X coords 0 -1 1 1 200 100 1 10 10;
