#N canvas 51 114 1157 625 10;
#X obj 49 364 inlet~;
#X obj 78 337 inlet~;
#X obj 49 422 outlet~;
#X obj 80 452 outlet~;
#X obj 151 23 cnv 10 248 14 \$0-cnv-s \$0-cnv-r empty 20 12 0 14 -128992
-66577 0;
#X obj 150 24 tgl 12 0 \$0-ch1-s \$0-ch1-r empty 17 7 0 10 -225271
-1 -262144 1 1;
#X obj 170 24 tgl 12 0 \$0-ch2-s \$0-ch2-r empty 17 7 0 10 -225271
-1 -262144 1 1;
#X obj 389 26 bng 8 250 50 0 \$0-tgl-s \$0-tgl-r empty 17 7 0 10 -203904
-1 -1;
#X obj 107 365 inlet~;
#X obj 136 335 inlet~;
#X obj 112 422 outlet~;
#X obj 144 452 outlet~;
#X obj 189 24 tgl 12 0 \$0-ch3-s \$0-ch3-r empty 17 7 0 10 -225271
-1 -262144 1 1;
#X obj 209 24 tgl 12 0 \$0-ch4-s \$0-ch4-r empty 17 7 0 10 -225271
-1 -262144 1 1;
#X obj 166 365 inlet~;
#X obj 195 338 inlet~;
#X obj 224 364 inlet~;
#X obj 176 422 outlet~;
#X obj 208 452 outlet~;
#X obj 240 422 outlet~;
#X obj 272 452 outlet~;
#X obj 253 338 inlet~;
#X obj 230 24 tgl 12 0 \$0-ch5-s \$0-ch5-r empty 17 7 0 10 -225271
-1 -262144 1 1;
#X obj 250 24 tgl 12 0 \$0-ch6-s \$0-ch6-r empty 17 7 0 10 -225271
-1 -262144 1 1;
#X obj 270 24 tgl 12 0 \$0-ch7-s \$0-ch7-r empty 17 7 0 10 -225271
-1 -262144 1 1;
#X obj 290 24 tgl 12 0 \$0-ch8-s \$0-ch8-r empty 17 7 0 10 -225271
-1 -262144 1 1;
#X obj 49 393 sp-hub12~ .................................................
;
#X obj 283 365 inlet~;
#X obj 312 338 inlet~;
#X obj 341 364 inlet~;
#X obj 370 338 inlet~;
#X obj 304 422 outlet~;
#X obj 336 452 outlet~;
#X obj 368 422 outlet~;
#X obj 400 452 outlet~;
#X obj 311 24 tgl 12 0 \$0-ch9-s \$0-ch9-r empty 17 7 0 10 -225271
-1 -262144 1 1;
#X obj 331 24 tgl 12 0 \$0-ch10-s \$0-ch10-r empty 17 7 0 10 -225271
-1 -262144 1 1;
#X obj 351 24 tgl 12 0 \$0-ch11-s \$0-ch11-r empty 17 7 0 10 -225271
-1 -262144 1 1;
#X obj 371 24 tgl 12 0 \$0-ch12-s \$0-ch12-r empty 17 7 0 10 -225271
-1 -262144 1 1;
#X obj 24 70 r \$0-ch1-s;
#X obj 94 70 r \$0-ch2-s;
#X msg 24 98 1 \$1;
#X msg 94 98 2 \$1;
#X obj 94 216 list;
#X msg 234 98 4 \$1;
#X msg 164 98 3 \$1;
#X obj 164 70 r \$0-ch3-s;
#X obj 234 70 r \$0-ch4-s;
#X msg 304 98 5 \$1;
#X msg 374 98 6 \$1;
#X msg 444 98 7 \$1;
#X msg 514 98 8 \$1;
#X obj 304 70 r \$0-ch5-s;
#X obj 374 70 r \$0-ch6-s;
#X obj 444 70 r \$0-ch7-s;
#X obj 514 70 r \$0-ch8-s;
#X obj 163 130 r \$0-ch9-s;
#X msg 163 158 9 \$1;
#X msg 233 158 10 \$1;
#X obj 233 130 r \$0-ch10-s;
#X obj 313 130 r \$0-ch11-s;
#X msg 313 158 11 \$1;
#X obj 393 130 r \$0-ch12-s;
#X msg 393 158 12 \$1;
#X obj 903 343 unpack f f;
#X obj 903 425 pack f f f;
#X obj 903 373 expr \$0 \; $f1 \; $f2 \;;
#X msg 903 452 \; \$1-ch\$2-r \$3;
#X obj 870 244 r \$0-tgl-s;
#X msg 903 307 \$1 0;
#X msg 989 307 \$1 1;
#X obj 956 244 loadbang;
#X obj 870 280 Uzi 12;
#X obj 956 280 Uzi 12;
#X obj 610 20 inlet;
#X obj 610 70 route hub12;
#X obj 673 499 outlet;
#X obj 610 99 route invert save restore;
#N canvas 314 163 229 295 invert 0;
#X obj 64 66 bang;
#X msg 97 123 \$1 bang;
#X obj 97 198 pack f f;
#X obj 97 157 expr \$0 \; $f1 \;;
#X obj 64 40 inlet;
#X msg 97 227 \; \$1-ch\$2-r bang;
#X obj 64 89 Uzi 12;
#X connect 0 0 6 0;
#X connect 1 0 3 0;
#X connect 2 0 5 0;
#X connect 3 0 2 0;
#X connect 3 1 2 1;
#X connect 4 0 0 0;
#X connect 6 2 1 0;
#X restore 610 126 pd invert;
#N canvas 586 324 193 293 color 0;
#X obj 41 167 expr \$0 \; $f1 \; $f2 \;;
#X obj 41 217 pack f f f;
#X msg 41 241 \; \$1-ch\$2-r color \$3;
#X obj 98 112 sel 0;
#X obj 41 87 unpack f f;
#X msg 98 141 13;
#X msg 130 141 6;
#X obj 41 35 inlet;
#X connect 0 0 1 0;
#X connect 0 1 1 1;
#X connect 0 2 1 2;
#X connect 1 0 2 0;
#X connect 3 0 5 0;
#X connect 3 1 6 0;
#X connect 4 0 0 0;
#X connect 4 1 3 0;
#X connect 5 0 0 1;
#X connect 6 0 0 1;
#X connect 7 0 4 0;
#X restore 147 233 pd color;
#X msg 659 165 bang;
#X obj 659 191 tof/param file;
#X msg 740 164 bang;
#N canvas 288 136 705 455 attrs 0;
#X obj 155 20 r \$0-ch1-s;
#X obj 155 44 change;
#X obj 155 134 change;
#X obj 155 110 r \$0-ch2-s;
#X obj 20 199 s \$0-ch2-r;
#X obj 20 100 s \$0-ch1-r;
#X obj 365 44 change;
#X obj 365 20 r \$0-ch3-s;
#X obj 365 134 change;
#X obj 365 110 r \$0-ch4-s;
#X obj 230 199 s \$0-ch4-r;
#X obj 230 109 s \$0-ch3-r;
#X obj 165 254 change;
#X obj 165 344 change;
#X obj 375 254 change;
#X obj 375 344 change;
#X obj 165 230 r \$0-ch5-s;
#X obj 375 230 r \$0-ch6-s;
#X obj 30 310 s \$0-ch5-r;
#X obj 240 319 s \$0-ch6-r;
#X obj 165 320 r \$0-ch7-s;
#X obj 375 320 r \$0-ch8-s;
#X obj 30 409 s \$0-ch7-r;
#X obj 240 409 s \$0-ch8-r;
#X obj 20 70 tof/param /ghub12/\$1/ch1;
#X obj 230 70 tof/param /ghub12/\$1/ch3;
#X obj 20 160 tof/param /ghub12/\$1/ch2;
#X obj 230 160 tof/param /ghub12/\$1/ch4;
#X obj 30 280 tof/param /ghub12/\$1/ch5;
#X obj 240 280 tof/param /ghub12/\$1/ch6;
#X obj 30 370 tof/param /ghub12/\$1/ch7;
#X obj 240 370 tof/param /ghub12/\$1/ch8;
#X obj 585 44 change;
#X obj 585 134 change;
#X obj 595 254 change;
#X obj 595 344 change;
#X obj 585 20 r \$0-ch9-s;
#X obj 450 70 tof/param /ghub12/\$1/ch9;
#X obj 450 109 s \$0-ch9-r;
#X obj 585 110 r \$0-ch10-s;
#X obj 450 160 tof/param /ghub12/\$1/ch10;
#X obj 450 199 s \$0-ch10-r;
#X obj 595 230 r \$0-ch11-s;
#X obj 460 280 tof/param /ghub12/\$1/ch11;
#X obj 460 319 s \$0-ch11-r;
#X obj 595 320 r \$0-ch12-s;
#X obj 460 370 tof/param /ghub12/\$1/ch12;
#X obj 460 409 s \$0-ch12-r;
#X connect 0 0 1 0;
#X connect 1 0 24 1;
#X connect 2 0 26 1;
#X connect 3 0 2 0;
#X connect 6 0 25 1;
#X connect 7 0 6 0;
#X connect 8 0 27 1;
#X connect 9 0 8 0;
#X connect 12 0 28 1;
#X connect 13 0 30 1;
#X connect 14 0 29 1;
#X connect 15 0 31 1;
#X connect 16 0 12 0;
#X connect 17 0 14 0;
#X connect 20 0 13 0;
#X connect 21 0 15 0;
#X connect 24 0 5 0;
#X connect 25 0 11 0;
#X connect 26 0 4 0;
#X connect 27 0 10 0;
#X connect 28 0 18 0;
#X connect 29 0 19 0;
#X connect 30 0 22 0;
#X connect 31 0 23 0;
#X connect 32 0 37 1;
#X connect 33 0 40 1;
#X connect 34 0 43 1;
#X connect 35 0 46 1;
#X connect 36 0 32 0;
#X connect 37 0 38 0;
#X connect 39 0 33 0;
#X connect 40 0 41 0;
#X connect 42 0 34 0;
#X connect 43 0 44 0;
#X connect 45 0 35 0;
#X connect 46 0 47 0;
#X restore 839 34 pd attrs;
#X obj 700 70 r sp-\$1;
#X connect 0 0 26 0;
#X connect 1 0 26 1;
#X connect 8 0 26 2;
#X connect 9 0 26 3;
#X connect 14 0 26 4;
#X connect 15 0 26 5;
#X connect 16 0 26 6;
#X connect 21 0 26 7;
#X connect 26 0 2 0;
#X connect 26 1 3 0;
#X connect 26 2 10 0;
#X connect 26 3 11 0;
#X connect 26 4 17 0;
#X connect 26 5 18 0;
#X connect 26 6 19 0;
#X connect 26 7 20 0;
#X connect 26 8 31 0;
#X connect 26 9 32 0;
#X connect 26 10 33 0;
#X connect 26 11 34 0;
#X connect 27 0 26 8;
#X connect 28 0 26 9;
#X connect 29 0 26 10;
#X connect 30 0 26 11;
#X connect 39 0 41 0;
#X connect 40 0 42 0;
#X connect 41 0 43 0;
#X connect 42 0 43 0;
#X connect 43 0 26 12;
#X connect 43 0 79 0;
#X connect 44 0 43 0;
#X connect 45 0 43 0;
#X connect 46 0 45 0;
#X connect 47 0 44 0;
#X connect 48 0 43 0;
#X connect 49 0 43 0;
#X connect 50 0 43 0;
#X connect 51 0 43 0;
#X connect 52 0 48 0;
#X connect 53 0 49 0;
#X connect 54 0 50 0;
#X connect 55 0 51 0;
#X connect 56 0 57 0;
#X connect 57 0 43 0;
#X connect 58 0 43 0;
#X connect 59 0 58 0;
#X connect 60 0 61 0;
#X connect 61 0 43 0;
#X connect 62 0 63 0;
#X connect 63 0 43 0;
#X connect 64 0 66 0;
#X connect 64 1 66 1;
#X connect 65 0 67 0;
#X connect 66 0 65 0;
#X connect 66 1 65 1;
#X connect 66 2 65 2;
#X connect 68 0 72 0;
#X connect 69 0 64 0;
#X connect 70 0 64 0;
#X connect 71 0 73 0;
#X connect 72 2 69 0;
#X connect 73 2 70 0;
#X connect 74 0 75 0;
#X connect 75 0 77 0;
#X connect 75 1 76 0;
#X connect 77 0 78 0;
#X connect 77 1 80 0;
#X connect 77 2 82 0;
#X connect 77 3 64 0;
#X connect 77 3 43 0;
#X connect 80 0 81 0;
#X connect 82 0 81 1;
#X connect 84 0 77 0;
#X coords 0 -1 1 1 250 19 2 150 20;
