#N canvas 160 260 668 339 10;
#X obj 25 261 textfile;
#X obj 26 23 inlet control;
#X obj 25 227 r \$0-ctrl;
#N canvas 599 297 395 205 header 0;
#X obj 17 18 loadbang;
#X obj 89 18 r \$0-reset;
#X obj 17 160 s \$0-ctrl;
#X msg 17 84 add #!/usr/bin/env gnuplot \, add set encoding utf8 \,
add unset key \, add set style line 1 lt 2 pt 0;
#X connect 0 0 3 0;
#X connect 1 0 3 0;
#X connect 3 0 2 0;
#X restore 365 24 pd header;
#N canvas 425 235 149 235 clear 0;
#X obj 24 21 inlet;
#X obj 24 50 t b b;
#X msg 51 113 clear;
#X obj 51 187 s \$0-ctrl;
#X obj 24 84 s \$0-reset;
#X connect 0 0 1 0;
#X connect 1 0 4 0;
#X connect 1 1 2 0;
#X connect 2 0 3 0;
#X restore 26 91 pd clear;
#X obj 255 194 s \$0-ctrl;
#X obj 93 103 t b b b b;
#N canvas 710 291 232 137 plot 0;
#X msg 21 60 gnuplot /tmp/pd_plot_graph.tmp;
#X obj 21 90 shell;
#X obj 21 21 inlet;
#X connect 0 0 1 0;
#X connect 2 0 0 0;
#X restore 42 179 pd plot;
#N canvas 515 453 318 246 savearray 0;
#X obj 51 29 inlet bang;
#X obj 168 29 inlet arrayname;
#X obj 168 62 l2s;
#X obj 51 113 symbol;
#X obj 51 66 bang;
#X obj 51 145 t s s;
#X msg 51 176 write /tmp/pd_plot_data.tmp \$1;
#X obj 51 206 s;
#X connect 0 0 4 0;
#X connect 1 0 2 0;
#X connect 2 0 3 1;
#X connect 3 0 5 0;
#X connect 4 0 3 0;
#X connect 5 0 6 0;
#X connect 5 1 7 1;
#X connect 6 0 7 0;
#X restore 127 152 pd savearray;
#N canvas 657 284 261 162 writegraph 0;
#X obj 33 42 inlet;
#X msg 33 78 write /tmp/pd_plot_graph.tmp cr;
#X obj 33 112 s \$0-ctrl;
#X connect 0 0 1 0;
#X connect 1 0 2 0;
#X restore 110 288 pd writegraph;
#N canvas 626 302 282 225 gnuplot 0;
#X obj 23 24 inlet gnuplot_message;
#X obj 23 120 s \$0-ctrl;
#X msg 23 86 add \$1;
#X obj 23 54 l2s;
#X obj 107 121 print;
#X connect 0 0 3 0;
#X connect 2 0 1 0;
#X connect 2 0 4 0;
#X connect 3 0 2 0;
#X restore 169 89 pd gnuplot;
#N canvas 352 410 183 204 xlog 0;
#X obj 26 31 inlet control;
#X msg 53 91 add set logscale x;
#X obj 26 63 sel 0;
#X msg 26 123 add set nologscale x;
#X obj 26 160 s \$0-ctrl;
#X connect 0 0 2 0;
#X connect 1 0 4 0;
#X connect 2 0 3 0;
#X connect 2 1 1 0;
#X connect 3 0 4 0;
#X restore 249 90 pd xlog;
#N canvas 352 410 183 204 xlog 0;
#X obj 26 31 inlet control;
#X obj 26 63 sel 0;
#X obj 26 160 s \$0-ctrl;
#X msg 53 91 add set logscale y;
#X msg 26 123 add set nologscale y;
#X connect 0 0 1 0;
#X connect 1 0 4 0;
#X connect 1 1 3 0;
#X connect 3 0 2 0;
#X connect 4 0 2 0;
#X restore 309 90 pd xlog;
#N canvas 352 410 183 204 grid 0;
#X obj 26 31 inlet control;
#X obj 26 63 sel 0;
#X obj 26 160 s \$0-ctrl;
#X msg 53 91 add set grid;
#X msg 26 123 add unset grid;
#X connect 0 0 1 0;
#X connect 1 0 4 0;
#X connect 1 1 3 0;
#X connect 3 0 2 0;
#X connect 4 0 2 0;
#X restore 369 90 pd grid;
#X obj 26 52 route clear plot set gnuplot xlog ylog grid autoscale
;
#N canvas 352 410 183 204 autoscale 0;
#X obj 26 31 inlet control;
#X obj 26 63 sel 0;
#X obj 26 160 s \$0-ctrl;
#X msg 53 91 add set autoscale;
#X msg 26 123 add unset autoscale;
#X connect 0 0 1 0;
#X connect 1 0 4 0;
#X connect 1 1 3 0;
#X connect 3 0 2 0;
#X connect 4 0 2 0;
#X restore 429 90 pd autoscale;
#X msg 255 131 add plot "/tmp/pd_plot_data.tmp" with linespoints linestyle
1;
#X connect 1 0 14 0;
#X connect 2 0 0 0;
#X connect 6 0 7 0;
#X connect 6 1 9 0;
#X connect 6 2 8 0;
#X connect 6 3 16 0;
#X connect 14 0 4 0;
#X connect 14 1 6 0;
#X connect 14 2 8 1;
#X connect 14 3 10 0;
#X connect 14 4 11 0;
#X connect 14 5 12 0;
#X connect 14 6 13 0;
#X connect 14 7 15 0;
#X connect 16 0 5 0;
