#N canvas 110 235 738 342 10;
#X obj 101 104 sp-gmix~;
#X obj 101 48 inlet~;
#X obj 126 71 inlet;
#X obj 101 270 outlet~;
#X obj 135 104 sp-gmix~;
#X obj 135 8 inlet~;
#X obj 160 31 inlet;
#X obj 135 300 outlet~;
#X obj 169 104 sp-gmix~;
#X obj 169 57 inlet~;
#X obj 194 80 inlet;
#X obj 169 270 outlet~;
#X obj 203 104 sp-gmix~;
#X obj 203 8 inlet~;
#X obj 228 31 inlet;
#X obj 203 300 outlet~;
#X obj 237 104 sp-gmix~;
#X obj 237 52 inlet~;
#X obj 262 75 inlet;
#X obj 237 270 outlet~;
#X obj 271 104 sp-gmix~;
#X obj 271 8 inlet~;
#X obj 296 31 inlet;
#X obj 271 300 outlet~;
#X obj 305 104 sp-gmix~;
#X obj 305 57 inlet~;
#X obj 330 80 inlet;
#X obj 305 270 outlet~;
#X obj 339 104 sp-gmix~;
#X obj 339 8 inlet~;
#X obj 364 31 inlet;
#X obj 339 300 outlet~;
#X obj 373 104 sp-gmix~;
#X obj 373 58 inlet~;
#X obj 398 81 inlet;
#X obj 373 270 outlet~;
#X obj 407 104 sp-gmix~;
#X obj 407 8 inlet~;
#X obj 432 31 inlet;
#X obj 407 300 outlet~;
#X obj 441 104 sp-gmix~;
#X obj 441 57 inlet~;
#X obj 466 80 inlet;
#X obj 441 270 outlet~;
#X obj 475 104 sp-gmix~;
#X obj 475 8 inlet~;
#X obj 500 31 inlet;
#X obj 475 300 outlet~;
#X obj 509 104 sp-gmix~;
#X obj 509 52 inlet~;
#X obj 534 75 inlet;
#X obj 509 270 outlet~;
#X obj 543 104 sp-gmix~;
#X obj 543 8 inlet~;
#X obj 568 31 inlet;
#X obj 543 300 outlet~;
#X obj 577 104 sp-gmix~;
#X obj 577 57 inlet~;
#X obj 602 80 inlet;
#X obj 577 270 outlet~;
#X obj 611 104 sp-gmix~;
#X obj 611 8 inlet~;
#X obj 636 31 inlet;
#X obj 611 300 outlet~;
#X connect 0 0 3 0;
#X connect 1 0 0 0;
#X connect 2 0 0 1;
#X connect 4 0 7 0;
#X connect 5 0 4 0;
#X connect 6 0 4 1;
#X connect 8 0 11 0;
#X connect 9 0 8 0;
#X connect 10 0 8 1;
#X connect 12 0 15 0;
#X connect 13 0 12 0;
#X connect 14 0 12 1;
#X connect 16 0 19 0;
#X connect 17 0 16 0;
#X connect 18 0 16 1;
#X connect 20 0 23 0;
#X connect 21 0 20 0;
#X connect 22 0 20 1;
#X connect 24 0 27 0;
#X connect 25 0 24 0;
#X connect 26 0 24 1;
#X connect 28 0 31 0;
#X connect 29 0 28 0;
#X connect 30 0 28 1;
#X connect 32 0 35 0;
#X connect 33 0 32 0;
#X connect 34 0 32 1;
#X connect 36 0 39 0;
#X connect 37 0 36 0;
#X connect 38 0 36 1;
#X connect 40 0 43 0;
#X connect 41 0 40 0;
#X connect 42 0 40 1;
#X connect 44 0 47 0;
#X connect 45 0 44 0;
#X connect 46 0 44 1;
#X connect 48 0 51 0;
#X connect 49 0 48 0;
#X connect 50 0 48 1;
#X connect 52 0 55 0;
#X connect 53 0 52 0;
#X connect 54 0 52 1;
#X connect 56 0 59 0;
#X connect 57 0 56 0;
#X connect 58 0 56 1;
#X connect 60 0 63 0;
#X connect 61 0 60 0;
#X connect 62 0 60 1;
#X coords 0 -1 1 1 543 156 2 100 100;
