#N canvas 66 107 990 579 10;
#X obj 11 27 cnv 15 198 100 empty empty empty 20 12 0 14 -13381 -66577
0;
#X obj 259 79 inlet~;
#X obj 429 18 inlet;
#X obj 429 55 route octaver;
#X obj 504 261 outlet;
#X obj 191 33 tgl 12 0 \$0-pass-s \$0-pass-r pass: -35 6 0 10 -262130
-1 -262144 0 1;
#X obj 516 140 clip -5 4;
#X obj 690 116 print [sp-goctaver~] unknown command;
#X obj 237 405 sp-pass~;
#X obj 237 347 sp-dry-wet~;
#X obj 24 110 hsl 130 12 0 100 0 0 \$0-dry-wet-s \$0-dry-wet-r dry-wet:
-2 -8 0 10 -262144 -1 -262144 0 1;
#X obj 165 110 nbx 3 12 0 100 0 0 \$0-dry-wet-s \$0-dry-wet-r empty
0 -8 0 10 -262144 -1 -1 0 256;
#X obj 616 17 loadbang;
#X obj 472 167 s \$0-dry-wet-r;
#X obj 282 371 r \$0-pass-s;
#X obj 22 82 hradio 12 1 0 11 \$0-octave-s \$0-octave-r octave: 0 -8
0 10 -262144 -1 -262144 4;
#X obj 616 40 f \$1;
#X obj 542 18 r sp-\$2;
#X obj 516 191 + 5;
#X obj 516 219 s \$0-octave-r;
#X obj 164 82 nbx 3 12 -5 5 0 0 \$0-octave-nbx-s \$0-octave-nbx-r empty
0 -8 0 10 -262144 -1 -1 -1 256;
#X obj 725 176 r \$0-octave-nbx-s;
#X obj 725 197 + 5;
#X obj 725 241 change;
#X obj 725 263 s \$0-octave-r;
#X obj 845 176 r \$0-octave-s;
#X obj 845 201 - 5;
#X obj 725 219 int;
#X obj 845 224 change;
#X obj 845 248 s \$0-octave-nbx-r;
#X obj 237 430 hip~ 20;
#X obj 237 462 outlet~;
#X obj 66 32 vradio 12 1 0 3 \$0-src-s \$0-src-r shape: -40 6 0 10
-262144 -1 -262144 2;
#X obj 429 119 s \$0-pass-r;
#X obj 559 193 s \$0-src-r;
#X msg 616 63 dry-wet 100 \, octave \$1 \, shape 0;
#X text 81 29 sin;
#X text 81 41 saw;
#X text 81 53 square;
#X obj 429 89 route pass dry-wet octave shape save restore;
#X obj 216 108 change;
#X obj 603 144 sp-param-file;
#N canvas 574 301 450 300 octaver 0;
#X obj 38 46 inlet~;
#X obj 38 226 outlet~;
#X obj 179 124 - 5;
#X obj 179 95 r \$0-octave-s;
#X obj 99 95 r \$0-src-s;
#X obj 38 141 sp-filter-octaver~ \$1;
#X obj 230 234 switch~;
#X obj 230 177 init 1;
#X obj 293 177 r \$0-pass-s;
#X obj 293 206 != 1;
#X connect 0 0 5 0;
#X connect 2 0 5 2;
#X connect 3 0 2 0;
#X connect 4 0 5 1;
#X connect 5 0 1 0;
#X connect 7 0 6 0;
#X connect 8 0 9 0;
#X connect 9 0 6 0;
#X restore 268 269 pd octaver;
#N canvas 379 311 651 260 save 0;
#X obj 30 43 tof/param /goctaver/\$2/shape 0;
#X obj 30 70 change;
#X obj 207 16 r \$0-src-s;
#X obj 30 98 s \$0-src-r;
#X obj 30 180 change;
#X obj 213 126 r \$0-octave-s;
#X obj 30 208 s \$0-octave-r;
#X obj 30 153 tof/param /goctaver/\$2/octave 0;
#X obj 340 74 change;
#X obj 340 47 tof/param /goctaver/\$2/pass 0;
#X obj 511 20 r \$0-pass-s;
#X obj 340 102 s \$0-pass-r;
#X obj 340 180 change;
#X obj 340 153 tof/param /goctaver/\$2/drywet 0;
#X obj 523 126 r \$0-dry-wet-s;
#X obj 340 208 s \$0-dry-wet-r;
#X connect 0 0 1 0;
#X connect 1 0 3 0;
#X connect 2 0 0 1;
#X connect 4 0 6 0;
#X connect 5 0 7 1;
#X connect 7 0 4 0;
#X connect 8 0 11 0;
#X connect 9 0 8 0;
#X connect 10 0 9 1;
#X connect 12 0 15 0;
#X connect 13 0 12 0;
#X connect 14 0 13 1;
#X restore 40 226 pd save;
#X obj 300 316 r \$0-dry-wet-s;
#X connect 1 0 8 1;
#X connect 1 0 9 0;
#X connect 1 0 42 0;
#X connect 2 0 3 0;
#X connect 3 0 39 0;
#X connect 3 1 4 0;
#X connect 6 0 18 0;
#X connect 8 0 30 0;
#X connect 9 0 8 0;
#X connect 10 0 11 0;
#X connect 11 0 40 0;
#X connect 12 0 16 0;
#X connect 14 0 8 2;
#X connect 16 0 35 0;
#X connect 17 0 39 0;
#X connect 18 0 19 0;
#X connect 21 0 22 0;
#X connect 22 0 27 0;
#X connect 23 0 24 0;
#X connect 25 0 26 0;
#X connect 26 0 28 0;
#X connect 27 0 23 0;
#X connect 28 0 29 0;
#X connect 30 0 31 0;
#X connect 35 0 39 0;
#X connect 39 0 33 0;
#X connect 39 1 13 0;
#X connect 39 2 6 0;
#X connect 39 3 34 0;
#X connect 39 4 41 0;
#X connect 39 5 41 1;
#X connect 39 6 7 0;
#X connect 40 0 10 0;
#X connect 42 0 9 1;
#X connect 44 0 9 2;
#X coords 0 -1 1 1 200 120 1 10 10;
