#N canvas 0 22 578 627 10;
#X declare -lib flatgui;
#X obj 292 23 sp-gparam;
#X obj 58 218 sp-gmix4~;
#X obj 58 507 +dsp;
#X obj 58 183 osc~;
#X obj 90 183 osc~;
#X obj 122 183 osc~;
#X obj 154 183 osc~;
#X obj 90 159 * 2;
#X obj 122 159 * 3;
#X obj 58 159 * 1;
#X obj 154 159 * 4;
#X obj 58 414 sp-gpan4~;
#X floatatom 58 120 5 0 0 0 - - -;
#X msg 58 90 400;
#X obj 58 60 loadbang;
#X connect 1 0 11 0;
#X connect 1 1 11 1;
#X connect 1 2 11 2;
#X connect 1 3 11 3;
#X connect 1 4 11 4;
#X connect 3 0 1 0;
#X connect 4 0 1 1;
#X connect 5 0 1 2;
#X connect 6 0 1 3;
#X connect 7 0 4 0;
#X connect 8 0 5 0;
#X connect 9 0 3 0;
#X connect 10 0 6 0;
#X connect 11 0 2 0;
#X connect 11 1 2 1;
#X connect 11 2 2 2;
#X connect 12 0 9 0;
#X connect 12 0 7 0;
#X connect 12 0 8 0;
#X connect 12 0 10 0;
#X connect 13 0 12 0;
#X connect 14 0 13 0;
