#N canvas 86 83 1099 605 10;
#X obj 151 23 cnv 10 166 14 \$0-cnv-s \$0-cnv-r empty 20 12 0 14 -128992
-66577 0;
#X obj 150 24 tgl 12 0 \$0-ch1-s \$0-ch1-r empty 17 7 0 10 -258699
-1 -262144 0 1;
#X obj 170 24 tgl 12 0 \$0-ch2-s \$0-ch2-r empty 17 7 0 10 -258699
-1 -262144 0 1;
#X obj 306 26 bng 8 250 50 0 \$0-tgl-s \$0-tgl-r empty 17 7 0 10 -203904
-1 -1;
#X obj 189 24 tgl 12 0 \$0-ch3-s \$0-ch3-r empty 17 7 0 10 -258699
-1 -262144 0 1;
#X obj 209 24 tgl 12 0 \$0-ch4-s \$0-ch4-r empty 17 7 0 10 -258699
-1 -262144 0 1;
#X obj 230 24 tgl 12 0 \$0-ch5-s \$0-ch5-r empty 17 7 0 10 -225271
-1 -262144 1 1;
#X obj 249 24 tgl 12 0 \$0-ch6-s \$0-ch6-r empty 17 7 0 10 -225271
-1 -262144 1 1;
#X obj 269 24 tgl 12 0 \$0-ch7-s \$0-ch7-r empty 17 7 0 10 -258699
-1 -262144 0 1;
#X obj 289 24 tgl 12 0 \$0-ch8-s \$0-ch8-r empty 17 7 0 10 -225271
-1 -262144 1 1;
#X obj 89 244 inlet~;
#X obj 111 264 inlet~;
#X obj 89 342 outlet~;
#X obj 115 371 outlet~;
#X obj 600 24 inlet;
#X obj 62 130 r \$0-ch1-s;
#X obj 132 130 r \$0-ch2-s;
#X obj 762 367 unpack f f;
#X obj 762 449 pack f f f;
#X msg 62 158 1 \$1;
#X msg 132 158 2 \$1;
#X obj 272 186 list;
#X obj 762 397 expr \$0 \; $f1 \; $f2 \;;
#X msg 762 476 \; \$1-ch\$2-r \$3;
#X obj 735 268 r \$0-tgl-s;
#X msg 762 331 \$1 0;
#X msg 842 331 \$1 1;
#X obj 815 268 loadbang;
#X obj 141 342 outlet~;
#X obj 167 371 outlet~;
#X obj 134 244 inlet~;
#X obj 157 264 inlet~;
#X msg 272 158 4 \$1;
#X msg 202 158 3 \$1;
#X obj 202 130 r \$0-ch3-s;
#X obj 272 130 r \$0-ch4-s;
#X msg 342 169 5 \$1;
#X msg 412 169 6 \$1;
#X msg 482 169 7 \$1;
#X msg 552 169 8 \$1;
#X obj 89 293 sp-hub8~ ......................;
#X obj 193 342 outlet~;
#X obj 219 371 outlet~;
#X obj 245 342 outlet~;
#X obj 272 371 outlet~;
#X obj 180 244 inlet~;
#X obj 203 264 inlet~;
#X obj 226 244 inlet~;
#X obj 249 264 inlet~;
#X obj 735 304 Uzi 8;
#X obj 815 304 Uzi 8;
#X obj 342 130 r \$0-ch5-s;
#X obj 412 130 r \$0-ch6-s;
#X obj 482 130 r \$0-ch7-s;
#X obj 552 130 r \$0-ch8-s;
#X obj 600 71 route invert save restore;
#X obj 600 47 route hub8;
#X obj 657 442 outlet;
#N canvas 314 163 229 295 invert 0;
#X obj 64 66 bang;
#X msg 91 122 \$1 bang;
#X obj 91 197 pack f f;
#X obj 91 156 expr \$0 \; $f1 \;;
#X obj 64 40 inlet;
#X msg 91 226 \; \$1-ch\$2-r bang;
#X obj 64 89 Uzi 8;
#X connect 0 0 6 0;
#X connect 1 0 3 0;
#X connect 2 0 5 0;
#X connect 3 0 2 0;
#X connect 3 1 2 1;
#X connect 4 0 0 0;
#X connect 6 2 1 0;
#X restore 600 99 pd invert;
#N canvas 586 324 193 293 color 0;
#X obj 41 167 expr \$0 \; $f1 \; $f2 \;;
#X obj 41 217 pack f f f;
#X msg 41 241 \; \$1-ch\$2-r color \$3;
#X obj 98 112 sel 0;
#X obj 41 87 unpack f f;
#X msg 98 141 13;
#X msg 130 141 6;
#X obj 41 35 inlet;
#X connect 0 0 1 0;
#X connect 0 1 1 1;
#X connect 0 2 1 2;
#X connect 1 0 2 0;
#X connect 3 0 5 0;
#X connect 3 1 6 0;
#X connect 4 0 0 0;
#X connect 4 1 3 0;
#X connect 5 0 0 1;
#X connect 6 0 0 1;
#X connect 7 0 4 0;
#X restore 332 203 pd color;
#X obj 680 48 r sp-\$1;
#X msg 649 128 bang;
#X obj 649 154 tof/param file;
#X msg 730 127 bang;
#N canvas 288 136 461 455 attrs 0;
#X obj 155 20 r \$0-ch1-s;
#X obj 155 44 change;
#X obj 155 134 change;
#X obj 155 110 r \$0-ch2-s;
#X obj 20 199 s \$0-ch2-r;
#X obj 20 100 s \$0-ch1-r;
#X obj 365 44 change;
#X obj 365 20 r \$0-ch3-s;
#X obj 365 134 change;
#X obj 365 110 r \$0-ch4-s;
#X obj 230 199 s \$0-ch4-r;
#X obj 230 109 s \$0-ch3-r;
#X obj 20 70 tof/param /ghub8/\$1/ch1;
#X obj 20 160 tof/param /ghub8/\$1/ch2;
#X obj 230 70 tof/param /ghub8/\$1/ch3;
#X obj 230 160 tof/param /ghub8/\$1/ch4;
#X obj 165 254 change;
#X obj 165 344 change;
#X obj 375 254 change;
#X obj 375 344 change;
#X obj 30 280 tof/param /ghub8/\$1/ch5;
#X obj 240 280 tof/param /ghub8/\$1/ch6;
#X obj 30 370 tof/param /ghub8/\$1/ch7;
#X obj 240 370 tof/param /ghub8/\$1/ch8;
#X obj 165 230 r \$0-ch5-s;
#X obj 375 230 r \$0-ch6-s;
#X obj 30 310 s \$0-ch5-r;
#X obj 240 319 s \$0-ch6-r;
#X obj 165 320 r \$0-ch7-s;
#X obj 375 320 r \$0-ch8-s;
#X obj 30 409 s \$0-ch7-r;
#X obj 240 409 s \$0-ch8-r;
#X connect 0 0 1 0;
#X connect 1 0 12 1;
#X connect 2 0 13 1;
#X connect 3 0 2 0;
#X connect 6 0 14 1;
#X connect 7 0 6 0;
#X connect 8 0 15 1;
#X connect 9 0 8 0;
#X connect 12 0 5 0;
#X connect 13 0 4 0;
#X connect 14 0 11 0;
#X connect 15 0 10 0;
#X connect 16 0 20 1;
#X connect 17 0 22 1;
#X connect 18 0 21 1;
#X connect 19 0 23 1;
#X connect 20 0 26 0;
#X connect 21 0 27 0;
#X connect 22 0 30 0;
#X connect 23 0 31 0;
#X connect 24 0 16 0;
#X connect 25 0 18 0;
#X connect 28 0 17 0;
#X connect 29 0 19 0;
#X restore 829 24 pd attrs;
#X connect 10 0 40 0;
#X connect 11 0 40 1;
#X connect 14 0 56 0;
#X connect 15 0 19 0;
#X connect 16 0 20 0;
#X connect 17 0 22 0;
#X connect 17 1 22 1;
#X connect 18 0 23 0;
#X connect 19 0 21 0;
#X connect 20 0 21 0;
#X connect 21 0 40 8;
#X connect 21 0 59 0;
#X connect 22 0 18 0;
#X connect 22 1 18 1;
#X connect 22 2 18 2;
#X connect 24 0 49 0;
#X connect 25 0 17 0;
#X connect 26 0 17 0;
#X connect 27 0 50 0;
#X connect 30 0 40 2;
#X connect 31 0 40 3;
#X connect 32 0 21 0;
#X connect 33 0 21 0;
#X connect 34 0 33 0;
#X connect 35 0 32 0;
#X connect 36 0 21 0;
#X connect 37 0 21 0;
#X connect 38 0 21 0;
#X connect 39 0 21 0;
#X connect 40 0 12 0;
#X connect 40 1 13 0;
#X connect 40 2 28 0;
#X connect 40 3 29 0;
#X connect 40 4 41 0;
#X connect 40 5 42 0;
#X connect 40 6 43 0;
#X connect 40 7 44 0;
#X connect 45 0 40 4;
#X connect 46 0 40 5;
#X connect 47 0 40 6;
#X connect 48 0 40 7;
#X connect 49 2 25 0;
#X connect 50 2 26 0;
#X connect 51 0 36 0;
#X connect 52 0 37 0;
#X connect 53 0 38 0;
#X connect 54 0 39 0;
#X connect 55 0 58 0;
#X connect 55 1 61 0;
#X connect 55 2 63 0;
#X connect 55 3 17 0;
#X connect 55 3 21 0;
#X connect 56 0 55 0;
#X connect 56 1 57 0;
#X connect 60 0 55 0;
#X connect 61 0 62 0;
#X connect 63 0 62 1;
#X coords 0 -1 1 1 168 19 2 150 20;
