#N canvas 129 154 978 434 10;
#X obj 243 37 inlet~;
#X obj 243 328 outlet~;
#X obj 243 297 sp-pass~;
#X obj 288 271 r \$0-pass-s;
#X obj 243 136 lop~ 20000;
#X obj 243 166 lop~ 20000;
#X obj 212 232 sp-dry-wet~;
#X obj 11 26 cnv 15 198 80 empty empty empty 20 12 0 14 -13381 -66577
0;
#X obj 472 38 inlet;
#X obj 472 75 route lop;
#X obj 523 322 outlet;
#X obj 192 32 tgl 12 0 \$0-pass-s \$0-pass-r pass: -35 6 0 10 -262130
-1 -262144 0 1;
#X obj 19 80 hsl 120 12 0 100 0 0 \$0-dry-wet-s \$0-dry-wet-r dry/wet:
-2 -8 0 10 -262144 -1 -262144 2400 1;
#X obj 149 80 nbx 3 12 0 100 0 0 \$0-dry-wet-s \$0-dry-wet-r empty
0 -8 0 10 -262144 -1 -1 20.1681 256;
#X obj 30 153 r \$0-dry-wet-s;
#X obj 30 184 change;
#X obj 30 213 s \$0-dry-wet-r;
#X obj 275 205 r \$0-dry-wet-s;
#X obj 472 112 route cutoff pass dry-wet;
#X obj 19 50 hsl 120 12 20 44100 1 0 \$0-cutoff-s \$0-cutoff-r cutoff:
-2 -8 0 10 -262144 -1 -262144 11900 1;
#X obj 150 50 nbx 5 12 20 44100 0 0 \$0-cutoff-s \$0-cutoff-r empty
0 -8 0 10 -262144 -1 -1 44100 256;
#X obj 35 260 r \$0-cutoff-s;
#X obj 35 285 change;
#X obj 35 310 s \$0-cutoff-r;
#X obj 318 119 r \$0-cutoff-s;
#X obj 472 145 s \$0-cutoff-r;
#X obj 521 181 s \$0-pass-r;
#X obj 570 213 s \$0-dry-wet-r;
#X obj 414 38 r sp-\$1;
#X obj 619 145 print [sp-glop~] unknown command;
#X obj 581 40 loadbang;
#X msg 581 74 cutoff 20 \, dry-wet 100;
#X connect 0 0 2 1;
#X connect 0 0 4 0;
#X connect 0 0 6 0;
#X connect 2 0 1 0;
#X connect 3 0 2 2;
#X connect 4 0 5 0;
#X connect 5 0 6 1;
#X connect 6 0 2 0;
#X connect 8 0 9 0;
#X connect 9 0 18 0;
#X connect 9 1 10 0;
#X connect 14 0 15 0;
#X connect 15 0 16 0;
#X connect 17 0 6 2;
#X connect 18 0 25 0;
#X connect 18 1 26 0;
#X connect 18 2 27 0;
#X connect 18 3 29 0;
#X connect 21 0 22 0;
#X connect 22 0 23 0;
#X connect 24 0 4 1;
#X connect 24 0 5 1;
#X connect 28 0 18 0;
#X connect 30 0 31 0;
#X connect 31 0 18 0;
#X coords 0 -1 1 1 200 100 1 10 10;
