#N canvas 157 126 816 565 10;
#X obj 11 28 cnv 15 198 100 \$0-back-s \$0-back-r empty 10 12 0 10
-99865 -262144 0;
#X obj 339 30 inlet;
#X obj 339 97 route lfo;
#X obj 390 450 outlet;
#X obj 212 521 outlet~;
#X obj 20 48 hsl 120 12 0 20 0 0 \$0-freq-1-s \$0-freq-1-r freq(main)
-2 -8 0 10 -262144 -1 -262144 59 1;
#X obj 20 78 hsl 120 12 0 1 0 0 \$0-freq-2-s \$0-freq-2-r freq(precision)
-2 -8 0 10 -262144 -1 -262144 0 1;
#X obj 17 99 nbx 6 20 0 20 0 0 \$0-freq-ind-s \$0-freq-ind-r empty
0 -8 0 15 -262144 -1 -1 0.0991597 256;
#X obj 23 215 r \$0-freq-1-s;
#X obj 110 215 r \$0-freq-2-s;
#X obj 110 240 t b f;
#X obj 23 277 +;
#X obj 23 325 s \$0-freq-ind-r;
#X obj 148 36 cnv 15 55 85 empty empty empty 20 12 0 14 -233017 -66577
0;
#X obj 155 52 vradio 14 1 0 4 \$0-shape-s \$0-shape-r empty 0 -8 0
10 -262144 -1 -1 1;
#X text 173 49 sin;
#X text 153 34 shape;
#X text 173 64 tri;
#X text 173 78 sqr;
#X text 173 92 saw;
#X obj 395 30 r sp-\$1;
#X obj 212 485 sp-hub~;
#X obj 212 353 multiplex~ . . . .;
#X obj 128 300 r \$0-shape-s;
#X obj 551 31 loadbang;
#X obj 339 186 sp-param-file;
#X obj 383 242 s \$0-freq-2-r;
#X obj 417 266 s \$0-freq-1-r;
#N canvas 151 427 450 300 phasor~ 0;
#X obj 30 17 inlet;
#X obj 30 155 outlet~;
#X obj 126 15 r \$0-reset;
#X obj 30 74 phasor~;
#X connect 0 0 3 0;
#X connect 2 0 3 1;
#X connect 3 0 1 0;
#X restore 317 291 pd phasor~;
#N canvas 686 433 302 215 tri~ 0;
#X obj 61 48 inlet;
#X obj 130 28 r \$0-reset;
#X obj 61 178 outlet~;
#X obj 61 93 phasor~;
#X obj 61 119 expr~ if($v1<.5 \, 2*$v1 \, 2*(1-$v1));
#X connect 0 0 3 0;
#X connect 1 0 3 1;
#X connect 3 0 4 0;
#X connect 4 0 2 0;
#X restore 247 291 pd tri~;
#X obj 28 353 r \$0-freq-ind-s;
#X obj 28 378 change;
#X obj 47 455 - 0.5;
#X msg 145 455 0.5;
#N canvas 717 460 450 300 square~ 0;
#X obj 44 48 inlet;
#X obj 44 82 phasor~;
#X obj 123 32 r \$0-reset;
#X obj 44 150 outlet~;
#X obj 44 116 expr~ if($v1<0.5 \, 1 \, 0);
#X connect 0 0 1 0;
#X connect 1 0 4 0;
#X connect 2 0 1 1;
#X connect 4 0 3 0;
#X restore 282 317 pd square~;
#X obj 115 484 s \$0-freq-2-r;
#X obj 28 485 s \$0-freq-1-r;
#X obj 339 134 route save restore freq shape reset stop start;
#X obj 456 170 s \$0-shape-r;
#X obj 495 229 s \$0-reset;
#X msg 495 200 0;
#X msg 534 269 0;
#X msg 573 269 1;
#X msg 551 55 freq 1 \, shape 0 \, start;
#X msg 23 300 set \$1;
#X obj 212 248 f;
#X obj 118 99 tgl 20 0 \$0-on-s \$0-on-r empty 17 7 0 10 -261234 -1
-1 1 1;
#X obj 251 383 r \$0-on-s;
#X obj 534 298 s \$0-on-r;
#N canvas 566 435 450 300 osc~ 0;
#X obj 70 42 inlet;
#X obj 70 88 osc~;
#X obj 70 185 outlet~;
#X obj 133 41 r \$0-reset;
#X obj 70 149 *~ 0.5;
#X obj 70 117 +~ 1;
#X connect 0 0 1 0;
#X connect 1 0 5 0;
#X connect 3 0 1 1;
#X connect 4 0 2 0;
#X connect 5 0 4 0;
#X restore 212 317 pd osc~;
#X msg 383 218 0;
#X obj 28 403 moses 0.5;
#X msg 115 455 0;
#X obj 612 167 print [sp-glfo~] unknown command;
#N canvas 240 224 579 277 param 1;
#X obj 49 91 tof/param /lfo/\$1/freq1 1;
#X obj 196 36 r \$0-freq-1-s;
#X obj 196 64 change;
#X obj 49 119 s \$0-freq-1-r;
#X obj 196 184 change;
#X obj 196 156 r \$0-freq-2-s;
#X obj 49 211 tof/param /lfo/\$1/freq2 0;
#X obj 49 239 s \$0-freq-2-r;
#X obj 476 64 change;
#X obj 476 36 r \$0-shape-s;
#X obj 329 91 tof/param /lfo/\$1/shape 0;
#X obj 329 119 s \$0-shape-r;
#X obj 458 184 change;
#X obj 458 156 r \$0-on-s;
#X obj 329 211 tof/param /lfo/\$1/on 1;
#X obj 329 239 s \$0-on-r;
#X connect 0 0 3 0;
#X connect 1 0 2 0;
#X connect 2 0 0 1;
#X connect 4 0 6 1;
#X connect 5 0 4 0;
#X connect 6 0 7 0;
#X connect 8 0 10 1;
#X connect 9 0 8 0;
#X connect 10 0 11 0;
#X connect 12 0 14 1;
#X connect 13 0 12 0;
#X connect 14 0 15 0;
#X restore 536 484 pd param;
#X connect 1 0 2 0;
#X connect 2 0 37 0;
#X connect 2 1 3 0;
#X connect 8 0 11 0;
#X connect 9 0 10 0;
#X connect 10 0 11 0;
#X connect 10 1 11 1;
#X connect 11 0 44 0;
#X connect 11 0 45 0;
#X connect 20 0 37 0;
#X connect 21 0 4 0;
#X connect 22 0 21 0;
#X connect 23 0 22 0;
#X connect 24 0 43 0;
#X connect 28 0 22 3;
#X connect 29 0 22 1;
#X connect 30 0 31 0;
#X connect 31 0 51 0;
#X connect 32 0 36 0;
#X connect 33 0 35 0;
#X connect 34 0 22 2;
#X connect 37 0 25 0;
#X connect 37 1 25 1;
#X connect 37 2 27 0;
#X connect 37 2 50 0;
#X connect 37 3 38 0;
#X connect 37 4 40 0;
#X connect 37 5 41 0;
#X connect 37 6 42 0;
#X connect 37 7 53 0;
#X connect 40 0 39 0;
#X connect 41 0 48 0;
#X connect 42 0 48 0;
#X connect 43 0 37 0;
#X connect 44 0 12 0;
#X connect 45 0 28 0;
#X connect 45 0 29 0;
#X connect 45 0 34 0;
#X connect 45 0 49 0;
#X connect 47 0 21 1;
#X connect 49 0 22 0;
#X connect 50 0 26 0;
#X connect 51 0 36 0;
#X connect 51 0 52 0;
#X connect 51 1 32 0;
#X connect 51 1 33 0;
#X connect 52 0 35 0;
#X coords 0 -1 1 1 200 120 1 10 10;
