#N canvas 162 114 872 534 10;
#X obj 59 320 sp-hub2~;
#X obj 59 271 inlet~;
#X obj 108 271 inlet~;
#X obj 59 369 outlet~;
#X obj 113 369 outlet~;
#X obj 104 227 list;
#X obj 21 23 cnv 10 40 14 empty empty empty 20 12 0 14 -128992 -66577
0;
#X obj 20 24 tgl 12 0 \$0-ch0-s \$0-ch0-r empty 17 7 0 10 -225271 -1
-262144 1 1;
#X obj 652 147 unpack f f;
#X obj 652 229 pack f f f;
#X obj 652 177 expr \$0 \; $f1 \; $f2 \;;
#X obj 585 57 Uzi 2;
#X msg 652 256 \; \$1-ch\$2-r \$3;
#X obj 585 18 r \$0-tgl-s;
#X msg 612 111 \$1 0;
#X obj 685 54 Uzi 2;
#X msg 712 111 \$1 1;
#X obj 685 18 loadbang;
#X obj 179 50 route hub2;
#X obj 37 24 tgl 12 0 \$0-ch1-s \$0-ch1-r empty 17 7 0 10 -225271 -1
-262144 1 1;
#X obj 53 26 bng 8 250 50 0 \$0-tgl-s \$0-tgl-r empty 17 7 0 10 -203904
-1 -1;
#N canvas 314 163 230 282 invert 0;
#X obj 64 59 Uzi 2;
#X obj 64 36 bang;
#X msg 91 122 \$1 bang;
#X obj 91 197 pack f f;
#X obj 91 156 expr \$0 \; $f1 \;;
#X msg 91 226 \; \$1-ch\$2-r bang;
#X obj 64 10 inlet;
#X obj 91 91 - 1;
#X connect 0 2 7 0;
#X connect 1 0 0 0;
#X connect 2 0 4 0;
#X connect 3 0 5 0;
#X connect 4 0 3 0;
#X connect 4 1 3 1;
#X connect 6 0 1 0;
#X connect 7 0 2 0;
#X restore 230 169 pd invert;
#N canvas 586 324 193 293 color 0;
#X obj 41 167 expr \$0 \; $f1 \; $f2 \;;
#X obj 41 217 pack f f f;
#X msg 41 241 \; \$1-ch\$2-r color \$3;
#X obj 98 112 sel 0;
#X obj 41 87 unpack f f;
#X msg 98 141 13;
#X msg 130 141 6;
#X obj 41 35 inlet;
#X connect 0 0 1 0;
#X connect 0 1 1 1;
#X connect 0 2 1 2;
#X connect 1 0 2 0;
#X connect 3 0 5 0;
#X connect 3 1 6 0;
#X connect 4 0 0 0;
#X connect 4 1 3 0;
#X connect 5 0 0 1;
#X connect 6 0 0 1;
#X connect 7 0 4 0;
#X restore 168 271 pd color;
#X obj 306 67 r sp-\$1;
#N canvas 574 311 305 238 attrs 0;
#X obj 155 44 change;
#X obj 155 134 change;
#X obj 20 70 tof/param /ghub2/\$1/ch1;
#X obj 20 160 tof/param /ghub2/\$1/ch2;
#X obj 155 20 r \$0-ch0-s;
#X obj 155 110 r \$0-ch1-s;
#X obj 20 100 s \$0-ch0-r;
#X obj 20 199 s \$0-ch1-r;
#X connect 0 0 2 1;
#X connect 1 0 3 1;
#X connect 2 0 6 0;
#X connect 3 0 7 0;
#X connect 4 0 0 0;
#X connect 5 0 1 0;
#X restore 789 48 pd attrs;
#N canvas 357 321 442 256 midi 0;
#X obj 28 26 ctlin;
#X obj 28 147 spigot;
#X obj 41 65 == -1;
#X obj 28 176 == 127;
#X obj 28 206 s \$0-ch1-r;
#X obj 238 26 ctlin;
#X obj 238 147 spigot;
#X obj 251 65 == -1;
#X obj 238 176 == 127;
#X obj 238 206 s \$0-ch2-r;
#X obj 81 26 r \$0-midilearn0;
#X obj 291 26 r \$0-midi-learn1;
#X connect 0 0 1 0;
#X connect 0 1 2 0;
#X connect 1 0 3 0;
#X connect 2 0 1 1;
#X connect 3 0 4 0;
#X connect 5 0 6 0;
#X connect 5 1 7 0;
#X connect 6 0 8 0;
#X connect 7 0 6 1;
#X connect 8 0 9 0;
#X connect 10 0 2 1;
#X connect 11 0 7 1;
#X restore 789 96 pd midi;
#X obj 281 200 sp-param-file;
#X obj 230 123 route invert save restore midilearn;
#X obj 179 18 inlet control;
#X obj 179 84 route 0 1;
#X obj 236 489 outlet control;
#X msg 385 152 0 midilearn \$1 \, 1 midilearn \$1;
#N canvas 384 198 226 404 midilearn 0;
#X obj 22 23 inlet f0;
#X obj 22 104 route midilearn;
#X obj 136 22 inlet f1;
#X obj 22 180 demux . .;
#X obj 22 55 t a b;
#X msg 106 132 0;
#X msg 141 132 1;
#X obj 136 52 t a b;
#X obj 23 216 ctlin;
#X obj 23 287 spigot;
#X obj 36 255 == -1;
#X obj 23 316 == 127;
#X obj 103 216 ctlin;
#X obj 103 287 spigot;
#X obj 116 255 == -1;
#X obj 103 316 == 127;
#X obj 23 346 s \$0-ch0-r;
#X obj 103 346 s \$0-ch1-r;
#X connect 0 0 4 0;
#X connect 1 0 3 0;
#X connect 2 0 7 0;
#X connect 3 0 10 1;
#X connect 3 1 14 1;
#X connect 4 0 1 0;
#X connect 4 1 5 0;
#X connect 5 0 3 1;
#X connect 6 0 3 1;
#X connect 7 0 1 0;
#X connect 7 1 6 0;
#X connect 8 0 9 0;
#X connect 8 1 10 0;
#X connect 9 0 11 0;
#X connect 10 0 9 1;
#X connect 11 0 16 0;
#X connect 12 0 13 0;
#X connect 12 1 14 0;
#X connect 13 0 15 0;
#X connect 14 0 13 1;
#X connect 15 0 17 0;
#X restore 277 311 pd midilearn;
#X obj 437 186 print [sp-ghub2~] unknown command;
#N canvas 671 462 258 282 select 0;
#X obj 28 27 inlet t0;
#X obj 172 27 inlet t1;
#X obj 28 242 outlet;
#X obj 28 59 route float;
#X obj 172 56 route float;
#X obj 28 94 t f b;
#X obj 172 88 t f b;
#X obj 28 193 pack f f;
#X msg 55 125 0;
#X msg 199 120 1;
#X msg 28 217 \$2 \$1;
#X connect 0 0 3 0;
#X connect 1 0 4 0;
#X connect 3 0 5 0;
#X connect 4 0 6 0;
#X connect 5 0 7 0;
#X connect 5 1 8 0;
#X connect 6 0 7 0;
#X connect 6 1 9 0;
#X connect 7 0 10 0;
#X connect 8 0 7 1;
#X connect 9 0 7 1;
#X connect 10 0 2 0;
#X restore 369 312 pd select;
#X obj 34 171 r \$0-ch0-s;
#X obj 104 171 r \$0-ch1-s;
#X obj 612 84 - 1;
#X obj 712 82 - 1;
#X msg 104 199 1 \$1;
#X msg 34 199 0 \$1;
#X connect 0 0 3 0;
#X connect 0 1 4 0;
#X connect 1 0 0 0;
#X connect 2 0 0 1;
#X connect 5 0 0 2;
#X connect 5 0 22 0;
#X connect 8 0 10 0;
#X connect 8 1 10 1;
#X connect 9 0 12 0;
#X connect 10 0 9 0;
#X connect 10 1 9 1;
#X connect 10 2 9 2;
#X connect 11 2 37 0;
#X connect 13 0 11 0;
#X connect 14 0 8 0;
#X connect 15 2 38 0;
#X connect 16 0 8 0;
#X connect 17 0 15 0;
#X connect 18 0 29 0;
#X connect 18 1 30 0;
#X connect 23 0 29 0;
#X connect 27 0 21 0;
#X connect 27 1 26 0;
#X connect 27 2 26 1;
#X connect 27 3 31 0;
#X connect 27 4 33 0;
#X connect 28 0 18 0;
#X connect 29 0 32 0;
#X connect 29 0 34 0;
#X connect 29 1 32 1;
#X connect 29 1 34 1;
#X connect 29 2 27 0;
#X connect 31 0 29 0;
#X connect 34 0 8 0;
#X connect 35 0 40 0;
#X connect 36 0 39 0;
#X connect 37 0 14 0;
#X connect 38 0 16 0;
#X connect 39 0 5 0;
#X connect 40 0 5 0;
#X coords 0 -1 1 1 42 19 2 20 20;
