#N canvas 36 22 1177 559 10;
#X declare -lib flatgui;
#X obj 434 28 inlet~;
#X obj 559 28 inlet;
#X obj 559 100 route filter-material;
#X obj 682 376 outlet;
#X obj 434 460 outlet~;
#X obj 16 50 popup 124 25 #ffffff popup cardboard wood plastic china
glass1 glass2 metal;
#X obj 15 249 import flatgui;
#X obj 434 282 sp-filter-material~;
#X obj 434 425 sp-pass~;
#X obj 559 128 route save restore color material pass dry-wet;
#X obj 621 27 r sp-\$1;
#X obj 63 186 loadbang;
#X obj 559 156 sp-param-file;
#X obj 11 27 cnv 15 198 80 \$0-back-s \$0-back-r empty 20 12 0 14 -245761
-355 0;
#X text 19 32 Material:;
#X msg 16 215 options cardboard wood plastic china glass1 glass2 metal
\, 0;
#X obj 545 237 r \$0-material-s;
#X obj 200 148 s \$0-material-s;
#X obj 82 149 r \$0-material-r;
#X obj 650 156 list prepend color;
#X obj 650 182 list trim;
#X obj 650 208 s \$0-back-r;
#X obj 695 242 s \$0-material-r;
#X obj 189 35 tgl 12 0 \$0-pass-s \$0-pass-r pass -30 6 0 10 -262144
-1 -1 0 1;
#X obj 479 385 r \$0-pass-s;
#X obj 741 278 s \$0-pass-r;
#N canvas 292 218 452 387 param 0;
#X obj 41 71 tof/param /filter-material/\$1/material 0;
#X obj 278 44 change;
#X obj 278 16 r \$0-material-s;
#X obj 41 96 s \$0-material-r;
#X obj 39 169 tof/param /filter-material/\$1/pass 0;
#X obj 252 145 change;
#X obj 252 122 r \$0-pass-s;
#X obj 39 195 s \$0-pass-r;
#X obj 38 256 tof/param /filter-material/\$1/dry-wet 100;
#X obj 281 234 change;
#X obj 281 212 r \$0-dry-wet-s;
#X obj 38 283 s \$0-dry-wet-r;
#X connect 0 0 3 0;
#X connect 1 0 0 1;
#X connect 2 0 1 0;
#X connect 4 0 7 0;
#X connect 5 0 4 1;
#X connect 6 0 5 0;
#X connect 8 0 11 0;
#X connect 9 0 8 1;
#X connect 10 0 9 0;
#X restore 19 303 pd param;
#X obj 403 369 sp-dry-wet~;
#X obj 466 337 r \$0-dry-wet-s;
#X msg 689 68 dry-wet 100 \, material 0 \, pass 0;
#X obj 689 45 loadbang;
#X obj 786 167 s \$0-dry-wet-r;
#X obj 832 201 print [sp-filter-material] unknown command;
#X obj 24 92 hsl 120 12 0 100 0 0 \$0-dry-wet-s \$0-dry-wet-r dry/wet:
-2 -8 0 10 -262144 -1 -1 10600 1;
#X obj 160 91 nbx 3 12 0 100 0 0 \$0-dry-wetn-s \$0-dry-wetn-s empty
0 -8 0 10 -262144 -1 -1 89.0756 256;
#X obj 224 89 change;
#X obj 200 122 change;
#X connect 0 0 7 0;
#X connect 0 0 27 0;
#X connect 0 0 8 1;
#X connect 1 0 2 0;
#X connect 2 0 9 0;
#X connect 2 1 3 0;
#X connect 5 0 36 0;
#X connect 7 0 27 1;
#X connect 8 0 4 0;
#X connect 9 0 12 0;
#X connect 9 1 12 1;
#X connect 9 2 19 0;
#X connect 9 3 22 0;
#X connect 9 4 25 0;
#X connect 9 5 31 0;
#X connect 9 6 32 0;
#X connect 10 0 9 0;
#X connect 11 0 15 0;
#X connect 15 0 5 0;
#X connect 16 0 7 1;
#X connect 18 0 5 0;
#X connect 19 0 20 0;
#X connect 20 0 21 0;
#X connect 24 0 8 2;
#X connect 27 0 8 0;
#X connect 28 0 27 2;
#X connect 29 0 2 0;
#X connect 30 0 29 0;
#X connect 33 0 34 0;
#X connect 34 0 35 0;
#X connect 35 0 33 0;
#X connect 36 0 17 0;
#X coords 0 -1 1 1 200 100 1 10 10;
