#N canvas 415 247 787 338 10;
#X declare -lib zexy;
#X obj 11 27 cnv 15 198 80 empty empty empty 20 12 0 14 -99865 -66577
0;
#X obj 283 289 outlet~;
#X obj 453 62 route input;
#X obj 453 135 sp-param-file;
#X obj 557 22 r sp-\$1;
#X obj 453 22 inlet control;
#X obj 516 284 outlet;
#X obj 677 21 import zexy;
#N canvas 310 233 450 300 param 1;
#X obj 30 94 change;
#X obj 30 234 change;
#X obj 165 15 r \$0-prev-rms-s;
#X obj 30 125 s \$0-prev-rms-r;
#X obj 30 61 tof/param /input/\$1/rms;
#X obj 171 155 r \$0-prev-peak-s;
#X obj 30 201 tof/param /input/\$1/peak;
#X obj 30 265 s \$0-prev-peak-r;
#X connect 0 0 3 0;
#X connect 1 0 7 0;
#X connect 2 0 4 1;
#X connect 4 0 0 0;
#X connect 5 0 6 1;
#X connect 6 0 1 0;
#X restore 24 156 pd param;
#N canvas 685 161 450 300 env 0;
#X obj 40 40 inlet~;
#X obj 71 86 env~ 44100;
#X obj 161 87 pvu~;
#X obj 161 237 s \$0-peak-r;
#X obj 71 148 s \$0-rms-r;
#X obj 161 115 + 100;
#X obj 161 179 max;
#X obj 197 179 f;
#X obj 214 81 r \$0-reset-s;
#X msg 214 115 0;
#X connect 0 0 1 0;
#X connect 0 0 2 0;
#X connect 1 0 4 0;
#X connect 2 0 5 0;
#X connect 5 0 6 0;
#X connect 6 0 3 0;
#X connect 6 0 7 0;
#X connect 7 0 6 1;
#X connect 8 0 9 0;
#X connect 9 0 6 1;
#X restore 323 125 pd env;
#X obj 52 46 nbx 4 14 -1e+37 1e+37 0 0 \$0-rms-s \$0-rms-r rms -30
6 0 10 -261689 -1 -262144 57.7256 256;
#X obj 52 66 nbx 4 14 -1e+37 1e+37 0 0 \$0-peak-s \$0-peak-r peak -30
6 0 10 -261689 -1 -262144 84.6716 256;
#X obj 283 50 inlet~;
#X obj 52 85 bng 14 250 50 0 \$0-reset-s \$0-reset-r reset -35 7 0
10 -262144 -1 -262144;
#X obj 453 105 route save restore;
#X text 50 27 signal;
#X obj 152 46 nbx 4 14 -1e+37 1e+37 0 0 \$0-prev-rms-s \$0-prev-rms-r
rms -30 6 0 10 -262144 -1 -262144 28.2091 256;
#X obj 152 66 nbx 4 14 -1e+37 1e+37 0 0 \$0-prev-peak-s \$0-prev-peak-r
peak -30 6 0 10 -262144 -1 -262144 0 256;
#X text 150 27 expected;
#N canvas 712 48 376 264 indication 0;
#X obj 28 137 >;
#X obj 28 164 sel 1;
#X msg 28 194 color 3;
#X obj 55 87 s \$0-prev-peak-r;
#X obj 65 120 r \$0-prev-peak-s;
#X obj 28 224 s \$0-peak-r;
#X obj 28 23 r \$0-peak-s;
#X msg 88 194 color 0;
#X obj 28 55 t f b;
#X obj 198 137 >;
#X obj 198 164 sel 1;
#X msg 198 194 color 3;
#X obj 198 55 t f b;
#X obj 198 23 r \$0-rms-s;
#X obj 198 224 s \$0-rms-r;
#X obj 225 87 s \$0-prev-rms-r;
#X obj 235 120 r \$0-prev-rms-s;
#X msg 258 194 color 6;
#X connect 0 0 1 0;
#X connect 1 0 2 0;
#X connect 1 1 7 0;
#X connect 2 0 5 0;
#X connect 4 0 0 1;
#X connect 6 0 8 0;
#X connect 7 0 5 0;
#X connect 8 0 0 0;
#X connect 8 1 3 0;
#X connect 9 0 10 0;
#X connect 10 0 11 0;
#X connect 10 1 17 0;
#X connect 11 0 14 0;
#X connect 12 0 9 0;
#X connect 12 1 15 0;
#X connect 13 0 12 0;
#X connect 16 0 9 1;
#X connect 17 0 14 0;
#X restore 24 189 pd indication;
#X obj 151 86 bng 14 250 50 0 \$0-copy-s \$0-copy-r copy -28 7 0 10
-262144 -1 -262144;
#N canvas 743 79 450 300 copy 0;
#X obj 48 44 r \$0-copy-s;
#X obj 48 234 s \$0-prev-rms-r;
#X obj 48 205 + 1;
#X obj 161 205 + 1;
#X obj 161 234 s \$0-prev-peak-r;
#X obj 48 172 f;
#X obj 63 140 r \$0-rms-s;
#X obj 161 174 f;
#X obj 176 140 r \$0-peak-s;
#X obj 48 71 t b b;
#X connect 0 0 9 0;
#X connect 2 0 1 0;
#X connect 3 0 4 0;
#X connect 5 0 2 0;
#X connect 6 0 5 1;
#X connect 7 0 3 0;
#X connect 8 0 7 1;
#X connect 9 0 5 0;
#X connect 9 1 7 0;
#X restore 24 222 pd copy;
#X msg 559 58 save;
#X connect 2 0 14 0;
#X connect 2 1 6 0;
#X connect 4 0 14 0;
#X connect 5 0 2 0;
#X connect 12 0 9 0;
#X connect 12 0 1 0;
#X connect 14 0 3 0;
#X connect 14 1 3 1;
#X coords 0 -1 1 1 200 100 1 10 10;
