#N canvas 0 22 450 300 10;
#X obj 95 128 sp-generic-button icons/play-icon.gif;
#X obj 95 211 bng 15 250 50 0 empty empty empty 17 7 0 10 -262144 -1
-1;
#X msg 113 49 icons/pause-icon.gif;
#X msg 95 80 icons/stop-icon.gif;
#X connect 0 0 1 0;
#X connect 2 0 0 0;
#X connect 3 0 0 0;
