#N canvas 467 137 633 452 10;
#X obj 124 67 osc~ 440;
#X obj 124 107 *~;
#X obj 186 46 dbtorms;
#X floatatom 186 24 5 0 0 0 - - -;
#X obj 400 103 sp-gbeep~ 440;
#X obj 400 142 *~ 20;
#X obj 95 266 env~;
#X floatatom 95 294 5 0 0 0 - - -;
#X obj 291 265 env~;
#X floatatom 291 287 5 0 0 0 - - -;
#X obj 170 316 +dsp;
#X obj 186 90 line~;
#X msg 186 69 \$1 20;
#X obj 273 101 tgl 15 0 empty empty empty 17 7 0 10 -262144 -1 -1 0
1;
#X floatatom 302 39 5 0 0 0 - - -;
#X msg 446 42 limiter threshold 81;
#X msg 273 129 limiter pass \$1;
#X msg 449 70 limiter unknown;
#X obj 170 182 sp-glimiter~ l1;
#X msg 480 174 \; sp-l1 threshold 80;
#X msg 302 70 limiter threshold \$1;
#X connect 0 0 1 0;
#X connect 1 0 18 0;
#X connect 2 0 12 0;
#X connect 3 0 2 0;
#X connect 4 0 5 0;
#X connect 5 0 18 1;
#X connect 6 0 7 0;
#X connect 8 0 9 0;
#X connect 11 0 1 1;
#X connect 12 0 11 0;
#X connect 13 0 16 0;
#X connect 14 0 20 0;
#X connect 15 0 18 2;
#X connect 16 0 18 2;
#X connect 17 0 18 2;
#X connect 18 0 6 0;
#X connect 18 0 10 0;
#X connect 18 1 8 0;
#X connect 18 1 10 1;
#X connect 20 0 18 2;
