#N canvas 185 66 964 471 10;
#X obj 11 28 cnv 15 198 130 empty empty empty 20 12 0 14 -66577 -66577
0;
#X obj 289 56 inlet~;
#X obj 389 17 inlet control;
#X obj 389 50 route gring1;
#N canvas 634 355 450 300 snd 0;
#X obj 47 27 inlet~;
#X obj 47 180 *~;
#X obj 47 227 outlet~;
#X obj 115 56 osc~;
#X obj 115 85 *~ 1;
#X obj 115 27 r \$0-freq-s;
#X obj 166 68 r \$0-begin-s;
#X obj 115 114 +~ 0;
#X obj 115 143 osc~;
#X obj 282 28 inlet turn-on-off;
#X obj 282 99 switch~;
#X obj 168 97 r \$0-bandwidth-s;
#X connect 0 0 1 0;
#X connect 1 0 2 0;
#X connect 3 0 4 0;
#X connect 4 0 7 0;
#X connect 5 0 3 0;
#X connect 6 0 4 1;
#X connect 7 0 8 0;
#X connect 8 0 1 1;
#X connect 9 0 10 0;
#X connect 11 0 7 1;
#X restore 289 156 pd snd;
#X obj 289 373 outlet~;
#X obj 289 271 sp-pass~;
#X obj 258 210 sp-dry-wet~;
#X obj 20 52 hsl 120 12 0.1 1000 0 0 \$0-freq-s \$0-freq-r freq: 0
-8 0 10 -262144 -1 -262144 5 1;
#X obj 150 51 nbx 5 13 0.1 1000 0 0 \$0-freq-nbx-s \$0-freq-nbx-r empty
0 -8 0 10 -262144 -1 -1 0.520126 256;
#X obj 218 44 change;
#X obj 458 372 outlet control;
#X obj 698 105 print [sp-gring1~] unknown command;
#X obj 521 139 sp-param-file;
#X obj 506 50 r sp-\$1;
#N canvas 278 344 636 393 param 1;
#X obj 212 18 r \$0-freq-s;
#X obj 41 74 change;
#X obj 41 100 s \$0-freq-r;
#X obj 41 154 change;
#X obj 218 98 r \$0-begin-s;
#X obj 41 180 s \$0-begin-r;
#X obj 41 264 change;
#X obj 41 290 s \$0-bandwidth-r;
#X obj 321 264 change;
#X obj 321 290 s \$0-pass-r;
#X obj 480 208 r \$0-pass-s;
#X obj 321 237 tof/param /\$1/gring1/pass 0;
#X obj 200 208 r \$0-bandwidth-s;
#X obj 41 237 tof/param /\$1/gring1/bw 600;
#X obj 41 127 tof/param /\$1/gring1/begin 400;
#X obj 41 47 tof/param /\$1/gring1/freq 0.5;
#X obj 321 144 change;
#X obj 480 88 r \$0-dry-wet-s;
#X obj 321 170 s \$0-dry-wet-r;
#X obj 321 117 tof/param /\$1/gring1/dw 100;
#X connect 0 0 15 1;
#X connect 1 0 2 0;
#X connect 3 0 5 0;
#X connect 4 0 14 1;
#X connect 6 0 7 0;
#X connect 8 0 9 0;
#X connect 10 0 11 1;
#X connect 11 0 8 0;
#X connect 12 0 13 1;
#X connect 13 0 6 0;
#X connect 14 0 3 0;
#X connect 15 0 1 0;
#X connect 16 0 18 0;
#X connect 17 0 19 1;
#X connect 19 0 16 0;
#X restore 32 224 pd param;
#X obj 389 104 s \$0-freq-r;
#X obj 20 79 hsl 120 12 0.1 10000 0 0 \$0-begin-s \$0-begin-r begin:
0 -8 0 10 -262144 -1 -262144 8200 1;
#X obj 150 78 nbx 5 13 0.1 10000 0 0 \$0-begin-nbx-s \$0-begin-nbx-r
empty 0 -8 0 10 -262144 -1 -1 6890.79 256;
#X obj 218 74 change;
#X obj 584 16 loadbang;
#X obj 20 108 hsl 120 12 1 8000 0 0 \$0-bandwidth-s \$0-bandwidth-r
bandwidth: 0 -8 0 10 -262144 -1 -262144 200 1;
#X obj 150 107 nbx 5 13 0.1 10000 0 0 \$0-bandwidth-nbx-s \$0-bandwidth-nbx-r
empty 0 -8 0 10 -262144 -1 -1 135.437 256;
#X obj 218 104 change;
#X obj 433 132 s \$0-begin-r;
#X obj 477 173 s \$0-bandwidth-r;
#X obj 20 137 hsl 120 12 0 100 0 0 \$0-dry-wet-s \$0-dry-wet-r dry-wet:
0 -8 0 10 -262144 -1 -262144 9000 1;
#X obj 150 136 nbx 3 13 0 100 0 0 \$0-dw-nbx-s \$0-dw-nbx-r empty 0
-8 0 10 -262144 -1 -1 75.6302 256;
#X obj 218 134 change;
#X obj 321 179 r \$0-dry-wet-s;
#X msg 584 41 freq 0.5 \, begin 400 \, bandwidth 600 \, dry-wet-s 100
;
#X obj 609 173 s \$0-dry-wet-r;
#X obj 322 108 init 1;
#X obj 389 78 route freq begin bandwidth save restore dry-wet pass
;
#X obj 653 142 s \$0-pass-r;
#X obj 190 31 tgl 12 0 \$0-pass-s \$0-pass-r pass: -35 6 0 10 -262130
-1 -1 0 1;
#X obj 361 234 r \$0-pass-s;
#X connect 1 0 4 0;
#X connect 1 0 6 1;
#X connect 1 0 7 0;
#X connect 2 0 3 0;
#X connect 3 0 33 0;
#X connect 3 1 11 0;
#X connect 4 0 7 1;
#X connect 6 0 5 0;
#X connect 7 0 6 0;
#X connect 8 0 9 0;
#X connect 9 0 10 0;
#X connect 10 0 8 0;
#X connect 14 0 33 0;
#X connect 17 0 18 0;
#X connect 18 0 19 0;
#X connect 19 0 17 0;
#X connect 20 0 30 0;
#X connect 21 0 22 0;
#X connect 22 0 23 0;
#X connect 23 0 21 0;
#X connect 26 0 27 0;
#X connect 27 0 28 0;
#X connect 28 0 26 0;
#X connect 29 0 7 2;
#X connect 30 0 33 0;
#X connect 32 0 4 1;
#X connect 33 0 16 0;
#X connect 33 1 24 0;
#X connect 33 2 25 0;
#X connect 33 3 13 0;
#X connect 33 4 13 1;
#X connect 33 5 31 0;
#X connect 33 6 34 0;
#X connect 33 7 12 0;
#X connect 36 0 6 2;
#X coords 0 -1 1 1 200 150 1 10 10;
