#N canvas 314 117 815 302 10;
#X obj 217 26 inlet~;
#X obj 57 256 outlet~;
#X obj 107 256 outlet~;
#X obj 157 256 outlet~;
#X obj 207 256 outlet~;
#X obj 41 38 cnv 15 98 25 empty empty empty 20 12 0 14 -66577 -66577
0;
#X obj 380 25 inlet control;
#X obj 482 56 r sp-\$1;
#X obj 380 120 sp-param-file;
#X obj 560 256 outlet control;
#X obj 462 150 s \$0-select-r;
#X obj 42 45 hradio 12 1 0 8 \$0-select-s \$0-select-r empty -40 6
0 10 -262144 -1 -262144 7;
#N canvas 149 294 333 195 save 0;
#X obj 44 128 s \$0-select-r;
#X obj 215 47 r \$0-select-s;
#X obj 215 74 change;
#X obj 44 103 tof/param /sp/demux8/select 0;
#X connect 1 0 2 0;
#X connect 2 0 3 1;
#X connect 3 0 0 0;
#X restore 83 165 pd save;
#X obj 245 57 r \$0-select-s;
#X obj 217 110 demux~ . . . . . . . .;
#X obj 257 256 outlet~;
#X obj 307 256 outlet~;
#X obj 357 256 outlet~;
#X obj 587 150 print [sp-gdemux8~] unknown command;
#X obj 380 56 route demux8;
#N canvas 159 350 450 300 select 0;
#X obj 21 20 inlet next;
#X obj 21 48 bang;
#X obj 54 103 f;
#X obj 69 62 r \$0-select-s;
#X obj 54 128 + 1;
#X obj 54 153 s \$0-select-r;
#X obj 201 48 bang;
#X obj 234 103 f;
#X obj 249 62 r \$0-select-s;
#X obj 234 153 s \$0-select-r;
#X obj 234 128 - 1;
#X obj 201 20 inlet prev;
#X connect 0 0 1 0;
#X connect 1 0 2 0;
#X connect 2 0 4 0;
#X connect 3 0 2 1;
#X connect 4 0 5 0;
#X connect 6 0 7 0;
#X connect 7 0 10 0;
#X connect 8 0 7 1;
#X connect 10 0 9 0;
#X connect 11 0 6 0;
#X restore 504 120 pd select;
#X obj 407 256 outlet~;
#X obj 380 89 route save restore select next prev;
#X connect 0 0 14 0;
#X connect 6 0 19 0;
#X connect 7 0 22 0;
#X connect 13 0 14 0;
#X connect 14 0 1 0;
#X connect 14 1 2 0;
#X connect 14 2 3 0;
#X connect 14 3 4 0;
#X connect 14 4 15 0;
#X connect 14 5 16 0;
#X connect 14 6 17 0;
#X connect 14 7 21 0;
#X connect 19 0 22 0;
#X connect 19 1 9 0;
#X connect 22 0 8 0;
#X connect 22 1 8 1;
#X connect 22 2 10 0;
#X connect 22 3 20 0;
#X connect 22 4 20 1;
#X connect 22 5 18 0;
#X coords 0 -1 1 1 100 45 1 40 20;
