#N canvas 449 245 450 300 10;
#X obj 30 175 sp-gtimer;
#X msg 116 105 save;
#X msg 169 104 restore;
#X obj 76 59 tgl 15 0 empty empty empty 17 7 0 10 -262144 -1 -1 1 1
;
#X msg 30 127 color 1 16;
#X msg 36 88 color 15 24;
#X connect 1 0 0 0;
#X connect 2 0 0 0;
#X connect 3 0 0 0;
#X connect 4 0 0 0;
#X connect 5 0 0 0;
