#N canvas 0 22 741 430 10;
#X obj 233 210 sigpack/chop~;
#X obj 142 25 inlet~;
#X obj 463 35 inlet;
#X obj 560 302 clip -2 2;
#X obj 463 89 clip 0 22050;
#X obj 270 185 osc~ 2;
#X obj 11 26 cnv 15 108 101 empty empty empty 20 12 0 14 -99865 -66577
0;
#X obj 17 47 hsl 98 10 0 30 0 0 \$0-freq1-s \$0-freq1-r freq1 -2 -10
0 10 -262144 -1 -262144 970 1;
#X obj 72 30 nbx 4 14 -1e+37 1e+37 0 0 \$0-freq1-ind-s \$0-freq1-ind-r
empty 0 -8 0 10 -262144 -1 -1 3 256;
#X obj 66 62 hradio 10 1 0 5 \$0-factor1-s \$0-factor1-r factor1 -50
5 0 10 -262144 -1 -262144 2;
#X msg 463 115 set \$1;
#X obj 353 193 - 2;
#X obj 560 327 + 2;
#X msg 560 352 set \$1;
#X obj 17 95 hsl 98 10 0 30 0 0 \$0-freq2-s \$0-freq2-r freq2 -2 -10
0 10 -262144 -1 -262144 1617 1;
#X obj 72 78 nbx 4 14 -1e+37 1e+37 0 0 \$0-freq2-ind-s \$0-freq2-ind-r
empty 0 -8 0 10 -262144 -1 -1 5.00103 256;
#X obj 66 110 hradio 10 1 0 5 \$0-factor2-s \$0-factor2-r factor2 -50
5 0 10 -262144 -1 -262144 0;
#X obj 233 280 sigpack/chop~;
#X obj 270 255 osc~ 2;
#X obj 270 234 r \$0-freq2-s;
#X obj 233 328 outlet~;
#X obj 270 164 r \$0-freq1-s;
#N canvas 306 74 436 132 init 0;
#X obj 38 19 loadbang;
#X msg 209 56 2;
#X obj 209 87 s \$0-factor1-r;
#X obj 301 87 s \$0-factor2-r;
#X obj 38 88 s \$0-freq1-r;
#X obj 125 88 s \$0-freq2-r;
#X msg 125 56 5;
#X msg 38 56 3.5;
#X msg 301 56 2;
#X connect 0 0 1 0;
#X connect 0 0 8 0;
#X connect 0 0 7 0;
#X connect 0 0 6 0;
#X connect 1 0 2 0;
#X connect 6 0 5 0;
#X connect 7 0 4 0;
#X connect 8 0 3 0;
#X restore 228 26 pd init;
#X obj 353 164 r \$0-factor1-s;
#X obj 352 263 - 2;
#X obj 352 234 r \$0-factor2-s;
#X obj 463 64 route freq1 freq2 factor1 factor2;
#X obj 463 144 s \$0-freq1-r;
#X obj 463 167 s \$0-freq1-ind-r;
#X obj 560 375 s \$0-factor1-r;
#X obj 511 192 clip 0 22050;
#X msg 511 218 set \$1;
#X obj 511 247 s \$0-freq2-r;
#X obj 511 270 s \$0-freq2-ind-r;
#X obj 609 92 clip -2 2;
#X obj 609 117 + 2;
#X msg 609 142 set \$1;
#X obj 609 165 s \$0-factor2-r;
#X obj 142 164 sp-switch~;
#X obj 105 13 tgl 10 0 \$0-skip-s \$0-skip-r s -8 5 0 10 -262130 -1
-1 0 1;
#X connect 0 0 17 0;
#X connect 1 0 38 0;
#X connect 2 0 26 0;
#X connect 3 0 0 2;
#X connect 3 0 12 0;
#X connect 4 0 10 0;
#X connect 4 0 5 0;
#X connect 5 0 0 1;
#X connect 7 0 8 0;
#X connect 10 0 27 0;
#X connect 10 0 28 0;
#X connect 11 0 0 2;
#X connect 12 0 13 0;
#X connect 13 0 29 0;
#X connect 14 0 15 0;
#X connect 17 0 20 0;
#X connect 18 0 17 1;
#X connect 19 0 18 0;
#X connect 21 0 5 0;
#X connect 23 0 11 0;
#X connect 24 0 17 2;
#X connect 25 0 24 0;
#X connect 26 0 4 0;
#X connect 26 1 30 0;
#X connect 26 2 3 0;
#X connect 26 3 34 0;
#X connect 30 0 31 0;
#X connect 30 0 18 0;
#X connect 31 0 32 0;
#X connect 31 0 33 0;
#X connect 34 0 35 0;
#X connect 34 0 17 2;
#X connect 35 0 36 0;
#X connect 36 0 37 0;
#X connect 38 0 0 0;
#X connect 38 1 20 0;
#X connect 39 0 38 1;
#X coords 0 -1 1 1 110 120 1 10 10;
