#N canvas 87 175 888 574 10;
#X obj 256 46 inlet~;
#X obj 337 46 inlet~;
#X obj 401 116 inlet;
#X obj 11 28 cnv 15 198 60 empty empty empty 20 12 0 14 -99865 -66577
0;
#X obj 401 153 route record;
#X obj 470 470 outlet;
#X obj 256 470 outlet~;
#X obj 337 470 outlet~;
#X obj 267 143 writesf~ 2;
#X symbolatom 19 65 30 0 0 2 - #0-name-r #0-name-s;
#X obj 401 251 s \$0-name-r;
#X obj 117 131 r \$0-name-s;
#X obj 486 39 loadbang;
#X obj 401 220 symbol;
#N canvas 196 348 216 268 rec_blick 0;
#X obj 48 224 s \$0-recind-r;
#X obj 48 30 r \$0-start-s;
#X msg 48 109 color 21;
#X msg 122 110 color 13;
#X obj 48 74 sel 0;
#X connect 1 0 4 0;
#X connect 2 0 0 0;
#X connect 3 0 0 0;
#X connect 4 0 2 0;
#X connect 4 1 3 0;
#X restore 18 369 pd rec_blick;
#X obj 134 34 cnv 15 62 20 empty \$0-clock 0:19 5 11 0 14 -99865 -233017
0;
#N canvas 33 127 227 285 clock 0;
#X obj 34 83 0;
#X obj 64 83 + 1;
#X obj 121 144 mod 60;
#X obj 154 76 loadbang;
#X obj 34 143 div 60;
#X obj 34 113 t f f;
#X msg 154 96 0;
#X obj 34 247 s \$0-clock;
#X obj 34 171 sprintf %d:%02d;
#X obj 34 194 symbol;
#X msg 34 219 label \$1;
#X obj 34 52 metro 1000;
#X obj 34 29 r \$0-start-s;
#X obj 118 46 sel 1;
#X msg 118 66 0;
#X connect 0 0 1 0;
#X connect 0 0 5 0;
#X connect 1 0 0 1;
#X connect 2 0 8 1;
#X connect 3 0 6 0;
#X connect 4 0 8 0;
#X connect 5 0 4 0;
#X connect 5 1 2 0;
#X connect 6 0 5 0;
#X connect 8 0 9 0;
#X connect 9 0 10 0;
#X connect 10 0 7 0;
#X connect 11 0 0 0;
#X connect 12 0 11 0;
#X connect 12 0 13 0;
#X connect 13 0 14 0;
#X connect 14 0 0 0;
#X restore 18 397 pd clock;
#X obj 19 35 tgl 24 0 \$0-start-s \$0-start-r empty 10 12 0 10 -262144
-1 -258113 0 1;
#X obj 22 231 r \$0-start-s;
#X obj 22 257 sel 1;
#X msg 189 274 stop;
#X obj 439 306 s \$0-start-r;
#X msg 439 284 1;
#X obj 478 251 s \$0-start-r;
#X msg 478 220 0;
#X obj 22 281 t b b;
#X obj 662 217 print [sp-grecord~] unknown command;
#X obj 516 370 s \$0-name-r;
#X msg 22 303 start;
#X obj 516 343 savepanel;
#X obj 177 34 bng 24 250 50 0 \$0-recind-s \$0-recind-r empty 17 7
0 10 -99865 -258113 -262144;
#X obj 486 85 symbol \$1;
#X obj 635 115 r sp-\$2;
#X msg 486 121 name \$1;
#X obj 54 36 tgl 12 0 \$0-vers-s \$0-vers-r vers 17 7 0 10 -262144
-1 -1 0 1;
#X obj 555 278 sp-param-file;
#X msg 117 329 open \$1;
#X msg 117 160 fname \$1;
#X obj 117 359 print [sp-grecord~];
#X obj 117 298 sp-wfname \$1;
#X obj 22 132 r \$0-vers-s;
#X msg 22 160 vers \$1;
#N canvas 378 28 313 184 save 0;
#X obj 41 66 tof/param /record/\$1/vers 0;
#X obj 200 28 r \$0-vers-s;
#X obj 41 96 change;
#X obj 41 129 s \$0-vers-r;
#X connect 0 0 2 0;
#X connect 1 0 0 1;
#X connect 2 0 3 0;
#X restore 18 429 pd save;
#X obj 401 189 route name start stop open save restore vers;
#X msg 624 245 vers \$1;
#X connect 0 0 6 0;
#X connect 0 0 8 0;
#X connect 1 0 7 0;
#X connect 1 0 8 1;
#X connect 2 0 4 0;
#X connect 4 0 43 0;
#X connect 4 1 5 0;
#X connect 11 0 37 0;
#X connect 12 0 31 0;
#X connect 13 0 10 0;
#X connect 18 0 19 0;
#X connect 19 0 25 0;
#X connect 19 1 20 0;
#X connect 20 0 8 0;
#X connect 22 0 21 0;
#X connect 24 0 23 0;
#X connect 25 0 28 0;
#X connect 25 1 39 0;
#X connect 28 0 8 0;
#X connect 29 0 27 0;
#X connect 31 0 33 0;
#X connect 32 0 43 0;
#X connect 33 0 43 0;
#X connect 36 0 8 0;
#X connect 36 0 38 0;
#X connect 37 0 39 0;
#X connect 39 0 36 0;
#X connect 40 0 41 0;
#X connect 41 0 39 0;
#X connect 43 0 13 0;
#X connect 43 1 22 0;
#X connect 43 2 24 0;
#X connect 43 3 29 0;
#X connect 43 4 35 0;
#X connect 43 5 35 1;
#X connect 43 6 44 0;
#X connect 43 7 26 0;
#X connect 44 0 39 0;
#X coords 0 -1 1 1 200 80 1 10 10;
