#N canvas 224 238 685 436 10;
#X obj 11 27 cnv 15 98 21 empty empty empty 20 12 0 14 -99865 -66577
0;
#X obj 154 21 inlet~;
#X obj 270 23 inlet;
#X obj 154 334 outlet~;
#X obj 237 333 outlet~;
#X obj 270 113 route pan;
#X obj 321 334 outlet;
#X obj 270 141 route save restore pan;
#X obj 270 169 sp-param-file;
#X obj 20 32 hsl 80 12 -45 45 0 0 \$0-pan-s \$0-pan-r 11 38 6 0 10
-262144 -1 -1 5000 1;
#X obj 154 293 pan~;
#X msg 431 226 label \$1;
#X obj 431 253 s \$0-pan-r;
#X obj 431 151 r \$0-pan-s;
#X obj 431 202 l2s;
#X obj 431 179 sprintf %02d;
#X obj 356 202 s \$0-pan-r;
#X obj 175 264 r \$0-pan-s;
#X msg 355 113 pan 0;
#X obj 355 84 loadbang;
#X obj 305 63 r sp-\$1;
#N canvas 316 447 249 164 param 1;
#X obj 27 94 tof/param /pan/\$1/pan 0;
#X obj 162 65 change;
#X obj 162 36 r \$0-pan-s;
#X obj 27 123 s \$0-pan-r;
#X connect 0 0 3 0;
#X connect 1 0 0 1;
#X connect 2 0 1 0;
#X restore 20 149 pd param;
#X connect 1 0 10 0;
#X connect 2 0 5 0;
#X connect 5 0 7 0;
#X connect 5 1 6 0;
#X connect 7 0 8 0;
#X connect 7 1 8 1;
#X connect 7 2 16 0;
#X connect 10 0 3 0;
#X connect 10 1 4 0;
#X connect 11 0 12 0;
#X connect 13 0 15 0;
#X connect 14 0 11 0;
#X connect 15 0 14 0;
#X connect 17 0 10 1;
#X connect 18 0 7 0;
#X connect 19 0 18 0;
#X connect 20 0 7 0;
#X coords 0 -1 1 1 100 40 1 10 10;
