#N canvas 134 148 949 522 10;
#X obj 49 364 inlet~;
#X obj 78 337 inlet~;
#X obj 49 422 outlet~;
#X obj 80 452 outlet~;
#X obj 151 23 cnv 10 248 14 \$0-cnv-s \$0-cnv-r empty 20 12 0 14 -128992
-66577 0;
#X obj 150 24 tgl 12 0 \$0-ch1-s \$0-ch1-r empty 17 7 0 10 -258699
-1 -262144 0 1;
#X obj 170 24 tgl 12 0 \$0-ch2-s \$0-ch2-r empty 17 7 0 10 -258699
-1 -262144 0 1;
#X obj 389 26 bng 8 250 50 0 \$0-tgl-s \$0-tgl-r empty 17 7 0 10 -203904
-1 -1;
#X obj 107 365 inlet~;
#X obj 136 335 inlet~;
#X obj 112 422 outlet~;
#X obj 144 452 outlet~;
#X obj 189 24 tgl 12 0 \$0-ch3-s \$0-ch3-r empty 17 7 0 10 -258699
-1 -262144 0 1;
#X obj 209 24 tgl 12 0 \$0-ch4-s \$0-ch4-r empty 17 7 0 10 -258699
-1 -262144 0 1;
#X obj 166 365 inlet~;
#X obj 195 338 inlet~;
#X obj 224 364 inlet~;
#X obj 176 422 outlet~;
#X obj 208 452 outlet~;
#X obj 240 422 outlet~;
#X obj 272 452 outlet~;
#X obj 253 338 inlet~;
#X obj 230 24 tgl 12 0 \$0-ch5-s \$0-ch5-r empty 17 7 0 10 -258699
-1 -262144 0 1;
#X obj 250 24 tgl 12 0 \$0-ch6-s \$0-ch6-r empty 17 7 0 10 -258699
-1 -262144 0 1;
#X obj 270 24 tgl 12 0 \$0-ch7-s \$0-ch7-r empty 17 7 0 10 -258699
-1 -262144 0 1;
#X obj 290 24 tgl 12 0 \$0-ch8-s \$0-ch8-r empty 17 7 0 10 -258699
-1 -262144 0 1;
#X obj 49 393 sp-hub12~ .................................................
;
#X obj 283 365 inlet~;
#X obj 312 338 inlet~;
#X obj 341 364 inlet~;
#X obj 370 338 inlet~;
#X obj 304 422 outlet~;
#X obj 336 452 outlet~;
#X obj 368 422 outlet~;
#X obj 400 452 outlet~;
#X obj 311 24 tgl 12 0 \$0-ch9-s \$0-ch9-r empty 17 7 0 10 -225271
-1 -262144 0 1;
#X obj 331 24 tgl 12 0 \$0-ch10-s \$0-ch10-r empty 17 7 0 10 -225271
-1 -262144 0 1;
#X obj 351 24 tgl 12 0 \$0-ch11-s \$0-ch11-r empty 17 7 0 10 -225271
-1 -262144 0 1;
#X obj 371 24 tgl 12 0 \$0-ch12-s \$0-ch12-r empty 17 7 0 10 -225271
-1 -262144 0 1;
#X obj 24 70 r \$0-ch1-s;
#X obj 94 70 r \$0-ch2-s;
#X msg 24 98 1 \$1;
#X msg 94 98 2 \$1;
#X obj 94 216 list;
#X msg 234 98 4 \$1;
#X msg 164 98 3 \$1;
#X obj 164 70 r \$0-ch3-s;
#X obj 234 70 r \$0-ch4-s;
#X msg 304 98 5 \$1;
#X msg 374 98 6 \$1;
#X msg 444 98 7 \$1;
#X msg 514 98 8 \$1;
#X obj 304 70 r \$0-ch5-s;
#X obj 374 70 r \$0-ch6-s;
#X obj 444 70 r \$0-ch7-s;
#X obj 514 70 r \$0-ch8-s;
#X obj 163 130 r \$0-ch9-s;
#X msg 163 158 9 \$1;
#X msg 233 158 10 \$1;
#X obj 233 130 r \$0-ch10-s;
#X obj 313 130 r \$0-ch11-s;
#X msg 313 158 11 \$1;
#X obj 393 130 r \$0-ch12-s;
#X msg 393 158 12 \$1;
#X obj 610 71 inlet;
#X obj 551 313 expr \$0 \; $f1 \; $f2 \;;
#X obj 551 363 pack f f f;
#X msg 551 387 \; \$1-ch\$2-r color \$3;
#X obj 608 258 sel 0;
#X obj 551 233 unpack f f;
#X msg 608 287 13;
#X msg 640 287 6;
#X obj 692 277 unpack f f;
#X obj 692 359 pack f f f;
#X obj 692 307 expr \$0 \; $f1 \; $f2 \;;
#X msg 692 386 \; \$1-ch\$2-r \$3;
#X obj 659 178 r \$0-tgl-s;
#X msg 692 241 \$1 0;
#X msg 778 241 \$1 1;
#X obj 745 178 loadbang;
#X obj 659 214 Uzi 12;
#X obj 745 214 Uzi 12;
#X connect 0 0 26 0;
#X connect 1 0 26 1;
#X connect 8 0 26 2;
#X connect 9 0 26 3;
#X connect 14 0 26 4;
#X connect 15 0 26 5;
#X connect 16 0 26 6;
#X connect 21 0 26 7;
#X connect 26 0 2 0;
#X connect 26 1 3 0;
#X connect 26 2 10 0;
#X connect 26 3 11 0;
#X connect 26 4 17 0;
#X connect 26 5 18 0;
#X connect 26 6 19 0;
#X connect 26 7 20 0;
#X connect 26 8 31 0;
#X connect 26 9 32 0;
#X connect 26 10 33 0;
#X connect 26 11 34 0;
#X connect 27 0 26 8;
#X connect 28 0 26 9;
#X connect 29 0 26 10;
#X connect 30 0 26 11;
#X connect 39 0 41 0;
#X connect 40 0 42 0;
#X connect 41 0 43 0;
#X connect 42 0 43 0;
#X connect 43 0 26 12;
#X connect 43 0 69 0;
#X connect 44 0 43 0;
#X connect 45 0 43 0;
#X connect 46 0 45 0;
#X connect 47 0 44 0;
#X connect 48 0 43 0;
#X connect 49 0 43 0;
#X connect 50 0 43 0;
#X connect 51 0 43 0;
#X connect 52 0 48 0;
#X connect 53 0 49 0;
#X connect 54 0 50 0;
#X connect 55 0 51 0;
#X connect 56 0 57 0;
#X connect 57 0 43 0;
#X connect 58 0 43 0;
#X connect 59 0 58 0;
#X connect 60 0 61 0;
#X connect 61 0 43 0;
#X connect 62 0 63 0;
#X connect 63 0 43 0;
#X connect 64 0 72 0;
#X connect 64 0 43 0;
#X connect 65 0 66 0;
#X connect 65 1 66 1;
#X connect 65 2 66 2;
#X connect 66 0 67 0;
#X connect 68 0 70 0;
#X connect 68 1 71 0;
#X connect 69 0 65 0;
#X connect 69 1 68 0;
#X connect 70 0 65 1;
#X connect 71 0 65 1;
#X connect 72 0 74 0;
#X connect 72 1 74 1;
#X connect 73 0 75 0;
#X connect 74 0 73 0;
#X connect 74 1 73 1;
#X connect 74 2 73 2;
#X connect 76 0 80 0;
#X connect 77 0 72 0;
#X connect 78 0 72 0;
#X connect 79 0 81 0;
#X connect 80 2 77 0;
#X connect 81 2 78 0;
#X coords 0 -1 1 1 250 19 2 150 20;
