#N canvas 192 116 813 494 10;
#X obj 99 123 osc~ 440;
#X obj 99 386 env~;
#X floatatom 99 427 5 0 0 0 - - -;
#X obj 160 34 tgl 15 0 empty empty empty 17 7 0 10 -262144 -1 -1 0
1;
#X obj 267 115 hsl 128 15 0 3 0 0 empty empty empty -2 -8 0 10 -262144
-1 -1 0 1;
#X obj 37 403 dbtorms;
#X floatatom 37 427 5 0 0 0 - - -;
#X obj 209 386 env~;
#X floatatom 209 427 5 0 0 0 - - -;
#X obj 147 403 dbtorms;
#X floatatom 147 427 5 0 0 0 - - -;
#X msg 264 139 mix2 0 volume \$1;
#X obj 267 65 hsl 128 15 0 3 0 0 empty empty empty -2 -8 0 10 -262144
-1 -1 2000 1;
#X msg 264 89 mix2 1 volume \$1;
#X msg 544 112 mix2 save;
#X msg 623 112 mix2 restore;
#X text 544 83 Named mixer can save and restore settings.;
#X msg 160 54 mix2 mute \$1;
#X obj 170 84 tgl 15 0 empty empty empty 17 7 0 10 -262144 -1 -1 0
1;
#X msg 170 104 mix2 0 mute \$1;
#X obj 267 15 hsl 128 15 0 3 0 0 empty empty empty -2 -8 0 10 -262144
-1 -1 3100 1;
#X msg 264 39 mix2 volume \$1;
#X text 410 12 All values;
#X text 413 63 channel 2;
#X text 473 353 [sp-gmix2~ m2];
#X msg 623 258 \; sp-m2 mute 0;
#X text 621 233 Named message;
#X msg 683 142 mix2 restore 1;
#X msg 604 142 mix2 save 1;
#X obj 99 172 sp-gmix2~;
#X obj 255 280 sp-gparam;
#X msg 225 190 mix2 0 midilearn 7 \, mix2 1 midilearn 17;
#X msg 225 228 mix2 midilearn 17;
#X obj 483 164 sp-gmix2~ m2;
#X msg 50 61 mix2 solo \$1;
#X obj 50 26 hradio 15 1 0 2 empty empty empty 0 -8 0 10 -262144 -1
-1 0;
#X connect 0 0 29 0;
#X connect 0 0 29 1;
#X connect 1 0 2 0;
#X connect 1 0 5 0;
#X connect 3 0 17 0;
#X connect 4 0 11 0;
#X connect 5 0 6 0;
#X connect 7 0 8 0;
#X connect 7 0 9 0;
#X connect 9 0 10 0;
#X connect 11 0 29 2;
#X connect 12 0 13 0;
#X connect 13 0 29 2;
#X connect 14 0 33 2;
#X connect 15 0 33 2;
#X connect 17 0 29 2;
#X connect 18 0 19 0;
#X connect 19 0 29 2;
#X connect 20 0 21 0;
#X connect 21 0 29 2;
#X connect 27 0 33 2;
#X connect 28 0 33 2;
#X connect 29 0 1 0;
#X connect 29 1 7 0;
#X connect 31 0 29 2;
#X connect 32 0 29 2;
#X connect 34 0 29 2;
#X connect 35 0 34 0;
