#N canvas 114 43 1027 647 10;
#X obj 116 252 sp-gmix8~;
#X obj 116 502 +dsp;
#X obj 116 206 osc~;
#X obj 149 206 osc~;
#X obj 182 206 osc~;
#X obj 215 206 osc~;
#X obj 248 206 osc~;
#X obj 281 206 osc~;
#X obj 314 206 osc~;
#X obj 347 206 osc~;
#X obj 116 176 * 1;
#X obj 116 144 mtof;
#X obj 149 176 * 2;
#X obj 182 176 * 3;
#X obj 215 176 * 4;
#X obj 248 176 * 5;
#X obj 281 176 * 6;
#X obj 314 176 * 7;
#X obj 347 176 * 8;
#X obj 119 109 hsl 128 15 0 127 0 0 empty empty empty -2 -8 0 10 -262144
-1 -1 0 1;
#X msg 381 123 mix 0 volume 0;
#X msg 381 182 stereo-width 0 \, volume 0.1;
#X msg 496 136 mix 0 color 23 16;
#X msg 499 101 mix 0 label main;
#X msg 318 101 mix solo 2;
#X obj 649 96 hradio 15 1 0 8 empty empty empty 0 -8 0 10 -262144 -1
-1 0;
#X msg 649 127 mix8 solo \$1;
#X obj 25 21 sp-gcpu;
#X obj 398 74 tgl 15 0 empty empty empty 17 7 0 10 -262144 -1 -1 0
1;
#X msg 398 94 mix8 mute \$1;
#X obj 436 43 hsl 128 15 0 2 0 0 empty empty empty -2 -8 0 10 -262144
-1 -1 0 1;
#X msg 433 66 mix8 volume \$1;
#X msg 738 232 mix8 save;
#X msg 818 232 mix8 restore;
#X msg 818 202 mix8 restore 1;
#X msg 738 202 mix8 save 1;
#X obj 703 535 sp-gparam;
#X msg 624 55 mix8 0 vol- 0.1;
#X msg 749 58 mix8 1 fade 1 3000;
#X msg 203 57 mix8 0 fade 0 2000;
#X msg 203 77 mix8 0 fade 1 2000;
#X msg 238 26 mix8 midilearn 7;
#X obj 473 280 sp-gmix8~ m8;
#X connect 0 0 1 0;
#X connect 0 1 1 0;
#X connect 0 2 1 0;
#X connect 0 3 1 0;
#X connect 0 4 1 0;
#X connect 0 5 1 0;
#X connect 0 6 1 0;
#X connect 0 7 1 0;
#X connect 0 8 1 2;
#X connect 2 0 0 0;
#X connect 3 0 0 1;
#X connect 4 0 0 2;
#X connect 5 0 0 3;
#X connect 6 0 0 4;
#X connect 7 0 0 5;
#X connect 8 0 0 6;
#X connect 9 0 0 7;
#X connect 10 0 2 0;
#X connect 11 0 10 0;
#X connect 11 0 12 0;
#X connect 11 0 13 0;
#X connect 11 0 14 0;
#X connect 11 0 15 0;
#X connect 11 0 16 0;
#X connect 11 0 17 0;
#X connect 11 0 18 0;
#X connect 12 0 3 0;
#X connect 13 0 4 0;
#X connect 14 0 5 0;
#X connect 15 0 6 0;
#X connect 16 0 7 0;
#X connect 17 0 8 0;
#X connect 18 0 9 0;
#X connect 19 0 11 0;
#X connect 20 0 0 8;
#X connect 21 0 0 8;
#X connect 22 0 0 8;
#X connect 23 0 0 8;
#X connect 24 0 0 8;
#X connect 25 0 26 0;
#X connect 26 0 0 8;
#X connect 28 0 29 0;
#X connect 29 0 0 8;
#X connect 30 0 31 0;
#X connect 31 0 0 8;
#X connect 32 0 42 8;
#X connect 33 0 42 8;
#X connect 34 0 42 8;
#X connect 35 0 42 8;
#X connect 37 0 0 8;
#X connect 38 0 0 8;
#X connect 39 0 0 8;
#X connect 40 0 0 8;
#X connect 41 0 0 8;
