#N canvas 534 105 553 494 10;
#X obj 37 189 osc~ 220;
#X obj 213 122 hsl 128 15 1 32 0 0 empty empty empty -2 -8 0 10 -262144
-1 -1 0 1;
#X obj 243 172 hsl 128 15 0 1 0 0 empty empty empty -2 -8 0 10 -262144
-1 -1 0 1;
#X obj 37 360 +dsp;
#X obj 180 62 tgl 15 0 empty empty empty 17 7 0 10 -262144 -1 -1 0
1;
#X msg 245 55 volume 0.5;
#X obj 37 226 sp-gdecimate~ filter1;
#X msg 365 53 \; sp-filter1 pass 1;
#X obj 363 122 hsl 128 15 0 1 0 0 empty empty empty -2 -8 0 10 -262144
-1 -1 0 1;
#X msg 210 148 decimate bits \$1;
#X msg 44 63 decimate unknown;
#X msg 180 88 decimate pass \$1;
#X msg 240 198 decimate ratio \$1;
#X msg 360 148 decimate dry-wet \$1;
#X connect 0 0 6 0;
#X connect 1 0 9 0;
#X connect 2 0 12 0;
#X connect 4 0 11 0;
#X connect 5 0 6 1;
#X connect 6 0 3 0;
#X connect 6 1 3 2;
#X connect 8 0 13 0;
#X connect 9 0 6 1;
#X connect 10 0 6 1;
#X connect 11 0 6 1;
#X connect 12 0 6 1;
#X connect 13 0 6 1;
