#N canvas 407 193 496 428 10;
#X obj 238 106 hsl 128 15 0 127 0 0 empty empty empty -2 -8 0 10 -262144
-1 -1 11200 1;
#X obj 43 91 osc~ 440;
#X obj 43 126 *~;
#X obj 117 109 dbtorms;
#X obj 120 61 hsl 128 15 0 127 0 0 empty empty empty -2 -8 0 10 -262144
-1 -1 8800 1;
#X obj 92 253 +dsp;
#X obj 92 164 sp-ggate~ 100 control0;
#X msg 353 68 \; sp-control0 70;
#X msg 360 131 gate unknown;
#X msg 235 132 gate threshold \$1;
#X msg 285 28 volume 0.5;
#X connect 0 0 9 0;
#X connect 1 0 2 0;
#X connect 2 0 6 0;
#X connect 3 0 2 1;
#X connect 4 0 3 0;
#X connect 6 0 5 0;
#X connect 6 2 5 2;
#X connect 8 0 6 1;
#X connect 9 0 6 1;
#X connect 10 0 6 1;
