#N canvas 104 113 566 499 10;
#X obj 232 260 print;
#X msg 210 94 other message;
#X obj 39 279 pvu~;
#X obj 40 320 vu 15 120 empty empty -1 -8 0 10 -66577 -1 1 0;
#X obj 39 93 osc~ 440;
#X obj 39 129 *~ 6;
#X msg 316 94 compr unknown;
#X msg 146 72 compr level 1;
#X msg 320 153 \; sp-c1 level 2;
#X obj 39 173 sp-gcompr~ c1;
#X msg 146 142 compr pass \$1;
#X obj 146 115 tgl 15 0 empty empty empty 17 7 0 10 -262144 -1 -1 0
1;
#X msg 226 38 compr save;
#X msg 318 38 compr restore;
#X connect 1 0 9 1;
#X connect 2 0 3 0;
#X connect 2 0 3 1;
#X connect 4 0 5 0;
#X connect 5 0 9 0;
#X connect 6 0 9 1;
#X connect 7 0 9 1;
#X connect 9 0 2 0;
#X connect 9 1 0 0;
#X connect 10 0 9 1;
#X connect 11 0 10 0;
#X connect 12 0 9 1;
#X connect 13 0 9 1;
