#N canvas 573 415 450 300 10;
#X obj 336 176 sp-gparam;
#X obj 32 80 osc~ 440;
#X obj 32 194 env~;
#X floatatom 32 219 5 0 0 0 - - -;
#X obj 72 194 env~;
#X floatatom 72 219 5 0 0 0 - - -;
#X obj 112 194 env~;
#X floatatom 112 219 5 0 0 0 - - -;
#X obj 152 194 env~;
#X floatatom 152 219 5 0 0 0 - - -;
#X obj 32 126 sp-gdemux4~ dm1;
#X msg 32 28 \; sp-dm1 select 2;
#X msg 125 99 demux4 select \$1;
#X obj 125 73 hradio 15 1 0 8 empty empty empty 0 -8 0 10 -262144 -1
-1 7;
#X msg 204 242 tewt;
#X obj 204 195 list prepend set;
#X obj 204 219 list trim;
#X symbolatom 250 136 10 0 0 0 - - -;
#X msg 152 29 demux4 unknown;
#X msg 272 28 demux4 next;
#X msg 362 28 demux4 prev;
#X connect 1 0 10 0;
#X connect 2 0 3 0;
#X connect 4 0 5 0;
#X connect 6 0 7 0;
#X connect 8 0 9 0;
#X connect 10 0 2 0;
#X connect 10 1 4 0;
#X connect 10 2 6 0;
#X connect 10 3 8 0;
#X connect 10 4 15 0;
#X connect 12 0 10 1;
#X connect 13 0 12 0;
#X connect 15 0 16 0;
#X connect 16 0 14 0;
#X connect 17 0 10 1;
#X connect 18 0 10 1;
#X connect 19 0 10 1;
#X connect 20 0 10 1;
