#N canvas 523 72 635 333 10;
#X declare -lib flatgui;
#X declare -lib flatgui;
#X declare -lib flatgui;
#X declare -lib flatgui;
#X obj 100 100 sp-gosc~ \$1-ob1;
#X obj 100 253 outlet~;
#X obj 200 253 outlet~;
#X obj 300 253 outlet~;
#X obj 400 253 outlet~;
#X obj 200 100 sp-gosc~ \$1-ob2;
#X obj 300 100 sp-gosc~ \$1-ob3;
#X obj 400 100 sp-gosc~ \$1-ob4;
#X obj 100 27 inlet;
#X obj 100 52 route 0 1 2 3;
#X connect 0 0 1 0;
#X connect 5 0 2 0;
#X connect 6 0 3 0;
#X connect 7 0 4 0;
#X connect 8 0 9 0;
#X connect 9 0 0 0;
#X connect 9 1 5 0;
#X connect 9 2 6 0;
#X connect 9 3 7 0;
#X coords 0 -1 1 1 400 123 1 100 100;
