#N canvas 160 75 663 561 10;
#X obj 77 403 +dsp;
#X obj 46 104 osc~ 220;
#X obj 183 85 hsl 128 15 0 30 0 0 empty empty empty -2 -8 0 10 -262144
-1 -1 0 1;
#X msg 180 126 chop freq \$1;
#X msg 359 201 \; sp-ch1 factor 2;
#X obj 77 245 sp-gchop~ ch1;
#X obj 173 212 osc~;
#X msg 334 170 volume 0.5;
#X msg 270 118 chop factor -2;
#X msg 312 138 chop factor -1;
#X obj 359 240 tgl 15 0 empty empty empty 17 7 0 10 -262144 -1 -1 0
1;
#X msg 359 263 chop source \$1;
#X obj 118 178 hsl 128 15 0 22000 0 0 empty empty empty -2 -8 0 10
-262144 -1 -1 0 1;
#X obj 326 401 delwrite~ b1 5000;
#X obj 216 223 osc~ 10;
#X obj 83 151 delread~ b1 2000;
#X obj 114 80 osc~ 0.5;
#X obj 116 131 * 10000;
#X obj 116 104 unsig~ 10;
#X msg 377 82 chop save;
#X msg 449 81 chop restore;
#X msg 478 130 restore;
#X connect 1 0 5 0;
#X connect 2 0 3 0;
#X connect 3 0 5 2;
#X connect 5 0 0 0;
#X connect 5 0 0 1;
#X connect 5 0 13 0;
#X connect 5 1 0 2;
#X connect 6 0 5 1;
#X connect 7 0 5 2;
#X connect 8 0 5 2;
#X connect 9 0 5 2;
#X connect 10 0 11 0;
#X connect 11 0 5 2;
#X connect 12 0 6 0;
#X connect 14 0 5 1;
#X connect 15 0 5 1;
#X connect 16 0 18 0;
#X connect 17 0 12 0;
#X connect 18 0 17 0;
#X connect 19 0 5 2;
#X connect 20 0 5 2;
#X connect 21 0 5 2;
