#N canvas 57 124 792 307 10;
#X obj 167 26 inlet~;
#X obj 167 256 outlet~;
#X obj 41 38 cnv 15 98 25 empty empty empty 20 12 0 14 -66577 -66577
0;
#X obj 360 26 inlet control;
#X obj 462 57 r sp-\$1;
#X obj 360 121 sp-param-file;
#X obj 417 257 outlet control;
#X obj 442 151 s \$0-select-r;
#X obj 86 45 hradio 12 1 0 4 \$0-select-s \$0-select-r select -40 6
0 10 -262144 -1 -262144 3;
#N canvas 149 294 333 195 save 0;
#X obj 44 128 s \$0-select-r;
#X obj 203 47 r \$0-select-s;
#X obj 203 74 change;
#X obj 44 103 tof/param /sp/mux4/select 0;
#X connect 1 0 2 0;
#X connect 2 0 3 1;
#X connect 3 0 0 0;
#X restore 83 165 pd save;
#X obj 195 57 r \$0-select-s;
#N canvas 159 350 450 300 select 0;
#X obj 21 20 inlet next;
#X obj 21 48 bang;
#X obj 54 103 f;
#X obj 69 62 r \$0-select-s;
#X obj 54 128 + 1;
#X obj 54 153 s \$0-select-r;
#X obj 201 48 bang;
#X obj 234 103 f;
#X obj 249 62 r \$0-select-s;
#X obj 234 153 s \$0-select-r;
#X obj 234 128 - 1;
#X obj 201 20 inlet prev;
#X connect 0 0 1 0;
#X connect 1 0 2 0;
#X connect 2 0 4 0;
#X connect 3 0 2 1;
#X connect 4 0 5 0;
#X connect 6 0 7 0;
#X connect 7 0 10 0;
#X connect 8 0 7 1;
#X connect 10 0 9 0;
#X connect 11 0 6 0;
#X restore 484 121 pd select;
#X obj 360 90 route save restore select next prev;
#X obj 210 26 inlet~;
#X obj 253 26 inlet~;
#X obj 296 26 inlet~;
#X obj 167 110 multiplex~ . . . .;
#X obj 360 57 route mux4;
#X obj 567 151 print [sp-gmux4~] unknown command;
#X connect 0 0 16 0;
#X connect 3 0 17 0;
#X connect 4 0 12 0;
#X connect 10 0 16 0;
#X connect 12 0 5 0;
#X connect 12 1 5 1;
#X connect 12 2 7 0;
#X connect 12 3 11 0;
#X connect 12 4 11 1;
#X connect 12 5 18 0;
#X connect 13 0 16 1;
#X connect 14 0 16 2;
#X connect 15 0 16 3;
#X connect 16 0 1 0;
#X connect 17 0 12 0;
#X connect 17 1 6 0;
#X coords 0 -1 1 1 100 45 1 40 20;
