#N canvas 378 87 757 653 10;
#X declare -lib flatgui;
#X obj 267 371 outlet~;
#X obj 101 117 cnv 15 98 120 empty empty empty 20 12 0 14 -99865 -66577
0;
#X obj 267 321 sp-osc~;
#X obj 306 266 r \$0-shape-s;
#X msg 306 289 shape \$1;
#X obj 343 36 inlet control;
#X obj 153 159 knob 40 40 20 10000 1 0 \$0-freq-s \$0-freq-r freq 0
-8 0 10 -262144 -260097 -262144 2462 1;
#X obj 475 32 import flatgui;
#X obj 105 124 nbx 5 14 20 10000 1 0 \$0-freq-ind-s \$0-freq-ind-r
Hz 57 8 0 10 -262144 -1 -262144 1011.21 256;
#X obj 101 145 cnv 15 45 70 empty empty empty 20 12 0 14 -128992 -66577
0;
#X obj 107 162 vradio 12 1 0 4 \$0-shape-s \$0-shape-r shape 0 -8 0
10 -262144 -260097 -262144 0;
#X text 122 159 sin;
#X text 122 172 sqr;
#X text 122 185 tri;
#X text 122 196 saw;
#N canvas 637 161 418 274 param 0;
#X obj 30 65 tof/param /\$1/osc/freq 440;
#X obj 30 91 change;
#X obj 30 119 s \$0-freq-ind-r;
#X obj 183 29 r \$0-freq-ind-s;
#X obj 30 181 change;
#X obj 177 119 r \$0-shape-s;
#X obj 30 209 s \$0-shape-r;
#X obj 30 155 tof/param /\$1/osc/shape 0;
#X connect 0 0 1 0;
#X connect 1 0 2 0;
#X connect 3 0 0 1;
#X connect 4 0 6 0;
#X connect 5 0 7 1;
#X connect 7 0 4 0;
#X restore 104 367 pd param;
#X obj 247 254 sig~;
#X obj 343 64 route osc;
#X obj 394 372 outlet control_out;
#X obj 343 119 s \$0-shape-r;
#X obj 247 227 r \$0-freq-ind-s;
#X obj 247 289 lop~ 5;
#X obj 106 220 bng 13 250 50 0 \$0-octup-s \$0-octup-r x2 17 6 0 10
-262144 -1 -262144;
#X obj 152 220 bng 13 250 50 0 \$0-octdown-s \$0-octdown-r /2 17 6
0 10 -262144 -1 -262144;
#X obj 32 123 change;
#X obj 79 432 r \$0-freq-ind-s;
#X obj 64 454 f;
#X obj 343 91 route shape freq;
#X obj 389 144 s \$0-freq-ind-r;
#X obj 64 509 s \$0-freq-ind-r;
#X obj 64 482 * 2;
#X obj 64 408 r \$0-octup-s;
#X obj 199 432 r \$0-freq-ind-s;
#X obj 184 454 f;
#X obj 184 408 r \$0-octdown-s;
#X obj 184 482 * 0.5;
#X obj 184 509 s \$0-freq-ind-r;
#X obj 179 123 tgl 16 0 \$0-learn-s \$0-learn-r L 6 8 0 10 -24198 -260818
-1 0 1;
#X obj 350 407 r \$0-learn-s;
#X obj 350 474 sp-midilearn \$1;
#X msg 350 450 learn \$1;
#X msg 437 501 0 \, color 16 22;
#X obj 437 527 s \$0-learn-r;
#X obj 464 262 r \$0-learn-s;
#X obj 464 286 == 1;
#X obj 464 315 sel 1;
#X obj 579 262 loadbang;
#X msg 464 344 color 5 5 5;
#X msg 579 343 color 1 1 14;
#X obj 350 594 s \$0-freq-ind-r;
#X obj 350 523 pow 2;
#X obj 350 500 / 127;
#X obj 350 546 * 10000;
#X obj 350 570 + 20;
#X obj 456 407 loadbang;
#X msg 456 432 0 \, color 21 14 0;
#X msg 538 501 color 14;
#X obj 538 479 sel 1;
#X msg 574 431 restore 0;
#X connect 2 0 0 0;
#X connect 3 0 4 0;
#X connect 4 0 2 1;
#X connect 5 0 17 0;
#X connect 6 0 8 0;
#X connect 8 0 24 0;
#X connect 16 0 21 0;
#X connect 17 0 27 0;
#X connect 17 1 18 0;
#X connect 20 0 16 0;
#X connect 21 0 2 0;
#X connect 24 0 6 0;
#X connect 25 0 26 1;
#X connect 26 0 30 0;
#X connect 27 0 19 0;
#X connect 27 1 28 0;
#X connect 30 0 29 0;
#X connect 31 0 26 0;
#X connect 32 0 33 1;
#X connect 33 0 35 0;
#X connect 34 0 33 0;
#X connect 35 0 36 0;
#X connect 38 0 40 0;
#X connect 38 0 57 0;
#X connect 39 0 51 0;
#X connect 39 3 41 0;
#X connect 40 0 39 0;
#X connect 41 0 42 0;
#X connect 43 0 44 0;
#X connect 44 0 45 0;
#X connect 45 0 47 0;
#X connect 45 1 48 0;
#X connect 46 0 48 0;
#X connect 50 0 52 0;
#X connect 51 0 50 0;
#X connect 52 0 53 0;
#X connect 53 0 49 0;
#X connect 54 0 55 0;
#X connect 54 0 58 0;
#X connect 55 0 42 0;
#X connect 56 0 42 0;
#X connect 57 0 56 0;
#X connect 58 0 39 0;
#X coords 0 -1 1 1 100 138 1 100 100;
