#N canvas 384 169 810 385 10;
#X obj 175 154 inlet~;
#X obj 175 189 sp-pitchcounter~;
#X obj 175 257 outlet;
#X obj 268 259 outlet;
#X obj 21 22 cnv 15 98 156 empty empty empty 20 12 0 14 -99865 -66577
0;
#X obj 27 34 tgl 10 0 \$0-unique-s \$0-unique-r Unique 17 6 0 10 -262144
-1 -262144 1 1;
#X obj 27 48 vradio 10 1 0 2 \$0-type-s \$0-type-r empty 0 -8 0 10
-262144 -1 -1 1;
#X text 41 54 int;
#X text 41 44 float;
#X obj 334 20 r \$0-type-s;
#X obj 334 39 sel 0 1;
#X msg 373 59 int;
#X msg 334 59 real;
#X obj 421 20 r \$0-unique-s;
#X msg 421 57 unique \$1;
#X obj 268 20 inlet;
#X obj 30 90 hsl 82 8 0 100 0 0 \$0-minpower-s \$0-minpower-r empty
-2 -8 0 10 -262144 -1 -1 5200 1;
#X obj 78 72 nbx 3 14 -1e+37 1e+37 0 0 \$0-nminpower-s \$0-nminpower-r
minpower -50 7 0 10 -262144 -1 -262144 64.1975 256;
#X obj 30 120 hsl 82 8 0 1000 0 0 \$0-stabletime-s \$0-stabletime-r
empty -2 -8 0 10 -262144 -1 -1 210 1;
#X obj 78 102 nbx 3 14 -1e+37 1e+37 0 0 \$0-nstabletime-s \$0-nstabletime-r
stabletm -50 7 0 10 -262144 -1 -262144 25.9259 256;
#X msg 414 136 minpower \$1;
#X obj 414 111 r \$0-minpower-s;
#X obj 544 20 loadbang;
#X obj 544 69 s \$0-minpower-r;
#X msg 544 43 60;
#X obj 526 111 r \$0-stabletime-s;
#X msg 526 136 stabletime \$1;
#X obj 69 133 nbx 4 14 -1e+37 1e+37 0 0 \$0-count-s \$0-count-r count:
-40 7 0 10 -262144 -1 -262144 179 256;
#X obj 87 35 bng 10 250 50 0 \$0-reset-s \$0-reset-r Reset 0 17 0 10
-262144 -1 -262144;
#X obj 653 110 r \$0-reset-s;
#X msg 653 136 reset;
#X obj 654 68 s \$0-stabletime-r;
#X msg 654 43 100;
#X obj 69 153 nbx 4 14 -1e+37 1e+37 0 0 \$0-pitch-s \$0-pitch-r pitch:
-40 7 0 10 -262144 -1 -262144 67 256;
#X connect 0 0 1 0;
#X connect 1 0 2 0;
#X connect 1 0 27 0;
#X connect 1 1 3 0;
#X connect 1 1 33 0;
#X connect 9 0 10 0;
#X connect 10 0 12 0;
#X connect 10 1 11 0;
#X connect 11 0 1 1;
#X connect 12 0 1 1;
#X connect 13 0 14 0;
#X connect 14 0 1 1;
#X connect 15 0 1 1;
#X connect 16 0 17 0;
#X connect 18 0 19 0;
#X connect 20 0 1 1;
#X connect 21 0 20 0;
#X connect 22 0 24 0;
#X connect 22 0 32 0;
#X connect 24 0 23 0;
#X connect 25 0 26 0;
#X connect 26 0 1 1;
#X connect 29 0 30 0;
#X connect 30 0 1 1;
#X connect 32 0 31 0;
#X coords 0 -1 1 1 100 160 2 20 20;
