#N canvas 235 182 712 399 10;
#X obj 75 107 +dsp;
#X msg 268 66 record name test;
#X msg 298 32 record open;
#X obj 75 48 osc~ 440;
#X obj 171 47 osc~ 300;
#X msg 395 30 record unknown;
#X msg 390 66 record start;
#X msg 493 65 record stop;
#X obj 268 325 print;
#X msg 504 22 other;
#X obj 75 220 sp-grecord~ test.wav;
#X obj 401 184 sp-gparam;
#X connect 0 0 10 0;
#X connect 0 1 10 1;
#X connect 0 2 10 2;
#X connect 1 0 0 2;
#X connect 2 0 0 2;
#X connect 3 0 0 0;
#X connect 4 0 0 1;
#X connect 5 0 0 2;
#X connect 6 0 0 2;
#X connect 7 0 0 2;
#X connect 9 0 0 2;
#X connect 10 2 8 0;
