#N canvas 511 150 653 385 10;
#X obj 83 101 inlet~;
#X obj 192 100 inlet~;
#X obj 123 211 limiter~ 0 1;
#X obj 83 253 z~ 32;
#X obj 215 253 z~ 32;
#X obj 83 285 *~;
#X obj 215 285 *~;
#X obj 83 319 outlet~;
#X obj 215 318 outlet~;
#X obj 11 26 cnv 15 108 52 empty empty empty 20 12 0 14 -98702 -66577
0;
#X obj 17 62 hsl 96 10 80 120 0 0 \$0-threshold-s \$0-threshold-r threshold
-1 -10 0 10 -262144 -1 -262144 2375 1;
#X obj 79 45 nbx 3 14 -1e+37 1e+37 0 0 \$0-threshold-num-s \$0-threshold-num-r
empty 0 -8 0 10 -262144 -1 -1 90 256;
#X obj 268 27 inlet;
#X msg 268 194 limit \$1;
#X obj 268 133 f;
#X obj 201 9 loadbang;
#X msg 201 33 100;
#X msg 319 150 set \$1;
#X obj 78 30 tgl 10 0 \$0-skip-s \$0-skip-r skip -31 5 0 10 -262144
-1 -262144 0 1;
#X obj 353 128 s \$0-skip-r;
#X obj 83 141 sp-switch~;
#X obj 192 141 sp-switch~;
#X obj 319 224 s \$0-threshold-num-r;
#X obj 339 200 s \$0-threshold-r;
#X obj 433 317 outlet;
#X obj 140 64 r \$0-skip-s;
#X msg 353 107 \$1;
#X obj 276 172 r \$0-threshold-s;
#X obj 268 107 clip 80 120;
#X obj 268 61 route threshold skip limiter;
#X text 435 290 # output unhandled commands;
#X obj 398 106 route threshold skip;
#X obj 515 146 print limiter;
#X connect 0 0 20 0;
#X connect 1 0 21 0;
#X connect 2 0 5 1;
#X connect 2 0 6 1;
#X connect 3 0 5 0;
#X connect 4 0 6 0;
#X connect 5 0 7 0;
#X connect 6 0 8 0;
#X connect 10 0 11 0;
#X connect 12 0 29 0;
#X connect 13 0 2 0;
#X connect 14 0 13 0;
#X connect 14 0 17 0;
#X connect 15 0 16 0;
#X connect 16 0 14 0;
#X connect 17 0 22 0;
#X connect 17 0 23 0;
#X connect 20 0 2 0;
#X connect 20 0 3 0;
#X connect 20 1 7 0;
#X connect 21 0 2 1;
#X connect 21 0 4 0;
#X connect 21 1 8 0;
#X connect 25 0 20 1;
#X connect 25 0 21 1;
#X connect 26 0 19 0;
#X connect 27 0 13 0;
#X connect 28 0 14 0;
#X connect 29 0 28 0;
#X connect 29 1 26 0;
#X connect 29 2 31 0;
#X connect 29 3 24 0;
#X connect 31 0 28 0;
#X connect 31 1 26 0;
#X connect 31 2 32 0;
#X coords 0 -1 1 1 110 70 1 10 10;
