#N canvas 411 146 774 441 10;
#X msg 137 32 plot;
#N canvas 0 22 450 278 (subpatch) 0;
#X array \$0-array 1024 float 0;
#X coords 0 1 1024 -1 200 140 1 0 0;
#X restore 24 144 graph;
#X obj 27 385 s \$0-array;
#X msg 225 57 set \$1-array;
#X obj 225 34 f \$0;
#X obj 225 12 bng 15 250 50 0 empty empty empty 17 7 0 10 -262144 -1
-1;
#X msg 67 58 clear;
#X msg 27 346 sinesum 60 0.5 0.7 0.4 0.2 \, normalize;
#X obj 376 35 tgl 15 0 empty empty empty 17 7 0 10 -262144 -1 -1 1
1;
#X msg 376 61 xlog \$1;
#X obj 159 111 sp-gnuplot;
#X obj 436 35 tgl 15 0 empty empty empty 17 7 0 10 -262144 -1 -1 0
1;
#X msg 436 61 ylog \$1;
#X obj 496 35 tgl 15 0 empty empty empty 17 7 0 10 -262144 -1 -1 1
1;
#X msg 496 61 grid \$1;
#X obj 556 35 tgl 15 0 empty empty empty 17 7 0 10 -262144 -1 -1 1
1;
#X msg 556 61 autoscale \$1;
#X msg 261 128 gnuplot set style line 1 lt 2 pt 0 \, gnuplot set xtics
2;
#X connect 0 0 10 0;
#X connect 3 0 10 0;
#X connect 4 0 3 0;
#X connect 5 0 4 0;
#X connect 6 0 10 0;
#X connect 7 0 2 0;
#X connect 8 0 9 0;
#X connect 9 0 10 0;
#X connect 11 0 12 0;
#X connect 12 0 10 0;
#X connect 13 0 14 0;
#X connect 14 0 10 0;
#X connect 15 0 16 0;
#X connect 16 0 10 0;
#X connect 17 0 10 0;
