#N canvas 16 92 793 586 10;
#X obj 129 51 inlet~;
#X obj 129 168 outlet~;
#X obj 241 19 inlet;
#X obj 129 135 sp-mix~;
#X obj 21 21 cnv 15 30 178 empty \$0-cnv-r empty 20 12 0 14 -99865
-262144 0;
#X obj 26 45 vsl 10 119 0 2 0 0 \$0-vol-s \$0-vol-r empty 0 -9 0 10
-228856 -257985 -262144 697 1;
#X obj 37 45 vu 8 120 \$0-vu-r empty -1 -8 0 10 -66577 -1 0 0;
#X obj 604 45 sel 0;
#X obj 304 19 loadbang;
#X obj 36 27 tgl 10 0 \$0-mute-s \$0-mute-r M -8 5 0 10 -225271 -1
-262144 0 1;
#X obj 304 108 s \$0-mute-r;
#X obj 345 138 s \$0-vol-r;
#X msg 152 104 volume \$1;
#X obj 152 80 r \$0-vol-s;
#X obj 225 80 r \$0-mute-s;
#X msg 225 103 mute \$1;
#X obj 604 103 s \$0-mute-r;
#X msg 604 72 color 6;
#X msg 670 72 color 13;
#X obj 202 180 - 100;
#X obj 387 293 s \$0-cnv-r;
#X obj 21 184 cnv 15 30 15 empty \$0-cnv-label-r mono 5 5 0 10 -99865
-262144 0;
#X obj 459 293 s \$0-cnv-label-r;
#X obj 428 222 s \$0-cnv-label-r;
#X msg 428 196 label \$1;
#X obj 428 172 l2s;
#X msg 387 266 color \$1 \$2;
#X obj 18 226 r \$0-vol-s;
#X obj 18 257 sprintf %03.1f;
#X msg 18 314 label \$1;
#X obj 18 284 l2s;
#X obj 24 169 cnv 12 20 12 empty \$0-ind-r 0.1 3 6 0 10 -99865 -262144
0;
#X obj 18 339 s \$0-ind-r;
#X obj 315 293 s \$0-ind-r;
#X obj 202 152 env~ 16392;
#X msg 304 45 mute 0 \, volume 1 \, label mono \, color 21 0;
#X obj 279 152 pvu~;
#X obj 604 17 r \$0-mute-s;
#X obj 18 419 s \$0-vol-r;
#X obj 165 340 r \$0-vol-s;
#X obj 470 149 tof/param file;
#X obj 165 367 change;
#X obj 304 81 route mute volume color label save restore;
#X obj 470 117 bang;
#X obj 553 192 print [sp-gmix~] unknown command;
#X obj 18 499 s \$0-mute-r;
#X obj 153 452 change;
#X obj 153 430 r \$0-mute-s;
#X obj 511 117 t b b b;
#X obj 18 396 tof/param /gmix/\$1/volume;
#X obj 18 475 tof/param /gmix/\$1/mute;
#X connect 0 0 3 0;
#X connect 2 0 42 0;
#X connect 3 0 1 0;
#X connect 3 0 34 0;
#X connect 3 0 36 0;
#X connect 7 0 17 0;
#X connect 7 1 18 0;
#X connect 8 0 35 0;
#X connect 12 0 3 1;
#X connect 13 0 12 0;
#X connect 14 0 15 0;
#X connect 15 0 3 1;
#X connect 17 0 16 0;
#X connect 18 0 16 0;
#X connect 19 0 6 0;
#X connect 24 0 23 0;
#X connect 25 0 24 0;
#X connect 26 0 20 0;
#X connect 26 0 22 0;
#X connect 26 0 33 0;
#X connect 27 0 28 0;
#X connect 28 0 30 0;
#X connect 29 0 32 0;
#X connect 30 0 29 0;
#X connect 34 0 19 0;
#X connect 35 0 42 0;
#X connect 36 0 6 1;
#X connect 37 0 7 0;
#X connect 39 0 41 0;
#X connect 41 0 49 1;
#X connect 42 0 10 0;
#X connect 42 1 11 0;
#X connect 42 2 26 0;
#X connect 42 3 25 0;
#X connect 42 4 43 0;
#X connect 42 5 48 0;
#X connect 42 6 44 0;
#X connect 43 0 40 0;
#X connect 46 0 50 1;
#X connect 47 0 46 0;
#X connect 48 2 40 1;
#X connect 49 0 38 0;
#X connect 50 0 45 0;
#X coords 0 -1 1 1 32 180 2 20 20;
