#N canvas 12 34 858 711 10;
#X obj 43 36 adc~ 1;
#X obj 43 67 sp-gmix2~;
#X obj 43 543 +dsp;
#X obj 43 361 sp-gfuzz~;
#X msg 200 194 fuzz save;
#X msg 269 194 fuzz restore;
#X obj 207 43 sp-gfoot-switch;
#X msg 207 159 fuzz pass \$1;
#X obj 207 120 != 1;
#X connect 0 0 1 0;
#X connect 1 0 3 0;
#X connect 1 2 3 1;
#X connect 3 0 2 0;
#X connect 3 0 2 1;
#X connect 3 1 2 2;
#X connect 4 0 3 1;
#X connect 5 0 3 1;
#X connect 6 0 8 0;
#X connect 7 0 3 1;
#X connect 8 0 7 0;
