#N canvas 105 128 604 302 10;
#X obj 282 243 outlet;
#X obj 282 55 ctlin 102;
#X obj 11 27 cnv 15 198 40 empty empty empty 20 12 0 14 -191407 -66577
0;
#X obj 19 35 vradio 12 1 0 2 \$0-select-s \$0-select-r empty 0 -8 0
10 -262144 -1 -1 1;
#X text 35 32 MBOX foot switch;
#X obj 282 165 mux . . .;
#X obj 333 138 r \$0-select-s;
#X obj 282 87 == 127;
#X obj 175 34 tgl 25 0 \$0-ind-s \$0-ind-r empty 17 7 0 10 -262144
-1 -1 0 1;
#X obj 341 219 s \$0-ind-r;
#X obj 355 55 r \$0-ind-s;
#X obj 355 79 change;
#X text 36 44 checkbox;
#X connect 1 0 7 0;
#X connect 5 0 0 0;
#X connect 5 0 9 0;
#X connect 6 0 5 3;
#X connect 7 0 5 0;
#X connect 10 0 11 0;
#X connect 11 0 5 1;
#X coords 0 -1 1 1 200 60 1 10 10;
