#N canvas 179 283 698 330 10;
#X obj 159 164 inlet~;
#X obj 190 137 inlet~;
#X obj 159 242 outlet~;
#X obj 196 272 outlet~;
#X obj 151 23 cnv 10 85 14 \$0-cnv-s \$0-cnv-r empty 20 12 0 14 -128992
-66577 0;
#X obj 150 24 tgl 12 0 \$0-ch1-s \$0-ch1-r empty 17 7 0 10 -225271
-1 -262144 0 1;
#X obj 169 24 tgl 12 0 \$0-ch2-s \$0-ch2-r empty 17 7 0 10 -225271
-1 -262144 0 1;
#X obj 380 50 inlet;
#X obj 225 26 bng 8 250 50 0 \$0-tgl-s \$0-tgl-r empty 17 7 0 10 -203904
-1 -1;
#X obj 174 76 r \$0-ch1-s;
#X obj 206 50 r \$0-ch2-s;
#X obj 330 130 sel 0;
#X obj 330 223 s \$0-ch2-r;
#X msg 330 152 color 6;
#X msg 357 171 color 13;
#X obj 132 50 loadbang;
#X msg 132 76 0;
#X obj 18 130 sel 0;
#X msg 18 159 color 6;
#X msg 82 159 color 13;
#X obj 18 223 s \$0-ch1-r;
#X obj 35 190 r \$0-tgl-s;
#X msg 380 80 \$1;
#X obj 174 113 t f;
#X obj 206 113 t f;
#X obj 357 195 r \$0-tgl-s;
#X obj 159 213 sp-hub4~ ..........;
#X obj 222 165 inlet~;
#X obj 254 135 inlet~;
#X obj 233 243 outlet~;
#X obj 270 271 outlet~;
#X obj 189 24 tgl 12 0 \$0-ch3-s \$0-ch3-r empty 17 7 0 10 -225271
-1 -262144 0 1;
#X obj 209 24 tgl 12 0 \$0-ch4-s \$0-ch4-r empty 17 7 0 10 -225271
-1 -262144 0 1;
#X obj 270 73 r \$0-ch4-s;
#X obj 238 99 r \$0-ch3-s;
#X obj 238 187 t f;
#X obj 270 158 t f;
#X obj 430 130 sel 0;
#X msg 430 152 color 6;
#X msg 457 171 color 13;
#X obj 457 195 r \$0-tgl-s;
#X obj 430 223 s \$0-ch3-r;
#X obj 530 130 sel 0;
#X msg 530 152 color 6;
#X msg 557 171 color 13;
#X obj 557 195 r \$0-tgl-s;
#X obj 530 223 s \$0-ch4-r;
#X connect 0 0 26 0;
#X connect 1 0 26 2;
#X connect 7 0 22 0;
#X connect 9 0 23 0;
#X connect 10 0 24 0;
#X connect 11 0 13 0;
#X connect 11 1 14 0;
#X connect 13 0 12 0;
#X connect 14 0 12 0;
#X connect 15 0 16 0;
#X connect 16 0 24 0;
#X connect 16 0 23 0;
#X connect 16 0 35 0;
#X connect 16 0 36 0;
#X connect 17 0 18 0;
#X connect 17 1 19 0;
#X connect 18 0 20 0;
#X connect 19 0 20 0;
#X connect 21 0 20 0;
#X connect 22 0 23 0;
#X connect 22 0 24 0;
#X connect 22 0 12 0;
#X connect 22 0 20 0;
#X connect 22 0 41 0;
#X connect 22 0 46 0;
#X connect 23 0 17 0;
#X connect 23 0 26 1;
#X connect 24 0 11 0;
#X connect 24 0 26 3;
#X connect 25 0 12 0;
#X connect 26 0 2 0;
#X connect 26 1 3 0;
#X connect 26 2 29 0;
#X connect 26 3 30 0;
#X connect 27 0 26 4;
#X connect 28 0 26 6;
#X connect 33 0 36 0;
#X connect 34 0 35 0;
#X connect 35 0 26 5;
#X connect 35 0 37 0;
#X connect 36 0 26 7;
#X connect 36 0 42 0;
#X connect 37 0 38 0;
#X connect 37 1 39 0;
#X connect 38 0 41 0;
#X connect 39 0 41 0;
#X connect 40 0 41 0;
#X connect 42 0 43 0;
#X connect 42 1 44 0;
#X connect 43 0 46 0;
#X connect 44 0 46 0;
#X connect 45 0 46 0;
#X coords 0 -1 1 1 86 19 2 150 20;
