#N canvas 185 176 857 437 10;
#X obj 41 167 sp-gmix16~;
#X obj 44 33 hsl 128 15 0 127 0 0 empty empty empty -2 -8 0 10 -262144
-1 -1 0 1;
#X floatatom 41 55 5 0 0 0 - - -;
#X obj 41 79 + 20;
#X obj 75 96 * 2;
#X obj 41 118 osc~;
#X obj 75 118 osc~;
#X obj 110 118 osc~;
#X obj 144 118 osc~;
#X obj 110 96 * 3;
#X obj 144 96 * 4;
#X obj 179 118 osc~;
#X obj 179 96 * 5;
#X obj 213 118 osc~;
#X obj 248 118 osc~;
#X obj 283 118 osc~;
#X obj 317 118 osc~;
#X obj 213 96 * 6;
#X obj 248 96 * 7;
#X obj 283 96 * 8;
#X obj 317 96 * 9;
#X obj 352 118 osc~;
#X obj 386 118 osc~;
#X obj 421 118 osc~;
#X obj 455 118 osc~;
#X obj 490 118 osc~;
#X obj 352 96 * 10;
#X obj 386 96 * 11;
#X obj 421 96 * 12;
#X obj 455 96 * 13;
#X obj 490 96 * 14;
#X obj 168 371 dac~;
#X obj 525 118 osc~;
#X obj 560 118 osc~;
#X obj 525 96 * 13;
#X obj 560 96 * 14;
#X msg 621 55 mix16 midilearn 9;
#X obj 646 290 sp-gparam;
#X connect 0 0 31 0;
#X connect 0 1 31 0;
#X connect 0 2 31 0;
#X connect 0 3 31 0;
#X connect 0 4 31 0;
#X connect 0 5 31 0;
#X connect 0 6 31 0;
#X connect 0 7 31 1;
#X connect 0 8 31 1;
#X connect 0 9 31 1;
#X connect 0 10 31 1;
#X connect 0 11 31 1;
#X connect 0 12 31 1;
#X connect 0 13 31 1;
#X connect 1 0 2 0;
#X connect 2 0 3 0;
#X connect 3 0 5 0;
#X connect 3 0 4 0;
#X connect 3 0 9 0;
#X connect 3 0 10 0;
#X connect 3 0 12 0;
#X connect 3 0 17 0;
#X connect 3 0 18 0;
#X connect 3 0 19 0;
#X connect 3 0 20 0;
#X connect 3 0 26 0;
#X connect 3 0 27 0;
#X connect 3 0 28 0;
#X connect 3 0 29 0;
#X connect 3 0 30 0;
#X connect 3 0 34 0;
#X connect 3 0 35 0;
#X connect 4 0 6 0;
#X connect 5 0 0 0;
#X connect 6 0 0 1;
#X connect 7 0 0 2;
#X connect 8 0 0 3;
#X connect 9 0 7 0;
#X connect 10 0 8 0;
#X connect 11 0 0 4;
#X connect 12 0 11 0;
#X connect 13 0 0 5;
#X connect 14 0 0 6;
#X connect 15 0 0 7;
#X connect 16 0 0 8;
#X connect 17 0 13 0;
#X connect 18 0 14 0;
#X connect 19 0 15 0;
#X connect 20 0 16 0;
#X connect 21 0 0 9;
#X connect 22 0 0 10;
#X connect 23 0 0 11;
#X connect 24 0 0 12;
#X connect 25 0 0 13;
#X connect 26 0 21 0;
#X connect 27 0 22 0;
#X connect 28 0 23 0;
#X connect 29 0 24 0;
#X connect 30 0 25 0;
#X connect 32 0 0 14;
#X connect 33 0 0 15;
#X connect 34 0 32 0;
#X connect 35 0 33 0;
#X connect 36 0 0 16;
