#N canvas 0 22 711 273 10;
#X obj 176 142 sp-grgb;
#X msg 176 77 rgb 244 0 255;
#X msg 295 53 rgb save 1;
#X msg 295 84 rgb restore 1;
#X msg 395 53 rgb save 2;
#X msg 395 84 rgb restore 2;
#X connect 1 0 0 0;
#X connect 2 0 0 0;
#X connect 3 0 0 0;
#X connect 4 0 0 0;
#X connect 5 0 0 0;
