#N canvas 248 184 658 349 10;
#X obj 21 38 cnv 15 199 20 empty empty empty 20 12 0 14 -66577 -66577
0;
#X obj 72 41 nbx 5 14 0 1e+37 0 0 \$0-sec-s \$0-sec-r seconds -45 7
0 10 -262144 -1 -262144 5 256;
#X obj 317 113 / 60;
#X obj 307 185 *;
#X obj 317 135 *;
#X obj 363 113 t b f;
#X obj 292 288 sel 1;
#X obj 292 316 outlet;
#X obj 413 17 inlet control;
#X obj 413 44 route ontimescale;
#X obj 413 129 sp-param-file;
#X obj 512 286 outlet control;
#X obj 195 38 bng 20 250 50 0 \$0-ind-s \$0-ind-r empty 17 7 0 10 -262144
-260097 -1;
#X obj 554 18 loadbang;
#X msg 554 67 time \$1;
#X obj 413 96 route save restore time;
#X obj 503 129 s \$0-sec-r;
#X obj 554 44 f \$1;
#X obj 317 158 t b f;
#X obj 292 259 ==;
#X obj 307 212 + 0.9999;
#X obj 307 235 int;
#N canvas 419 336 311 164 param 0;
#X obj 21 75 tof/param /\$1/\$2/gontimescale/time 0;
#X obj 234 41 r \$0-sec-s;
#X obj 21 99 change;
#X obj 21 125 s \$0-sec-r;
#X connect 0 0 2 0;
#X connect 1 0 0 1;
#X connect 2 0 3 0;
#X restore 24 137 pd param;
#X obj 267 83 sp-timebus \$2;
#X obj 267 16 loadbang;
#X msg 267 60 getbpm \, getbeats;
#X obj 267 38 del 50;
#X connect 1 0 3 0;
#X connect 2 0 4 0;
#X connect 3 0 20 0;
#X connect 4 0 18 0;
#X connect 5 0 4 0;
#X connect 5 1 4 1;
#X connect 6 0 7 0;
#X connect 6 0 12 0;
#X connect 8 0 9 0;
#X connect 9 0 15 0;
#X connect 9 1 11 0;
#X connect 13 0 17 0;
#X connect 14 0 15 0;
#X connect 15 0 10 0;
#X connect 15 1 10 1;
#X connect 15 2 16 0;
#X connect 17 0 14 0;
#X connect 18 0 3 0;
#X connect 18 1 3 1;
#X connect 19 0 6 0;
#X connect 20 0 21 0;
#X connect 21 0 19 1;
#X connect 23 1 19 0;
#X connect 23 2 2 0;
#X connect 23 3 5 0;
#X connect 24 0 26 0;
#X connect 25 0 23 0;
#X connect 26 0 25 0;
#X coords 0 -1 1 1 200 40 1 20 20;
