#N canvas 523 72 614 457 10;
#X declare -lib flatgui;
#X declare -lib flatgui;
#X obj 100 101 sp-gosc~ \$1-ob1;
#X obj 100 343 outlet~;
#X obj 200 342 outlet~;
#X obj 200 101 sp-gosc~ \$1-ob2;
#X obj 100 38 inlet;
#X obj 100 62 route 0 1;
#X connect 0 0 1 0;
#X connect 3 0 2 0;
#X connect 4 0 5 0;
#X connect 5 0 0 0;
#X connect 5 1 3 0;
#X coords 0 -1 1 1 200 122 1 100 100;
