#N canvas 459 142 754 523 10;
#X msg 69 68 0;
#X obj 94 121 vsl 10 40 1 255 0 0 \$0-b-s \$0-b-r empty 0 -8 0 10 -4160
-262144 -1 900 0;
#X obj 81 121 vsl 10 40 1 255 0 0 \$0-g-s \$0-g-r empty 0 -8 0 10 -4034
-262144 -1 0 0;
#X obj 68 121 vsl 10 40 1 255 0 0 \$0-r-s \$0-r-r empty 0 -8 0 10 -258113
-262144 -1 3731 0;
#N canvas 0 22 474 324 list-enumerate 0;
#X obj 107 63 t a b;
#N canvas 473 338 454 304 count 0;
#X obj 131 154 f 0;
#X obj 156 153 + 1;
#X msg 147 133 0;
#X obj 131 183 outlet;
#X obj 131 59 inlet;
#X obj 131 96 b;
#X obj 178 61 inlet;
#X obj 178 98 b;
#X connect 0 0 1 0;
#X connect 0 0 3 0;
#X connect 1 0 0 1;
#X connect 2 0 0 1;
#X connect 4 0 5 0;
#X connect 5 0 0 0;
#X connect 6 0 7 0;
#X connect 7 0 2 0;
#X restore 186 155 pd count;
#X obj 107 113 t a b;
#X obj 107 33 inlet;
#X obj 107 181 list prepend;
#X obj 126 264 outlet;
#X obj 184 264 outlet;
#N canvas 0 22 537 411 drip 0;
#X obj 64 206 list split 1;
#X obj 64 123 until;
#X obj 64 181 list append;
#X obj 194 206 bang;
#X text 146 90 First store list \, then start the loop;
#X text 163 118 "until" bangs its output until told to stop by a "bang"
to its right inlet.;
#X text 182 160 Store the remaining list.;
#X text 239 205 third outlet of "split" tells us to stop.;
#X obj 64 243 outlet;
#X obj 64 57 inlet;
#X text 237 44 From list-help.pd;
#X obj 143 243 outlet;
#X obj 64 86 t b a;
#X connect 0 0 8 0;
#X connect 0 1 2 1;
#X connect 0 2 3 0;
#X connect 0 2 11 0;
#X connect 1 0 2 0;
#X connect 2 0 0 0;
#X connect 3 0 1 1;
#X connect 9 0 12 0;
#X connect 12 0 1 0;
#X connect 12 1 2 1;
#X restore 110 88 pd drip;
#X obj 68 155 list prepend color;
#X msg 69 135 \$1 0 28;
#X connect 0 0 7 0;
#X connect 0 1 1 1;
#X connect 1 0 4 1;
#X connect 2 0 9 0;
#X connect 2 1 1 0;
#X connect 3 0 0 0;
#X connect 4 0 5 0;
#X connect 7 0 2 0;
#X connect 7 1 6 0;
#X connect 8 0 4 0;
#X connect 9 0 8 0;
#X restore 174 369 pd list-enumerate;
#X msg 174 336 \$1 \$1 \$1 \$1 \$1 \$1 \$1 \$1 \$1 \$1 \$1 \$1 \$1
\$1 \$1 \$1;
#X obj 174 489 outlet;
#X obj 69 35 loadbang;
#X obj 275 26 inlet;
#X obj 275 54 route rgb;
#X obj 275 85 route save restore;
#X obj 275 116 sp-param-file;
#X obj 326 253 outlet;
#X obj 17 119 cnv 15 45 45 \$0-cnv-s \$0-cnv-r empty 20 12 0 14 -245775
-355 0;
#X obj 309 487 s \$0-cnv-r;
#X obj 309 402 list split 1;
#X obj 309 439 list trim;
#N canvas 257 427 450 300 param 0;
#X obj 44 80 tof/param /rgb/\$1/r;
#X obj 155 52 change;
#X obj 155 26 r \$0-r-s;
#X obj 315 52 change;
#X obj 315 26 r \$0-g-s;
#X obj 204 80 tof/param /rgb/\$1/g;
#X obj 155 182 change;
#X obj 44 210 tof/param /rgb/\$1/b;
#X obj 155 156 r \$0-b-s;
#X obj 44 113 s \$0-r-r;
#X obj 204 113 s \$0-g-r;
#X obj 44 243 s \$0-b-r;
#X connect 0 0 9 0;
#X connect 1 0 0 1;
#X connect 2 0 1 0;
#X connect 3 0 5 1;
#X connect 4 0 3 0;
#X connect 5 0 10 0;
#X connect 6 0 7 1;
#X connect 7 0 11 0;
#X connect 8 0 6 0;
#X restore 454 73 pd param;
#X obj 380 113 unpack f f f;
#X obj 373 23 loadbang;
#X obj 359 142 s \$0-r-r;
#X obj 414 142 s \$0-g-r;
#X obj 470 142 s \$0-b-r;
#X msg 373 47 0 0 0;
#X symbolatom 18 169 14 0 0 0 - #0-hex-r #0-hex-s;
#X obj 485 244 pack f f f;
#X obj 485 214 int;
#X obj 515 213 t b f;
#X obj 559 213 t b f;
#X obj 485 268 sprintf 0x%02X%02X%02X;
#X obj 485 292 l2s;
#X obj 485 316 s \$0-hex-r;
#X obj 195 26 r sp-\$1;
#X obj 174 260 sp-rgb;
#X connect 0 0 1 0;
#X connect 0 0 2 0;
#X connect 0 0 3 0;
#X connect 1 0 28 0;
#X connect 1 0 33 2;
#X connect 2 0 27 0;
#X connect 2 0 33 1;
#X connect 3 0 26 0;
#X connect 3 0 33 0;
#X connect 4 0 15 0;
#X connect 5 0 4 0;
#X connect 7 0 0 0;
#X connect 8 0 9 0;
#X connect 9 0 10 0;
#X connect 9 1 12 0;
#X connect 10 0 11 0;
#X connect 10 1 11 1;
#X connect 10 2 18 0;
#X connect 15 1 16 0;
#X connect 16 0 14 0;
#X connect 16 0 6 0;
#X connect 18 0 20 0;
#X connect 18 1 21 0;
#X connect 18 2 22 0;
#X connect 19 0 23 0;
#X connect 23 0 10 0;
#X connect 25 0 29 0;
#X connect 26 0 25 0;
#X connect 27 0 25 0;
#X connect 27 1 25 1;
#X connect 28 0 25 0;
#X connect 28 1 25 2;
#X connect 29 0 30 0;
#X connect 30 0 31 0;
#X connect 32 0 10 0;
#X connect 33 0 5 0;
#X coords 0 -1 1 1 100 90 1 10 100;
