#N canvas 49 24 963 683 10;
#X obj 40 109 osc~ 440;
#X obj 441 38 hradio 15 1 0 16 empty empty empty 0 -8 0 10 -262144
-1 -1 0;
#X obj 366 82 tgl 15 0 empty empty empty 17 7 0 10 -262144 -1 -1 0
1;
#X obj 39 20 sp-gcpu;
#X obj 214 30 hsl 128 15 0 2 0 0 empty empty empty -2 -8 0 10 -262144
-1 -1 0 1;
#X obj 335 427 sp-gmix16~ m16;
#X msg 630 117 \; sp-m16 mute 0;
#X msg 706 359 mix16 save;
#X msg 826 329 mix16 restore;
#X obj 40 166 sp-gmix16~;
#X msg 441 67 mix16 solo \$1;
#X msg 366 105 mix16 mute \$1;
#X msg 211 63 mix16 volume \$1;
#X obj 45 434 sp-gparam;
#X msg 584 74 mix16 midilearn 11;
#X connect 0 0 9 0;
#X connect 0 0 9 2;
#X connect 0 0 9 4;
#X connect 0 0 9 6;
#X connect 0 0 9 8;
#X connect 0 0 9 10;
#X connect 0 0 9 11;
#X connect 0 0 9 1;
#X connect 0 0 9 3;
#X connect 0 0 9 5;
#X connect 0 0 9 7;
#X connect 0 0 9 9;
#X connect 0 0 9 12;
#X connect 0 0 9 13;
#X connect 0 0 9 14;
#X connect 0 0 9 15;
#X connect 1 0 10 0;
#X connect 2 0 11 0;
#X connect 4 0 12 0;
#X connect 7 0 5 16;
#X connect 8 0 5 16;
#X connect 10 0 9 16;
#X connect 11 0 9 16;
#X connect 12 0 9 16;
#X connect 14 0 5 16;
