#N canvas 451 22 582 319 10;
#X obj 161 180 compressor~;
#X obj 161 91 inlet~;
#X obj 199 265 outlet~;
#X obj 10 26 cnv 15 108 41 empty empty empty 20 12 0 14 -994 -66577
0;
#X obj 154 8 loadbang;
#X obj 154 61 s \$0-level-r;
#X obj 457 31 inlet;
#X obj 520 118 outlet;
#X obj 457 80 route level;
#X obj 457 157 s \$0-level-r;
#X obj 253 72 r \$0-level-s;
#X obj 18 50 hsl 92 10 -1 5 0 0 \$0-level-s \$0-level-r strength -2
-11 0 10 -262144 -1 -262144 1517 1;
#X obj 67 33 nbx 4 14 -1e+37 1e+37 0 0 \$0-ind-s \$0-ind-r empty 0
-8 0 10 -262144 -1 -1 0.00021978 256;
#X msg 154 31 0;
#X obj 161 120 sp-switch~;
#X obj 99 13 tgl 10 0 \$0-pass-s \$0-pass-r s -7 5 0 10 -262130 -1
-1 0 1;
#X obj 252 35 r \$0-pass-s;
#X connect 0 0 2 0;
#X connect 1 0 14 0;
#X connect 4 0 13 0;
#X connect 6 0 8 0;
#X connect 8 0 9 0;
#X connect 8 1 7 0;
#X connect 10 0 0 1;
#X connect 11 0 12 0;
#X connect 13 0 5 0;
#X connect 14 0 0 0;
#X connect 14 1 2 0;
#X connect 16 0 14 1;
#X coords 0 -1 1 1 108 60 1 10 10;
