#N canvas 242 233 549 362 10;
#X obj 37 69 osc~ 440;
#X obj 37 156 env~;
#X floatatom 37 180 5 0 0 0 - - -;
#X obj 76 156 env~;
#X floatatom 76 180 5 0 0 0 - - -;
#X obj 121 69 tgl 15 0 empty empty empty 17 7 0 10 -262144 -1 -1 0
1;
#X obj 121 37 loadbang;
#X obj 191 69 tgl 15 0 empty empty empty 17 7 0 10 -262144 -1 -1 0
1;
#X msg 35 37 hub2 invert;
#X msg 295 91 \; sp-hub2 1 \$1;
#X obj 295 59 tgl 15 0 empty empty empty 17 7 0 10 -262144 -1 -1 1
1;
#X text 322 58 Named connection;
#X msg 258 137 hub2 save;
#X msg 335 136 hub2 restore;
#X msg 121 93 hub2 0 \$1;
#X msg 191 93 hub2 1 \$1;
#X obj 36 262 sp-gparam;
#X msg 209 37 hub2 0 midilearn 17;
#X msg 339 37 hub2 1 midilearn 18;
#X msg 409 93 hub2 midilearn 10;
#X obj 37 110 sp-ghub2~;
#X obj 223 176 sp-ghub2~ hub2;
#X connect 0 0 20 0;
#X connect 0 0 20 1;
#X connect 1 0 2 0;
#X connect 3 0 4 0;
#X connect 5 0 14 0;
#X connect 6 0 5 0;
#X connect 6 0 7 0;
#X connect 7 0 15 0;
#X connect 8 0 20 2;
#X connect 10 0 9 0;
#X connect 12 0 21 2;
#X connect 13 0 21 2;
#X connect 14 0 20 2;
#X connect 15 0 20 2;
#X connect 17 0 20 2;
#X connect 18 0 20 2;
#X connect 19 0 20 2;
#X connect 20 0 1 0;
#X connect 20 1 3 0;
