#N canvas 84 255 470 430 10;
#X obj 122 10 inlet;
#X obj 299 98 sp-str-timer;
#X msg 299 123 label \$1;
#X obj 11 11 cnv 15 98 20 \$0-timer-s \$0-timer-r 00:00:00 10 10 0
16 -228856 -1 0;
#X obj 299 148 s \$0-timer-r;
#X obj 122 37 route color save restore reset;
#X obj 122 90 s \$0-timer-r;
#X msg 122 62 color \$1 \$2;
#X obj 166 122 sp-param-file;
#X obj 155 155 unpack;
#X obj 53 277 t b f;
#X obj 19 329 pack f f;
#X msg 19 359 color \$1;
#X obj 19 386 s \$0-timer-r;
#X obj 19 190 tof/param /gtimer/\$1/bc 1;
#X obj 53 232 tof/param /gtimer/\$1/fc 22;
#X connect 0 0 5 0;
#X connect 1 0 2 0;
#X connect 2 0 4 0;
#X connect 5 0 7 0;
#X connect 5 0 9 0;
#X connect 5 1 8 0;
#X connect 5 2 8 1;
#X connect 5 4 1 0;
#X connect 7 0 6 0;
#X connect 9 0 14 1;
#X connect 9 1 15 1;
#X connect 10 0 11 0;
#X connect 10 1 11 1;
#X connect 11 0 12 0;
#X connect 12 0 13 0;
#X connect 14 0 11 0;
#X connect 15 0 10 0;
#X coords 0 -1 1 1 100 22 2 10 10;
