#N canvas 0 22 453 444 10;
#X obj 198 89 hsl 128 15 -10 5000 0 0 empty empty empty -2 -8 0 10
-262144 -1 -1 900 1;
#X floatatom 212 109 5 0 0 0 - - -;
#X obj 270 31 hsl 128 15 0 100 0 0 empty empty empty -2 -8 0 10 -262144
-1 -1 3100 1;
#X obj 330 123 tgl 15 0 empty empty empty 17 7 0 10 -262144 -1 -1 0
1;
#X obj 90 284 +dsp;
#X obj 50 109 sp-gbeep~ 440;
#X obj 90 168 sp-gdelay~ 1000;
#X obj 322 257 sp-gparam;
#X msg 330 151 delay skip \$1;
#X msg 267 54 delay feedback \$1;
#X msg 195 131 delay delay \$1;
#X connect 0 0 10 0;
#X connect 0 0 1 0;
#X connect 2 0 9 0;
#X connect 3 0 8 0;
#X connect 5 0 6 0;
#X connect 6 0 4 1;
#X connect 6 0 4 0;
#X connect 8 0 6 1;
#X connect 9 0 6 1;
#X connect 10 0 6 1;
