#N canvas 266 223 290 267 10;
#X obj 118 146 inlet~;
#X obj 118 219 outlet~;
#X obj 100 102 tgl 15 0 \$0-hub-tgl-s \$0-hub-tgl-r empty 17 7 0 10
-228856 -1 -1 0 1;
#X msg 169 146 \$1 20;
#X obj 169 171 line~;
#X obj 118 193 *~;
#X obj 169 118 r \$0-hub-tgl-s;
#X obj 172 44 inlet;
#X obj 172 66 s \$0-hub-tgl-r;
#X connect 0 0 5 0;
#X connect 3 0 4 0;
#X connect 4 0 5 1;
#X connect 5 0 1 0;
#X connect 6 0 3 0;
#X connect 7 0 8 0;
#X coords 0 -1 1 1 15 19 2 100 100;
