#N canvas 266 223 150 187 10;
#X obj 38 66 inlet~;
#X obj 38 139 outlet~;
#X msg 89 66 \$1 20;
#X obj 89 91 line~;
#X obj 38 113 *~;
#X obj 89 24 inlet;
#X connect 0 0 4 0;
#X connect 2 0 3 0;
#X connect 3 0 4 1;
#X connect 4 0 1 0;
#X connect 5 0 2 0;
#X coords 0 267 1 266 15 19 0;
