#N canvas 175 218 428 323 10;
#X obj 41 164 inlet~;
#X obj 41 257 outlet~;
#X obj 265 27 inlet;
#X msg 334 77 \$1 1;
#X obj 307 27 loadbang;
#X obj 41 211 sp-hub~;
#X obj 107 164 inlet~;
#X obj 107 257 outlet~;
#X obj 107 211 sp-hub~;
#X obj 222 94 route 1 2 3 4;
#X obj 173 164 inlet~;
#X obj 173 257 outlet~;
#X obj 173 211 sp-hub~;
#X obj 239 164 inlet~;
#X obj 239 257 outlet~;
#X obj 239 211 sp-hub~;
#X obj 307 54 Uzi 4;
#X connect 0 0 5 0;
#X connect 2 0 9 0;
#X connect 3 0 9 0;
#X connect 4 0 16 0;
#X connect 5 0 1 0;
#X connect 6 0 8 0;
#X connect 8 0 7 0;
#X connect 9 0 5 1;
#X connect 9 1 8 1;
#X connect 9 2 12 1;
#X connect 9 3 15 1;
#X connect 10 0 12 0;
#X connect 12 0 11 0;
#X connect 13 0 15 0;
#X connect 15 0 14 0;
#X connect 16 2 3 0;
