#N canvas 0 22 842 362 10;
#X obj 83 184 sp-hub12~ ............................;
#X obj 83 102 osc~ 440;
#X obj 83 280 env~;
#X floatatom 83 303 5 0 0 0 - - -;
#X obj 123 280 env~;
#X floatatom 123 303 5 0 0 0 - - -;
#X obj 163 280 env~;
#X floatatom 163 303 5 0 0 0 - - -;
#X obj 203 280 env~;
#X floatatom 203 303 5 0 0 0 - - -;
#X obj 243 280 env~;
#X floatatom 243 303 5 0 0 0 - - -;
#X obj 283 280 env~;
#X floatatom 283 303 5 0 0 0 - - -;
#X obj 323 280 env~;
#X floatatom 323 303 5 0 0 0 - - -;
#X obj 363 280 env~;
#X floatatom 363 303 5 0 0 0 - - -;
#X obj 403 280 env~;
#X floatatom 403 303 5 0 0 0 - - -;
#X obj 443 280 env~;
#X floatatom 443 303 5 0 0 0 - - -;
#X obj 483 280 env~;
#X floatatom 483 303 5 0 0 0 - - -;
#X obj 523 280 env~;
#X floatatom 523 303 5 0 0 0 - - -;
#X obj 308 126 tgl 15 0 empty empty empty 17 7 0 10 -262144 -1 -1 0
1;
#X msg 308 147 1 \$1;
#X obj 348 126 tgl 15 0 empty empty empty 17 7 0 10 -262144 -1 -1 0
1;
#X obj 388 126 tgl 15 0 empty empty empty 17 7 0 10 -262144 -1 -1 0
1;
#X obj 428 126 tgl 15 0 empty empty empty 17 7 0 10 -262144 -1 -1 0
1;
#X obj 468 126 tgl 15 0 empty empty empty 17 7 0 10 -262144 -1 -1 0
1;
#X obj 508 126 tgl 15 0 empty empty empty 17 7 0 10 -262144 -1 -1 0
1;
#X obj 548 126 tgl 15 0 empty empty empty 17 7 0 10 -262144 -1 -1 0
1;
#X obj 588 126 tgl 15 0 empty empty empty 17 7 0 10 -262144 -1 -1 0
1;
#X msg 348 147 2 \$1;
#X msg 388 147 3 \$1;
#X msg 428 147 4 \$1;
#X msg 468 147 5 \$1;
#X msg 508 147 6 \$1;
#X msg 548 147 7 \$1;
#X msg 588 147 8 \$1;
#X obj 308 37 loadbang;
#X obj 628 126 tgl 15 0 empty empty empty 17 7 0 10 -262144 -1 -1 0
1;
#X obj 668 126 tgl 15 0 empty empty empty 17 7 0 10 -262144 -1 -1 0
1;
#X msg 628 147 9 \$1;
#X msg 668 147 10 \$1;
#X obj 716 126 tgl 15 0 empty empty empty 17 7 0 10 -262144 -1 -1 0
1;
#X obj 766 126 tgl 15 0 empty empty empty 17 7 0 10 -262144 -1 -1 0
1;
#X msg 716 147 11 \$1;
#X msg 766 147 12 \$1;
#X connect 0 0 2 0;
#X connect 0 1 4 0;
#X connect 0 2 6 0;
#X connect 0 3 8 0;
#X connect 0 4 10 0;
#X connect 0 5 12 0;
#X connect 0 6 14 0;
#X connect 0 7 16 0;
#X connect 0 8 18 0;
#X connect 0 9 20 0;
#X connect 0 10 22 0;
#X connect 0 11 24 0;
#X connect 1 0 0 0;
#X connect 1 0 0 1;
#X connect 1 0 0 2;
#X connect 1 0 0 3;
#X connect 1 0 0 4;
#X connect 1 0 0 5;
#X connect 1 0 0 6;
#X connect 1 0 0 7;
#X connect 1 0 0 8;
#X connect 1 0 0 9;
#X connect 1 0 0 10;
#X connect 1 0 0 11;
#X connect 2 0 3 0;
#X connect 4 0 5 0;
#X connect 6 0 7 0;
#X connect 8 0 9 0;
#X connect 10 0 11 0;
#X connect 12 0 13 0;
#X connect 14 0 15 0;
#X connect 16 0 17 0;
#X connect 18 0 19 0;
#X connect 20 0 21 0;
#X connect 22 0 23 0;
#X connect 24 0 25 0;
#X connect 26 0 27 0;
#X connect 27 0 0 12;
#X connect 28 0 35 0;
#X connect 29 0 36 0;
#X connect 30 0 37 0;
#X connect 31 0 38 0;
#X connect 32 0 39 0;
#X connect 33 0 40 0;
#X connect 34 0 41 0;
#X connect 35 0 0 12;
#X connect 36 0 0 12;
#X connect 37 0 0 12;
#X connect 38 0 0 12;
#X connect 39 0 0 12;
#X connect 40 0 0 12;
#X connect 41 0 0 12;
#X connect 42 0 26 0;
#X connect 42 0 28 0;
#X connect 42 0 29 0;
#X connect 42 0 30 0;
#X connect 42 0 31 0;
#X connect 42 0 32 0;
#X connect 42 0 33 0;
#X connect 42 0 34 0;
#X connect 42 0 43 0;
#X connect 42 0 44 0;
#X connect 42 0 47 0;
#X connect 42 0 48 0;
#X connect 43 0 45 0;
#X connect 44 0 46 0;
#X connect 45 0 0 12;
#X connect 46 0 0 12;
#X connect 47 0 49 0;
#X connect 48 0 50 0;
#X connect 49 0 0 12;
#X connect 50 0 0 12;
