#N canvas 239 310 531 337 10;
#X obj 46 185 sp-hub8~ ...............;
#X obj 46 87 osc~ 440;
#X obj 46 261 env~;
#X floatatom 46 287 5 0 0 0 - - -;
#X obj 86 261 env~;
#X floatatom 86 287 5 0 0 0 - - -;
#X obj 126 261 env~;
#X floatatom 126 287 5 0 0 0 - - -;
#X obj 166 261 env~;
#X floatatom 166 287 5 0 0 0 - - -;
#X obj 206 261 env~;
#X floatatom 206 287 5 0 0 0 - - -;
#X obj 246 261 env~;
#X floatatom 246 287 5 0 0 0 - - -;
#X obj 286 261 env~;
#X floatatom 286 287 5 0 0 0 - - -;
#X obj 326 261 env~;
#X floatatom 326 287 5 0 0 0 - - -;
#X obj 187 116 tgl 15 0 empty empty empty 17 7 0 10 -262144 -1 -1 1
1;
#X msg 187 137 1 \$1;
#X obj 227 116 tgl 15 0 empty empty empty 17 7 0 10 -262144 -1 -1 1
1;
#X obj 267 116 tgl 15 0 empty empty empty 17 7 0 10 -262144 -1 -1 1
1;
#X obj 307 116 tgl 15 0 empty empty empty 17 7 0 10 -262144 -1 -1 1
1;
#X obj 347 116 tgl 15 0 empty empty empty 17 7 0 10 -262144 -1 -1 1
1;
#X obj 387 116 tgl 15 0 empty empty empty 17 7 0 10 -262144 -1 -1 1
1;
#X obj 427 116 tgl 15 0 empty empty empty 17 7 0 10 -262144 -1 -1 1
1;
#X obj 467 116 tgl 15 0 empty empty empty 17 7 0 10 -262144 -1 -1 1
1;
#X msg 227 137 2 \$1;
#X msg 267 137 3 \$1;
#X msg 307 137 4 \$1;
#X msg 347 137 5 \$1;
#X msg 387 137 6 \$1;
#X msg 427 137 7 \$1;
#X msg 467 137 8 \$1;
#X obj 187 27 loadbang;
#X connect 0 0 2 0;
#X connect 0 1 4 0;
#X connect 0 2 6 0;
#X connect 0 3 8 0;
#X connect 0 4 10 0;
#X connect 0 5 12 0;
#X connect 0 6 14 0;
#X connect 0 7 16 0;
#X connect 1 0 0 0;
#X connect 1 0 0 1;
#X connect 1 0 0 2;
#X connect 1 0 0 3;
#X connect 1 0 0 4;
#X connect 1 0 0 5;
#X connect 1 0 0 6;
#X connect 1 0 0 7;
#X connect 2 0 3 0;
#X connect 4 0 5 0;
#X connect 6 0 7 0;
#X connect 8 0 9 0;
#X connect 10 0 11 0;
#X connect 12 0 13 0;
#X connect 14 0 15 0;
#X connect 16 0 17 0;
#X connect 18 0 19 0;
#X connect 19 0 0 8;
#X connect 20 0 27 0;
#X connect 21 0 28 0;
#X connect 22 0 29 0;
#X connect 23 0 30 0;
#X connect 24 0 31 0;
#X connect 25 0 32 0;
#X connect 26 0 33 0;
#X connect 27 0 0 8;
#X connect 28 0 0 8;
#X connect 29 0 0 8;
#X connect 30 0 0 8;
#X connect 31 0 0 8;
#X connect 32 0 0 8;
#X connect 33 0 0 8;
#X connect 34 0 18 0;
#X connect 34 0 20 0;
#X connect 34 0 21 0;
#X connect 34 0 22 0;
#X connect 34 0 23 0;
#X connect 34 0 24 0;
#X connect 34 0 25 0;
#X connect 34 0 26 0;
