#N canvas 0 22 496 244 10;
#X obj 69 114 sp-hub~;
#X obj 37 32 osc~ 440;
#X obj 69 164 env~;
#X floatatom 69 211 5 0 0 0 - - -;
#X msg 108 34 1;
#X msg 148 33 0;
#X obj 158 114 sp-hub~ 0;
#X obj 158 164 env~;
#X floatatom 158 210 5 0 0 0 - - -;
#X obj 248 164 env~;
#X floatatom 248 210 5 0 0 0 - - -;
#X obj 248 114 sp-hub~ 1;
#X text 247 25 [sp-hub~ init_stat];
#X text 316 113 opened by default;
#X text 161 90 closed by default;
#X connect 0 0 2 0;
#X connect 1 0 0 0;
#X connect 1 0 6 0;
#X connect 1 0 11 0;
#X connect 2 0 3 0;
#X connect 4 0 0 1;
#X connect 5 0 0 1;
#X connect 6 0 7 0;
#X connect 7 0 8 0;
#X connect 9 0 10 0;
#X connect 11 0 9 0;
