#N canvas 175 218 450 300 10;
#X obj 44 74 inlet~;
#X obj 44 217 outlet~;
#X obj 44 166 *~;
#X obj 91 149 line~;
#X msg 91 108 0 20;
#X msg 129 108 1 10;
#X obj 91 45 inlet;
#X obj 91 74 sel 1;
#X obj 135 73 loadbang;
#X obj 214 74 inlet~;
#X obj 214 217 outlet~;
#X obj 214 166 *~;
#X obj 261 149 line~;
#X msg 261 108 0 20;
#X msg 299 108 1 10;
#X obj 261 45 inlet;
#X obj 261 74 sel 1;
#X obj 305 73 loadbang;
#X connect 0 0 2 0;
#X connect 2 0 1 0;
#X connect 3 0 2 1;
#X connect 4 0 3 0;
#X connect 5 0 3 0;
#X connect 6 0 7 0;
#X connect 7 0 4 0;
#X connect 7 1 5 0;
#X connect 8 0 5 0;
#X connect 9 0 11 0;
#X connect 11 0 10 0;
#X connect 12 0 11 1;
#X connect 13 0 12 0;
#X connect 14 0 12 0;
#X connect 15 0 16 0;
#X connect 16 0 13 0;
#X connect 16 1 14 0;
#X connect 17 0 14 0;
