#N canvas 175 218 655 317 10;
#X obj 31 174 inlet~;
#X obj 31 267 outlet~;
#X obj 590 27 inlet;
#X msg 533 77 \$1 1;
#X obj 506 27 loadbang;
#X obj 31 221 sp-hub~;
#X obj 97 174 inlet~;
#X obj 97 267 outlet~;
#X obj 97 221 sp-hub~;
#X obj 163 174 inlet~;
#X obj 163 267 outlet~;
#X obj 163 221 sp-hub~;
#X obj 229 174 inlet~;
#X obj 229 267 outlet~;
#X obj 229 221 sp-hub~;
#X obj 506 54 Uzi 8;
#X obj 421 104 route 1 2 3 4 5 6 7 8;
#X obj 291 174 inlet~;
#X obj 291 267 outlet~;
#X obj 291 221 sp-hub~;
#X obj 357 174 inlet~;
#X obj 357 267 outlet~;
#X obj 357 221 sp-hub~;
#X obj 423 174 inlet~;
#X obj 423 267 outlet~;
#X obj 423 221 sp-hub~;
#X obj 489 174 inlet~;
#X obj 489 267 outlet~;
#X obj 489 221 sp-hub~;
#X connect 0 0 5 0;
#X connect 2 0 16 0;
#X connect 3 0 16 0;
#X connect 4 0 15 0;
#X connect 5 0 1 0;
#X connect 6 0 8 0;
#X connect 8 0 7 0;
#X connect 9 0 11 0;
#X connect 11 0 10 0;
#X connect 12 0 14 0;
#X connect 14 0 13 0;
#X connect 15 2 3 0;
#X connect 16 0 5 1;
#X connect 16 1 8 1;
#X connect 16 2 11 1;
#X connect 16 3 14 1;
#X connect 16 4 19 1;
#X connect 16 5 22 1;
#X connect 16 6 25 1;
#X connect 16 7 28 1;
#X connect 17 0 19 0;
#X connect 19 0 18 0;
#X connect 20 0 22 0;
#X connect 22 0 21 0;
#X connect 23 0 25 0;
#X connect 25 0 24 0;
#X connect 26 0 28 0;
#X connect 28 0 27 0;
