#N canvas 199 181 263 242 10;
#X obj 73 82 osc~ 440;
#X obj 73 157 env~;
#X floatatom 73 181 5 0 0 0 - - -;
#X obj 118 157 env~;
#X floatatom 118 181 5 0 0 0 - - -;
#X obj 143 55 tgl 15 0 empty empty empty 17 7 0 10 -262144 -1 -1 1
1;
#X obj 183 55 tgl 15 0 empty empty empty 17 7 0 10 -262144 -1 -1 1
1;
#X obj 73 125 sp-hub2~;
#X obj 143 20 loadbang;
#X msg 183 82 1 \$1;
#X msg 143 82 0 \$1;
#X connect 0 0 7 0;
#X connect 0 0 7 1;
#X connect 1 0 2 0;
#X connect 3 0 4 0;
#X connect 5 0 10 0;
#X connect 6 0 9 0;
#X connect 7 0 1 0;
#X connect 7 1 3 0;
#X connect 8 0 5 0;
#X connect 8 0 6 0;
#X connect 9 0 7 2;
#X connect 10 0 7 2;
