#N canvas 102 146 1087 327 10;
#X obj 41 184 inlet~;
#X obj 41 277 outlet~;
#X obj 1042 38 inlet;
#X msg 743 87 \$1 1;
#X obj 710 37 loadbang;
#X obj 41 231 sp-hub~;
#X obj 107 184 inlet~;
#X obj 107 277 outlet~;
#X obj 107 231 sp-hub~;
#X obj 173 184 inlet~;
#X obj 173 277 outlet~;
#X obj 173 231 sp-hub~;
#X obj 239 184 inlet~;
#X obj 239 277 outlet~;
#X obj 239 231 sp-hub~;
#X obj 301 184 inlet~;
#X obj 301 277 outlet~;
#X obj 301 231 sp-hub~;
#X obj 367 184 inlet~;
#X obj 367 277 outlet~;
#X obj 367 231 sp-hub~;
#X obj 433 184 inlet~;
#X obj 433 277 outlet~;
#X obj 433 231 sp-hub~;
#X obj 499 184 inlet~;
#X obj 499 277 outlet~;
#X obj 499 231 sp-hub~;
#X obj 561 184 inlet~;
#X obj 561 277 outlet~;
#X obj 561 231 sp-hub~;
#X obj 627 184 inlet~;
#X obj 627 277 outlet~;
#X obj 627 231 sp-hub~;
#X obj 693 184 inlet~;
#X obj 693 277 outlet~;
#X obj 693 231 sp-hub~;
#X obj 759 184 inlet~;
#X obj 759 277 outlet~;
#X obj 759 231 sp-hub~;
#X obj 710 64 Uzi 16;
#X obj 821 184 inlet~;
#X obj 821 277 outlet~;
#X obj 821 231 sp-hub~;
#X obj 887 184 inlet~;
#X obj 887 277 outlet~;
#X obj 887 231 sp-hub~;
#X obj 953 184 inlet~;
#X obj 953 277 outlet~;
#X obj 953 231 sp-hub~;
#X obj 1019 184 inlet~;
#X obj 1019 277 outlet~;
#X obj 1019 231 sp-hub~;
#X obj 625 114 route 1 2 3 4 5 6 7 8 9 10 11 12 13 14 15 16;
#X connect 0 0 5 0;
#X connect 2 0 52 0;
#X connect 3 0 52 0;
#X connect 4 0 39 0;
#X connect 5 0 1 0;
#X connect 6 0 8 0;
#X connect 8 0 7 0;
#X connect 9 0 11 0;
#X connect 11 0 10 0;
#X connect 12 0 14 0;
#X connect 14 0 13 0;
#X connect 15 0 17 0;
#X connect 17 0 16 0;
#X connect 18 0 20 0;
#X connect 20 0 19 0;
#X connect 21 0 23 0;
#X connect 23 0 22 0;
#X connect 24 0 26 0;
#X connect 26 0 25 0;
#X connect 27 0 29 0;
#X connect 29 0 28 0;
#X connect 30 0 32 0;
#X connect 32 0 31 0;
#X connect 33 0 35 0;
#X connect 35 0 34 0;
#X connect 36 0 38 0;
#X connect 38 0 37 0;
#X connect 39 2 3 0;
#X connect 40 0 42 0;
#X connect 42 0 41 0;
#X connect 43 0 45 0;
#X connect 45 0 44 0;
#X connect 46 0 48 0;
#X connect 48 0 47 0;
#X connect 49 0 51 0;
#X connect 51 0 50 0;
#X connect 52 0 5 1;
#X connect 52 1 8 1;
#X connect 52 2 11 1;
#X connect 52 3 14 1;
#X connect 52 4 17 1;
#X connect 52 5 20 1;
#X connect 52 6 23 1;
#X connect 52 7 26 1;
#X connect 52 8 29 1;
#X connect 52 9 32 1;
#X connect 52 10 35 1;
#X connect 52 11 38 1;
#X connect 52 12 42 1;
#X connect 52 13 45 1;
#X connect 52 14 48 1;
#X connect 52 15 51 1;
