#N canvas 591 68 316 328 10;
#X obj 34 174 inlet~;
#X obj 34 267 outlet~;
#X obj 148 56 inlet;
#X msg 260 87 \$1 1;
#X obj 233 37 loadbang;
#X obj 148 104 route 1 2;
#X obj 233 64 Uzi 2;
#X obj 34 221 sp-hub~;
#X obj 134 174 inlet~;
#X obj 134 267 outlet~;
#X obj 134 221 sp-hub~;
#X connect 0 0 7 0;
#X connect 2 0 5 0;
#X connect 3 0 5 0;
#X connect 4 0 6 0;
#X connect 5 0 7 1;
#X connect 5 1 10 1;
#X connect 6 2 3 0;
#X connect 7 0 1 0;
#X connect 8 0 10 0;
#X connect 10 0 9 0;
