#N canvas 124 188 314 200 10;
#X obj 31 84 inlet~;
#X obj 31 157 outlet~;
#X obj 82 114 line~;
#X obj 31 131 *~;
#X obj 82 26 inlet;
#X obj 82 54 sel 0;
#X msg 82 84 0 20;
#X msg 124 84 1 20;
#X obj 172 9 loadbang;
#X obj 172 37 f \$1;
#X connect 0 0 3 0;
#X connect 2 0 3 1;
#X connect 3 0 1 0;
#X connect 4 0 5 0;
#X connect 5 0 6 0;
#X connect 5 1 7 0;
#X connect 6 0 2 0;
#X connect 7 0 2 0;
#X connect 8 0 9 0;
#X connect 9 0 5 0;
#X coords 0 200 1 199 15 19 0;
