#N canvas 591 68 510 316 10;
#X obj 34 174 inlet~;
#X obj 34 267 outlet~;
#X obj 148 56 inlet;
#X msg 260 87 \$1 1;
#X obj 233 9 loadbang;
#X obj 233 36 Uzi 2;
#X obj 34 221 sp-hub~;
#X obj 134 174 inlet~;
#X obj 134 267 outlet~;
#X obj 134 221 sp-hub~;
#X obj 148 104 route 0 1;
#X obj 260 61 - 1;
#X connect 0 0 6 0;
#X connect 2 0 10 0;
#X connect 3 0 10 0;
#X connect 4 0 5 0;
#X connect 5 2 11 0;
#X connect 6 0 1 0;
#X connect 7 0 9 0;
#X connect 9 0 8 0;
#X connect 10 0 6 1;
#X connect 10 1 9 1;
#X connect 11 0 3 0;
