#N canvas 175 218 693 304 10;
#X obj 49 109 sp-hub2~;
#X obj 49 66 inlet~;
#X obj 49 166 outlet~;
#X obj 64 34 inlet;
#X obj 79 85 inlet~;
#X obj 94 200 outlet~;
#X obj 94 64 inlet;
#X obj 149 109 sp-hub2~;
#X obj 149 66 inlet~;
#X obj 149 166 outlet~;
#X obj 164 34 inlet;
#X obj 179 85 inlet~;
#X obj 194 200 outlet~;
#X obj 194 64 inlet;
#X obj 249 109 sp-hub2~;
#X obj 249 66 inlet~;
#X obj 249 166 outlet~;
#X obj 264 34 inlet;
#X obj 279 85 inlet~;
#X obj 294 200 outlet~;
#X obj 294 64 inlet;
#X obj 349 109 sp-hub2~;
#X obj 349 66 inlet~;
#X obj 349 166 outlet~;
#X obj 364 34 inlet;
#X obj 379 85 inlet~;
#X obj 394 200 outlet~;
#X obj 394 64 inlet;
#X obj 449 109 sp-hub2~;
#X obj 449 66 inlet~;
#X obj 449 166 outlet~;
#X obj 464 34 inlet;
#X obj 479 85 inlet~;
#X obj 494 200 outlet~;
#X obj 494 64 inlet;
#X obj 549 109 sp-hub2~;
#X obj 549 66 inlet~;
#X obj 549 166 outlet~;
#X obj 564 34 inlet;
#X obj 579 85 inlet~;
#X obj 594 200 outlet~;
#X obj 594 64 inlet;
#X connect 0 0 2 0;
#X connect 0 1 5 0;
#X connect 1 0 0 0;
#X connect 3 0 0 1;
#X connect 4 0 0 2;
#X connect 6 0 0 3;
#X connect 7 0 9 0;
#X connect 7 1 12 0;
#X connect 8 0 7 0;
#X connect 10 0 7 1;
#X connect 11 0 7 2;
#X connect 13 0 7 3;
#X connect 14 0 16 0;
#X connect 14 1 19 0;
#X connect 15 0 14 0;
#X connect 17 0 14 1;
#X connect 18 0 14 2;
#X connect 20 0 14 3;
#X connect 21 0 23 0;
#X connect 21 1 26 0;
#X connect 22 0 21 0;
#X connect 24 0 21 1;
#X connect 25 0 21 2;
#X connect 27 0 21 3;
#X connect 28 0 30 0;
#X connect 28 1 33 0;
#X connect 29 0 28 0;
#X connect 31 0 28 1;
#X connect 32 0 28 2;
#X connect 34 0 28 3;
#X connect 35 0 37 0;
#X connect 35 1 40 0;
#X connect 36 0 35 0;
#X connect 38 0 35 1;
#X connect 39 0 35 2;
#X connect 41 0 35 3;
