#N canvas 0 22 1007 377 10;
#X obj 83 102 osc~ 440;
#X obj 83 280 env~;
#X floatatom 83 303 5 0 0 0 - - -;
#X obj 123 280 env~;
#X floatatom 123 303 5 0 0 0 - - -;
#X obj 163 280 env~;
#X floatatom 163 303 5 0 0 0 - - -;
#X obj 203 280 env~;
#X floatatom 203 303 5 0 0 0 - - -;
#X obj 243 280 env~;
#X floatatom 243 303 5 0 0 0 - - -;
#X obj 283 280 env~;
#X floatatom 283 303 5 0 0 0 - - -;
#X obj 323 280 env~;
#X floatatom 323 303 5 0 0 0 - - -;
#X obj 363 280 env~;
#X floatatom 363 303 5 0 0 0 - - -;
#X obj 403 280 env~;
#X floatatom 403 303 5 0 0 0 - - -;
#X obj 443 280 env~;
#X floatatom 443 303 5 0 0 0 - - -;
#X obj 483 280 env~;
#X floatatom 483 303 5 0 0 0 - - -;
#X obj 523 280 env~;
#X floatatom 523 303 5 0 0 0 - - -;
#X obj 308 126 tgl 15 0 empty empty empty 17 7 0 10 -262144 -1 -1 1
1;
#X msg 308 147 1 \$1;
#X obj 348 126 tgl 15 0 empty empty empty 17 7 0 10 -262144 -1 -1 1
1;
#X obj 388 126 tgl 15 0 empty empty empty 17 7 0 10 -262144 -1 -1 1
1;
#X obj 428 126 tgl 15 0 empty empty empty 17 7 0 10 -262144 -1 -1 1
1;
#X obj 468 126 tgl 15 0 empty empty empty 17 7 0 10 -262144 -1 -1 1
1;
#X obj 508 126 tgl 15 0 empty empty empty 17 7 0 10 -262144 -1 -1 1
1;
#X obj 548 126 tgl 15 0 empty empty empty 17 7 0 10 -262144 -1 -1 1
1;
#X obj 588 126 tgl 15 0 empty empty empty 17 7 0 10 -262144 -1 -1 1
1;
#X msg 348 147 2 \$1;
#X msg 388 147 3 \$1;
#X msg 428 147 4 \$1;
#X msg 468 147 5 \$1;
#X msg 508 147 6 \$1;
#X msg 548 147 7 \$1;
#X msg 588 147 8 \$1;
#X obj 308 37 loadbang;
#X obj 628 126 tgl 15 0 empty empty empty 17 7 0 10 -262144 -1 -1 1
1;
#X obj 668 126 tgl 15 0 empty empty empty 17 7 0 10 -262144 -1 -1 1
1;
#X msg 628 147 9 \$1;
#X msg 668 147 10 \$1;
#X obj 716 126 tgl 15 0 empty empty empty 17 7 0 10 -262144 -1 -1 1
1;
#X obj 766 126 tgl 15 0 empty empty empty 17 7 0 10 -262144 -1 -1 1
1;
#X msg 716 147 11 \$1;
#X msg 766 147 12 \$1;
#X obj 83 184 sp-hub16~ ............................;
#X obj 563 280 env~;
#X floatatom 563 303 5 0 0 0 - - -;
#X obj 603 280 env~;
#X floatatom 603 303 5 0 0 0 - - -;
#X obj 643 280 env~;
#X floatatom 643 303 5 0 0 0 - - -;
#X obj 683 280 env~;
#X floatatom 683 303 5 0 0 0 - - -;
#X obj 818 126 tgl 15 0 empty empty empty 17 7 0 10 -262144 -1 -1 1
1;
#X obj 858 126 tgl 15 0 empty empty empty 17 7 0 10 -262144 -1 -1 1
1;
#X obj 906 126 tgl 15 0 empty empty empty 17 7 0 10 -262144 -1 -1 1
1;
#X obj 956 126 tgl 15 0 empty empty empty 17 7 0 10 -262144 -1 -1 1
1;
#X msg 818 147 13 \$1;
#X msg 858 147 14 \$1;
#X msg 906 147 15 \$1;
#X msg 956 147 16 \$1;
#X connect 0 0 50 0;
#X connect 0 0 50 1;
#X connect 0 0 50 2;
#X connect 0 0 50 3;
#X connect 0 0 50 4;
#X connect 0 0 50 5;
#X connect 0 0 50 6;
#X connect 0 0 50 7;
#X connect 0 0 50 8;
#X connect 0 0 50 9;
#X connect 0 0 50 10;
#X connect 0 0 50 11;
#X connect 0 0 50 12;
#X connect 0 0 50 13;
#X connect 0 0 50 14;
#X connect 0 0 50 15;
#X connect 1 0 2 0;
#X connect 3 0 4 0;
#X connect 5 0 6 0;
#X connect 7 0 8 0;
#X connect 9 0 10 0;
#X connect 11 0 12 0;
#X connect 13 0 14 0;
#X connect 15 0 16 0;
#X connect 17 0 18 0;
#X connect 19 0 20 0;
#X connect 21 0 22 0;
#X connect 23 0 24 0;
#X connect 25 0 26 0;
#X connect 26 0 50 16;
#X connect 27 0 34 0;
#X connect 28 0 35 0;
#X connect 29 0 36 0;
#X connect 30 0 37 0;
#X connect 31 0 38 0;
#X connect 32 0 39 0;
#X connect 33 0 40 0;
#X connect 34 0 50 16;
#X connect 35 0 50 16;
#X connect 36 0 50 16;
#X connect 37 0 50 16;
#X connect 38 0 50 16;
#X connect 39 0 50 16;
#X connect 40 0 50 16;
#X connect 41 0 25 0;
#X connect 41 0 27 0;
#X connect 41 0 28 0;
#X connect 41 0 29 0;
#X connect 41 0 30 0;
#X connect 41 0 31 0;
#X connect 41 0 32 0;
#X connect 41 0 33 0;
#X connect 41 0 42 0;
#X connect 41 0 43 0;
#X connect 41 0 46 0;
#X connect 41 0 47 0;
#X connect 41 0 59 0;
#X connect 41 0 60 0;
#X connect 41 0 61 0;
#X connect 41 0 62 0;
#X connect 42 0 44 0;
#X connect 43 0 45 0;
#X connect 44 0 50 16;
#X connect 45 0 50 16;
#X connect 46 0 48 0;
#X connect 47 0 49 0;
#X connect 48 0 50 16;
#X connect 49 0 50 16;
#X connect 50 0 1 0;
#X connect 50 1 3 0;
#X connect 50 2 5 0;
#X connect 50 3 7 0;
#X connect 50 4 9 0;
#X connect 50 5 11 0;
#X connect 50 6 13 0;
#X connect 50 7 15 0;
#X connect 50 8 17 0;
#X connect 50 9 19 0;
#X connect 50 10 21 0;
#X connect 50 11 23 0;
#X connect 50 12 51 0;
#X connect 50 13 53 0;
#X connect 50 14 55 0;
#X connect 50 15 57 0;
#X connect 51 0 52 0;
#X connect 53 0 54 0;
#X connect 55 0 56 0;
#X connect 57 0 58 0;
#X connect 59 0 63 0;
#X connect 60 0 64 0;
#X connect 61 0 65 0;
#X connect 62 0 66 0;
#X connect 63 0 50 16;
#X connect 64 0 50 16;
#X connect 65 0 50 16;
#X connect 66 0 50 16;
