#N canvas 591 68 401 357 10;
#X obj 34 174 inlet~;
#X obj 34 317 outlet~;
#X obj 34 266 *~;
#X obj 81 249 line~;
#X obj 204 174 inlet~;
#X obj 204 317 outlet~;
#X obj 204 266 *~;
#X obj 251 249 line~;
#X msg 251 208 0 20;
#X obj 226 56 inlet;
#X msg 338 87 \$1 1;
#X obj 311 37 loadbang;
#X obj 81 174 sel 0;
#X obj 251 174 sel 0;
#X msg 81 208 0 20;
#X msg 119 208 1 20;
#X msg 289 208 1 20;
#X obj 226 104 route 1 2;
#X obj 311 64 Uzi 2;
#X connect 0 0 2 0;
#X connect 2 0 1 0;
#X connect 3 0 2 1;
#X connect 4 0 6 0;
#X connect 6 0 5 0;
#X connect 7 0 6 1;
#X connect 8 0 7 0;
#X connect 9 0 17 0;
#X connect 10 0 17 0;
#X connect 11 0 18 0;
#X connect 12 0 14 0;
#X connect 12 1 15 0;
#X connect 13 0 8 0;
#X connect 13 1 16 0;
#X connect 14 0 3 0;
#X connect 15 0 3 0;
#X connect 16 0 7 0;
#X connect 17 0 12 0;
#X connect 17 1 13 0;
#X connect 18 2 10 0;
