#N canvas 94 90 1030 547 10;
#X obj 100 168 sp-ghub2~;
#X obj 99 197 sp-ghub4~;
#X obj 67 292 sp-ghub8~;
#X obj 63 353 sp-ghub12~;
#X obj 61 410 sp-ghub16~;
#X msg 148 107 hub4 invert;
#X msg 147 73 hub2 invert;
#X msg 238 73 hub8 invert;
#X msg 234 104 hub12 invert;
#X msg 234 139 hub16 invert;
#X connect 0 2 1 4;
#X connect 1 4 2 8;
#X connect 2 8 3 12;
#X connect 3 12 4 16;
#X connect 5 0 0 2;
#X connect 6 0 0 2;
#X connect 7 0 0 2;
#X connect 8 0 0 2;
#X connect 9 0 0 2;
