#N canvas 573 43 450 300 10;
#X obj 150 38 keyname;
#X obj 156 159 spigot;
#X msg 189 119 1;
#X msg 229 119 0;
#X obj 156 236 outlet;
#X obj 156 197 sel 1;
#X obj 189 67 strcmp \$1;
#X obj 189 94 sel 0;
#X connect 0 0 1 0;
#X connect 0 1 6 0;
#X connect 1 0 5 0;
#X connect 2 0 1 1;
#X connect 3 0 1 1;
#X connect 5 0 4 0;
#X connect 6 0 7 0;
#X connect 7 0 2 0;
#X connect 7 1 3 0;
