#N canvas 505 311 240 197 10;
#X obj 32 30 inlet;
#X obj 32 62 route run;
#X obj 32 98 ggee/shell;
#X obj 32 126 print sp-launch;
#X obj 123 98 print sp-launch;
#X connect 0 0 1 0;
#X connect 1 0 2 0;
#X connect 1 0 4 0;
#X connect 2 0 3 0;
