#N canvas 128 265 734 518 10;
#X declare -lib bsaylor;
#X obj 444 28 import bsaylor;
#X obj 180 330 pvoc~ \$0-sample 2048 4;
#X obj 180 478 outlet~;
#X msg 180 281 setarray \$1;
#X msg 229 244 locking \$1;
#X obj 278 306 sig~ 1;
#X obj 327 357 arraysize;
#X obj 63 282 susloop~;
#X obj 327 159 s \$0-speed;
#X obj 63 105 r \$0-speed;
#X obj 93 178 r \$0-end;
#X obj 108 210 r \$0-start;
#X obj 327 382 s \$0-arraysize;
#X obj 377 229 *;
#X obj 377 255 int;
#X obj 377 283 s \$0-start;
#X obj 507 229 *;
#X obj 507 255 int;
#X obj 274 35 loadbang;
#X msg 274 63 locking 1;
#X obj 522 206 r \$0-arraysize;
#X obj 507 283 s \$0-end;
#X obj 180 135 route setarray locking pitch speed loopbegin loopend
start;
#X msg 17 241 bang;
#X obj 327 331 t b s;
#X obj 180 159 l2s;
#X obj 63 142 * 44100;
#X obj 180 244 t b s s;
#X obj 467 430 f;
#X obj 52 371 s \$0-setdefault;
#X obj 428 344 r \$0-setdefault;
#X msg 428 382 0;
#X msg 467 382 bang;
#X obj 392 206 r \$0-arraysize;
#X obj 482 406 r \$0-arraysize;
#X obj 475 159 s \$0-play;
#X obj 17 210 r \$0-play;
#X obj 428 464 s \$0-start;
#X obj 511 464 s \$0-end;
#X obj 180 35 inlet control;
#X msg 278 282 \$1 10;
#X obj 269 478 outlet~;
#X obj 446 71 table \$0-sample;
#X obj 269 444 /~;
#X obj 284 414 sig~;
#X connect 1 0 2 0;
#X connect 3 0 1 0;
#X connect 4 0 1 0;
#X connect 5 0 1 1;
#X connect 6 0 12 0;
#X connect 6 0 44 0;
#X connect 7 0 1 0;
#X connect 7 0 43 0;
#X connect 9 0 26 0;
#X connect 10 0 7 2;
#X connect 11 0 7 1;
#X connect 11 0 7 3;
#X connect 13 0 14 0;
#X connect 14 0 15 0;
#X connect 16 0 17 0;
#X connect 17 0 21 0;
#X connect 18 0 19 0;
#X connect 19 0 22 0;
#X connect 20 0 16 1;
#X connect 22 0 25 0;
#X connect 22 1 4 0;
#X connect 22 2 40 0;
#X connect 22 3 8 0;
#X connect 22 4 13 0;
#X connect 22 5 16 0;
#X connect 22 6 35 0;
#X connect 23 0 7 0;
#X connect 24 0 6 0;
#X connect 24 1 6 1;
#X connect 25 0 27 0;
#X connect 26 0 7 0;
#X connect 27 0 29 0;
#X connect 27 1 3 0;
#X connect 27 2 24 0;
#X connect 28 0 38 0;
#X connect 30 0 31 0;
#X connect 30 0 32 0;
#X connect 31 0 37 0;
#X connect 32 0 28 0;
#X connect 33 0 13 1;
#X connect 34 0 28 1;
#X connect 36 0 23 0;
#X connect 39 0 22 0;
#X connect 40 0 5 0;
#X connect 43 0 41 0;
#X connect 44 0 43 1;
