#N canvas 190 144 792 517 10;
#X declare -lib bsaylor;
#X obj 444 28 import bsaylor;
#X obj 180 478 outlet~;
#X msg 180 281 setarray \$1;
#X msg 223 174 locking \$1;
#X obj 266 306 sig~ 1;
#X obj 327 357 arraysize;
#X obj 63 222 susloop~;
#X obj 309 149 s \$0-speed;
#X obj 63 75 r \$0-speed;
#X obj 93 148 r \$0-end;
#X obj 108 180 r \$0-start;
#X obj 327 382 s \$0-arraysize;
#X obj 352 229 *;
#X obj 352 255 int;
#X obj 352 283 s \$0-start;
#X obj 487 229 *;
#X obj 487 255 int;
#X obj 274 35 loadbang;
#X msg 274 63 locking 1;
#X obj 502 206 r \$0-arraysize;
#X obj 487 283 s \$0-end;
#X msg 17 181 bang;
#X obj 327 331 t b s;
#X obj 180 149 l2s;
#X obj 63 112 * 44100;
#X obj 180 204 t b s s;
#X obj 467 430 f;
#X obj 52 371 s \$0-setdefault;
#X obj 428 344 r \$0-setdefault;
#X msg 428 382 0;
#X msg 467 382 bang;
#X obj 367 206 r \$0-arraysize;
#X obj 482 406 r \$0-arraysize;
#X obj 438 149 s \$0-play;
#X obj 17 150 r \$0-play;
#X obj 428 464 s \$0-start;
#X obj 511 464 s \$0-end;
#X obj 180 35 inlet control;
#X msg 266 281 \$1 10;
#X obj 269 478 outlet~;
#X obj 269 444 /~;
#X obj 284 414 sig~;
#X obj 63 311 multiplex~;
#X obj 120 282 sig~ 0;
#X obj 446 71 table \$0-sample 100;
#X obj 180 105 route setarray locking pitch speed loopbegin loopend
start stop;
#X obj 501 149 s \$0-stop;
#X obj 525 181 print [sp-looper~] unknown command;
#X msg 17 253 0;
#X msg 73 282 1;
#X obj 73 251 r \$0-stop;
#X obj 180 330 pvoc~ \$0-sample 2048 4;
#X obj 342 440 print;
#X connect 2 0 51 0;
#X connect 3 0 51 0;
#X connect 4 0 51 1;
#X connect 5 0 11 0;
#X connect 5 0 41 0;
#X connect 5 0 52 0;
#X connect 6 0 42 0;
#X connect 8 0 24 0;
#X connect 9 0 6 2;
#X connect 10 0 6 1;
#X connect 10 0 6 3;
#X connect 12 0 13 0;
#X connect 13 0 14 0;
#X connect 15 0 16 0;
#X connect 16 0 20 0;
#X connect 17 0 18 0;
#X connect 18 0 45 0;
#X connect 19 0 15 1;
#X connect 21 0 6 0;
#X connect 22 0 5 0;
#X connect 22 1 5 1;
#X connect 23 0 25 0;
#X connect 24 0 6 0;
#X connect 25 0 27 0;
#X connect 25 1 2 0;
#X connect 25 2 22 0;
#X connect 26 0 36 0;
#X connect 28 0 29 0;
#X connect 28 0 30 0;
#X connect 29 0 35 0;
#X connect 30 0 26 0;
#X connect 31 0 12 1;
#X connect 32 0 26 1;
#X connect 34 0 21 0;
#X connect 34 0 48 0;
#X connect 37 0 45 0;
#X connect 38 0 4 0;
#X connect 40 0 39 0;
#X connect 41 0 40 1;
#X connect 42 0 40 0;
#X connect 42 0 51 0;
#X connect 43 0 42 1;
#X connect 45 0 23 0;
#X connect 45 1 3 0;
#X connect 45 2 38 0;
#X connect 45 3 7 0;
#X connect 45 4 12 0;
#X connect 45 5 15 0;
#X connect 45 6 33 0;
#X connect 45 7 46 0;
#X connect 45 8 47 0;
#X connect 48 0 42 0;
#X connect 49 0 42 0;
#X connect 50 0 49 0;
#X connect 51 0 1 0;
