#N canvas 170 155 450 300 10;
#X obj 62 118 zexy/operating_system;
#X obj 62 145 sel windows linux macos;
#X obj 152 248 shell;
#X obj 152 190 symbol;
#X obj 244 13 inlet;
#X obj 244 44 route run;
#X msg 152 221 open /Applications/\$1;
#X symbolatom 231 191 10 0 0 0 - - -;
#X obj 244 101 t bang symbol;
#X obj 244 72 symbol;
#X connect 0 0 1 0;
#X connect 1 2 3 0;
#X connect 3 0 6 0;
#X connect 3 0 7 0;
#X connect 4 0 5 0;
#X connect 5 0 9 0;
#X connect 6 0 2 0;
#X connect 8 0 0 0;
#X connect 8 1 3 1;
#X connect 9 0 8 0;
