#N canvas 421 130 572 420 10;
#X obj 65 35 inlet~;
#X obj 99 64 inlet~;
#X obj 216 121 vsl 10 79 0 1.5 0 0 \$0-gain-s \$0-gain-r vol 0 -10
0 10 -262144 -1 -1 5077 1;
#X obj 232 121 vu 8 80 \$0-vu-r empty -1 -8 0 10 -66577 -1 0 0;
#X obj 212 35 inlet;
#X obj 110 165 vradio 12 1 0 3 \$0-channel-s \$0-channel-r empty 0
-8 0 10 -262144 -1 -1 0;
#X text 127 163 1-2;
#X obj 294 134 loadbang;
#X obj 294 193 s \$0-channel-r;
#X text 127 175 3-4;
#X text 127 187 5-6;
#X text 108 146 out channels:;
#N canvas 392 415 450 300 control 0;
#X obj 47 32 inlet;
#X obj 47 94 clip 0 1.5;
#X obj 47 118 s \$0-gain-r;
#X obj 89 143 int;
#X obj 89 203 s \$0-channel-r;
#X obj 132 97 s \$0-mute-r;
#X obj 47 69 route volume channel mute pan;
#X obj 175 151 s \$0-pan-r;
#X obj 175 124 clip 0 1;
#X obj 89 173 clip 0 3;
#X connect 0 0 6 0;
#X connect 1 0 2 0;
#X connect 3 0 9 0;
#X connect 6 0 1 0;
#X connect 6 1 3 0;
#X connect 6 2 5 0;
#X connect 6 3 8 0;
#X connect 8 0 7 0;
#X connect 9 0 4 0;
#X restore 212 61 pd control;
#X obj 110 127 tgl 13 0 \$0-mute-s \$0-mute-r mute 19 7 0 10 -262144
-258113 -1 0 1;
#X obj 170 195 hsl 30 8 0 1 0 0 \$0-pan-s \$0-pan-r pan 5 -8 0 10 -262144
-1 -1 2900 1;
#X obj 394 194 s \$0-pan-r;
#X msg 471 163 0.5;
#X obj 471 194 s \$0-gain-r;
#X msg 394 162 0.5;
#X msg 294 163 2;
#N canvas 595 300 243 280 pan 1;
#X obj 25 14 inlet~;
#X obj 124 15 inlet~;
#X obj 25 237 outlet~;
#X obj 124 237 outlet~;
#X obj 25 170 *~;
#X obj 124 171 *~;
#X msg 139 108 \$1 50;
#X obj 139 131 line~;
#X obj 139 59 r \$0-pan-s;
#X msg 40 118 \$1 50;
#X obj 40 141 line~;
#X obj 40 86 expr 1 - $f1;
#X connect 0 0 4 0;
#X connect 1 0 5 0;
#X connect 4 0 2 0;
#X connect 5 0 3 0;
#X connect 6 0 7 0;
#X connect 7 0 5 1;
#X connect 8 0 6 0;
#X connect 8 0 11 0;
#X connect 9 0 10 0;
#X connect 10 0 4 1;
#X connect 11 0 9 0;
#X restore 65 298 pd pan;
#N canvas 427 449 450 300 pvu 0;
#X obj 30 17 inlet~;
#X obj 101 17 inlet~;
#X obj 30 110 outlet~;
#X obj 101 112 outlet~;
#X obj 56 49 pvu~;
#X obj 140 49 pvu~;
#X obj 176 89 expr ($f1 + $f2) / 2;
#X obj 176 128 s \$0-vu-r;
#X connect 0 0 2 0;
#X connect 0 0 4 0;
#X connect 1 0 3 0;
#X connect 1 0 5 0;
#X connect 4 0 6 0;
#X connect 5 0 6 1;
#X connect 6 0 7 0;
#X restore 65 329 pd pvu;
#N canvas 457 324 405 182 mute 0;
#X obj 27 20 inlet~;
#X obj 27 129 outlet~;
#X obj 27 73 *~;
#X obj 117 20 inlet~;
#X obj 117 129 outlet~;
#X obj 117 73 *~;
#X obj 199 20 r \$0-mute-s;
#X obj 199 118 line~;
#X obj 199 66 == 0;
#X obj 300 22 loadbang;
#X msg 300 49 0;
#X obj 300 77 s \$0-mute-r;
#X obj 199 44 clip 0 1;
#X msg 199 92 \$1 20;
#X connect 0 0 2 0;
#X connect 2 0 1 0;
#X connect 3 0 5 0;
#X connect 5 0 4 0;
#X connect 6 0 12 0;
#X connect 7 0 5 1;
#X connect 7 0 2 1;
#X connect 8 0 13 0;
#X connect 9 0 10 0;
#X connect 10 0 11 0;
#X connect 12 0 8 0;
#X connect 13 0 7 0;
#X restore 65 266 pd mute;
#N canvas 455 339 233 199 vol 0;
#X obj 34 22 inlet~;
#X obj 34 125 *~;
#X obj 34 150 outlet~;
#X obj 49 98 line~;
#X msg 49 72 \$1 50;
#X obj 49 49 r \$0-gain-s;
#X obj 144 22 inlet~;
#X obj 144 125 *~;
#X obj 144 150 outlet~;
#X connect 0 0 1 0;
#X connect 1 0 2 0;
#X connect 3 0 1 1;
#X connect 3 0 7 1;
#X connect 4 0 3 0;
#X connect 5 0 4 0;
#X connect 6 0 7 0;
#X connect 7 0 8 0;
#X restore 65 235 pd vol;
#N canvas 577 365 450 300 demux 0;
#X obj 35 33 inlet~;
#X obj 134 33 inlet~;
#X obj 35 188 dac~ 1 2 3 4 5 6;
#X obj 134 147 demux~ . . .;
#X obj 35 147 demux~ . . .;
#X obj 246 30 r \$0-channel-s;
#X obj 246 63 pipe 20;
#X obj 134 118 *~;
#X obj 35 118 *~;
#X obj 87 93 line~;
#X msg 144 65 1 20;
#X msg 87 65 0 20;
#X connect 0 0 8 0;
#X connect 1 0 7 0;
#X connect 3 0 2 1;
#X connect 3 1 2 3;
#X connect 3 2 2 5;
#X connect 4 0 2 0;
#X connect 4 1 2 2;
#X connect 4 2 2 4;
#X connect 5 0 6 0;
#X connect 5 0 11 0;
#X connect 6 0 3 0;
#X connect 6 0 4 0;
#X connect 6 0 10 0;
#X connect 7 0 3 0;
#X connect 8 0 4 0;
#X connect 9 0 8 1;
#X connect 9 0 7 1;
#X connect 10 0 9 0;
#X connect 11 0 9 0;
#X restore 65 375 pd demux;
#X connect 0 0 23 0;
#X connect 1 0 23 1;
#X connect 4 0 12 0;
#X connect 7 0 19 0;
#X connect 7 0 18 0;
#X connect 7 0 16 0;
#X connect 16 0 17 0;
#X connect 18 0 15 0;
#X connect 19 0 8 0;
#X connect 20 0 21 0;
#X connect 20 1 21 1;
#X connect 21 0 24 0;
#X connect 21 1 24 1;
#X connect 22 0 20 0;
#X connect 22 1 20 1;
#X connect 23 0 22 0;
#X connect 23 1 22 1;
#X coords 0 -1 1 1 150 110 1 100 100;
