#N canvas 461 68 574 303 10;
#X obj 112 162 +dsp;
#X obj 184 40 hsl 128 15 -1 1000 0 0 empty empty empty -2 -8 0 10 -262144
-1 -1 0 1;
#X obj 56 49 bng 15 250 50 0 empty empty empty 17 7 0 10 -262144 -1
-1;
#X msg 92 19 stop;
#X msg 133 19 start;
#X obj 112 94 sp-metro 120;
#X obj 27 49 tgl 15 0 empty empty empty 17 7 0 10 -262144 -1 -1 0 1
;
#X msg 213 69 tone 3000;
#X obj 327 40 hsl 128 15 0 10000 0 0 empty empty empty -2 -8 0 10 -262144
-1 -1 0 1;
#X msg 324 77 tone \$1;
#X obj 247 136 bng 15 250 50 0 empty empty empty 17 7 0 10 -262144
-1 -1;
#X connect 1 0 5 1;
#X connect 2 0 5 0;
#X connect 3 0 5 0;
#X connect 4 0 5 0;
#X connect 5 0 0 0;
#X connect 5 1 10 0;
#X connect 6 0 5 0;
#X connect 7 0 5 0;
#X connect 8 0 9 0;
#X connect 9 0 5 0;
