#N canvas 13 142 942 201 10;
#X obj 45 49 inlet~;
#X obj 103 49 inlet;
#X obj 45 88 sp-mix~;
#X obj 45 124 outlet~;
#X obj 155 49 inlet~;
#X obj 213 49 inlet;
#X obj 155 88 sp-mix~;
#X obj 155 124 outlet~;
#X obj 265 49 inlet~;
#X obj 323 49 inlet;
#X obj 265 88 sp-mix~;
#X obj 265 124 outlet~;
#X obj 375 49 inlet~;
#X obj 433 49 inlet;
#X obj 375 88 sp-mix~;
#X obj 375 124 outlet~;
#X obj 485 49 inlet~;
#X obj 543 49 inlet;
#X obj 485 88 sp-mix~;
#X obj 485 124 outlet~;
#X obj 595 49 inlet~;
#X obj 653 49 inlet;
#X obj 595 88 sp-mix~;
#X obj 595 124 outlet~;
#X obj 705 49 inlet~;
#X obj 763 49 inlet;
#X obj 705 88 sp-mix~;
#X obj 705 124 outlet~;
#X obj 815 49 inlet~;
#X obj 873 49 inlet;
#X obj 815 88 sp-mix~;
#X obj 815 124 outlet~;
#X connect 0 0 2 0;
#X connect 1 0 2 1;
#X connect 2 0 3 0;
#X connect 4 0 6 0;
#X connect 5 0 6 1;
#X connect 6 0 7 0;
#X connect 8 0 10 0;
#X connect 9 0 10 1;
#X connect 10 0 11 0;
#X connect 12 0 14 0;
#X connect 13 0 14 1;
#X connect 14 0 15 0;
#X connect 16 0 18 0;
#X connect 17 0 18 1;
#X connect 18 0 19 0;
#X connect 20 0 22 0;
#X connect 21 0 22 1;
#X connect 22 0 23 0;
#X connect 24 0 26 0;
#X connect 25 0 26 1;
#X connect 26 0 27 0;
#X connect 28 0 30 0;
#X connect 29 0 30 1;
#X connect 30 0 31 0;
