#N canvas 233 257 813 419 10;
#X obj 11 27 cnv 15 198 120 empty empty empty 20 12 0 14 -260097 -66577
0;
#X obj 22 46 hsl 128 12 0 2 0 0 \$0-volume-s \$0-volume-r volume range
-2 -8 0 10 -262144 -1 -1 3175 1;
#X obj 282 33 ctlin;
#X obj 282 74 demux 1 2 3 4 5 6 7 8 9 10 11 12 13 14 15 16 17 18;
#X obj 158 46 nbx 3 12 0 2 0 0 \$0-vol-nbx-s \$0-vol-nbx-r empty 0
-8 0 10 -262144 -1 -1 0.5 256;
#X obj 220 45 change;
#X obj 296 307 r \$0-volume-s;
#X obj 20 65 vradio 12 1 0 2 \$0-select-s \$0-select-r empty 0 -8 0
10 -262144 -1 -1 0;
#X obj 404 147 mux . .;
#X obj 443 118 r \$0-select-s;
#X obj 254 185 t f f b f;
#X obj 239 219 f;
#X obj 239 243 -;
#X obj 239 269 * -1;
#X obj 239 296 / 127;
#X obj 239 324 *;
#X msg 239 353 vol+ \$1;
#X obj 239 383 outlet;
#X obj 150 71 nbx 4 12 0 127 0 0 \$0-ind-s \$0-ind-r Volume: -50 7
0 10 -262144 -1 -1 0 256;
#N canvas 61 22 771 562 save 0;
#X obj 39 74 tof/param /midi/dsp/control/\$1/volume 0.5;
#X obj 282 32 r \$0-volume-s;
#X obj 39 108 change;
#X obj 39 140 s \$0-volume-r;
#X obj 40 191 tof/param /midi/dsp/control/\$1/select;
#X obj 40 218 change;
#X obj 40 245 s \$0-select-r;
#X obj 259 153 r \$0-select-s;
#X obj 40 318 change;
#X obj 40 291 tof/param /midi/dsp/control/\$1/p1;
#X obj 235 253 r \$0-p1-s;
#X obj 40 345 s \$0-p1-r;
#X obj 320 328 change;
#X obj 320 301 tof/param /midi/dsp/control/\$1/p2;
#X obj 515 263 r \$0-p2-s;
#X obj 320 355 s \$0-p2-r;
#X obj 40 438 change;
#X obj 40 411 tof/param /midi/dsp/control/\$1/p3;
#X obj 235 373 r \$0-p3-s;
#X obj 40 465 s \$0-p3-r;
#X obj 320 438 change;
#X obj 515 373 r \$0-p4-s;
#X obj 320 465 s \$0-p4-r;
#X obj 320 411 tof/param /midi/dsp/control/\$1/p4;
#X connect 0 0 2 0;
#X connect 1 0 0 1;
#X connect 2 0 3 0;
#X connect 4 0 5 0;
#X connect 5 0 6 0;
#X connect 7 0 4 1;
#X connect 8 0 11 0;
#X connect 9 0 8 0;
#X connect 10 0 9 1;
#X connect 12 0 15 0;
#X connect 13 0 12 0;
#X connect 14 0 13 1;
#X connect 16 0 19 0;
#X connect 17 0 16 0;
#X connect 18 0 17 1;
#X connect 20 0 22 0;
#X connect 21 0 23 1;
#X connect 23 0 20 0;
#X restore 39 345 pd save;
#X obj 39 372 sp-param-file;
#X obj 200 164 / 127;
#X obj 200 209 *;
#N canvas 543 289 184 181 vol 0;
#X obj 39 33 loadbang;
#X obj 39 141 s \$0-volume-r;
#X obj 39 87 l2s;
#X msg 39 114 label \$1;
#X msg 39 60 volume range;
#X msg 127 61 0.5;
#X connect 0 0 4 0;
#X connect 0 0 5 0;
#X connect 2 0 3 0;
#X connect 3 0 1 0;
#X connect 4 0 2 0;
#X connect 5 0 1 0;
#X restore 39 318 pd vol;
#X obj 403 359 outlet;
#X obj 503 359 outlet;
#X obj 593 359 outlet;
#X obj 683 359 outlet;
#X obj 49 124 nbx 3 12 0 127 0 0 \$0-p1-s \$0-p1-r empty 0 -8 0 10
-262144 -1 -1 1 256;
#X obj 754 359 outlet;
#X obj 88 124 nbx 3 12 0 127 0 0 \$0-p2-s \$0-p2-r empty 0 -8 0 10
-262144 -1 -1 2 256;
#X obj 126 124 nbx 3 12 0 127 0 0 \$0-p3-s \$0-p3-r empty 0 -8 0 10
-262144 -1 -1 3 256;
#X obj 164 124 nbx 3 12 0 127 0 0 \$0-p4-s \$0-p4-r empty 0 -8 0 10
-262144 -1 -1 4 256;
#X text 19 85 -----------------------------;
#X text 38 62 ch.7;
#X text 38 73 ch.17;
#X obj 49 109 bng 12 250 50 0 \$0-btn-p1-s \$0-btn-p1-r empty 17 7
0 10 -262144 -1 -1;
#X text 63 107 PR1;
#X obj 88 109 bng 12 250 50 0 \$0-btn-p2-s \$0-btn-p2-r empty 17 7
0 10 -262144 -1 -1;
#X text 102 107 PR2;
#X obj 126 109 bng 12 250 50 0 \$0-btn-p3-s \$0-btn-p3-r empty 17 7
0 10 -262144 -1 -1;
#X text 140 107 PR3;
#X obj 164 109 bng 12 250 50 0 \$0-btn-p4-s \$0-btn-p4-r empty 17 7
0 10 -262144 -1 -1;
#X text 178 107 PR4;
#X text 14 120 VOL+;
#N canvas 451 228 450 300 init 0;
#X obj 96 41 loadbang;
#X obj 96 71 t b b;
#X obj 123 105 f \$0;
#X obj 171 42 bng 15 250 50 0 empty empty empty 17 7 0 10 -262144 -1
-1;
#X msg 123 132 \; \$1-p1-r 1 \; \$1-p2-r 2 \; \$1-p3-r 3 \; \$1-p4-r
4 \;;
#X connect 0 0 1 0;
#X connect 1 1 2 0;
#X connect 2 0 4 0;
#X connect 3 0 1 0;
#X restore 39 291 pd init;
#X obj 403 198 pgmin;
#X obj 403 246 ==;
#X obj 403 272 sel 1;
#X obj 430 229 r \$0-p1-s;
#X obj 503 246 ==;
#X obj 503 272 sel 1;
#X obj 593 246 ==;
#X obj 593 272 sel 1;
#X obj 683 246 ==;
#X obj 683 272 sel 1;
#X obj 530 229 r \$0-p2-s;
#X obj 620 229 r \$0-p3-s;
#X obj 710 229 r \$0-p4-s;
#X connect 1 0 4 0;
#X connect 2 0 3 0;
#X connect 2 1 3 1;
#X connect 3 7 8 0;
#X connect 3 17 8 1;
#X connect 4 0 5 0;
#X connect 4 0 22 1;
#X connect 5 0 1 0;
#X connect 6 0 15 1;
#X connect 8 0 10 0;
#X connect 8 0 21 0;
#X connect 9 0 8 2;
#X connect 10 0 11 1;
#X connect 10 2 11 0;
#X connect 10 3 12 1;
#X connect 11 0 12 0;
#X connect 12 0 13 0;
#X connect 13 0 14 0;
#X connect 14 0 15 0;
#X connect 15 0 16 0;
#X connect 16 0 17 0;
#X connect 21 0 22 0;
#X connect 22 0 18 0;
#X connect 46 0 47 0;
#X connect 46 0 29 0;
#X connect 46 0 50 0;
#X connect 46 0 52 0;
#X connect 46 0 54 0;
#X connect 47 0 48 0;
#X connect 48 0 24 0;
#X connect 48 0 36 0;
#X connect 49 0 47 1;
#X connect 50 0 51 0;
#X connect 51 0 25 0;
#X connect 51 0 38 0;
#X connect 52 0 53 0;
#X connect 53 0 26 0;
#X connect 53 0 40 0;
#X connect 54 0 55 0;
#X connect 55 0 27 0;
#X connect 55 0 42 0;
#X connect 56 0 50 1;
#X connect 57 0 52 1;
#X connect 58 0 54 1;
#X coords 0 -1 1 1 200 140 1 10 10;
