#N canvas 412 318 439 239 10;
#X obj 192 69 sp-midiview;
#X obj 45 46 tgl 15 0 empty empty empty 17 7 0 10 -262144 -1 -1 0 1
;
#X msg 45 70 learn \$1;
#X floatatom 45 127 5 0 0 0 - - -;
#X obj 45 98 sp-midilearn;
#X floatatom 79 127 5 0 0 0 - - -;
#X msg 76 45 save 1;
#X msg 126 45 restore 1;
#X floatatom 114 127 5 0 0 0 - - -;
#X connect 1 0 2 0;
#X connect 2 0 4 0;
#X connect 4 0 3 0;
#X connect 4 1 5 0;
#X connect 4 2 8 0;
#X connect 6 0 4 0;
#X connect 7 0 4 0;
