#N canvas 233 257 652 420 10;
#X obj 11 27 cnv 15 198 80 empty empty empty 20 12 0 14 -260097 -66577
0;
#X obj 22 46 hsl 120 12 0 2 0 0 \$0-volume-s \$0-volume-r volume_range
-2 -8 0 10 -262144 -1 -1 2975 1;
#X obj 282 33 ctlin;
#X obj 282 74 demux 1 2 3 4 5 6 7 8 9 10 11 12 13 14 15 16 17 18;
#X obj 41 133 loadbang;
#X obj 41 241 s \$0-volume-r;
#X obj 41 187 l2s;
#X msg 41 214 label \$1;
#X msg 41 160 volume range;
#X obj 159 46 nbx 3 12 0 2 0 0 \$0-vol-nbx-s \$0-vol-nbx-r empty 0
-8 0 10 -262144 -1 -1 0.5 256;
#X obj 220 45 change;
#X msg 129 161 0.5;
#X obj 446 307 r \$0-volume-s;
#X obj 20 65 vradio 12 1 0 2 \$0-select-s \$0-select-r empty 0 -8 0
10 -262144 -1 -1 1;
#X text 41 64 7;
#X text 38 75 17;
#X obj 404 147 mux . .;
#X obj 443 118 r \$0-select-s;
#X obj 404 185 t f f b f;
#X obj 389 219 f;
#X obj 389 243 -;
#X obj 389 269 * -1;
#X obj 389 296 / 127;
#X obj 389 324 *;
#X msg 389 353 vol+ \$1;
#X obj 389 383 outlet;
#X obj 141 69 nbx 5 14 0 127 0 0 \$0-ind-s \$0-ind-r Volume: -50 7
0 10 -262144 -1 -1 0.5 256;
#N canvas 475 523 450 300 save 0;
#X obj 39 74 tof/param /midi/dsp/control/\$1/volume 0.5;
#X obj 282 32 r \$0-volume-s;
#X obj 39 108 change;
#X obj 39 140 s \$0-volume-r;
#X connect 0 0 2 0;
#X connect 1 0 0 1;
#X connect 2 0 3 0;
#X restore 48 284 pd save;
#X obj 54 341 sp-param-file;
#X obj 204 202 maxlib/scale 0 127 0 0.5;
#X connect 1 0 9 0;
#X connect 2 0 3 0;
#X connect 2 1 3 1;
#X connect 3 7 16 0;
#X connect 3 17 16 1;
#X connect 4 0 8 0;
#X connect 4 0 11 0;
#X connect 6 0 7 0;
#X connect 7 0 5 0;
#X connect 8 0 6 0;
#X connect 9 0 10 0;
#X connect 10 0 1 0;
#X connect 11 0 5 0;
#X connect 12 0 23 1;
#X connect 12 0 29 5;
#X connect 16 0 18 0;
#X connect 16 0 29 0;
#X connect 17 0 16 2;
#X connect 18 0 19 1;
#X connect 18 2 19 0;
#X connect 18 3 20 1;
#X connect 19 0 20 0;
#X connect 20 0 21 0;
#X connect 21 0 22 0;
#X connect 22 0 23 0;
#X connect 23 0 24 0;
#X connect 24 0 25 0;
#X connect 29 0 26 0;
#X coords 0 -1 1 1 200 100 1 10 10;
