#N canvas 16 236 450 300 10;
#X obj 114 58 tgl 15 0 empty empty empty 17 7 0 10 -262144 -1 -1 0
1;
#X obj 114 99 sp-midiclock;
#X obj 186 54 hsl 100 15 40 300 0 0 empty empty empty -2 -8 0 10 -262130
-1 -1 0 1;
#X floatatom 214 100 5 0 0 0 - - -;
#X connect 0 0 1 0;
#X connect 2 0 1 1;
#X connect 2 0 3 0;
