#N canvas 0 22 495 352 10;
#X obj 99 105 sp-monomix~;
#X obj 99 55 osc~ 440;
#X obj 188 22 hsl 128 15 0 2 0 0 empty empty empty -2 -8 0 10 -262144
-1 -1 0 1;
#X text 186 48 [0.0 ... 2];
#X floatatom 99 275 5 0 0 0 - - -;
#X obj 99 241 env~;
#X msg 193 88 mute;
#X connect 0 0 5 0;
#X connect 1 0 0 0;
#X connect 2 0 0 1;
#X connect 5 0 4 0;
#X connect 6 0 0 1;
