#N canvas 626 169 499 418 10;
#X obj 48 53 inlet~;
#X obj 118 53 inlet;
#X obj 118 140 sel 0;
#X obj 48 339 outlet~;
#X obj 118 198 line~;
#X obj 48 245 *~;
#X obj 205 143 clip 0 3;
#X msg 205 169 \$1 20;
#X obj 48 282 *~;
#X msg 118 169 1 20;
#X msg 159 169 0 20;
#X obj 117 265 line~;
#X obj 196 28 loadbang;
#X msg 196 51 mute 0 \, volume 1;
#X obj 118 111 route float;
#X text 196 110 //ignore bang message from GUI;
#X obj 243 304 switch~;
#X obj 243 210 sel 0;
#X obj 243 237 del 20;
#X msg 243 262 0;
#X msg 282 262 1;
#X obj 118 82 route mute volume fade;
#X obj 281 155 unpack f f;
#X obj 281 181 pack f f;
#X text 356 154 checks argument num;
#X obj 162 338 outlet volume;
#X obj 162 265 line;
#X connect 0 0 5 0;
#X connect 1 0 21 0;
#X connect 2 0 9 0;
#X connect 2 1 10 0;
#X connect 4 0 5 1;
#X connect 5 0 8 0;
#X connect 6 0 7 0;
#X connect 6 0 17 0;
#X connect 7 0 11 0;
#X connect 7 0 26 0;
#X connect 8 0 3 0;
#X connect 9 0 4 0;
#X connect 10 0 4 0;
#X connect 11 0 8 1;
#X connect 12 0 13 0;
#X connect 13 0 21 0;
#X connect 14 0 2 0;
#X connect 17 0 18 0;
#X connect 17 1 20 0;
#X connect 18 0 19 0;
#X connect 19 0 16 0;
#X connect 20 0 16 0;
#X connect 21 0 14 0;
#X connect 21 1 6 0;
#X connect 21 2 22 0;
#X connect 22 0 23 0;
#X connect 22 1 23 1;
#X connect 23 0 11 0;
#X connect 23 0 26 0;
#X connect 26 0 25 0;
