#N canvas 333 153 471 387 10;
#X obj 17 39 inlet~;
#X obj 17 179 *~;
#X obj 17 323 outlet~;
#X msg 32 100 \$1 20;
#X obj 32 128 line~;
#X obj 79 299 pvu~;
#X obj 151 157 cnv 15 38 90 empty ivol empty 20 12 0 14 -233017 -66577
0;
#X obj 156 162 vsl 10 79 0.018 1.8 1 0 \$0-vol-s \$0-vol-r empty 0
-9 0 10 -262130 -1 -1 0 1;
#X obj 175 162 vu 8 80 \$0-vu-r empty -1 -8 0 10 -66577 -1 0 0;
#X obj 174 144 tgl 10 0 \$0-mute-s \$0-mute-r empty 17 7 0 10 -261234
-1 -1 0 1;
#X text 162 140 M;
#X obj 107 41 inlet;
#X obj 254 85 symbol;
#X obj 254 123 select mute;
#X obj 107 68 route float;
#X obj 17 282 *~;
#X obj 61 265 line~;
#X msg 61 240 \$1 50;
#X msg 254 153 1;
#X obj 79 324 s \$0-vu-r;
#X obj 32 72 r \$0-vol-s;
#X obj 107 95 s \$0-vol-r;
#X obj 254 183 s \$0-mute-r;
#X obj 61 191 r \$0-mute-s;
#X obj 61 216 == 0;
#X obj 357 48 loadbang;
#X obj 357 95 s \$0-mute-r;
#X msg 357 71 0;
#X obj 154 324 outlet;
#X connect 0 0 1 0;
#X connect 1 0 15 0;
#X connect 3 0 4 0;
#X connect 4 0 1 1;
#X connect 5 0 19 0;
#X connect 5 0 28 0;
#X connect 11 0 14 0;
#X connect 12 0 13 0;
#X connect 13 0 18 0;
#X connect 14 0 21 0;
#X connect 14 1 12 0;
#X connect 15 0 2 0;
#X connect 15 0 5 0;
#X connect 16 0 15 1;
#X connect 17 0 16 0;
#X connect 18 0 22 0;
#X connect 20 0 3 0;
#X connect 23 0 24 0;
#X connect 24 0 17 0;
#X connect 25 0 27 0;
#X connect 27 0 26 0;
#X coords 0 -1 1 1 40 110 2 150 140;
