#N canvas 626 169 397 359 10;
#X obj 48 53 inlet~;
#X obj 118 53 inlet;
#X obj 118 82 route mute volume;
#X obj 118 140 sel 0;
#X obj 48 321 outlet~;
#X obj 118 198 line~;
#X obj 48 245 *~;
#X obj 205 143 clip 0 3;
#X msg 205 169 \$1 20;
#X obj 48 282 *~;
#X msg 118 169 1 20;
#X msg 159 169 0 20;
#X obj 117 235 line~;
#X obj 196 28 loadbang;
#X msg 196 51 mute 0 \, volume 1;
#X obj 118 111 route float;
#X text 196 110 //ignore bang message from GUI;
#X obj 243 304 switch~;
#X obj 243 210 sel 0;
#X obj 243 237 del 20;
#X msg 243 262 0;
#X msg 282 262 1;
#X connect 0 0 6 0;
#X connect 1 0 2 0;
#X connect 2 0 15 0;
#X connect 2 1 7 0;
#X connect 3 0 10 0;
#X connect 3 1 11 0;
#X connect 5 0 6 1;
#X connect 6 0 9 0;
#X connect 7 0 8 0;
#X connect 7 0 18 0;
#X connect 8 0 12 0;
#X connect 9 0 4 0;
#X connect 10 0 5 0;
#X connect 11 0 5 0;
#X connect 12 0 9 1;
#X connect 13 0 14 0;
#X connect 14 0 2 0;
#X connect 15 0 3 0;
#X connect 18 0 19 0;
#X connect 18 1 21 0;
#X connect 19 0 20 0;
#X connect 20 0 17 0;
#X connect 21 0 17 0;
