#N canvas 480 420 450 300 10;
#X obj 165 21 inlet;
#X obj 165 135 expr (60000/24)/$f1;
#X obj 165 87 clip 1 1e+09;
#X obj 138 171 metro;
#X msg 138 205 248;
#X msg 100 205 252;
#X msg 60 205 250;
#X obj 60 135 sel 1 0;
#X obj 60 239 midiout;
#X obj 110 87 t f f;
#X obj 110 21 inlet;
#X obj 319 21 loadbang;
#X obj 319 68 == 0;
#X obj 319 44 f \$1;
#X obj 319 92 sel 1;
#X msg 319 118 120;
#X obj 110 54 != 0;
#X connect 0 0 2 0;
#X connect 1 0 3 1;
#X connect 2 0 1 0;
#X connect 3 0 4 0;
#X connect 4 0 8 0;
#X connect 5 0 8 0;
#X connect 6 0 8 0;
#X connect 7 0 6 0;
#X connect 7 1 5 0;
#X connect 9 0 3 0;
#X connect 9 1 7 0;
#X connect 10 0 16 0;
#X connect 11 0 13 0;
#X connect 12 0 14 0;
#X connect 13 0 12 0;
#X connect 14 0 15 0;
#X connect 15 0 1 0;
#X connect 16 0 9 0;
