#N canvas 0 22 450 300 10;
#X obj 55 42 osc~ 440;
#X obj 55 218 env~;
#X floatatom 55 244 5 0 0 0 - - -;
#X obj 96 218 env~;
#X floatatom 96 244 5 0 0 0 - - -;
#X msg 118 108 mute \$1;
#X obj 118 84 tgl 15 0 empty empty empty 17 7 0 10 -262144 -1 -1 0
1;
#X msg 178 108 mute \$1;
#X obj 178 84 tgl 15 0 empty empty empty 17 7 0 10 -262144 -1 -1 0
1;
#X obj 254 93 hsl 128 15 0 3 0 0 empty empty empty -2 -8 0 10 -262144
-1 -1 0 1;
#X msg 251 118 volume \$1;
#X obj 255 43 hsl 128 15 0 3 0 0 empty empty empty -2 -8 0 10 -262144
-1 -1 0 1;
#X msg 252 68 volume \$1;
#X obj 138 218 env~;
#X floatatom 138 244 5 0 0 0 - - -;
#X obj 179 218 env~;
#X floatatom 179 244 5 0 0 0 - - -;
#X obj 55 171 sp-mix8~ ........................................;
#X obj 221 218 env~;
#X floatatom 221 244 5 0 0 0 - - -;
#X obj 262 218 env~;
#X floatatom 262 244 5 0 0 0 - - -;
#X obj 304 218 env~;
#X floatatom 304 244 5 0 0 0 - - -;
#X obj 346 218 env~;
#X floatatom 346 244 5 0 0 0 - - -;
#X connect 0 0 17 0;
#X connect 0 0 17 2;
#X connect 0 0 17 4;
#X connect 0 0 17 6;
#X connect 0 0 17 8;
#X connect 0 0 17 10;
#X connect 0 0 17 12;
#X connect 0 0 17 14;
#X connect 1 0 2 0;
#X connect 3 0 4 0;
#X connect 5 0 17 1;
#X connect 6 0 5 0;
#X connect 7 0 17 3;
#X connect 8 0 7 0;
#X connect 9 0 10 0;
#X connect 10 0 17 3;
#X connect 10 0 17 7;
#X connect 11 0 12 0;
#X connect 12 0 17 1;
#X connect 13 0 14 0;
#X connect 15 0 16 0;
#X connect 17 0 1 0;
#X connect 17 1 3 0;
#X connect 17 2 13 0;
#X connect 17 3 15 0;
#X connect 17 4 18 0;
#X connect 17 5 20 0;
#X connect 17 6 22 0;
#X connect 17 7 24 0;
#X connect 18 0 19 0;
#X connect 20 0 21 0;
#X connect 22 0 23 0;
#X connect 24 0 25 0;
