#N canvas 53 310 617 376 10;
#X obj 345 22 inlet;
#X obj 150 28 ctlin;
#X obj 35 182 spigot;
#X obj 35 154 spigot;
#X obj 89 137 == -1;
#X obj 145 137 == -1;
#X obj 172 111 r \$0-chn;
#X obj 116 91 r \$0-ctrl;
#N canvas 362 225 665 346 param 0;
#X obj 38 142 change;
#X obj 38 169 s \$0-ctrl;
#X obj 38 232 change;
#X obj 38 259 s \$0-chn;
#X obj 38 205 tof/param /midilearn/\$1/chn -1;
#X obj 38 115 tof/param /midilearn/\$1/ctrl -1;
#X obj 221 81 r \$0-ctrl-s;
#X obj 215 173 r \$0-chn-s;
#X obj 310 79 f;
#X obj 311 170 f;
#X obj 325 23 inlet ctrl;
#X obj 408 23 inlet chn;
#X obj 238 24 inlet save;
#X msg 238 46 bang;
#X obj 373 168 print [sp-midilearn] controller;
#X obj 373 249 print [sp-midilearn] channel no;
#X connect 0 0 1 0;
#X connect 2 0 3 0;
#X connect 4 0 2 0;
#X connect 5 0 0 0;
#X connect 6 0 5 1;
#X connect 7 0 4 1;
#X connect 8 0 14 0;
#X connect 8 0 5 1;
#X connect 8 0 1 0;
#X connect 9 0 4 1;
#X connect 9 0 15 0;
#X connect 9 0 3 0;
#X connect 10 0 8 1;
#X connect 11 0 9 1;
#X connect 12 0 13 0;
#X connect 13 0 8 0;
#X connect 13 0 9 0;
#X restore 294 328 pd param;
#X obj 35 290 outlet;
#X obj 102 290 outlet ctrl;
#X obj 199 289 outlet chn;
#X obj 294 204 t f f;
#X obj 294 235 -;
#X obj 294 266 != 0;
#X obj 294 297 sel 1;
#X obj 392 104 sp-param-file;
#N canvas 512 376 335 188 spigot 0;
#X obj 51 37 inlet;
#X obj 124 37 inlet;
#X obj 205 37 inlet;
#X obj 268 37 inlet;
#X obj 51 92 spigot;
#X obj 124 92 spigot;
#X obj 205 92 spigot;
#X obj 51 136 outlet;
#X obj 124 136 outlet;
#X obj 205 136 outlet;
#X connect 0 0 4 0;
#X connect 1 0 5 0;
#X connect 2 0 6 0;
#X connect 3 0 6 1;
#X connect 3 0 5 1;
#X connect 3 0 4 1;
#X connect 4 0 7 0;
#X connect 5 0 8 0;
#X connect 6 0 9 0;
#X restore 294 173 pd spigot;
#N canvas 564 325 218 130 spigot 0;
#X obj 33 23 inlet;
#X obj 93 24 inlet;
#X obj 155 24 inlet;
#X obj 33 55 spigot;
#X obj 93 55 spigot;
#X obj 33 86 outlet;
#X obj 93 85 outlet;
#X connect 0 0 3 0;
#X connect 1 0 4 0;
#X connect 2 0 4 1;
#X connect 2 0 3 1;
#X connect 3 0 5 0;
#X connect 4 0 6 0;
#X restore 113 243 pd spigot;
#X obj 89 203 expr if($f1==1 && $f2==1 \, 1 \, 0) \;;
#X obj 345 69 route learn save restore reset;
#X msg 490 103 -1;
#X obj 359 327 outlet done;
#X connect 0 0 20 0;
#X connect 1 0 3 0;
#X connect 1 0 17 0;
#X connect 1 1 4 0;
#X connect 1 1 17 1;
#X connect 1 1 18 0;
#X connect 1 2 5 0;
#X connect 1 2 17 2;
#X connect 1 2 18 1;
#X connect 2 0 9 0;
#X connect 3 0 2 0;
#X connect 4 0 3 1;
#X connect 4 0 19 0;
#X connect 5 0 2 1;
#X connect 5 0 19 1;
#X connect 6 0 5 1;
#X connect 7 0 4 1;
#X connect 12 0 13 1;
#X connect 12 1 13 0;
#X connect 13 0 14 0;
#X connect 14 0 15 0;
#X connect 15 0 8 0;
#X connect 15 0 22 0;
#X connect 17 0 12 0;
#X connect 17 1 8 1;
#X connect 17 2 8 2;
#X connect 18 0 10 0;
#X connect 18 1 11 0;
#X connect 19 0 18 2;
#X connect 20 0 17 3;
#X connect 20 1 16 0;
#X connect 20 2 16 1;
#X connect 20 3 21 0;
#X connect 21 0 5 1;
#X connect 21 0 4 1;
