#N canvas 186 209 527 402 10;
#X obj 319 156 metro;
#X obj 346 18 loadbang;
#X obj 346 41 f \$1;
#X obj 287 18 inlet;
#X obj 346 103 f;
#X obj 101 316 cnv 15 73 23 empty empty empty 20 12 0 14 -233017 -66577
0;
#X obj 108 320 tgl 15 0 \$0-tgl-s \$0-tgl-r empty 17 7 0 10 -204786
-1 -1 0 1;
#X floatatom 130 320 6 0 0 0 - #0-metro-r #0-metro-s;
#X obj 24 16 inlet;
#X obj 436 146 s \$0-metro-r;
#X msg 436 120 set \$1;
#X obj 410 18 r \$0-metro-s;
#X obj 346 79 clip 1 600;
#X obj 346 125 sp-bpm2ms;
#N canvas 625 218 271 248 click 1;
#X obj 53 214 outlet~;
#X obj 14 173 spigot~;
#X msg 53 138 1;
#X obj 14 67 mtof;
#X obj 14 17 loadbang;
#X msg 14 42 96;
#X obj 14 92 osc~ 3000;
#X obj 98 16 inlet;
#X msg 98 138 0;
#X obj 98 109 delay 40;
#X obj 65 53 r \$0-tone;
#X connect 1 1 0 0;
#X connect 2 0 1 1;
#X connect 3 0 6 0;
#X connect 4 0 5 0;
#X connect 5 0 3 0;
#X connect 6 0 1 0;
#X connect 7 0 9 0;
#X connect 7 0 2 0;
#X connect 8 0 1 1;
#X connect 9 0 8 0;
#X connect 10 0 6 0;
#X restore 26 293 pd click;
#X obj 26 326 outlet~;
#X obj 26 259 r \$0-tick;
#X obj 193 293 r \$0-tick;
#X obj 193 324 outlet;
#X obj 319 185 s \$0-tick;
#X obj 274 78 r \$0-tgl-s;
#X obj 24 162 s \$0-tgl-r;
#X obj 70 80 sel 0;
#X msg 70 107 0;
#X msg 106 107 1;
#X msg 140 107 0;
#X msg 181 107 1;
#X obj 24 48 route bang float;
#X obj 140 77 route stop start tone;
#X obj 222 126 clip 20 10000;
#X obj 222 156 s \$0-tone;
#X connect 0 0 19 0;
#X connect 1 0 2 0;
#X connect 2 0 12 0;
#X connect 3 0 12 0;
#X connect 4 0 10 0;
#X connect 4 0 13 0;
#X connect 8 0 27 0;
#X connect 10 0 9 0;
#X connect 11 0 12 0;
#X connect 12 0 4 0;
#X connect 13 0 0 1;
#X connect 14 0 15 0;
#X connect 16 0 14 0;
#X connect 17 0 18 0;
#X connect 20 0 0 0;
#X connect 22 0 23 0;
#X connect 22 1 24 0;
#X connect 23 0 21 0;
#X connect 24 0 21 0;
#X connect 25 0 21 0;
#X connect 26 0 21 0;
#X connect 27 0 21 0;
#X connect 27 1 22 0;
#X connect 27 2 28 0;
#X connect 28 0 25 0;
#X connect 28 1 26 0;
#X connect 28 2 29 0;
#X connect 29 0 30 0;
#X coords 0 -1 1 1 75 42 1 100 300;
