#N canvas 249 195 294 428 10;
#X obj 84 22 inlet;
#X obj 135 64 mod 1000;
#X obj 84 102 div 1000;
#X obj 84 133 t f f;
#X obj 130 165 mod 60;
#X obj 84 165 div 60;
#X obj 84 196 t f f;
#X obj 89 233 mod 60;
#X obj 46 233 div 60;
#X obj 84 47 t f f;
#X obj 66 380 outlet;
#X obj 66 344 symbol;
#X obj 66 306 sprintf %02d:%02d:%02d.%03d;
#X connect 0 0 9 0;
#X connect 1 0 12 3;
#X connect 2 0 3 0;
#X connect 3 0 5 0;
#X connect 3 1 4 0;
#X connect 4 0 12 2;
#X connect 5 0 6 0;
#X connect 6 0 8 0;
#X connect 6 1 7 0;
#X connect 7 0 12 1;
#X connect 8 0 12 0;
#X connect 9 0 2 0;
#X connect 9 1 1 0;
#X connect 11 0 10 0;
#X connect 12 0 11 0;
