#N canvas 219 88 728 422 10;
#X obj 46 14 unpackOSC;
#X obj 46 43 pipelist;
#X obj 294 51 pack f f f f;
#X symbolatom 152 124 16 0 0 0 Source: #0-src-r #0-src-s;
#X obj 46 -16 udpreceive \$1;
#X obj 142 1 route from;
#X obj 294 18 unpack 0 0 0 0;
#X obj 294 80 makesymbol %0s.%03s.%s.%s;
#X obj 107 148 bng 15 250 50 0 \$0-btn-init-s empty Init 17 7 0 10
-261682 -1 -1;
#X obj 158 148 bng 15 250 50 0 \$0-btn-play-s empty Play 17 7 0 10
-204786 -1 -1;
#X obj 46 347 outlet;
#X obj 209 148 bng 15 250 50 0 \$0-btn-stop-s empty Stop 17 7 0 10
-261234 -1 -1;
#X obj 108 171 tgl 15 0 \$0-tgl-dsp-s empty empty 17 7 0 10 -258699
-1 -262144 0 1;
#X obj 255 301 sel 1;
#X msg 255 340 color 16;
#X msg 320 340 color 13;
#X obj 158 174 hsl 90 10 0 100 0 0 \$0-sld-volume-s empty empty -2
-8 0 10 -262144 -1 -1 0 1;
#X obj 46 264 routeOSC /btn_init /btn_play /btn_stop /dsp /volume;
#X obj 324 300 str to_float;
#X obj 322 152 r pd;
#X obj 322 180 route dsp;
#X msg 322 209 set \$1;
#X obj 294 110 s \$0-src-r;
#X obj 538 21 loadbang;
#X obj 538 78 s \$0-src-r;
#X msg 538 48 symbol 0.0.0.0;
#X connect 0 0 1 0;
#X connect 0 1 1 1;
#X connect 1 0 10 0;
#X connect 1 0 17 0;
#X connect 2 0 7 0;
#X connect 4 0 0 0;
#X connect 4 1 5 0;
#X connect 5 0 6 0;
#X connect 6 0 2 0;
#X connect 6 1 2 1;
#X connect 6 2 2 2;
#X connect 6 3 2 3;
#X connect 7 0 22 0;
#X connect 13 0 14 0;
#X connect 13 1 15 0;
#X connect 14 0 12 0;
#X connect 15 0 12 0;
#X connect 17 0 8 0;
#X connect 17 1 9 0;
#X connect 17 2 11 0;
#X connect 17 3 12 0;
#X connect 17 3 13 0;
#X connect 17 4 18 0;
#X connect 18 0 16 0;
#X connect 19 0 20 0;
#X connect 20 0 21 0;
#X connect 20 0 13 0;
#X connect 21 0 12 0;
#X connect 23 0 25 0;
#X connect 25 0 24 0;
#X coords 0 -1 1 1 160 95 1 100 100;
