#N canvas 333 306 624 342 10;
#X obj 165 67 inlet ctrl;
#X obj 165 94 route phase shape;
#X obj 214 122 sel 0 1 2 3;
#X obj 57 268 outlet~;
#X obj 244 27 loadbang;
#X msg 244 53 shape 0;
#N canvas 633 217 406 223 tabosc 0;
#X obj 28 150 tabosc4~;
#X obj 28 24 inlet~ freq;
#X obj 128 24 inlet table;
#X msg 128 79 set \$1;
#X obj 215 24 inlet phase;
#X obj 28 186 outlet~;
#X obj 128 50 symbol;
#X connect 0 0 5 0;
#X connect 1 0 0 0;
#X connect 2 0 6 0;
#X connect 3 0 0 0;
#X connect 4 0 0 1;
#X connect 6 0 3 0;
#X restore 57 222 pd tabosc;
#X obj 57 68 inlet~ freq;
#X obj 214 151 f \$0;
#X obj 274 151 f \$0;
#X obj 354 151 f \$0;
#X obj 414 151 f \$0;
#N canvas 207 165 711 446 tabinit 1;
#X obj 34 17 loadbang;
#X msg 97 17 bang;
#X obj 34 48 f 8195;
#X msg 34 76 sinesum \$1 1;
#X obj 34 104 s t\$0-sin;
#X obj 134 124 s t\$0-square;
#X obj 214 278 s t\$0-saw;
#X msg 134 76 sinesum \$1 1 0 0.333333 0 0.2 0 0.142857 0 0.111111
0 0.0909091 0 0.0769231 0 0.0666667 \, normalize 1;
#X msg 214 226 sinesum \$1 1 0.5 0.333333 0.25 0.2 0.166667 0.142857
0.125 0.111111 0.1 0.0909091 0.0833333 0.0769231 0.0714286 0.0666667
0.0625 0.0588235 \, normalize 1;
#X msg 134 146 sinesum \$1 1 0 -0.111111 0 0.04 0 -0.0204082 0 0.0123457
0 -0.00826446 0 0.00591716 0 -0.00444444 \, normalize 1;
#X obj 134 227 s t\$0-tri;
#X connect 0 0 2 0;
#X connect 1 0 2 0;
#X connect 2 0 3 0;
#X connect 2 0 7 0;
#X connect 2 0 9 0;
#X connect 2 0 8 0;
#X connect 3 0 4 0;
#X connect 7 0 5 0;
#X connect 8 0 6 0;
#X connect 9 0 10 0;
#X restore 518 23 pd tabinit;
#X msg 214 174 t\$1-sin;
#X msg 274 174 t\$1-square;
#X msg 354 174 t\$1-tri;
#X obj 353 25 table t\$0-sin 8195;
#X obj 353 55 table t\$0-square 8195;
#X obj 353 85 table t\$0-tri 8195;
#X obj 353 115 table t\$0-saw 8195;
#X msg 414 174 t\$1-saw;
#X connect 0 0 1 0;
#X connect 1 0 6 2;
#X connect 1 1 2 0;
#X connect 2 0 8 0;
#X connect 2 1 9 0;
#X connect 2 2 10 0;
#X connect 2 3 11 0;
#X connect 4 0 5 0;
#X connect 5 0 1 0;
#X connect 6 0 3 0;
#X connect 7 0 6 0;
#X connect 8 0 13 0;
#X connect 9 0 14 0;
#X connect 10 0 15 0;
#X connect 11 0 20 0;
#X connect 13 0 6 1;
#X connect 14 0 6 1;
#X connect 15 0 6 1;
#X connect 20 0 6 1;
