#N canvas 0 22 408 444 10;
#X obj 46 93 delwrite~ \$0-delay 2000;
#N canvas 741 374 236 296 triangle 0;
#X obj 24 57 phasor~ 1;
#X obj 24 160 abs~;
#X obj 24 137 *~ 2;
#X obj 24 113 -~ 0.5;
#X obj 24 243 outlet~;
#X obj 166 132 wrap~;
#X obj 166 204 abs~;
#X obj 166 181 *~ 2;
#X obj 166 157 -~ 0.5;
#X obj 88 243 outlet~;
#X obj 166 244 outlet~;
#X obj 88 136 wrap~;
#X obj 88 208 abs~;
#X obj 88 185 *~ 2;
#X obj 88 161 -~ 0.5;
#X obj 88 106 -~ 0.3;
#X obj 166 103 -~ 0.7;
#X obj 24 27 inlet;
#X connect 0 0 3 0;
#X connect 0 0 15 0;
#X connect 0 0 16 0;
#X connect 1 0 4 0;
#X connect 2 0 1 0;
#X connect 3 0 2 0;
#X connect 5 0 8 0;
#X connect 6 0 10 0;
#X connect 7 0 6 0;
#X connect 8 0 7 0;
#X connect 11 0 14 0;
#X connect 12 0 9 0;
#X connect 13 0 12 0;
#X connect 14 0 13 0;
#X connect 15 0 11 0;
#X connect 16 0 5 0;
#X connect 17 0 0 0;
#X restore 145 175 pd triangle;
#N canvas 0 22 187 273 window 0;
#X obj 23 43 inlet~;
#X obj 23 178 +~ 0.5;
#X obj 23 243 outlet~;
#X obj 23 85 cos~;
#X obj 23 138 *~ -0.5;
#X obj 23 208 sqrt~;
#X connect 0 0 3 0;
#X connect 1 0 5 0;
#X connect 3 0 4 0;
#X connect 4 0 1 0;
#X connect 5 0 2 0;
#X restore 294 292 pd window;
#N canvas 0 22 187 273 window 0;
#X obj 23 43 inlet~;
#X obj 23 178 +~ 0.5;
#X obj 22 245 outlet~;
#X obj 23 85 cos~;
#X obj 23 138 *~ -0.5;
#X obj 25 210 sqrt~;
#X connect 0 0 3 0;
#X connect 1 0 5 0;
#X connect 3 0 4 0;
#X connect 4 0 1 0;
#X connect 5 0 2 0;
#X restore 60 292 pd window;
#X obj 45 322 *~;
#X obj 279 322 *~;
#X obj 45 356 +~;
#N canvas 0 22 187 273 window 0;
#X obj 23 43 inlet~;
#X obj 22 187 +~ 0.5;
#X obj 23 239 outlet~;
#X obj 23 85 cos~;
#X obj 23 138 *~ -0.5;
#X obj 22 212 sqrt~;
#X connect 0 0 3 0;
#X connect 1 0 5 0;
#X connect 3 0 4 0;
#X connect 4 0 1 0;
#X connect 5 0 2 0;
#X restore 176 292 pd window;
#X obj 161 322 *~;
#N canvas 0 22 160 266 delay 0;
#X obj 24 20 inlet;
#X obj 24 197 line~;
#X msg 24 171 \$1 100;
#X obj 24 120 /;
#X obj 24 65 t b f;
#X msg 24 95 250;
#X obj 24 226 outlet~;
#X floatatom 38 143 5 0 0 0 - - -;
#X connect 0 0 4 0;
#X connect 1 0 6 0;
#X connect 2 0 1 0;
#X connect 3 0 2 0;
#X connect 3 0 7 0;
#X connect 4 0 5 0;
#X connect 4 1 3 1;
#X connect 5 0 3 0;
#X restore 45 175 pd delay;
#X obj 45 231 *~;
#X obj 161 231 *~;
#X obj 279 231 *~;
#X obj 45 260 vd~ \$0-delay 260;
#X obj 161 260 vd~ \$0-delay 260;
#X obj 279 260 vd~ \$0-delay 260;
#X obj 45 396 outlet~;
#X obj 46 49 inlet~;
#X obj 250 51 inlet;
#X obj 250 91 clip 1 2;
#X connect 1 0 3 0;
#X connect 1 0 10 1;
#X connect 1 1 7 0;
#X connect 1 1 11 1;
#X connect 1 2 12 1;
#X connect 1 2 2 0;
#X connect 2 0 5 1;
#X connect 3 0 4 1;
#X connect 4 0 6 0;
#X connect 5 0 6 1;
#X connect 6 0 16 0;
#X connect 7 0 8 1;
#X connect 8 0 6 1;
#X connect 9 0 10 0;
#X connect 9 0 11 0;
#X connect 9 0 12 0;
#X connect 10 0 13 0;
#X connect 11 0 14 0;
#X connect 12 0 15 0;
#X connect 13 0 4 0;
#X connect 14 0 8 0;
#X connect 15 0 5 0;
#X connect 17 0 0 0;
#X connect 18 0 19 0;
#X connect 19 0 1 0;
#X connect 19 0 9 0;
