#N canvas 208 213 450 300 10;
#X obj 106 112 sp-osc~ 440;
#X obj 106 155 +dsp;
#X msg 106 73 540;
#X msg 169 74 shape \$1;
#X obj 169 42 hradio 15 1 0 4 empty empty empty 0 -8 0 10 -262144 -1
-1 3;
#X obj 106 20 loadbang;
#X connect 0 0 1 0;
#X connect 0 0 1 1;
#X connect 2 0 0 0;
#X connect 3 0 0 1;
#X connect 4 0 3 0;
#X connect 5 0 2 0;
