#N canvas 171 202 450 300 10;
#X obj 66 77 osc~ 440;
#X obj 136 77 osc~ 660;
#X obj 66 127 sp-pass~;
#X obj 217 78 tgl 15 0 empty empty empty 17 7 0 10 -262144 -1 -1 0
1;
#X obj 66 167 +dsp;
#X connect 0 0 2 0;
#X connect 1 0 2 1;
#X connect 2 0 4 0;
#X connect 3 0 2 2;
