#N canvas 158 150 388 184 10;
#X obj 52 37 inlet;
#X obj 52 149 tof/param file;
#X obj 222 37 inlet;
#X obj 222 67 route bang float list;
#X obj 52 67 route bang float list;
#X obj 304 95 list trim;
#X obj 134 96 list trim;
#X connect 0 0 4 0;
#X connect 2 0 3 0;
#X connect 3 0 1 1;
#X connect 3 1 1 1;
#X connect 3 2 5 0;
#X connect 4 0 1 0;
#X connect 4 1 1 0;
#X connect 4 2 6 0;
#X connect 5 0 1 1;
#X connect 6 0 1 0;
