#N canvas 101 182 450 300 10;
#X obj 79 76 adc~;
#X msg 166 76 reset;
#X floatatom 79 182 5 0 0 0 - - -;
#X floatatom 166 184 5 0 0 0 - - -;
#X msg 223 76 int;
#X msg 312 76 unique \$1;
#X obj 312 56 tgl 15 0 empty empty empty 17 7 0 10 -262144 -1 -1 0
1;
#X msg 261 76 real;
#X obj 166 212 bng 15 250 50 0 empty empty empty 17 7 0 10 -262144
-1 -1;
#X obj 79 123 sp-pitchcounter~;
#X connect 0 0 9 0;
#X connect 1 0 9 1;
#X connect 3 0 8 0;
#X connect 4 0 9 1;
#X connect 5 0 9 1;
#X connect 6 0 5 0;
#X connect 7 0 9 1;
#X connect 9 0 2 0;
#X connect 9 1 3 0;
