#N canvas 347 211 648 129 10;
#X obj 34 25 inlet sync;
#X obj 34 83 outlet pattern1;
#X obj 145 25 inlet pattern1;
#X obj 164 83 outlet pattern2;
#X obj 275 25 inlet pattern2;
#X obj 294 83 outlet pattern3;
#X obj 405 25 inlet pattern3;
#X obj 535 25 inlet pattern4;
#X obj 424 83 outlet pattern4;
#X obj 34 54 sp-bangsync-loop \$1;
#X obj 164 54 sp-bangsync-loop \$2;
#X obj 294 54 sp-bangsync-loop \$3;
#X obj 424 54 sp-bangsync-loop \$4;
#X connect 0 0 9 0;
#X connect 0 0 10 0;
#X connect 0 0 11 0;
#X connect 0 0 12 0;
#X connect 2 0 9 1;
#X connect 4 0 10 1;
#X connect 6 0 11 1;
#X connect 7 0 12 1;
#X connect 9 0 1 0;
#X connect 10 0 3 0;
#X connect 11 0 5 0;
#X connect 12 0 8 0;
