#N canvas 140 160 493 464 10;
#X obj 66 47 tgl 15 0 empty empty empty 17 7 0 10 -262144 -1 -1 1 1
;
#X obj 66 139 sp-beep~ 440;
#X obj 66 224 sp-sum4~;
#X obj 66 281 +dsp;
#X obj 140 179 sp-beep~ 660;
#X obj 177 199 sp-beep~ 770;
#X obj 103 159 sp-beep~ 550;
#X floatatom 112 41 5 0 0 0 - - -;
#X obj 66 118 sp-pattern4 11 5 7 4;
#X obj 66 81 sp-timebase 60 5;
#X msg 159 41 4;
#X obj 162 224 sp-sum4~;
#X obj 286 211 sp-beep~ 200;
#X obj 222 118 sp-bangsync-loop 2;
#X obj 355 176 nbx 5 14 -1e+37 1e+37 0 0 empty empty empty 0 -8 0 10
-262144 -1 -1 0 256;
#X connect 0 0 9 0;
#X connect 1 0 2 0;
#X connect 2 0 3 0;
#X connect 4 0 11 0;
#X connect 5 0 11 1;
#X connect 6 0 2 1;
#X connect 7 0 9 1;
#X connect 8 0 1 0;
#X connect 8 1 6 0;
#X connect 8 2 4 0;
#X connect 8 3 5 0;
#X connect 9 0 8 0;
#X connect 9 0 13 0;
#X connect 10 0 9 2;
#X connect 11 0 3 1;
#X connect 12 0 11 3;
#X connect 13 0 12 0;
#X connect 14 0 12 1;
