#N canvas 158 150 797 363 10;
#X obj 42 127 inlet;
#X obj 42 239 tof/param file;
#X obj 212 127 inlet;
#X obj 212 157 route bang float list;
#X obj 42 157 route bang float list;
#X obj 294 185 list trim;
#X obj 124 186 list trim;
#X obj 139 27 r sp-param;
#X obj 139 54 route save restore;
#X obj 484 187 print [sp-param-file] unknown command;
#X connect 0 0 4 0;
#X connect 2 0 3 0;
#X connect 3 0 1 1;
#X connect 3 1 1 1;
#X connect 3 2 5 0;
#X connect 4 0 1 0;
#X connect 4 1 1 0;
#X connect 4 2 6 0;
#X connect 5 0 1 1;
#X connect 6 0 1 0;
#X connect 7 0 8 0;
#X connect 8 0 4 0;
#X connect 8 1 3 0;
#X connect 8 2 9 0;
