#N canvas 653 246 335 293 10;
#X obj 43 40 inlet~;
#X obj 100 40 inlet~;
#X obj 43 237 outlet~;
#X obj 191 40 inlet;
#X obj 43 197 *~;
#X obj 100 197 *~;
#X obj 58 171 line~;
#X obj 115 171 line~;
#X msg 58 147 \$1 5;
#X msg 115 147 \$1 5;
#X obj 58 114 unpack f f;
#X obj 191 70 sel 0;
#X msg 191 97 1 0;
#X msg 230 97 0 1;
#X obj 253 40 loadbang;
#X connect 0 0 4 0;
#X connect 1 0 5 0;
#X connect 3 0 11 0;
#X connect 4 0 2 0;
#X connect 5 0 2 0;
#X connect 6 0 4 1;
#X connect 7 0 5 1;
#X connect 8 0 6 0;
#X connect 9 0 7 0;
#X connect 10 0 8 0;
#X connect 10 1 9 0;
#X connect 11 0 12 0;
#X connect 11 1 13 0;
#X connect 12 0 10 0;
#X connect 13 0 10 0;
#X connect 14 0 12 0;
