#N canvas 519 159 582 451 10;
#X obj 159 156 sigmund~ notes;
#X obj 186 365 + 1;
#X obj 159 116 inlet~;
#X obj 327 56 inlet;
#X obj 159 403 outlet;
#X obj 159 365 f 0;
#X obj 210 403 outlet;
#X obj 178 265 change;
#X obj 159 293 mux 1 2;
#X obj 295 278 tgl 15 0 empty empty empty 17 7 0 10 -262144 -1 -1 0
1;
#X msg 295 254 \$1;
#X floatatom 110 252 5 0 0 0 - - -;
#X msg 159 322 bang;
#X obj 327 86 route reset int real unique;
#X obj 295 229 r \$0-unique;
#X obj 446 114 s \$0-unique;
#X obj 327 114 s \$0-reset;
#X obj 90 322 r \$0-reset;
#X msg 90 348 0;
#X obj 178 185 sfruit/round;
#X obj 198 213 r \$0-type;
#X obj 159 235 mux . .;
#X obj 406 166 s \$0-type;
#X msg 406 140 0;
#X msg 366 140 1;
#X obj 61 58 loadbang;
#X obj 210 116 r \$0-pass;
#X obj 486 143 s \$0-pass;
#X msg 61 86 maxfreq 8000 \, stabletime 150;
#X connect 0 0 19 0;
#X connect 0 0 21 0;
#X connect 1 0 5 1;
#X connect 2 0 0 0;
#X connect 3 0 13 0;
#X connect 5 0 1 0;
#X connect 5 0 4 0;
#X connect 7 0 8 1;
#X connect 8 0 12 0;
#X connect 8 0 6 0;
#X connect 9 0 8 2;
#X connect 10 0 9 0;
#X connect 12 0 5 0;
#X connect 13 0 16 0;
#X connect 13 1 24 0;
#X connect 13 2 23 0;
#X connect 13 3 15 0;
#X connect 13 4 27 0;
#X connect 14 0 10 0;
#X connect 17 0 18 0;
#X connect 18 0 5 0;
#X connect 19 0 21 1;
#X connect 20 0 21 2;
#X connect 21 0 7 0;
#X connect 21 0 8 0;
#X connect 21 0 11 0;
#X connect 23 0 22 0;
#X connect 24 0 22 0;
#X connect 25 0 28 0;
#X connect 26 0 0 0;
#X connect 28 0 0 0;
