#N canvas 196 129 678 413 10;
#X obj 10 178 outlet;
#X obj 10 10 cnv 10 31 31 \$0-cnv-s empty empty 20 12 0 14 -262144
-66577 0;
#X obj 246 9 inlet;
#X obj 246 108 sel 0 1;
#X obj 372 26 loadbang;
#X msg 372 52 0;
#X obj 246 69 f;
#X obj 64 9 r \$0-img;
#X obj 166 312 s \$0-img;
#X obj 95 111 demux . .;
#X obj 104 152 del 100;
#X obj 173 40 tgl 15 0 empty empty empty 17 7 0 10 -262144 -1 -1 0
1;
#X obj 296 155 del 100;
#X obj 246 38 route float bang;
#X obj 10 10 sp-generic-button icons/record-icon.gif;
#X msg 95 208 icons/record-icon-solid.gif;
#X msg 292 208 icons/record-icon.gif;
#X connect 2 0 13 0;
#X connect 3 0 16 0;
#X connect 3 1 15 0;
#X connect 4 0 5 0;
#X connect 5 0 6 0;
#X connect 6 0 3 0;
#X connect 6 0 9 1;
#X connect 7 0 14 0;
#X connect 9 0 10 0;
#X connect 9 0 15 0;
#X connect 9 1 16 0;
#X connect 9 1 12 0;
#X connect 10 0 16 0;
#X connect 11 0 6 0;
#X connect 12 0 15 0;
#X connect 13 0 6 0;
#X connect 13 1 9 0;
#X connect 14 0 0 0;
#X connect 14 0 9 0;
#X connect 15 0 8 0;
#X connect 16 0 8 0;
#X coords 0 -1 1 1 31 31 2 10 10;
