#N canvas 407 226 450 300 10;
#X obj 69 66 bng 15 250 50 0 empty empty empty 17 7 0 10 -262144 -1
-1;
#X floatatom 69 158 5 0 0 0 - - -;
#X obj 69 101 sp-randrange 97 100;
#X floatatom 124 51 5 0 0 0 - - -;
#X floatatom 180 51 5 0 0 0 - - -;
#X connect 0 0 2 0;
#X connect 2 0 1 0;
#X connect 3 0 2 1;
#X connect 4 0 2 2;
