#N canvas 242 441 450 300 10;
#X obj 76 156 list prepend color;
#X obj 79 208 hsl 128 15 0 127 0 0 empty empty empty -2 -8 0 10 -64
-1 -262144 0 1;
#X floatatom 75 54 5 0 0 0 - - -;
#X floatatom 122 53 5 0 0 0 - - -;
#X floatatom 174 52 5 0 0 0 - - -;
#X obj 76 181 list trim;
#X obj 37 56 bng 15 250 50 0 empty empty empty 17 7 0 10 -262144 -1
-1;
#X obj 76 118 sp-rgb 255 0 0;
#X connect 0 0 5 0;
#X connect 2 0 7 0;
#X connect 3 0 7 1;
#X connect 4 0 7 2;
#X connect 5 0 1 0;
#X connect 6 0 7 0;
#X connect 7 0 0 0;
