#N canvas 67 341 405 264 10;
#X obj 39 39 inlet bang;
#X obj 39 93 random 1000;
#X obj 39 122 / 1000;
#X obj 39 151 *;
#X obj 39 209 outlet;
#X obj 145 39 inlet low;
#X obj 232 39 inlet high;
#X obj 148 152 -;
#X obj 163 115 t f b;
#X obj 145 67 f \$1;
#X obj 232 67 f \$2;
#X obj 39 180 +;
#X obj 325 39 loadbang;
#X connect 0 0 1 0;
#X connect 1 0 2 0;
#X connect 2 0 3 0;
#X connect 3 0 11 0;
#X connect 5 0 9 0;
#X connect 6 0 10 0;
#X connect 7 0 3 1;
#X connect 8 0 7 1;
#X connect 8 1 7 0;
#X connect 9 0 8 0;
#X connect 9 0 11 1;
#X connect 10 0 7 0;
#X connect 11 0 4 0;
#X connect 12 0 9 0;
#X connect 12 0 10 0;
