#N canvas 76 36 548 339 10;
#X obj 113 56 inlet;
#X obj 185 56 inlet;
#X obj 256 56 inlet;
#X obj 113 302 outlet;
#X obj 113 116 int \$1;
#X obj 185 116 int \$2;
#X obj 256 116 int \$3;
#X obj 113 170 * -1;
#X obj 185 170 * -1;
#X obj 256 169 * -1;
#X obj 113 193 * 65536;
#X obj 185 194 * 256;
#X obj 185 220 t b f;
#X obj 256 221 t b f;
#X obj 113 245 +;
#X obj 113 270 +;
#X obj 320 49 loadbang;
#X obj 320 76 t b b b;
#X obj 256 142 clip 1 255;
#X obj 185 142 clip 1 255;
#X obj 113 142 clip 1 255;
#X connect 0 0 4 0;
#X connect 1 0 5 0;
#X connect 2 0 6 0;
#X connect 4 0 20 0;
#X connect 5 0 19 0;
#X connect 6 0 18 0;
#X connect 7 0 10 0;
#X connect 8 0 11 0;
#X connect 9 0 13 0;
#X connect 10 0 14 0;
#X connect 11 0 12 0;
#X connect 12 0 14 0;
#X connect 12 1 14 1;
#X connect 13 0 14 0;
#X connect 13 1 15 1;
#X connect 14 0 15 0;
#X connect 15 0 3 0;
#X connect 16 0 17 0;
#X connect 17 0 4 0;
#X connect 17 1 5 0;
#X connect 17 2 6 0;
#X connect 18 0 9 0;
#X connect 19 0 8 0;
#X connect 20 0 7 0;
