#N canvas 0 22 519 271 10;
#X obj 44 222 outlet~;
#X obj 44 43 inlet~;
#X obj 175 43 inlet~;
#X obj 145 222 outlet~;
#X obj 44 99 +~;
#X obj 160 99 -~;
#X obj 44 183 -~;
#X obj 145 183 +~;
#X obj 160 138 *~;
#X obj 44 138 *~ 0.5;
#X obj 254 118 line~;
#X msg 254 95 \$1 100;
#X obj 254 50 clip 0 1;
#X obj 254 27 inlet;
#X obj 358 29 loadbang;
#X msg 358 55 1;
#X obj 254 72 * 0.5;
#X connect 1 0 4 0;
#X connect 1 0 5 0;
#X connect 2 0 4 1;
#X connect 2 0 5 1;
#X connect 4 0 9 0;
#X connect 5 0 8 0;
#X connect 6 0 3 0;
#X connect 7 0 0 0;
#X connect 8 0 6 1;
#X connect 8 0 7 1;
#X connect 9 0 6 0;
#X connect 9 0 7 0;
#X connect 10 0 8 1;
#X connect 11 0 10 0;
#X connect 12 0 16 0;
#X connect 13 0 12 0;
#X connect 14 0 15 0;
#X connect 15 0 16 0;
#X connect 16 0 11 0;
