#N canvas 626 169 485 362 10;
#X obj 38 53 inlet~;
#X obj 188 53 inlet;
#X obj 188 82 route mute volume;
#X obj 188 140 sel 0;
#X obj 38 321 outlet~;
#X obj 188 198 line~;
#X obj 38 245 *~;
#X obj 275 143 clip 0 3;
#X msg 275 169 \$1 20;
#X obj 38 282 *~;
#X msg 188 169 1 20;
#X msg 229 169 0 20;
#X obj 187 235 line~;
#X obj 266 28 loadbang;
#X msg 266 51 mute 0 \, volume 1;
#X obj 188 111 route float;
#X text 266 110 //ignore bang message from GUI;
#X obj 108 53 inlet~;
#X obj 108 321 outlet~;
#X obj 108 245 *~;
#X obj 108 282 *~;
#X connect 0 0 6 0;
#X connect 1 0 2 0;
#X connect 2 0 15 0;
#X connect 2 1 7 0;
#X connect 3 0 10 0;
#X connect 3 1 11 0;
#X connect 5 0 6 1;
#X connect 5 0 19 1;
#X connect 6 0 9 0;
#X connect 7 0 8 0;
#X connect 8 0 12 0;
#X connect 9 0 4 0;
#X connect 10 0 5 0;
#X connect 11 0 5 0;
#X connect 12 0 9 1;
#X connect 12 0 20 1;
#X connect 13 0 14 0;
#X connect 14 0 2 0;
#X connect 15 0 3 0;
#X connect 17 0 19 0;
#X connect 19 0 20 0;
#X connect 20 0 18 0;
