#N canvas 61 157 460 234 10;
#X obj 84 36 inlet;
#X obj 104 114 f 0;
#X obj 159 37 inlet;
#X obj 159 65 t b b;
#X obj 104 186 outlet;
#X msg 159 97 1e+09;
#X obj 104 151 moses 1e+09;
#X connect 0 0 1 1;
#X connect 1 0 6 0;
#X connect 2 0 3 0;
#X connect 3 0 5 0;
#X connect 3 1 1 0;
#X connect 5 0 1 1;
#X connect 6 0 4 0;
