#N canvas 277 214 266 191 10;
#X obj 39 38 inlet;
#X obj 39 111 sp-ms2time;
#X obj 39 146 outlet;
#X obj 174 52 samplerate~;
#X obj 174 29 loadbang;
#X floatatom 121 117 5 0 0 0 - - -;
#X obj 39 77 expr ($f1 / $f2) * 1000;
#X connect 0 0 6 0;
#X connect 1 0 2 0;
#X connect 3 0 6 1;
#X connect 4 0 3 0;
#X connect 6 0 1 0;
#X connect 6 0 5 0;
