#N canvas 517 127 450 300 10;
#X obj 82 184 +dsp;
#X obj 82 135 sp-square~ 60;
#X floatatom 82 112 5 0 0 0 - - -;
#X obj 160 91 hsl 128 15 0 1 0 0 empty empty empty -2 -8 0 10 -262144
-1 -1 7900 1;
#X msg 157 55 0.5;
#X connect 1 0 0 0;
#X connect 1 0 0 1;
#X connect 2 0 1 0;
#X connect 3 0 1 1;
#X connect 4 0 3 0;
