#N canvas 636 22 500 416 10;
#X msg 95 144 привет красавица!;
#X obj 95 324 sp-say;
#X obj 198 23 hradio 15 1 0 8 empty empty empty 0 -8 0 10 -262144 -1
-1 0;
#X obj 225 79 sel 0 1 2 3 4 5 6 7;
#X obj 198 51 t b f;
#X msg 38 114 sample message;
#X msg 225 117 voice Albert;
#X msg 164 109 voice;
#X msg 238 145 voice Alex;
#X msg 252 173 voice Bahh;
#X msg 266 203 voice Milena;
#X msg 280 230 voice Vicki;
#X msg 294 255 voice Ralph;
#X msg 308 117 voice Princess;
#X msg 322 145 voice Whisper;
#X connect 0 0 1 0;
#X connect 2 0 4 0;
#X connect 3 0 6 0;
#X connect 3 1 8 0;
#X connect 3 2 9 0;
#X connect 3 3 10 0;
#X connect 3 4 11 0;
#X connect 3 5 12 0;
#X connect 3 6 13 0;
#X connect 3 7 14 0;
#X connect 4 0 5 0;
#X connect 4 1 3 0;
#X connect 5 0 1 0;
#X connect 6 0 1 1;
#X connect 7 0 1 1;
#X connect 8 0 1 1;
#X connect 9 0 1 1;
#X connect 10 0 1 1;
#X connect 11 0 1 1;
#X connect 12 0 1 1;
#X connect 13 0 1 1;
#X connect 14 0 1 1;
