#N canvas 202 264 294 250 10;
#X obj 44 118 expr~ $v1 > $v2;
#X obj 44 205 outlet~;
#X obj 44 145 *~ 2;
#X obj 44 175 -~ 1;
#X obj 44 44 inlet;
#X obj 44 79 phasor~ \$1;
#X obj 131 78 sig~;
#X obj 131 45 clip 0 1;
#X obj 131 16 inlet;
#X obj 208 17 loadbang;
#X msg 208 43 0.5;
#X connect 0 0 2 0;
#X connect 2 0 3 0;
#X connect 3 0 1 0;
#X connect 4 0 5 0;
#X connect 5 0 0 0;
#X connect 6 0 0 1;
#X connect 7 0 6 0;
#X connect 8 0 7 0;
#X connect 9 0 10 0;
#X connect 10 0 6 0;
