#N canvas 319 73 613 632 10;
#X obj 34 502 system;
#X obj 290 22 inlet;
#X obj 34 24 inlet;
#X obj 34 139 l2s;
#X msg 179 71 bang;
#X msg 290 263 -v \$1;
#X obj 290 207 str;
#X msg 290 100 set \$1;
#X obj 290 234 str to_symbol;
#X obj 34 54 t a b;
#X obj 290 46 route voice;
#X obj 290 74 symbol;
#X obj 205 100 list length;
#X obj 34 242 sprintf say "%s";
#X obj 34 332 list append;
#X obj 95 502 print;
#X msg 97 290 symbol;
#X obj 190 149 sel 0;
#X obj 190 125 f;
#X msg 217 176 bang;
#X obj 34 360 list append &;
#X obj 34 389 list trim;
#X connect 1 0 10 0;
#X connect 2 0 9 0;
#X connect 3 0 13 0;
#X connect 4 0 18 0;
#X connect 5 0 14 1;
#X connect 6 0 8 0;
#X connect 7 0 6 0;
#X connect 8 0 5 0;
#X connect 9 0 3 0;
#X connect 9 1 4 0;
#X connect 10 0 11 0;
#X connect 10 0 12 0;
#X connect 11 0 7 0;
#X connect 12 0 18 1;
#X connect 13 0 14 0;
#X connect 14 0 20 0;
#X connect 16 0 14 1;
#X connect 17 0 16 0;
#X connect 17 1 19 0;
#X connect 18 0 17 0;
#X connect 19 0 6 0;
#X connect 20 0 21 0;
#X connect 21 0 0 0;
#X connect 21 0 15 0;
