#N canvas 122 45 850 623 10;
#X obj 11 27 cnv 15 198 120 empty \$0-cnv-r empty 20 12 0 14 -99865
-66577 0;
#X obj 19 52 vu 8 80 \$0-rlevel-r IN 5 -10 0 10 -66577 -262144 0 0
;
#X obj 49 100 sp-gtimer;
#X msg 691 406 \; \$1-rec const 0 \;;
#X obj 691 376 f \$0;
#X obj 123 51 sp-play-button;
#X obj 49 51 sp-stop-button;
#X obj 86 51 sp-record-button;
#N canvas 173 232 523 360 play_control 0;
#X obj 37 37 inlet;
#X obj 109 35 inlet;
#X obj 227 34 inlet;
#X obj 109 135 tgl 15 0 empty empty empty 17 7 0 10 -262144 -1 -1 0
1;
#X obj 227 138 tgl 15 0 empty empty empty 17 7 0 10 -262144 -1 -1 0
1;
#X msg 37 100 0;
#X obj 109 197 outlet;
#X obj 227 198 outlet;
#X obj 109 91 spigot 1;
#X obj 227 91 spigot 1;
#X msg 56 70 1;
#X obj 135 150 != 1;
#X obj 254 153 != 1;
#X obj 37 242 s \$0-stop;
#X obj 169 224 sel 1;
#X obj 169 304 s \$0-record;
#X obj 285 227 sel 1;
#X obj 285 254 s \$0-play;
#X obj 169 252 t b b;
#X obj 270 304 s \$0-clear;
#X obj 169 279 del 100;
#X connect 0 0 5 0;
#X connect 0 0 10 0;
#X connect 0 0 13 0;
#X connect 1 0 8 0;
#X connect 2 0 9 0;
#X connect 3 0 6 0;
#X connect 3 0 11 0;
#X connect 3 0 14 0;
#X connect 4 0 7 0;
#X connect 4 0 12 0;
#X connect 4 0 16 0;
#X connect 5 0 3 0;
#X connect 5 0 4 0;
#X connect 8 0 3 0;
#X connect 9 0 4 0;
#X connect 10 0 8 1;
#X connect 10 0 9 1;
#X connect 11 0 9 1;
#X connect 11 0 8 1;
#X connect 12 0 8 1;
#X connect 12 0 9 1;
#X connect 14 0 18 0;
#X connect 16 0 17 0;
#X connect 18 0 20 0;
#X connect 18 1 19 0;
#X connect 20 0 15 0;
#X restore 103 168 pd play_control;
#X msg 507 393 color 21 1;
#X obj 507 359 loadbang;
#X obj 17 169 r \$0-timer;
#X obj 380 467 s \$0-timer;
#X obj 433 359 r \$0-record;
#X msg 433 393 1;
#X msg 348 429 0;
#X obj 363 359 r \$0-play;
#X obj 691 349 r \$0-clear;
#X obj 160 50 vradio 12 1 0 6 \$0-lchannel-s \$0-lchannel-r L 4 80
0 10 -262144 -1 -262144 0;
#X text 156 29 channels;
#X obj 190 50 vradio 12 1 0 6 \$0-rchannel-s \$0-rchannel-r R 4 80
0 10 -262144 -1 -262144 2;
#X text 177 47 1;
#X text 177 59 2;
#X text 177 71 3;
#X text 177 96 5;
#X text 177 108 6;
#X text 177 83 4;
#X obj 178 226 loadbang;
#X obj 178 296 s \$0-lchannel-r;
#X msg 278 264 1;
#X msg 178 264 0;
#X obj 278 296 s \$0-rchannel-r;
#N canvas 525 208 475 383 tables 0;
#X obj 44 108 loadbang;
#X obj 35 46 table \$0-rec-r;
#X obj 35 26 table \$0-rec-l;
#X obj 44 201 pack \$0 f;
#X obj 95 154 samplerate~;
#X obj 44 137 t b b;
#X obj 95 177 * 100;
#X obj 44 290 print;
#X obj 119 122 bng 15 250 50 0 empty empty empty 17 7 0 10 -262144
-1 -1;
#X msg 44 228 \; \$1-rec-l resize \$2 \; \$1-rec-r resize \$2 \;;
#X connect 0 0 5 0;
#X connect 3 0 9 0;
#X connect 4 0 6 0;
#X connect 5 0 3 0;
#X connect 5 1 4 0;
#X connect 6 0 3 1;
#X connect 8 0 5 0;
#X restore 687 84 pd tables;
#N canvas 321 67 666 284 input~ 0;
#X obj 43 124 pvu~;
#X msg 94 107 reset;
#X obj 55 152 env~ 8912 4096;
#X obj 55 175 - 100;
#X msg 163 152 bang;
#X msg 257 153 stop;
#X obj 163 127 r \$0-record;
#X obj 43 28 adc~ 1 2 3 4 5 6;
#X obj 257 126 r \$0-stop;
#X obj 43 56 multiplex~ . . . . . .;
#X obj 163 213 tabwrite~ \$0-rec-l;
#X obj 164 28 r \$0-lchannel-s;
#X obj 343 28 adc~ 1 2 3 4 5 6;
#X obj 343 56 multiplex~ . . . . . .;
#X obj 464 28 r \$0-rchannel-s;
#X msg 343 152 bang;
#X msg 437 153 stop;
#X obj 343 127 r \$0-record;
#X obj 437 126 r \$0-stop;
#X obj 343 213 tabwrite~ \$0-rec-r;
#X obj 18 203 s \$0-peakl;
#X obj 47 233 s \$0-rmsl;
#X obj 533 104 pvu~;
#X msg 584 87 reset;
#X obj 545 132 env~ 8912 4096;
#X obj 545 155 - 100;
#X obj 508 183 s \$0-peakr;
#X obj 537 213 s \$0-rmsr;
#X connect 0 0 20 0;
#X connect 1 0 0 0;
#X connect 2 0 3 0;
#X connect 3 0 21 0;
#X connect 4 0 10 0;
#X connect 5 0 10 0;
#X connect 6 0 4 0;
#X connect 7 0 9 0;
#X connect 7 1 9 1;
#X connect 7 2 9 2;
#X connect 7 3 9 3;
#X connect 7 4 9 4;
#X connect 7 5 9 5;
#X connect 8 0 5 0;
#X connect 9 0 0 0;
#X connect 9 0 2 0;
#X connect 9 0 10 0;
#X connect 11 0 9 0;
#X connect 12 0 13 0;
#X connect 12 1 13 1;
#X connect 12 2 13 2;
#X connect 12 3 13 3;
#X connect 12 4 13 4;
#X connect 12 5 13 5;
#X connect 13 0 19 0;
#X connect 13 0 22 0;
#X connect 13 0 24 0;
#X connect 14 0 13 0;
#X connect 15 0 19 0;
#X connect 16 0 19 0;
#X connect 17 0 15 0;
#X connect 18 0 16 0;
#X connect 22 0 26 0;
#X connect 23 0 22 0;
#X connect 24 0 25 0;
#X connect 25 0 27 0;
#X restore 687 50 pd input~;
#N canvas 567 133 332 229 play~ 0;
#X msg 55 53 bang;
#X obj 55 190 outlet~;
#X msg 185 53 stop;
#X obj 185 29 r \$0-stop;
#X obj 55 29 r \$0-play;
#X obj 55 157 tabplay~ \$0-rec-l;
#X obj 185 190 outlet~;
#X obj 185 157 tabplay~ \$0-rec-r;
#X connect 0 0 5 0;
#X connect 0 0 7 0;
#X connect 2 0 5 0;
#X connect 2 0 7 0;
#X connect 3 0 2 0;
#X connect 4 0 0 0;
#X connect 5 0 1 0;
#X connect 7 0 6 0;
#X restore 138 449 pd play~;
#X obj 138 483 outlet~;
#X obj 231 483 outlet~;
#N canvas 562 163 355 299 save 0;
#X obj 21 20 sp-param-file;
#X obj 23 127 tof/param /soundchecker/\$1/ch/left;
#X obj 22 233 tof/param /soundchecker/\$1/ch/right;
#X obj 23 155 s \$0-lchannel-r;
#X obj 224 101 change;
#X obj 229 191 change;
#X obj 22 265 s \$0-rchannel-r;
#X obj 229 162 r \$0-rchannel-s;
#X obj 224 72 r \$0-lchannel-s;
#X connect 1 0 3 0;
#X connect 2 0 6 0;
#X connect 4 0 1 1;
#X connect 5 0 2 1;
#X connect 7 0 5 0;
#X connect 8 0 4 0;
#X restore 687 118 pd save;
#X obj 294 359 r \$0-stop;
#X obj 262 15 r \$0-rmsl;
#X obj 327 15 r \$0-peakl;
#X obj 32 52 vu 8 80 \$0-rlevel-r empty -1 -10 0 10 -66577 -262144
0 0;
#X obj 262 45 r \$0-rmsr;
#X obj 327 45 r \$0-peakr;
#X connect 4 0 3 0;
#X connect 5 0 8 2;
#X connect 6 0 8 0;
#X connect 7 0 8 1;
#X connect 8 0 7 0;
#X connect 8 1 5 0;
#X connect 9 0 12 0;
#X connect 10 0 9 0;
#X connect 11 0 2 0;
#X connect 13 0 14 0;
#X connect 14 0 12 0;
#X connect 15 0 12 0;
#X connect 16 0 14 0;
#X connect 17 0 4 0;
#X connect 27 0 30 0;
#X connect 27 0 29 0;
#X connect 29 0 31 0;
#X connect 30 0 28 0;
#X connect 34 0 35 0;
#X connect 34 1 36 0;
#X connect 38 0 15 0;
#X connect 39 0 1 0;
#X connect 40 0 1 1;
#X connect 42 0 41 0;
#X connect 43 0 41 1;
#X coords 0 -1 1 1 200 140 1 10 10;
