#N canvas 0 22 450 300 10;
#X obj 77 32 inlet~;
#X obj 77 234 outlet~;
#X obj 172 235 outlet~;
#X obj 77 190 *~;
#X obj 172 192 *~;
#X obj 205 175 line~;
#X obj 109 173 line~;
#X obj 176 31 inlet;
#X obj 176 55 sel 0;
#X msg 109 145 \$1 10;
#X msg 205 146 \$1 10;
#X obj 148 113 unpack f f;
#X msg 176 82 1 0;
#X msg 209 82 0 1;
#X obj 237 30 loadbang;
#X obj 132 32 inlet~;
#X obj 245 235 outlet;
#X connect 0 0 3 0;
#X connect 3 0 1 0;
#X connect 4 0 2 0;
#X connect 5 0 4 1;
#X connect 6 0 3 1;
#X connect 7 0 8 0;
#X connect 8 0 12 0;
#X connect 8 1 13 0;
#X connect 9 0 6 0;
#X connect 10 0 5 0;
#X connect 11 0 9 0;
#X connect 11 1 10 0;
#X connect 12 0 11 0;
#X connect 13 0 11 0;
#X connect 14 0 12 0;
#X connect 15 0 4 0;
