#N canvas 325 189 661 359 10;
#X obj 172 147 sp-switch~;
#X obj 172 100 osc~ 440;
#X obj 172 194 env~;
#X floatatom 172 224 5 0 0 0 - - -;
#X obj 229 194 env~;
#X floatatom 229 224 5 0 0 0 - - -;
#X obj 229 118 tgl 15 0 empty empty empty 17 7 0 10 -262144 -1 -1 1
1;
#X obj 393 164 +dsp;
#X obj 80 194 sigmund~ pitch;
#X obj 80 224 mtof;
#X floatatom 80 251 5 0 0 0 - - -;
#X obj 280 194 sigmund~ pitch;
#X obj 280 224 mtof;
#X floatatom 280 251 5 0 0 0 - - -;
#X connect 0 0 2 0;
#X connect 0 0 7 0;
#X connect 0 0 8 0;
#X connect 0 1 4 0;
#X connect 0 1 7 1;
#X connect 0 1 11 0;
#X connect 1 0 0 0;
#X connect 2 0 3 0;
#X connect 4 0 5 0;
#X connect 6 0 0 1;
#X connect 8 0 9 0;
#X connect 9 0 10 0;
#X connect 11 0 12 0;
#X connect 12 0 13 0;
