#N canvas 0 22 450 300 10;
#X obj 135 145 sp-sync;
#X floatatom 135 196 5 0 0 0 - - -;
#X obj 174 74 tgl 15 0 empty empty empty 17 7 0 10 -262144 -1 -1 1
1;
#X obj 200 200 bng 15 250 50 0 empty empty empty 17 7 0 10 -262144
-1 -1;
#X obj 70 38 hsl 128 15 0 127 0 0 empty empty empty -2 -8 0 10 -262144
-1 -1 12700 1;
#X obj 174 105 metro 500;
#X connect 0 0 1 0;
#X connect 2 0 5 0;
#X connect 4 0 0 0;
#X connect 5 0 0 1;
#X connect 5 0 3 0;
