#N canvas 328 423 294 250 10;
#X obj 44 118 expr~ $v1 > $v2;
#X obj 44 205 outlet~;
#X obj 44 145 *~ 2;
#X obj 44 175 -~ 1;
#X obj 44 79 phasor~ \$1;
#X obj 44 44 inlet~;
#X obj 131 16 inlet~;
#X obj 131 95 clip~ 0.001 0.999;
#X connect 0 0 2 0;
#X connect 2 0 3 0;
#X connect 3 0 1 0;
#X connect 4 0 0 0;
#X connect 5 0 4 0;
#X connect 6 0 7 0;
#X connect 7 0 0 1;
