#N canvas 323 158 365 300 10;
#X obj 44 93 0;
#X obj 74 93 + 1;
#X obj 173 155 mod 60;
#X obj 164 86 loadbang;
#X obj 108 155 div 60;
#X msg 164 106 0;
#X obj 44 234 symbol;
#X obj 44 62 metro 1000;
#X obj 128 56 sel 1;
#X msg 128 76 0;
#X obj 44 9 inlet;
#X obj 44 263 outlet;
#X floatatom 180 34 5 0 0 0 - - -;
#X obj 44 123 t f f f;
#X obj 44 211 sprintf %02d:%02d:%02d;
#X obj 44 155 div 3600;
#X obj 108 182 mod 60;
#X obj 44 182 mod 24;
#X connect 0 0 1 0;
#X connect 0 0 13 0;
#X connect 1 0 0 1;
#X connect 2 0 14 2;
#X connect 3 0 5 0;
#X connect 4 0 16 0;
#X connect 5 0 13 0;
#X connect 6 0 11 0;
#X connect 7 0 0 0;
#X connect 8 0 9 0;
#X connect 9 0 0 0;
#X connect 10 0 7 0;
#X connect 10 0 8 0;
#X connect 12 0 13 0;
#X connect 13 0 15 0;
#X connect 13 1 4 0;
#X connect 13 2 2 0;
#X connect 14 0 6 0;
#X connect 15 0 17 0;
#X connect 16 0 14 1;
#X connect 17 0 14 0;
