#N canvas 0 22 498 461 10;
#X declare -lib maxlib;
#X obj 66 38 inlet bang;
#X obj 290 56 import maxlib;
#X obj 66 155 maxlib/average \$1;
#X obj 66 110 timer;
#X obj 184 37 inlet control;
#X obj 66 365 outlet ms;
#X obj 109 335 outlet tempo;
#X obj 109 255 / 1000;
#X obj 109 279 swap 60;
#X obj 109 302 /;
#X msg 165 123 weight;
#X obj 165 96 loadbang;
#X obj 184 61 route reset;
#X msg 242 119 reset;
#X msg 298 116 bang;
#X obj 275 247 + 1;
#X obj 66 198 spigot;
#X msg 346 115 0;
#X obj 239 340 sel 1;
#X obj 239 377 sp-bangonce;
#X obj 239 412 outlet done;
#X msg 294 340 reset;
#X obj 294 310 r \$0-reset;
#X obj 364 146 s \$0-reset;
#X obj 66 71 t b b b;
#X msg 309 166 0;
#X obj 239 247 f 0;
#X obj 239 310 > \$1;
#X connect 0 0 24 0;
#X connect 2 0 16 0;
#X connect 3 0 2 0;
#X connect 4 0 12 0;
#X connect 7 0 8 0;
#X connect 8 0 9 0;
#X connect 8 1 9 1;
#X connect 9 0 6 0;
#X connect 10 0 2 0;
#X connect 11 0 10 0;
#X connect 12 0 13 0;
#X connect 12 0 14 0;
#X connect 12 0 17 0;
#X connect 12 0 25 0;
#X connect 13 0 2 0;
#X connect 14 0 3 0;
#X connect 14 0 23 0;
#X connect 15 0 26 1;
#X connect 16 0 5 0;
#X connect 16 0 7 0;
#X connect 17 0 16 1;
#X connect 18 0 19 0;
#X connect 19 0 20 0;
#X connect 21 0 19 0;
#X connect 22 0 21 0;
#X connect 24 0 3 0;
#X connect 24 1 3 1;
#X connect 24 2 26 0;
#X connect 25 0 26 1;
#X connect 26 0 15 0;
#X connect 26 0 27 0;
#X connect 27 0 16 1;
#X connect 27 0 18 0;
