#N canvas 83 177 548 339 10;
#X obj 51 272 outlet sync;
#X obj 271 246 outlet bpm;
#X obj 381 246 outlet beats;
#X obj 161 246 outlet time;
#X obj 51 39 inlet sync;
#X obj 171 39 inlet time;
#X obj 291 39 inlet bpm;
#X obj 401 39 inlet beats;
#X obj 51 213 s tbus-sync-\$1;
#X obj 51 248 r tbus-sync-\$1;
#X obj 171 67 s tbus-time-\$1;
#X obj 161 212 r tbus-time-\$1;
#X obj 291 147 s tbus-bpm-\$1;
#X obj 271 212 r tbus-bpm-\$1;
#X obj 401 147 s tbus-beats-\$1;
#X obj 381 212 r tbus-beats-\$1;
#X obj 231 173 print [sp-timebus] unknown command;
#X obj 51 68 route bang;
#X obj 108 102 route getbpm getbeats;
#X obj 108 127 b;
#X obj 169 127 b;
#X obj 281 284 value \$1-bpm-var;
#X obj 411 286 value \$1-beats-var;
#X connect 4 0 17 0;
#X connect 5 0 10 0;
#X connect 6 0 12 0;
#X connect 7 0 14 0;
#X connect 9 0 0 0;
#X connect 11 0 3 0;
#X connect 13 0 1 0;
#X connect 13 0 21 0;
#X connect 15 0 2 0;
#X connect 15 0 22 0;
#X connect 17 0 8 0;
#X connect 17 1 18 0;
#X connect 18 0 19 0;
#X connect 18 1 20 0;
#X connect 18 2 16 0;
#X connect 19 0 21 0;
#X connect 20 0 22 0;
#X connect 21 0 12 0;
#X connect 22 0 14 0;
