#N canvas 144 99 825 448 10;
#X obj 10 10 cnv 15 400 60 \$0-cnv-s \$0-cnv-r title 16 16 0 20 -200064
-66577 0;
#X obj 105 208 loadbang;
#X obj 105 311 s \$0-cnv-r;
#X obj 105 234 dollarg;
#X msg 105 285 label \$1;
#X obj 105 261 l2s;
#X connect 1 0 3 0;
#X connect 3 0 5 0;
#X connect 4 0 2 0;
#X connect 5 0 4 0;
#X coords 0 -1 1 1 400 60 1 10 10;
