#N canvas 465 315 463 299 10;
#X obj 77 40 tgl 15 0 empty empty empty 17 7 0 10 -262144 -1 -1 1 1
;
#X obj 77 111 bng 15 250 50 0 empty empty empty 17 7 0 10 -262144 -1
-1;
#X floatatom 176 111 5 0 0 0 - - -;
#X obj 213 110 s \$0-time;
#X obj 76 153 r \$0-time;
#X obj 76 229 sel 0 1 2 3 4 5 6 7;
#X obj 76 179 mod 32;
#X obj 76 204 / 4;
#X obj 77 259 bng 15 250 50 0 empty empty empty 17 7 0 10 -262144 -1
-1;
#X obj 97 259 bng 15 250 50 0 empty empty empty 17 7 0 10 -262144 -1
-1;
#X obj 117 259 bng 15 250 50 0 empty empty empty 17 7 0 10 -262144
-1 -1;
#X obj 137 259 bng 15 250 50 0 empty empty empty 17 7 0 10 -262144
-1 -1;
#X obj 157 259 bng 15 250 50 0 empty empty empty 17 7 0 10 -262144
-1 -1;
#X obj 177 259 bng 15 250 50 0 empty empty empty 17 7 0 10 -262144
-1 -1;
#X obj 197 259 bng 15 250 50 0 empty empty empty 17 7 0 10 -262144
-1 -1;
#X obj 217 259 bng 15 250 50 0 empty empty empty 17 7 0 10 -262144
-1 -1;
#X text 127 38 arguments: 1 bpm \, 2 number of beats;
#X text 76 11 control inlet: start/stop (1/0);
#X obj 77 75 sp-timebase 60 32;
#X connect 0 0 18 0;
#X connect 4 0 6 0;
#X connect 5 0 8 0;
#X connect 5 1 9 0;
#X connect 5 2 10 0;
#X connect 5 3 11 0;
#X connect 5 4 12 0;
#X connect 5 5 13 0;
#X connect 5 6 14 0;
#X connect 5 7 15 0;
#X connect 6 0 7 0;
#X connect 7 0 5 0;
#X connect 18 0 1 0;
#X connect 18 1 2 0;
#X connect 18 1 3 0;
