#N canvas 350 115 679 311 10;
#X obj 32 34 adc~ 1;
#X obj 32 286 outlet~;
#X obj 32 79 sp-eq10~ viola-in;
#X obj 225 33 loadbang;
#X msg 225 55 eq10 b6 0.4 \, eq10 b8 0.6;
#X obj 423 32 inlet control;
#X connect 0 0 2 0;
#X connect 2 0 1 0;
#X connect 3 0 4 0;
#X connect 4 0 2 1;
#X connect 5 0 2 1;
