#N canvas 88 166 818 533 10;
#X obj 170 216 inlet~;
#X obj 170 433 outlet~;
#X obj 291 27 loadbang;
#X obj 101 116 cnv 15 118 78 empty empty empty 20 12 0 14 -233017 -66577
0;
#X obj 522 32 inlet;
#X obj 114 166 hsl 96 8 0 100 0 0 \$0-feedback-s \$0-feedback-r empty
-2 -8 0 10 -262144 -1 -1 0 1;
#X obj 291 54 expr \$1 / 2;
#X floatatom 166 144 5 0 100 1 % #0-feedback-ind-r #0-feedback-ind-s
;
#X floatatom 166 122 5 0 0 1 ms #0-delay-ind-r #0-delay-ind-s;
#X obj 167 179 tgl 10 0 \$0-skip \$0-skip-r empty 17 7 0 10 -262144
-1 -1 0 1;
#X obj 239 313 expr $i1;
#X text 105 176 Skip:;
#X obj 227 216 r \$0-skip;
#X text 511 4 Creation: [sp-vdelay buffer_size];
#X obj 522 103 clip 0 \$1;
#X obj 522 132 == 0;
#X obj 522 161 sel 1;
#X obj 522 190 print error: invalid delay value;
#X obj 522 64 route delay feedback skip;
#X obj 522 339 r \$0-feedback-s;
#X obj 522 362 s \$0-feedback-ind-r;
#X obj 523 448 s \$0-delay-ind-r;
#X obj 239 287 r \$0-delay;
#X obj 291 80 s \$0-delay;
#X obj 421 132 s \$0-delay;
#X obj 523 424 r \$0-delay;
#X obj 571 160 s \$0-feedback-r;
#X obj 620 102 sel 1;
#X obj 620 239 s \$0-skip-r;
#X msg 620 212 1;
#X obj 647 289 s \$0-skip-r;
#X msg 647 262 0;
#X obj 571 132 clip 0 100;
#X text 104 122 Delay:;
#X text 105 143 Feedback:;
#X obj 170 369 sp-delay~ \$1;
#X msg 239 341 delay \$1;
#X obj 170 250 sp-switch~;
#X obj 319 287 r \$0-feedback-s;
#X msg 319 313 feedback \$1;
#X connect 0 0 37 0;
#X connect 2 0 6 0;
#X connect 4 0 18 0;
#X connect 6 0 23 0;
#X connect 10 0 36 0;
#X connect 12 0 37 1;
#X connect 14 0 15 0;
#X connect 14 0 24 0;
#X connect 15 0 16 0;
#X connect 16 0 17 0;
#X connect 18 0 14 0;
#X connect 18 1 32 0;
#X connect 18 2 27 0;
#X connect 19 0 20 0;
#X connect 22 0 10 0;
#X connect 25 0 21 0;
#X connect 27 0 29 0;
#X connect 27 1 31 0;
#X connect 29 0 28 0;
#X connect 31 0 30 0;
#X connect 32 0 26 0;
#X connect 35 0 1 0;
#X connect 36 0 35 1;
#X connect 37 0 35 0;
#X connect 37 1 1 0;
#X connect 38 0 39 0;
#X connect 39 0 35 1;
#X coords 0 -1 1 1 120 96 1 100 100;
