#N canvas 0 22 453 444 10;
#X obj 76 131 *~;
#X obj 109 28 bng 15 250 50 0 empty empty empty 17 7 0 10 -262144 -1
-1;
#X msg 142 98 0;
#X msg 91 97 1;
#X obj 109 57 del 40;
#X obj 26 56 phasor~ 440;
#X msg 195 131 delay \$1;
#X obj 198 89 hsl 128 15 -10 5000 0 0 empty empty empty -2 -8 0 10
-262144 -1 -1 0 1;
#X floatatom 212 109 5 0 0 0 - - -;
#X msg 267 54 feedback \$1;
#X obj 270 31 hsl 128 15 0 100 0 0 empty empty empty -2 -8 0 10 -262144
-1 -1 0 1;
#X msg 330 151 skip \$1;
#X obj 330 123 tgl 15 0 empty empty empty 17 7 0 10 -262144 -1 -1 0
1;
#X obj 90 168 sp-vdelay~ 1000;
#X obj 90 284 +dsp;
#X connect 0 0 13 0;
#X connect 1 0 3 0;
#X connect 1 0 4 0;
#X connect 2 0 0 1;
#X connect 3 0 0 1;
#X connect 4 0 2 0;
#X connect 5 0 0 0;
#X connect 6 0 13 1;
#X connect 7 0 6 0;
#X connect 7 0 8 0;
#X connect 9 0 13 1;
#X connect 10 0 9 0;
#X connect 11 0 13 1;
#X connect 12 0 11 0;
#X connect 13 0 14 1;
