#N canvas 350 115 566 339 10;
#X obj 32 34 adc~ 1;
#X obj 32 296 outlet~;
#X obj 32 89 sp-eq10~ viola-in;
#X obj 225 13 loadbang;
#X obj 463 72 inlet control;
#X msg 225 55 eq10 reset \, eq10 b6 0.4 \, eq10 b8 0.6;
#X obj 225 34 del 10;
#X connect 0 0 2 0;
#X connect 2 0 1 0;
#X connect 3 0 6 0;
#X connect 4 0 2 1;
#X connect 5 0 2 1;
#X connect 6 0 5 0;
