#N canvas 409 146 335 468 10;
#X obj 35 34 inlet;
#X obj 92 128 route fname vers;
#X obj 59 291 symbol;
#X obj 35 92 route bang;
#X obj 35 211 demux . .;
#X obj 126 291 symbol;
#X obj 186 290 sp-datetime;
#X obj 131 34 loadbang;
#X obj 131 62 symbol \$1;
#X msg 131 87 fname \$1;
#X obj 126 333 pack s s;
#X obj 126 256 t b b;
#X obj 126 366 sprintf %s_%s.wav;
#X obj 59 424 outlet;
#X obj 186 194 clip 0 1;
#X obj 92 151 symbol;
#X obj 126 392 symbol;
#X obj 249 316 symbol;
#X connect 0 0 3 0;
#X connect 1 0 15 0;
#X connect 1 1 14 0;
#X connect 2 0 13 0;
#X connect 3 0 4 0;
#X connect 3 1 1 0;
#X connect 4 0 2 0;
#X connect 4 1 11 0;
#X connect 5 0 10 0;
#X connect 6 1 17 0;
#X connect 7 0 8 0;
#X connect 8 0 9 0;
#X connect 9 0 1 0;
#X connect 10 0 12 0;
#X connect 11 0 5 0;
#X connect 11 1 6 0;
#X connect 12 0 16 0;
#X connect 14 0 4 1;
#X connect 15 0 2 1;
#X connect 15 0 5 1;
#X connect 16 0 13 0;
#X connect 17 0 10 1;
