#N canvas 0 22 450 300 10;
#X obj 75 82 bng 15 250 50 0 empty empty empty 17 7 0 10 -262144 -1
-1;
#X msg 117 78 vers \$1;
#X obj 117 39 tgl 15 0 empty empty empty 17 7 0 10 -262144 -1 -1 0
1;
#X symbolatom 75 170 40 0 0 0 - - -;
#X obj 75 116 sp-wfname test;
#X msg 202 92 fname test2;
#X connect 0 0 4 0;
#X connect 1 0 4 0;
#X connect 2 0 1 0;
#X connect 4 0 3 0;
#X connect 5 0 4 0;
