#N canvas 0 22 450 300 10;
#X obj 101 76 osc~ 440;
#X obj 179 78 osc~ 660;
#X obj 252 78 tgl 15 0 empty empty empty 17 7 0 10 -262144 -1 -1 0
1;
#X obj 119 157 sigmund~ pitch;
#X floatatom 119 220 5 0 0 0 - - -;
#X obj 176 187 sigmund~ pitch;
#X floatatom 176 230 5 0 0 0 - - -;
#X obj 176 208 mtof;
#X obj 119 187 mtof;
#X obj 119 113 sp-xcross~;
#X connect 0 0 9 0;
#X connect 1 0 9 1;
#X connect 2 0 9 2;
#X connect 3 0 8 0;
#X connect 5 0 7 0;
#X connect 7 0 6 0;
#X connect 8 0 4 0;
#X connect 9 0 3 0;
#X connect 9 1 5 0;
