#N canvas 498 59 682 664 10;
#X obj 36 -12 unpackOSC;
#X obj 36 17 pipelist;
#X obj 36 43 routeOSC /tuio/2Dcur;
#X obj 36 68 route set fseq alive source;
#X obj 36 315 unpack f f f f f f;
#X obj 61 373 outlet;
#X text 208 312 x;
#X obj 111 398 outlet;
#X floatatom 111 349 5 0 0 0 - - -;
#X symbolatom 256 118 23 0 0 0 Source: #0-src-r #0-src-s;
#X obj 36 -36 udpreceive \$1;
#X text 44 370 x;
#X text 95 397 y;
#X obj 184 424 outlet;
#X text 119 372 velocity x;
#X obj 269 457 outlet;
#X text 202 456 velocity y;
#X obj 283 410 outlet;
#X text 241 409 motion;
#X text 242 312 y;
#X text 281 313 vel x;
#X text 331 313 vel y;
#X obj 49 421 * 100;
#X obj 454 -33 loadbang;
#X obj 251 16 symbol;
#X obj 200 160 grid grid1 200 0 100 150 0 100 1 1 1 10 10 -269 -136
;
#X msg 454 -5 color 200 200 200;
#X obj 49 461 pack f f;
#X msg 49 491 values \$1 \$2;
#X obj 94 430 expr 100 * (1 - $f1);
#X obj 115 136 s \$0-fingers;
#X obj 445 466 outlet;
#X obj 445 436 r \$0-fingers;
#X floatatom 256 139 5 0 0 0 Fingers: #0-fingers #0-fingers-s;
#X obj 115 104 list length;
#X obj 251 43 s \$0-src-r;
#X connect 0 0 1 0;
#X connect 1 0 2 0;
#X connect 2 0 3 0;
#X connect 3 0 4 0;
#X connect 3 2 34 0;
#X connect 3 3 24 0;
#X connect 4 1 5 0;
#X connect 4 1 22 0;
#X connect 4 2 8 0;
#X connect 4 2 29 0;
#X connect 4 3 13 0;
#X connect 4 4 15 0;
#X connect 4 5 17 0;
#X connect 8 0 7 0;
#X connect 10 0 0 0;
#X connect 22 0 27 0;
#X connect 23 0 26 0;
#X connect 24 0 35 0;
#X connect 26 0 25 0;
#X connect 27 0 28 0;
#X connect 28 0 25 0;
#X connect 29 0 27 1;
#X connect 32 0 31 0;
#X connect 34 0 30 0;
#X coords 0 -1 1 1 200 231 1 200 100;
