#N canvas 85 40 507 659 10;
#X floatatom 109 360 5 0 0 0 - - -;
#X floatatom 157 360 5 0 0 0 - - -;
#X obj 109 93 tuiopad 8000;
#X floatatom 307 365 5 0 0 0 - - -;
#X obj 139 432 osc~;
#X obj 138 404 expr sin($f1) * 3000;
#X obj 139 483 +dsp;
#X connect 0 0 5 0;
#X connect 2 0 0 0;
#X connect 2 1 1 0;
#X connect 2 5 3 0;
#X connect 4 0 6 0;
#X connect 5 0 4 0;
