#N canvas 83 22 883 670 10;
#X obj 37 144 sp-gmix2~;
#N canvas 266 208 848 316 in 0;
#X obj 59 130 outlet~;
#X obj 134 130 outlet;
#X obj 134 32 loadbang;
#X msg 195 128 \; sp-lop cutoff 200;
#X obj 414 202 sp-key s;
#X obj 414 222 s \$0-start-r;
#X obj 414 249 sp-key Space;
#X obj 414 274 s \$0-stop-r;
#X obj 503 128 r \$0-start-s;
#X msg 503 153 record start;
#X obj 523 242 s \$0-bus;
#X msg 593 153 record stop;
#X obj 593 128 r \$0-stop-s;
#X obj 333 133 s sp-param;
#X msg 333 108 restore 0;
#X obj 59 79 adc~ 2;
#X obj 94 174 outlet~;
#X obj 94 151 adc~ 1;
#X msg 134 67 mix2 0 label vla \, mix2 1 label ... \, mix2 1 color
20 20 \, mix2 mute 0 \, mix2 volume 0.2;
#X connect 2 0 18 0;
#X connect 2 0 3 0;
#X connect 2 0 14 0;
#X connect 4 0 5 0;
#X connect 6 0 7 0;
#X connect 8 0 9 0;
#X connect 9 0 10 0;
#X connect 11 0 10 0;
#X connect 12 0 11 0;
#X connect 14 0 13 0;
#X connect 15 0 0 0;
#X connect 17 0 16 0;
#X connect 18 0 1 0;
#X restore 37 114 pd in .....;
#X obj 57 376 sp-glop~ lop;
#X obj 601 218 sp-gfreeverb~ reverb;
#X obj 601 427 +dsp;
#X obj 601 537 sp-grecord~ berio-sequenza.wav;
#X obj 601 50 sp-gfuzz~;
#X obj 794 26 r \$0-bus;
#X obj 601 22 r~ \$0-viola;
#X obj 37 484 s~ \$0-viola;
#X obj 135 640 s \$0-bus;
#X msg 135 623 fuzz pass \$1;
#X obj 146 199 bng 32 250 50 0 \$0-start-s \$0-start-r Start[s] 40
14 0 18 -204786 -1 -1;
#X obj 146 249 bng 32 250 50 0 \$0-stop-s \$0-stop-r Stop[_] 40 14
0 18 -228856 -1 -1;
#X obj 37 28 sp-title Luciano Berio: Sequenza VI;
#X obj 39 513 sp-gfoot-switch;
#X obj 135 585 tgl 15 0 empty empty empty 17 7 0 10 -262144 -1 -1 0
1;
#X obj 135 606 == 0;
#X obj 146 120 sp-gparam;
#X obj 37 340 +~ 0;
#X connect 0 0 19 0;
#X connect 0 1 19 0;
#X connect 1 0 0 0;
#X connect 1 1 0 1;
#X connect 1 2 0 2;
#X connect 2 0 9 0;
#X connect 3 0 4 0;
#X connect 3 0 4 1;
#X connect 3 2 4 2;
#X connect 4 0 5 0;
#X connect 4 1 5 1;
#X connect 4 2 5 2;
#X connect 6 0 3 0;
#X connect 6 1 3 2;
#X connect 7 0 6 1;
#X connect 8 0 6 0;
#X connect 11 0 10 0;
#X connect 15 1 16 0;
#X connect 16 0 17 0;
#X connect 17 0 11 0;
#X connect 19 0 2 0;
#X connect 19 0 9 0;
