#N canvas 124 119 764 504 10;
#X declare -lib mrpeach;
#X declare -path ..;
#X obj 30 426 import mrpeach;
#N canvas 410 248 474 382 midi.rzhevski 0;
#X obj 36 31 loadbang;
#X obj 36 214 repack 3;
#X obj 36 239 route 145;
#X obj 36 264 stripnote;
#X obj 36 289 outlet note;
#X obj 117 289 outlet velocity;
#X obj 128 30 r \$0-start;
#X obj 207 30 r \$0-stop;
#X obj 291 31 r \$0-goto-bar;
#X msg 36 96 read rzhevski2.mid;
#X obj 36 189 midifile;
#X obj 72 172 metro 1.5;
#X msg 123 123 82;
#X text 135 171 480 ticks per quater;
#X text 156 123 bpm;
#X msg 207 65 0;
#X msg 128 66 1;
#X obj 123 145 expr (60/$f1) / 480 * 1000;
#X obj 291 62 expr $f1 * 4 * 480;
#X obj 327 165 r \$0-stop;
#X msg 327 190 1;
#X obj 327 220 s \$0-goto-bar-r;
#X connect 0 0 9 0;
#X connect 0 0 12 0;
#X connect 1 0 2 0;
#X connect 2 0 3 0;
#X connect 3 0 4 0;
#X connect 3 1 5 0;
#X connect 6 0 16 0;
#X connect 7 0 15 0;
#X connect 8 0 18 0;
#X connect 9 0 10 0;
#X connect 10 0 1 0;
#X connect 11 0 10 0;
#X connect 12 0 17 0;
#X connect 15 0 11 0;
#X connect 16 0 11 0;
#X connect 17 0 11 1;
#X connect 18 0 10 0;
#X connect 19 0 20 0;
#X connect 20 0 21 0;
#X restore 223 142 pd midi.rzhevski;
#X obj 36 34 bng 40 250 50 0 \$0-start \$0-start-r START 7 20 0 10
-204786 -13381 -1;
#X obj 86 34 bng 40 250 50 0 \$0-stop \$0-stop-r STOP 9 20 0 10 -99865
-13381 -262144;
#N canvas 39 206 342 332 counter 0;
#X obj 36 28 inlet;
#X obj 36 59 b;
#X obj 93 28 r \$0-stop;
#X obj 75 103 + 1;
#X obj 36 138 div 16;
#X obj 146 283 outlet bar;
#X obj 244 283 outlet beat;
#X obj 244 140 div 4;
#X obj 244 166 % 4;
#X msg 93 54 1;
#X obj 36 103 f 1;
#X msg 146 248 0;
#X obj 244 192 + 1;
#X obj 36 165 + 1;
#X obj 36 284 outlet part;
#X obj 177 29 r \$0-goto-bar;
#X obj 177 76 * 16;
#X obj 177 51 - 1;
#N canvas 394 120 654 403 parts 0;
#X obj 39 30 inlet bar;
#X obj 78 294 outlet part;
#X obj 78 84 moses 50;
#X obj 123 101 moses 99;
#X obj 168 118 moses 146;
#X obj 219 135 moses 197;
#X obj 270 152 moses 246;
#X obj 321 169 moses 295;
#X obj 372 186 moses 344;
#X msg 78 145 1;
#X msg 123 145 2;
#X msg 168 179 3;
#X msg 219 179 4;
#X msg 270 213 5;
#X msg 321 213 6;
#X msg 372 235 7;
#X obj 78 110 b;
#X obj 123 118 b;
#X obj 168 135 b;
#X obj 219 152 b;
#X obj 270 169 b;
#X obj 321 186 b;
#X obj 372 203 b;
#X obj 78 252 change;
#X msg 423 235 8;
#X obj 423 203 b;
#X obj 39 57 moses 1;
#X msg 39 145 0;
#X obj 151 30 r \$0-stop;
#X connect 0 0 26 0;
#X connect 2 0 16 0;
#X connect 2 1 3 0;
#X connect 3 0 17 0;
#X connect 3 1 4 0;
#X connect 4 0 18 0;
#X connect 4 1 5 0;
#X connect 5 0 19 0;
#X connect 5 1 6 0;
#X connect 6 0 20 0;
#X connect 6 1 7 0;
#X connect 7 0 21 0;
#X connect 7 1 8 0;
#X connect 8 0 22 0;
#X connect 8 1 25 0;
#X connect 9 0 23 0;
#X connect 10 0 23 0;
#X connect 11 0 23 0;
#X connect 12 0 23 0;
#X connect 13 0 23 0;
#X connect 14 0 23 0;
#X connect 15 0 23 0;
#X connect 16 0 9 0;
#X connect 17 0 10 0;
#X connect 18 0 11 0;
#X connect 19 0 12 0;
#X connect 20 0 13 0;
#X connect 21 0 14 0;
#X connect 22 0 15 0;
#X connect 23 0 1 0;
#X connect 24 0 23 0;
#X connect 25 0 24 0;
#X connect 26 0 27 0;
#X connect 26 1 2 0;
#X connect 27 0 23 0;
#X connect 28 0 27 0;
#X restore 36 215 pd parts;
#X connect 0 0 1 0;
#X connect 1 0 10 0;
#X connect 2 0 9 0;
#X connect 2 0 11 0;
#X connect 3 0 10 1;
#X connect 4 0 13 0;
#X connect 7 0 8 0;
#X connect 8 0 12 0;
#X connect 9 0 10 1;
#X connect 10 0 3 0;
#X connect 10 0 4 0;
#X connect 10 0 7 0;
#X connect 11 0 6 0;
#X connect 11 0 5 0;
#X connect 11 0 14 0;
#X connect 12 0 6 0;
#X connect 13 0 5 0;
#X connect 13 0 18 0;
#X connect 15 0 17 0;
#X connect 16 0 10 1;
#X connect 17 0 16 0;
#X connect 18 0 14 0;
#X restore 250 207 pd counter;
#X floatatom 396 224 5 0 0 0 - - -;
#X floatatom 357 224 5 0 0 0 - - -;
#X floatatom 320 224 5 0 0 0 - - -;
#N canvas 235 261 443 447 process 0;
#X obj 166 27 inlet part;
#X obj 269 27 inlet bar;
#X obj 19 27 inlet notes;
#N canvas 157 122 714 488 process_partA 0;
#X obj 31 21 inlet;
#X obj 196 73 spigot;
#X obj 229 21 inlet bar;
#X obj 229 48 > 2;
#N canvas 562 307 232 209 catch 0;
#X obj 28 28 inlet note stream;
#X obj 28 99 spigot;
#X obj 28 132 t f b;
#X msg 79 82 0;
#X obj 28 166 outlet note;
#X obj 155 28 inlet;
#X msg 155 82 1;
#X obj 155 56 b;
#X connect 0 0 1 0;
#X connect 1 0 2 0;
#X connect 2 0 4 0;
#X connect 2 1 3 0;
#X connect 3 0 1 1;
#X connect 5 0 7 0;
#X connect 6 0 1 1;
#X connect 7 0 6 0;
#X restore 196 262 pd catch;
#X obj 320 22 r \$0-start;
#X msg 320 45 1;
#X obj 475 22 r \$0-stop;
#X msg 475 45 0;
#X obj 196 432 s \$0-partA;
#X obj 196 376 makenote;
#X obj 196 404 pack f f;
#X floatatom 467 127 7 0 0 0 - - -;
#X obj 320 95 sp-bangrandom 10000 20000;
#X floatatom 467 267 7 0 0 0 - - -;
#X obj 320 245 sp-bangrandom 10000 20000;
#X obj 196 283 t f b b;
#X obj 224 305 random 30;
#X obj 196 347 pack f f f;
#X obj 291 305 random 4000;
#X obj 291 326 + 4000;
#X obj 224 326 + 10;
#X obj 320 219 pipe 4000;
#X floatatom 467 197 7 0 0 0 - - -;
#X obj 320 175 sp-bangrandom 10000 20000;
#X obj 320 149 pipe 6500;
#X connect 0 0 1 0;
#X connect 1 0 4 0;
#X connect 2 0 3 0;
#X connect 3 0 1 1;
#X connect 4 0 16 0;
#X connect 5 0 6 0;
#X connect 6 0 13 0;
#X connect 6 0 22 0;
#X connect 6 0 25 0;
#X connect 7 0 8 0;
#X connect 8 0 13 0;
#X connect 8 0 22 0;
#X connect 8 0 25 0;
#X connect 10 0 11 0;
#X connect 10 1 11 1;
#X connect 11 0 9 0;
#X connect 13 0 4 1;
#X connect 13 1 12 0;
#X connect 15 0 4 1;
#X connect 15 1 14 0;
#X connect 16 0 18 0;
#X connect 16 1 17 0;
#X connect 16 2 19 0;
#X connect 17 0 21 0;
#X connect 18 0 10 0;
#X connect 19 0 20 0;
#X connect 20 0 18 2;
#X connect 21 0 18 1;
#X connect 22 0 15 0;
#X connect 24 0 4 1;
#X connect 24 1 23 0;
#X connect 25 0 24 0;
#X restore 35 104 pd process_partA;
#N canvas 579 445 239 155 process_partC 0;
#X obj 31 21 inlet;
#X obj 31 100 outlet;
#X connect 0 0 1 0;
#X restore 68 164 pd process_partC;
#N canvas 531 170 206 333 process_partD 1;
#X obj 31 21 inlet;
#X obj 31 140 t f b;
#X obj 58 169 random;
#X obj 58 198 +;
#X obj 124 181 -;
#X obj 31 238 makenote;
#X obj 31 262 pack f f;
#X obj 88 221 r \$0-durD;
#X obj 91 120 r \$0-randD;
#X obj 124 149 swap 80;
#X text 76 60 B-flat;
#X obj 31 60 sel 58;
#X msg 31 87 58;
#X obj 31 110 + 24;
#X obj 31 289 outlet;
#X connect 0 0 11 0;
#X connect 1 0 5 0;
#X connect 1 1 2 0;
#X connect 2 0 3 0;
#X connect 3 0 5 1;
#X connect 4 0 3 1;
#X connect 5 0 6 0;
#X connect 5 1 6 1;
#X connect 6 0 14 0;
#X connect 7 0 5 2;
#X connect 8 0 2 1;
#X connect 8 0 9 0;
#X connect 9 0 4 0;
#X connect 9 1 4 1;
#X connect 11 0 12 0;
#X connect 12 0 13 0;
#X connect 13 0 1 0;
#X restore 84 192 pd process_partD;
#N canvas 579 445 239 155 process_partE 0;
#X obj 31 21 inlet;
#X obj 31 100 outlet;
#X connect 0 0 1 0;
#X restore 100 274 pd process_partE;
#N canvas 579 445 239 155 process_partF 0;
#X obj 31 21 inlet;
#X obj 31 100 outlet;
#X connect 0 0 1 0;
#X restore 117 302 pd process_partF;
#N canvas 579 445 239 155 process_partG 0;
#X obj 31 21 inlet;
#X obj 31 100 outlet;
#X connect 0 0 1 0;
#X restore 133 334 pd process_partG;
#N canvas 579 445 239 155 process_partH 0;
#X obj 31 21 inlet;
#X obj 31 100 outlet;
#X connect 0 0 1 0;
#X restore 149 362 pd process_partH;
#X obj 19 74 demux . . . . . . . . . .;
#X obj 19 380 outlet main;
#N canvas 54 189 714 488 process_partB 0;
#X obj 31 21 inlet;
#X obj 31 316 outlet;
#X obj 229 21 inlet bar;
#X obj 31 80 t f b;
#X obj 58 159 random;
#X obj 58 188 +;
#X obj 121 171 -;
#X obj 121 149 swap 100;
#X obj 31 268 makenote;
#X obj 31 292 pack f f;
#X obj 91 80 r \$0-randB;
#X obj 108 236 r \$0-durB;
#X connect 0 0 3 0;
#X connect 3 0 8 0;
#X connect 3 1 4 0;
#X connect 4 0 5 0;
#X connect 5 0 8 1;
#X connect 6 0 5 1;
#X connect 7 0 6 0;
#X connect 7 1 6 1;
#X connect 8 0 9 0;
#X connect 8 1 9 1;
#X connect 9 0 1 0;
#X connect 10 0 7 0;
#X connect 10 0 4 1;
#X connect 11 0 8 2;
#X restore 51 134 pd process_partB;
#N canvas 223 223 326 440 main 0;
#X obj 41 31 inlet;
#X obj 41 386 outlet;
#X obj 41 90 t f b;
#X obj 69 169 random;
#X obj 69 198 +;
#X obj 132 181 -;
#X obj 132 159 swap 100;
#X obj 41 338 makenote;
#X obj 41 362 pack f f;
#N canvas 614 319 291 202 dynamics 0;
#X obj 29 27 inlet amp;
#X obj 139 26 inlet bar;
#X obj 139 61 sel 1 49;
#X msg 139 91 1 \, 0.3 3000;
#X obj 139 121 line;
#X msg 227 90 1 2000;
#X obj 29 167 outlet amp;
#X obj 29 138 * 1;
#X connect 0 0 7 0;
#X connect 1 0 2 0;
#X connect 2 0 3 0;
#X connect 2 1 5 0;
#X connect 3 0 4 0;
#X connect 4 0 7 1;
#X connect 5 0 4 0;
#X connect 7 0 6 0;
#X restore 69 250 pd dynamics;
#X obj 102 90 r \$0-randBass;
#X obj 118 306 r \$0-durBass;
#X obj 199 35 inlet bar_number;
#X connect 0 0 2 0;
#X connect 2 0 7 0;
#X connect 2 1 3 0;
#X connect 3 0 4 0;
#X connect 4 0 9 0;
#X connect 5 0 4 1;
#X connect 6 0 5 0;
#X connect 6 1 5 1;
#X connect 7 0 8 0;
#X connect 7 1 8 1;
#X connect 8 0 1 0;
#X connect 9 0 7 1;
#X connect 10 0 6 0;
#X connect 10 0 3 1;
#X connect 11 0 7 2;
#X connect 12 0 9 1;
#X restore 19 325 pd main;
#X obj 84 211 s \$0-partD;
#X obj 19 298 spigot 1;
#X obj 64 276 tgl 15 0 empty empty empty 17 7 0 10 -262144 -1 -1 0
1;
#X connect 0 0 10 1;
#X connect 1 0 3 1;
#X connect 1 0 13 1;
#X connect 2 0 10 0;
#X connect 2 0 15 0;
#X connect 5 0 14 0;
#X connect 10 1 3 0;
#X connect 10 2 12 0;
#X connect 10 3 4 0;
#X connect 10 4 5 0;
#X connect 10 5 6 0;
#X connect 10 6 7 0;
#X connect 10 7 8 0;
#X connect 10 8 9 0;
#X connect 13 0 11 0;
#X connect 15 0 13 0;
#X connect 16 0 15 1;
#X restore 223 247 pd process;
#X obj 223 171 t f f;
#N canvas 501 409 388 297 test_snd~ 0;
#X obj 29 25 inlet;
#X obj 29 76 unpack f f;
#X obj 29 156 mtof;
#X obj 29 185 osc~;
#X obj 29 214 *~;
#X obj 78 197 line~;
#X obj 29 250 outlet~;
#X obj 78 150 / 127;
#X msg 78 174 \$1 20;
#X obj 29 115 + 12;
#X obj 157 57 r \$0-partA;
#X obj 157 90 unpack f f;
#X obj 157 182 osc~;
#X obj 157 212 *~;
#X obj 157 158 mtof;
#X floatatom 233 208 5 0 0 0 - - -;
#X obj 157 121 + 24;
#X obj 204 187 line~;
#X msg 204 163 \$1 1000;
#X obj 205 138 / 200;
#X obj 29 51 spigot 1;
#X obj 289 34 inlet on/off;
#X connect 0 0 20 0;
#X connect 1 0 9 0;
#X connect 1 1 7 0;
#X connect 2 0 3 0;
#X connect 3 0 4 0;
#X connect 4 0 6 0;
#X connect 5 0 4 1;
#X connect 7 0 8 0;
#X connect 8 0 5 0;
#X connect 9 0 2 0;
#X connect 10 0 11 0;
#X connect 11 0 16 0;
#X connect 11 1 19 0;
#X connect 12 0 13 0;
#X connect 13 0 6 0;
#X connect 14 0 12 0;
#X connect 14 0 15 0;
#X connect 16 0 14 0;
#X connect 17 0 13 1;
#X connect 18 0 17 0;
#X connect 19 0 18 0;
#X connect 20 0 1 0;
#X connect 21 0 20 1;
#X restore 223 356 pd test_snd~;
#X obj 223 377 dac~;
#N canvas 306 298 450 300 init 0;
#X obj 33 150 s \$0-durA-r;
#X obj 33 63 loadbang;
#X msg 123 106 20;
#X obj 123 150 s \$0-randA-r;
#X obj 33 24 r \$0-reset;
#X msg 33 106 120;
#X msg 223 106 90;
#X msg 313 106 60;
#X obj 223 150 s \$0-durD-r;
#X obj 313 150 s \$0-randD-r;
#X msg 123 186 20;
#X msg 33 186 120;
#X obj 123 230 s \$0-randBass-r;
#X obj 33 230 s \$0-durBass-r;
#X connect 1 0 5 0;
#X connect 1 0 2 0;
#X connect 1 0 6 0;
#X connect 1 0 7 0;
#X connect 1 0 11 0;
#X connect 1 0 10 0;
#X connect 2 0 3 0;
#X connect 4 0 1 0;
#X connect 5 0 0 0;
#X connect 6 0 8 0;
#X connect 7 0 9 0;
#X connect 10 0 12 0;
#X connect 11 0 13 0;
#X restore 30 461 pd init;
#X obj 493 139 hsl 128 15 10 170 0 0 \$0-durA \$0-durA-r A-duration(ms)
-2 -8 0 10 -262144 -1 -1 8731 1;
#X obj 633 139 nbx 5 15 -1e+37 1e+37 0 0 - \$0-durA empty 0 -8 0 10
-262144 -1 -1 119.997 256;
#X obj 30 391 declare -path ..;
#X obj 493 172 hsl 128 15 1 99 0 0 \$0-randA \$0-randA-r A-randomness(%)
-2 -8 0 10 -262144 -1 -1 2462 1;
#X obj 633 172 nbx 5 15 -1e+37 1e+37 0 0 - \$0-randA empty 0 -8 0 10
-262144 -1 -1 19.9981 256;
#N canvas 348 304 591 232 midi_out 0;
#X obj 41 34 inlet main_in;
#X obj 41 167 noteout 1;
#X obj 131 34 r \$0-partA;
#X obj 131 166 noteout 2;
#X obj 326 33 inlet on/off;
#X obj 41 94 spigot 1;
#X obj 131 94 spigot 1;
#X obj 201 94 spigot 1;
#X obj 201 34 r \$0-partD;
#X obj 201 166 noteout 5;
#X connect 0 0 5 0;
#X connect 2 0 6 0;
#X connect 4 0 5 1;
#X connect 4 0 6 1;
#X connect 4 0 7 1;
#X connect 5 0 1 0;
#X connect 6 0 3 0;
#X connect 7 0 9 0;
#X connect 8 0 7 0;
#X restore 353 326 pd midi_out;
#X obj 136 34 bng 40 250 50 0 \$0-reset \$0-reset-r RESET 7 20 0 10
-261682 -13381 -1;
#X obj 416 304 tgl 15 0 empty empty empty 17 7 0 10 -262144 -1 -1 0
1;
#X obj 292 334 tgl 15 0 empty empty empty 17 7 0 10 -262144 -1 -1 0
1;
#X obj 204 44 nbx 3 30 0 300 0 0 \$0-goto-bar \$0-goto-bar-r Bar 0
-12 0 20 -262144 -1 -1 1 256;
#N canvas 213 463 450 300 osc 0;
#X obj 154 203 packOSC;
#X obj 154 237 udpsend;
#X msg 246 220 connect 127.0.0.1 9001;
#X obj 246 195 loadbang;
#N canvas 305 254 262 242 letters 0;
#X msg 35 96 A;
#X msg 57 126 B;
#X msg 80 96 C;
#X msg 103 126 D;
#X msg 126 96 E;
#X msg 149 126 F;
#X msg 172 96 G;
#X msg 195 126 H;
#X obj 105 172 symbol;
#X obj 35 20 inlet;
#X obj 105 201 outlet;
#X obj 35 62 sel 1 50 99 146 197 246 295 344;
#X connect 0 0 8 0;
#X connect 1 0 8 0;
#X connect 2 0 8 0;
#X connect 3 0 8 0;
#X connect 4 0 8 0;
#X connect 5 0 8 0;
#X connect 6 0 8 0;
#X connect 7 0 8 0;
#X connect 8 0 10 0;
#X connect 9 0 11 0;
#X connect 11 0 0 0;
#X connect 11 1 1 0;
#X connect 11 2 2 0;
#X connect 11 3 3 0;
#X connect 11 4 4 0;
#X connect 11 5 5 0;
#X connect 11 6 6 0;
#X connect 11 7 7 0;
#X restore 172 61 pd letters;
#X obj 154 20 inlet bar_numbers;
#X obj 154 262 outlet;
#X msg 302 102 disconnect;
#X obj 87 23 tgl 15 0 empty empty empty 17 7 0 10 -262144 -1 -1 0 1
;
#X obj 246 62 sel 1 0;
#X obj 154 145 spigot;
#X obj 286 19 inlet beats;
#X msg 154 169 send /visual \$1 \$2 \$3;
#X obj 154 122 pack f f s;
#X connect 0 0 1 0;
#X connect 1 0 6 0;
#X connect 2 0 1 0;
#X connect 3 0 2 0;
#X connect 4 0 13 2;
#X connect 5 0 4 0;
#X connect 5 0 13 1;
#X connect 7 0 1 0;
#X connect 8 0 9 0;
#X connect 8 0 10 1;
#X connect 9 0 3 0;
#X connect 9 1 7 0;
#X connect 10 0 12 0;
#X connect 11 0 13 0;
#X connect 12 0 0 0;
#X connect 13 0 10 0;
#X coords 0 -1 1 1 85 21 1 20 20;
#X restore 352 276 pd osc;
#X obj 493 229 hsl 128 15 10 2000 0 0 \$0-durD \$0-durD-r D-duration(ms)
-2 -8 0 10 -262144 -1 -1 511 1;
#X obj 633 229 nbx 5 15 -1e+37 1e+37 0 0 - \$0-durD empty 0 -8 0 10
-262144 -1 -1 90.0701 256;
#X obj 493 262 hsl 128 15 1 99 0 0 \$0-randD \$0-randD-r D-randomness(%)
-2 -8 0 10 -262144 -1 -1 7646 1;
#X obj 633 262 nbx 5 15 -1e+37 1e+37 0 0 - \$0-randD empty 0 -8 0 10
-262144 -1 -1 60.0006 256;
#X obj 39 146 hradio 18 1 0 8 empty empty ABCDEFGH 4 -12 1 25 -262144
-1 -1 0;
#N canvas 210 334 450 300 letters 0;
#X obj 46 32 inlet;
#X obj 46 58 sel 0 1 2 3 4 5 6 7 8;
#X msg 46 105 1;
#X obj 46 180 s \$0-goto-bar-r;
#X msg 59 132 50;
#X msg 79 105 99;
#X msg 93 132 148;
#X msg 112 105 197;
#X msg 126 132 246;
#X msg 146 105 295;
#X msg 161 132 344;
#X connect 0 0 1 0;
#X connect 1 0 2 0;
#X connect 1 1 4 0;
#X connect 1 2 5 0;
#X connect 1 3 6 0;
#X connect 1 4 7 0;
#X connect 1 5 8 0;
#X connect 1 6 9 0;
#X connect 1 7 10 0;
#X connect 2 0 3 0;
#X connect 4 0 3 0;
#X connect 5 0 3 0;
#X connect 6 0 3 0;
#X connect 7 0 3 0;
#X connect 8 0 3 0;
#X connect 9 0 3 0;
#X connect 10 0 3 0;
#X restore 39 172 pd letters;
#X obj 493 39 hsl 128 15 10 170 0 0 \$0-durBass \$0-durBass-r Bass-duration(ms)
-2 -8 0 10 -262144 -1 -1 8731 1;
#X obj 633 39 nbx 5 15 -1e+37 1e+37 0 0 - \$0-durBass empty 0 -8 0
10 -262144 -1 -1 119.997 256;
#X obj 493 72 hsl 128 15 1 99 0 0 \$0-randBass \$0-randBass-r Bass-randomness(%)
-2 -8 0 10 -262144 -1 -1 2462 1;
#X obj 633 72 nbx 5 15 -1e+37 1e+37 0 0 - \$0-randBass empty 0 -8 0
10 -262144 -1 -1 19.9981 256;
#N canvas 197 443 262 138 midi 0;
#X obj 38 34 ctlin 41;
#X obj 38 60 sel 127;
#X obj 38 87 s \$0-start-r;
#X obj 128 60 sel 127;
#X obj 128 34 ctlin 42;
#X obj 128 87 s \$0-stop-r;
#X connect 0 0 1 0;
#X connect 1 0 2 0;
#X connect 3 0 5 0;
#X connect 4 0 3 0;
#X restore 30 356 pd midi;
#X connect 1 0 9 0;
#X connect 4 0 7 0;
#X connect 4 0 8 1;
#X connect 4 1 6 0;
#X connect 4 1 8 2;
#X connect 4 1 23 0;
#X connect 4 2 5 0;
#X connect 4 2 23 1;
#X connect 8 0 10 0;
#X connect 8 0 18 0;
#X connect 9 0 8 0;
#X connect 9 1 4 0;
#X connect 10 0 11 0;
#X connect 10 0 11 1;
#X connect 20 0 18 1;
#X connect 21 0 10 1;
#X connect 28 0 29 0;
