#N canvas 71 73 851 608 10;
#X declare -lib mrpeach;
#X declare -path ..;
#X obj 48 526 import mrpeach;
#N canvas 410 248 474 382 midi.rzhevski 0;
#X obj 36 31 loadbang;
#X obj 36 214 repack 3;
#X obj 36 239 route 145;
#X obj 36 264 stripnote;
#X obj 36 289 outlet note;
#X obj 117 289 outlet velocity;
#X obj 128 30 r \$0-start;
#X obj 207 30 r \$0-stop;
#X obj 291 31 r \$0-goto-bar;
#X msg 36 96 read rzhevski2.mid;
#X obj 36 189 midifile;
#X obj 72 172 metro 1.5;
#X msg 123 123 82;
#X text 135 171 480 ticks per quater;
#X text 156 123 bpm;
#X msg 207 65 0;
#X msg 128 66 1;
#X obj 123 145 expr (60/$f1) / 480 * 1000;
#X obj 291 62 expr $f1 * 4 * 480;
#X obj 327 165 r \$0-stop;
#X msg 327 190 1;
#X obj 327 220 s \$0-goto-bar-r;
#X obj 232 289 outlet end;
#X obj 144 206 route bang;
#X obj 144 231 b;
#X connect 0 0 9 0;
#X connect 0 0 12 0;
#X connect 1 0 2 0;
#X connect 2 0 3 0;
#X connect 3 0 4 0;
#X connect 3 1 5 0;
#X connect 6 0 16 0;
#X connect 7 0 15 0;
#X connect 8 0 18 0;
#X connect 9 0 10 0;
#X connect 10 0 1 0;
#X connect 10 2 23 0;
#X connect 11 0 10 0;
#X connect 12 0 17 0;
#X connect 15 0 11 0;
#X connect 16 0 11 0;
#X connect 17 0 11 1;
#X connect 18 0 10 0;
#X connect 19 0 20 0;
#X connect 20 0 21 0;
#X connect 23 0 24 0;
#X connect 24 0 22 0;
#X restore 321 142 pd midi.rzhevski;
#X obj 36 34 bng 40 250 50 0 \$0-start \$0-start-r START 7 20 0 10
-204786 -13381 -1;
#X obj 86 34 bng 40 250 50 0 \$0-stop \$0-stop-r STOP 9 20 0 10 -99865
-13381 -262144;
#N canvas 39 206 342 332 counter 0;
#X obj 36 28 inlet;
#X obj 36 59 b;
#X obj 93 28 r \$0-stop;
#X obj 75 103 + 1;
#X obj 36 138 div 16;
#X obj 146 283 outlet bar;
#X obj 244 283 outlet beat;
#X obj 244 140 div 4;
#X obj 244 166 % 4;
#X msg 93 54 1;
#X obj 36 103 f 1;
#X msg 146 248 0;
#X obj 244 192 + 1;
#X obj 36 165 + 1;
#X obj 36 284 outlet part;
#X obj 177 29 r \$0-goto-bar;
#X obj 177 76 * 16;
#X obj 177 51 - 1;
#N canvas 394 120 654 403 parts 0;
#X obj 39 30 inlet bar;
#X obj 78 294 outlet part;
#X obj 78 84 moses 50;
#X obj 123 101 moses 99;
#X obj 168 118 moses 146;
#X obj 219 135 moses 197;
#X obj 270 152 moses 246;
#X obj 321 169 moses 295;
#X obj 372 186 moses 344;
#X msg 78 145 1;
#X msg 123 145 2;
#X msg 168 179 3;
#X msg 219 179 4;
#X msg 270 213 5;
#X msg 321 213 6;
#X msg 372 235 7;
#X obj 78 110 b;
#X obj 123 118 b;
#X obj 168 135 b;
#X obj 219 152 b;
#X obj 270 169 b;
#X obj 321 186 b;
#X obj 372 203 b;
#X obj 78 252 change;
#X msg 423 235 8;
#X obj 423 203 b;
#X obj 39 57 moses 1;
#X msg 39 145 0;
#X obj 151 30 r \$0-stop;
#X connect 0 0 26 0;
#X connect 2 0 16 0;
#X connect 2 1 3 0;
#X connect 3 0 17 0;
#X connect 3 1 4 0;
#X connect 4 0 18 0;
#X connect 4 1 5 0;
#X connect 5 0 19 0;
#X connect 5 1 6 0;
#X connect 6 0 20 0;
#X connect 6 1 7 0;
#X connect 7 0 21 0;
#X connect 7 1 8 0;
#X connect 8 0 22 0;
#X connect 8 1 25 0;
#X connect 9 0 23 0;
#X connect 10 0 23 0;
#X connect 11 0 23 0;
#X connect 12 0 23 0;
#X connect 13 0 23 0;
#X connect 14 0 23 0;
#X connect 15 0 23 0;
#X connect 16 0 9 0;
#X connect 17 0 10 0;
#X connect 18 0 11 0;
#X connect 19 0 12 0;
#X connect 20 0 13 0;
#X connect 21 0 14 0;
#X connect 22 0 15 0;
#X connect 23 0 1 0;
#X connect 24 0 23 0;
#X connect 25 0 24 0;
#X connect 26 0 27 0;
#X connect 26 1 2 0;
#X connect 27 0 23 0;
#X connect 28 0 27 0;
#X restore 36 215 pd parts;
#X connect 0 0 1 0;
#X connect 1 0 10 0;
#X connect 2 0 9 0;
#X connect 2 0 11 0;
#X connect 3 0 10 1;
#X connect 4 0 13 0;
#X connect 7 0 8 0;
#X connect 8 0 12 0;
#X connect 9 0 10 1;
#X connect 10 0 3 0;
#X connect 10 0 4 0;
#X connect 10 0 7 0;
#X connect 11 0 6 0;
#X connect 11 0 5 0;
#X connect 11 0 14 0;
#X connect 12 0 6 0;
#X connect 13 0 5 0;
#X connect 13 0 18 0;
#X connect 15 0 17 0;
#X connect 16 0 10 1;
#X connect 17 0 16 0;
#X connect 18 0 14 0;
#X restore 348 207 pd counter;
#X floatatom 494 224 5 0 0 0 - - -;
#X floatatom 455 224 5 0 0 0 - - -;
#X floatatom 418 224 5 0 0 0 - - -;
#N canvas 663 107 443 447 process 0;
#X obj 166 27 inlet part;
#X obj 269 27 inlet bar;
#X obj 19 27 inlet notes;
#N canvas 157 122 714 488 process_partA 0;
#X obj 31 21 inlet;
#X obj 196 73 spigot;
#X obj 229 21 inlet bar;
#X obj 229 48 > 2;
#N canvas 562 307 232 209 catch 0;
#X obj 28 28 inlet note stream;
#X obj 28 99 spigot;
#X obj 28 132 t f b;
#X msg 79 82 0;
#X obj 28 166 outlet note;
#X obj 155 28 inlet;
#X msg 155 82 1;
#X obj 155 56 b;
#X connect 0 0 1 0;
#X connect 1 0 2 0;
#X connect 2 0 4 0;
#X connect 2 1 3 0;
#X connect 3 0 1 1;
#X connect 5 0 7 0;
#X connect 6 0 1 1;
#X connect 7 0 6 0;
#X restore 196 262 pd catch;
#X obj 320 22 r \$0-start;
#X msg 320 45 1;
#X obj 475 22 r \$0-stop;
#X msg 475 45 0;
#X obj 196 432 s \$0-partA;
#X obj 196 376 makenote;
#X obj 196 404 pack f f;
#X floatatom 467 127 7 0 0 0 - - -;
#X obj 320 95 sp-bangrandom 10000 20000;
#X floatatom 467 267 7 0 0 0 - - -;
#X obj 320 245 sp-bangrandom 10000 20000;
#X obj 196 283 t f b b;
#X obj 196 347 pack f f f;
#X obj 320 219 pipe 4000;
#X floatatom 467 197 7 0 0 0 - - -;
#X obj 320 175 sp-bangrandom 10000 20000;
#X obj 320 149 pipe 6500;
#X obj 21 130 ctlin 66;
#X msg 82 266 48;
#X obj 21 204 random 5;
#X msg 112 266 50;
#X msg 142 266 53;
#X obj 21 226 sel 0 1 2 3 4;
#X msg 51 266 46;
#X msg 21 266 43;
#X obj 21 151 == 127;
#X obj 21 176 sel 1;
#X obj 309 330 sp-randrange 4000 8000;
#X obj 224 310 sp-randrange 10 40;
#X obj 111 151 == 127;
#X obj 111 176 sel 1;
#X text 24 107 NK Record 3;
#X obj 111 130 ctlin 34;
#X text 112 108 NK Solo 3;
#X connect 0 0 1 0;
#X connect 1 0 4 0;
#X connect 2 0 3 0;
#X connect 3 0 1 1;
#X connect 4 0 16 0;
#X connect 5 0 6 0;
#X connect 6 0 13 0;
#X connect 6 0 18 0;
#X connect 6 0 21 0;
#X connect 7 0 8 0;
#X connect 8 0 13 0;
#X connect 8 0 18 0;
#X connect 8 0 21 0;
#X connect 10 0 11 0;
#X connect 10 1 11 1;
#X connect 11 0 9 0;
#X connect 13 0 4 1;
#X connect 13 1 12 0;
#X connect 15 0 4 1;
#X connect 15 1 14 0;
#X connect 16 0 17 0;
#X connect 16 1 33 0;
#X connect 16 2 32 0;
#X connect 17 0 10 0;
#X connect 18 0 15 0;
#X connect 20 0 4 1;
#X connect 20 1 19 0;
#X connect 21 0 20 0;
#X connect 22 0 30 0;
#X connect 23 0 16 0;
#X connect 24 0 27 0;
#X connect 25 0 16 0;
#X connect 26 0 16 0;
#X connect 27 0 29 0;
#X connect 27 1 28 0;
#X connect 27 2 23 0;
#X connect 27 3 25 0;
#X connect 27 4 26 0;
#X connect 28 0 16 0;
#X connect 29 0 16 0;
#X connect 30 0 31 0;
#X connect 31 0 24 0;
#X connect 32 0 17 2;
#X connect 33 0 17 1;
#X connect 34 0 35 0;
#X connect 35 0 4 1;
#X connect 37 0 34 0;
#X restore 35 104 pd process_partA;
#N canvas 255 138 634 506 process_partC 0;
#X obj 46 41 inlet;
#N canvas 562 307 232 209 catch 0;
#X obj 28 28 inlet note stream;
#X obj 28 99 spigot;
#X obj 28 132 t f b;
#X msg 79 82 0;
#X obj 28 166 outlet note;
#X obj 155 28 inlet;
#X msg 155 82 1;
#X obj 155 56 b;
#X connect 0 0 1 0;
#X connect 1 0 2 0;
#X connect 2 0 4 0;
#X connect 2 1 3 0;
#X connect 3 0 1 1;
#X connect 5 0 7 0;
#X connect 6 0 1 1;
#X connect 7 0 6 0;
#X restore 46 222 pd catch;
#X obj 170 42 r \$0-start;
#X msg 170 65 1;
#X obj 325 42 r \$0-stop;
#X msg 325 65 0;
#X obj 46 396 makenote;
#X obj 46 424 pack f f;
#X floatatom 311 147 7 0 0 0 - - -;
#X floatatom 311 287 7 0 0 0 - - -;
#X obj 46 303 t f b b;
#X obj 46 367 pack f f f;
#X floatatom 311 217 7 0 0 0 - - -;
#X obj 65 330 sp-randrange 10 60;
#X obj 170 115 sp-bangrandom 5000 10000;
#X obj 170 169 pipe 2000;
#X obj 170 239 pipe 3000;
#X obj 170 265 sp-bangrandom 5000 10000;
#X obj 170 195 sp-bangrandom 5000 10000;
#X obj 46 452 s \$0-partC;
#X msg 13 282 48;
#X obj 133 350 sp-randrange 1500 3000;
#X obj 46 253 + 0;
#X msg 452 376 48;
#X obj 391 314 random 5;
#X msg 482 376 50;
#X msg 512 376 53;
#X obj 391 336 sel 0 1 2 3 4;
#X msg 421 376 46;
#X msg 391 376 43;
#X obj 391 261 == 127;
#X obj 391 286 sel 1;
#X obj 391 403 f;
#X obj 391 240 ctlin 68;
#X text 394 217 NK Record 5;
#X connect 0 0 1 0;
#X connect 1 0 22 0;
#X connect 2 0 3 0;
#X connect 3 0 14 0;
#X connect 3 0 16 0;
#X connect 3 0 17 0;
#X connect 4 0 5 0;
#X connect 5 0 14 0;
#X connect 5 0 15 0;
#X connect 5 0 16 0;
#X connect 6 0 7 0;
#X connect 6 1 7 1;
#X connect 7 0 19 0;
#X connect 10 0 11 0;
#X connect 10 1 13 0;
#X connect 10 2 21 0;
#X connect 11 0 6 0;
#X connect 13 0 11 1;
#X connect 14 0 1 1;
#X connect 14 1 8 0;
#X connect 15 0 18 0;
#X connect 16 0 17 0;
#X connect 17 0 1 1;
#X connect 17 1 9 0;
#X connect 18 0 1 1;
#X connect 18 1 12 0;
#X connect 20 0 10 0;
#X connect 21 0 11 2;
#X connect 22 0 10 0;
#X connect 23 0 32 0;
#X connect 24 0 27 0;
#X connect 25 0 32 0;
#X connect 26 0 32 0;
#X connect 27 0 29 0;
#X connect 27 1 28 0;
#X connect 27 2 23 0;
#X connect 27 3 25 0;
#X connect 27 4 26 0;
#X connect 28 0 32 0;
#X connect 29 0 32 0;
#X connect 30 0 31 0;
#X connect 31 0 24 0;
#X connect 32 0 10 0;
#X connect 33 0 30 0;
#X restore 68 164 pd process_partC;
#N canvas 156 190 380 468 process_partD 0;
#X obj 31 21 inlet;
#X obj 31 328 makenote;
#X obj 31 352 pack f f;
#X text 76 150 B-flat;
#X obj 31 150 sel 58;
#X msg 31 177 58;
#X obj 31 379 outlet;
#X obj 53 258 sp-randrange 30 70;
#X obj 31 230 t f b b b;
#X obj 76 288 sp-randrange 500 1000;
#X obj 31 126 spigot;
#X obj 178 19 r \$0-start;
#X msg 178 42 1;
#X obj 248 19 r \$0-stop;
#X msg 248 42 0;
#X obj 64 95 tgl 15 0 empty empty empty 17 7 0 10 -262144 -1 -1 1 1
;
#X obj 178 78 sp-bangrandom 500 1000;
#X obj 31 200 + 24;
#X obj 193 139 ctlin 69;
#X obj 193 160 sel 127;
#X connect 0 0 10 0;
#X connect 1 0 2 0;
#X connect 1 1 2 1;
#X connect 2 0 6 0;
#X connect 4 0 5 0;
#X connect 5 0 17 0;
#X connect 7 0 1 1;
#X connect 8 0 1 0;
#X connect 8 1 7 0;
#X connect 8 2 9 0;
#X connect 9 0 1 2;
#X connect 10 0 4 0;
#X connect 11 0 12 0;
#X connect 12 0 16 0;
#X connect 13 0 14 0;
#X connect 14 0 16 0;
#X connect 15 0 10 1;
#X connect 16 0 15 0;
#X connect 17 0 8 0;
#X connect 18 0 19 0;
#X connect 19 0 5 0;
#X restore 84 192 pd process_partD;
#N canvas 579 445 239 155 process_partE 0;
#X obj 31 21 inlet;
#X obj 31 100 outlet;
#X connect 0 0 1 0;
#X restore 100 274 pd process_partE;
#N canvas 579 445 239 155 process_partF 0;
#X obj 31 21 inlet;
#X obj 31 100 outlet;
#X connect 0 0 1 0;
#X restore 117 302 pd process_partF;
#N canvas 579 445 239 155 process_partG 0;
#X obj 31 21 inlet;
#X obj 31 100 outlet;
#X connect 0 0 1 0;
#X restore 133 334 pd process_partG;
#N canvas 579 445 239 155 process_partH 0;
#X obj 31 21 inlet;
#X obj 31 100 outlet;
#X connect 0 0 1 0;
#X restore 149 362 pd process_partH;
#X obj 19 74 demux . . . . . . . . . .;
#X obj 19 380 outlet main;
#N canvas 683 214 466 465 process_partB 0;
#X obj 31 27 inlet;
#X obj 31 324 makenote;
#X obj 31 348 pack f f;
#X obj 31 55 sel 43;
#X text 76 56 low G;
#X obj 31 375 s \$0-partB;
#X obj 88 307 r \$0-durB;
#X obj 31 244 spigot;
#X obj 128 29 r \$0-start;
#X msg 128 52 1;
#X obj 198 29 r \$0-stop;
#X msg 198 52 0;
#X obj 128 229 tgl 15 0 empty empty empty 17 7 0 10 -262144 -1 -1 1
1;
#X obj 31 160 pack f f;
#X obj 31 90 t b b;
#X msg 79 73 b;
#X msg 31 117 55;
#X obj 76 131 sp-randrange 100 120;
#X obj 128 88 sp-bangrandom 500 1000;
#X obj 321 121 == 127;
#X obj 321 146 sel 1;
#X obj 321 100 ctlin 67;
#X text 324 77 NK Record 4;
#X msg 321 176 55 2000;
#X connect 0 0 3 0;
#X connect 1 0 2 0;
#X connect 1 1 2 1;
#X connect 2 0 5 0;
#X connect 3 0 14 0;
#X connect 6 0 1 2;
#X connect 7 0 1 0;
#X connect 8 0 9 0;
#X connect 9 0 18 0;
#X connect 10 0 11 0;
#X connect 11 0 18 0;
#X connect 12 0 7 1;
#X connect 13 0 7 0;
#X connect 14 0 16 0;
#X connect 14 1 17 0;
#X connect 15 0 14 0;
#X connect 16 0 13 0;
#X connect 17 0 13 1;
#X connect 18 0 12 0;
#X connect 19 0 20 0;
#X connect 20 0 23 0;
#X connect 21 0 19 0;
#X connect 23 0 1 0;
#X restore 51 134 pd process_partB;
#N canvas 142 229 326 440 main 1;
#X obj 41 31 inlet;
#X obj 41 386 outlet;
#X obj 41 90 t f b;
#X obj 69 169 random;
#X obj 69 198 +;
#X obj 132 181 -;
#X obj 132 159 swap 100;
#X obj 41 338 makenote;
#X obj 41 362 pack f f;
#N canvas 614 319 291 202 dynamics 1;
#X obj 29 27 inlet amp;
#X obj 139 26 inlet bar;
#X obj 139 61 sel 1 49;
#X obj 139 121 line;
#X msg 227 90 1 2000;
#X obj 29 167 outlet amp;
#X obj 29 138 * 1;
#X msg 139 91 1 \, 0.7 3000;
#X connect 0 0 6 0;
#X connect 1 0 2 0;
#X connect 2 0 7 0;
#X connect 2 1 4 0;
#X connect 3 0 6 1;
#X connect 4 0 3 0;
#X connect 6 0 5 0;
#X connect 7 0 3 0;
#X restore 69 250 pd dynamics;
#X obj 102 90 r \$0-randBass;
#X obj 118 306 r \$0-durBass;
#X obj 199 35 inlet bar_number;
#X connect 0 0 2 0;
#X connect 2 0 7 0;
#X connect 2 1 3 0;
#X connect 3 0 4 0;
#X connect 4 0 9 0;
#X connect 5 0 4 1;
#X connect 6 0 5 0;
#X connect 6 1 5 1;
#X connect 7 0 8 0;
#X connect 7 1 8 1;
#X connect 8 0 1 0;
#X connect 9 0 7 1;
#X connect 10 0 6 0;
#X connect 10 0 3 1;
#X connect 11 0 7 2;
#X connect 12 0 9 1;
#X restore 19 325 pd main;
#X obj 84 211 s \$0-partD;
#X obj 19 298 spigot 1;
#X obj 64 276 tgl 15 0 empty empty empty 17 7 0 10 -262144 -1 -1 0
1;
#X connect 0 0 10 1;
#X connect 1 0 3 1;
#X connect 1 0 13 1;
#X connect 2 0 10 0;
#X connect 2 0 15 0;
#X connect 5 0 14 0;
#X connect 10 1 3 0;
#X connect 10 2 12 0;
#X connect 10 3 4 0;
#X connect 10 4 5 0;
#X connect 10 5 6 0;
#X connect 10 6 7 0;
#X connect 10 7 8 0;
#X connect 10 8 9 0;
#X connect 13 0 11 0;
#X connect 15 0 13 0;
#X connect 16 0 15 1;
#X restore 321 247 pd process;
#X obj 321 171 t f f;
#N canvas 501 409 388 297 test_snd~ 0;
#X obj 29 25 inlet;
#X obj 29 76 unpack f f;
#X obj 29 156 mtof;
#X obj 29 185 osc~;
#X obj 29 214 *~;
#X obj 78 197 line~;
#X obj 29 250 outlet~;
#X obj 78 150 / 127;
#X msg 78 174 \$1 20;
#X obj 29 115 + 12;
#X obj 157 57 r \$0-partA;
#X obj 157 90 unpack f f;
#X obj 157 182 osc~;
#X obj 157 212 *~;
#X obj 157 158 mtof;
#X floatatom 233 208 5 0 0 0 - - -;
#X obj 157 121 + 24;
#X obj 204 187 line~;
#X msg 204 163 \$1 1000;
#X obj 205 138 / 200;
#X obj 29 51 spigot 1;
#X obj 289 34 inlet on/off;
#X connect 0 0 20 0;
#X connect 1 0 9 0;
#X connect 1 1 7 0;
#X connect 2 0 3 0;
#X connect 3 0 4 0;
#X connect 4 0 6 0;
#X connect 5 0 4 1;
#X connect 7 0 8 0;
#X connect 8 0 5 0;
#X connect 9 0 2 0;
#X connect 10 0 11 0;
#X connect 11 0 16 0;
#X connect 11 1 19 0;
#X connect 12 0 13 0;
#X connect 13 0 6 0;
#X connect 14 0 12 0;
#X connect 14 0 15 0;
#X connect 16 0 14 0;
#X connect 17 0 13 1;
#X connect 18 0 17 0;
#X connect 19 0 18 0;
#X connect 20 0 1 0;
#X connect 21 0 20 1;
#X restore 321 356 pd test_snd~;
#X obj 321 377 dac~;
#N canvas 306 298 285 286 init 0;
#X obj 33 150 s \$0-durA-r;
#X obj 33 63 loadbang;
#X msg 123 106 20;
#X obj 123 150 s \$0-randA-r;
#X obj 33 24 r \$0-reset;
#X msg 123 186 20;
#X obj 123 230 s \$0-randBass-r;
#X obj 33 230 s \$0-durBass-r;
#X msg 33 106 135;
#X obj 183 104 s \$0-durB-r;
#X msg 33 186 160;
#X msg 183 80 500;
#X connect 1 0 8 0;
#X connect 1 0 2 0;
#X connect 1 0 10 0;
#X connect 1 0 5 0;
#X connect 1 0 11 0;
#X connect 2 0 3 0;
#X connect 4 0 1 0;
#X connect 5 0 6 0;
#X connect 8 0 0 0;
#X connect 10 0 7 0;
#X connect 11 0 9 0;
#X restore 48 561 pd init;
#X obj 613 152 hsl 128 15 10 170 0 0 \$0-durA \$0-durA-r A-duration(ms)
-2 -8 0 10 -262144 -1 -1 9922 1;
#X obj 753 152 nbx 5 15 -1e+37 1e+37 0 0 - \$0-durA empty 0 -8 0 10
-262144 -1 -1 135.002 256;
#X obj 48 491 declare -path ..;
#X obj 613 185 hsl 128 15 1 99 0 0 \$0-randA \$0-randA-r A-randomness(%)
-2 -8 0 10 -262144 -1 -1 2462 1;
#X obj 753 185 nbx 5 15 -1e+37 1e+37 0 0 - \$0-randA empty 0 -8 0 10
-262144 -1 -1 19.9981 256;
#N canvas 348 304 757 261 midi_out 0;
#X obj 41 34 inlet main_in;
#X obj 41 167 noteout 1;
#X obj 131 34 r \$0-partA;
#X obj 131 166 noteout 2;
#X obj 516 33 inlet on/off;
#X obj 41 94 spigot 1;
#X obj 131 94 spigot 1;
#X obj 342 94 spigot 1;
#X obj 342 34 r \$0-partD;
#X obj 342 166 noteout 5;
#X obj 201 94 spigot 1;
#X obj 201 34 r \$0-partB;
#X obj 201 166 noteout 3;
#X obj 271 94 spigot 1;
#X obj 271 34 r \$0-partC;
#X obj 271 166 noteout 4;
#X connect 0 0 5 0;
#X connect 2 0 6 0;
#X connect 4 0 5 1;
#X connect 4 0 6 1;
#X connect 4 0 7 1;
#X connect 4 0 10 1;
#X connect 4 0 13 1;
#X connect 5 0 1 0;
#X connect 6 0 3 0;
#X connect 7 0 9 0;
#X connect 8 0 7 0;
#X connect 10 0 12 0;
#X connect 11 0 10 0;
#X connect 13 0 15 0;
#X connect 14 0 13 0;
#X restore 451 326 pd midi_out;
#X obj 136 34 bng 40 250 50 0 \$0-reset \$0-reset-r RESET 7 20 0 10
-261682 -13381 -1;
#X obj 514 304 tgl 15 0 empty empty empty 17 7 0 10 -262144 -1 -1 1
1;
#X obj 390 334 tgl 15 0 empty empty empty 17 7 0 10 -262144 -1 -1 0
1;
#X obj 204 44 nbx 3 30 0 393 0 0 \$0-goto-bar \$0-goto-bar-r Bar 0
-12 0 20 -262144 -1 -1 1 256;
#N canvas 267 101 481 392 osc 0;
#X obj 154 203 packOSC;
#X obj 154 237 udpsend;
#X msg 246 220 connect 127.0.0.1 9001;
#X obj 246 195 loadbang;
#X obj 199 20 inlet bar_numbers;
#X msg 352 152 disconnect;
#X obj 87 23 tgl 15 0 empty empty empty 17 7 0 10 -262144 -1 -1 1 1
;
#X obj 336 19 inlet beats;
#X obj 154 122 pack f f;
#X msg 154 169 send /visual \$1 \$2;
#X obj 154 260 sel 0;
#X obj 154 284 del 1000;
#X connect 0 0 1 0;
#X connect 1 0 10 0;
#X connect 1 0 6 0;
#X connect 2 0 1 0;
#X connect 3 0 2 0;
#X connect 4 0 8 1;
#X connect 5 0 1 0;
#X connect 7 0 8 0;
#X connect 8 0 9 0;
#X connect 9 0 0 0;
#X connect 10 0 11 0;
#X connect 11 0 3 0;
#X coords 0 -1 1 1 85 21 1 20 20;
#X restore 450 276 pd osc;
#X obj 37 146 hradio 18 1 0 8 empty empty ABCDEFGH 4 -12 1 25 -262144
-1 -1 0;
#N canvas 210 334 450 300 letters 0;
#X obj 46 32 inlet;
#X obj 46 58 sel 0 1 2 3 4 5 6 7 8;
#X msg 46 105 1;
#X obj 46 180 s \$0-goto-bar-r;
#X msg 59 132 50;
#X msg 79 105 99;
#X msg 93 132 148;
#X msg 112 105 197;
#X msg 126 132 246;
#X msg 146 105 295;
#X msg 161 132 344;
#X connect 0 0 1 0;
#X connect 1 0 2 0;
#X connect 1 1 4 0;
#X connect 1 2 5 0;
#X connect 1 3 6 0;
#X connect 1 4 7 0;
#X connect 1 5 8 0;
#X connect 1 6 9 0;
#X connect 1 7 10 0;
#X connect 2 0 3 0;
#X connect 4 0 3 0;
#X connect 5 0 3 0;
#X connect 6 0 3 0;
#X connect 7 0 3 0;
#X connect 8 0 3 0;
#X connect 9 0 3 0;
#X connect 10 0 3 0;
#X restore 37 172 pd letters;
#X obj 613 52 hsl 128 15 10 180 0 0 \$0-durBass \$0-durBass-r Bass-duration(ms)
-2 -8 0 10 -262144 -1 -1 11406 1;
#X obj 753 52 nbx 5 15 -1e+37 1e+37 0 0 - \$0-durBass empty 0 -8 0
10 -262144 -1 -1 162.679 256;
#X obj 613 85 hsl 128 15 1 99 0 0 \$0-randBass \$0-randBass-r Bass-randomness(%)
-2 -8 0 10 -262144 -1 -1 400 1;
#X obj 753 85 nbx 5 15 -1e+37 1e+37 0 0 - \$0-randBass empty 0 -8 0
10 -262144 -1 -1 4.08661 256;
#N canvas 197 443 262 138 midi 0;
#X obj 38 34 ctlin 41;
#X obj 38 60 sel 127;
#X obj 38 87 s \$0-start-r;
#X obj 128 60 sel 127;
#X obj 128 34 ctlin 42;
#X obj 128 87 s \$0-stop-r;
#X connect 0 0 1 0;
#X connect 1 0 2 0;
#X connect 3 0 5 0;
#X connect 4 0 3 0;
#X restore 48 456 pd midi;
#X text 36 205 1: Check MIDI output to IAC Bus 1;
#X text 36 225 2: Check MIDI input from KORG Nano;
#X text 36 245 3: Run Visual Metronome;
#X text 36 265 4: Check OSC connection;
#X text 36 285 5: Run CSound;
#N canvas 388 113 177 227 shoot 0;
#X obj 30 46 inlet;
#X obj 30 151 makenote;
#X obj 30 181 noteout 16;
#X obj 97 46 r \$0-stop;
#X msg 97 68 stop;
#X msg 30 119 40 127 1000;
#X obj 30 85 del 2000;
#X connect 0 0 6 0;
#X connect 1 0 2 0;
#X connect 1 1 2 1;
#X connect 3 0 4 0;
#X connect 4 0 6 0;
#X connect 5 0 1 0;
#X connect 6 0 5 0;
#X restore 414 170 pd shoot;
#N canvas 659 228 282 302 noize 0;
#X obj 30 261 noteout 10;
#X obj 30 177 sel 1 0;
#X msg 30 207 60 100;
#X msg 82 208 60 0;
#X obj 30 153 tgl 15 0 empty empty empty 17 7 0 10 -262144 -1 -1 0
1;
#X obj 96 65 r \$0-stop;
#X msg 30 86 0;
#X obj 30 45 inlet;
#X obj 79 132 == 127;
#X obj 79 110 ctlin 38;
#X text 140 110 Nanokontrol Solo 7;
#X connect 1 0 2 0;
#X connect 1 1 3 0;
#X connect 2 0 0 0;
#X connect 3 0 0 0;
#X connect 4 0 1 0;
#X connect 5 0 6 0;
#X connect 6 0 4 0;
#X connect 7 0 6 0;
#X connect 8 0 1 0;
#X connect 9 0 8 0;
#X restore 471 170 pd noize;
#X text 431 141 bang on midi end;
#X obj 613 232 hsl 128 15 100 1500 0 0 \$0-durB \$0-durB-r B-duration(ms)
-2 -8 0 10 -262144 -1 -1 12700 1;
#X obj 753 232 nbx 5 15 -1e+37 1e+37 0 0 - \$0-durB empty 0 -8 0 10
-262144 -1 -1 1500 256;
#X connect 1 0 9 0;
#X connect 1 2 36 0;
#X connect 1 2 37 0;
#X connect 4 0 7 0;
#X connect 4 0 8 1;
#X connect 4 1 6 0;
#X connect 4 1 8 2;
#X connect 4 1 23 0;
#X connect 4 2 5 0;
#X connect 8 0 10 0;
#X connect 8 0 18 0;
#X connect 9 0 8 0;
#X connect 9 1 4 0;
#X connect 10 0 11 0;
#X connect 10 0 11 1;
#X connect 20 0 18 1;
#X connect 21 0 10 1;
#X connect 24 0 25 0;
