#N canvas 222 95 672 471 10;
#N canvas 171 144 862 265 pieces 0;
#X obj 24 50 t a b;
#X obj 24 74 symbol;
#X msg 24 127 \; pd open \$1 \$2;
#X obj 77 74 getdir;
#X obj 24 101 pack s s;
#X obj 24 24 r \$0-open;
#X obj 156 24 r open-spiral;
#X obj 156 81 s \$0-open;
#X obj 297 81 s \$0-open;
#X obj 297 24 r open-tatata;
#X msg 297 53 tatata.pd;
#X obj 417 81 s \$0-open;
#X obj 417 24 r open-massd;
#X msg 417 53 mass-destruction.pd;
#X obj 156 191 s \$0-open;
#X msg 156 163 message-ground.pd;
#X obj 156 134 r open-message-ground;
#X obj 306 191 s \$0-open;
#X obj 306 134 r open-vent;
#X msg 306 163 vent-nocturne-helper.pd;
#X obj 473 197 sp-launch;
#X msg 473 151 run open /Users/serj/concerts/2013.10.03_ekaterniburg/VentNocturne2b.app
;
#X msg 156 53 spiral_non_video.pd;
#X obj 583 24 r open-teleman;
#X msg 583 52 teleman-cadence.pd;
#X obj 583 80 s \$0-open;
#X connect 0 0 1 0;
#X connect 0 1 3 0;
#X connect 1 0 4 0;
#X connect 3 0 4 1;
#X connect 4 0 2 0;
#X connect 5 0 0 0;
#X connect 6 0 22 0;
#X connect 9 0 10 0;
#X connect 10 0 8 0;
#X connect 12 0 13 0;
#X connect 13 0 11 0;
#X connect 15 0 14 0;
#X connect 16 0 15 0;
#X connect 18 0 19 0;
#X connect 18 0 21 0;
#X connect 19 0 17 0;
#X connect 21 0 20 0;
#X connect 22 0 7 0;
#X connect 23 0 24 0;
#X connect 24 0 25 0;
#X restore 42 355 pd pieces;
#X obj 41 48 bng 30 250 50 0 open-spiral open-spiral-r Spiral[no_video]
35 14 0 18 -260097 -1 -1;
#X obj 41 98 bng 30 250 50 0 open-tatata open-tatata-r Tatatata 35
14 0 18 -4034 -1 -1;
#X obj 41 248 bng 30 250 50 0 open-massd open-massd-r Mass_destruction
35 14 0 18 -4032 -1 -1;
#X obj 41 198 bng 30 250 50 0 open-message-ground open-message-ground-r
Message_Ground 35 14 0 18 -4160 -1 -1;
#X obj 41 148 bng 30 250 50 0 open-vent open-vent-r Vent_Nocturne 35
14 0 18 -159808 -1 -1;
#N canvas 506 365 450 300 utils 0;
#X obj 45 29 sp-screen-unlock;
#X restore 43 386 pd utils;
#X obj 348 52 sp-gcpu;
#X obj 348 219 sp-gfoot-switch;
#X obj 41 298 bng 30 250 50 0 open-teleman open-telemar Teleman 35
14 0 18 -203904 -1 -1;
