#N canvas 278 244 504 368 10;
#N canvas 171 144 724 299 pieces 1;
#X obj 24 50 t a b;
#X obj 24 74 symbol;
#X msg 24 127 \; pd open \$1 \$2;
#X obj 77 74 getdir;
#X obj 24 101 pack s s;
#X obj 24 24 r \$0-open;
#X obj 525 255 s \$0-open;
#X obj 525 196 r open-in-c;
#X obj 26 184 r open-spiral;
#X obj 26 241 s \$0-open;
#X msg 525 227 in_c_mozhinka_flute.pd;
#X obj 166 251 s \$0-open;
#X obj 166 194 r open-tatatata;
#X msg 166 223 tatata.pd;
#X obj 276 251 s \$0-open;
#X obj 276 194 r open-noa-noa;
#X msg 276 223 noa-noa-helper.pd;
#X obj 406 251 s \$0-open;
#X obj 406 194 r open-reich;
#X msg 406 223 reich_vermont.pd;
#X msg 26 213 spiral_non_video.pd;
#X connect 0 0 1 0;
#X connect 0 1 3 0;
#X connect 1 0 4 0;
#X connect 3 0 4 1;
#X connect 4 0 2 0;
#X connect 5 0 0 0;
#X connect 7 0 10 0;
#X connect 8 0 20 0;
#X connect 10 0 6 0;
#X connect 12 0 13 0;
#X connect 13 0 11 0;
#X connect 15 0 16 0;
#X connect 16 0 14 0;
#X connect 18 0 19 0;
#X connect 19 0 17 0;
#X connect 20 0 9 0;
#X restore 384 42 pd pieces;
#X obj 41 188 bng 30 250 50 0 open-spiral open-spiral-r 4.Spiral 35
14 0 18 -4032 -1 -1;
#X obj 44 304 bng 30 250 50 0 open-in-c open-in-c-r 7.In_C 35 14 0
18 -4160 -1 -1;
#X obj 41 88 bng 30 250 50 0 open-tatatata open-tatatata-r 2.Ta-ta-ta-ta
35 14 0 18 -257985 -1 -1;
#X obj 41 138 bng 30 250 50 0 open-noa-noa open-noa-noa-r 3.Noa-Noa
35 14 0 18 -4034 -1 -1;
#X obj 41 38 bng 30 250 50 0 open-reich open-reich-r 1.Reich-Vermont
35 14 0 18 -260097 -1 -1;
#X obj 76 266 comment 100 20 helvetica ? 0 0 0 0 6 Knox;
#X obj 75 231 comment 100 20 helvetica ? 0 0 0 0 5 Klark;
