#N canvas 222 95 763 534 10;
#X declare -path ../;
#N canvas 2 22 1023 535 pieces 1;
#X obj 24 50 t a b;
#X obj 24 74 symbol;
#X msg 24 127 \; pd open \$1 \$2;
#X obj 77 74 getdir;
#X obj 24 101 pack s s;
#X obj 24 24 r \$0-open;
#X obj 156 24 r open-spiral;
#X obj 156 81 s \$0-open;
#X obj 297 81 s \$0-open;
#X obj 297 24 r open-tatata;
#X msg 297 53 tatata.pd;
#X msg 156 53 spiral_non_video.pd;
#X obj 455 153 sp-launch;
#X obj 553 233 s \$0-open;
#X obj 553 174 r open-phase;
#X msg 553 203 viola_phase2.pd;
#X obj 455 29 r open-loops;
#X msg 494 85 run pd_open_ldr.sh;
#X msg 455 130 run max5_clean_prefs.sh;
#X obj 494 62 del 5000;
#X obj 657 81 s \$0-open;
#X msg 657 53 in-c-viola-solo.pd;
#X obj 657 24 r open-in-c;
#X obj 797 81 s \$0-open;
#X obj 797 24 r open-petals;
#X msg 797 53 petals.pd;
#X connect 0 0 1 0;
#X connect 0 1 3 0;
#X connect 1 0 4 0;
#X connect 3 0 4 1;
#X connect 4 0 2 0;
#X connect 5 0 0 0;
#X connect 6 0 11 0;
#X connect 9 0 10 0;
#X connect 10 0 8 0;
#X connect 11 0 7 0;
#X connect 14 0 15 0;
#X connect 15 0 13 0;
#X connect 16 0 18 0;
#X connect 16 0 19 0;
#X connect 17 0 12 0;
#X connect 18 0 12 0;
#X connect 19 0 17 0;
#X connect 21 0 20 0;
#X connect 22 0 21 0;
#X connect 24 0 25 0;
#X connect 25 0 23 0;
#X restore 612 215 pd pieces;
#X obj 604 106 sp-gcpu;
#X obj 467 32 sp-gfoot-switch;
#X obj 42 32 sp-title Pushkino;
#N canvas 506 365 450 300 utils 0;
#X obj 45 29 sp-screen-unlock;
#X restore 613 246 pd utils;
#X obj 42 388 bng 30 250 50 0 open-loops open-loops-r Loops_drones_and_riffs
35 14 0 18 -204786 -1 -1;
#X obj 609 168 declare -path ../;
#X obj 42 438 bng 30 250 50 0 open-petals open-petals-r Petals 35 14
0 18 -261234 -1 -1;
