#N canvas 222 95 702 535 10;
#N canvas 2 22 1023 535 pieces 1;
#X obj 24 50 t a b;
#X obj 24 74 symbol;
#X msg 24 127 \; pd open \$1 \$2;
#X obj 77 74 getdir;
#X obj 24 101 pack s s;
#X obj 24 24 r \$0-open;
#X obj 156 24 r open-spiral;
#X obj 156 81 s \$0-open;
#X obj 297 81 s \$0-open;
#X obj 297 24 r open-tatata;
#X msg 297 53 tatata.pd;
#X obj 156 191 s \$0-open;
#X msg 156 163 message-ground.pd;
#X obj 156 134 r open-message-ground;
#X obj 306 191 s \$0-open;
#X obj 306 134 r open-vent;
#X msg 306 163 vent-nocturne-helper.pd;
#X obj 184 370 sp-launch;
#X msg 156 53 spiral_non_video.pd;
#X msg 184 321 run open /Users/serj/concerts/2013.10.03_ekaterniburg/VentNocturne2b.app
;
#X obj 184 275 t b b;
#X obj 184 297 del 1000;
#X msg 82 325 run max5_clear;
#X obj 455 29 r open-contradiction-s;
#X msg 494 85 run open /Applications/Max5/MaxMSP.app;
#X obj 494 62 del 1000;
#X obj 455 133 sp-launch;
#X msg 455 110 run max5_clear;
#X obj 572 140 r open-berio;
#X msg 572 165 berio_sequenza.pd;
#X obj 572 192 s \$0-open;
#X obj 570 234 r open-mass-destruction;
#X msg 570 263 mass-destruction.pd;
#X obj 570 293 s \$0-open;
#X obj 730 293 s \$0-open;
#X obj 730 234 r open-in-c;
#X msg 730 263 in-c-viola-solo.pd;
#X obj 650 393 s \$0-open;
#X obj 650 334 r open-grab-it;
#X msg 650 363 grab_it.pd;
#X connect 0 0 1 0;
#X connect 0 1 3 0;
#X connect 1 0 4 0;
#X connect 3 0 4 1;
#X connect 4 0 2 0;
#X connect 5 0 0 0;
#X connect 6 0 18 0;
#X connect 9 0 10 0;
#X connect 10 0 8 0;
#X connect 12 0 11 0;
#X connect 13 0 12 0;
#X connect 15 0 16 0;
#X connect 15 0 20 0;
#X connect 16 0 14 0;
#X connect 18 0 7 0;
#X connect 19 0 17 0;
#X connect 20 0 21 0;
#X connect 20 1 22 0;
#X connect 21 0 19 0;
#X connect 22 0 17 0;
#X connect 23 0 25 0;
#X connect 23 0 27 0;
#X connect 24 0 26 0;
#X connect 25 0 24 0;
#X connect 27 0 26 0;
#X connect 28 0 29 0;
#X connect 29 0 30 0;
#X connect 31 0 32 0;
#X connect 32 0 33 0;
#X connect 35 0 36 0;
#X connect 36 0 34 0;
#X connect 38 0 39 0;
#X connect 39 0 37 0;
#X restore 42 445 pd pieces;
#X obj 42 138 bng 30 250 50 0 open-spiral open-spiral-r Spiral[no_video]
35 14 0 18 -260097 -1 -1;
#X obj 42 188 bng 30 250 50 0 open-tatata open-tatata-r Tatatata 35
14 0 18 -106496 -1 -1;
#X obj 312 338 bng 30 250 50 0 open-message-ground open-message-ground-r
Message_Ground 35 14 0 18 -203904 -1 -1;
#X obj 42 288 bng 30 250 50 0 open-vent open-vent-r Vent_Nocturne 35
14 0 18 -232576 -1 -1;
#X obj 604 106 sp-gcpu;
#X obj 467 32 sp-gfoot-switch;
#X obj 42 338 bng 30 250 50 0 open-berio open-berio-r Berio 35 14 0
18 -261338 -1 -1;
#X obj 42 32 sp-title Усадьба Freelabs;
#N canvas 506 365 450 300 utils 0;
#X obj 45 29 sp-screen-unlock;
#X restore 43 476 pd utils;
#X obj 312 198 bng 30 250 50 0 open-knox open-knox-r Knox 35 14 0 18
-261234 -1 -1;
#X obj 42 238 bng 30 250 50 0 open-mass-destruction open-mass-destruction-r
Mass_Destruction 35 14 0 18 -259712 -1 -1;
#X obj 312 288 bng 30 250 50 0 open-grab-it open-grab-it-r Grab_It!
35 14 0 18 -106458 -1 -1;
#X obj 312 138 bng 30 250 50 0 open-in-c open-in-c-r In_C 35 14 0 18
-212954 -1 -1;
