#N canvas 263 60 709 633 10;
#X declare -path ../;
#N canvas 2 22 1023 535 pieces 0;
#X obj 24 50 t a b;
#X obj 24 74 symbol;
#X msg 24 127 \; pd open \$1 \$2;
#X obj 77 74 getdir;
#X obj 24 101 pack s s;
#X obj 24 24 r \$0-open;
#X obj 156 24 r open-spiral;
#X obj 156 81 s \$0-open;
#X obj 297 81 s \$0-open;
#X obj 297 24 r open-tatata;
#X msg 297 53 tatata.pd;
#X obj 306 191 s \$0-open;
#X obj 306 134 r open-vent;
#X msg 306 163 vent-nocturne-helper.pd;
#X obj 184 370 sp-launch;
#X msg 156 53 spiral_non_video.pd;
#X msg 184 321 run open /Users/serj/concerts/2013.10.03_ekaterniburg/VentNocturne2b.app
;
#X obj 184 275 t b b;
#X obj 184 297 del 1000;
#X obj 455 153 sp-launch;
#X obj 553 233 s \$0-open;
#X obj 553 174 r open-phase;
#X msg 553 203 viola_phase2.pd;
#X obj 455 29 r open-loops;
#X msg 494 85 run pd_open_ldr.sh;
#X msg 22 322 run max5_clean_prefs.sh;
#X msg 455 130 run max5_clean_prefs.sh;
#X obj 494 62 del 5000;
#X obj 657 81 s \$0-open;
#X msg 657 53 in-c-viola-solo.pd;
#X obj 657 24 r open-in-c;
#X obj 797 81 s \$0-open;
#X obj 797 24 r open-message;
#X msg 797 53 message-ground.pd;
#X obj 673 233 s \$0-open;
#X obj 673 174 r open-mass;
#X msg 673 203 mass-destruction.pd;
#X obj 813 233 s \$0-open;
#X obj 813 174 r open-grab;
#X msg 813 203 grab_it.pd;
#X obj 636 356 s \$0-open;
#X msg 636 325 podzvuchka.pd;
#X obj 636 294 r \$0-knox;
#X connect 0 0 1 0;
#X connect 0 1 3 0;
#X connect 1 0 4 0;
#X connect 3 0 4 1;
#X connect 4 0 2 0;
#X connect 5 0 0 0;
#X connect 6 0 15 0;
#X connect 9 0 10 0;
#X connect 10 0 8 0;
#X connect 12 0 13 0;
#X connect 12 0 17 0;
#X connect 13 0 11 0;
#X connect 15 0 7 0;
#X connect 16 0 14 0;
#X connect 17 0 18 0;
#X connect 17 1 25 0;
#X connect 18 0 16 0;
#X connect 21 0 22 0;
#X connect 22 0 20 0;
#X connect 23 0 26 0;
#X connect 23 0 27 0;
#X connect 24 0 19 0;
#X connect 25 0 14 0;
#X connect 26 0 19 0;
#X connect 27 0 24 0;
#X connect 29 0 28 0;
#X connect 30 0 29 0;
#X connect 32 0 33 0;
#X connect 33 0 31 0;
#X connect 35 0 36 0;
#X connect 36 0 34 0;
#X connect 38 0 39 0;
#X connect 39 0 37 0;
#X connect 41 0 40 0;
#X connect 42 0 41 0;
#X restore 609 185 pd pieces;
#X obj 42 268 bng 30 250 50 0 open-spiral open-spiral-r Spiral[no_video]
35 14 0 18 -260097 -1 -1;
#X obj 42 168 bng 30 250 50 0 open-tatata open-tatata-r Tatatata 35
14 0 18 -106496 -1 -1;
#X obj 42 118 bng 30 250 50 0 open-vent open-vent-r Vent_Nocturne 35
14 0 18 -262130 -1 -1;
#X obj 602 116 sp-gcpu;
#X obj 42 32 sp-title Lynch;
#N canvas 506 365 450 300 utils 0;
#X obj 45 29 sp-screen-unlock;
#X restore 615 216 pd utils;
#X obj 42 418 bng 30 250 50 0 open-loops open-loops-r Loops_drones_and_riffs
35 14 0 18 -204786 -1 -1;
#X obj 561 158 declare -path ../;
#X obj 42 218 bng 30 250 50 0 open-in-c open-in-c-r In_C 35 14 0 18
-203904 -1 -1;
#X obj 42 468 bng 30 250 50 0 open-message open-message-r Message_Ground
35 14 0 18 -261234 -1 -1;
#X obj 42 368 bng 30 250 50 0 \$0-knox \$0-knox-r Biber_or_Knox? 35
14 0 18 -261682 -1 -1;
#X obj 432 518 bng 30 250 50 0 open-mass open-mass-r Mass_Destruction
35 14 0 18 -257985 -1 -1;
#X obj 42 318 bng 30 250 50 0 open-grab open-grab-r Grab_it! 35 14
0 18 -4034 -1 -1;
