#N canvas 222 95 718 556 10;
#N canvas 2 22 1023 535 pieces 0;
#X obj 24 50 t a b;
#X obj 24 74 symbol;
#X msg 24 127 \; pd open \$1 \$2;
#X obj 77 74 getdir;
#X obj 24 101 pack s s;
#X obj 24 24 r \$0-open;
#X obj 156 24 r open-spiral;
#X obj 156 81 s \$0-open;
#X obj 297 81 s \$0-open;
#X obj 297 24 r open-tatata;
#X msg 297 53 tatata.pd;
#X obj 306 191 s \$0-open;
#X obj 306 134 r open-vent;
#X msg 306 163 vent-nocturne-helper.pd;
#X obj 184 370 sp-launch;
#X msg 156 53 spiral_non_video.pd;
#X msg 184 321 run open /Users/serj/concerts/2013.10.03_ekaterniburg/VentNocturne2b.app
;
#X obj 184 275 t b b;
#X obj 184 297 del 1000;
#X msg 82 325 run max5_clear;
#X msg 494 85 run open /Applications/Max5/MaxMSP.app;
#X obj 494 62 del 1000;
#X obj 455 133 sp-launch;
#X msg 455 110 run max5_clear;
#X obj 553 233 s \$0-open;
#X obj 455 29 r open-loops-s;
#X msg 553 203 viola_phase.pd;
#X obj 553 174 r open-phase;
#X connect 0 0 1 0;
#X connect 0 1 3 0;
#X connect 1 0 4 0;
#X connect 3 0 4 1;
#X connect 4 0 2 0;
#X connect 5 0 0 0;
#X connect 6 0 15 0;
#X connect 9 0 10 0;
#X connect 10 0 8 0;
#X connect 12 0 13 0;
#X connect 12 0 17 0;
#X connect 13 0 11 0;
#X connect 15 0 7 0;
#X connect 16 0 14 0;
#X connect 17 0 18 0;
#X connect 17 1 19 0;
#X connect 18 0 16 0;
#X connect 19 0 14 0;
#X connect 20 0 22 0;
#X connect 21 0 20 0;
#X connect 23 0 22 0;
#X connect 25 0 21 0;
#X connect 25 0 23 0;
#X connect 26 0 24 0;
#X connect 27 0 26 0;
#X restore 612 215 pd pieces;
#X obj 42 138 bng 30 250 50 0 open-spiral open-spiral-r Spiral[no_video]
35 14 0 18 -260097 -1 -1;
#X obj 42 188 bng 30 250 50 0 open-tatata open-tatata-r Tatatata 35
14 0 18 -106496 -1 -1;
#X obj 42 238 bng 30 250 50 0 open-vent open-vent-r Vent_Nocturne 35
14 0 18 -262130 -1 -1;
#X obj 604 106 sp-gcpu;
#X obj 467 32 sp-gfoot-switch;
#X obj 42 32 sp-title ДОМ;
#N canvas 506 365 450 300 utils 0;
#X obj 45 29 sp-screen-unlock;
#X restore 613 246 pd utils;
#X obj 42 288 bng 30 250 50 0 open-loops open-loops-r Loops_drones_and_riffs
35 14 0 18 -204786 -1 -1;
#X obj 42 338 bng 30 250 50 0 open-phase open-phase-r Viola_phase 35
14 0 18 -232576 -1 -1;
