#N canvas 222 95 451 391 10;
#N canvas 171 144 862 265 pieces 1;
#X obj 24 50 t a b;
#X obj 24 74 symbol;
#X msg 24 127 \; pd open \$1 \$2;
#X obj 77 74 getdir;
#X obj 24 101 pack s s;
#X obj 24 24 r \$0-open;
#X obj 156 24 r open-spiral;
#X msg 156 53 spiral.pd;
#X obj 156 81 s \$0-open;
#X obj 276 81 s \$0-open;
#X obj 276 24 r open-tatata;
#X msg 276 53 tatata.pd;
#X obj 396 81 s \$0-open;
#X obj 396 24 r open-massd;
#X msg 396 53 mass-destruction.pd;
#X obj 156 191 s \$0-open;
#X msg 156 163 message-ground.pd;
#X obj 156 134 r open-message-ground;
#X obj 306 191 s \$0-open;
#X obj 306 134 r open-vent;
#X msg 306 163 vent-nocturne-helper.pd;
#X obj 473 197 sp-launch;
#X msg 473 151 run open /Users/serj/concerts/2013.10.03_ekaterniburg/VentNocturne2b.app
;
#X connect 0 0 1 0;
#X connect 0 1 3 0;
#X connect 1 0 4 0;
#X connect 3 0 4 1;
#X connect 4 0 2 0;
#X connect 5 0 0 0;
#X connect 6 0 7 0;
#X connect 7 0 8 0;
#X connect 10 0 11 0;
#X connect 11 0 9 0;
#X connect 13 0 14 0;
#X connect 14 0 12 0;
#X connect 16 0 15 0;
#X connect 17 0 16 0;
#X connect 19 0 20 0;
#X connect 19 0 22 0;
#X connect 20 0 18 0;
#X connect 22 0 21 0;
#X restore 42 315 pd pieces;
#X obj 41 48 bng 30 250 50 0 open-spiral open-spiral-r Spiral 35 14
0 18 -260097 -1 -1;
#X obj 41 98 bng 30 250 50 0 open-tatata open-tatata-r Tatatata 35
14 0 18 -4034 -1 -1;
#X obj 41 148 bng 30 250 50 0 open-massd open-massd-r Mass_destruction
35 14 0 18 -4032 -1 -1;
#X obj 41 198 bng 30 250 50 0 open-message-ground open-message-ground-r
Message_Ground 35 14 0 18 -4160 -1 -1;
#X obj 41 248 bng 30 250 50 0 open-vent open-vent-r Vent_Nocturne 35
14 0 18 -159808 -1 -1;
