#N canvas 278 244 450 300 10;
#N canvas 171 144 725 390 pieces 0;
#X obj 24 50 t a b;
#X obj 24 74 symbol;
#X msg 24 127 \; pd open \$1 \$2;
#X obj 77 74 getdir;
#X obj 24 101 pack s s;
#X obj 24 24 r \$0-open;
#X obj 454 82 s \$0-open;
#X obj 454 23 r open-in-c;
#X obj 136 144 r open-spiral;
#X msg 136 173 spiral.pd;
#X obj 136 201 s \$0-open;
#X msg 454 54 in_c_ekaterinburg.pd;
#X connect 0 0 1 0;
#X connect 0 1 3 0;
#X connect 1 0 4 0;
#X connect 3 0 4 1;
#X connect 4 0 2 0;
#X connect 5 0 0 0;
#X connect 7 0 11 0;
#X connect 8 0 9 0;
#X connect 9 0 10 0;
#X connect 11 0 6 0;
#X restore 42 185 pd pieces;
#X obj 41 48 bng 30 250 50 0 open-spiral open-spiral-r Spiral 35 14
0 18 -260097 -1 -1;
#X obj 41 118 bng 30 250 50 0 open-in-c open-in-c-r In_C 35 14 0 18
-4034 -1 -1;
