#N canvas 75 25 1092 713 10;
#X declare -path ..;
#X declare -lib flatgui;
#N canvas 0 22 895 286 (subpatch) 0;
#X array left-channel 2.42289e+07 float 2;
#X coords 0 1 2.42289e+07 -1 700 100 1 0 0;
#X restore 100 71 graph;
#N canvas 0 22 450 278 (subpatch) 0;
#X array right-channel 2.42289e+07 float 2;
#X coords 0 1 2.42289e+07 -1 700 100 1 0 0;
#X restore 100 222 graph;
#X obj 99 19 comment 400 18 Verdana Pavel 0 0 0 0 Pavel Karmanov: Force
Major;
#N canvas 115 200 449 215 load 0;
#X obj 41 97 soundfiler;
#X obj 41 22 inlet;
#X msg 41 176 \; pos-r range 0 \$1;
#X obj 41 131 / 44100;
#X msg 41 57 read -resize force-major.aiff left-channel right-channel
;
#X connect 0 0 3 0;
#X connect 1 0 4 0;
#X connect 3 0 2 0;
#X connect 4 0 0 0;
#X restore 18 81 pd load;
#X obj 18 23 bng 30 250 50 0 empty empty empty 17 7 0 10 -260097 -1
-1;
#X obj 100 368 sp-gmix8~;
#N canvas 192 310 564 325 player 0;
#X obj 48 205 outlet~;
#X obj 228 205 outlet~;
#X obj 48 141 tabplay~ left-channel;
#X obj 48 22 r start-pos;
#X obj 228 141 tabplay~ right-channel;
#X obj 157 82 r stop;
#X msg 157 108 stop;
#X obj 243 112 s start-pos;
#X msg 243 86 0;
#X obj 243 60 r start;
#X obj 48 79 * 44100;
#X obj 387 108 f;
#X msg 347 27 0;
#X msg 288 26 1;
#X msg 387 147 \; pos-r \$1;
#X obj 333 203 s pos;
#X msg 123 188 1;
#X obj 123 224 v playing;
#X msg 165 188 -1;
#X obj 393 233 sp-sample2time;
#X obj 393 263 s time-r;
#X obj 387 69 metro 100;
#X obj 393 202 * 44100;
#X obj 423 108 + 0.1;
#X connect 2 0 0 0;
#X connect 3 0 10 0;
#X connect 3 0 13 0;
#X connect 3 0 11 0;
#X connect 3 0 16 0;
#X connect 4 0 1 0;
#X connect 5 0 6 0;
#X connect 5 0 12 0;
#X connect 5 0 18 0;
#X connect 6 0 2 0;
#X connect 6 0 4 0;
#X connect 8 0 7 0;
#X connect 9 0 8 0;
#X connect 10 0 2 0;
#X connect 10 0 4 0;
#X connect 11 0 14 0;
#X connect 11 0 22 0;
#X connect 11 0 23 0;
#X connect 11 0 15 0;
#X connect 12 0 21 0;
#X connect 13 0 21 0;
#X connect 16 0 17 0;
#X connect 18 0 17 0;
#X connect 19 0 20 0;
#X connect 21 0 11 0;
#X connect 22 0 19 0;
#X connect 23 0 11 1;
#X restore 100 342 pd player;
#N canvas 133 208 1025 299 ctrl 0;
#X obj 58 102 tgl 15 0 empty empty empty 17 7 0 10 -262144 -1 -1 0
1;
#X obj 58 134 sel 1;
#X msg 58 168 \; play-btn-r color 16 2;
#X msg 85 208 \; play-btn-r color 1 1;
#X obj 227 151 s stop;
#X obj 13 237 s start;
#X obj 190 49 sp-key 1;
#X obj 250 49 sp-key 2;
#X obj 310 49 sp-key 3;
#X obj 370 49 sp-key 4;
#X obj 430 49 sp-key 5;
#X obj 190 78 s pos1-r;
#X obj 250 78 s pos2-r;
#X obj 310 78 s pos3-r;
#X obj 370 78 s pos4-r;
#X obj 430 78 s pos5-r;
#X obj 714 49 sp-key Space;
#X obj 58 15 r play-btn-s;
#X obj 714 79 s play-btn-r;
#X msg 352 166 0;
#X obj 352 140 r pos1-s;
#X obj 352 193 s start-pos;
#X obj 432 193 s start-pos;
#X obj 512 193 s start-pos;
#X obj 592 193 s start-pos;
#X obj 672 193 s start-pos;
#X obj 432 140 r pos2-s;
#X obj 512 140 r pos3-s;
#X obj 592 140 r pos4-s;
#X obj 672 140 r pos5-s;
#X msg 432 166 46.1;
#X obj 752 193 s start-pos;
#X obj 832 193 s start-pos;
#X obj 752 140 r pos6-s;
#X obj 832 140 r pos7-s;
#X obj 490 49 sp-key 6;
#X obj 550 49 sp-key 7;
#X obj 610 49 sp-key 8;
#X obj 490 78 s pos6-r;
#X obj 550 78 s pos7-r;
#X obj 610 78 s pos8-r;
#X msg 672 166 173;
#X obj 912 193 s start-pos;
#X obj 912 140 r pos8-s;
#X msg 832 166 340;
#X msg 912 166 434;
#X msg 752 166 265;
#X msg 592 166 116.3;
#X msg 512 166 83.4;
#X obj 58 46 v playing;
#X obj 58 75 != 1;
#X obj 828 26 loadbang;
#X obj 828 64 sp-sample2time;
#X obj 828 97 s time-r;
#X connect 0 0 1 0;
#X connect 1 0 2 0;
#X connect 1 0 5 0;
#X connect 1 1 3 0;
#X connect 1 1 4 0;
#X connect 6 0 11 0;
#X connect 7 0 12 0;
#X connect 8 0 13 0;
#X connect 9 0 14 0;
#X connect 10 0 15 0;
#X connect 16 0 18 0;
#X connect 17 0 49 0;
#X connect 19 0 21 0;
#X connect 20 0 19 0;
#X connect 26 0 30 0;
#X connect 27 0 48 0;
#X connect 28 0 47 0;
#X connect 29 0 41 0;
#X connect 30 0 22 0;
#X connect 33 0 46 0;
#X connect 34 0 44 0;
#X connect 35 0 38 0;
#X connect 36 0 39 0;
#X connect 37 0 40 0;
#X connect 41 0 25 0;
#X connect 43 0 45 0;
#X connect 44 0 32 0;
#X connect 45 0 42 0;
#X connect 46 0 31 0;
#X connect 47 0 24 0;
#X connect 48 0 23 0;
#X connect 49 0 50 0;
#X connect 50 0 0 0;
#X connect 51 0 52 0;
#X connect 52 0 53 0;
#X restore 18 108 pd ctrl;
#X obj 101 182 hsl 700 15 0 549.407 0 0 pos-s pos-r empty -2 -8 0 10
-66577 -4034 -1 0 1;
#X obj 593 358 bng 30 250 50 0 pos1-s pos1-r 1 11 14 0 14 -203904 -1
-1;
#X obj 643 358 bng 30 250 50 0 pos2-s pos2-r 2 11 14 0 14 -204800 -1
-1;
#X obj 693 358 bng 30 250 50 0 pos3-s pos3-r 3 11 14 0 14 -204786 -1
-1;
#X obj 743 358 bng 30 250 50 0 pos4-s pos4-r 4 11 14 0 14 -262130 -1
-1;
#X obj 793 358 bng 30 250 50 0 pos5-s pos5-r 5 11 14 0 14 -261682 -1
-1;
#X obj 843 358 bng 30 250 50 0 pos6-s pos6-r 6 11 14 0 14 -261234 -1
-1;
#X obj 893 358 bng 30 250 50 0 pos7-s pos7-r 7 11 14 0 14 -232576 -1
-1;
#X obj 943 358 bng 30 250 50 0 pos8-s pos8-r 8 11 14 0 14 -228856 -1
-1;
#X obj 504 358 bng 30 250 50 0 play-btn-s play-btn-r Play 35 15 0 10
-166441 -1 -166441;
#X symbolatom 815 182 14 0 0 0 - time-r time-s;
#X obj 874 412 sp-gparam;
#X obj 100 594 +dsp;
#X obj 18 147 loadbang;
#X msg 18 168 restore 1;
#X obj 18 189 s sp-param;
#X obj 414 402 loadbang;
#X msg 404 350 mix8 save;
#X msg 414 428 mix8 1 mute 0 \, mix8 0 mute 0 \, mix8 2 mute 0 \, mix8
3 mute 0;
#X obj 807 33 declare -path ..;
#X obj 431 577 sp-gmonitor~;
#X obj 431 495 sp-gcompr~;
#X connect 4 0 3 0;
#X connect 5 0 20 0;
#X connect 5 1 29 0;
#X connect 5 2 20 1;
#X connect 6 0 5 0;
#X connect 6 0 5 1;
#X connect 6 1 5 2;
#X connect 6 1 5 3;
#X connect 21 0 22 0;
#X connect 22 0 23 0;
#X connect 24 0 26 0;
#X connect 25 0 5 8;
#X connect 26 0 5 8;
#X connect 29 0 28 0;
