#N canvas 45 22 957 704 10;
#X obj 674 521 +dsp;
#N canvas 0 22 450 278 (subpatch) 0;
#X array \$0-left 2.5685e+07 float 2;
#X coords 0 1 2.5685e+07 -1 900 100 1 0 0;
#X restore 20 101 graph;
#X obj 481 221 loadbang;
#X obj 20 101 hsl 900 100 0 44100 0 0 empty play_ind empty -2 -8 0
10 -262144 -4160 -1 0 1;
#X obj 481 279 bng 48 203 51 0 \$0-tempo-s empty empty 17 7 0 10 -262144
-261234 -1;
#X obj 481 250 metro 405;
#X obj 18 220 cnv 15 100 40 empty empty empty 20 12 0 14 -233017 -66577
0;
#X text 26 223 Play: p;
#X text 26 238 Stop: s \, Space;
#N canvas 539 158 483 416 loadfile 0;
#X obj 124 102 soundfiler;
#X obj 109 172 f;
#X obj 109 202 expr 44100 / $f1;
#X obj 109 232 phasor~;
#X obj 109 292 * 44100;
#X floatatom 109 322 10 0 0 0 - - -;
#X obj 109 351 s play_ind;
#X obj 37 182 r stop;
#X msg 37 208 0;
#X obj 82 124 r play;
#X obj 82 157 bng 15 250 50 0 empty empty empty 17 7 0 10 -262144 -1
-1;
#X obj 124 21 r init;
#X obj 109 262 unsig~ 20;
#X obj 124 45 f \$0;
#X obj 334 156 r play;
#X msg 334 187 1;
#X obj 397 155 r stop;
#X msg 397 187 0;
#X obj 334 234 s sp-timer;
#X msg 124 70 read -resize grab_it_new.wav \$1-left \$1-right;
#X connect 0 0 1 1;
#X connect 1 0 2 0;
#X connect 2 0 3 0;
#X connect 3 0 12 0;
#X connect 4 0 5 0;
#X connect 5 0 6 0;
#X connect 7 0 8 0;
#X connect 8 0 3 0;
#X connect 8 0 5 0;
#X connect 8 0 3 1;
#X connect 9 0 10 0;
#X connect 10 0 1 0;
#X connect 11 0 13 0;
#X connect 12 0 4 0;
#X connect 13 0 19 0;
#X connect 14 0 15 0;
#X connect 15 0 18 0;
#X connect 16 0 17 0;
#X connect 17 0 18 0;
#X connect 19 0 0 0;
#X restore 826 355 pd loadfile;
#X obj 210 245 bng 48 250 50 0 init init-r init 0 -16 0 20 -260097
-1 -1;
#X obj 867 491 r \$0-bus;
#X obj 280 245 bng 48 250 50 0 play play-r play 0 -16 0 22 -4034 -1
-1;
#X obj 350 245 bng 48 250 50 0 stop stop-r stop 0 -16 0 22 -99865 -1
-1;
#X obj 826 295 table \$0-right;
#X obj 856 228 sp-gcpu;
#X obj 821 54 sp-gtimer timer;
#X obj 19 388 sp-gfoot-switch;
#N canvas 503 386 450 300 incvol 0;
#X obj 50 49 sel 1;
#X obj 50 235 s \$0-bus;
#X obj 50 15 inlet;
#X msg 50 205 vol+ 0.07;
#X connect 0 0 3 0;
#X connect 2 0 0 0;
#X connect 3 0 1 0;
#X restore 19 448 pd incvol;
#X obj 674 294 sp-gmix4~ mix4;
#N canvas 93 247 856 310 input 0;
#X obj 44 239 outlet~;
#X obj 341 239 outlet;
#X obj 44 36 adc~ 1;
#X obj 341 40 loadbang;
#X obj 112 239 outlet~;
#X obj 251 239 outlet~;
#X obj 251 71 r stop;
#X msg 251 110 stop;
#X msg 112 110 0;
#X obj 112 73 r play;
#X obj 205 177 s stop;
#X obj 251 151 tabplay~ \$0-right;
#X obj 112 150 tabplay~ \$0-left;
#X obj 13 109 s~ \$0-viola-in;
#X msg 341 73 mix4 0 label vla \, mix4 1 label left \, mix4 2 label
righ \, mix4 3 label ... \, mix4 3 color 20 \, mix4 0 mute 0 \, mix4
1 mute 0 \, mix4 2 mute 0;
#X connect 2 0 0 0;
#X connect 2 0 13 0;
#X connect 3 0 14 0;
#X connect 6 0 7 0;
#X connect 7 0 11 0;
#X connect 7 0 12 0;
#X connect 8 0 11 0;
#X connect 8 0 12 0;
#X connect 9 0 8 0;
#X connect 11 0 5 0;
#X connect 12 0 4 0;
#X connect 12 1 10 0;
#X connect 14 0 1 0;
#X restore 674 273 pd input ............;
#N canvas 157 132 551 315 output 0;
#X obj 46 180 sp-gpan~;
#X obj 46 77 inlet~;
#X obj 136 77 inlet~;
#X obj 214 77 inlet~;
#X obj 89 273 outlet~;
#X obj 185 271 outlet~;
#X obj 139 128 loadbang;
#X msg 139 154 pan pan -15;
#X connect 0 0 4 0;
#X connect 0 1 5 0;
#X connect 1 0 0 0;
#X connect 2 0 4 0;
#X connect 3 0 5 0;
#X connect 6 0 7 0;
#X connect 7 0 0 1;
#X restore 674 492 pd output ......;
#X obj 18 277 sp-gparam;
#N canvas 379 180 450 300 init 0;
#X obj 52 32 loadbang;
#X msg 52 58 restore 0;
#X obj 52 86 s sp-param;
#X connect 0 0 1 0;
#X connect 1 0 2 0;
#X restore 826 325 pd init;
#X obj 17 19 sp-title Jacob ter Veldhuis: Grab It!;
#N canvas 233 406 450 300 keys 0;
#X obj 101 46 sp-key Space;
#X obj 101 72 s stop;
#X connect 0 0 1 0;
#X restore 826 386 pd keys;
#X obj 93 517 sp-midi-dsp-control;
#X connect 2 0 5 0;
#X connect 5 0 4 0;
#X connect 11 0 0 2;
#X connect 17 0 18 0;
#X connect 19 0 21 0;
#X connect 19 1 21 1;
#X connect 19 2 21 2;
#X connect 20 0 19 0;
#X connect 20 1 19 1;
#X connect 20 2 19 2;
#X connect 20 3 19 4;
#X connect 21 0 0 0;
#X connect 21 1 0 1;
