#N canvas 86 22 1005 717 10;
#X declare -lib ggee;
#X declare -lib flatgui;
#X declare -lib flatgui;
#X obj 761 486 +dsp;
#N canvas 275 45 849 348 init 0;
#X obj 48 163 loadbang;
#X obj 487 45 loadbang;
#X obj 538 102 samplerate~;
#X obj 487 127 *;
#X obj 487 72 t b b;
#X obj 487 152 * 60;
#X obj 487 101 f 18;
#X obj 564 46 bng 15 250 50 0 empty empty empty 17 7 0 10 -262144 -1
-1;
#X obj 685 47 table t-viola;
#X obj 642 133 r \$0-clear-tables;
#X obj 48 102 r \$0-init-s;
#X obj 48 131 s \$0-init;
#X obj 160 304 s \$0-clear-tables;
#X obj 45 304 s \$0-piece-length;
#X obj 45 252 r \$0-init;
#X msg 45 279 12;
#X obj 368 36 loadbang;
#X obj 368 69 f \$0;
#X obj 438 35 bng 15 250 50 0 empty empty empty 17 7 0 10 -262144 -1
-1;
#X msg 642 177 \; t-viola const 0 \;;
#X text 539 74 18 minute length;
#X msg 487 178 \; t-viola resize \$1 \;;
#X obj 52 49 block~ 8192 1;
#X msg 48 193 restore 0;
#X obj 48 221 s sp-param;
#X msg 368 100 \; \$1-v1-order-r 0 \; \$1-v2-order-r 1 \; \$1-v3-order-r
3 \; \$1-v4-order-r 4 \; \$1-v5-order-r 5 \; \$1-v6-order-r 2 \; \$1-f3-order-r
7 \; \$1-f4-order-r 5 \; \$1-init-bpm 180 \;;
#X connect 0 0 23 0;
#X connect 1 0 4 0;
#X connect 2 0 3 1;
#X connect 3 0 5 0;
#X connect 4 0 6 0;
#X connect 4 1 2 0;
#X connect 5 0 21 0;
#X connect 6 0 3 0;
#X connect 7 0 4 0;
#X connect 9 0 19 0;
#X connect 10 0 11 0;
#X connect 14 0 15 0;
#X connect 14 0 12 0;
#X connect 15 0 13 0;
#X connect 16 0 17 0;
#X connect 17 0 25 0;
#X connect 18 0 17 0;
#X connect 23 0 24 0;
#X restore 19 453 pd init;
#X obj 19 86 bng 48 250 50 0 \$0-init-s \$0-init-r I 18 22 0 22 -260097
-1 -262144;
#X obj 89 86 bng 48 250 50 0 \$0-start-s \$0-start-r S 18 22 0 22 -4034
-1 -262144;
#X obj 159 86 bng 48 250 50 0 \$0-stop-s \$0-stop-r _ 18 22 0 22 -99865
-1 -262144;
#X obj 866 204 sp-gcpu;
#X obj 534 182 hradio 15 1 0 12 empty empty empty 0 -8 0 10 -262144
-1 -1 0;
#X msg 534 207 mix solo \$1;
#X obj 77 224 sp-gmix12~;
#X obj 337 93 nbx 3 32 0 200 0 0 \$0-init-bpm-s \$0-init-bpm empty
0 -8 0 24 -262144 -1 -1 180 256;
#X obj 534 267 hradio 15 1 0 8 \$0-v1-order-s \$0-v1-order-r V1 -16
8 0 10 -262144 -1 -1 0;
#X obj 534 281 hradio 15 1 0 8 \$0-v2-order-s \$0-v2-order-r V2 -16
8 0 10 -262144 -1 -1 1;
#X obj 534 296 hradio 15 1 0 8 \$0-v3-order-s \$0-v3-order-r V3 -16
8 0 10 -262144 -1 -1 3;
#X obj 534 311 hradio 15 1 0 8 \$0-v4-order-s \$0-v4-order-r V4 -16
8 0 10 -262144 -1 -1 4;
#X obj 534 326 hradio 15 1 0 8 \$0-v5-order-s \$0-v5-order-r V5 -16
8 0 10 -262144 -1 -1 5;
#X obj 534 341 hradio 15 1 0 8 \$0-v6-order-s \$0-v6-order-r V6 -16
8 0 10 -262144 -1 -1 2;
#X obj 534 366 hradio 15 1 0 8 \$0-f3-order-s \$0-f3-order-r F3 -16
8 0 10 -262144 -1 -1 7;
#X obj 534 381 hradio 15 1 0 8 \$0-f4-order-s \$0-f4-order-r F4 -16
8 0 10 -262144 -1 -1 5;
#X text 534 244 Result delay order:;
#X text 665 264 high;
#X text 665 296 dist;
#X text 666 310 natural;
#X text 665 281 moog;
#X text 665 367 low;
#X text 667 383 natural;
#N canvas 45 329 1017 366 levels_after_effects 0;
#X obj 39 323 outlet~;
#X obj 112 323 outlet~;
#X obj 184 323 outlet~;
#X obj 249 323 outlet~;
#X obj 322 323 outlet~;
#X obj 394 323 outlet~;
#X obj 462 323 outlet~;
#X obj 534 323 outlet~;
#X obj 862 323 outlet;
#X obj 862 283 r \$0-bus;
#X obj 609 10 loadbang;
#X obj 592 323 outlet~;
#X obj 664 323 outlet~;
#X obj 732 323 outlet~;
#X obj 804 323 outlet~;
#X obj 804 253 r~ \$0-c;
#X obj 702 18 bng 15 250 50 0 empty empty empty 17 7 0 10 -262144 -1
-1;
#X obj 32 54 inlet;
#X obj 32 82 route mute;
#X msg 32 138 mix 0 mute \$1 \, mix 1 mute \$1 \, mix 2 mute \$1 \,
mix 3 mute \$1 \, mix 4 mute \$1;
#X msg 32 183 mix 5 mute \$1 \, mix 6 mute \$1 \, mix 7 mute \$1 \,
mix 8 mute \$1 \, mix 9 mute \$1;
#X msg 228 62 mix 0 volume 0.7 \, mix 1 volume 0.5 \, mix 2 volume
0.7 \, mix 3 volume 0.5 \, mix 4 volume 0.5 \, mix 5 volume 1 \, mix
6 volume 1.5 \, mix 7 volume 0.9 \, mix 8 volume 0.7 \, mix 9 volume
0.5 \, mix 10 volume 0 \, mix 11 volume 0.5;
#X obj 39 283 r~ \$0-viola-eff-0;
#X obj 112 253 r~ \$0-viola-eff-1;
#X obj 184 283 r~ \$0-viola-eff-2;
#X obj 249 253 r~ \$0-viola-eff-3;
#X obj 322 283 r~ \$0-viola-eff-4;
#X obj 394 253 r~ \$0-viola-eff-5;
#X obj 462 283 r~ \$0-viola-eff-6;
#X obj 534 253 r~ \$0-viola-eff-7;
#X obj 592 283 r~ \$0-viola-eff-8;
#X obj 664 253 r~ \$0-viola-eff-9;
#X msg 609 61 mix 0 label v0 \, mix 1 label v1 \, mix 2 label v2 \,
mix 3 label v3 \, mix 4 label v4 \, mix 5 label v5 \, mix 6 label v6
\, mix 7 label v7 \, mix 8 label v8 \, mix 9 label v9 \, mix 11 color
0 -1 \, mix 11 label inC \, mix 8 mute 0 \, mix 9 mute 0 \, mix 10
mute 1 \, mix 0 color \$1 0 \, mix 1 color \$1 0 \, mix 2 color \$1
0 \, mix 3 color \$1 0 \, mix 4 color \$1 0 \, mix 5 color \$1 0 \,
mix 6 color \$1 0 \, mix 7 color \$1 0 \, mix 8 color \$1 0 \, mix
9 color \$1 0 \, mix 10 label;
#X obj 609 33 pack 387;
#X connect 9 0 8 0;
#X connect 10 0 21 0;
#X connect 10 0 33 0;
#X connect 15 0 14 0;
#X connect 16 0 21 0;
#X connect 16 0 33 0;
#X connect 17 0 18 0;
#X connect 18 0 20 0;
#X connect 18 0 19 0;
#X connect 19 0 8 0;
#X connect 20 0 8 0;
#X connect 21 0 8 0;
#X connect 22 0 0 0;
#X connect 23 0 1 0;
#X connect 24 0 2 0;
#X connect 25 0 3 0;
#X connect 26 0 4 0;
#X connect 27 0 5 0;
#X connect 28 0 6 0;
#X connect 29 0 7 0;
#X connect 30 0 11 0;
#X connect 31 0 12 0;
#X connect 32 0 8 0;
#X connect 33 0 32 0;
#X coords 0 -1 1 1 408 20 1 10 10;
#X restore 77 200 pd levels_after_effects;
#X obj 761 413 sp-glimiter~ 100;
#N canvas 255 174 450 300 master 0;
#X obj 36 201 outlet~;
#X obj 132 201 outlet~;
#X obj 217 201 outlet;
#X obj 36 158 r~ \$0-left;
#X obj 132 158 r~ \$0-right;
#X obj 217 158 r \$0-bus;
#X obj 272 99 r \$0-stop;
#X msg 272 127 record stop;
#X obj 250 55 inlet;
#X connect 3 0 0 0;
#X connect 4 0 1 0;
#X connect 5 0 2 0;
#X connect 6 0 7 0;
#X connect 7 0 2 0;
#X connect 8 0 2 0;
#X coords 0 -1 1 1 200 20 1 10 10;
#X restore 761 386 pd master;
#N canvas 359 296 333 182 delay_common 0;
#X obj 100 105 r~ \$0-viola-to-delay;
#X obj 100 136 tabwrite~ t-viola;
#X obj 27 57 r \$0-start-table-write;
#X msg 27 79 start;
#X obj 180 57 r \$0-stop-table-write;
#X msg 180 79 stop;
#X connect 0 0 1 0;
#X connect 2 0 3 0;
#X connect 3 0 1 0;
#X connect 4 0 5 0;
#X connect 5 0 1 0;
#X restore 19 480 pd delay_common;
#N canvas 150 336 615 372 metro 0;
#X obj 194 18 r \$0-start;
#X obj 194 144 metro;
#X obj 221 114 sp-bpm2ms;
#X obj 221 88 f 180;
#X obj 248 61 r \$0-init-bpm;
#X obj 288 267 *~;
#X obj 288 335 s~ \$0-c;
#X msg 194 115 1;
#X obj 194 61 t b b;
#X obj 96 18 r \$0-stop-metro;
#X msg 96 115 0;
#X obj 205 39 bng 15 250 50 0 empty empty empty 17 7 0 10 -262144 -1
-1;
#X msg 262 200 start;
#X msg 303 200 stop;
#X obj 303 176 del 150;
#N canvas 299 97 450 300 tone 0;
#X obj 29 266 outlet~;
#X obj 29 149 osc~;
#X obj 29 118 mtof;
#X obj 29 52 loadbang;
#X msg 29 92 84;
#X obj 29 198 sp-crossfade~;
#X msg 66 91 36;
#X obj 66 119 mtof;
#X obj 147 71 osc~ 0.1;
#X obj 147 96 unsig~ 100;
#X obj 147 122 scale -1 1 0.1 0.9;
#X obj 274 90 r \$0-init;
#X msg 274 119 0;
#X obj 165 196 unsig~ 1000;
#X floatatom 175 266 10 0 0 0 - - -;
#X obj 66 150 bl-pulse.mmb~;
#X obj 165 11 r \$0-piece-length;
#X text 318 119 reset phase;
#X obj 165 34 expr 1 / ($f1 * 120);
#X obj 165 174 bl-tri.mmb~;
#X obj 165 216 abs;
#X obj 181 243 scale 0 1 0 0.7;
#X connect 1 0 5 0;
#X connect 2 0 1 0;
#X connect 3 0 4 0;
#X connect 3 0 6 0;
#X connect 4 0 2 0;
#X connect 5 0 0 0;
#X connect 6 0 7 0;
#X connect 7 0 15 0;
#X connect 8 0 9 0;
#X connect 9 0 10 0;
#X connect 10 0 15 1;
#X connect 11 0 12 0;
#X connect 12 0 19 1;
#X connect 13 0 20 0;
#X connect 15 0 5 1;
#X connect 16 0 18 0;
#X connect 18 0 19 0;
#X connect 19 0 13 0;
#X connect 20 0 21 0;
#X connect 21 0 5 2;
#X connect 21 0 14 0;
#X restore 200 250 pd tone;
#N canvas 688 260 450 300 adsr 0;
#X obj 63 226 eadsr~ 0 0;
#X msg 101 190 1.25;
#X msg 141 190 1;
#X msg 177 190 3;
#X obj 158 83 t b b b b;
#X obj 158 50 loadbang;
#X msg 214 190 100;
#X obj 63 256 outlet~;
#X obj 63 145 inlet;
#X connect 0 0 7 0;
#X connect 1 0 0 1;
#X connect 2 0 0 2;
#X connect 3 0 0 3;
#X connect 4 0 1 0;
#X connect 4 1 2 0;
#X connect 4 2 3 0;
#X connect 4 3 6 0;
#X connect 5 0 4 0;
#X connect 6 0 0 4;
#X connect 8 0 0 0;
#X restore 303 240 pd adsr;
#N canvas 656 453 425 219 inc-vol 0;
#X obj 52 50 inlet~;
#X obj 52 127 *~;
#X obj 118 110 line~;
#X obj 52 154 outlet~;
#X msg 118 87 1 10;
#X obj 118 25 loadbang;
#X obj 182 25 r \$0-inc-vol;
#X obj 182 49 + 1;
#X msg 182 77 \$1 10;
#X floatatom 236 77 5 0 0 0 - - -;
#X obj 52 89 *~ 0.2;
#X connect 0 0 10 0;
#X connect 1 0 3 0;
#X connect 2 0 1 1;
#X connect 4 0 2 0;
#X connect 5 0 4 0;
#X connect 6 0 7 0;
#X connect 7 0 8 0;
#X connect 7 0 9 0;
#X connect 8 0 2 0;
#X connect 10 0 1 0;
#X restore 288 299 pd inc-vol;
#N canvas 127 152 450 300 clock 0;
#X obj 65 92 inlet;
#X obj 65 181 *~;
#X obj 65 218 outlet~;
#X obj 158 102 unsig~ 500;
#X obj 158 28 r \$0-piece-length;
#X obj 314 29 r \$0-init;
#X msg 314 53 0;
#X text 345 52 reset phase;
#X obj 65 139 clock4;
#X obj 158 80 osc~;
#X obj 158 125 * -1;
#X floatatom 161 198 5 0 0 0 - - -;
#X obj 158 55 expr 1 / ($f1 * 60);
#X obj 158 152 scale -1 1 0 2;
#X connect 0 0 8 0;
#X connect 1 0 2 0;
#X connect 3 0 10 0;
#X connect 4 0 12 0;
#X connect 5 0 6 0;
#X connect 6 0 9 1;
#X connect 8 0 1 0;
#X connect 9 0 3 0;
#X connect 10 0 13 0;
#X connect 12 0 9 0;
#X connect 13 0 1 1;
#X connect 13 0 11 0;
#X restore 194 224 pd clock;
#X connect 0 0 8 0;
#X connect 1 0 12 0;
#X connect 1 0 14 0;
#X connect 1 0 18 0;
#X connect 2 0 1 1;
#X connect 3 0 2 0;
#X connect 4 0 3 1;
#X connect 5 0 17 0;
#X connect 7 0 1 0;
#X connect 8 0 7 0;
#X connect 8 1 3 0;
#X connect 9 0 10 0;
#X connect 10 0 1 0;
#X connect 11 0 8 0;
#X connect 12 0 16 0;
#X connect 13 0 16 0;
#X connect 14 0 13 0;
#X connect 15 0 5 0;
#X connect 16 0 5 1;
#X connect 17 0 6 0;
#X connect 18 0 6 0;
#X restore 19 561 pd metro;
#N canvas 365 285 450 300 start 0;
#X obj 43 39 r \$0-start-s;
#X obj 42 195 s \$0-start-table-write;
#X obj 43 76 s \$0-start;
#X obj 42 158 r \$0-start;
#X obj 199 218 s \$0-bus;
#X msg 199 191 record start;
#X connect 0 0 2 0;
#X connect 3 0 1 0;
#X connect 3 0 5 0;
#X connect 5 0 4 0;
#X restore 19 588 pd start;
#N canvas 397 303 450 300 stop 0;
#X obj 23 218 s \$0-stop;
#X obj 102 83 s \$0-stop-metro;
#X obj 212 83 s \$0-stop-table-write;
#X obj 76 152 s \$0-fadeout;
#X obj 28 54 t b b b b b;
#X msg 76 124 1;
#X obj 28 22 r \$0-stop;
#X obj 23 188 r \$0-stop-s;
#X obj 193 151 s \$0-bus;
#X msg 193 123 record stop;
#X connect 4 0 9 0;
#X connect 4 1 1 0;
#X connect 4 2 2 0;
#X connect 4 4 5 0;
#X connect 5 0 3 0;
#X connect 6 0 4 0;
#X connect 7 0 0 0;
#X connect 9 0 8 0;
#X restore 19 615 pd stop;
#N canvas 331 46 430 243 keys 0;
#X obj 30 131 s \$0-bus;
#X msg 30 100 on 0;
#X msg 95 100 on 1;
#X obj 95 70 sp-key +;
#X obj 30 70 sp-key =;
#X connect 1 0 0 0;
#X connect 2 0 0 0;
#X connect 3 0 2 0;
#X connect 4 0 1 0;
#X restore 19 642 pd keys;
#N canvas 286 443 644 327 delay_viola 0;
#X obj 29 43 r \$0-start;
#X obj 468 19 r \$0-init;
#X msg 468 46 bang;
#X obj 468 74 f \$0;
#X obj 348 161 pack \$0 f;
#X obj 399 114 sp-bpm2ms;
#X obj 372 63 t b b;
#X obj 399 89 f 180;
#X obj 159 130 s~ \$0-viola-out-2;
#X obj 29 130 s~ \$0-viola-out-1;
#X obj 29 200 s~ \$0-viola-out-3;
#X msg 348 185 \; \$1-delay-viola \$2;
#N canvas 436 310 497 368 delay_viola1 0;
#X obj 26 101 inlet;
#X obj 26 183 del;
#X obj 26 281 outlet~;
#X obj 76 151 -;
#X floatatom 76 183 6 0 0 0 - - -;
#X msg 26 208 bang;
#X obj 76 101 r \$0-delay-viola;
#X obj 201 101 r \$0-delay-viola-1-comp;
#X obj 26 255 tabplay~ t-viola;
#X obj 120 182 f;
#X obj 120 159 r \$0-stop;
#X obj 120 206 del;
#X msg 120 229 stop;
#X obj 115 16 r \$0-v1-order-s;
#X floatatom 137 63 5 0 0 0 - - -;
#X obj 115 46 + 1;
#X obj 76 126 * 1;
#X connect 0 0 1 0;
#X connect 1 0 5 0;
#X connect 3 0 1 1;
#X connect 3 0 4 0;
#X connect 3 0 9 1;
#X connect 5 0 8 0;
#X connect 6 0 16 0;
#X connect 7 0 3 1;
#X connect 8 0 2 0;
#X connect 9 0 11 0;
#X connect 10 0 9 0;
#X connect 11 0 12 0;
#X connect 12 0 8 0;
#X connect 13 0 15 0;
#X connect 15 0 16 1;
#X connect 15 0 14 0;
#X connect 16 0 3 0;
#X restore 29 100 pd delay_viola1;
#N canvas 114 267 503 330 delay_viola2 0;
#X obj 46 91 inlet;
#X obj 46 173 del;
#X obj 46 251 outlet~;
#X obj 96 141 -;
#X floatatom 96 173 6 0 0 0 - - -;
#X msg 46 198 bang;
#X obj 46 225 tabplay~ t-viola;
#X obj 96 91 r \$0-delay-viola;
#X obj 221 91 r \$0-delay-viola-2-comp;
#X obj 160 152 f;
#X obj 160 129 r \$0-stop;
#X obj 160 176 del;
#X msg 160 199 stop;
#X obj 142 15 r \$0-v2-order-s;
#X floatatom 165 58 5 0 0 0 - - -;
#X obj 142 41 + 1;
#X obj 96 116 * 2;
#X connect 0 0 1 0;
#X connect 1 0 5 0;
#X connect 3 0 1 1;
#X connect 3 0 4 0;
#X connect 3 0 9 1;
#X connect 5 0 6 0;
#X connect 6 0 2 0;
#X connect 7 0 16 0;
#X connect 8 0 3 1;
#X connect 9 0 11 0;
#X connect 10 0 9 0;
#X connect 11 0 12 0;
#X connect 12 0 6 0;
#X connect 13 0 15 0;
#X connect 15 0 14 0;
#X connect 15 0 16 1;
#X connect 16 0 3 0;
#X restore 159 100 pd delay_viola2;
#N canvas 114 267 423 273 delay_viola3 0;
#X obj 26 101 inlet;
#X obj 26 183 del;
#X obj 26 261 outlet~;
#X obj 76 151 -;
#X floatatom 76 183 6 0 0 0 - - -;
#X msg 26 208 bang;
#X obj 26 235 tabplay~ t-viola;
#X obj 76 101 r \$0-delay-viola;
#X obj 201 101 r \$0-delay-viola-3-comp;
#X obj 130 162 f;
#X obj 130 139 r \$0-stop;
#X obj 130 186 del;
#X msg 130 209 stop;
#X obj 102 25 r \$0-v3-order-s;
#X floatatom 124 71 5 0 0 0 - - -;
#X obj 102 54 + 1;
#X obj 76 126 * 3;
#X connect 0 0 1 0;
#X connect 1 0 5 0;
#X connect 3 0 1 1;
#X connect 3 0 4 0;
#X connect 3 0 9 1;
#X connect 5 0 6 0;
#X connect 6 0 2 0;
#X connect 7 0 16 0;
#X connect 8 0 3 1;
#X connect 9 0 11 0;
#X connect 10 0 9 0;
#X connect 11 0 12 0;
#X connect 12 0 6 0;
#X connect 13 0 15 0;
#X connect 15 0 14 0;
#X connect 15 0 16 1;
#X connect 16 0 3 0;
#X restore 29 170 pd delay_viola3;
#X obj 399 137 * 24;
#X obj 159 200 s~ \$0-viola-out-4;
#N canvas 114 267 376 278 delay_viola4 0;
#X obj 26 81 inlet;
#X obj 26 163 del;
#X obj 26 241 outlet~;
#X obj 76 131 -;
#X floatatom 76 163 6 0 0 0 - - -;
#X msg 26 188 bang;
#X obj 26 215 tabplay~ t-viola;
#X obj 76 81 r \$0-delay-viola;
#X obj 130 142 f;
#X obj 130 119 r \$0-stop;
#X obj 130 166 del;
#X msg 130 189 stop;
#X obj 102 16 r \$0-v4-order-s;
#X obj 201 81 r \$0-delay-viola-4-comp;
#X obj 102 44 + 1;
#X floatatom 124 61 5 0 0 0 - - -;
#X obj 76 106 * 4;
#X connect 0 0 1 0;
#X connect 1 0 5 0;
#X connect 3 0 1 1;
#X connect 3 0 4 0;
#X connect 3 0 8 1;
#X connect 5 0 6 0;
#X connect 6 0 2 0;
#X connect 7 0 16 0;
#X connect 8 0 10 0;
#X connect 9 0 8 0;
#X connect 10 0 11 0;
#X connect 11 0 6 0;
#X connect 12 0 14 0;
#X connect 13 0 3 1;
#X connect 14 0 15 0;
#X connect 14 0 16 1;
#X connect 16 0 3 0;
#X restore 159 170 pd delay_viola4;
#N canvas 114 267 376 278 delay_viola6 0;
#X obj 26 81 inlet;
#X obj 26 163 del;
#X obj 26 241 outlet~;
#X obj 76 131 -;
#X floatatom 76 163 6 0 0 0 - - -;
#X msg 26 188 bang;
#X obj 26 215 tabplay~ t-viola;
#X obj 76 81 r \$0-delay-viola;
#X obj 130 142 f;
#X obj 130 119 r \$0-stop;
#X obj 130 166 del;
#X msg 130 189 stop;
#X obj 102 44 + 1;
#X floatatom 124 61 5 0 0 0 - - -;
#X obj 76 106 * 4;
#X obj 102 16 r \$0-v6-order-s;
#X obj 201 81 r \$0-delay-viola-6-comp;
#X connect 0 0 1 0;
#X connect 1 0 5 0;
#X connect 3 0 1 1;
#X connect 3 0 4 0;
#X connect 3 0 8 1;
#X connect 5 0 6 0;
#X connect 6 0 2 0;
#X connect 7 0 14 0;
#X connect 8 0 10 0;
#X connect 9 0 8 0;
#X connect 10 0 11 0;
#X connect 11 0 6 0;
#X connect 12 0 13 0;
#X connect 12 0 14 1;
#X connect 14 0 3 0;
#X connect 15 0 12 0;
#X connect 16 0 3 1;
#X restore 159 240 pd delay_viola6;
#N canvas 114 267 426 309 delay_viola5 0;
#X obj 26 101 inlet;
#X obj 26 183 del;
#X obj 26 261 outlet~;
#X obj 76 151 -;
#X floatatom 76 183 6 0 0 0 - - -;
#X msg 26 208 bang;
#X obj 26 235 tabplay~ t-viola;
#X obj 76 101 r \$0-delay-viola;
#X obj 130 162 f;
#X obj 130 139 r \$0-stop;
#X obj 130 186 del;
#X msg 130 209 stop;
#X floatatom 124 71 5 0 0 0 - - -;
#X obj 102 54 + 1;
#X obj 76 126 * 3;
#X obj 201 101 r \$0-delay-viola-5-comp;
#X obj 102 25 r \$0-v5-order-s;
#X connect 0 0 1 0;
#X connect 1 0 5 0;
#X connect 3 0 1 1;
#X connect 3 0 4 0;
#X connect 3 0 8 1;
#X connect 5 0 6 0;
#X connect 6 0 2 0;
#X connect 7 0 14 0;
#X connect 8 0 10 0;
#X connect 9 0 8 0;
#X connect 10 0 11 0;
#X connect 11 0 6 0;
#X connect 13 0 12 0;
#X connect 13 0 14 1;
#X connect 14 0 3 0;
#X connect 15 0 3 1;
#X connect 16 0 13 0;
#X restore 29 240 pd delay_viola5;
#X obj 29 270 s~ \$0-viola-out-5;
#X obj 159 270 s~ \$0-viola-out-6;
#X msg 468 100 \; \$1-delay-viola-1-comp 40 \; \$1-delay-viola-2-comp
40 \; \$1-delay-viola-3-comp 20 \; \$1-delay-viola-4-comp 10 \; \$1-delay-viola-5-comp
10 \; \$1-delay-viola-6-comp 10 \;;
#X connect 0 0 12 0;
#X connect 0 0 13 0;
#X connect 0 0 14 0;
#X connect 0 0 17 0;
#X connect 0 0 19 0;
#X connect 0 0 18 0;
#X connect 1 0 2 0;
#X connect 2 0 3 0;
#X connect 2 0 6 0;
#X connect 3 0 22 0;
#X connect 4 0 11 0;
#X connect 5 0 15 0;
#X connect 6 0 4 0;
#X connect 6 1 7 0;
#X connect 7 0 5 0;
#X connect 12 0 9 0;
#X connect 13 0 8 0;
#X connect 14 0 10 0;
#X connect 15 0 4 1;
#X connect 17 0 16 0;
#X connect 18 0 21 0;
#X connect 19 0 20 0;
#X restore 19 507 pd delay_viola;
#X obj 77 146 tgl 15 0 empty empty empty 17 7 0 10 -262144 -1 -1 0
1;
#X obj 19 229 sp-gmix~;
#N canvas 150 231 977 290 panning 0;
#X obj 151 71 inlet~;
#X obj 231 71 inlet~;
#X obj 151 239 s~ \$0-left;
#X obj 239 239 s~ \$0-right;
#X obj 52 40 r \$0-init;
#X obj 320 71 inlet~;
#X obj 33 71 inlet~;
#X obj 382 71 inlet~;
#X obj 440 71 inlet~;
#X obj 496 71 inlet~;
#X obj 551 71 inlet~;
#X obj 606 71 inlet~;
#X obj 666 71 inlet~;
#X obj 721 71 inlet~;
#X obj 776 71 inlet~;
#X obj 834 69 inlet;
#N canvas 515 49 450 300 slow_pan 0;
#X obj 34 121 inlet~;
#X obj 34 158 pan~;
#X obj 34 229 outlet~;
#X obj 107 230 outlet~;
#X obj 105 14 loadbang;
#X obj 105 63 osc~;
#X obj 105 85 unsig~ 500;
#X obj 117 172 nbx 5 14 -1e+37 1e+37 0 0 empty empty empty 0 -8 0 10
-262144 -1 -1 -40.7177 256;
#X obj 105 109 scale -1 1 -45 45 0;
#X obj 105 41 f 0.03;
#X connect 0 0 1 0;
#X connect 1 0 2 0;
#X connect 1 1 3 0;
#X connect 4 0 9 0;
#X connect 5 0 6 0;
#X connect 6 0 8 0;
#X connect 8 0 7 0;
#X connect 8 0 1 1;
#X connect 9 0 5 0;
#X restore 151 124 pd slow_pan;
#X obj 231 124 pan~;
#X msg 265 96 30;
#X obj 33 124 pan~;
#X obj 320 124 pan~;
#X msg 344 98 -30;
#X msg 79 101 15;
#X obj 382 124 pan~;
#X msg 403 100 -15;
#X obj 440 124 pan~;
#X msg 465 101 20;
#X obj 496 124 pan~;
#X msg 533 99 5;
#X obj 551 125 pan~;
#X msg 578 99 -10;
#N canvas 515 49 450 300 slow_pan 0;
#X obj 34 121 inlet~;
#X obj 34 158 pan~;
#X obj 34 229 outlet~;
#X obj 107 230 outlet~;
#X obj 105 14 loadbang;
#X obj 105 63 osc~;
#X obj 105 85 unsig~ 500;
#X obj 117 172 nbx 5 14 -1e+37 1e+37 0 0 empty empty empty 0 -8 0 10
-262144 -1 -1 -13.2817 256;
#X obj 105 41 f 0.017;
#X obj 105 109 scale -1 1 -30 30 0;
#X connect 0 0 1 0;
#X connect 1 0 2 0;
#X connect 1 1 3 0;
#X connect 4 0 8 0;
#X connect 5 0 6 0;
#X connect 6 0 9 0;
#X connect 8 0 5 0;
#X connect 9 0 7 0;
#X connect 9 0 1 1;
#X restore 776 136 pd slow_pan;
#X msg 635 107 -15;
#X obj 606 124 pan~;
#X msg 695 107 -15;
#X obj 666 124 pan~;
#X connect 0 0 16 0;
#X connect 1 0 17 0;
#X connect 4 0 18 0;
#X connect 4 0 22 0;
#X connect 4 0 21 0;
#X connect 4 0 24 0;
#X connect 4 0 26 0;
#X connect 4 0 28 0;
#X connect 4 0 30 0;
#X connect 4 0 32 0;
#X connect 5 0 20 0;
#X connect 6 0 19 0;
#X connect 7 0 23 0;
#X connect 8 0 25 0;
#X connect 9 0 27 0;
#X connect 10 0 29 0;
#X connect 11 0 33 0;
#X connect 12 0 35 0;
#X connect 14 0 31 0;
#X connect 16 0 2 0;
#X connect 16 1 3 0;
#X connect 17 0 2 0;
#X connect 17 1 3 0;
#X connect 18 0 17 1;
#X connect 19 0 2 0;
#X connect 19 1 3 0;
#X connect 20 0 2 0;
#X connect 20 1 3 0;
#X connect 21 0 20 1;
#X connect 22 0 19 1;
#X connect 23 0 2 0;
#X connect 23 1 3 0;
#X connect 24 0 23 1;
#X connect 25 0 2 0;
#X connect 25 1 3 0;
#X connect 26 0 25 1;
#X connect 27 0 2 0;
#X connect 27 1 3 0;
#X connect 28 0 27 1;
#X connect 29 0 2 0;
#X connect 29 1 3 0;
#X connect 30 0 29 1;
#X connect 31 0 2 0;
#X connect 31 1 3 0;
#X connect 32 0 33 1;
#X connect 33 0 2 0;
#X connect 33 1 3 0;
#X connect 34 0 35 1;
#X connect 35 0 2 0;
#X connect 35 1 3 0;
#X coords 0 -1 1 1 408 20 1 10 10;
#X restore 77 413 pd panning;
#N canvas 241 54 335 553 viola_effects 0;
#X obj 25 31 r~ \$0-viola-out-0;
#X obj 25 140 r~ \$0-viola-out-1;
#X obj 25 196 s~ \$0-viola-eff-1;
#X obj 26 241 r~ \$0-viola-out-2;
#X obj 26 299 s~ \$0-viola-eff-2;
#X obj 26 331 r~ \$0-viola-out-3;
#X obj 26 389 s~ \$0-viola-eff-3;
#X obj 25 94 s~ \$0-viola-eff-0;
#X obj 25 431 r~ \$0-viola-out-4;
#X obj 25 494 s~ \$0-viola-eff-4;
#N canvas 228 211 677 425 viola-eff-4 0;
#X obj 36 54 inlet~;
#X obj 36 355 outlet~;
#X obj 267 31 loadbang;
#X obj 36 170 sp-goctaver~ -1;
#X msg 267 95 octaver dry-wet 50;
#X connect 0 0 3 0;
#X connect 2 0 4 0;
#X connect 3 0 1 0;
#X connect 4 0 3 1;
#X restore 35 464 pd viola-eff-4;
#N canvas 220 240 677 425 viola-eff-0 0;
#X obj 36 64 inlet~;
#X obj 229 21 r \$0-init;
#X obj 36 355 outlet~;
#X obj 312 21 loadbang;
#X connect 0 0 2 0;
#X restore 35 64 pd viola-eff-0;
#N canvas 28 323 823 371 viola-eff2 0;
#X obj 51 24 inlet~;
#X obj 51 261 outlet~;
#X obj 430 28 r \$0-init;
#X msg 625 176 moog freq \$1;
#X obj 51 234 *~ 5;
#X obj 430 103 ../sp-line-random 1000 10000 0 20;
#X msg 430 58 moog dry-wet 100 \, moog pass 0 \, moog q 2 \, moog freq
0.3 \, moog low 600 \, moog high 5000;
#X obj 321 178 r \$0-moog-move-Q;
#X msg 321 296 moog q \$1;
#X obj 321 266 line;
#X obj 244 23 r \$0-moog;
#X obj 625 228 s \$0-moog;
#X obj 321 325 s \$0-moog;
#X obj 625 148 scale 0 20 0.1 0.9;
#X obj 625 204 spigot;
#X obj 581 171 tgl 15 0 empty empty empty 17 7 0 10 -262144 -1 -1 0
1;
#X msg 543 138 1;
#X msg 507 138 0;
#X obj 367 211 del 5000;
#X msg 367 235 2 3000;
#X msg 374 273 moog freq 0.05;
#X obj 424 235 del 3000;
#X msg 321 212 6 5000;
#X obj 51 55 sp-gmoog~ moog1;
#X connect 0 0 23 0;
#X connect 2 0 6 0;
#X connect 2 0 5 0;
#X connect 2 0 16 0;
#X connect 3 0 14 0;
#X connect 4 0 1 0;
#X connect 5 1 13 0;
#X connect 6 0 23 1;
#X connect 7 0 22 0;
#X connect 7 0 17 0;
#X connect 7 0 18 0;
#X connect 8 0 12 0;
#X connect 9 0 8 0;
#X connect 10 0 23 1;
#X connect 13 0 3 0;
#X connect 14 0 11 0;
#X connect 15 0 14 1;
#X connect 16 0 15 0;
#X connect 17 0 15 0;
#X connect 18 0 19 0;
#X connect 18 0 21 0;
#X connect 19 0 9 0;
#X connect 20 0 12 0;
#X connect 21 0 16 0;
#X connect 22 0 9 0;
#X connect 22 0 20 0;
#X connect 23 0 4 0;
#X restore 36 270 pd viola-eff2;
#N canvas 93 74 762 630 viola-eff3 0;
#X obj 94 84 inlet~;
#X obj 94 586 outlet~;
#X obj 287 34 r \$0-init;
#X obj 363 33 loadbang;
#X msg 287 70 octaver shape 2 \, octaver pass 0 \, octaver octave -1
\, octaver dry-wet 86 \, gate threshold 70 \, gate pass 0 \, compr
level 4 \, crossfade 50 \, gate pass 1 \, compr pass 1;
#X obj 117 235 ../ts/TS~;
#X msg 239 170 0.5 0.5 0.5 1;
#X connect 0 0 5 0;
#X connect 2 0 4 0;
#X connect 2 0 6 0;
#X connect 3 0 4 0;
#X connect 5 0 1 0;
#X connect 6 0 5 1;
#X restore 36 360 pd viola-eff3;
#N canvas 81 180 776 612 viola-eff1 0;
#X obj 32 33 inlet~;
#X obj 32 360 outlet~;
#X obj 32 96 sp-goctaver~ 3;
#X obj 225 42 r \$0-init;
#X obj 32 311 *~ 3;
#X msg 225 68 octaver dry-wet 87 \, octaver octave 3 \, octaver shape
0;
#X connect 0 0 2 0;
#X connect 2 0 4 0;
#X connect 3 0 5 0;
#X connect 4 0 1 0;
#X connect 5 0 2 1;
#X restore 35 168 pd viola-eff1;
#X obj 166 31 r~ \$0-viola-out-5;
#X obj 166 89 s~ \$0-viola-eff-5;
#X obj 165 131 r~ \$0-viola-out-6;
#X obj 165 194 s~ \$0-viola-eff-6;
#N canvas 93 74 762 630 viola-eff5 0;
#X obj 94 84 inlet~;
#X obj 94 586 outlet~;
#X obj 287 34 r \$0-init;
#X obj 363 33 loadbang;
#X obj 94 279 sp-gfilter-material~;
#X msg 287 191 filter-material material 2 \, filter-material dry-wet
82;
#X connect 0 0 4 0;
#X connect 2 0 5 0;
#X connect 3 0 5 0;
#X connect 4 0 1 0;
#X connect 5 0 4 1;
#X restore 176 60 pd viola-eff5;
#N canvas 478 181 677 425 viola-eff-6 0;
#X obj 46 54 inlet~;
#X obj 279 21 r \$0-init;
#X obj 46 355 outlet~;
#X obj 362 21 loadbang;
#X obj 46 124 sp-filter-specktral~;
#X msg 279 63 spectral dry-wet 55 \, spectral random;
#X connect 0 0 4 0;
#X connect 1 0 5 0;
#X connect 3 0 5 0;
#X connect 4 0 2 0;
#X connect 5 0 4 1;
#X restore 175 164 pd viola-eff-6;
#X obj 164 268 s~ \$0-viola-eff-7;
#X obj 164 298 s~ \$0-viola-eff-8;
#X obj 164 328 s~ \$0-viola-eff-9;
#X connect 0 0 11 0;
#X connect 1 0 14 0;
#X connect 3 0 12 0;
#X connect 5 0 13 0;
#X connect 8 0 10 0;
#X connect 10 0 9 0;
#X connect 11 0 7 0;
#X connect 12 0 4 0;
#X connect 13 0 6 0;
#X connect 14 0 2 0;
#X connect 15 0 19 0;
#X connect 17 0 20 0;
#X connect 19 0 16 0;
#X connect 20 0 18 0;
#X restore 19 534 pd viola_effects;
#X obj 507 463 cnv 15 200 120 empty empty empty 20 12 0 14 -233017
-66577 0;
#X text 516 467 Legend:;
#X text 515 502 1 Check DSP;
#X text 515 522 2 Press Init;
#X text 515 542 3 Press Start;
#X text 515 562 4 Play;
#X text 515 484 0 Renice PD process (!);
#N canvas 345 223 554 284 in 0;
#X obj 227 211 outlet~;
#X obj 307 210 outlet;
#X obj 235 91 loadbang;
#X obj 126 15 r \$0-init;
#X msg 126 39 0;
#X msg 318 83 mute \$1;
#X obj 318 56 tgl 15 0 empty empty empty 17 7 0 10 -262144 -1 -1 0
1;
#X obj 318 28 sp-key @;
#X msg 307 108 label vla \, color 164 0 \, volume 0.8;
#X obj 227 171 adc~ 1;
#X connect 2 0 8 0;
#X connect 3 0 4 0;
#X connect 4 0 6 0;
#X connect 5 0 1 0;
#X connect 6 0 5 0;
#X connect 7 0 6 0;
#X connect 8 0 1 0;
#X connect 9 0 0 0;
#X coords 0 -1 1 1 35 20 1 100 100;
#X restore 19 209 pd in;
#N canvas 324 285 191 160 out 0;
#X obj 28 33 inlet~;
#X obj 28 113 s~ \$0-viola-to-delay;
#X obj 42 80 s~ \$0-viola-out-0;
#X connect 0 0 1 0;
#X connect 0 0 2 0;
#X restore 19 410 pd out;
#X msg 77 171 mute \$1;
#X obj 762 607 sp-gparam;
#X obj 19 15 sp-title Terry Riley: In C;
#X text 665 325 material;
#X text 665 341 spectral;
#X obj 761 255 sp-midi-dsp-control;
#X connect 6 0 7 0;
#X connect 7 0 8 12;
#X connect 8 0 36 0;
#X connect 8 1 36 1;
#X connect 8 2 36 2;
#X connect 8 3 36 3;
#X connect 8 4 36 4;
#X connect 8 5 36 5;
#X connect 8 6 36 6;
#X connect 8 7 36 7;
#X connect 8 8 36 8;
#X connect 8 9 36 9;
#X connect 8 11 36 11;
#X connect 8 12 36 12;
#X connect 25 0 8 0;
#X connect 25 1 8 1;
#X connect 25 2 8 2;
#X connect 25 3 8 3;
#X connect 25 4 8 4;
#X connect 25 5 8 5;
#X connect 25 6 8 6;
#X connect 25 7 8 7;
#X connect 25 8 8 8;
#X connect 25 9 8 9;
#X connect 25 10 8 10;
#X connect 25 11 8 11;
#X connect 25 12 8 12;
#X connect 26 0 0 0;
#X connect 26 1 0 1;
#X connect 26 2 0 2;
#X connect 27 0 26 0;
#X connect 27 1 26 1;
#X connect 27 2 26 2;
#X connect 34 0 47 0;
#X connect 35 0 46 0;
#X connect 45 0 35 0;
#X connect 45 1 35 1;
#X connect 47 0 25 0;
#X connect 52 0 27 0;
