#N canvas 342 318 450 300 10;
#X obj 160 19 inlet;
#X obj 160 53 f;
#X text 223 18 in-c-del: factor latenty_correction;
#X obj 160 121 del;
#X obj 19 22 inlet;
#X obj 160 155 outlet;
#X floatatom 200 121 10 0 0 0 - - -;
#X obj 291 53 inlet;
#X obj 240 54 f \$2;
#X obj 160 87 expr $f1 * \$1 - $f2;
#X obj 321 118 loadbang;
#X connect 0 0 1 0;
#X connect 1 0 9 0;
#X connect 3 0 5 0;
#X connect 4 0 3 0;
#X connect 7 0 9 1;
#X connect 8 0 9 1;
#X connect 9 0 3 0;
#X connect 9 0 6 0;
#X connect 10 0 8 0;
