#N canvas 38 43 1072 699 10;
#X obj 463 584 +dsp;
#X obj 464 397 sp-gmix8~;
#N canvas 211 516 309 170 TUIO 0;
#X obj 30 28 TuioClient;
#X obj 30 61 route addObject removeObject updateObject;
#X obj 30 90 unpack f f;
#X obj 111 90 unpack f f;
#X obj 87 127 s \$0-obj;
#X connect 0 0 1 0;
#X connect 1 0 2 0;
#X connect 1 1 3 0;
#X connect 2 1 4 0;
#X connect 3 1 4 0;
#X restore 16 17 pd TUIO;
#X obj 41 58 r \$0-obj;
#X obj 41 84 sel 0 1 2 3 4 5 6 7 8 9 10 11 12 13 14 15 16 17 18 19
20;
#X obj 41 121 tgl 10 0 empty empty empty 17 7 0 10 -262144 -1 -1 0
1;
#X obj 58 121 tgl 10 0 empty empty empty 17 7 0 10 -262144 -1 -1 0
1;
#X obj 75 121 tgl 10 0 empty empty empty 17 7 0 10 -262144 -1 -1 0
1;
#X obj 92 121 tgl 10 0 empty empty empty 17 7 0 10 -262144 -1 -1 0
1;
#X obj 111 121 tgl 10 0 empty empty empty 17 7 0 10 -262144 -1 -1 0
1;
#X obj 128 121 tgl 10 0 empty empty empty 17 7 0 10 -262144 -1 -1 0
1;
#X obj 145 121 tgl 10 0 empty empty empty 17 7 0 10 -262144 -1 -1 1
1;
#X obj 162 121 tgl 10 0 empty empty empty 17 7 0 10 -262144 -1 -1 1
1;
#X obj 181 121 tgl 10 0 empty empty empty 17 7 0 10 -262144 -1 -1 1
1;
#X obj 198 121 tgl 10 0 empty empty empty 17 7 0 10 -262144 -1 -1 1
1;
#X obj 215 121 tgl 10 0 empty empty empty 17 7 0 10 -262144 -1 -1 1
1;
#X obj 232 121 tgl 10 0 empty empty empty 17 7 0 10 -262144 -1 -1 1
1;
#X obj 251 121 tgl 10 0 empty empty empty 17 7 0 10 -262144 -1 -1 1
1;
#X obj 268 121 tgl 10 0 empty empty empty 17 7 0 10 -262144 -1 -1 1
1;
#X obj 285 121 tgl 10 0 empty empty empty 17 7 0 10 -262144 -1 -1 0
1;
#X obj 302 121 tgl 10 0 empty empty empty 17 7 0 10 -262144 -1 -1 0
1;
#X obj 291 181 sp-metro 196;
#X obj 424 25 loadbang;
#N canvas 467 300 450 300 C 0;
#X obj 57 37 inlet;
#X obj 108 240 noteout 15;
#X msg 57 130 84 100;
#X msg 115 155 84 0;
#X obj 115 129 del 50;
#X obj 115 36 inlet;
#X obj 57 193 demux . .;
#X connect 0 0 6 1;
#X connect 2 0 6 0;
#X connect 3 0 6 0;
#X connect 4 0 3 0;
#X connect 5 0 2 0;
#X connect 5 0 4 0;
#X connect 6 1 1 0;
#X restore 339 259 pd C;
#X obj 339 229 tgl 15 0 empty empty empty 17 7 0 10 -262144 -1 -1 1
1;
#N canvas 111 396 153 158 Kontakt5 0;
#X obj 40 105 ../sp-launch;
#X msg 40 66 run kontakt5;
#X obj 40 28 loadbang;
#X connect 1 0 0 0;
#X connect 2 0 1 0;
#X restore 424 88 pd Kontakt5;
#X obj 424 54 in_c_src/samples;
#X obj 378 223 s \$0-c;
#N canvas 308 227 268 166 sample1 0;
#X obj 32 -189 tgl 15 0 empty empty empty 17 7 0 10 -262144 -1 -1 0
1;
#X obj 32 -219 inlet;
#X obj 32 -133 in_c_src/play-sample 1;
#X obj 32 -102 outlet~;
#X obj 89 -191 r \$0-c;
#X obj 32 -161 sp-sync;
#X connect 0 0 5 0;
#X connect 1 0 0 0;
#X connect 2 0 3 0;
#X connect 4 0 5 1;
#X connect 5 0 2 0;
#X coords 0 166 1 165 85 20 0;
#X restore 41 170 pd sample1;
#N canvas 308 227 268 166 sample2 0;
#X obj 32 -189 tgl 15 0 empty empty empty 17 7 0 10 -262144 -1 -1 0
1;
#X obj 32 -219 inlet;
#X obj 32 -161 ../sp-sync;
#X obj 32 -102 outlet~;
#X obj 89 -191 r \$0-c;
#X obj 32 -133 in_c_src/play-sample 2;
#X connect 0 0 2 0;
#X connect 1 0 0 0;
#X connect 2 0 5 0;
#X connect 4 0 2 1;
#X connect 5 0 3 0;
#X coords 0 166 1 165 85 20 0;
#X restore 41 200 pd sample2;
#N canvas 308 227 268 166 sample3 0;
#X obj 32 -189 tgl 15 0 empty empty empty 17 7 0 10 -262144 -1 -1 0
1;
#X obj 32 -219 inlet;
#X obj 32 -161 ../sp-sync;
#X obj 32 -102 outlet~;
#X obj 89 -191 r \$0-c;
#X obj 32 -133 in_c_src/play-sample 3;
#X connect 0 0 2 0;
#X connect 1 0 0 0;
#X connect 2 0 5 0;
#X connect 4 0 2 1;
#X connect 5 0 3 0;
#X coords 0 166 1 165 85 20 0;
#X restore 41 230 pd sample3;
#N canvas 308 227 268 166 sample4 0;
#X obj 32 -189 tgl 15 0 empty empty empty 17 7 0 10 -262144 -1 -1 0
1;
#X obj 32 -219 inlet;
#X obj 32 -161 ../sp-sync;
#X obj 32 -102 outlet~;
#X obj 89 -191 r \$0-c;
#X obj 32 -133 in_c_src/play-sample 4;
#X connect 0 0 2 0;
#X connect 1 0 0 0;
#X connect 2 0 5 0;
#X connect 4 0 2 1;
#X connect 5 0 3 0;
#X coords 0 166 1 165 85 20 0;
#X restore 41 260 pd sample4;
#N canvas 308 227 268 166 sample5 0;
#X obj 32 -189 tgl 15 0 empty empty empty 17 7 0 10 -262144 -1 -1 0
1;
#X obj 32 -219 inlet;
#X obj 32 -161 ../sp-sync;
#X obj 32 -102 outlet~;
#X obj 89 -191 r \$0-c;
#X obj 32 -133 in_c_src/play-sample 5;
#X connect 0 0 2 0;
#X connect 1 0 0 0;
#X connect 2 0 5 0;
#X connect 4 0 2 1;
#X connect 5 0 3 0;
#X coords 0 166 1 165 85 20 0;
#X restore 41 290 pd sample5;
#N canvas 308 227 268 166 sample6 0;
#X obj 32 -189 tgl 15 0 empty empty empty 17 7 0 10 -262144 -1 -1 0
1;
#X obj 32 -219 inlet;
#X obj 32 -161 ../sp-sync;
#X obj 32 -102 outlet~;
#X obj 89 -191 r \$0-c;
#X obj 32 -133 in_c_src/play-sample 6;
#X connect 0 0 2 0;
#X connect 1 0 0 0;
#X connect 2 0 5 0;
#X connect 4 0 2 1;
#X connect 5 0 3 0;
#X coords 0 166 1 165 85 20 0;
#X restore 41 320 pd sample6;
#N canvas 308 227 268 166 sample7 0;
#X obj 32 -189 tgl 15 0 empty empty empty 17 7 0 10 -262144 -1 -1 1
1;
#X obj 32 -219 inlet;
#X obj 32 -161 ../sp-sync;
#X obj 32 -102 outlet~;
#X obj 89 -191 r \$0-c;
#X obj 32 -133 in_c_src/play-sample 7;
#X connect 0 0 2 0;
#X connect 1 0 0 0;
#X connect 2 0 5 0;
#X connect 4 0 2 1;
#X connect 5 0 3 0;
#X coords 0 166 1 165 85 20 0;
#X restore 41 350 pd sample7;
#N canvas 308 227 268 166 sample8 0;
#X obj 32 -189 tgl 15 0 empty empty empty 17 7 0 10 -262144 -1 -1 1
1;
#X obj 32 -219 inlet;
#X obj 32 -161 ../sp-sync;
#X obj 32 -102 outlet~;
#X obj 89 -191 r \$0-c;
#X obj 32 -133 in_c_src/play-sample 8;
#X connect 0 0 2 0;
#X connect 1 0 0 0;
#X connect 2 0 5 0;
#X connect 4 0 2 1;
#X connect 5 0 3 0;
#X coords 0 166 1 165 85 20 0;
#X restore 41 380 pd sample8;
#N canvas 308 227 268 166 sample7 0;
#X obj 32 -189 tgl 15 0 empty empty empty 17 7 0 10 -262144 -1 -1 0
1;
#X obj 32 -219 inlet;
#X obj 32 -161 ../sp-sync;
#X obj 32 -102 outlet~;
#X obj 89 -191 r \$0-c;
#X obj 32 -133 in_c_src/play-sample 7;
#X connect 0 0 2 0;
#X connect 1 0 0 0;
#X connect 2 0 5 0;
#X connect 4 0 2 1;
#X connect 5 0 3 0;
#X coords 0 166 1 165 85 20 0;
#X restore 141 350 pd sample7;
#N canvas 308 227 268 166 sample8 0;
#X obj 32 -189 tgl 15 0 empty empty empty 17 7 0 10 -262144 -1 -1 0
1;
#X obj 32 -219 inlet;
#X obj 32 -161 ../sp-sync;
#X obj 32 -102 outlet~;
#X obj 89 -191 r \$0-c;
#X obj 32 -133 in_c_src/play-sample 8;
#X connect 0 0 2 0;
#X connect 1 0 0 0;
#X connect 2 0 5 0;
#X connect 4 0 2 1;
#X connect 5 0 3 0;
#X coords 0 166 1 165 85 20 0;
#X restore 141 380 pd sample8;
#N canvas 308 227 268 166 sample9 0;
#X obj 32 -189 tgl 15 0 empty empty empty 17 7 0 10 -262144 -1 -1 1
1;
#X obj 32 -219 inlet;
#X obj 32 -102 outlet~;
#X obj 89 -191 r \$0-c;
#X obj 32 -161 sp-sync;
#X obj 32 -133 in_c_src/play-sample 9;
#X connect 0 0 4 0;
#X connect 1 0 0 0;
#X connect 3 0 4 1;
#X connect 4 0 5 0;
#X connect 5 0 2 0;
#X coords 0 166 1 165 85 20 0;
#X restore 141 170 pd sample9;
#N canvas 308 227 268 166 sample10 0;
#X obj 32 -189 tgl 15 0 empty empty empty 17 7 0 10 -262144 -1 -1 1
1;
#X obj 32 -219 inlet;
#X obj 32 -161 ../sp-sync;
#X obj 32 -102 outlet~;
#X obj 89 -191 r \$0-c;
#X obj 32 -133 in_c_src/play-sample 10;
#X connect 0 0 2 0;
#X connect 1 0 0 0;
#X connect 2 0 5 0;
#X connect 4 0 2 1;
#X connect 5 0 3 0;
#X coords 0 166 1 165 85 20 0;
#X restore 141 200 pd sample10;
#N canvas 308 227 268 166 sample11 0;
#X obj 32 -189 tgl 15 0 empty empty empty 17 7 0 10 -262144 -1 -1 1
1;
#X obj 32 -219 inlet;
#X obj 32 -161 ../sp-sync;
#X obj 32 -102 outlet~;
#X obj 89 -191 r \$0-c;
#X obj 32 -133 in_c_src/play-sample 11;
#X connect 0 0 2 0;
#X connect 1 0 0 0;
#X connect 2 0 5 0;
#X connect 4 0 2 1;
#X connect 5 0 3 0;
#X coords 0 166 1 165 85 20 0;
#X restore 141 230 pd sample11;
#N canvas 308 227 268 166 sample12 0;
#X obj 32 -189 tgl 15 0 empty empty empty 17 7 0 10 -262144 -1 -1 1
1;
#X obj 32 -219 inlet;
#X obj 32 -161 ../sp-sync;
#X obj 32 -102 outlet~;
#X obj 89 -191 r \$0-c;
#X obj 32 -133 in_c_src/play-sample 12;
#X connect 0 0 2 0;
#X connect 1 0 0 0;
#X connect 2 0 5 0;
#X connect 4 0 2 1;
#X connect 5 0 3 0;
#X coords 0 166 1 165 85 20 0;
#X restore 141 260 pd sample12;
#N canvas 308 227 268 166 sample13 0;
#X obj 32 -189 tgl 15 0 empty empty empty 17 7 0 10 -262144 -1 -1 1
1;
#X obj 32 -219 inlet;
#X obj 32 -161 ../sp-sync;
#X obj 32 -102 outlet~;
#X obj 89 -191 r \$0-c;
#X obj 32 -133 in_c_src/play-sample 13;
#X connect 0 0 2 0;
#X connect 1 0 0 0;
#X connect 2 0 5 0;
#X connect 4 0 2 1;
#X connect 5 0 3 0;
#X coords 0 166 1 165 85 20 0;
#X restore 141 290 pd sample13;
#N canvas 308 227 268 166 sample14 0;
#X obj 32 -189 tgl 15 0 empty empty empty 17 7 0 10 -262144 -1 -1 1
1;
#X obj 32 -219 inlet;
#X obj 32 -161 ../sp-sync;
#X obj 32 -102 outlet~;
#X obj 89 -191 r \$0-c;
#X obj 32 -133 in_c_src/play-sample 14;
#X connect 0 0 2 0;
#X connect 1 0 0 0;
#X connect 2 0 5 0;
#X connect 4 0 2 1;
#X connect 5 0 3 0;
#X coords 0 166 1 165 85 20 0;
#X restore 141 320 pd sample14;
#X obj 118 22 tgl 15 0 empty empty empty 17 7 0 10 -262144 -1 -1 0
1;
#X connect 1 0 0 0;
#X connect 1 1 0 1;
#X connect 1 2 0 0;
#X connect 1 3 0 0;
#X connect 1 4 0 1;
#X connect 1 5 0 0;
#X connect 1 6 0 1;
#X connect 1 7 0 0;
#X connect 3 0 4 0;
#X connect 4 0 5 0;
#X connect 4 1 6 0;
#X connect 4 2 7 0;
#X connect 4 3 8 0;
#X connect 4 4 9 0;
#X connect 4 5 10 0;
#X connect 4 6 11 0;
#X connect 4 7 12 0;
#X connect 4 8 13 0;
#X connect 4 9 14 0;
#X connect 4 10 15 0;
#X connect 4 11 16 0;
#X connect 4 12 17 0;
#X connect 4 13 18 0;
#X connect 4 14 19 0;
#X connect 4 15 20 0;
#X connect 5 0 28 0;
#X connect 6 0 29 0;
#X connect 7 0 30 0;
#X connect 8 0 31 0;
#X connect 9 0 32 0;
#X connect 10 0 33 0;
#X connect 11 0 34 0;
#X connect 12 0 35 0;
#X connect 13 0 38 0;
#X connect 14 0 39 0;
#X connect 15 0 40 0;
#X connect 16 0 41 0;
#X connect 17 0 42 0;
#X connect 18 0 43 0;
#X connect 21 1 23 1;
#X connect 21 1 27 0;
#X connect 22 0 26 0;
#X connect 24 0 23 0;
#X connect 28 0 1 0;
#X connect 29 0 1 2;
#X connect 30 0 1 4;
#X connect 31 0 1 6;
#X connect 32 0 1 8;
#X connect 33 0 1 10;
#X connect 34 0 1 12;
#X connect 35 0 1 14;
#X connect 38 0 1 0;
#X connect 39 0 1 2;
#X connect 40 0 1 4;
#X connect 41 0 1 8;
#X connect 42 0 1 10;
#X connect 43 0 1 12;
#X connect 44 0 5 0;
#X connect 44 0 6 0;
#X connect 44 0 7 0;
#X connect 44 0 8 0;
#X connect 44 0 9 0;
#X connect 44 0 10 0;
#X connect 44 0 11 0;
#X connect 44 0 12 0;
#X connect 44 0 13 0;
#X connect 44 0 14 0;
#X connect 44 0 15 0;
#X connect 44 0 16 0;
#X connect 44 0 17 0;
#X connect 44 0 18 0;
#X connect 44 0 19 0;
#X connect 44 0 20 0;
