#N canvas 243 313 575 325 10;
#X obj 132 34 tgl 30 0 \$0-metro-ind-s \$0-metro-ind-r empty 17 7 0
10 -262144 -1 -262144 0 1;
#N canvas 111 396 153 158 Kontakt5 0;
#X obj 40 105 ../sp-launch;
#X msg 40 66 run kontakt5;
#X obj 40 38 bang;
#X obj 40 13 inlet;
#X connect 1 0 0 0;
#X connect 2 0 1 0;
#X connect 3 0 2 0;
#X restore 34 73 pd Kontakt5;
#X obj 34 33 bng 30 250 50 0 empty empty empty 17 7 0 10 -260097 -1
-1;
#N canvas 659 417 239 254 vol 0;
#X obj 39 213 ctlout 0 1;
#X obj 42 106 hsl 128 15 0 127 0 0 empty empty empty -2 -8 0 10 -262144
-1 -1 7000 1;
#X obj 94 25 sp-key -;
#X obj 39 137 change;
#X obj 24 161 f;
#X obj 73 161 f;
#X obj 24 189 - 1;
#X obj 24 79 bng 15 250 50 0 empty empty empty 17 7 0 10 -262144 -1
-1;
#X obj 73 187 + 1;
#X obj 73 76 bng 15 250 50 0 empty empty empty 17 7 0 10 -262144 -1
-1;
#X obj 167 25 sp-key =;
#X obj 167 51 loadbang;
#X msg 167 74 70;
#X connect 1 0 3 0;
#X connect 2 0 7 0;
#X connect 3 0 4 1;
#X connect 3 0 5 1;
#X connect 3 0 0 0;
#X connect 4 0 6 0;
#X connect 5 0 8 0;
#X connect 6 0 1 0;
#X connect 7 0 4 0;
#X connect 8 0 1 0;
#X connect 9 0 5 0;
#X connect 10 0 9 0;
#X connect 11 0 12 0;
#X connect 12 0 1 0;
#X restore 34 107 pd vol;
#X obj 216 31 cnv 15 230 60 empty empty empty 20 12 0 14 -262130 -66577
0;
#X text 228 44 Space - play/stop metronome;
#X text 228 63 -/= - decrease/encrease volume;
#N canvas 597 252 491 216 metro 0;
#X obj 38 78 sp-metro 196;
#X obj 38 38 loadbang;
#X obj 167 36 r \$0-metro-ind-s;
#X msg 167 101 color 16;
#X obj 167 134 s \$0-metro-ind-r;
#X obj 167 71 sel 1;
#X msg 237 101 color 0;
#X obj 314 36 sp-key Space;
#X obj 314 79 s \$0-metro-ind-r;
#N canvas 467 300 450 300 C 0;
#X obj 57 37 inlet;
#X obj 116 130 del 50;
#X obj 115 36 inlet;
#X obj 57 193 demux . .;
#X msg 57 130 84 100 1;
#X obj 108 240 noteout;
#X msg 116 156 84 0 1;
#X connect 0 0 3 1;
#X connect 1 0 6 0;
#X connect 2 0 4 0;
#X connect 2 0 1 0;
#X connect 3 1 5 0;
#X connect 4 0 3 0;
#X connect 6 0 3 0;
#X restore 86 187 pd C;
#X obj 33 152 r \$0-metro-ind-s;
#X connect 0 1 9 1;
#X connect 1 0 0 0;
#X connect 2 0 5 0;
#X connect 3 0 4 0;
#X connect 5 0 3 0;
#X connect 5 1 6 0;
#X connect 6 0 4 0;
#X connect 7 0 8 0;
#X connect 10 0 9 0;
#X restore 34 141 pd metro;
#X connect 2 0 1 0;
