#N canvas 213 35 986 743 10;
#X declare -path ..;
#X declare -lib ggee;
#X obj 71 51 ctlin;
#X obj 812 178 declare -path ..;
#X obj 81 246 sp-gmix8~;
#N canvas 644 157 450 300 init 0;
#X obj 41 198 outlet;
#X obj 41 45 loadbang;
#X obj 149 155 r \$0-bus;
#X msg 41 106 mix8 0 label mic1 \, mix8 1 label mic2 \, mix8 2 label
ipad \, mix8 mute 1 \, mix8 0 midilearn 0 \, mix8 1 midilearn 1 \,
mix8 2 midilearn 2 \, mix8 3 midilearn 3;
#X connect 1 0 3 0;
#X connect 2 0 0 0;
#X connect 3 0 0 0;
#X restore 330 201 pd init;
#X obj 776 79 sp-gparam;
#X obj 81 474 sp-glimiter~;
#X obj 81 563 +dsp;
#X obj 81 176 adc~ 1 2 5;
#X msg 251 163 mix8 mute 1;
#N canvas 44 165 948 370 midi 0;
#X obj 57 214 spigot;
#X obj 57 243 != 0;
#X msg 57 280 mix8 0 mute \$1;
#X obj 57 309 s \$0-bus;
#X obj 187 21 ctlin;
#X obj 187 54 s \$0-cv;
#X obj 200 88 s \$0-cc;
#X floatatom 279 62 5 0 0 0 - - -;
#X obj 57 187 r \$0-cv;
#X obj 90 138 r \$0-cc;
#X obj 157 214 spigot;
#X obj 157 243 != 0;
#X obj 157 309 s \$0-bus;
#X obj 157 187 r \$0-cv;
#X obj 190 138 r \$0-cc;
#X obj 257 214 spigot;
#X obj 257 243 != 0;
#X obj 257 309 s \$0-bus;
#X obj 257 187 r \$0-cv;
#X obj 290 138 r \$0-cc;
#X obj 377 214 spigot;
#X obj 377 243 != 0;
#X obj 377 309 s \$0-bus;
#X obj 377 187 r \$0-cv;
#X obj 410 138 r \$0-cc;
#X msg 157 280 mix8 1 mute \$1;
#X msg 257 280 mix8 2 mute \$1;
#X msg 377 280 mix8 3 mute \$1;
#X obj 487 214 spigot;
#X obj 487 243 != 0;
#X obj 487 309 s \$0-bus;
#X obj 487 187 r \$0-cv;
#X obj 520 138 r \$0-cc;
#X obj 607 214 spigot;
#X obj 607 243 != 0;
#X obj 607 309 s \$0-bus;
#X obj 607 187 r \$0-cv;
#X obj 640 138 r \$0-cc;
#X obj 717 214 spigot;
#X obj 717 243 != 0;
#X obj 717 309 s \$0-bus;
#X obj 717 187 r \$0-cv;
#X obj 750 138 r \$0-cc;
#X msg 487 280 mix8 4 mute \$1;
#X msg 607 280 mix8 5 mute \$1;
#X msg 717 280 mix8 6 mute \$1;
#X obj 190 166 == 49;
#X obj 90 166 == 48;
#X obj 309 244 tgl 15 0 empty empty empty 17 7 0 10 -262144 -1 -1 0
1;
#X obj 290 166 == 50;
#X obj 410 166 == 51;
#X obj 520 166 == 52;
#X obj 640 166 == 53;
#X obj 750 166 == 54;
#X obj 827 214 spigot;
#X obj 827 243 != 0;
#X obj 827 309 s \$0-bus;
#X obj 827 187 r \$0-cv;
#X obj 860 138 r \$0-cc;
#X msg 827 280 mix8 6 mute \$1;
#X obj 860 166 == 55;
#X obj 462 29 ctlin 32;
#X msg 462 57 moog pass \$1;
#X obj 462 94 s \$0-bus;
#X connect 0 0 1 0;
#X connect 1 0 2 0;
#X connect 2 0 3 0;
#X connect 4 0 5 0;
#X connect 4 1 6 0;
#X connect 4 1 7 0;
#X connect 8 0 0 0;
#X connect 9 0 47 0;
#X connect 10 0 11 0;
#X connect 11 0 25 0;
#X connect 13 0 10 0;
#X connect 14 0 46 0;
#X connect 15 0 16 0;
#X connect 16 0 26 0;
#X connect 18 0 15 0;
#X connect 19 0 49 0;
#X connect 20 0 21 0;
#X connect 21 0 27 0;
#X connect 23 0 20 0;
#X connect 24 0 50 0;
#X connect 25 0 12 0;
#X connect 26 0 17 0;
#X connect 27 0 22 0;
#X connect 28 0 29 0;
#X connect 29 0 43 0;
#X connect 31 0 28 0;
#X connect 32 0 51 0;
#X connect 33 0 34 0;
#X connect 34 0 44 0;
#X connect 36 0 33 0;
#X connect 37 0 52 0;
#X connect 38 0 39 0;
#X connect 39 0 45 0;
#X connect 41 0 38 0;
#X connect 42 0 53 0;
#X connect 43 0 30 0;
#X connect 44 0 35 0;
#X connect 45 0 40 0;
#X connect 46 0 10 1;
#X connect 47 0 0 1;
#X connect 48 0 26 0;
#X connect 49 0 15 1;
#X connect 50 0 20 1;
#X connect 51 0 28 1;
#X connect 52 0 33 1;
#X connect 53 0 38 1;
#X connect 54 0 55 0;
#X connect 55 0 59 0;
#X connect 57 0 54 0;
#X connect 58 0 60 0;
#X connect 59 0 56 0;
#X connect 60 0 54 1;
#X connect 61 0 62 0;
#X connect 62 0 63 0;
#X restore 772 37 pd midi;
#N canvas 459 113 379 296 midifaders 0;
#X obj 75 219 outlet;
#X obj 75 86 ctlin 4;
#X obj 75 156 / 127;
#X obj 135 219 outlet;
#X obj 135 156 / 127;
#X obj 195 219 outlet;
#X obj 195 156 / 127;
#X obj 255 219 outlet;
#X obj 255 156 / 127;
#X obj 135 86 ctlin 5;
#X obj 195 86 ctlin 6;
#X obj 255 86 ctlin 7;
#X connect 1 0 2 0;
#X connect 2 0 0 0;
#X connect 4 0 3 0;
#X connect 6 0 5 0;
#X connect 8 0 7 0;
#X connect 9 0 4 0;
#X connect 10 0 6 0;
#X connect 11 0 8 0;
#X restore 287 54 pd midifaders;
#X obj 179 160 noish~;
#X obj 179 106 * 1000;
#X floatatom 231 153 5 0 0 0 - - -;
#X obj 385 47 sp-gmoog~;
#X obj 578 19 r \$0-bus;
#X obj 385 345 sp-gfuzz~;
#X obj 385 510 sp-gdiode~;
#X obj 385 221 sp-goctaver~;
#X obj 179 136 max 1;
#X obj 79 94 fiddle~;
#X obj 104 135 unpack;
#X obj 153 142 * 20;
#X obj 616 352 sp-filter-specktral~;
#X obj 386 578 sp-gchop~;
#X msg 612 635 chop freq \$1;
#X obj 615 607 hsl 128 15 0 127 0 0 empty empty empty -2 -8 0 10 -262144
-1 -1 700 1;
#X obj 692 43 ctlin;
#X floatatom 711 86 5 0 0 0 - - -;
#X obj 612 558 ctlin 16;
#X obj 612 582 / 8;
#X connect 2 0 5 0;
#X connect 2 1 5 0;
#X connect 2 2 5 0;
#X connect 2 3 5 0;
#X connect 2 8 5 2;
#X connect 3 0 2 8;
#X connect 5 0 6 0;
#X connect 5 1 6 1;
#X connect 5 2 6 2;
#X connect 7 0 14 0;
#X connect 7 0 20 0;
#X connect 7 0 23 0;
#X connect 7 1 2 1;
#X connect 7 2 2 2;
#X connect 8 0 2 8;
#X connect 10 0 12 0;
#X connect 11 0 2 3;
#X connect 12 0 13 0;
#X connect 12 0 19 0;
#X connect 14 0 18 0;
#X connect 15 0 14 1;
#X connect 16 0 17 0;
#X connect 17 0 24 0;
#X connect 18 0 16 0;
#X connect 19 0 11 0;
#X connect 20 2 21 0;
#X connect 22 0 19 0;
#X connect 23 0 24 0;
#X connect 24 0 2 0;
#X connect 25 0 24 2;
#X connect 26 0 25 0;
#X connect 27 1 28 0;
#X connect 29 0 30 0;
#X connect 30 0 26 0;
