#N canvas 43 29 767 708 10;
#X declare -lib zexy;
#X declare -lib flatgui;
#X obj 22 586 +dsp;
#N canvas 390 369 505 253 tone 0;
#X obj 27 25 r \$0-signal-tone;
#X obj 286 84 osc~ 130.37;
#X obj 28 84 osc~ 456.3;
#X obj 114 84 osc~ 268.89;
#X obj 199 84 osc~ 195.56;
#X obj 27 54 clip 0 4;
#X obj 81 206 s~ \$0-tone~;
#X obj 377 23 r \$0-radio-tone-s;
#X obj 377 57 s \$0-signal-tone;
#X obj 81 181 *~ 0.5;
#X obj 232 132 r \$0-tone-vol;
#X obj 264 24 r \$0-key-tone;
#X obj 264 57 s \$0-radio-tone-r;
#X obj 81 133 multiplex~ . . . . .;
#X connect 0 0 5 0;
#X connect 1 0 13 4;
#X connect 2 0 13 1;
#X connect 3 0 13 2;
#X connect 4 0 13 3;
#X connect 5 0 13 0;
#X connect 7 0 8 0;
#X connect 9 0 6 0;
#X connect 10 0 9 1;
#X connect 11 0 12 0;
#X connect 13 0 9 0;
#X restore 651 185 pd tone;
#N canvas 567 361 450 300 output 0;
#X obj 39 34 r~ \$0-tone~;
#X obj 39 219 throw~ \$0-left~;
#X obj 132 36 r~ \$0-snd0~;
#X obj 223 36 r~ \$0-snd1~;
#X obj 223 218 throw~ \$0-right~;
#X obj 39 83 *~ 0.2;
#X connect 0 0 5 0;
#X connect 2 0 1 0;
#X connect 3 0 4 0;
#X connect 5 0 1 0;
#X connect 5 0 4 0;
#X restore 651 241 pd output;
#X obj 22 563 catch~ \$0-left~;
#N canvas 353 215 478 434 keys 0;
#X obj 45 25 sp-key A;
#X msg 45 49 1;
#X obj 45 75 s \$0-key-tone;
#X msg 105 49 2;
#X msg 165 49 3;
#X msg 225 49 4;
#X msg 285 49 0;
#X obj 105 25 sp-key D;
#X obj 165 25 sp-key G;
#X obj 225 25 sp-key C;
#X obj 285 25 sp-key N;
#X obj 33 120 sp-key T;
#X obj 33 150 s \$0-tune-r;
#X obj 123 119 sp-key s;
#X obj 123 150 s \$0-btn-start-r;
#X obj 252 116 sp-key Space;
#X obj 252 150 s \$0-btn-stop-r;
#X obj 33 183 sp-key 1;
#X msg 33 205 1;
#X obj 43 314 s \$0-play-from-r;
#X obj 33 233 sp-key 2;
#X msg 33 255 2;
#X obj 103 233 sp-key 3;
#X msg 103 255 3;
#X msg 103 205 4;
#X obj 103 183 sp-key 4;
#X obj 173 183 sp-key 5;
#X msg 173 205 5;
#X obj 173 233 sp-key 6;
#X msg 173 255 6;
#X obj 243 183 sp-key 7;
#X msg 243 205 7;
#X connect 0 0 1 0;
#X connect 1 0 2 0;
#X connect 3 0 2 0;
#X connect 4 0 2 0;
#X connect 5 0 2 0;
#X connect 6 0 2 0;
#X connect 7 0 3 0;
#X connect 8 0 4 0;
#X connect 9 0 5 0;
#X connect 10 0 6 0;
#X connect 11 0 12 0;
#X connect 13 0 14 0;
#X connect 15 0 16 0;
#X connect 17 0 18 0;
#X connect 18 0 19 0;
#X connect 20 0 21 0;
#X connect 21 0 19 0;
#X connect 22 0 23 0;
#X connect 23 0 19 0;
#X connect 24 0 19 0;
#X connect 25 0 24 0;
#X connect 26 0 27 0;
#X connect 27 0 19 0;
#X connect 28 0 29 0;
#X connect 29 0 19 0;
#X connect 30 0 31 0;
#X connect 31 0 19 0;
#X restore 651 213 pd keys;
#N canvas 495 291 675 289 init 0;
#X obj 25 25 loadbang;
#X obj 25 50 import zexy;
#X obj 28 98 r \$0-signal-init;
#X obj 28 128 f \$0;
#X obj 191 22 r \$0-btn-init-s;
#X obj 191 55 s \$0-signal-init;
#X msg 28 158 \; \$1-dsp-init 1 \; pd dsp 1 \;;
#X obj 154 232 s 0-file;
#X obj 154 178 expr 44100 * $f1;
#X obj 154 156 f 10;
#X msg 154 203 xticks 0 \$1 6;
#X obj 154 129 loadbang;
#X msg 117 129 bang;
#X obj 333 24 loadbang;
#X obj 333 187 s \$0-bus;
#X msg 444 63 mix2 save \, save;
#X msg 333 125 mix2 restore \, restore;
#X obj 444 24 r \$0-save-s;
#X connect 0 0 1 0;
#X connect 2 0 3 0;
#X connect 2 0 12 0;
#X connect 3 0 6 0;
#X connect 4 0 5 0;
#X connect 8 0 10 0;
#X connect 9 0 8 0;
#X connect 10 0 7 0;
#X connect 11 0 9 0;
#X connect 12 0 9 0;
#X connect 13 0 16 0;
#X connect 15 0 14 0;
#X connect 16 0 14 0;
#X connect 17 0 15 0;
#X restore 651 157 pd init;
#X obj 21 39 bng 25 250 50 0 \$0-btn-init-s \$0-btn-init-r Init 30
14 0 15 -260097 -1 -1;
#N canvas 0 22 450 278 (subpatch) 0;
#X array file-l 1.81507e+07 float 2;
#X coords 0 1 1.81507e+07 -1 400 100 1 0 0;
#X restore 200 87 graph;
#X obj 202 190 hsl 400 15 0 18150.7 0 0 \$0-play-ind-s \$0-play-ind-r
empty -2 -8 0 10 -262144 -1 -1 254 1;
#X obj 118 543 catch~ \$0-right~;
#N canvas 87 22 1153 494 sound 0;
#X obj 25 71 soundfiler;
#X obj 25 12 r \$0-signal-init;
#X obj 25 100 v \$0-samplelen;
#X obj 191 102 r \$0-signal-start;
#X obj 191 131 v \$0-samplelen;
#X obj 191 345 s~ \$0-snd0~;
#X obj 321 347 s~ \$0-snd1~;
#X obj 321 102 r \$0-signal-stop;
#X msg 321 285 stop;
#X obj 464 12 r \$0-btn-start-s;
#X obj 464 40 s \$0-signal-start;
#X obj 329 12 r \$0-btn-stop-s;
#X obj 329 42 s \$0-signal-stop;
#X obj 191 316 tabplay~ file-l;
#X obj 321 317 tabplay~ file-r;
#X msg 25 42 read -resize massdestruction.aiff file-l file-r;
#X obj 191 258 pack f f;
#X msg 191 287 \$1 \$2;
#X obj 191 200 t b f;
#X obj 191 229 v \$0-current-pos;
#X obj 29 345 table file-r;
#X obj 452 102 r \$0-play-from;
#X msg 452 206 51;
#X obj 452 302 t b f;
#X obj 479 327 v \$0-current-pos;
#X obj 452 349 s \$0-signal-start;
#X obj 452 280 * 44100;
#X msg 485 206 86;
#X msg 545 206 150;
#X msg 579 206 160;
#X msg 609 206 183;
#X msg 641 206 191;
#X msg 677 206 204;
#X msg 717 206 220;
#X msg 752 206 236;
#X msg 788 206 268;
#X msg 820 206 288;
#X msg 855 206 320;
#X msg 890 206 336;
#X msg 928 206 352;
#X msg 1000 206 384;
#X msg 963 206 373;
#X msg 1036 206 392;
#X msg 515 206 118;
#X obj 452 134 sel 1 2 3 4 5 6 7 8 9 10 11 12 13 14 15 16 17 18;
#X msg 1070 206 0;
#X connect 0 0 2 0;
#X connect 1 0 15 0;
#X connect 3 0 4 0;
#X connect 4 0 18 0;
#X connect 7 0 8 0;
#X connect 8 0 13 0;
#X connect 8 0 14 0;
#X connect 9 0 10 0;
#X connect 11 0 12 0;
#X connect 13 0 5 0;
#X connect 14 0 6 0;
#X connect 15 0 0 0;
#X connect 16 0 17 0;
#X connect 17 0 13 0;
#X connect 17 0 14 0;
#X connect 18 0 19 0;
#X connect 18 1 16 1;
#X connect 19 0 16 0;
#X connect 21 0 44 0;
#X connect 22 0 26 0;
#X connect 23 0 25 0;
#X connect 23 1 24 0;
#X connect 26 0 23 0;
#X connect 27 0 26 0;
#X connect 28 0 26 0;
#X connect 29 0 26 0;
#X connect 30 0 26 0;
#X connect 31 0 26 0;
#X connect 32 0 26 0;
#X connect 33 0 26 0;
#X connect 34 0 26 0;
#X connect 35 0 26 0;
#X connect 36 0 26 0;
#X connect 37 0 26 0;
#X connect 38 0 26 0;
#X connect 39 0 26 0;
#X connect 40 0 26 0;
#X connect 41 0 26 0;
#X connect 42 0 26 0;
#X connect 43 0 26 0;
#X connect 44 0 22 0;
#X connect 44 1 27 0;
#X connect 44 2 43 0;
#X connect 44 3 28 0;
#X connect 44 4 29 0;
#X connect 44 5 30 0;
#X connect 44 6 31 0;
#X connect 44 7 32 0;
#X connect 44 8 33 0;
#X connect 44 9 34 0;
#X connect 44 10 35 0;
#X connect 44 11 36 0;
#X connect 44 12 37 0;
#X connect 44 13 38 0;
#X connect 44 14 39 0;
#X connect 44 15 41 0;
#X connect 44 16 40 0;
#X connect 44 17 42 0;
#X connect 44 18 45 0;
#X connect 45 0 26 0;
#X restore 651 73 pd sound;
#X obj 21 80 bng 25 250 50 0 \$0-btn-start-s \$0-btn-start-r Start[s]
30 14 0 15 -4034 -1 -1;
#X obj 21 121 bng 25 250 50 0 \$0-btn-stop-s \$0-btn-stop-r Stop[_]
30 14 0 15 -191407 -1 -1;
#N canvas 597 73 410 482 ind 0;
#X obj 125 372 line;
#X msg 229 138 range 0 \$1;
#X obj 229 167 s \$0-play-ind-r;
#X obj 125 17 r \$0-signal-start;
#X obj 125 40 v \$0-samplelen;
#X obj 125 438 s \$0-play-ind-r;
#X obj 229 98 expr $f1 / 1000;
#X obj 290 258 r \$0-play-ind-s;
#X obj 290 310 v \$0-current-pos;
#X obj 290 284 * 1000;
#X msg 125 404 set \$1;
#X obj 256 17 r \$0-signal-stop;
#X msg 256 46 stop;
#X msg 256 258 0;
#X obj 125 314 pack f f f;
#X obj 125 63 t f f b f;
#X obj 206 197 v \$0-current-pos;
#X msg 125 345 \$1 \, \$2 \$3;
#X obj 125 258 expr $f2/1000 \; $f1/1000 \; ($f1-$f2)/44.1;
#X obj 234 406 sp-sample2time;
#X obj 234 437 s \$0-label-pos-r;
#X msg 234 375 0;
#X obj 180 389 * 1000;
#X obj 234 349 loadbang;
#X msg 17 370 0;
#X obj 17 345 r \$0-signal-init;
#X connect 0 0 10 0;
#X connect 0 0 22 0;
#X connect 1 0 2 0;
#X connect 3 0 4 0;
#X connect 4 0 15 0;
#X connect 6 0 1 0;
#X connect 7 0 9 0;
#X connect 7 0 22 0;
#X connect 9 0 8 0;
#X connect 10 0 5 0;
#X connect 11 0 12 0;
#X connect 12 0 13 0;
#X connect 12 0 0 0;
#X connect 13 0 8 0;
#X connect 14 0 17 0;
#X connect 15 0 18 0;
#X connect 15 2 16 0;
#X connect 15 3 6 0;
#X connect 16 0 18 1;
#X connect 17 0 0 0;
#X connect 18 0 14 0;
#X connect 18 1 14 1;
#X connect 18 2 14 2;
#X connect 19 0 20 0;
#X connect 21 0 19 0;
#X connect 22 0 19 0;
#X connect 23 0 21 0;
#X connect 24 0 5 0;
#X connect 25 0 24 0;
#X restore 651 43 pd ind;
#N canvas 476 189 553 331 tuner 0;
#X msg 77 93 maxfreq 8000 \, stabletime 500 \, minpower 70 \, hop 22050
;
#X obj 77 123 sigmund~ pitch;
#X obj 77 58 loadbang;
#X obj 77 156 mtof;
#X obj 15 104 sp-hub~;
#X obj 15 20 r~ \$0-input~;
#X obj 107 20 r \$0-signal-tune;
#X obj 173 215 sel 1;
#X msg 173 245 color 16;
#X msg 240 246 color 14;
#X obj 173 173 expr ($f1 > 268 && $f1 < 269.5) || ($f1 > 456 && $f1
< 457) || ($f1 > 195 && $f1 < 196) || ($f1 > 129.8 && $f1 < 131);
#X obj 77 288 s \$0-pitch-r;
#X connect 0 0 1 0;
#X connect 1 0 3 0;
#X connect 2 0 0 0;
#X connect 3 0 10 0;
#X connect 3 0 11 0;
#X connect 4 0 1 0;
#X connect 5 0 4 0;
#X connect 6 0 4 1;
#X connect 7 0 8 0;
#X connect 7 1 9 0;
#X connect 8 0 11 0;
#X connect 9 0 11 0;
#X connect 10 0 7 0;
#X restore 651 101 pd tuner;
#N canvas 477 276 450 300 input 0;
#X obj 29 26 adc~ 1;
#X obj 29 68 s~ \$0-input~;
#X connect 0 0 1 0;
#X restore 651 129 pd input;
#X obj 20 182 cnv 15 140 120 empty empty empty 20 12 0 14 -233017 -66577
0;
#X obj 28 223 nbx 5 20 -1e+37 1e+37 0 0 \$0-pitch-s \$0-pitch-r empty
0 -8 0 15 -260818 -1 -262144 0 256;
#X obj 28 190 tgl 25 0 \$0-signal-tune \$0-tune-r Tune[T] 30 14 0 15
-262144 -1 -1 1 1;
#X text 122 205 268.9;
#X text 122 192 456.3;
#X text 122 231 130.4;
#X text 122 218 195.6;
#X obj 40 270 hradio 20 1 0 5 \$0-radio-tone-s \$0-radio-tone-r empty
0 -8 0 10 -262144 -1 -1 0;
#X text 67 250 A;
#X text 88 250 D;
#X text 107 250 G;
#X text 126 250 C;
#X text 39 250 None;
#X symbolatom 199 217 13 0 0 0 - #0-label-pos-r #0-label-pos-s;
#X obj 199 34 comment 300 15 Verdana ? 0 0 0 0 Bill Alves. Mass Destruction
;
#X obj 651 283 vradio 15 1 0 19 \$0-play-from \$0-play-from-r empty
0 -8 0 10 -262144 -1 -1 0;
#X text 669 297 0:51;
#X text 670 281 Fragments;
#X text 669 313 1:26;
#X text 669 328 1:58;
#X text 669 342 2:30;
#X text 669 357 2:40;
#X text 669 372 3:03;
#X text 669 387 3:11;
#X text 669 402 3:24;
#X text 669 417 3:40;
#X text 669 432 3:56;
#X text 669 447 4:28;
#X text 669 462 4:48;
#X text 669 477 5:20;
#X text 669 492 5:36;
#X text 669 507 5:52;
#X text 669 522 6:13;
#X text 669 537 6:24;
#X text 669 552 6:32;
#X obj 107 309 r \$0-bus;
#X obj 26 326 sp-gmix2~ viola-mix;
#X obj 115 343 bng 15 250 50 0 \$0-save-s \$0-save-r Save 20 7 0 10
-262144 -1 -1;
#X obj 26 309 r~ \$0-input~;
#X obj 215 569 r \$0-bus;
#X obj 283 367 ../ts/TS~;
#X obj 283 333 r~ \$0-viola-raw;
#X obj 26 510 s~ \$0-viola-raw;
#X connect 3 0 0 0;
#X connect 9 0 0 1;
#X connect 51 0 52 2;
#X connect 52 0 58 0;
#X connect 54 0 52 0;
#X connect 55 0 0 2;
#X connect 56 0 0 1;
#X connect 57 0 56 0;
