#N canvas 66 22 830 733 10;
#X declare -lib zexy;
#X declare -path ..;
#X obj 49 586 +dsp;
#N canvas 390 369 505 253 tone 0;
#X obj 27 25 r \$0-signal-tone;
#X obj 286 84 osc~ 130.37;
#X obj 28 84 osc~ 456.3;
#X obj 114 84 osc~ 268.89;
#X obj 199 84 osc~ 195.56;
#X obj 27 54 clip 0 4;
#X obj 81 206 s~ \$0-tone~;
#X obj 377 23 r \$0-radio-tone-s;
#X obj 377 57 s \$0-signal-tone;
#X obj 81 181 *~ 0.5;
#X obj 232 132 r \$0-tone-vol;
#X obj 264 24 r \$0-key-tone;
#X obj 264 57 s \$0-radio-tone-r;
#X obj 81 133 multiplex~ . . . . .;
#X connect 0 0 5 0;
#X connect 1 0 13 4;
#X connect 2 0 13 1;
#X connect 3 0 13 2;
#X connect 4 0 13 3;
#X connect 5 0 13 0;
#X connect 7 0 8 0;
#X connect 9 0 6 0;
#X connect 10 0 9 1;
#X connect 11 0 12 0;
#X connect 13 0 9 0;
#X restore 678 185 pd tone;
#N canvas 567 361 450 300 output 0;
#X obj 39 34 r~ \$0-tone~;
#X obj 39 219 throw~ \$0-left~;
#X obj 132 36 r~ \$0-snd0~;
#X obj 223 36 r~ \$0-snd1~;
#X obj 223 218 throw~ \$0-right~;
#X obj 39 83 *~ 0.2;
#X obj 223 94 *~ 0.3;
#X obj 132 96 *~ 0.3;
#X connect 0 0 5 0;
#X connect 2 0 7 0;
#X connect 3 0 6 0;
#X connect 5 0 1 0;
#X connect 5 0 4 0;
#X connect 6 0 4 0;
#X connect 7 0 1 0;
#X restore 678 241 pd output;
#X obj 49 563 catch~ \$0-left~;
#N canvas 568 62 478 434 keys 0;
#X obj 45 25 sp-key A;
#X msg 45 49 1;
#X obj 45 75 s \$0-key-tone;
#X msg 105 49 2;
#X msg 165 49 3;
#X msg 225 49 4;
#X msg 285 49 0;
#X obj 105 25 sp-key D;
#X obj 165 25 sp-key G;
#X obj 225 25 sp-key C;
#X obj 285 25 sp-key N;
#X obj 33 120 sp-key T;
#X obj 33 150 s \$0-tune-r;
#X obj 123 119 sp-key s;
#X obj 123 150 s \$0-btn-start-r;
#X obj 252 116 sp-key Space;
#X obj 252 150 s \$0-btn-stop-r;
#X obj 33 183 sp-key 1;
#X msg 33 205 1;
#X obj 43 314 s \$0-play-from-r;
#X obj 33 233 sp-key 2;
#X obj 103 233 sp-key 3;
#X obj 103 183 sp-key 4;
#X obj 173 183 sp-key 5;
#X obj 173 233 sp-key 6;
#X obj 243 183 sp-key 7;
#X msg 33 255 3;
#X msg 103 255 5;
#X msg 103 205 6;
#X msg 173 205 7;
#X msg 173 255 10;
#X msg 243 205 12;
#X obj 243 233 sp-key 8;
#X msg 243 255 13;
#X obj 313 183 sp-key 9;
#X msg 313 205 15;
#X obj 313 233 sp-key 0;
#X msg 313 255 16;
#X connect 0 0 1 0;
#X connect 1 0 2 0;
#X connect 3 0 2 0;
#X connect 4 0 2 0;
#X connect 5 0 2 0;
#X connect 6 0 2 0;
#X connect 7 0 3 0;
#X connect 8 0 4 0;
#X connect 9 0 5 0;
#X connect 10 0 6 0;
#X connect 11 0 12 0;
#X connect 13 0 14 0;
#X connect 15 0 16 0;
#X connect 17 0 18 0;
#X connect 18 0 19 0;
#X connect 20 0 26 0;
#X connect 21 0 27 0;
#X connect 22 0 28 0;
#X connect 23 0 29 0;
#X connect 24 0 30 0;
#X connect 25 0 31 0;
#X connect 26 0 19 0;
#X connect 27 0 19 0;
#X connect 28 0 19 0;
#X connect 29 0 19 0;
#X connect 30 0 19 0;
#X connect 31 0 19 0;
#X connect 32 0 33 0;
#X connect 33 0 19 0;
#X connect 34 0 35 0;
#X connect 35 0 19 0;
#X connect 36 0 37 0;
#X connect 37 0 19 0;
#X restore 678 213 pd keys;
#N canvas 408 37 767 329 init 0;
#X obj 25 25 loadbang;
#X obj 25 50 import zexy;
#X obj 28 98 r \$0-signal-init;
#X obj 28 128 f \$0;
#X obj 191 22 r \$0-btn-init-s;
#X obj 191 55 s \$0-signal-init;
#X obj 154 178 expr 44100 * $f1;
#X obj 154 156 f 10;
#X msg 154 203 xticks 0 \$1 6;
#X obj 154 129 loadbang;
#X msg 117 129 bang;
#X obj 333 24 loadbang;
#X obj 379 212 loadbang;
#X msg 379 260 label \$1;
#X obj 379 237 symbol;
#X obj 379 285 s \$0-label-pos-s;
#X msg 28 158 \; pd dsp 1 \;;
#X obj 154 232 s file-l;
#X msg 333 55 restore 0;
#X obj 333 87 s sp-param;
#X obj 416 87 delay 2000;
#X connect 0 0 1 0;
#X connect 2 0 3 0;
#X connect 2 0 10 0;
#X connect 3 0 16 0;
#X connect 4 0 5 0;
#X connect 6 0 8 0;
#X connect 7 0 6 0;
#X connect 8 0 17 0;
#X connect 9 0 7 0;
#X connect 10 0 7 0;
#X connect 11 0 18 0;
#X connect 11 0 20 0;
#X connect 12 0 14 0;
#X connect 13 0 15 0;
#X connect 14 0 13 0;
#X connect 18 0 19 0;
#X connect 20 0 5 0;
#X restore 678 157 pd init;
#X obj 48 39 bng 25 250 50 0 \$0-btn-init-s \$0-btn-init-r Init 30
14 0 15 -260097 -1 -1;
#N canvas 0 22 450 278 (subpatch) 0;
#X array file-l 1.81507e+07 float 2;
#X coords 0 1 1.81507e+07 -1 400 100 1 0 0;
#X restore 226 123 graph;
#X obj 229 223 hsl 400 15 0 18150.7 0 0 \$0-play-ind-s \$0-play-ind-r
empty -2 -8 0 10 -262144 -1 -1 39900 1;
#X obj 145 543 catch~ \$0-right~;
#N canvas 59 335 1153 494 sound 0;
#X obj 25 71 soundfiler;
#X obj 25 12 r \$0-signal-init;
#X obj 25 100 v \$0-samplelen;
#X obj 191 102 r \$0-signal-start;
#X obj 191 131 v \$0-samplelen;
#X obj 191 345 s~ \$0-snd0~;
#X obj 321 347 s~ \$0-snd1~;
#X obj 321 102 r \$0-signal-stop;
#X msg 321 285 stop;
#X obj 464 12 r \$0-btn-start-s;
#X obj 464 40 s \$0-signal-start;
#X obj 329 12 r \$0-btn-stop-s;
#X obj 329 42 s \$0-signal-stop;
#X obj 191 316 tabplay~ file-l;
#X obj 321 317 tabplay~ file-r;
#X msg 25 42 read -resize massdestruction.aiff file-l file-r;
#X obj 191 258 pack f f;
#X msg 191 287 \$1 \$2;
#X obj 191 200 t b f;
#X obj 191 229 v \$0-current-pos;
#X obj 29 345 table file-r;
#X obj 452 102 r \$0-play-from;
#X msg 452 206 51;
#X obj 452 302 t b f;
#X obj 479 327 v \$0-current-pos;
#X obj 452 349 s \$0-signal-start;
#X obj 452 280 * 44100;
#X msg 485 206 86;
#X msg 545 206 150;
#X msg 579 206 160;
#X msg 609 206 183;
#X msg 641 206 191;
#X msg 677 206 204;
#X msg 717 206 220;
#X msg 752 206 236;
#X msg 788 206 268;
#X msg 820 206 288;
#X msg 855 206 320;
#X msg 890 206 336;
#X msg 928 206 352;
#X msg 1000 206 384;
#X msg 963 206 373;
#X msg 1036 206 392;
#X msg 515 206 118;
#X obj 452 134 sel 1 2 3 4 5 6 7 8 9 10 11 12 13 14 15 16 17 18;
#X msg 1070 206 0;
#X connect 0 0 2 0;
#X connect 1 0 15 0;
#X connect 3 0 4 0;
#X connect 4 0 18 0;
#X connect 7 0 8 0;
#X connect 8 0 13 0;
#X connect 8 0 14 0;
#X connect 9 0 10 0;
#X connect 11 0 12 0;
#X connect 13 0 5 0;
#X connect 14 0 6 0;
#X connect 15 0 0 0;
#X connect 16 0 17 0;
#X connect 17 0 13 0;
#X connect 17 0 14 0;
#X connect 18 0 19 0;
#X connect 18 1 16 1;
#X connect 19 0 16 0;
#X connect 21 0 44 0;
#X connect 22 0 26 0;
#X connect 23 0 25 0;
#X connect 23 1 24 0;
#X connect 26 0 23 0;
#X connect 27 0 26 0;
#X connect 28 0 26 0;
#X connect 29 0 26 0;
#X connect 30 0 26 0;
#X connect 31 0 26 0;
#X connect 32 0 26 0;
#X connect 33 0 26 0;
#X connect 34 0 26 0;
#X connect 35 0 26 0;
#X connect 36 0 26 0;
#X connect 37 0 26 0;
#X connect 38 0 26 0;
#X connect 39 0 26 0;
#X connect 40 0 26 0;
#X connect 41 0 26 0;
#X connect 42 0 26 0;
#X connect 43 0 26 0;
#X connect 44 0 22 0;
#X connect 44 1 27 0;
#X connect 44 2 43 0;
#X connect 44 3 28 0;
#X connect 44 4 29 0;
#X connect 44 5 30 0;
#X connect 44 6 31 0;
#X connect 44 7 32 0;
#X connect 44 8 33 0;
#X connect 44 9 34 0;
#X connect 44 10 35 0;
#X connect 44 11 36 0;
#X connect 44 12 37 0;
#X connect 44 13 38 0;
#X connect 44 14 39 0;
#X connect 44 15 41 0;
#X connect 44 16 40 0;
#X connect 44 17 42 0;
#X connect 44 18 45 0;
#X connect 45 0 26 0;
#X restore 678 73 pd sound;
#X obj 48 80 bng 25 250 50 0 \$0-btn-start-s \$0-btn-start-r Start[s]
30 14 0 15 -4034 -1 -1;
#X obj 48 121 bng 25 250 50 0 \$0-btn-stop-s \$0-btn-stop-r Stop[_]
30 14 0 15 -191407 -1 -1;
#N canvas 399 22 796 488 ind 0;
#X obj 125 372 line;
#X msg 229 138 range 0 \$1;
#X obj 229 167 s \$0-play-ind-r;
#X obj 125 17 r \$0-signal-start;
#X obj 125 40 v \$0-samplelen;
#X obj 125 438 s \$0-play-ind-r;
#X obj 229 98 expr $f1 / 1000;
#X obj 290 258 r \$0-play-ind-s;
#X obj 290 310 v \$0-current-pos;
#X obj 290 284 * 1000;
#X msg 125 404 set \$1;
#X obj 256 17 r \$0-signal-stop;
#X msg 256 46 stop;
#X msg 256 258 0;
#X obj 125 314 pack f f f;
#X obj 125 63 t f f b f;
#X obj 206 197 v \$0-current-pos;
#X msg 125 345 \$1 \, \$2 \$3;
#X obj 125 258 expr $f2/1000 \; $f1/1000 \; ($f1-$f2)/44.1;
#X obj 234 406 sp-sample2time;
#X obj 234 457 s \$0-label-pos-r;
#X msg 234 375 0;
#X obj 180 389 * 1000;
#X obj 234 349 loadbang;
#X msg 17 370 0;
#X obj 17 345 r \$0-signal-init;
#X obj 410 302 s \$0-mark-r;
#X msg 410 269 label \$1;
#X obj 383 62 / 44.1;
#X obj 383 89 int;
#X obj 383 115 change;
#X msg 383 181 1;
#X obj 410 246 l2s;
#X obj 410 214 t a b;
#X obj 383 145 sel 51 86 118 150 160 183 191 204 220 236 268 288 320
336 352 373 384 392;
#X msg 423 181 2;
#X obj 476 219 loadbang;
#X obj 476 244 symbol;
#X msg 457 181 3;
#X msg 493 181 4;
#X msg 524 181 5;
#X msg 552 181 6;
#X msg 582 181 7;
#X msg 611 181 8;
#X msg 642 181 9;
#X msg 673 182 10;
#X msg 703 182 11;
#X msg 734 181 12;
#X msg 234 431 label \$1;
#X connect 0 0 10 0;
#X connect 0 0 22 0;
#X connect 0 0 28 0;
#X connect 1 0 2 0;
#X connect 3 0 4 0;
#X connect 4 0 15 0;
#X connect 6 0 1 0;
#X connect 7 0 9 0;
#X connect 7 0 22 0;
#X connect 9 0 8 0;
#X connect 10 0 5 0;
#X connect 11 0 12 0;
#X connect 12 0 13 0;
#X connect 12 0 0 0;
#X connect 13 0 8 0;
#X connect 14 0 17 0;
#X connect 15 0 18 0;
#X connect 15 2 16 0;
#X connect 15 3 6 0;
#X connect 16 0 18 1;
#X connect 17 0 0 0;
#X connect 18 0 14 0;
#X connect 18 1 14 1;
#X connect 18 2 14 2;
#X connect 19 0 48 0;
#X connect 21 0 19 0;
#X connect 22 0 19 0;
#X connect 23 0 21 0;
#X connect 24 0 5 0;
#X connect 25 0 24 0;
#X connect 27 0 26 0;
#X connect 28 0 29 0;
#X connect 29 0 30 0;
#X connect 30 0 34 0;
#X connect 31 0 33 0;
#X connect 32 0 27 0;
#X connect 33 0 32 0;
#X connect 33 1 26 0;
#X connect 34 0 31 0;
#X connect 34 2 35 0;
#X connect 34 4 38 0;
#X connect 34 5 39 0;
#X connect 34 6 40 0;
#X connect 34 9 41 0;
#X connect 34 11 42 0;
#X connect 34 12 43 0;
#X connect 34 14 44 0;
#X connect 34 15 45 0;
#X connect 34 16 46 0;
#X connect 34 17 47 0;
#X connect 35 0 33 0;
#X connect 36 0 37 0;
#X connect 37 0 27 0;
#X connect 38 0 33 0;
#X connect 39 0 33 0;
#X connect 40 0 33 0;
#X connect 41 0 33 0;
#X connect 42 0 33 0;
#X connect 43 0 33 0;
#X connect 44 0 33 0;
#X connect 45 0 33 0;
#X connect 46 0 33 0;
#X connect 47 0 33 0;
#X connect 48 0 20 0;
#X restore 678 43 pd ind;
#N canvas 476 189 553 331 tuner 0;
#X msg 77 93 maxfreq 8000 \, stabletime 500 \, minpower 70 \, hop 22050
;
#X obj 77 123 sigmund~ pitch;
#X obj 77 58 loadbang;
#X obj 77 156 mtof;
#X obj 15 104 sp-hub~;
#X obj 15 20 r~ \$0-input~;
#X obj 107 20 r \$0-signal-tune;
#X obj 173 215 sel 1;
#X msg 173 245 color 16;
#X msg 240 246 color 14;
#X obj 173 173 expr ($f1 > 268 && $f1 < 269.5) || ($f1 > 456 && $f1
< 457) || ($f1 > 195 && $f1 < 196) || ($f1 > 129.8 && $f1 < 131);
#X obj 77 288 s \$0-pitch-r;
#X connect 0 0 1 0;
#X connect 1 0 3 0;
#X connect 2 0 0 0;
#X connect 3 0 10 0;
#X connect 3 0 11 0;
#X connect 4 0 1 0;
#X connect 5 0 4 0;
#X connect 6 0 4 1;
#X connect 7 0 8 0;
#X connect 7 1 9 0;
#X connect 8 0 11 0;
#X connect 9 0 11 0;
#X connect 10 0 7 0;
#X restore 678 101 pd tuner;
#N canvas 477 276 450 300 input 0;
#X obj 29 26 adc~ 1;
#X obj 29 68 s~ \$0-input~;
#X connect 0 0 1 0;
#X restore 678 129 pd input;
#X obj 47 182 cnv 15 140 120 empty empty empty 20 12 0 14 -233017 -66577
0;
#X obj 55 223 nbx 5 20 -1e+37 1e+37 0 0 \$0-pitch-s \$0-pitch-r empty
0 -8 0 15 -260818 -1 -262144 0 256;
#X obj 55 190 tgl 25 0 \$0-signal-tune \$0-tune-r Tune[T] 30 14 0 15
-262144 -1 -1 0 1;
#X text 149 205 268.9;
#X text 149 192 456.3;
#X text 149 231 130.4;
#X text 149 218 195.6;
#X obj 67 270 hradio 20 1 0 5 \$0-radio-tone-s \$0-radio-tone-r empty
0 -8 0 10 -262144 -1 -1 0;
#X text 94 250 A;
#X text 115 250 D;
#X text 134 250 G;
#X text 153 250 C;
#X text 66 250 None;
#X obj 678 383 vradio 15 1 0 19 \$0-play-from \$0-play-from-r empty
0 -8 0 10 -262144 -1 -1 16;
#X text 696 397 0:51;
#X text 697 381 Fragments;
#X text 696 413 1:26;
#X text 696 428 1:58;
#X text 696 442 2:30;
#X text 696 457 2:40;
#X text 696 472 3:03;
#X text 696 487 3:11;
#X text 696 502 3:24;
#X text 696 517 3:40;
#X text 696 532 3:56;
#X text 696 547 4:28;
#X text 696 562 4:48;
#X text 696 577 5:20;
#X text 696 592 5:36;
#X text 696 607 5:52;
#X text 696 622 6:13;
#X text 696 637 6:24;
#X text 696 652 6:32;
#X obj 134 309 r \$0-bus;
#X obj 53 326 sp-gmix2~ viola-mix;
#X obj 53 309 r~ \$0-input~;
#X obj 242 569 r \$0-bus;
#X obj 329 413 r~ \$0-viola-raw;
#X obj 53 510 s~ \$0-viola-raw;
#X obj 329 455 sp-gfuzz~ fuzz;
#X obj 329 669 s~ \$0-to-pan;
#N canvas 618 112 654 290 midi 0;
#X obj 42 37 sp-gfoot-switch;
#X obj 42 111 sel 1;
#X obj 42 162 tgl 15 0 empty empty empty 17 7 0 10 -262144 -1 -1 1
1;
#X obj 84 145 init 1;
#X obj 155 116 sp-arduino 3;
#X obj 155 145 sel 1;
#X obj 285 96 ctlin 60 17;
#X obj 285 122 sel 127;
#X obj 285 151 s \$0-btn-init-r;
#X obj 385 122 sel 127;
#X obj 385 96 ctlin 42 17;
#X obj 385 151 s \$0-btn-stop-r;
#X obj 485 122 sel 127;
#X obj 485 96 ctlin 41 17;
#X obj 485 151 s \$0-btn-start-r;
#X obj 42 230 s \$0-fuzz;
#X connect 0 0 1 0;
#X connect 1 0 2 0;
#X connect 2 0 15 0;
#X connect 3 0 2 0;
#X connect 4 0 5 0;
#X connect 4 2 5 0;
#X connect 5 0 2 0;
#X connect 6 0 7 0;
#X connect 7 0 8 0;
#X connect 9 0 11 0;
#X connect 10 0 9 0;
#X connect 12 0 14 0;
#X connect 13 0 12 0;
#X restore 679 271 pd midi;
#N canvas 741 388 450 300 pan 0;
#X obj 48 63 r~ \$0-to-pan;
#X obj 48 133 ../sp-gpan~ pan;
#X obj 141 107 r \$0-bus;
#X obj 48 196 throw~ \$0-left~;
#X obj 151 196 throw~ \$0-right~;
#X connect 0 0 1 0;
#X connect 1 0 3 0;
#X connect 1 1 4 0;
#X connect 2 0 1 1;
#X restore 679 300 pd pan;
#X obj 232 311 bng 60 250 50 0 \$0-mark-s \$0-mark-r 12 19 28 0 40
-262144 -258113 -1;
#X obj 207 254 cnv 15 200 40 \$0-label-pos-s \$0-label-pos-r 00:06:51.581
20 12 0 30 -262144 -66577 0;
#X obj 225 31 sp-title Bill Alves: Mass Destruction;
#X obj 135 449 sp-gparam;
#X obj 678 12 declare -path ..;
#X text 377 320 TUNE THE VIOLA!!!!;
#X obj 329 628 multiplex~ . .;
#X obj 564 611 r \$0-fuzz;
#X connect 3 0 0 0;
#X connect 9 0 0 1;
#X connect 49 0 50 2;
#X connect 50 0 54 0;
#X connect 51 0 50 0;
#X connect 52 0 0 2;
#X connect 53 0 65 1;
#X connect 53 0 55 0;
#X connect 55 0 65 0;
#X connect 65 0 56 0;
#X connect 66 0 65 0;
