#N canvas 122 102 937 497 10;
#X obj 167 346 +dsp;
#X obj 308 307 r init;
#N canvas 514 146 613 248 input 0;
#X obj 17 19 adc~ 1 2 3 4 5 6;
#X obj 17 117 s~ \$0-viola;
#X obj 91 47 s~ \$0-bass;
#X obj 164 47 s~ \$0-click;
#X obj 112 82 env~;
#X obj 157 149 max;
#X obj 203 149 - 0.05;
#X obj 112 119 - 100;
#X obj 112 176 pack f f;
#X obj 112 206 s \$0-vu-r;
#X obj 315 100 sp-beep~;
#X obj 315 69 r \$0-test-v1-s;
#X connect 0 0 4 0;
#X connect 0 0 1 0;
#X connect 0 4 2 0;
#X connect 0 5 3 0;
#X connect 4 0 7 0;
#X connect 5 0 6 0;
#X connect 5 0 8 1;
#X connect 6 0 5 1;
#X connect 7 0 5 0;
#X connect 7 0 8 0;
#X connect 8 0 9 0;
#X connect 10 0 1 0;
#X connect 11 0 10 0;
#X restore 802 258 pd input;
#N canvas 491 100 471 313 delay 0;
#X obj 24 132 sp-vdelay~ 4000;
#X obj 24 109 r~ \$0-viola;
#X msg 137 96 delay \$1;
#X obj 24 240 s~ \$0-delay;
#X obj 165 223 sp-beep~ 880;
#X obj 165 196 r \$0-test-v2-s;
#X obj 137 34 r \$0-tempo;
#X obj 338 33 r \$0-latency;
#X obj 137 65 expr (8 * 1000 / ($f1 / 60)) - $f2;
#X connect 0 0 3 0;
#X connect 1 0 0 0;
#X connect 2 0 0 1;
#X connect 4 0 3 0;
#X connect 5 0 4 0;
#X connect 6 0 8 0;
#X connect 7 0 8 1;
#X connect 8 0 2 0;
#X restore 802 287 pd delay;
#X obj 21 12 comment 200 18 Verdana ? 0 0 0 0 [Message Ground];
#N canvas 624 277 216 259 monitor 0;
#X obj 34 99 sp-monitor~;
#X obj 34 60 r~ \$0-monitor~;
#X connect 1 0 0 0;
#X connect 1 0 0 1;
#X restore 802 345 pd monitor;
#X obj 422 94 sp-gmix4~;
#X obj 218 298 r~ \$0-right~;
#X obj 167 322 r~ \$0-left~;
#N canvas 649 119 322 255 output 0;
#X obj 36 187 s~ \$0-left~;
#X obj 129 188 s~ \$0-right~;
#X obj 37 73 r~ \$0-ch1~;
#X obj 129 73 r~ \$0-ch2~;
#X obj 215 73 r~ \$0-ch3~;
#X connect 2 0 1 0;
#X connect 3 0 0 0;
#X connect 4 0 0 0;
#X connect 4 0 1 0;
#X restore 802 374 pd output;
#N canvas 445 99 626 235 keys 0;
#X obj 41 40 sp-key i;
#X obj 41 71 s init;
#X obj 224 104 sp-key s;
#X obj 223 72 s \$0-signal-start;
#X obj 107 42 r \$0-btn-init-s;
#X obj 223 42 r \$0-tgl-start-s;
#X obj 428 41 r \$0-tgl-start-s;
#X obj 428 65 sel 0;
#X obj 428 110 s \$0-tgl-start-r;
#X msg 502 88 color 16 2;
#X msg 428 88 color 13 1;
#X obj 224 131 s \$0-tgl-start-r;
#X connect 0 0 1 0;
#X connect 2 0 11 0;
#X connect 4 0 1 0;
#X connect 5 0 3 0;
#X connect 6 0 7 0;
#X connect 7 0 10 0;
#X connect 7 1 9 0;
#X connect 9 0 8 0;
#X connect 10 0 8 0;
#X restore 802 403 pd keys;
#X obj 362 116 vu 10 120 \$0-vu-r empty -1 -8 0 10 -66577 -1 1 0;
#X obj 31 68 bng 25 250 50 0 \$0-btn-init-s \$0-btn-init-r Init[i]
30 12 0 20 -260097 -1 -1;
#X msg 308 329 1;
#X obj 32 260 bng 15 250 50 0 \$0-test-v2-s \$0-test-v2-r test_viola2
19 7 0 10 -262144 -1 -1;
#X obj 32 230 bng 15 250 50 0 \$0-test-v1-s \$0-test-v1-r test_viola1
19 7 0 10 -262144 -1 -1;
#X text 340 86 input level;
#N canvas 169 438 450 300 outconnect 0;
#X obj 32 38 inlet~;
#X obj 108 38 inlet~;
#X obj 182 38 inlet~;
#X obj 262 38 inlet~;
#X obj 262 74 s~ \$0-monitor~;
#X obj 32 74 s~ \$0-ch1~;
#X obj 108 74 s~ \$0-ch2~;
#X obj 182 74 s~ \$0-ch3~;
#X connect 0 0 5 0;
#X connect 1 0 6 0;
#X connect 2 0 7 0;
#X connect 3 0 4 0;
#X coords 0 -1 1 1 135 20 1 100 100;
#X restore 422 249 pd outconnect;
#N canvas 214 423 575 249 inconnect 0;
#X obj 35 162 r~ \$0-viola;
#X obj 35 196 outlet~;
#X obj 90 196 outlet;
#X obj 175 196 outlet~;
#X obj 230 196 outlet;
#X obj 285 196 outlet~;
#X obj 340 196 outlet;
#X obj 395 196 outlet~;
#X obj 450 196 outlet;
#X obj 175 162 r~ \$0-delay;
#X obj 285 165 r~ \$0-bass;
#X obj 395 165 r~ \$0-click;
#X obj 90 62 r \$0-signal-start;
#X msg 90 112 mute \$1;
#X obj 90 136 r \$0-v1-ctrl;
#X obj 230 136 r \$0-v2-ctrl;
#X obj 340 136 r \$0-bass-ctrl;
#X obj 450 138 r \$0-click-ctrl;
#X text 20 11 V1;
#X text 51 11 V2;
#X text 77 11 BASS;
#X text 111 11 CLICK;
#X obj 215 64 sp-key 1;
#X msg 215 90 mute bang;
#X msg 295 90 mute bang;
#X obj 295 64 sp-key 2;
#X msg 365 90 mute bang;
#X msg 450 90 mute bang;
#X obj 365 64 sp-key 3;
#X obj 450 64 sp-key 4;
#X obj 90 87 == 0;
#X connect 0 0 1 0;
#X connect 9 0 3 0;
#X connect 10 0 5 0;
#X connect 11 0 7 0;
#X connect 12 0 30 0;
#X connect 13 0 2 0;
#X connect 13 0 4 0;
#X connect 14 0 2 0;
#X connect 15 0 4 0;
#X connect 16 0 6 0;
#X connect 17 0 8 0;
#X connect 22 0 23 0;
#X connect 23 0 2 0;
#X connect 24 0 4 0;
#X connect 25 0 24 0;
#X connect 26 0 6 0;
#X connect 27 0 8 0;
#X connect 28 0 26 0;
#X connect 29 0 27 0;
#X connect 30 0 13 0;
#X coords 0 -1 1 1 135 20 2 10 10;
#X restore 422 74 pd inconnect;
#X obj 426 341 hsl 128 10 -45 45 0 0 \$0-v1-pan-s \$0-v1-pan-r viola1
-2 -8 0 10 -262144 -1 -1 8467 1;
#X obj 426 371 hsl 128 10 -45 45 0 0 \$0-v2-pan-s \$0-v2-pan-r viola2
-2 -8 0 10 -262144 -1 -1 4233 1;
#X obj 426 401 hsl 128 10 -45 45 0 0 \$0-bass-pan-s \$0-bass-pan-r
bass -2 -8 0 10 -262144 -1 -1 6350 1;
#N canvas 33 75 303 298 init 0;
#X obj -119 58 loadbang;
#X obj -119 91 f \$0;
#X obj -35 76 bng 15 250 50 0 empty empty empty 17 7 0 10 -262144 -1
-1;
#X msg -119 121 \; \$1-latency 10 \; \$1-tempo 144 \; \$1-v1-pan-r
15 \; \$1-v2-pan-r -15 \; \$1-bass-pan-r 0 \; \$1-v1-ctrl volume 0.7
\, mute 1 \; \$1-v2-ctrl volume 1 \, mute 1 \; \$1-bass-ctrl volume
0.7 \, mute 0 \; \$1-click-ctrl volume 1 \, mute 0 \;;
#X connect 0 0 1 0;
#X connect 1 0 3 0;
#X connect 2 0 1 0;
#X restore 802 229 pd init;
#N canvas 303 261 450 300 osc 0;
#X obj 35 35 sp-osc 8000;
#X restore 802 316 pd osc;
#X obj 421 302 comment 40 15 Verdana ? 0 0 0 0 Pan:;
#X obj 30 109 tgl 25 0 \$0-tgl-start-s \$0-tgl-start-r Start_[s] 30
10 0 20 -258699 -1 -166441 0 1;
#X connect 1 0 13 0;
#X connect 6 0 17 0;
#X connect 6 1 17 1;
#X connect 6 2 17 2;
#X connect 6 3 17 3;
#X connect 7 0 0 1;
#X connect 8 0 0 0;
#X connect 13 0 0 2;
#X connect 18 0 6 0;
#X connect 18 1 6 1;
#X connect 18 2 6 2;
#X connect 18 3 6 3;
#X connect 18 4 6 4;
#X connect 18 5 6 5;
#X connect 18 6 6 6;
#X connect 18 7 6 7;
