#N canvas 154 234 947 526 10;
#X obj 278 328 +dsp;
#N canvas 72 427 668 269 input 0;
#X obj 152 42 env~;
#X obj 197 109 max;
#X obj 243 109 - 0.05;
#X obj 152 79 - 100;
#X obj 152 136 pack f f;
#X obj 152 166 s \$0-vu-r;
#X obj 72 136 sp-beep~;
#X obj 72 107 r \$0-test-v1-s;
#X obj 339 146 multiplex~ . .;
#X obj 445 146 multiplex~ . .;
#X obj 445 31 vradio 15 1 0 2 empty \$0-card-select-r empty 0 -8 0
10 -262144 -1 -1 0;
#X text 467 45 MBox;
#X text 466 30 Saffire;
#X obj 57 25 adc~ 1;
#X obj 445 115 adc~ 4 6;
#X obj 339 118 adc~ 3 5;
#X obj 57 166 s~ \$0-viola~;
#X obj 339 170 s~ \$0-bass~;
#X obj 445 170 s~ \$0-click~;
#X obj 287 163 env~;
#X obj 287 191 - 100;
#X obj 287 219 s \$0-vu-gameboy-r;
#X obj 262 9 tgl 15 0 empty empty empty 17 7 0 10 -262144 -1 -1 1 1
;
#X obj 262 37 message-ground-loop;
#X connect 0 0 3 0;
#X connect 1 0 2 0;
#X connect 1 0 4 1;
#X connect 2 0 1 1;
#X connect 3 0 1 0;
#X connect 3 0 4 0;
#X connect 4 0 5 0;
#X connect 6 0 16 0;
#X connect 7 0 6 0;
#X connect 8 0 17 0;
#X connect 8 0 19 0;
#X connect 9 0 18 0;
#X connect 10 0 8 0;
#X connect 10 0 9 0;
#X connect 13 0 0 0;
#X connect 13 0 16 0;
#X connect 14 0 9 0;
#X connect 14 1 9 1;
#X connect 15 0 8 0;
#X connect 15 1 8 1;
#X connect 19 0 20 0;
#X connect 20 0 21 0;
#X connect 22 0 23 0;
#X restore 802 258 pd input;
#N canvas 491 100 471 313 delay 0;
#X obj 24 132 sp-vdelay~ 4000;
#X msg 137 96 delay \$1;
#X obj 165 223 sp-beep~ 880;
#X obj 165 196 r \$0-test-v2-s;
#X obj 137 34 r \$0-tempo;
#X obj 338 33 r \$0-latency;
#X obj 137 65 expr (8 * 1000 / ($f1 / 60)) - $f2;
#X obj 24 240 s~ \$0-delay~;
#X obj 24 109 r~ \$0-viola~;
#X connect 0 0 7 0;
#X connect 1 0 0 1;
#X connect 2 0 7 0;
#X connect 3 0 2 0;
#X connect 4 0 6 0;
#X connect 5 0 6 1;
#X connect 6 0 1 0;
#X connect 8 0 0 0;
#X restore 802 287 pd delay;
#X obj 21 12 comment 200 18 Verdana ? 0 0 0 0 [Message Ground];
#N canvas 624 277 216 259 monitor 0;
#X obj 34 99 sp-monitor~;
#X obj 34 60 r~ \$0-monitor~;
#X connect 1 0 0 0;
#X connect 1 0 0 1;
#X restore 802 345 pd monitor;
#X obj 422 94 sp-gmix4~;
#N canvas 117 249 459 211 output 0;
#X obj 66 157 s~ \$0-left~;
#X obj 311 158 s~ \$0-right~;
#X obj 66 44 r~ \$0-ch1~;
#X obj 179 43 r~ \$0-ch2~;
#X obj 290 43 r~ \$0-ch3~;
#X obj 66 99 pan~;
#X obj 179 99 pan~;
#X obj 290 95 pan~;
#X obj 87 72 r \$0-v1-pan-s;
#X obj 200 72 r \$0-v2-pan-s;
#X obj 311 71 r \$0-bass-pan-s;
#X connect 2 0 5 0;
#X connect 3 0 6 0;
#X connect 4 0 7 0;
#X connect 5 0 0 0;
#X connect 5 1 1 0;
#X connect 6 0 0 0;
#X connect 6 1 1 0;
#X connect 7 0 0 0;
#X connect 7 1 1 0;
#X connect 8 0 5 1;
#X connect 9 0 6 1;
#X connect 10 0 7 1;
#X restore 802 374 pd output;
#N canvas 532 153 459 457 keys 0;
#X obj 48 214 sp-key i;
#X obj 49 154 sp-key s;
#X obj 223 72 s \$0-signal-start;
#X obj 51 45 r \$0-btn-init-s;
#X obj 223 42 r \$0-tgl-start-s;
#X obj 170 154 r \$0-tgl-start-s;
#X obj 170 178 sel 0;
#X obj 170 223 s \$0-tgl-start-r;
#X msg 244 201 color 16 2;
#X msg 170 201 color 13 1;
#X obj 49 180 s \$0-tgl-start-r;
#X obj 48 279 sp-key a;
#X obj 48 309 s \$0-auto-stop-r;
#X obj 168 279 sp-key y;
#X obj 168 308 s \$0-bar-pos-sync-r;
#X obj 300 279 sp-key p;
#X obj 300 308 s \$0-bar-pos-stop-r;
#X obj 48 351 sp-key 1;
#X obj 48 398 s \$0-v1-ctrl;
#X msg 48 375 mute bang;
#X msg 138 375 mute bang;
#X obj 138 351 sp-key 2;
#X obj 138 398 s \$0-v2-ctrl;
#X msg 228 375 mute bang;
#X msg 328 375 mute bang;
#X obj 228 351 sp-key 3;
#X obj 328 351 sp-key 4;
#X obj 228 398 s \$0-bass-ctrl;
#X obj 328 398 s \$0-click-ctrl;
#X obj 51 69 s \$0-signal-init;
#X obj 118 130 r \$0-signal-start;
#X msg 118 154 set \$1;
#X obj 48 246 s \$0-btn-init-r;
#X connect 0 0 32 0;
#X connect 1 0 10 0;
#X connect 3 0 29 0;
#X connect 4 0 2 0;
#X connect 5 0 6 0;
#X connect 6 0 9 0;
#X connect 6 1 8 0;
#X connect 8 0 7 0;
#X connect 9 0 7 0;
#X connect 11 0 12 0;
#X connect 13 0 14 0;
#X connect 15 0 16 0;
#X connect 17 0 19 0;
#X connect 19 0 18 0;
#X connect 20 0 22 0;
#X connect 21 0 20 0;
#X connect 23 0 27 0;
#X connect 24 0 28 0;
#X connect 25 0 23 0;
#X connect 26 0 24 0;
#X connect 30 0 31 0;
#X connect 30 0 6 0;
#X connect 31 0 10 0;
#X restore 802 403 pd keys;
#X obj 345 116 vu 10 120 \$0-vu-gameboy-r empty -1 -8 0 10 -66577 -1
1 0;
#X obj 31 68 bng 25 250 50 0 \$0-btn-init-s \$0-btn-init-r Init[i]
30 12 0 20 -260097 -1 -1;
#X obj 30 304 bng 15 250 50 0 \$0-test-v2-s \$0-test-v2-r test_viola2
19 7 0 10 -35596 -1 -1;
#X obj 30 274 bng 15 250 50 0 \$0-test-v1-s \$0-test-v1-r test_viola1
19 7 0 10 -35724 -1 -1;
#N canvas 169 438 450 300 outconnect 0;
#X obj 32 38 inlet~;
#X obj 108 38 inlet~;
#X obj 182 38 inlet~;
#X obj 262 38 inlet~;
#X obj 262 74 s~ \$0-monitor~;
#X obj 32 74 s~ \$0-ch1~;
#X obj 108 74 s~ \$0-ch2~;
#X obj 182 74 s~ \$0-ch3~;
#X connect 0 0 5 0;
#X connect 1 0 6 0;
#X connect 2 0 7 0;
#X connect 3 0 4 0;
#X coords 0 -1 1 1 135 20 1 100 100;
#X restore 422 249 pd outconnect;
#N canvas 81 83 742 273 inconnect 0;
#X obj 40 226 outlet~;
#X obj 95 226 outlet;
#X obj 254 226 outlet~;
#X obj 309 226 outlet;
#X obj 400 226 outlet~;
#X obj 455 226 outlet;
#X obj 559 226 outlet~;
#X obj 614 226 outlet;
#X obj 255 16 r \$0-signal-start;
#X msg 255 66 mute \$1;
#X obj 95 166 r \$0-v1-ctrl;
#X obj 309 166 r \$0-v2-ctrl;
#X obj 455 166 r \$0-bass-ctrl;
#X obj 614 168 r \$0-click-ctrl;
#X text 20 11 V1;
#X text 51 11 V2;
#X text 77 11 BASS;
#X text 111 11 CLICK;
#X obj 255 41 == 0;
#X obj 40 192 r~ \$0-viola~;
#X obj 254 192 r~ \$0-delay~;
#X obj 400 192 r~ \$0-bass~;
#X obj 559 192 r~ \$0-click~;
#X obj 309 143 r \$0-ctrl-all;
#X obj 455 143 r \$0-ctrl-all;
#X obj 614 143 r \$0-ctrl-all;
#X obj 95 143 r \$0-ctrl-all;
#X obj 255 91 s \$0-ctrl-all;
#X connect 8 0 18 0;
#X connect 9 0 27 0;
#X connect 10 0 1 0;
#X connect 11 0 3 0;
#X connect 12 0 5 0;
#X connect 13 0 7 0;
#X connect 18 0 9 0;
#X connect 19 0 0 0;
#X connect 20 0 2 0;
#X connect 21 0 4 0;
#X connect 22 0 6 0;
#X connect 23 0 3 0;
#X connect 24 0 5 0;
#X connect 25 0 7 0;
#X connect 26 0 1 0;
#X coords 0 -1 1 1 135 20 2 10 10;
#X restore 422 74 pd inconnect;
#X obj 426 341 hsl 128 10 -45 45 0 0 \$0-v1-pan-s \$0-v1-pan-r viola1
-2 -8 0 10 -262144 -1 -1 8467 1;
#X obj 426 371 hsl 128 10 -45 45 0 0 \$0-v2-pan-s \$0-v2-pan-r viola2
-2 -8 0 10 -262144 -1 -1 4233 1;
#X obj 426 401 hsl 128 10 -45 45 0 0 \$0-bass-pan-s \$0-bass-pan-r
bass -2 -8 0 10 -262144 -1 -1 6350 1;
#N canvas 33 75 415 348 init 0;
#X obj 51 38 loadbang;
#X obj 51 71 f \$0;
#X obj 135 56 bng 15 250 50 0 empty empty empty 17 7 0 10 -262144 -1
-1;
#X msg 51 101 \; \$1-card-select-r 0 \; \$1-latency 10 \; \$1-tempo
140 \; \$1-v1-pan-r 15 \; \$1-v2-pan-r -15 \; \$1-bass-pan-r 0 \; \$1-v1-ctrl
volume 0.7 \, mute 1 \; \$1-v2-ctrl volume 1 \, mute 1 \; \$1-bass-ctrl
volume 0.7 \, mute 1 \; \$1-click-ctrl volume 1 \, mute 1 \; \$1-attack-on-r
0 \; \$1-autostart-level 40 \; \$1-master-level 1 \; pd dsp 1 \;;
#X connect 0 0 1 0;
#X connect 1 0 3 0;
#X connect 2 0 1 0;
#X restore 802 229 pd init;
#N canvas 303 261 450 300 osc 0;
#X obj 35 35 sp-osc 8000;
#X restore 802 316 pd osc;
#X obj 421 302 comment 40 15 Verdana ? 0 0 0 0 Pan:;
#X obj 30 109 tgl 25 0 \$0-tgl-start-s \$0-tgl-start-r Start_[s] 30
10 0 20 -258699 -1 -166441 0 1;
#X obj 30 244 tgl 15 0 \$0-attack-on-s \$0-attack-on-r start_on_attack
20 8 0 10 -262144 -1 -1 0 1;
#N canvas 638 48 451 498 stop-ctrl 0;
#X obj 283 91 r \$0-tempo;
#X obj 283 119 sp-bpm2ms;
#X obj 175 136 metro;
#X obj 206 180 + 1;
#X obj 175 254 sel 1;
#X obj 175 299 spigot;
#X msg 279 263 0;
#X obj 175 364 f \$0;
#X obj 175 180 f 0;
#X obj 320 197 % 8;
#X obj 320 223 s \$0-bar-pos-r;
#X msg 136 163 0;
#X msg 133 119 1;
#X msg 175 98 0;
#X obj 45 37 r \$0-bar-pos-sync-s;
#X obj 45 61 t b b;
#X obj 175 38 r \$0-bar-pos-stop-s;
#X obj 321 282 r \$0-auto-stop-s;
#X obj 175 221 expr ($f1 % 8) == 7;
#X obj 175 336 del;
#X obj 84 279 expr $f1 - 100;
#X obj 279 167 r \$0-signal-init;
#X msg 175 386 \; \$1-bass-ctrl mute 1 \; \$1-click-ctrl mute 1 \;
\$1-v2-ctrl mute 1 \; \$1-bar-pos-stop-r 1 \; \$1-auto-stop-r 0 \;
\$1-tgl-start-r 0 \;;
#X connect 0 0 1 0;
#X connect 1 0 2 1;
#X connect 1 0 20 0;
#X connect 2 0 8 0;
#X connect 3 0 8 1;
#X connect 4 0 5 0;
#X connect 5 0 19 0;
#X connect 6 0 5 1;
#X connect 7 0 22 0;
#X connect 8 0 3 0;
#X connect 8 0 9 0;
#X connect 8 0 18 0;
#X connect 9 0 10 0;
#X connect 11 0 8 0;
#X connect 12 0 2 0;
#X connect 13 0 2 0;
#X connect 14 0 15 0;
#X connect 15 0 11 0;
#X connect 15 1 12 0;
#X connect 16 0 13 0;
#X connect 17 0 5 1;
#X connect 18 0 4 0;
#X connect 19 0 7 0;
#X connect 20 0 19 1;
#X connect 21 0 6 0;
#X restore 801 434 pd stop-ctrl;
#X obj 421 46 hradio 17 1 0 8 \$0-bar-pos-s \$0-bar-pos-r empty 0 -8
0 10 -262144 -1 -1 0;
#X obj 30 214 bng 15 250 50 0 \$0-bar-pos-stop-s \$0-bar-pos-stop-r
stop_bar_pos[p] 20 7 0 10 -262130 -1 -1;
#X obj 30 184 bng 15 250 50 0 \$0-bar-pos-sync-s \$0-bar-pos-sync-r
bar_sync[y] 20 7 0 10 -203904 -1 -1;
#X obj 31 159 tgl 15 0 \$0-auto-stop-s \$0-auto-stop-r auto_stop[a]
20 7 0 10 -261234 -1 -1 1 1;
#N canvas 392 332 291 309 autostart 0;
#X obj 74 56 env~ 1024;
#X obj 74 216 sp-bangonce;
#X obj 74 161 spigot;
#X obj 107 135 r \$0-attack-on-s;
#X msg 131 190 reset;
#X msg 74 189 bang;
#X obj 74 111 sel 1;
#X obj 74 84 >= 40;
#X obj 144 56 r \$0-autostart-level;
#X floatatom 23 85 5 0 0 0 - - -;
#X obj 131 160 r \$0-signal-init;
#X obj 74 267 s \$0-signal-start;
#X msg 74 242 1;
#X obj 74 26 r~ \$0-bass~;
#X connect 0 0 7 0;
#X connect 0 0 9 0;
#X connect 1 0 12 0;
#X connect 2 0 5 0;
#X connect 3 0 2 1;
#X connect 4 0 1 0;
#X connect 5 0 1 0;
#X connect 6 0 2 0;
#X connect 7 0 6 0;
#X connect 8 0 7 1;
#X connect 10 0 4 0;
#X connect 12 0 11 0;
#X connect 13 0 0 0;
#X restore 800 464 pd autostart;
#N canvas 453 290 450 300 dsponnect 0;
#X obj 65 131 outlet~;
#X obj 145 132 outlet~;
#X obj 221 133 outlet;
#X obj 145 48 r~ \$0-right~;
#X obj 65 93 r~ \$0-left~;
#X obj 221 77 r \$0-master-level;
#X msg 221 104 volume \$1;
#X connect 3 0 1 0;
#X connect 4 0 0 0;
#X connect 5 0 6 0;
#X connect 6 0 2 0;
#X coords 0 -1 1 1 110 20 1 10 10;
#X restore 278 308 pd dsponnect;
#X obj 275 116 vu 10 120 \$0-vu-r empty -1 -8 0 10 -66577 -1 1 0;
#X text 253 86 input level;
#X text 336 87 Gameboy;
#X connect 5 0 12 0;
#X connect 5 1 12 1;
#X connect 5 2 12 2;
#X connect 5 3 12 3;
#X connect 13 0 5 0;
#X connect 13 1 5 1;
#X connect 13 2 5 2;
#X connect 13 3 5 3;
#X connect 13 4 5 4;
#X connect 13 5 5 5;
#X connect 13 6 5 6;
#X connect 13 7 5 7;
#X connect 28 0 0 0;
#X connect 28 1 0 1;
#X connect 28 2 0 2;
