#N canvas 163 77 833 577 10;
#X obj 162 121 f;
#X obj 199 121 + 1;
#X obj 162 149 mod 16;
#X obj 162 180 hradio 16 1 0 16 empty empty empty 0 -8 0 10 -262144
-1 -1 1;
#X obj 161 369 bassemu~;
#X msg 163 331 40;
#X msg 53 340 reset;
#X obj 448 173 loadbang;
#X msg 337 249 62;
#X msg 369 249 50;
#X msg 404 248 57;
#X msg 439 248 64;
#X msg 162 249 52;
#X msg 197 249 59;
#X msg 232 249 66;
#X msg 266 249 48;
#X msg 302 249 55;
#X msg 473 246 45;
#X obj 162 211 route 0 1 2 3 4 5 6 7 8 9 10 11 12 13 14 15;
#X msg 507 246 52;
#X msg 544 246 59;
#X msg 583 244 60;
#X msg 448 331 tune 442 \, vco 1 \, ext 0 \, cutoff 0.5 \, reso 0.6
\, envmod 0.7 \, decay 0.01 \, pw 0.7 \, glide 0 \, limit 0 \, envinc
8 \, pitch -12;
#X obj 93 21 inlet;
#X obj 161 409 outlet~;
#X obj 93 59 sp-metro 304;
#X connect 0 0 1 0;
#X connect 0 0 2 0;
#X connect 1 0 0 1;
#X connect 2 0 3 0;
#X connect 3 0 18 0;
#X connect 4 0 24 0;
#X connect 5 0 4 0;
#X connect 6 0 4 0;
#X connect 7 0 22 0;
#X connect 8 0 4 0;
#X connect 9 0 4 0;
#X connect 10 0 4 0;
#X connect 11 0 4 0;
#X connect 12 0 4 0;
#X connect 13 0 4 0;
#X connect 14 0 4 0;
#X connect 15 0 4 0;
#X connect 16 0 4 0;
#X connect 17 0 4 0;
#X connect 18 0 12 0;
#X connect 18 1 13 0;
#X connect 18 2 14 0;
#X connect 18 3 15 0;
#X connect 18 5 16 0;
#X connect 18 6 8 0;
#X connect 18 7 9 0;
#X connect 18 9 10 0;
#X connect 18 10 11 0;
#X connect 18 11 17 0;
#X connect 18 13 19 0;
#X connect 18 14 20 0;
#X connect 18 15 21 0;
#X connect 19 0 4 0;
#X connect 20 0 4 0;
#X connect 21 0 4 0;
#X connect 22 0 4 0;
#X connect 23 0 25 0;
#X connect 25 1 0 0;
