#N canvas 207 118 541 517 10;
#X declare -path ..;
#X declare -lib flatgui;
#X obj 330 21 declare -path ..;
#X obj 38 107 sp-gmix4~ mix4;
#X obj 38 392 +dsp;
#N canvas 747 135 114 94 input 0;
#X obj 28 55 s~ \$0-in;
#X obj 28 27 adc~ 2;
#X connect 1 0 0 0;
#X restore 330 52 pd input;
#N canvas 702 226 452 310 reverb 0;
#X obj 33 29 r~ \$0-in;
#X obj 33 59 sp-gfreeverb~;
#X obj 33 275 outlet~;
#X connect 0 0 1 0;
#X connect 1 0 2 0;
#X restore 102 33 pd reverb;
#X obj 329 228 sp-gparam;
#N canvas 478 281 450 300 pitchshift 0;
#X obj 44 53 r~ \$0-in;
#X obj 44 106 delay~ 900;
#X obj 186 103 delay~ 800;
#X obj 44 161 sp-pitchshift~;
#X obj 186 162 sp-pitchshift~;
#X obj 44 234 outlet~;
#X obj 44 203 *~ 0.5;
#X obj 179 17 loadbang;
#X msg 342 62 1.0293;
#X msg 174 67 0.974341;
#X connect 0 0 1 0;
#X connect 0 0 2 0;
#X connect 1 0 3 0;
#X connect 2 0 4 0;
#X connect 3 0 6 0;
#X connect 4 0 6 0;
#X connect 6 0 5 0;
#X connect 7 0 9 0;
#X connect 7 0 8 0;
#X connect 8 0 4 1;
#X connect 9 0 3 1;
#X restore 70 65 pd pitchshift;
#X obj 38 33 r~ \$0-in;
#X obj 166 82 r \$0-bus;
#N canvas 756 144 450 300 init 0;
#X obj 34 241 s \$0-bus;
#X obj 34 27 loadbang;
#X msg 34 175 mix4 0 label raw \, mix4 1 label ptch \, mix4 2 label
revb \, mix4 3 label ... \, mix4 0 midilearn 0 \, mix4 1 midilearn
1 \, mix4 2 midilearn 2 \, mix4 3 mute 1 \, midilearn volume 7 \, midilearn
on 55;
#X msg 126 56 restore 0;
#X obj 127 84 s sp-param;
#X connect 1 0 2 0;
#X connect 1 0 3 0;
#X connect 2 0 0 0;
#X connect 3 0 4 0;
#X restore 330 83 pd init;
#X obj 38 313 sp-gpan4~;
#X connect 1 0 10 0;
#X connect 1 1 10 1;
#X connect 1 2 10 2;
#X connect 1 3 10 3;
#X connect 1 4 10 4;
#X connect 4 0 1 2;
#X connect 6 0 1 1;
#X connect 7 0 1 0;
#X connect 8 0 1 4;
#X connect 10 0 2 0;
#X connect 10 1 2 1;
#X connect 10 2 2 2;
