#N canvas 87 49 1014 697 10;
#X declare -path ..;
#N canvas 263 199 554 339 icecast 0;
#X obj 296 292 mp3cast~;
#X msg 20 250 disconnect;
#X obj 21 21 cnv 15 98 98 empty empty IceCast 12 12 0 14 -66577 -262144
0;
#X obj 33 51 tgl 20 0 \$0-connect-s \$0-connect-r connect 25 10 0 10
-262144 -1 -262144 1 1;
#X obj 20 139 r \$0-connect-s;
#X obj 20 163 sel 0 1;
#X obj 296 29 inlet~;
#X obj 341 28 inlet~;
#X obj 33 82 tgl 20 0 \$0-mount-s \$0-mount-r Work/Test 25 10 0 10
-262144 -1 -262144 0 1;
#X obj 164 20 r \$0-mount-s;
#X obj 164 48 sel 0 1;
#X msg 164 77 mountpoint test.mp3;
#X msg 183 103 mountpoint trololo.mp3;
#X msg 39 188 passwd 35d2d1f1 \, icecast2 \, description hardcore \,
genre classical \, mountpoint trololo.mp3 \, name radio \, connect
poltavski.ru 8000;
#X connect 1 0 0 0;
#X connect 4 0 5 0;
#X connect 5 0 1 0;
#X connect 5 1 13 0;
#X connect 6 0 0 0;
#X connect 7 0 0 1;
#X connect 9 0 10 0;
#X connect 10 0 11 0;
#X connect 10 1 12 0;
#X connect 11 0 0 0;
#X connect 12 0 0 0;
#X connect 13 0 0 0;
#X coords 0 -1 1 1 100 100 1 20 20;
#X restore 26 547 pd icecast;
#X obj 862 20 declare -path ..;
#X obj 26 353 sp-gsmix~;
#X obj 171 175 sp-gmix4~;
#X obj 882 598 sp-gparam;
#X obj 322 552 +dsp;
#N canvas 447 108 670 398 zastavki 0;
#X obj 208 321 outlet~;
#X obj 295 321 outlet~;
#X obj 208 241 readsf~ 2;
#X obj 32 44 tgl 20 0 \$0-prognoz-s \$0-prognoz-r prognoz 25 10 0 10
-262144 -1 -1 0 1;
#X obj 208 286 *~;
#X obj 244 286 *~;
#X obj 312 243 line~;
#X obj 312 269 *~;
#N canvas 300 328 406 299 prognoz 0;
#X msg 48 96 open prognoz.wav \, start;
#X msg 74 196 stop;
#X obj 104 65 sel 0 1;
#X msg 152 192 1 10;
#X msg 196 192 0 1000;
#X obj 104 136 t b b;
#X obj 74 166 del 1000;
#X obj 104 31 r \$0-prognoz-s;
#X obj 48 230 outlet control;
#X obj 152 229 outlet volume;
#X connect 0 0 8 0;
#X connect 1 0 8 0;
#X connect 2 0 5 0;
#X connect 2 1 3 0;
#X connect 2 1 0 0;
#X connect 3 0 9 0;
#X connect 4 0 9 0;
#X connect 5 0 6 0;
#X connect 5 1 4 0;
#X connect 6 0 1 0;
#X connect 7 0 2 0;
#X restore 208 172 pd prognoz;
#X obj 32 74 tgl 20 0 \$0-trololo-s \$0-trololo-r trololo 25 10 0 10
-262144 -1 -1 1 1;
#N canvas 475 81 600 441 golos 0;
#X obj 104 65 sel 0 1;
#X msg 170 153 0 1000;
#X obj 104 136 t b b;
#X obj 104 31 r \$0-golos-s;
#X obj 250 36 loadbang;
#X obj 250 126 soundfiler;
#X obj 250 66 f \$0;
#X obj 330 36 bng 15 250 50 0 empty empty empty 17 7 0 10 -262144 -1
-1;
#X obj 70 385 outlet~;
#X msg 250 98 read -resize golos.wav \$1-golos-buf1 \$1-golos-buf2
;
#X obj 342 229 table \$0-golos-buf2;
#X obj 342 209 table \$0-golos-buf1;
#X obj 70 353 *~;
#X obj 70 319 tabplay~ \$0-golos-buf1;
#X obj 220 385 outlet~;
#X obj 220 353 *~;
#X obj 220 319 tabplay~ \$0-golos-buf2;
#X obj 150 262 line~;
#X obj 64 39 tgl 15 0 empty empty empty 17 7 0 10 -262144 -1 -1 0 1
;
#X msg 150 192 1 \, 0 9000;
#X obj 123 103 t b b;
#X connect 0 0 2 0;
#X connect 0 1 20 0;
#X connect 1 0 17 0;
#X connect 2 1 1 0;
#X connect 3 0 0 0;
#X connect 4 0 6 0;
#X connect 6 0 9 0;
#X connect 7 0 6 0;
#X connect 9 0 5 0;
#X connect 12 0 8 0;
#X connect 13 0 12 0;
#X connect 15 0 14 0;
#X connect 16 0 15 0;
#X connect 17 0 12 1;
#X connect 17 0 15 1;
#X connect 18 0 0 0;
#X connect 19 0 17 0;
#X connect 20 0 13 0;
#X connect 20 0 16 0;
#X connect 20 1 19 0;
#X restore 338 132 pd golos;
#N canvas 300 328 318 276 zfasman 0;
#X msg 74 196 stop;
#X obj 104 65 sel 0 1;
#X msg 152 192 1 10;
#X msg 196 192 0 1000;
#X obj 104 136 t b b;
#X obj 74 166 del 1000;
#X obj 48 230 outlet control;
#X obj 152 229 outlet volume;
#X obj 104 31 r \$0-zfasman-s;
#X msg 48 96 open zfasman.wav \, start;
#X connect 0 0 6 0;
#X connect 1 0 4 0;
#X connect 1 1 2 0;
#X connect 1 1 9 0;
#X connect 2 0 7 0;
#X connect 3 0 7 0;
#X connect 4 0 5 0;
#X connect 4 1 3 0;
#X connect 5 0 0 0;
#X connect 8 0 1 0;
#X connect 9 0 6 0;
#X restore 318 172 pd zfasman;
#X obj 32 104 tgl 20 0 \$0-zfasman-s \$0-zfasman-r zfasman 25 10 0
10 -262144 -1 -1 0 1;
#X obj 32 134 tgl 20 0 \$0-golos-s \$0-golos-r golos 25 10 0 10 -262144
-1 -1 0 1;
#N canvas 300 328 318 276 trololo 0;
#X msg 74 196 stop;
#X obj 104 65 sel 0 1;
#X msg 152 192 1 10;
#X msg 196 192 0 1000;
#X obj 104 136 t b b;
#X obj 74 166 del 1000;
#X obj 48 230 outlet control;
#X obj 152 229 outlet volume;
#X obj 104 31 r \$0-trololo-s;
#X msg 48 96 open trololo.wav \, start;
#X connect 0 0 6 0;
#X connect 1 0 4 0;
#X connect 1 1 2 0;
#X connect 1 1 9 0;
#X connect 2 0 7 0;
#X connect 3 0 7 0;
#X connect 4 0 5 0;
#X connect 4 1 3 0;
#X connect 5 0 0 0;
#X connect 8 0 1 0;
#X connect 9 0 6 0;
#X restore 228 132 pd trololo;
#X connect 2 0 4 0;
#X connect 2 1 5 0;
#X connect 4 0 0 0;
#X connect 5 0 1 0;
#X connect 6 0 7 0;
#X connect 6 0 7 1;
#X connect 7 0 5 1;
#X connect 7 0 4 1;
#X connect 8 0 2 0;
#X connect 8 1 6 0;
#X connect 10 0 0 0;
#X connect 10 1 1 0;
#X connect 11 0 2 0;
#X connect 11 1 6 0;
#X connect 14 0 2 0;
#X connect 14 1 6 0;
#X coords 0 -1 1 1 100 150 1 20 20;
#X restore 427 25 pd zastavki;
#N canvas 633 227 212 206 skype 0;
#X obj 40 142 outlet~;
#X obj 40 60 adc~ 1 2;
#X connect 1 0 0 0;
#X connect 1 1 0 0;
#X restore 134 42 pd skype;
#N canvas 309 86 101 175 mic 0;
#X obj 24 128 outlet~;
#X obj 24 40 adc~ 3 4;
#X obj 24 85 lop~ 4000;
#X connect 1 0 2 0;
#X connect 1 1 2 0;
#X connect 2 0 0 0;
#X restore 203 42 pd mic;
#X obj 203 76 sp-gcompr~;
#X obj 203 148 motex/noisegate~ 37 1 100;
#X obj 26 316 catch~ \$0-l;
#X obj 42 285 catch~ \$0-r;
#X obj 235 414 throw~ \$0-l;
#X obj 267 390 throw~ \$0-r;
#X obj 171 443 s~ \$0-monl;
#X obj 203 474 s~ \$0-monr;
#X obj 322 519 r~ \$0-monl;
#X obj 418 518 r~ \$0-monr;
#X obj 563 92 playlist wav 300 200 {Helvetica 9 bold} #457782 yellow
black red;
#X obj 563 326 readsf~ 2;
#X msg 563 300 open \$1 \, start;
#X obj 563 25 loadbang;
#X msg 563 49 location /Users/serj/Music/radio;
#X obj 563 350 sp-gmix2~ mix2;
#X obj 377 245 hradio 25 1 0 4 \$0-mode-s \$0-mode-r Mode 0 -8 0 10
-262144 -1 -1 0;
#X obj 320 178 r \$0-bus;
#X obj 624 326 r \$0-bus;
#N canvas 696 155 450 300 bus 0;
#X obj 52 25 r \$0-mode-s;
#X obj 52 51 select 0 1 2 3;
#X obj 52 241 s \$0-bus;
#X msg 52 98 mix4 0 mute 1 \, mix4 1 mute 0 \, mix4 2 mute 0 \, mix4
3 mute 0 \, mix2 mute 1;
#X msg 72 140 mix4 0 mute 0 \, mix4 1 mute 0 \, mix4 2 mute 1 \, mix4
3 mute 1 \, mix2 mute 1;
#X msg 92 183 mix4 mute 1 \, mix2 mute 0;
#X msg 112 209 mix4 mute 0 \, mix2 mute 0;
#X connect 0 0 1 0;
#X connect 1 0 3 0;
#X connect 1 1 4 0;
#X connect 1 2 5 0;
#X connect 1 3 6 0;
#X connect 3 0 2 0;
#X connect 4 0 2 0;
#X connect 5 0 2 0;
#X connect 6 0 2 0;
#X restore 922 43 pd bus;
#X text 379 272 MIC;
#X text 400 285 SKYPE;
#X text 432 224 MUS;
#X text 455 224 ALL;
#X obj 643 355 vsl 15 128 0 1.6 0 0 empty empty empty 0 -9 0 10 -262144
-1 -1 0 1;
#X msg 643 491 mix2 volume \$1;
#X obj 643 517 s \$0-bus;
#N canvas 634 190 450 300 peep 0;
#X obj 87 262 outlet~;
#X obj 87 201 *~;
#X obj 159 176 line~;
#X msg 159 146 \$1 10;
#X obj 159 96 inlet control;
#X obj 87 155 osc~ 810;
#X obj 87 231 *~ 0.5;
#X connect 1 0 6 0;
#X connect 2 0 1 1;
#X connect 3 0 2 0;
#X connect 4 0 3 0;
#X connect 5 0 1 0;
#X connect 6 0 0 0;
#X restore 409 392 pd peep;
#X obj 409 325 tgl 60 0 empty empty empty 17 7 0 10 -261682 -1 -1 0
1;
#X obj 409 308 sp-key p;
#X obj 32 89 sp-key p;
#X msg 32 130 mix4 1 mute \$1;
#X obj 32 110 tgl 15 0 empty empty empty 17 7 0 10 -262144 -1 -1 0
1;
#X obj 32 155 s \$0-bus;
#X connect 2 0 0 0;
#X connect 2 1 0 1;
#X connect 3 0 14 0;
#X connect 3 0 13 0;
#X connect 3 0 15 0;
#X connect 3 0 16 0;
#X connect 3 1 14 0;
#X connect 3 1 13 0;
#X connect 3 2 13 0;
#X connect 3 2 15 0;
#X connect 3 3 14 0;
#X connect 3 3 16 0;
#X connect 6 0 3 2;
#X connect 6 1 3 3;
#X connect 7 0 3 0;
#X connect 8 0 9 0;
#X connect 9 0 10 0;
#X connect 10 0 3 1;
#X connect 11 0 2 0;
#X connect 12 0 2 1;
#X connect 17 0 5 0;
#X connect 18 0 5 1;
#X connect 19 0 21 0;
#X connect 20 0 24 0;
#X connect 20 1 24 1;
#X connect 21 0 20 0;
#X connect 22 0 23 0;
#X connect 23 0 19 0;
#X connect 24 0 15 0;
#X connect 24 0 13 0;
#X connect 24 1 16 0;
#X connect 24 1 14 0;
#X connect 26 0 3 4;
#X connect 27 0 24 2;
#X connect 33 0 34 0;
#X connect 34 0 35 0;
#X connect 36 0 15 0;
#X connect 36 0 16 0;
#X connect 36 0 13 0;
#X connect 36 0 14 0;
#X connect 37 0 36 0;
#X connect 38 0 37 0;
#X connect 39 0 41 0;
#X connect 40 0 42 0;
#X connect 41 0 40 0;
