#N canvas 108 134 519 501 10;
#X declare -path ..;
#X obj 51 64 sp-gmix~;
#X obj 402 34 declare -path ..;
#X obj 402 77 sp-gparam;
#X obj 51 290 +dsp;
#X obj 51 395 sp-grecord~ lynch.knox;
#N canvas 585 355 241 143 init 0;
#X obj 46 35 loadbang;
#X obj 46 90 s sp-param;
#X msg 46 60 restore 0;
#X connect 0 0 2 0;
#X connect 2 0 1 0;
#X restore 456 213 pd init;
#X obj 244 259 r \$0-bus;
#N canvas 587 274 450 326 midi 0;
#X obj 79 49 sp-midiview;
#X obj 179 192 ctlin 45 17;
#X obj 179 282 s \$0-bus;
#X msg 179 253 record start;
#X obj 279 282 s \$0-bus;
#X obj 279 192 ctlin 42 17;
#X obj 179 222 sel 127;
#X obj 279 222 sel 127;
#X msg 279 253 record stop;
#X obj 78 193 ctlin 48 17;
#X msg 78 219 on \$1;
#X connect 1 0 6 0;
#X connect 3 0 2 0;
#X connect 5 0 7 0;
#X connect 6 0 3 0;
#X connect 7 0 8 0;
#X connect 8 0 4 0;
#X connect 9 0 10 0;
#X connect 10 0 2 0;
#X restore 456 176 pd midi;
#X text 115 65 Midi: Record \, Stop and mute 1 channel;
#X obj 51 26 sp-viola~;
#X obj 51 254 rev3~ 100 87 3000 20;
#X connect 0 0 10 0;
#X connect 0 0 10 1;
#X connect 3 0 4 0;
#X connect 3 1 4 1;
#X connect 3 2 4 2;
#X connect 6 0 3 2;
#X connect 9 0 0 0;
#X connect 10 0 3 0;
#X connect 10 1 3 1;
