#N canvas 212 110 740 614 10;
#X obj 450 494 +dsp;
#N canvas 0 22 450 278 (subpatch) 0;
#X array \$0-left 2.31554e+07 float 2;
#X coords 0 1 2.31554e+07 -1 700 100 1 0 0;
#X restore 20 111 graph;
#X obj 20 111 hsl 700 100 0 44100 0 0 empty play_ind empty -2 -8 0
10 -262144 -4160 -1 0 1;
#N canvas 342 165 375 220 osc 0;
#X msg 29 85 \; pd dsp \$1;
#X obj 210 79 str to_float;
#X obj 210 103 / 100;
#X obj 150 182 s stop;
#X obj 89 149 s play;
#X obj 210 128 s vol;
#X obj 100 127 sp-key p;
#X obj 183 156 sp-key s;
#X obj 29 52 routeOSC /dsp /btn_play /btn_stop /volume /btn_init;
#X obj 271 105 s init;
#X obj 29 17 inlet;
#X obj 248 156 sp-key Space;
#X connect 1 0 2 0;
#X connect 2 0 5 0;
#X connect 6 0 4 0;
#X connect 7 0 3 0;
#X connect 8 0 0 0;
#X connect 8 1 4 0;
#X connect 8 2 3 0;
#X connect 8 3 1 0;
#X connect 8 4 9 0;
#X connect 10 0 8 0;
#X connect 11 0 3 0;
#X restore 640 309 pd osc;
#N canvas 539 158 475 378 loadfile 0;
#X obj 124 104 soundfiler;
#X obj 109 152 f;
#X obj 109 182 expr 44100 / $f1;
#X obj 109 212 phasor~;
#X obj 109 272 * 44100;
#X floatatom 109 302 10 0 0 0 - - -;
#X obj 109 331 s play_ind;
#X obj 37 162 r stop;
#X msg 37 188 0;
#X obj 82 104 r play;
#X obj 82 137 bng 15 250 50 0 empty empty empty 17 7 0 10 -262144 -1
-1;
#X obj 124 21 r init;
#X obj 109 242 unsig~ 20;
#X obj 124 47 f \$0;
#X msg 124 75 read -resize vermont.wav \$1-left \$1-right;
#X connect 0 0 1 1;
#X connect 1 0 2 0;
#X connect 2 0 3 0;
#X connect 3 0 12 0;
#X connect 4 0 5 0;
#X connect 5 0 6 0;
#X connect 7 0 8 0;
#X connect 8 0 3 0;
#X connect 8 0 5 0;
#X connect 8 0 3 1;
#X connect 9 0 10 0;
#X connect 10 0 1 0;
#X connect 11 0 13 0;
#X connect 12 0 4 0;
#X connect 13 0 14 0;
#X connect 14 0 0 0;
#X restore 640 367 pd loadfile;
#N canvas 150 64 876 497 input 0;
#X obj 302 454 outlet~;
#X obj 431 161 r stop;
#X msg 431 200 stop;
#X msg 302 200 0;
#X obj 302 163 r play;
#X obj 431 241 tabplay~ \$0-right;
#X obj 302 240 tabplay~ \$0-left;
#X obj 431 454 outlet~;
#X obj 431 344 *~ 2;
#X obj 302 344 *~ 2;
#X obj 53 423 adc~ 2;
#X obj 53 452 outlet~;
#X obj 527 450 outlet;
#X obj 164 448 outlet;
#X msg 527 346 volume 1.2 \, label tape;
#X msg 164 382 volume 0.5 \, label flt;
#X obj 164 279 loadbang;
#X obj 395 284 s stop;
#X connect 1 0 2 0;
#X connect 2 0 5 0;
#X connect 2 0 6 0;
#X connect 3 0 5 0;
#X connect 3 0 6 0;
#X connect 4 0 3 0;
#X connect 5 0 8 0;
#X connect 5 1 17 0;
#X connect 6 0 9 0;
#X connect 6 1 17 0;
#X connect 8 0 7 0;
#X connect 9 0 0 0;
#X connect 10 0 11 0;
#X connect 14 0 12 0;
#X connect 15 0 13 0;
#X connect 16 0 15 0;
#X connect 16 0 14 0;
#X restore 450 239 pd input;
#X obj 210 255 bng 48 250 50 0 init init-r init 0 -16 0 20 -260097
-1 -1;
#X obj 643 464 r \$0-bus;
#N canvas 273 315 355 259 init 0;
#X obj 44 112 s \$0-bus;
#X obj 44 63 r init;
#X msg 44 87 volume 0.6;
#X obj 178 21 loadbang;
#X msg 178 146 label \$1;
#X obj 178 116 l2s;
#X obj 178 179 s \$0-title-r;
#X msg 178 79 Reich: Vermont Counterpoint;
#X obj 178 51 del 500;
#X connect 1 0 2 0;
#X connect 2 0 0 0;
#X connect 3 0 8 0;
#X connect 4 0 6 0;
#X connect 5 0 4 0;
#X connect 7 0 5 0;
#X connect 8 0 7 0;
#X restore 640 338 pd init;
#X obj 280 255 bng 48 250 50 0 play play-r play 0 -16 0 22 -4034 -1
-1;
#X obj 350 255 bng 48 250 50 0 stop stop-r stop 0 -16 0 22 -99865 -1
-1;
#X obj 450 273 sp-gmix~;
#X obj 640 280 table \$0-right;
#X obj 484 273 ../sp-gsmix~;
#N canvas 96 107 397 262 pan 0;
#X obj 25 51 inlet~;
#X obj 137 50 inlet~;
#X obj 224 50 inlet~;
#X obj 137 205 outlet~;
#X obj 224 206 outlet~;
#X obj 165 145 pan~;
#X msg 186 119 13;
#X obj 186 92 loadbang;
#X obj 25 114 r~ \$0-fl-rev-out;
#X obj 25 86 s~ \$0-fl-rev-in;
#X connect 0 0 9 0;
#X connect 1 0 3 0;
#X connect 2 0 4 0;
#X connect 5 0 3 0;
#X connect 5 1 4 0;
#X connect 6 0 5 1;
#X connect 7 0 6 0;
#X connect 8 0 5 0;
#X restore 450 467 pd pan;
#N canvas 410 266 632 478 reverb 0;
#X obj 53 118 sp-gfreeverb~;
#X obj 53 335 sp-glimiter~;
#X obj 53 414 *~ 0.2;
#X obj 53 71 r~ \$0-fl-rev-in;
#X obj 53 442 s~ \$0-fl-rev-out;
#X obj 246 20 loadbang;
#X msg 246 48 freeverb dry 10 \, freeverb wet 10 \, freeverb stereo-width
100 \, freeverb print \, limiter threshold 80;
#X connect 0 0 1 0;
#X connect 0 2 1 2;
#X connect 1 0 2 0;
#X connect 2 0 4 0;
#X connect 3 0 0 0;
#X connect 5 0 6 0;
#X connect 6 0 0 2;
#X restore 640 396 pd reverb;
#X obj 20 232 cnv 15 150 100 empty empty empty 20 12 0 14 -233017 -66577
0;
#X text 29 253 Stop: s \, Space;
#X obj 20 15 cnv 15 700 30 empty \$0-title-r Reich 20 15 0 20 -204800
-66577 0;
#X obj 653 65 sp-gcpu;
#X text 30 237 Play: p;
#X text 31 272 1 Check DSP;
#X text 31 292 2 Press init;
#X text 31 312 3 Press play;
#X connect 5 0 11 0;
#X connect 5 1 11 1;
#X connect 5 2 13 0;
#X connect 5 3 13 1;
#X connect 5 4 13 2;
#X connect 7 0 0 2;
#X connect 11 0 14 0;
#X connect 13 0 14 1;
#X connect 13 1 14 2;
#X connect 14 0 0 0;
#X connect 14 1 0 1;
