#N canvas 465 133 449 230 10;
#X declare -path ..;
#X obj 35 50 ctlin 102;
#X floatatom 35 92 5 0 0 0 - - -;
#X obj 35 169 ctlout 64;
#X obj 140 81 sel 1;
#X msg 140 110 127;
#X msg 177 111 0;
#X obj 331 21 declare -path ..;
#X obj 140 51 sp-arduino 3;
#X connect 0 0 1 0;
#X connect 1 0 2 0;
#X connect 3 0 4 0;
#X connect 3 1 5 0;
#X connect 4 0 2 0;
#X connect 5 0 2 0;
#X connect 7 0 3 0;
#X connect 7 2 3 0;
