#N canvas 0 22 1064 593 10;
#X declare -lib moonlib;
#X declare -lib zexy;
#X declare -lib sp-pd;
#X obj 335 -103 tgl 15 0 \$0-click-start-tgl-s \$0-click-start-tgl-r
M 30 7 0 14 -261681 -1 -258699 0 1;
#X obj 445 -233 vsl 15 120 0.05 2 1 0 \$0-v1_vol \$0-set_v1_vol Viola1
0 -9 0 10 -204786 -1 -1 7428 1;
#X obj 474 -233 vu 15 120 \$0-viola1-ind-r empty -1 -8 0 10 -66577
-1 1 0;
#X obj 564 -233 vsl 15 120 0.02 2 1 0 \$0-v2_vol \$0-set_v2_vol Viola2
0 -9 0 10 -204786 -1 -1 8789 1;
#X obj 594 -233 vu 15 120 \$0-viola2-ind-r empty -1 -8 0 10 -66577
-1 1 0;
#X obj 688 -233 vsl 15 120 0.02 2 1 0 \$0-v3_vol \$0-set_v3_vol Viola3
0 -9 0 10 -204786 -1 -1 8789 1;
#X obj 717 -233 vu 15 120 \$0-viola3-ind-r empty -1 -8 0 10 -66577
-1 1 0;
#X obj 786 -233 vsl 15 120 0 0.7 0 0 \$0-feedback_vol \$0-set_fb_vol
Feedback 0 -9 0 10 -204800 -1 -1 6800 1;
#X obj 212 242 tgl 15 0 empty empty mic 19 7 0 13 -261234 -1 -258113
0 1;
#X text 229 259 KEY: "V";
#X obj 208 175 +dsp;
#N canvas 523 22 614 462 osc 0;
#X obj 44 39 sp-osc 8000;
#X obj 44 266 bng 15 250 50 0 empty empty empty 17 7 0 10 -262144 -1
-1;
#X msg 87 263 \; pd dsp \$1;
#X obj 131 309 str to_float;
#X obj 131 332 / 100;
#X msg 175 274 1;
#X msg 219 273 0;
#X obj 307 255 str to_float;
#X obj 307 288 / 100;
#X obj 44 216 routeOSC /btn_init /dsp /volume /btn_start /btn_stop
/delay /feedback /click;
#X obj 469 319 sp-key m;
#X obj 276 322 sp-key d;
#X obj 44 375 s \$0-init;
#X obj 131 405 s \$0-vol;
#X obj 175 375 s \$0-control;
#X obj 263 375 s \$0-delay;
#X obj 307 406 s \$0-set_fb_vol;
#X obj 469 375 s \$0-click_start;
#X obj 20 309 r \$0-btn-init-s;
#X connect 0 0 9 0;
#X connect 1 0 12 0;
#X connect 3 0 4 0;
#X connect 4 0 13 0;
#X connect 5 0 14 0;
#X connect 5 0 17 0;
#X connect 6 0 14 0;
#X connect 6 0 17 0;
#X connect 7 0 8 0;
#X connect 8 0 16 0;
#X connect 9 0 1 0;
#X connect 9 1 2 0;
#X connect 9 2 3 0;
#X connect 9 3 5 0;
#X connect 9 4 6 0;
#X connect 9 5 15 0;
#X connect 9 6 7 0;
#X connect 9 7 17 0;
#X connect 10 0 17 0;
#X connect 11 0 15 0;
#X connect 18 0 12 0;
#X restore 943 6 pd osc;
#X msg 311 148 1;
#N canvas 448 224 458 292 click 0;
#X obj 39 97 sp-metro 144;
#X obj 39 178 *~;
#X msg 131 134 \$1 20;
#X obj 131 161 line~;
#X obj 117 195 pvu~;
#X obj 117 223 s \$0-click-vu;
#X msg 254 90 bang;
#X obj 131 110 clip 0 2;
#X obj 39 13 r \$0-click_start;
#X obj 154 13 r \$0-click-start-tgl-s;
#X obj 108 43 r \$0-load_tempo;
#X obj 39 209 s~ \$0-metro;
#X obj 254 117 s \$0-click-start-tgl-r;
#X obj 131 87 r \$0-click-vol-s;
#X connect 0 0 1 0;
#X connect 1 0 4 0;
#X connect 1 0 11 0;
#X connect 2 0 3 0;
#X connect 3 0 1 1;
#X connect 4 0 5 0;
#X connect 6 0 12 0;
#X connect 7 0 2 0;
#X connect 8 0 0 0;
#X connect 8 0 6 0;
#X connect 9 0 0 0;
#X connect 10 0 0 1;
#X connect 13 0 7 0;
#X restore 943 36 pd click;
#X obj 335 -233 vsl 15 120 0.02 2 1 0 \$0-click-vol-s \$0-click-vol-r
Click 0 -9 0 10 -261682 -1 -1 5950 1;
#X obj 364 -233 vu 15 120 \$0-click-vu empty -1 -8 0 10 -66577 -1 1
0;
#N canvas 566 125 319 236 input 0;
#X obj 70 41 adc~ 1;
#X obj 70 76 *~ 2;
#X obj 70 111 *~;
#X obj 132 94 line~;
#X obj 132 45 tgl 15 0 empty empty empty 17 7 0 10 -262144 -1 -1 0
1;
#X msg 132 70 \$1 20;
#X obj 132 18 sp-key v;
#X obj 172 178 pvu~;
#X msg 203 72 set \$1;
#X obj 15 111 *~ 0.5;
#X obj 70 144 +~ 0;
#X obj 15 41 sp-beep~;
#X obj 203 19 r \$0-input-tgl-s;
#X obj 203 98 s \$0-input-tgl-r;
#X obj 172 204 s \$0-input-vu;
#X obj 70 204 s~ \$0-input;
#X obj 15 18 r \$0-input-test-s;
#X connect 0 0 1 0;
#X connect 1 0 2 0;
#X connect 1 0 7 0;
#X connect 2 0 10 0;
#X connect 3 0 2 1;
#X connect 4 0 5 0;
#X connect 4 0 8 0;
#X connect 5 0 3 0;
#X connect 6 0 4 0;
#X connect 7 0 14 0;
#X connect 8 0 13 0;
#X connect 9 0 10 0;
#X connect 10 0 15 0;
#X connect 11 0 9 0;
#X connect 12 0 4 0;
#X connect 16 0 11 0;
#X restore 943 66 pd input;
#X obj 268 -233 vu 15 120 \$0-input-vu Input -1 -8 0 10 -66577 -1 1
0;
#X obj 266 -103 tgl 15 0 \$0-input-tgl-s \$0-input-tgl-r V 25 7 0 14
-262144 -1 -4160 0 1;
#N canvas 373 119 517 300 viola1 0;
#X obj 25 102 *~;
#X obj 99 16 sp-key 1;
#X msg 99 61 \$1 20;
#X obj 99 85 line~;
#X obj 25 161 *~;
#X obj 99 40 tgl 15 0 empty empty empty 17 7 0 10 -262144 -1 -1 0 1
;
#X msg 159 59 set \$1;
#X obj 120 228 pvu~;
#X obj 101 144 line~;
#X msg 101 120 \$1 20;
#X obj 397 117 mtof;
#X obj 397 73 loadbang;
#X msg 397 94 84;
#X obj 275 103 clip 0 2;
#X obj 352 194 sp-beep~;
#X obj 25 211 +~ 0;
#X obj 25 61 r~ \$0-input;
#X obj 25 252 s~ \$0-viola1;
#X obj 120 252 s \$0-viola1-ind-r;
#X obj 102 178 throw~ \$0-feedback;
#X obj 159 86 s \$0-viola1-tgl-r;
#X obj 275 69 r \$0-v1_vol;
#X obj 167 16 r \$0-viola1-tgl-s;
#X obj 352 14 r \$0-viola1-test-s;
#X connect 0 0 4 0;
#X connect 1 0 5 0;
#X connect 2 0 3 0;
#X connect 3 0 0 1;
#X connect 4 0 15 0;
#X connect 4 0 19 0;
#X connect 5 0 2 0;
#X connect 5 0 6 0;
#X connect 6 0 20 0;
#X connect 7 0 18 0;
#X connect 8 0 4 1;
#X connect 9 0 8 0;
#X connect 10 0 14 1;
#X connect 11 0 12 0;
#X connect 12 0 10 0;
#X connect 13 0 9 0;
#X connect 14 0 15 0;
#X connect 15 0 7 0;
#X connect 15 0 17 0;
#X connect 16 0 0 0;
#X connect 21 0 13 0;
#X connect 22 0 5 0;
#X connect 23 0 14 0;
#X restore 943 96 pd viola1;
#X obj 445 -103 tgl 15 0 \$0-viola1-tgl-s \$0-viola1-tgl-r 1 25 7 0
14 -262144 -1 -4160 0 1;
#X obj 445 -77 bng 15 250 50 0 \$0-viola1-test-s \$0-viola1-test-r
empty 17 7 0 10 -262144 -1 -1;
#N canvas 261 120 592 374 viola2 0;
#X obj 44 164 *~;
#X obj 44 102 sig~;
#X obj 44 54 expr ($f1 * 16) - $f2;
#X floatatom 61 80 7 0 0 0 - - -;
#X obj 170 147 line~;
#X msg 170 122 \$1 20;
#X obj 170 98 tgl 15 0 empty empty empty 17 7 0 10 -262144 -1 -1 0
1;
#X obj 44 199 *~;
#X obj 113 296 pvu~;
#X obj 170 75 sp-key 2;
#X obj 160 182 line~;
#X msg 231 165 \$1 20;
#X msg 292 113 set \$1;
#X obj 409 147 mtof;
#X obj 409 103 loadbang;
#X msg 409 124 89;
#X obj 231 124 clip 0 2;
#X obj 364 244 sp-beep~;
#X obj 44 261 +~ 0;
#X obj 44 25 r \$0-tempo_q4;
#X obj 167 25 r \$0-latency;
#X obj 245 25 r \$0-viola2-tgl-r;
#X obj 44 342 s~ \$0-viola2;
#X obj 113 321 s \$0-viola2-ind-r;
#X obj 364 195 r \$0-viola2-test-s;
#X obj 292 138 s \$0-viola2-tgl-r;
#X obj 231 88 r \$0-v2_vol;
#X obj 166 216 throw~ \$0-feedback;
#X obj 44 132 vd~ \$0-delay_buffer;
#X connect 0 0 7 0;
#X connect 1 0 28 0;
#X connect 2 0 1 0;
#X connect 2 0 3 0;
#X connect 4 0 0 1;
#X connect 5 0 4 0;
#X connect 6 0 5 0;
#X connect 6 0 12 0;
#X connect 7 0 18 0;
#X connect 7 0 27 0;
#X connect 8 0 23 0;
#X connect 9 0 6 0;
#X connect 10 0 7 1;
#X connect 11 0 10 0;
#X connect 12 0 25 0;
#X connect 13 0 17 1;
#X connect 14 0 15 0;
#X connect 15 0 13 0;
#X connect 16 0 11 0;
#X connect 17 0 18 0;
#X connect 18 0 8 0;
#X connect 18 0 22 0;
#X connect 19 0 2 0;
#X connect 20 0 2 1;
#X connect 21 0 6 0;
#X connect 24 0 17 0;
#X connect 26 0 16 0;
#X connect 28 0 0 0;
#X restore 943 126 pd viola2;
#X obj 564 -103 tgl 15 0 \$0-viola2-tgl-s \$0-viola2-tgl-r 2 25 7 0
14 -262144 -1 -4160 0 1;
#X obj 564 -77 bng 15 250 50 0 \$0-viola2-test-s \$0-viola2-test-s
empty 17 7 0 10 -262144 -1 -1;
#X obj 688 -103 tgl 15 0 \$0-viola3-tgl-s \$0-viola3-tgl-r 3 25 7 0
14 -262144 -1 -4160 0 1;
#X obj 688 -77 bng 15 250 50 0 \$0-viola3-test-s \$0-viola3-test-r
empty 17 7 0 10 -262144 -1 -1;
#N canvas 339 132 602 371 viola3 1;
#X obj 44 164 *~;
#X obj 44 102 sig~;
#X floatatom 61 80 7 0 0 0 - - -;
#X obj 170 147 line~;
#X msg 170 122 \$1 20;
#X obj 170 98 tgl 15 0 empty empty empty 17 7 0 10 -262144 -1 -1 0
1;
#X obj 44 199 *~;
#X obj 133 286 pvu~;
#X obj 160 182 line~;
#X msg 231 165 \$1 20;
#X msg 302 113 set \$1;
#X obj 406 229 mtof;
#X obj 406 188 loadbang;
#X obj 170 75 sp-key 3;
#X obj 44 54 expr ($f1 * 32) - $f2;
#X msg 406 209 93;
#X obj 231 124 clip 0 2;
#X obj 352 246 sp-beep~;
#X obj 44 263 +~ 0;
#X obj 44 25 r \$0-tempo_q4;
#X obj 167 25 r \$0-latency;
#X obj 245 25 r \$0-viola3-tgl-r;
#X obj 231 88 r \$0-v3_vol;
#X obj 44 311 s~ \$0-viola3;
#X obj 133 311 s \$0-viola3-ind-r;
#X obj 166 216 throw~ \$0-feedback;
#X obj 302 138 s \$0-viola3-tgl-r;
#X obj 352 167 r \$0-viola3-test-s;
#X obj 44 132 vd~ \$0-delay_buffer;
#X connect 0 0 6 0;
#X connect 1 0 28 0;
#X connect 3 0 0 1;
#X connect 4 0 3 0;
#X connect 5 0 4 0;
#X connect 5 0 10 0;
#X connect 6 0 18 0;
#X connect 6 0 25 0;
#X connect 7 0 24 0;
#X connect 8 0 6 1;
#X connect 9 0 8 0;
#X connect 10 0 26 0;
#X connect 11 0 17 1;
#X connect 12 0 15 0;
#X connect 13 0 5 0;
#X connect 14 0 1 0;
#X connect 14 0 2 0;
#X connect 15 0 11 0;
#X connect 16 0 9 0;
#X connect 17 0 18 0;
#X connect 18 0 7 0;
#X connect 18 0 23 0;
#X connect 19 0 14 0;
#X connect 20 0 14 1;
#X connect 21 0 5 0;
#X connect 22 0 16 0;
#X connect 27 0 17 0;
#X connect 28 0 0 0;
#X restore 943 156 pd viola3;
#N canvas 209 413 216 204 v1pan 0;
#X obj 40 14 sp-pan~;
#X obj 40 -37 r~ \$0-viola1;
#X obj 73 -61 r \$0-viola1-pan-r;
#X obj 40 83 throw~ \$0-out_left;
#X obj 73 106 throw~ \$0-out_right;
#X connect 0 0 3 0;
#X connect 0 1 4 0;
#X connect 1 0 0 0;
#X connect 2 0 0 1;
#X coords 0 204 1 203 40 40 0;
#X restore 943 186 pd v1pan;
#X obj 441 -54 mknob 25 100 -45 45 0 0 \$0-viola1-pan-s \$0-viola1-pan-r
empty -2 -6 0 8 -262144 -1 -1 4950 1;
#X obj 561 -54 mknob 25 100 -45 45 0 0 \$0-viola2-pan-s \$0-viola2-pan-r
empty -2 -6 0 8 -262144 -1 -1 2750 1;
#X obj 684 -54 mknob 25 100 -45 45 0 0 \$0-viola3-pan-s \$0-viola3-pan-r
empty -2 -6 0 8 -262144 -1 -1 7150 1;
#N canvas 714 307 254 209 v3pan 0;
#X obj 56 88 sp-pan~;
#X obj 89 37 r \$0-viola3-pan-s;
#X obj 56 61 r~ \$0-viola3;
#X obj 56 121 throw~ \$0-out_left;
#X obj 89 145 throw~ \$0-out_right;
#X connect 0 0 3 0;
#X connect 0 1 4 0;
#X connect 1 0 0 1;
#X connect 2 0 0 0;
#X restore 943 246 pd v3pan;
#N canvas 714 307 254 209 v2pan 0;
#X obj 56 82 sp-pan~;
#X obj 89 37 r \$0-viola2-pan-s;
#X obj 56 61 r~ \$0-viola2;
#X obj 56 121 throw~ \$0-out_left;
#X obj 89 144 throw~ \$0-out_right;
#X connect 0 0 3 0;
#X connect 0 1 4 0;
#X connect 1 0 0 1;
#X connect 2 0 0 0;
#X restore 943 216 pd v2pan;
#X obj 266 -77 bng 15 250 50 0 \$0-input-test-s \$0-input-test-r empty
17 7 0 10 -36021 -1 -1;
#X text 289 -78 test delay;
#X text 466 -78 test viola 1;
#X text 586 -78 test viola 2;
#X text 711 -78 test viola 3;
#N canvas 431 284 490 281 delay 1;
#X obj 151 -29 tgl 15 0 empty empty empty 17 7 0 10 -204786 -1 -1 0
1;
#X obj 125 71 *~;
#X obj 151 32 line~;
#X msg 151 9 \$1 20;
#X obj 24 -17 *~;
#X obj 56 0 lop~ 3000;
#X text 175 -27 KEY: "D";
#X obj 55 -34 line~;
#X msg 55 -59 \$1 20;
#X msg 239 -5 set \$1;
#X obj 25 54 r~ \$0-input;
#X obj 24 -108 catch~ \$0-feedback;
#X obj 172 -67 r \$0-delay;
#X obj 246 -67 r \$0-delay-tgl-s;
#X obj 239 23 s \$0-delay-tgl-r;
#X obj 346 -14 s \$0-click_start;
#X obj 55 -84 r \$0-feedback_vol;
#X obj 125 100 delwrite~ \$0-delay_buffer 16000;
#X obj 151 -107 r \$0-init;
#X connect 0 0 3 0;
#X connect 0 0 9 0;
#X connect 0 0 15 0;
#X connect 1 0 17 0;
#X connect 2 0 1 1;
#X connect 3 0 2 0;
#X connect 4 0 5 0;
#X connect 5 0 1 0;
#X connect 7 0 4 1;
#X connect 8 0 7 0;
#X connect 9 0 14 0;
#X connect 10 0 1 0;
#X connect 11 0 4 0;
#X connect 12 0 0 0;
#X connect 13 0 0 0;
#X connect 16 0 8 0;
#X connect 18 0 0 0;
#X restore 943 276 pd delay;
#X obj 863 -236 tgl 30 0 \$0-delay-tgl-s \$0-delay-tgl-r Delay[d] 40
13 0 22 -204800 -4160 -1 0 1;
#N canvas 206 70 658 621 init 0;
#X obj 104 150 expr 1000 * 60 / $f1;
#X obj -43 96 loadbang;
#X obj -134 97 bng 15 250 50 0 empty empty init 19 7 0 13 -262144 -1
-258113;
#X obj 164 25 loadbang;
#X obj 164 54 import moonlib;
#X obj 269 54 import zexy;
#X obj 327 106 sp-key s;
#X obj 327 131 tgl 15 0 empty empty empty 17 7 0 10 -262144 -1 -1 0
1;
#X msg 333 234 set \$1;
#X obj 261 150 t f f f f f f f;
#X obj 357 53 import sp-pd;
#X obj -134 37 r \$0-init;
#X obj 104 118 r \$0-load_tempo;
#X obj 104 179 s \$0-tempo_q4;
#X obj 261 86 r \$0-control;
#X obj 389 106 r \$0-tgl-start-s;
#X obj 348 197 s \$0-delay-tgl-r;
#X obj 333 257 s \$0-tgl-start-r;
#X obj 319 280 s \$0-viola1-tgl-r;
#X obj 304 307 s \$0-viola2-tgl-r;
#X obj 290 334 s \$0-viola3-tgl-r;
#X obj 275 359 s \$0-click-start-tgl-r;
#X obj 261 384 s \$0-input-tgl-r;
#X obj -85 360 sel 0 1 2 3;
#X obj -85 213 t f b;
#X obj -58 234 f \$0;
#X text -23 233 General settings;
#X obj -85 385 f \$0;
#X obj -50 385 f \$0;
#X obj -15 385 f \$0;
#X obj -85 147 f 0;
#X obj -85 63 r \$0-settings-s;
#X msg 215 442 \; \$1-click-vol-r 0.5 \; \$1-set_v1_vol 0.5 \; \$1-set_v2_vol
0.6 \; \$1-set_v3_vol 0.6 \; \$1-set_fb_vol 0.4 \; \$1-viola1-pan-r
0 \; \$1-viola2-pan-r -20 \; \$1-viola3-pan-r 20 \; \$1-click-output-s
2 \; pd dsp 1;
#X msg -85 442 \; \$1-click-vol-r 0.2 \; \$1-set_v1_vol 0.5 \; \$1-set_v2_vol
0.6 \; \$1-set_v3_vol 0.6 \; \$1-set_fb_vol 0.4 \; \$1-viola1-pan-r
0 \; \$1-viola2-pan-r -20 \; \$1-viola3-pan-r 20 \; \$1-click-output-s
0 \; pd dsp 1;
#X msg 65 442 \; \$1-click-vol-r 0.4 \; \$1-set_v1_vol 0.5 \; \$1-set_v2_vol
0.6 \; \$1-set_v3_vol 0.6 \; \$1-set_fb_vol 0.4 \; \$1-viola1-pan-r
0 \; \$1-viola2-pan-r -20 \; \$1-viola3-pan-r 20 \; \$1-click-output-s
2 \; \$1-click-pan -0.5 \; pd dsp 1;
#X msg -58 255 \; \$1-latency 15 \; \$1-load_tempo 144 \; \$1-vol 0.9
\;;
#X connect 0 0 13 0;
#X connect 1 0 30 0;
#X connect 2 0 30 0;
#X connect 3 0 4 0;
#X connect 3 0 5 0;
#X connect 3 0 10 0;
#X connect 6 0 7 0;
#X connect 7 0 9 0;
#X connect 8 0 17 0;
#X connect 9 0 22 0;
#X connect 9 1 21 0;
#X connect 9 2 20 0;
#X connect 9 3 19 0;
#X connect 9 4 18 0;
#X connect 9 5 8 0;
#X connect 9 6 16 0;
#X connect 11 0 2 0;
#X connect 12 0 0 0;
#X connect 14 0 9 0;
#X connect 15 0 7 0;
#X connect 23 0 27 0;
#X connect 23 1 28 0;
#X connect 23 2 29 0;
#X connect 24 0 23 0;
#X connect 24 1 25 0;
#X connect 25 0 35 0;
#X connect 27 0 33 0;
#X connect 28 0 34 0;
#X connect 29 0 32 0;
#X connect 30 0 24 0;
#X connect 31 0 30 0;
#X restore 943 -24 pd init;
#X obj 16 -167 tgl 30 0 \$0-tgl-start-s \$0-tgl-start-r Start[s] 35
14 0 20 -204786 -13381 -1 0 1;
#N canvas 395 230 519 260 output 0;
#X obj 424 22 loadbang;
#X msg 424 50 volume 1;
#X obj 48 114 sp-monitor~;
#X obj 48 82 r~ \$0-metro;
#X obj 296 22 r \$0-click-output-s;
#X msg 296 48 channel \$1;
#X obj 191 25 r \$0-click-pan;
#X msg 191 50 pan \$1;
#X connect 0 0 1 0;
#X connect 1 0 2 2;
#X connect 3 0 2 0;
#X connect 3 0 2 1;
#X connect 4 0 5 0;
#X connect 5 0 2 2;
#X connect 6 0 7 0;
#X connect 7 0 2 2;
#X restore 640 216 pd output;
#X text 372 -48 Panning:;
#X text 858 -195 Delay and click are connected;
#X obj 311 125 r \$0-init;
#X obj 347 148 r \$0-vol;
#X obj 17 -44 vradio 30 1 0 3 \$0-settings-s \$0-settings-r Settings:
0 -15 0 18 -262144 -1 -1 0;
#X obj 259 105 catch~ \$0-out_right;
#X obj 208 84 catch~ \$0-out_left;
#X obj 59 -44 comment 100 18 Verdana s 0 0 0 0 home;
#X obj 15 -257 comment 200 25 Verdana ? 0 0 0 0 [SPIRAL];
#X obj 59 -14 comment 200 18 Verdana ? 0 0 0 0 concert;
#X connect 12 0 10 2;
#X connect 46 0 12 0;
#X connect 47 0 10 2;
#X connect 49 0 10 1;
#X connect 50 0 10 0;
#X coords 0 0 1 1 85 60 0;
