#N canvas 0 22 1093 678 10;
#X declare -lib moonlib;
#X declare -lib zexy;
#X declare -lib sp-pd;
#X declare -lib GEM;
#X obj 335 -103 tgl 15 0 \$0-click-start-tgl-s \$0-click-start-tgl-r
M 30 7 0 14 -261681 -1 -258699 0 1;
#X obj 445 -233 vsl 15 120 0.05 2 1 0 \$0-v1_vol \$0-set_v1_vol Viola1
0 -9 0 10 -204786 -1 -1 7428 1;
#X obj 474 -233 vu 15 120 \$0-viola1-ind-r empty -1 -8 0 10 -66577
-1 1 0;
#X obj 564 -233 vsl 15 120 0.02 2 1 0 \$0-v2_vol \$0-set_v2_vol Viola2
0 -9 0 10 -204786 -1 -1 8789 1;
#X obj 594 -233 vu 15 120 \$0-viola2-ind-r empty -1 -8 0 10 -66577
-1 1 0;
#X obj 688 -233 vsl 15 120 0.02 2 1 0 \$0-v3_vol \$0-set_v3_vol Viola3
0 -9 0 10 -204786 -1 -1 8789 1;
#X obj 717 -233 vu 15 120 \$0-viola3-ind-r empty -1 -8 0 10 -66577
-1 1 0;
#X obj 786 -233 vsl 15 120 0 0.7 0 0 \$0-feedback_vol \$0-set_fb_vol
Feedback 0 -9 0 10 -204800 -1 -1 6800 1;
#X obj 42 352 tgl 15 0 empty empty mic 19 7 0 13 -261234 -1 -258113
0 1;
#X text 59 369 KEY: "V";
#X obj 38 285 +dsp;
#N canvas 523 22 496 388 osc 0;
#X obj 44 39 sp-osc 8000;
#X obj 44 266 bng 15 250 50 0 empty empty empty 17 7 0 10 -262144 -1
-1;
#X msg 87 263 \; pd dsp \$1;
#X obj 131 309 str to_float;
#X obj 131 332 / 100;
#X msg 175 274 1;
#X msg 219 274 0;
#X obj 307 255 str to_float;
#X obj 307 288 / 100;
#X obj 44 216 routeOSC /btn_init /dsp /volume /btn_start /btn_stop
/delay /feedback /click;
#X obj 131 355 s \$0-vol;
#X obj 307 332 s \$0-set_fb_vol;
#X obj 263 309 s \$0-osc-delay;
#X obj 175 332 s \$0-osc-start;
#X obj 44 309 s \$0-osc-init;
#X obj 351 288 s \$0-osc-click;
#X connect 0 0 9 0;
#X connect 1 0 14 0;
#X connect 3 0 4 0;
#X connect 4 0 10 0;
#X connect 5 0 13 0;
#X connect 6 0 13 0;
#X connect 7 0 8 0;
#X connect 8 0 11 0;
#X connect 9 0 1 0;
#X connect 9 1 2 0;
#X connect 9 2 3 0;
#X connect 9 3 5 0;
#X connect 9 4 6 0;
#X connect 9 5 12 0;
#X connect 9 6 7 0;
#X connect 9 7 15 0;
#X restore 943 6 pd osc;
#N canvas 448 224 507 328 click 0;
#X obj 16 107 sp-metro 144;
#X obj 16 188 *~;
#X msg 108 144 \$1 20;
#X obj 108 171 line~;
#X obj 94 205 pvu~;
#X obj 94 233 s \$0-click-vu;
#X obj 108 120 clip 0 2;
#X obj 85 53 r \$0-load_tempo;
#X obj 16 219 s~ \$0-metro;
#X obj 108 97 r \$0-click-vol-s;
#X obj 16 25 r \$0-signal-click-start;
#X obj 16 -10 s \$0-signal-click-start;
#X obj 119 -47 r \$0-click-start-tgl-s;
#X msg 279 -21 set \$1;
#X obj 279 3 s \$0-click-start-tgl-r;
#X obj 279 -47 r \$0-signal-click-start;
#X obj 334 -21 r \$0-key-click;
#X obj 16 -47 r \$0-osc-click;
#X connect 0 0 1 0;
#X connect 1 0 4 0;
#X connect 1 0 8 0;
#X connect 2 0 3 0;
#X connect 3 0 1 1;
#X connect 4 0 5 0;
#X connect 6 0 2 0;
#X connect 7 0 0 1;
#X connect 9 0 6 0;
#X connect 10 0 0 0;
#X connect 12 0 11 0;
#X connect 13 0 14 0;
#X connect 15 0 13 0;
#X connect 16 0 14 0;
#X connect 17 0 11 0;
#X restore 943 36 pd click;
#X obj 335 -233 vsl 15 120 0 2 0 0 \$0-click-vol-s \$0-click-vol-r
Click 0 -9 0 10 -261682 -1 -1 2975 1;
#X obj 364 -233 vu 15 120 \$0-click-vu empty -1 -8 0 10 -66577 -1 1
0;
#N canvas 566 125 423 335 input 0;
#X obj 80 41 adc~ 1;
#X obj 80 96 *~ 2;
#X obj 80 131 *~;
#X obj 142 114 line~;
#X obj 142 45 tgl 15 0 empty empty empty 17 7 0 10 -262144 -1 -1 1
1;
#X msg 142 90 \$1 20;
#X obj 142 18 sp-key v;
#X obj 182 198 pvu~;
#X msg 213 92 set \$1;
#X obj 25 131 *~ 0.5;
#X obj 80 164 +~ 0;
#X obj 25 41 sp-beep~;
#X obj 213 19 r \$0-input-tgl-s;
#X obj 213 118 s \$0-input-tgl-r;
#X obj 182 224 s \$0-input-vu;
#X obj 80 224 s~ \$0-input;
#X obj 25 18 r \$0-input-test-s;
#X obj 80 69 hip~ 100;
#X connect 0 0 17 0;
#X connect 1 0 2 0;
#X connect 1 0 7 0;
#X connect 2 0 10 0;
#X connect 3 0 2 1;
#X connect 4 0 5 0;
#X connect 4 0 8 0;
#X connect 5 0 3 0;
#X connect 6 0 4 0;
#X connect 7 0 14 0;
#X connect 8 0 13 0;
#X connect 9 0 10 0;
#X connect 10 0 15 0;
#X connect 11 0 9 0;
#X connect 12 0 4 0;
#X connect 16 0 11 0;
#X connect 17 0 1 0;
#X restore 943 66 pd input;
#X obj 268 -233 vu 15 120 \$0-input-vu Input -1 -8 0 10 -66577 -1 1
0;
#X obj 266 -103 tgl 15 0 \$0-input-tgl-s \$0-input-tgl-r V 25 7 0 14
-262144 -1 -4160 1 1;
#N canvas 193 305 637 295 viola1 0;
#X obj 25 102 *~;
#X obj 99 16 sp-key 1;
#X msg 99 61 \$1 20;
#X obj 99 85 line~;
#X obj 25 161 *~;
#X obj 99 40 tgl 15 0 empty empty empty 17 7 0 10 -262144 -1 -1 1 1
;
#X msg 159 59 set \$1;
#X obj 120 228 pvu~;
#X obj 101 144 line~;
#X msg 101 120 \$1 20;
#X obj 397 87 mtof;
#X obj 397 43 loadbang;
#X msg 397 64 84;
#X obj 275 103 clip 0 2;
#X obj 352 194 sp-beep~;
#X obj 25 211 +~ 0;
#X obj 25 61 r~ \$0-input;
#X obj 25 252 s~ \$0-viola1;
#X obj 120 252 s \$0-viola1-ind-r;
#X obj 102 178 throw~ \$0-feedback;
#X obj 159 86 s \$0-viola1-tgl-r;
#X obj 275 69 r \$0-v1_vol;
#X obj 167 16 r \$0-viola1-tgl-s;
#X obj 467 114 r \$0-viola1-test-s;
#X obj 467 169 s \$0-signal-test-viola1;
#X obj 467 142 r \$0-key-test-viola1;
#X obj 352 14 r \$0-signal-test-viola1;
#X connect 0 0 4 0;
#X connect 1 0 5 0;
#X connect 2 0 3 0;
#X connect 3 0 0 1;
#X connect 4 0 15 0;
#X connect 4 0 19 0;
#X connect 5 0 2 0;
#X connect 5 0 6 0;
#X connect 6 0 20 0;
#X connect 7 0 18 0;
#X connect 8 0 4 1;
#X connect 9 0 8 0;
#X connect 10 0 14 1;
#X connect 11 0 12 0;
#X connect 12 0 10 0;
#X connect 13 0 9 0;
#X connect 14 0 15 0;
#X connect 15 0 7 0;
#X connect 15 0 17 0;
#X connect 16 0 0 0;
#X connect 21 0 13 0;
#X connect 22 0 5 0;
#X connect 23 0 24 0;
#X connect 25 0 24 0;
#X connect 26 0 14 0;
#X restore 943 96 pd viola1;
#X obj 445 -103 tgl 15 0 \$0-viola1-tgl-s \$0-viola1-tgl-r 1 25 7 0
14 -262144 -1 -4160 1 1;
#X obj 445 -77 bng 15 250 50 0 \$0-viola1-test-s \$0-viola1-test-r
empty 17 7 0 10 -262144 -1 -1;
#N canvas 261 120 679 384 viola2 0;
#X obj 44 164 *~;
#X obj 44 102 sig~;
#X obj 44 54 expr ($f1 * 16) - $f2;
#X floatatom 61 80 7 0 0 0 - - -;
#X obj 170 147 line~;
#X msg 170 122 \$1 20;
#X obj 170 98 tgl 15 0 empty empty empty 17 7 0 10 -262144 -1 -1 1
1;
#X obj 44 199 *~;
#X obj 113 296 pvu~;
#X obj 170 75 sp-key 2;
#X obj 160 182 line~;
#X msg 231 165 \$1 20;
#X msg 292 113 set \$1;
#X obj 409 147 mtof;
#X obj 409 103 loadbang;
#X msg 409 124 89;
#X obj 231 124 clip 0 2;
#X obj 364 244 sp-beep~;
#X obj 44 261 +~ 0;
#X obj 44 25 r \$0-tempo_q4;
#X obj 167 25 r \$0-latency;
#X obj 245 25 r \$0-viola2-tgl-r;
#X obj 44 342 s~ \$0-viola2;
#X obj 113 321 s \$0-viola2-ind-r;
#X obj 292 138 s \$0-viola2-tgl-r;
#X obj 231 88 r \$0-v2_vol;
#X obj 166 216 throw~ \$0-feedback;
#X obj 499 28 r \$0-key-test-viola2;
#X obj 499 79 s \$0-signal-test-viola2;
#X obj 364 195 r \$0-signal-test-viola2;
#X obj 499 53 r \$0-viola2-test-s;
#X obj 44 132 vd~ \$0-delay-buffer;
#X connect 0 0 7 0;
#X connect 1 0 31 0;
#X connect 2 0 1 0;
#X connect 2 0 3 0;
#X connect 4 0 0 1;
#X connect 5 0 4 0;
#X connect 6 0 5 0;
#X connect 6 0 12 0;
#X connect 7 0 18 0;
#X connect 7 0 26 0;
#X connect 8 0 23 0;
#X connect 9 0 6 0;
#X connect 10 0 7 1;
#X connect 11 0 10 0;
#X connect 12 0 24 0;
#X connect 13 0 17 1;
#X connect 14 0 15 0;
#X connect 15 0 13 0;
#X connect 16 0 11 0;
#X connect 17 0 18 0;
#X connect 18 0 8 0;
#X connect 18 0 22 0;
#X connect 19 0 2 0;
#X connect 20 0 2 1;
#X connect 21 0 6 0;
#X connect 25 0 16 0;
#X connect 27 0 28 0;
#X connect 29 0 17 0;
#X connect 30 0 28 0;
#X connect 31 0 0 0;
#X restore 943 126 pd viola2;
#X obj 564 -103 tgl 15 0 \$0-viola2-tgl-s \$0-viola2-tgl-r 2 25 7 0
14 -262144 -1 -4160 1 1;
#X obj 564 -77 bng 15 250 50 0 \$0-viola2-test-s \$0-viola2-test-s
empty 17 7 0 10 -262144 -1 -1;
#X obj 688 -103 tgl 15 0 \$0-viola3-tgl-s \$0-viola3-tgl-r 3 25 7 0
14 -262144 -1 -4160 1 1;
#X obj 688 -77 bng 15 250 50 0 \$0-viola3-test-s \$0-viola3-test-r
empty 17 7 0 10 -262144 -1 -1;
#N canvas 339 132 602 371 viola3 0;
#X obj 44 164 *~;
#X obj 44 102 sig~;
#X floatatom 61 80 7 0 0 0 - - -;
#X obj 170 147 line~;
#X msg 170 122 \$1 20;
#X obj 170 98 tgl 15 0 empty empty empty 17 7 0 10 -262144 -1 -1 1
1;
#X obj 44 199 *~;
#X obj 133 286 pvu~;
#X obj 160 182 line~;
#X msg 231 165 \$1 20;
#X msg 302 113 set \$1;
#X obj 406 229 mtof;
#X obj 406 188 loadbang;
#X obj 170 75 sp-key 3;
#X obj 44 54 expr ($f1 * 32) - $f2;
#X msg 406 209 93;
#X obj 231 124 clip 0 2;
#X obj 352 246 sp-beep~;
#X obj 44 263 +~ 0;
#X obj 44 25 r \$0-tempo_q4;
#X obj 167 25 r \$0-latency;
#X obj 245 25 r \$0-viola3-tgl-r;
#X obj 231 88 r \$0-v3_vol;
#X obj 44 311 s~ \$0-viola3;
#X obj 133 311 s \$0-viola3-ind-r;
#X obj 166 216 throw~ \$0-feedback;
#X obj 302 138 s \$0-viola3-tgl-r;
#X obj 352 167 r \$0-viola3-test-s;
#X obj 44 132 vd~ \$0-delay-buffer;
#X connect 0 0 6 0;
#X connect 1 0 28 0;
#X connect 3 0 0 1;
#X connect 4 0 3 0;
#X connect 5 0 4 0;
#X connect 5 0 10 0;
#X connect 6 0 18 0;
#X connect 6 0 25 0;
#X connect 7 0 24 0;
#X connect 8 0 6 1;
#X connect 9 0 8 0;
#X connect 10 0 26 0;
#X connect 11 0 17 1;
#X connect 12 0 15 0;
#X connect 13 0 5 0;
#X connect 14 0 1 0;
#X connect 14 0 2 0;
#X connect 15 0 11 0;
#X connect 16 0 9 0;
#X connect 17 0 18 0;
#X connect 18 0 7 0;
#X connect 18 0 23 0;
#X connect 19 0 14 0;
#X connect 20 0 14 1;
#X connect 21 0 5 0;
#X connect 22 0 16 0;
#X connect 27 0 17 0;
#X connect 28 0 0 0;
#X restore 943 156 pd viola3;
#N canvas 209 413 216 204 v1pan 0;
#X obj 40 14 sp-pan~;
#X obj 40 -37 r~ \$0-viola1;
#X obj 73 -61 r \$0-viola1-pan-r;
#X obj 40 83 throw~ \$0-out_left;
#X obj 73 106 throw~ \$0-out_right;
#X connect 0 0 3 0;
#X connect 0 1 4 0;
#X connect 1 0 0 0;
#X connect 2 0 0 1;
#X coords 0 204 1 203 40 40 0;
#X restore 943 186 pd v1pan;
#X obj 441 -54 mknob 25 100 -45 45 0 0 \$0-viola1-pan-s \$0-viola1-pan-r
empty -2 -6 0 8 -262144 -1 -1 4950 1;
#X obj 561 -54 mknob 25 100 -45 45 0 0 \$0-viola2-pan-s \$0-viola2-pan-r
empty -2 -6 0 8 -262144 -1 -1 2750 1;
#X obj 684 -54 mknob 25 100 -45 45 0 0 \$0-viola3-pan-s \$0-viola3-pan-r
empty -2 -6 0 8 -262144 -1 -1 7150 1;
#N canvas 714 307 254 209 v3pan 0;
#X obj 56 88 sp-pan~;
#X obj 89 37 r \$0-viola3-pan-s;
#X obj 56 61 r~ \$0-viola3;
#X obj 56 121 throw~ \$0-out_left;
#X obj 89 145 throw~ \$0-out_right;
#X connect 0 0 3 0;
#X connect 0 1 4 0;
#X connect 1 0 0 1;
#X connect 2 0 0 0;
#X restore 943 246 pd v3pan;
#N canvas 714 307 254 209 v2pan 0;
#X obj 56 82 sp-pan~;
#X obj 89 37 r \$0-viola2-pan-s;
#X obj 56 61 r~ \$0-viola2;
#X obj 56 121 throw~ \$0-out_left;
#X obj 89 144 throw~ \$0-out_right;
#X connect 0 0 3 0;
#X connect 0 1 4 0;
#X connect 1 0 0 1;
#X connect 2 0 0 0;
#X restore 943 216 pd v2pan;
#X obj 266 -77 bng 15 250 50 0 \$0-input-test-s \$0-input-test-r empty
17 7 0 10 -36021 -1 -1;
#X text 289 -78 test delay;
#X text 466 -78 test viola 1;
#X text 586 -78 test viola 2;
#X text 711 -78 test viola 3;
#N canvas 23 264 736 239 delay 0;
#X obj 24 3 *~;
#X obj 56 20 lop~ 3000;
#X obj 55 -14 line~;
#X msg 55 -39 \$1 20;
#X obj 25 74 r~ \$0-input;
#X obj 24 -88 catch~ \$0-feedback;
#X obj 55 -64 r \$0-feedback_vol;
#X obj 223 -87 r \$0-signal-delay;
#X obj 223 -34 s \$0-signal-click-start;
#X obj 465 -3 r \$0-key-delay;
#X obj 406 -85 r \$0-osc-delay;
#X obj 509 -85 r \$0-delay-tgl-s;
#X obj 406 -54 s \$0-signal-delay;
#X obj 407 -24 r \$0-signal-delay;
#X obj 407 18 s \$0-delay-tgl-r;
#X msg 407 -3 set \$1;
#X obj 125 120 delwrite~ \$0-delay-buffer 16000;
#X obj 542 -45 tgl 15 0 empty empty empty 17 7 0 10 -262144 -1 -1 0
1;
#X obj 140 62 line~;
#X obj 125 91 *~;
#X msg 140 30 \$1 20;
#X connect 0 0 1 0;
#X connect 1 0 19 0;
#X connect 2 0 0 1;
#X connect 3 0 2 0;
#X connect 4 0 19 0;
#X connect 5 0 0 0;
#X connect 6 0 3 0;
#X connect 7 0 8 0;
#X connect 7 0 20 0;
#X connect 9 0 14 0;
#X connect 10 0 12 0;
#X connect 11 0 12 0;
#X connect 11 0 17 0;
#X connect 13 0 15 0;
#X connect 15 0 14 0;
#X connect 18 0 19 1;
#X connect 19 0 16 0;
#X connect 20 0 18 0;
#X restore 943 276 pd delay;
#X obj 863 -236 tgl 30 0 \$0-delay-tgl-s \$0-delay-tgl-r Delay[d] 40
13 0 22 -204800 -4160 -1 0 1;
#N canvas 287 90 803 622 init 0;
#X obj 124 150 expr 1000 * 60 / $f1;
#X obj -23 96 loadbang;
#X obj -114 97 bng 15 250 50 0 empty empty init 19 7 0 13 -262144 -1
-258113;
#X obj 184 25 loadbang;
#X obj 184 54 import moonlib;
#X obj 289 54 import zexy;
#X obj 377 53 import sp-pd;
#X obj 124 118 r \$0-load_tempo;
#X obj 124 179 s \$0-tempo_q4;
#X obj 341 180 s \$0-viola1-tgl-r;
#X obj 326 207 s \$0-viola2-tgl-r;
#X obj 311 234 s \$0-viola3-tgl-r;
#X obj 281 284 s \$0-input-tgl-r;
#X obj -65 360 sel 0 1 2 3;
#X obj -65 213 t f b;
#X obj -38 234 f \$0;
#X text -3 233 General settings;
#X obj -65 385 f \$0;
#X obj -30 385 f \$0;
#X obj 5 385 f \$0;
#X obj -65 147 f 0;
#X obj -65 63 r \$0-settings-s;
#X msg 235 442 \; \$1-click-vol-r 0.5 \; \$1-set_v1_vol 0.5 \; \$1-set_v2_vol
0.6 \; \$1-set_v3_vol 0.6 \; \$1-set_fb_vol 0.4 \; \$1-viola1-pan-r
0 \; \$1-viola2-pan-r -20 \; \$1-viola3-pan-r 20 \; \$1-click-output-s
2 \; pd dsp 1;
#X msg -65 442 \; \$1-click-vol-r 0.2 \; \$1-set_v1_vol 0.5 \; \$1-set_v2_vol
0.6 \; \$1-set_v3_vol 0.6 \; \$1-set_fb_vol 0.4 \; \$1-viola1-pan-r
0 \; \$1-viola2-pan-r -20 \; \$1-viola3-pan-r 20 \; \$1-click-output-s
0 \; pd dsp 1;
#X obj 281 86 r \$0-signal-start;
#X obj 356 155 s \$0-signal-delay;
#X obj 281 110 t f f f f f f;
#X obj 494 100 s \$0-signal-start;
#X obj 494 28 r \$0-tgl-start-s;
#X obj 495 126 r \$0-signal-start;
#X msg 495 152 set \$1;
#X obj 495 179 s \$0-tgl-start-r;
#X obj 494 54 r \$0-key-start;
#X obj 494 77 r \$0-osc-start;
#X obj -114 37 r \$0-signal-init;
#X obj 495 250 r \$0-osc-init;
#X obj 495 274 s \$0-signal-init;
#X obj 296 259 s \$0-signal-click-start;
#X msg -38 255 \; \$1-latency 15 \; \$1-load_tempo 144 \; \$1-vol 0.9
\;;
#X obj 383 383 s \$0-settings-r;
#X obj 383 333 loadbang;
#X msg 383 359 1;
#X msg 85 442 \; \$1-click-vol-r 0.4 \; \$1-set_v1_vol 0.5 \; \$1-set_v2_vol
0.7 \; \$1-set_v3_vol 0.7 \; \$1-set_fb_vol 0.4 \; \$1-viola1-pan-r
0 \; \$1-viola2-pan-r -20 \; \$1-viola3-pan-r 20 \; \$1-click-output-s
1 \; \$1-click-pan -0.5 \; pd dsp 1;
#X connect 0 0 8 0;
#X connect 1 0 20 0;
#X connect 2 0 20 0;
#X connect 3 0 4 0;
#X connect 3 0 5 0;
#X connect 3 0 6 0;
#X connect 7 0 0 0;
#X connect 13 0 17 0;
#X connect 13 1 18 0;
#X connect 13 2 19 0;
#X connect 14 0 13 0;
#X connect 14 1 15 0;
#X connect 15 0 38 0;
#X connect 17 0 23 0;
#X connect 18 0 42 0;
#X connect 19 0 22 0;
#X connect 20 0 14 0;
#X connect 21 0 20 0;
#X connect 24 0 26 0;
#X connect 26 0 12 0;
#X connect 26 1 37 0;
#X connect 26 2 11 0;
#X connect 26 3 10 0;
#X connect 26 4 9 0;
#X connect 26 5 25 0;
#X connect 28 0 27 0;
#X connect 29 0 30 0;
#X connect 30 0 31 0;
#X connect 32 0 27 0;
#X connect 33 0 27 0;
#X connect 34 0 2 0;
#X connect 35 0 36 0;
#X connect 40 0 41 0;
#X connect 41 0 39 0;
#X restore 943 -24 pd init;
#X obj 16 -167 tgl 30 0 \$0-tgl-start-s \$0-tgl-start-r Start[s] 35
14 0 20 -204786 -13381 -1 1 1;
#N canvas 290 340 519 260 output 0;
#X obj 424 22 loadbang;
#X obj 48 114 sp-monitor~;
#X obj 48 82 r~ \$0-metro;
#X obj 296 22 r \$0-click-output-s;
#X msg 296 48 channel \$1;
#X obj 191 25 r \$0-click-pan;
#X msg 191 50 pan \$1;
#X msg 424 50 volume 0.3;
#X connect 0 0 7 0;
#X connect 2 0 1 0;
#X connect 2 0 1 1;
#X connect 3 0 4 0;
#X connect 4 0 1 2;
#X connect 5 0 6 0;
#X connect 6 0 1 2;
#X connect 7 0 1 2;
#X restore 764 211 pd output;
#X text 372 -48 Panning:;
#X text 858 -195 Delay and click are connected;
#X obj 243 242 r \$0-vol;
#X obj 17 -44 vradio 30 1 0 3 \$0-settings-s \$0-settings-r Settings:
0 -15 0 18 -262144 -1 -1 0;
#X obj 89 105 catch~ \$0-out_right;
#X obj 38 84 catch~ \$0-out_left;
#X obj 59 -44 comment 100 18 Verdana s 0 0 0 0 home;
#X obj 15 -257 comment 200 25 Verdana ? 0 0 0 0 [SPIRAL];
#X obj 59 -14 comment 200 18 Verdana ? 0 0 0 0 concert;
#N canvas 145 225 607 323 click-vol 0;
#X obj 31 92 sp-autovolume;
#X obj 31 36 sel 1;
#X msg 31 58 start;
#X msg 72 58 reset;
#X obj 183 16 loadbang;
#X obj 31 287 s \$0-click-vol-r;
#X obj 31 16 r \$0-signal-click-start;
#X msg 183 41 duration 1000 \, init 0.5;
#X msg 118 37 save 1.txt;
#X connect 0 0 5 0;
#X connect 1 0 2 0;
#X connect 1 1 3 0;
#X connect 2 0 0 0;
#X connect 3 0 0 0;
#X connect 4 0 7 0;
#X connect 6 0 1 0;
#X connect 7 0 0 0;
#X connect 8 0 0 0;
#X restore 944 308 pd click-vol;
#N canvas 228 241 546 417 keys 0;
#X obj 24 27 sp-key m;
#X obj 165 31 sp-key d;
#X obj 165 58 s \$0-key-delay;
#X obj 284 30 sp-key s;
#X obj 284 56 tgl 15 0 empty empty empty 17 7 0 10 -262144 -1 -1 1
1;
#X obj 284 79 s \$0-key-start;
#X obj 24 59 s \$0-key-click;
#X obj 24 117 sp-key !;
#X obj 24 142 s \$0-key-test-viola1;
#X obj 170 115 sp-key @;
#X obj 170 141 s \$0-key-test-viola2;
#X obj 310 115 sp-key #;
#X obj 310 141 s \$0-key-test-viola3;
#X obj 24 193 sp-gfoot-switch;
#X obj 24 335 s \$0-key-delay;
#X obj 24 264 sel 1;
#X msg 24 292 bang;
#X connect 0 0 6 0;
#X connect 1 0 2 0;
#X connect 3 0 4 0;
#X connect 4 0 5 0;
#X connect 7 0 8 0;
#X connect 9 0 10 0;
#X connect 11 0 12 0;
#X connect 13 0 15 0;
#X connect 15 0 16 0;
#X connect 16 0 14 0;
#X restore 764 185 pd keys;
#X obj 141 235 r \$0-signal-init;
#N canvas 206 307 456 380 video 0;
#X obj 31 292 spiral-video;
#X obj 48 26 r \$0-signal-start;
#X obj 31 178 sel 1;
#X msg 58 208 stop \, close;
#X msg 31 235 create \, start;
#X obj 173 26 r \$0-video-select-s;
#X obj 31 144 mux . . .;
#X connect 1 0 6 1;
#X connect 2 0 4 0;
#X connect 2 1 3 0;
#X connect 3 0 0 0;
#X connect 4 0 0 0;
#X connect 5 0 6 3;
#X connect 6 0 2 0;
#X restore 764 238 pd video;
#X msg 141 258 volume 1;
#X msg 243 268 volume \$1;
#X obj 38 159 sp-glimiter~;
#X obj 766 292 vradio 30 1 0 3 video-select-s video-select-r Video:
0 -16 0 18 -262144 -1 -1 0;
#X obj 811 290 comment 100 18 Verdana s 0 0 0 0 none;
#X obj 812 322 comment 100 18 Verdana s 0 0 0 0 disp. port;
#X obj 812 352 comment 100 18 Verdana s 0 0 0 0 monitor;
#X connect 45 0 57 0;
#X connect 47 0 58 1;
#X connect 48 0 58 0;
#X connect 54 0 56 0;
#X connect 56 0 10 2;
#X connect 57 0 10 2;
#X connect 58 0 10 0;
#X connect 58 1 10 1;
#X coords 0 0 1 1 85 60 0;
