#N canvas 359 98 596 532 10;
#X declare -lib GEM;
#X obj 418 88 import GEM;
#X obj 418 64 loadbang;
#X obj 33 42 inlet;
#X msg 157 100 0 \, destroy;
#X obj 413 248 gemhead;
#X obj 413 280 pix_film;
#X msg 477 248 open Spiral.m4v;
#X obj 413 308 pix_texture;
#X obj 348 133 clip 0 100000;
#X floatatom 369 104 5 0 0 0 - - -;
#X obj 348 42 inlet;
#X obj 413 340 rectangle 4 3;
#X obj 115 112 tgl 15 0 empty empty empty 17 7 0 10 -262144 -1 -1 0
1;
#X obj 115 153 sel 1;
#X obj 74 208 t b b;
#X msg 123 234 0;
#X obj 33 456 r \$0-gemwin;
#X obj 33 485 gemwin;
#X obj 33 407 s \$0-gemwin;
#X obj 157 123 s \$0-gemwin;
#X obj 33 72 route create start pause close stop;
#X msg 74 234 auto 1;
#X obj 198 151 t b b;
#X msg 198 200 auto 0;
#X msg 249 200 0;
#X msg 115 175 auto 0;
#X msg 164 175 auto 1;
#X obj 146 18 gemkeyboard;
#X obj 146 42 sel 53;
#X msg 33 380 0 \, destroy \, reset \, fullscreen 2 \, create \, 1
;
#X connect 1 0 0 0;
#X connect 1 0 6 0;
#X connect 2 0 20 0;
#X connect 3 0 19 0;
#X connect 4 0 5 0;
#X connect 5 0 7 0;
#X connect 6 0 5 0;
#X connect 7 0 11 0;
#X connect 8 0 5 1;
#X connect 9 0 8 0;
#X connect 10 0 8 0;
#X connect 12 0 13 0;
#X connect 13 0 25 0;
#X connect 13 1 26 0;
#X connect 14 0 21 0;
#X connect 14 1 15 0;
#X connect 15 0 5 1;
#X connect 16 0 17 0;
#X connect 20 0 29 0;
#X connect 20 1 14 0;
#X connect 20 2 12 0;
#X connect 20 3 3 0;
#X connect 20 4 22 0;
#X connect 21 0 5 0;
#X connect 22 0 23 0;
#X connect 22 1 24 0;
#X connect 23 0 5 0;
#X connect 24 0 5 1;
#X connect 25 0 5 0;
#X connect 26 0 5 0;
#X connect 27 0 28 0;
#X connect 28 0 3 0;
#X connect 29 0 18 0;
