#N canvas 517 152 658 418 10;
#X declare -lib GEM;
#X obj 105 215 spiral-video;
#X msg 89 134 create;
#X msg 195 134 close;
#X msg 143 134 start;
#X msg 246 133 stop;
#X msg 292 132 pause;
#X obj 85 72 sp-key s;
#X obj 85 98 t b b;
#X obj 195 79 sp-gemkey x;
#X obj 292 93 sp-gemkey p;
#X connect 1 0 0 0;
#X connect 2 0 0 0;
#X connect 3 0 0 0;
#X connect 4 0 0 0;
#X connect 5 0 0 0;
#X connect 6 0 7 0;
#X connect 7 0 3 0;
#X connect 7 1 1 0;
#X connect 8 0 2 0;
#X connect 9 0 5 0;
