#N canvas 0 22 1036 596 10;
#X declare -lib moonlib;
#X declare -lib zexy;
#X declare -lib sp-pd;
#X obj 335 -113 tgl 15 0 click-start-tgl-s click-start-tgl-r M 30 7
0 14 -261681 -1 -258699 0 1;
#X obj 445 -243 vsl 15 120 0.05 2 1 0 v1_vol set_v1_vol Viola1 0 -9
0 10 -204786 -1 -1 7428 1;
#X obj 474 -243 vu 15 120 viola1-ind-r empty -1 -8 0 10 -66577 -1 1
0;
#X obj 564 -243 vsl 15 120 0.02 2 1 0 v2_vol set_v2_vol Viola2 0 -9
0 10 -204786 -1 -1 8789 1;
#X obj 594 -243 vu 15 120 viola2-ind-r empty -1 -8 0 10 -66577 -1 1
0;
#X obj 688 -243 vsl 15 120 0.02 2 1 0 v3_vol set_v3_vol Viola3 0 -9
0 10 -204786 -1 -1 8789 1;
#X obj 717 -243 vu 15 120 viola3-ind-r empty -1 -8 0 10 -66577 -1 1
0;
#X obj 786 -243 vsl 15 120 0 0.7 0 0 feedback_vol set_fb_vol Feedback
0 -9 0 10 -204800 -1 -1 6800 1;
#X obj 208 89 catch~ out_left;
#X obj 259 55 catch~ out_right;
#X obj 212 192 tgl 15 0 empty empty mic 19 7 0 13 -261234 -1 -258113
0 1;
#X text 229 209 KEY: "V";
#X obj 208 125 +dsp;
#N canvas 523 22 614 462 osc 0;
#X obj 44 39 sp-osc 8000;
#X obj 44 375 s init;
#X obj 44 266 bng 15 250 50 0 empty empty empty 17 7 0 10 -262144 -1
-1;
#X msg 87 263 \; pd dsp \$1;
#X obj 131 309 str to_float;
#X obj 131 332 / 100;
#X obj 131 375 s vol;
#X msg 175 274 1;
#X obj 175 375 s control;
#X msg 219 273 0;
#X obj 263 375 s delay;
#X obj 307 255 str to_float;
#X obj 307 288 / 100;
#X obj 44 216 routeOSC /btn_init /dsp /volume /btn_start /btn_stop
/delay /feedback /click;
#X obj 469 375 s click_start;
#X obj 317 375 s set_fb_vol;
#X obj 469 319 sp-key m;
#X obj 276 322 sp-key d;
#X connect 0 0 13 0;
#X connect 2 0 1 0;
#X connect 4 0 5 0;
#X connect 5 0 6 0;
#X connect 7 0 8 0;
#X connect 7 0 14 0;
#X connect 9 0 8 0;
#X connect 9 0 14 0;
#X connect 11 0 12 0;
#X connect 12 0 15 0;
#X connect 13 0 2 0;
#X connect 13 1 3 0;
#X connect 13 2 4 0;
#X connect 13 3 7 0;
#X connect 13 4 9 0;
#X connect 13 5 10 0;
#X connect 13 6 11 0;
#X connect 13 7 14 0;
#X connect 16 0 14 0;
#X connect 17 0 10 0;
#X restore 943 -4 pd osc;
#X obj 347 98 r vol;
#X msg 311 98 1;
#X obj 311 75 r init;
#N canvas 578 248 458 292 click 0;
#X obj 39 97 sp-metro 144;
#X obj 39 178 *~;
#X obj 39 209 s~ metro;
#X msg 131 134 \$1 20;
#X obj 131 161 line~;
#X obj 108 43 r load_tempo;
#X obj 117 195 pvu~;
#X obj 117 223 s \$0-click-vu;
#X obj 39 13 r click_start;
#X obj 131 87 r click-vol-s;
#X obj 134 13 r click-start-tgl-s;
#X obj 254 117 s click-start-tgl-r;
#X msg 254 90 bang;
#X obj 131 110 clip 0 2;
#X connect 0 0 1 0;
#X connect 1 0 2 0;
#X connect 1 0 6 0;
#X connect 3 0 4 0;
#X connect 4 0 1 1;
#X connect 5 0 0 1;
#X connect 6 0 7 0;
#X connect 8 0 0 0;
#X connect 8 0 12 0;
#X connect 9 0 13 0;
#X connect 10 0 0 0;
#X connect 12 0 11 0;
#X connect 13 0 3 0;
#X restore 943 26 pd click;
#X obj 335 -243 vsl 15 120 0.02 2 1 0 click-vol-s click-vol-r Click
0 -9 0 10 -261682 -1 -1 5950 1;
#X obj 364 -243 vu 15 120 \$0-click-vu empty -1 -8 0 10 -66577 -1 1
0;
#N canvas 566 125 299 233 input 0;
#X obj 70 40 adc~ 1;
#X obj 70 76 *~ 2;
#X obj 70 111 *~;
#X obj 122 94 line~;
#X obj 122 45 tgl 15 0 empty empty empty 17 7 0 10 -262144 -1 -1 0
1;
#X msg 122 70 \$1 20;
#X obj 122 18 sp-key v;
#X obj 142 178 pvu~;
#X obj 142 203 s input-vu;
#X obj 70 204 s~ input;
#X obj 203 98 s input-tgl-r;
#X msg 203 72 set \$1;
#X obj 203 19 r input-tgl-s;
#X obj 15 18 r input-test-s;
#X obj 15 111 *~ 0.5;
#X obj 70 144 +~ 0;
#X obj 15 41 sp-beep~;
#X connect 0 0 1 0;
#X connect 1 0 2 0;
#X connect 1 0 7 0;
#X connect 2 0 15 0;
#X connect 3 0 2 1;
#X connect 4 0 5 0;
#X connect 4 0 11 0;
#X connect 5 0 3 0;
#X connect 6 0 4 0;
#X connect 7 0 8 0;
#X connect 11 0 10 0;
#X connect 12 0 4 0;
#X connect 13 0 16 0;
#X connect 14 0 15 0;
#X connect 15 0 9 0;
#X connect 16 0 14 0;
#X restore 943 56 pd input;
#X obj 268 -243 vu 15 120 input-vu Input -1 -8 0 10 -66577 -1 1 0;
#X obj 266 -113 tgl 15 0 input-tgl-s input-tgl-r V 25 7 0 14 -262144
-1 -4160 0 1;
#N canvas 373 119 524 268 viola1 0;
#X obj 25 61 r~ input;
#X obj 25 102 *~;
#X obj 99 16 sp-key 1;
#X msg 99 61 \$1 20;
#X obj 99 85 line~;
#X obj 25 161 *~;
#X obj 99 40 tgl 15 0 empty empty empty 17 7 0 10 -262144 -1 -1 0 1
;
#X msg 159 59 set \$1;
#X obj 167 16 r viola1-tgl-s;
#X obj 159 86 s viola1-tgl-r;
#X obj 100 178 pvu~;
#X obj 25 223 s~ viola1;
#X obj 100 222 s viola1-ind-r;
#X obj 101 144 line~;
#X msg 101 120 \$1 20;
#X obj 265 69 r v1_vol;
#X obj 447 57 mtof;
#X obj 447 13 loadbang;
#X obj 342 14 r viola1-test-s;
#X msg 447 34 84;
#X obj 47 200 throw~ feedback;
#X obj 265 103 clip 0 2;
#X obj 342 74 sp-beep~;
#X connect 0 0 1 0;
#X connect 1 0 5 0;
#X connect 2 0 6 0;
#X connect 3 0 4 0;
#X connect 4 0 1 1;
#X connect 5 0 10 0;
#X connect 5 0 11 0;
#X connect 5 0 20 0;
#X connect 6 0 3 0;
#X connect 6 0 7 0;
#X connect 7 0 9 0;
#X connect 8 0 6 0;
#X connect 10 0 12 0;
#X connect 13 0 5 1;
#X connect 14 0 13 0;
#X connect 15 0 21 0;
#X connect 16 0 22 1;
#X connect 17 0 19 0;
#X connect 18 0 22 0;
#X connect 19 0 16 0;
#X connect 21 0 14 0;
#X connect 22 0 5 0;
#X restore 943 86 pd viola1;
#X obj 445 -113 tgl 15 0 viola1-tgl-s viola1-tgl-r 1 25 7 0 14 -262144
-1 -4160 0 1;
#X obj 445 -87 bng 15 250 50 0 viola1-test-s viola1-test-r empty 17
7 0 10 -262144 -1 -1;
#N canvas 135 394 579 300 viola2 0;
#X obj 44 164 *~;
#X obj 44 102 sig~;
#X obj 167 25 r latency;
#X obj 44 54 expr ($f1 * 16) - $f2;
#X floatatom 61 80 7 0 0 0 - - -;
#X obj 160 147 line~;
#X msg 160 122 \$1 20;
#X obj 160 98 tgl 15 0 empty empty empty 17 7 0 10 -262144 -1 -1 0
1;
#X obj 44 199 *~;
#X obj 113 216 pvu~;
#X obj 166 216 throw~ feedback;
#X obj 44 240 s~ viola2;
#X obj 160 75 sp-key 2;
#X obj 160 182 line~;
#X msg 221 165 \$1 20;
#X obj 221 88 r v2_vol;
#X obj 302 214 s viola2-tgl-r;
#X msg 302 189 set \$1;
#X obj 245 25 r viola2-tgl-r;
#X obj 473 77 mtof;
#X obj 473 33 loadbang;
#X msg 473 54 89;
#X obj 344 25 r viola2-test-s;
#X obj 113 241 s viola2-ind-r;
#X obj 44 132 vd~ delay_buffer;
#X obj 44 25 r tempo_q4;
#X obj 221 124 clip 0 2;
#X obj 344 135 sp-beep~;
#X connect 0 0 8 0;
#X connect 1 0 24 0;
#X connect 2 0 3 1;
#X connect 3 0 1 0;
#X connect 3 0 4 0;
#X connect 5 0 0 1;
#X connect 6 0 5 0;
#X connect 7 0 6 0;
#X connect 7 0 17 0;
#X connect 8 0 9 0;
#X connect 8 0 10 0;
#X connect 8 0 11 0;
#X connect 9 0 23 0;
#X connect 12 0 7 0;
#X connect 13 0 8 1;
#X connect 14 0 13 0;
#X connect 15 0 26 0;
#X connect 17 0 16 0;
#X connect 18 0 7 0;
#X connect 19 0 27 1;
#X connect 20 0 21 0;
#X connect 21 0 19 0;
#X connect 22 0 27 0;
#X connect 24 0 0 0;
#X connect 25 0 3 0;
#X connect 26 0 14 0;
#X connect 27 0 8 0;
#X restore 943 116 pd viola2;
#X obj 564 -113 tgl 15 0 viola2-tgl-s viola2-tgl-r 2 25 7 0 14 -262144
-1 -4160 0 1;
#X obj 564 -87 bng 15 250 50 0 viola2-test-s viola2-test-s empty 17
7 0 10 -262144 -1 -1;
#X obj 688 -113 tgl 15 0 viola3-tgl-s viola3-tgl-r 3 25 7 0 14 -262144
-1 -4160 0 1;
#X obj 688 -87 bng 15 250 50 0 viola3-test-s viola3-test-r empty 17
7 0 10 -262144 -1 -1;
#N canvas 380 287 579 300 viola3 0;
#X obj 44 164 *~;
#X obj 44 102 sig~;
#X obj 167 25 r latency;
#X floatatom 61 80 7 0 0 0 - - -;
#X obj 160 147 line~;
#X msg 160 122 \$1 20;
#X obj 160 98 tgl 15 0 empty empty empty 17 7 0 10 -262144 -1 -1 0
1;
#X obj 44 199 *~;
#X obj 113 216 pvu~;
#X obj 166 216 throw~ feedback;
#X obj 160 182 line~;
#X msg 221 165 \$1 20;
#X msg 302 189 set \$1;
#X obj 456 69 mtof;
#X obj 456 25 loadbang;
#X obj 44 132 vd~ delay_buffer;
#X obj 245 25 r viola3-tgl-r;
#X obj 352 25 r viola3-test-s;
#X obj 302 214 s viola3-tgl-r;
#X obj 113 241 s viola3-ind-r;
#X obj 160 75 sp-key 3;
#X obj 221 88 r v3_vol;
#X obj 44 240 s~ viola3;
#X obj 44 54 expr ($f1 * 32) - $f2;
#X msg 456 46 93;
#X obj 44 25 r tempo_q4;
#X obj 221 124 clip 0 2;
#X obj 352 104 sp-beep~;
#X connect 0 0 7 0;
#X connect 1 0 15 0;
#X connect 2 0 23 1;
#X connect 4 0 0 1;
#X connect 5 0 4 0;
#X connect 6 0 5 0;
#X connect 6 0 12 0;
#X connect 7 0 8 0;
#X connect 7 0 9 0;
#X connect 7 0 22 0;
#X connect 8 0 19 0;
#X connect 10 0 7 1;
#X connect 11 0 10 0;
#X connect 12 0 18 0;
#X connect 13 0 27 1;
#X connect 14 0 24 0;
#X connect 15 0 0 0;
#X connect 16 0 6 0;
#X connect 17 0 27 0;
#X connect 20 0 6 0;
#X connect 21 0 26 0;
#X connect 23 0 1 0;
#X connect 23 0 3 0;
#X connect 24 0 13 0;
#X connect 25 0 23 0;
#X connect 26 0 11 0;
#X connect 27 0 7 0;
#X restore 943 146 pd viola3;
#N canvas 209 413 216 204 v1pan 0;
#X obj 40 83 throw~ out_left;
#X obj 73 106 throw~ out_right;
#X obj 40 -37 r~ viola1;
#X obj 73 -61 r viola1-pan-r;
#X obj 40 14 sp-pan~;
#X connect 2 0 4 0;
#X connect 3 0 4 1;
#X connect 4 0 0 0;
#X connect 4 1 1 0;
#X coords 0 204 1 203 40 40 0;
#X restore 943 176 pd v1pan;
#X obj 441 -64 mknob 25 100 -45 45 0 0 viola1-pan-s viola1-pan-r empty
-2 -6 0 8 -262144 -1 -1 4950 1;
#X obj 561 -64 mknob 25 100 -45 45 0 0 viola2-pan-s viola2-pan-r empty
-2 -6 0 8 -262144 -1 -1 2750 1;
#X obj 684 -64 mknob 25 100 -45 45 0 0 viola3-pan-s viola3-pan-r empty
-2 -6 0 8 -262144 -1 -1 7150 1;
#N canvas 714 307 254 209 v3pan 0;
#X obj 56 121 throw~ out_left;
#X obj 89 145 throw~ out_right;
#X obj 56 61 r~ viola3;
#X obj 89 37 r viola3-pan-s;
#X obj 56 88 sp-pan~;
#X connect 2 0 4 0;
#X connect 3 0 4 1;
#X connect 4 0 0 0;
#X connect 4 1 1 0;
#X restore 943 236 pd v3pan;
#N canvas 714 307 254 209 v2pan 0;
#X obj 56 121 throw~ out_left;
#X obj 89 144 throw~ out_right;
#X obj 89 37 r viola2-pan-s;
#X obj 56 61 r~ viola2;
#X obj 56 82 sp-pan~;
#X connect 2 0 4 1;
#X connect 3 0 4 0;
#X connect 4 0 0 0;
#X connect 4 1 1 0;
#X restore 943 206 pd v2pan;
#X obj 266 -87 bng 15 250 50 0 input-test-s input-test-r empty 17 7
0 10 -36021 -1 -1;
#X text 289 -88 test delay;
#X text 466 -88 test viola 1;
#X text 586 -88 test viola 2;
#X text 711 -88 test viola 3;
#N canvas 431 284 387 283 delay 0;
#X obj 151 -29 tgl 15 0 empty empty empty 17 7 0 10 -204786 -1 -1 1
1;
#X obj 125 71 *~;
#X obj 151 32 line~;
#X msg 151 9 \$1 20;
#X obj 24 -17 *~;
#X obj 56 0 lop~ 3000;
#X obj 125 100 delwrite~ delay_buffer 16000;
#X obj 55 -84 r feedback_vol;
#X obj 24 -108 catch~ feedback;
#X obj 151 -100 r def_st;
#X text 175 -27 KEY: "D";
#X obj 172 -67 r delay;
#X obj 25 54 r~ input;
#X obj 55 -34 line~;
#X msg 55 -59 \$1 20;
#X msg 239 -5 set \$1;
#X obj 239 23 s delay-tgl-r;
#X obj 236 -67 r delay-tgl-s;
#X connect 0 0 3 0;
#X connect 0 0 15 0;
#X connect 1 0 6 0;
#X connect 2 0 1 1;
#X connect 3 0 2 0;
#X connect 4 0 5 0;
#X connect 5 0 1 0;
#X connect 7 0 14 0;
#X connect 8 0 4 0;
#X connect 9 0 0 0;
#X connect 11 0 0 0;
#X connect 12 0 1 0;
#X connect 13 0 4 1;
#X connect 14 0 13 0;
#X connect 15 0 16 0;
#X connect 17 0 0 0;
#X restore 943 266 pd delay;
#X obj 863 -246 tgl 30 0 delay-tgl-s delay-tgl-r Delay[d] 40 13 0 22
-204800 -4160 -1 1 1;
#N canvas 121 265 585 439 init 0;
#X obj 4 137 expr 1000 * 60 / $f1;
#X obj 4 166 s tempo_q4;
#X obj 4 105 r load_tempo;
#X obj -142 55 loadbang;
#X obj -67 57 bng 15 250 50 0 empty empty init 19 7 0 13 -262144 -1
-258113;
#X obj -67 25 r init;
#X msg -142 95 \; def_st 1 \; latency 20 \; load_tempo 135 \; click-vol-r
0.2 \; set_v1_vol 0.5 \; set_v2_vol 0.6 \; set_v3_vol 0.6 \; set_fb_vol
0.4 \; viola1-pan-r 0 \; viola2-pan-r -20 \; viola3-pan-r 20 \; pd
dsp 1;
#X obj 0 26 r btn-init-s;
#X obj 95 25 loadbang;
#X obj 95 54 import moonlib;
#X obj 209 54 import zexy;
#X obj 201 86 r control;
#X obj 259 280 s viola1-tgl-r;
#X obj 267 86 sp-key s;
#X obj 267 111 tgl 15 0 empty empty empty 17 7 0 10 -262144 -1 -1 0
1;
#X obj 244 307 s viola2-tgl-r;
#X obj 230 334 s viola3-tgl-r;
#X obj 215 359 s click-start-tgl-r;
#X obj 201 384 s input-tgl-r;
#X obj 273 257 s tgl-start-r;
#X msg 273 234 set \$1;
#X obj 329 86 r tgl-start-s;
#X obj 201 150 t f f f f f f f;
#X obj 288 197 s delay-tgl-r;
#X obj 297 53 import sp-pd;
#X connect 0 0 1 0;
#X connect 2 0 0 0;
#X connect 3 0 6 0;
#X connect 4 0 6 0;
#X connect 5 0 4 0;
#X connect 7 0 4 0;
#X connect 8 0 9 0;
#X connect 8 0 10 0;
#X connect 8 0 24 0;
#X connect 11 0 22 0;
#X connect 13 0 14 0;
#X connect 14 0 22 0;
#X connect 20 0 19 0;
#X connect 21 0 14 0;
#X connect 22 0 18 0;
#X connect 22 1 17 0;
#X connect 22 2 16 0;
#X connect 22 3 15 0;
#X connect 22 4 12 0;
#X connect 22 5 20 0;
#X connect 22 6 23 0;
#X restore 943 -34 pd init;
#X obj 16 -244 bng 30 250 50 0 btn-init-s btn-init-r Init 35 14 0 20
-260097 -1 -1;
#X obj 16 -187 tgl 30 0 tgl-start-s tgl-start-r Start[s] 35 14 0 20
-204786 -13381 -1 0 1;
#X obj 17 -69 vradio 30 1 0 2 click-output-s click-output-r Click:
0 -10 0 15 -262144 -1 -1 0;
#X obj 60 -68 comment 100 20 Home ? 0 0 0 0 concert home;
#N canvas 567 294 399 270 output 0;
#X obj 48 92 r~ metro;
#X obj 191 32 r click-output-s;
#X obj 191 58 sel 0 1;
#X msg 191 84 channel 2;
#X msg 267 83 channel 0;
#X obj 299 32 loadbang;
#X msg 299 60 volume 1;
#X obj 48 124 sp-monitor~;
#X connect 0 0 7 0;
#X connect 0 0 7 1;
#X connect 1 0 2 0;
#X connect 2 0 3 0;
#X connect 2 1 4 0;
#X connect 3 0 7 2;
#X connect 4 0 7 2;
#X connect 5 0 6 0;
#X connect 6 0 7 2;
#X restore 640 206 pd output;
#X text 372 -58 Panning:;
#X connect 8 0 12 0;
#X connect 9 0 12 1;
#X connect 14 0 12 2;
#X connect 15 0 12 2;
#X connect 16 0 15 0;
#X coords 0 0 1 1 85 60 0;
