#N canvas 0 22 976 639 10;
#X declare -lib moonlib;
#X declare -lib zexy;
#X declare -lib sp-pd;
#X declare -lib ggee;
#X declare -lib ggee;
#X text 39 459 KEY: "V";
#X obj 18 375 +dsp;
#N canvas 448 224 249 205 click 0;
#X obj 36 47 sp-metro 144;
#X obj 105 -7 r \$0-load_tempo;
#X obj 36 105 s~ \$0-click-level-in;
#X obj 36 -24 loadbang;
#X connect 0 0 2 0;
#X connect 1 0 0 1;
#X connect 3 0 0 0;
#X restore 783 306 pd click;
#N canvas 227 179 267 217 viola2 0;
#X obj 44 102 sig~;
#X obj 44 54 expr ($f1 * 16) - $f2;
#X floatatom 61 80 7 0 0 0 - - -;
#X obj 44 25 r \$0-tempo_q4;
#X obj 167 25 r \$0-latency;
#X obj 44 132 vd~ \$0-delay-buffer;
#X obj 44 171 s~ \$0-v2-level-in;
#X connect 0 0 5 0;
#X connect 1 0 0 0;
#X connect 1 0 2 0;
#X connect 3 0 1 0;
#X connect 4 0 1 1;
#X connect 5 0 6 0;
#X restore 783 396 pd viola2;
#N canvas 339 132 267 201 viola3 0;
#X obj 44 102 sig~;
#X floatatom 61 80 7 0 0 0 - - -;
#X obj 44 54 expr ($f1 * 32) - $f2;
#X obj 44 25 r \$0-tempo_q4;
#X obj 167 25 r \$0-latency;
#X obj 44 132 vd~ \$0-delay-buffer;
#X obj 44 162 s~ \$0-v3-level-in;
#X connect 0 0 5 0;
#X connect 2 0 0 0;
#X connect 2 0 1 0;
#X connect 3 0 2 0;
#X connect 4 0 2 1;
#X connect 5 0 6 0;
#X restore 783 426 pd viola3;
#N canvas 66 222 831 463 delay 0;
#X obj 224 -44 r \$0-signal-delay;
#X obj 542 177 r \$0-key-delay;
#X obj 606 -55 r \$0-delay-tgl-s;
#X obj 606 6 s \$0-signal-delay;
#X obj 421 222 s \$0-delay-tgl-r;
#X obj 125 170 delwrite~ \$0-delay-buffer 16000;
#X obj 125 105 sp-hub~;
#X obj 125 74 r~ \$0-v1-level-in;
#X obj 421 80 sp-gfoot-switch;
#X obj 421 152 sel 1;
#X msg 224 31 \; sp-mix8 7 mute \$1;
#X obj 224 -1 != 1;
#X text 238 -25 Invert value. When delay is on click should not be
muted.;
#X obj 34 38 r~ \$0-fb-level-out;
#X obj 542 151 r \$0-signal-delay;
#X obj 606 -26 change;
#X connect 0 0 6 1;
#X connect 0 0 11 0;
#X connect 1 0 4 0;
#X connect 2 0 15 0;
#X connect 6 0 5 0;
#X connect 7 0 6 0;
#X connect 8 0 9 0;
#X connect 9 0 4 0;
#X connect 11 0 10 0;
#X connect 13 0 5 0;
#X connect 14 0 4 0;
#X connect 15 0 3 0;
#X restore 783 456 pd delay;
#X obj 773 24 tgl 30 0 \$0-delay-tgl-s \$0-delay-tgl-r Delay[d] 40
13 0 22 -204800 -4160 -1 0 1;
#N canvas 130 75 950 649 init 0;
#X obj 154 150 expr 1000 * 60 / $f1;
#X obj 7 96 loadbang;
#X obj -84 97 bng 15 250 50 0 empty empty init 19 7 0 13 -262144 -1
-258113;
#X obj 214 25 loadbang;
#X obj 214 54 import moonlib;
#X obj 319 54 import zexy;
#X obj 407 53 import sp-pd;
#X obj 154 118 r \$0-load_tempo;
#X obj 154 179 s \$0-tempo_q4;
#X obj 371 180 s \$0-viola1-tgl-r;
#X obj 356 207 s \$0-viola2-tgl-r;
#X obj 341 234 s \$0-viola3-tgl-r;
#X obj 311 284 s \$0-input-tgl-r;
#X obj -35 360 sel 0 1 2 3;
#X obj -35 213 t f b;
#X obj -8 234 f \$0;
#X text 27 233 General settings;
#X obj -35 385 f \$0;
#X obj 0 385 f \$0;
#X obj 35 385 f \$0;
#X obj -35 147 f 0;
#X obj -35 63 r \$0-settings-s;
#X obj 311 86 r \$0-signal-start;
#X obj 386 155 s \$0-signal-delay;
#X obj 311 110 t f f f f f f;
#X obj 524 100 s \$0-signal-start;
#X obj 504 28 r \$0-tgl-start-s;
#X obj 525 126 r \$0-signal-start;
#X msg 525 152 set \$1;
#X obj 525 179 s \$0-tgl-start-r;
#X obj 524 54 r \$0-key-start;
#X obj 534 77 r \$0-osc-start;
#X obj -84 37 r \$0-signal-init;
#X obj 326 259 s \$0-signal-click-start;
#X obj 413 383 s \$0-settings-r;
#X obj 413 333 loadbang;
#X msg 413 359 1;
#X msg 205 284 record start;
#X obj 228 313 s \$0-bus;
#X msg 265 442 \; \$1-click-output-s 2 \; pd dsp 1;
#X msg -35 442 \; \$1-click-output-s 0 \; pd dsp 1;
#X obj 458 453 r \$0-signal-start;
#X msg 458 557 \; sp-mix8 7 mute \$1;
#X obj 458 514 != 0;
#X obj 205 238 sel 1;
#X msg 244 261 record stop;
#X obj 526 381 s sp-param;
#X msg 526 356 restore 0;
#X msg -8 255 \; \$1-latency 20 \; \$1-load_tempo 144 \; \$1-bus limiter
threshold 96 \;;
#X msg 115 442 \; \$1-click-output-s 2 \; \$1-click-pan 0.5 \; pd dsp
1;
#X connect 0 0 8 0;
#X connect 1 0 20 0;
#X connect 2 0 20 0;
#X connect 3 0 4 0;
#X connect 3 0 5 0;
#X connect 3 0 6 0;
#X connect 7 0 0 0;
#X connect 13 0 17 0;
#X connect 13 1 18 0;
#X connect 13 2 19 0;
#X connect 14 0 13 0;
#X connect 14 1 15 0;
#X connect 15 0 48 0;
#X connect 17 0 40 0;
#X connect 18 0 49 0;
#X connect 19 0 39 0;
#X connect 20 0 14 0;
#X connect 21 0 20 0;
#X connect 22 0 24 0;
#X connect 24 0 12 0;
#X connect 24 0 44 0;
#X connect 24 1 33 0;
#X connect 24 2 11 0;
#X connect 24 3 10 0;
#X connect 24 4 9 0;
#X connect 24 5 23 0;
#X connect 26 0 25 0;
#X connect 27 0 28 0;
#X connect 28 0 29 0;
#X connect 30 0 25 0;
#X connect 31 0 25 0;
#X connect 32 0 2 0;
#X connect 35 0 36 0;
#X connect 35 0 47 0;
#X connect 36 0 34 0;
#X connect 37 0 38 0;
#X connect 41 0 43 0;
#X connect 43 0 42 0;
#X connect 44 0 37 0;
#X connect 44 1 45 0;
#X connect 45 0 38 0;
#X connect 47 0 46 0;
#X restore 783 276 pd init;
#X obj 19 153 tgl 30 0 \$0-tgl-start-s \$0-tgl-start-r Start[s] 35
14 0 20 -204786 -13381 -1 0 1;
#X text 768 65 Delay and click are connected;
#X obj 20 236 vradio 30 1 0 3 \$0-settings-s \$0-settings-r Settings:
0 -15 0 18 -262144 -1 -1 1;
#X obj 62 236 comment 100 18 Verdana s 0 0 0 0 home;
#X obj 62 266 comment 200 18 Verdana ? 0 0 0 0 concert;
#N canvas 111 85 381 325 click-vol 0;
#X obj 80 63 env~ 262144;
#X obj 80 96 expr ($f1 + $f2) / 2;
#X floatatom 80 133 5 0 0 0 - - -;
#X obj 197 64 env~ 262144;
#X obj 123 149 dbtorms;
#X floatatom 123 175 9 0 0 0 - - -;
#X obj 123 198 * 30;
#X obj 80 37 r~ \$0-dsp-out-l;
#X obj 197 38 r~ \$0-dsp-out-r;
#X msg 123 254 mix8 7 volume \$1;
#X obj 123 294 s \$0-bus;
#X obj 123 222 + 0.15;
#X floatatom 196 225 5 0 0 0 - - -;
#X connect 0 0 1 0;
#X connect 1 0 2 0;
#X connect 2 0 4 0;
#X connect 3 0 1 1;
#X connect 4 0 5 0;
#X connect 5 0 6 0;
#X connect 6 0 11 0;
#X connect 7 0 0 0;
#X connect 8 0 3 0;
#X connect 9 0 10 0;
#X connect 11 0 9 0;
#X connect 11 0 12 0;
#X restore 783 486 pd click-vol;
#N canvas 228 241 450 300 keys 0;
#X obj 165 31 sp-key d;
#X obj 165 58 s \$0-key-delay;
#X obj 284 30 sp-key s;
#X obj 284 56 tgl 15 0 empty empty empty 17 7 0 10 -262144 -1 -1 0
1;
#X obj 284 79 s \$0-key-start;
#X obj 24 117 sp-key !;
#X obj 24 142 s \$0-key-test-viola1;
#X obj 170 115 sp-key @;
#X obj 170 141 s \$0-key-test-viola2;
#X obj 310 115 sp-key #;
#X obj 310 141 s \$0-key-test-viola3;
#X connect 0 0 1 0;
#X connect 2 0 3 0;
#X connect 3 0 4 0;
#X connect 5 0 6 0;
#X connect 7 0 8 0;
#X connect 9 0 10 0;
#X restore 783 516 pd keys;
#X obj 451 26 cnv 15 200 180 empty empty empty 20 12 0 14 -233017 -66577
0;
#X obj 461 33 comment 180 12 helvetica ? 0 0 0 0 1 Check MIDI devices:
footswitch to MBox Pro Controllo and foot expression via MidiMan \;
2 Check mixer settings for click \; 3 Check click volume and foot expression
\; 4 Check DSP \; 5 Check foot switch and delay works \; 6 Press s
\; 7 Play;
#N canvas 58 22 1033 735 cloud 0;
#X obj 58 686 throw~ \$0-out_left;
#X obj 243 686 throw~ \$0-out_right;
#X obj 514 631 line~;
#X obj 243 658 *~;
#X obj 58 658 *~;
#X obj 514 49 tgl 15 0 empty empty empty 17 7 0 10 -262144 -1 -1 0
1;
#X obj 597 32 r \$0-delay-tgl-r;
#X obj 474 74 == 0;
#X obj 514 534 sel 0;
#X obj 474 104 sel 1;
#X obj 554 219 del 10000;
#X obj 554 191 bang;
#X obj 514 578 f 10000;
#X obj 585 551 bang;
#X msg 585 606 0 \$1;
#X msg 647 524 0;
#X obj 647 489 loadbang;
#X obj 466 554 bng 15 250 50 0 empty empty empty 17 7 0 10 -262144
-1 -1;
#X obj 585 577 f 15000;
#X obj 605 192 init 10000;
#X obj 58 364 sp-gmoog~ moog1;
#X obj 262 365 sp-gmoog~ moog2;
#X obj 733 276 loadbang;
#X msg 733 301 \; sp-moog1 freq 0.2 \; sp-moog2 freq 0.3 \; sp-moog2
q 2.2 \; sp-moog2 low 260 \; sp-moog2 high 10000;
#X obj 58 146 sp-gfreeverb~ cloud-reverb;
#X obj 250 22 r \$0-signal-init;
#X msg 250 49 \; sp-cloud-reverb freeze 0;
#X msg 474 129 \; sp-cloud-reverb freeze 1;
#X msg 554 247 \; sp-cloud-reverb freeze 0;
#X msg 514 606 0.7 \$1;
#X obj 699 84 r \$0-save-param;
#X obj 849 84 r \$0-restore-param;
#X msg 849 114 \; sp-moog1 restore \; sp-moog2 restore \; sp-cloud-reverb
restore \;;
#X msg 699 114 \; sp-moog1 save \; sp-moog2 save \; sp-cloud-reverb
save \;;
#X obj 58 92 r~ \$0-v1-pan-in;
#X obj 154 62 r~ \$0-v2-pan-in;
#X connect 2 0 3 1;
#X connect 2 0 4 1;
#X connect 3 0 1 0;
#X connect 4 0 0 0;
#X connect 5 0 7 0;
#X connect 5 0 8 0;
#X connect 6 0 5 0;
#X connect 7 0 9 0;
#X connect 8 0 12 0;
#X connect 8 1 13 0;
#X connect 9 0 27 0;
#X connect 9 1 11 0;
#X connect 10 0 28 0;
#X connect 11 0 10 0;
#X connect 12 0 29 0;
#X connect 13 0 18 0;
#X connect 14 0 2 0;
#X connect 15 0 2 0;
#X connect 16 0 15 0;
#X connect 17 0 12 0;
#X connect 18 0 14 0;
#X connect 19 0 10 1;
#X connect 20 0 4 0;
#X connect 21 0 3 0;
#X connect 22 0 23 0;
#X connect 24 0 20 0;
#X connect 24 1 21 0;
#X connect 25 0 26 0;
#X connect 29 0 2 0;
#X connect 30 0 33 0;
#X connect 31 0 32 0;
#X connect 34 0 24 0;
#X connect 35 0 24 1;
#X restore 783 576 pd cloud;
#X obj 19 107 bng 32 250 50 0 \$0-signal-init \$0-signal-init-r Init
36 15 0 20 -260097 -1 -1;
#X obj 21 65 sp-gcpu;
#X obj 18 501 sp-grecord~ spiral.mozh.wav;
#X obj 268 380 sp-gmix8~ mix8;
#N canvas 44 198 1057 476 level-in 0;
#X obj 60 425 outlet~;
#X obj 116 425 outlet~;
#X obj 170 425 outlet~;
#X obj 226 425 outlet~;
#X obj 280 425 outlet~;
#X obj 336 425 outlet~;
#X obj 390 425 outlet~;
#X obj 446 425 outlet~;
#X obj 506 425 outlet;
#X obj 458 20 sp-key 1;
#X obj 568 20 sp-key 2;
#X obj 458 80 sp-key 3;
#X obj 569 149 loadbang;
#X obj 170 358 r~ \$0-v2-level-in;
#X msg 568 47 mix8 2 mute bang;
#X msg 458 47 mix8 1 mute bang;
#X obj 226 323 r~ \$0-v3-level-in;
#X obj 116 388 r~ \$0-v1-level-in;
#X msg 569 170 mix8 0 label IN \, mix8 0 volume 1 \, mix8 1 label V1
\, mix8 2 label V2 \, mix8 3 label V3 \, mix8 4 label . \, mix8 5 label
. \, mix8 6 label FB \, mix8 7 label CLK \, mix8 0 color -313 0 \,
mix8 4 color 11 11 \, mix8 5 color 11 11 \, mix8 6 color 18 0 \, mix8
7 color 14 22;
#X obj 447 151 sp-key v;
#X msg 447 177 mix8 0 mute bang;
#X obj 602 90 sp-key m;
#X msg 602 113 mix8 7 mute bang;
#X obj 60 321 adc~ 1;
#X obj 60 349 hip~ 100;
#X obj 591 332 r~ \$0-click-level-in;
#X obj 556 381 r \$0-bus;
#X msg 458 107 mix8 3 mute bang;
#N canvas 546 178 470 404 beep 0;
#X obj 65 93 *~ 0.5;
#X obj 65 71 sp-beep~;
#X obj 65 48 r \$0-input-test-s;
#X obj 193 142 mtof;
#X obj 148 169 sp-beep~;
#X obj 193 117 init 84;
#X obj 148 192 *~ 0.5;
#X obj 148 95 r \$0-viola1-test-s;
#X obj 275 163 mtof;
#X obj 230 220 sp-beep~;
#X obj 275 139 init 89;
#X obj 230 251 *~ 0.5;
#X obj 382 208 mtof;
#X obj 328 225 sp-beep~;
#X obj 328 146 r \$0-viola3-test-s;
#X obj 328 255 *~ 0.5;
#X obj 382 177 init 93;
#X obj 65 313 outlet~;
#X obj 148 315 outlet~;
#X obj 230 312 outlet~;
#X obj 328 309 outlet~;
#X obj 230 191 r \$0-viola2-test-s;
#X connect 0 0 17 0;
#X connect 1 0 0 0;
#X connect 2 0 1 0;
#X connect 3 0 4 1;
#X connect 4 0 6 0;
#X connect 5 0 3 0;
#X connect 6 0 18 0;
#X connect 7 0 4 0;
#X connect 8 0 9 1;
#X connect 9 0 11 0;
#X connect 10 0 8 0;
#X connect 11 0 19 0;
#X connect 12 0 13 1;
#X connect 13 0 15 0;
#X connect 14 0 13 0;
#X connect 15 0 20 0;
#X connect 16 0 12 0;
#X connect 21 0 9 0;
#X restore 134 185 pd beep;
#X obj 735 15 r \$0-signal-init;
#X obj 390 369 r~ \$0-fb-level-in;
#X msg 735 43 mix8 0 mute 0 \, mix8 1 mute 0 \, mix8 2 mute 0 \, mix8
3 mute 0 \, mix8 6 mute 0 \, mix8 7 mute 1;
#X connect 9 0 15 0;
#X connect 10 0 14 0;
#X connect 11 0 27 0;
#X connect 12 0 18 0;
#X connect 13 0 2 0;
#X connect 14 0 8 0;
#X connect 15 0 8 0;
#X connect 16 0 3 0;
#X connect 17 0 1 0;
#X connect 18 0 8 0;
#X connect 19 0 20 0;
#X connect 20 0 8 0;
#X connect 21 0 22 0;
#X connect 22 0 8 0;
#X connect 23 0 24 0;
#X connect 24 0 0 0;
#X connect 25 0 7 0;
#X connect 26 0 8 0;
#X connect 27 0 8 0;
#X connect 28 0 0 0;
#X connect 28 1 1 0;
#X connect 28 2 2 0;
#X connect 28 3 3 0;
#X connect 29 0 31 0;
#X connect 30 0 6 0;
#X connect 31 0 8 0;
#X coords 0 -1 1 1 272 20 1 10 10;
#X restore 268 353 pd level-in;
#N canvas 28 132 534 286 level-out 0;
#X obj 17 76 inlet~;
#X obj 67 76 inlet~;
#X obj 117 76 inlet~;
#X obj 167 76 inlet~;
#X obj 217 76 inlet~;
#X obj 267 76 inlet~;
#X obj 317 76 inlet~;
#X obj 367 76 inlet~;
#X obj 419 76 inlet;
#X obj 17 151 s~ \$0-v1-level-in;
#X obj 67 188 s~ \$0-v1-level-out;
#X obj 117 217 s~ \$0-v2-level-out;
#X obj 167 247 s~ \$0-v3-level-out;
#X obj 367 137 s~ \$0-click-level-out;
#X obj 317 184 lop~ 3000;
#X obj 317 206 lop~ 3000;
#X obj 197 116 s~ \$0-fb-level-in;
#X obj 317 228 s~ \$0-fb-level-out;
#X connect 0 0 9 0;
#X connect 1 0 10 0;
#X connect 2 0 11 0;
#X connect 3 0 12 0;
#X connect 3 0 16 0;
#X connect 6 0 14 0;
#X connect 7 0 13 0;
#X connect 14 0 15 0;
#X connect 15 0 17 0;
#X coords 0 -1 1 1 272 20 1 10 10;
#X restore 268 577 pd level-out;
#N canvas 334 309 450 300 click-volume 0;
#X obj 34 93 inlet~;
#X obj 122 93 inlet~;
#X obj 205 93 inlet;
#X obj 34 203 outlet~;
#X obj 122 202 outlet~;
#X obj 205 203 outlet;
#X obj 53 145 s~ \$0-dsp-out-l;
#X obj 163 145 s~ \$0-dsp-out-r;
#X connect 0 0 3 0;
#X connect 0 0 6 0;
#X connect 1 0 4 0;
#X connect 1 0 7 0;
#X connect 2 0 5 0;
#X coords 0 -1 1 1 200 20 1 10 10;
#X restore 18 478 pd click-volume;
#X obj 587 354 cnv 15 150 120 empty empty test 10 12 0 10 -233017 -66577
0;
#X obj 598 383 bng 15 250 50 0 \$0-input-test-s \$0-input-test-r empty
17 7 0 10 -36021 -1 -1;
#X text 621 382 test delay;
#X obj 598 406 bng 15 250 50 0 \$0-viola1-test-s \$0-viola1-test-r
empty 17 7 0 10 -262144 -1 -1;
#X text 619 405 test viola 1;
#X obj 598 429 bng 15 250 50 0 \$0-viola2-test-s \$0-viola2-test-s
empty 17 7 0 10 -262144 -1 -1;
#X text 620 428 test viola 2;
#X obj 598 452 bng 15 250 50 0 \$0-viola3-test-s \$0-viola3-test-r
empty 17 7 0 10 -262144 -1 -1;
#X text 621 451 test viola 3;
#N canvas 305 270 460 435 output 0;
#X obj 33 81 catch~ \$0-out_left;
#X obj 183 81 catch~ \$0-out_right;
#X obj 335 81 r \$0-bus;
#X obj 33 271 outlet~;
#X obj 183 271 outlet~;
#X obj 280 273 outlet;
#X obj 28 169 sp-glimiter~;
#X connect 0 0 6 0;
#X connect 1 0 6 1;
#X connect 2 0 6 2;
#X connect 6 0 3 0;
#X connect 6 1 4 0;
#X connect 6 2 5 0;
#X coords 0 -1 1 1 200 20 1 10 10;
#X restore 18 352 pd output;
#N canvas 290 340 586 330 monitor 0;
#X obj 454 62 loadbang;
#X obj 78 154 sp-monitor~;
#X obj 326 62 r \$0-click-output-s;
#X msg 326 88 channel \$1;
#X obj 221 65 r \$0-click-pan;
#X msg 221 90 pan \$1;
#X msg 327 137 volume \$1;
#X obj 78 110 r~ \$0-click-level-out;
#X obj 52 27 r~ \$0-dsp-out-l;
#X obj 163 27 r~ \$0-dsp-out-r;
#X obj 163 61 *~ 0.9;
#X obj 52 61 *~ 0.9;
#X msg 454 91 0.3;
#X connect 0 0 12 0;
#X connect 2 0 3 0;
#X connect 3 0 1 2;
#X connect 4 0 5 0;
#X connect 5 0 1 2;
#X connect 6 0 1 2;
#X connect 7 0 1 0;
#X connect 8 0 11 0;
#X connect 9 0 10 0;
#X connect 10 0 1 1;
#X connect 11 0 1 0;
#X connect 12 0 6 0;
#X restore 783 546 pd monitor;
#N canvas 171 305 586 179 effects 0;
#X obj 22 19 r~ \$0-v1-level-out;
#X obj 22 134 s~ \$0-v1-pan-in;
#X obj 157 19 r~ \$0-v2-level-out;
#X obj 157 133 s~ \$0-v2-pan-in;
#X obj 287 19 r~ \$0-v3-level-out;
#X obj 287 133 s~ \$0-v3-pan-in;
#X obj 178 63 lop~ 200;
#X obj 178 83 lop~ 200;
#X connect 0 0 1 0;
#X connect 2 0 3 0;
#X connect 2 0 6 0;
#X connect 4 0 5 0;
#X connect 6 0 7 0;
#X connect 7 0 3 0;
#X restore 783 336 pd effects;
#N canvas 143 372 625 291 pan 0;
#X obj 33 24 r~ \$0-v1-pan-in;
#X obj 33 93 sp-gpan~ pan-v1;
#X obj 126 62 r \$0-bus;
#X obj 33 231 throw~ \$0-out_left;
#X obj 233 231 throw~ \$0-out_right;
#X obj 326 62 r \$0-bus;
#X obj 233 24 r~ \$0-v2-pan-in;
#X obj 233 93 sp-gpan~ pan-v2;
#X obj 506 62 r \$0-bus;
#X obj 413 93 sp-gpan~ pan-v3;
#X obj 413 24 r~ \$0-v3-pan-in;
#X connect 0 0 1 0;
#X connect 1 0 3 0;
#X connect 1 1 4 0;
#X connect 2 0 1 1;
#X connect 5 0 7 1;
#X connect 6 0 7 0;
#X connect 7 0 3 0;
#X connect 7 1 4 0;
#X connect 8 0 9 1;
#X connect 9 0 3 0;
#X connect 9 1 4 0;
#X connect 10 0 9 0;
#X restore 783 366 pd pan;
#X obj 587 502 sp-gparam;
#X obj 20 25 sp-title R.Davidson: Spiral [no video];
#X connect 1 0 24 0;
#X connect 1 1 24 1;
#X connect 1 2 24 2;
#X connect 21 0 23 0;
#X connect 21 1 23 1;
#X connect 21 2 23 2;
#X connect 21 3 23 3;
#X connect 21 4 23 4;
#X connect 21 5 23 5;
#X connect 21 6 23 6;
#X connect 21 7 23 7;
#X connect 21 8 23 8;
#X connect 22 0 21 0;
#X connect 22 1 21 1;
#X connect 22 2 21 2;
#X connect 22 3 21 3;
#X connect 22 4 21 4;
#X connect 22 5 21 5;
#X connect 22 6 21 6;
#X connect 22 7 21 7;
#X connect 22 8 21 8;
#X connect 24 0 20 0;
#X connect 24 1 20 1;
#X connect 24 2 20 2;
#X connect 34 0 1 0;
#X connect 34 1 1 1;
#X connect 34 2 1 2;
#X coords 0 0 1 1 85 60 0;
