#N canvas 77 130 948 523 10;
#X obj 670 395 +dsp;
#X obj 20 246 sp-osc 8000;
#N canvas 0 22 450 278 (subpatch) 0;
#X array tatata 1.41097e+07 float 2;
#X coords 0 1 1.41097e+07 -1 900 100 1 0 0;
#X restore 20 31 graph;
#X obj 481 151 loadbang;
#X obj 20 31 hsl 900 100 0 44100 0 0 empty play_ind empty -2 -8 0 10
-262144 -4160 -1 0 1;
#X obj 481 209 bng 48 200 50 0 \$0-tempo-s empty empty 17 7 0 10 -262144
-261234 -1;
#X obj 481 180 metro 405;
#N canvas 342 165 375 220 osc 0;
#X msg 29 85 \; pd dsp \$1;
#X obj 210 79 str to_float;
#X obj 210 103 / 100;
#X obj 150 182 s stop;
#X obj 89 149 s play;
#X obj 210 128 s vol;
#X obj 100 127 sp-key p;
#X obj 183 156 sp-key s;
#X obj 29 52 routeOSC /dsp /btn_play /btn_stop /volume /btn_init;
#X obj 271 105 s init;
#X obj 29 17 inlet;
#X obj 248 156 sp-key Space;
#X connect 1 0 2 0;
#X connect 2 0 5 0;
#X connect 6 0 4 0;
#X connect 7 0 3 0;
#X connect 8 0 0 0;
#X connect 8 1 4 0;
#X connect 8 2 3 0;
#X connect 8 3 1 0;
#X connect 8 4 9 0;
#X connect 10 0 8 0;
#X connect 11 0 3 0;
#X restore 20 378 pd osc;
#X obj 18 150 cnv 15 100 60 empty empty empty 20 12 0 14 -233017 -66577
0;
#X text 27 171 Play: p;
#X text 26 155 Init: i;
#X text 27 186 Stop: s \, Space;
#X obj 21 416 table tatata-r;
#N canvas 539 158 475 378 loadfile 0;
#X obj 124 82 soundfiler;
#X obj 109 152 f;
#X obj 109 182 expr 44100 / $f1;
#X obj 109 212 phasor~;
#X obj 109 272 * 44100;
#X floatatom 109 302 10 0 0 0 - - -;
#X obj 109 331 s play_ind;
#X obj 37 162 r stop;
#X msg 37 188 0;
#X obj 82 104 r play;
#X obj 82 137 bng 15 250 50 0 empty empty empty 17 7 0 10 -262144 -1
-1;
#X obj 124 21 r init;
#X obj 109 242 unsig~ 20;
#X msg 124 50 read -resize tatata.wav tatata tatata-r;
#X connect 0 0 1 1;
#X connect 1 0 2 0;
#X connect 2 0 3 0;
#X connect 3 0 12 0;
#X connect 4 0 5 0;
#X connect 5 0 6 0;
#X connect 7 0 8 0;
#X connect 8 0 3 0;
#X connect 8 0 5 0;
#X connect 8 0 3 1;
#X connect 9 0 10 0;
#X connect 10 0 1 0;
#X connect 11 0 13 0;
#X connect 12 0 4 0;
#X connect 13 0 0 0;
#X restore 20 456 pd loadfile;
#N canvas 157 132 340 280 input 0;
#X obj 52 223 outlet~;
#X obj 181 224 outlet~;
#X obj 52 170 tabplay~ tatata;
#X obj 181 171 tabplay~ tatata-r;
#X obj 181 91 r stop;
#X msg 181 130 stop;
#X msg 52 130 0;
#X obj 52 93 r play;
#X connect 2 0 0 0;
#X connect 3 0 1 0;
#X connect 4 0 5 0;
#X connect 5 0 3 0;
#X connect 5 0 2 0;
#X connect 6 0 2 0;
#X connect 6 0 3 0;
#X connect 7 0 6 0;
#X restore 670 350 pd input;
#X obj 210 175 bng 48 250 50 0 init init-r init 0 -16 0 20 -260097
-1 -1;
#X obj 863 365 r \$0-bus;
#N canvas 273 315 157 176 init 0;
#X obj 44 112 s \$0-bus;
#X obj 44 63 r init;
#X msg 44 87 volume 0.6;
#X connect 1 0 2 0;
#X connect 2 0 0 0;
#X restore 20 485 pd init;
#X obj 280 175 bng 48 250 50 0 play play-r play 0 -16 0 22 -4034 -1
-1;
#X obj 350 175 bng 48 250 50 0 stop stop-r stop 0 -16 0 22 -99865 -1
-1;
#X connect 1 0 7 0;
#X connect 3 0 6 0;
#X connect 6 0 5 0;
#X connect 14 0 0 0;
#X connect 14 1 0 1;
#X connect 16 0 0 2;
