#N canvas 45 22 957 704 10;
#X obj 674 531 +dsp;
#N canvas 0 22 450 278 (subpatch) 0;
#X array \$0-left 1.41097e+07 float 2;
#X coords 0 1 1.41097e+07 -1 900 100 1 0 0;
#X restore 20 111 graph;
#X obj 481 231 loadbang;
#X obj 20 111 hsl 900 100 0 44100 0 0 empty play_ind empty -2 -8 0
10 -262144 -4160 -1 0 1;
#X obj 481 289 bng 48 203 51 0 \$0-tempo-s empty empty 17 7 0 10 -262144
-261234 -1;
#X obj 481 260 metro 405;
#X obj 18 230 cnv 15 100 40 empty empty empty 20 12 0 14 -233017 -66577
0;
#X text 26 233 Play: p;
#X text 26 248 Stop: s \, Space;
#N canvas 539 158 483 416 loadfile 0;
#X obj 124 102 soundfiler;
#X obj 109 172 f;
#X obj 109 202 expr 44100 / $f1;
#X obj 109 232 phasor~;
#X obj 109 292 * 44100;
#X floatatom 109 322 10 0 0 0 - - -;
#X obj 109 351 s play_ind;
#X obj 37 182 r stop;
#X msg 37 208 0;
#X obj 82 124 r play;
#X obj 82 157 bng 15 250 50 0 empty empty empty 17 7 0 10 -262144 -1
-1;
#X obj 124 21 r init;
#X obj 109 262 unsig~ 20;
#X obj 124 45 f \$0;
#X msg 124 70 read -resize tatata.wav \$1-left \$1-right;
#X obj 334 156 r play;
#X msg 334 187 1;
#X obj 397 155 r stop;
#X msg 397 187 0;
#X obj 334 234 s sp-timer;
#X connect 0 0 1 1;
#X connect 1 0 2 0;
#X connect 2 0 3 0;
#X connect 3 0 12 0;
#X connect 4 0 5 0;
#X connect 5 0 6 0;
#X connect 7 0 8 0;
#X connect 8 0 3 0;
#X connect 8 0 5 0;
#X connect 8 0 3 1;
#X connect 9 0 10 0;
#X connect 10 0 1 0;
#X connect 11 0 13 0;
#X connect 12 0 4 0;
#X connect 13 0 14 0;
#X connect 14 0 0 0;
#X connect 15 0 16 0;
#X connect 16 0 19 0;
#X connect 17 0 18 0;
#X connect 18 0 19 0;
#X restore 826 365 pd loadfile;
#X obj 210 255 bng 48 250 50 0 init init-r init 0 -16 0 20 -260097
-1 -1;
#X obj 867 501 r \$0-bus;
#N canvas 171 185 450 223 init 0;
#X obj 36 43 loadbang;
#X obj 36 71 del 500;
#X msg 36 98 Jacob ter Veldhuis: Tatatata;
#X obj 36 177 s \$0-title-r;
#X obj 36 125 l2s;
#X msg 36 151 label \$1;
#X obj 264 70 r init;
#X obj 264 134 s \$0-bus;
#X msg 264 103 restore \, volume 0.6;
#X connect 0 0 1 0;
#X connect 1 0 2 0;
#X connect 2 0 4 0;
#X connect 4 0 5 0;
#X connect 5 0 3 0;
#X connect 6 0 8 0;
#X connect 8 0 7 0;
#X restore 826 335 pd init;
#X obj 280 255 bng 48 250 50 0 play play-r play 0 -16 0 22 -4034 -1
-1;
#X obj 350 255 bng 48 250 50 0 stop stop-r stop 0 -16 0 22 -99865 -1
-1;
#X obj 17 403 sp-gtuner~ 415;
#N canvas 293 165 298 159 control 0;
#X obj 20 26 sp-osc 8000;
#N canvas 342 165 375 220 osc 0;
#X msg 29 85 \; pd dsp \$1;
#X obj 210 79 str to_float;
#X obj 210 103 / 100;
#X obj 150 182 s stop;
#X obj 89 149 s play;
#X obj 210 128 s vol;
#X obj 100 127 sp-key p;
#X obj 183 156 sp-key s;
#X obj 29 52 routeOSC /dsp /btn_play /btn_stop /volume /btn_init;
#X obj 271 105 s init;
#X obj 29 17 inlet;
#X obj 248 156 sp-key Space;
#X connect 1 0 2 0;
#X connect 2 0 5 0;
#X connect 6 0 4 0;
#X connect 7 0 3 0;
#X connect 8 0 0 0;
#X connect 8 1 4 0;
#X connect 8 2 3 0;
#X connect 8 3 1 0;
#X connect 8 4 9 0;
#X connect 10 0 8 0;
#X connect 11 0 3 0;
#X restore 20 121 pd osc;
#X obj 213 28 r \$0-save-s;
#X msg 213 56 save;
#X obj 213 86 s \$0-bus;
#X connect 0 0 1 0;
#X connect 2 0 3 0;
#X connect 3 0 4 0;
#X restore 826 395 pd control;
#X obj 17 386 r~ \$0-viola-in;
#X obj 17 278 cnv 15 140 100 empty empty empty 20 12 0 14 -233017 -66577
0;
#X obj 24 281 comment 130 12 Verdana ? 0 0 0 0 Legend \; 1 check DSP
\; 2 tune viola 415hz \; 3 init patch \; 4 play \; 5 tune to 440hz
\;;
#X obj 826 305 table \$0-right;
#X obj 856 238 sp-gcpu;
#X obj 19 30 cnv 15 100 60 empty \$0-title-r Jacob ter Veldhuis: Tatatata
20 12 0 14 -233017 -66577 0;
#X obj 826 421 bng 15 250 50 0 \$0-save-s \$0-save-r save 19 7 0 10
-262144 -1 -1;
#X obj 140 67 sp-gtimer timer;
#X obj 137 526 sp-gfoot-switch;
#N canvas 503 386 450 300 incvol 0;
#X obj 50 49 sel 1;
#X obj 50 235 s \$0-bus;
#X obj 50 15 inlet;
#X msg 50 205 vol+ 0.07;
#X connect 0 0 3 0;
#X connect 2 0 0 0;
#X connect 3 0 1 0;
#X restore 137 586 pd incvol;
#X obj 674 304 sp-gmix4~ mix4;
#N canvas 81 181 856 310 input 0;
#X obj 44 239 outlet~;
#X obj 341 239 outlet;
#X obj 44 36 adc~ 1;
#X msg 341 73 mix4 0 label vla \, mix4 1 label left \, mix4 2 label
righ \, mix4 3 label ... \, mix4 3 color 20 \, mix4 3 volume 0 \, mix4
0 mute 0 \, mix4 1 mute 0 \, mix4 2 mute 0 \, mix4 0 volume 0.3;
#X obj 341 40 loadbang;
#X obj 112 239 outlet~;
#X obj 251 239 outlet~;
#X obj 251 71 r stop;
#X msg 251 110 stop;
#X msg 112 110 0;
#X obj 112 73 r play;
#X obj 205 177 s stop;
#X obj 251 151 tabplay~ \$0-right;
#X obj 112 150 tabplay~ \$0-left;
#X obj 13 109 s~ \$0-viola-in;
#X connect 2 0 0 0;
#X connect 2 0 14 0;
#X connect 3 0 1 0;
#X connect 4 0 3 0;
#X connect 7 0 8 0;
#X connect 8 0 12 0;
#X connect 8 0 13 0;
#X connect 9 0 12 0;
#X connect 9 0 13 0;
#X connect 10 0 9 0;
#X connect 12 0 6 0;
#X connect 13 0 5 0;
#X connect 13 1 11 0;
#X restore 674 283 pd input ............;
#N canvas 157 132 551 315 output 0;
#X obj 46 180 sp-gpan~;
#X obj 46 77 inlet~;
#X obj 136 77 inlet~;
#X obj 214 77 inlet~;
#X obj 89 273 outlet~;
#X obj 185 271 outlet~;
#X obj 139 128 loadbang;
#X msg 139 154 pan pan -15;
#X connect 0 0 4 0;
#X connect 0 1 5 0;
#X connect 1 0 0 0;
#X connect 2 0 4 0;
#X connect 3 0 5 0;
#X connect 6 0 7 0;
#X connect 7 0 0 1;
#X restore 674 502 pd output ......;
#X connect 2 0 5 0;
#X connect 5 0 4 0;
#X connect 11 0 0 2;
#X connect 17 0 15 0;
#X connect 25 0 26 0;
#X connect 27 0 29 0;
#X connect 27 1 29 1;
#X connect 27 2 29 2;
#X connect 28 0 27 0;
#X connect 28 1 27 1;
#X connect 28 2 27 2;
#X connect 28 3 27 4;
#X connect 29 0 0 0;
#X connect 29 1 0 1;
