#N canvas 34 22 948 753 10;
#X declare -path ..;
#X declare -lib zexy;
#X obj 674 460 +dsp;
#N canvas 0 22 450 278 (subpatch) 0;
#X array \$0-left 1.41097e+07 float 2;
#X coords 0 1 1.41097e+07 -1 900 100 1 0 0;
#X restore 20 101 graph;
#X obj 481 221 loadbang;
#X obj 20 101 hsl 900 100 0 44100 0 0 empty play_ind empty -2 -8 0
10 -262144 -4160 -1 0 1;
#X obj 481 279 bng 48 203 51 0 \$0-tempo-s empty empty 17 7 0 10 -262144
-261234 -1;
#X obj 481 250 metro 405;
#X obj 18 220 cnv 15 100 40 empty empty empty 20 12 0 14 -233017 -66577
0;
#X text 26 223 Play: p;
#X text 26 238 Stop: s \, Space;
#N canvas 539 158 483 416 loadfile 0;
#X obj 124 102 soundfiler;
#X obj 109 172 f;
#X obj 109 202 expr 44100 / $f1;
#X obj 109 232 phasor~;
#X obj 109 292 * 44100;
#X floatatom 109 322 10 0 0 0 - - -;
#X obj 109 351 s play_ind;
#X obj 37 182 r stop;
#X msg 37 208 0;
#X obj 82 124 r play;
#X obj 82 157 bng 15 250 50 0 empty empty empty 17 7 0 10 -262144 -1
-1;
#X obj 124 21 r init;
#X obj 109 262 unsig~ 20;
#X obj 124 45 f \$0;
#X msg 124 70 read -resize tatata.wav \$1-left \$1-right;
#X obj 334 156 r play;
#X msg 334 187 1;
#X obj 397 155 r stop;
#X msg 397 187 0;
#X obj 334 234 s sp-timer;
#X connect 0 0 1 1;
#X connect 1 0 2 0;
#X connect 2 0 3 0;
#X connect 3 0 12 0;
#X connect 4 0 5 0;
#X connect 5 0 6 0;
#X connect 7 0 8 0;
#X connect 8 0 3 0;
#X connect 8 0 5 0;
#X connect 8 0 3 1;
#X connect 9 0 10 0;
#X connect 10 0 1 0;
#X connect 11 0 13 0;
#X connect 12 0 4 0;
#X connect 13 0 14 0;
#X connect 14 0 0 0;
#X connect 15 0 16 0;
#X connect 16 0 19 0;
#X connect 17 0 18 0;
#X connect 18 0 19 0;
#X restore 826 355 pd loadfile;
#X obj 210 245 bng 48 250 50 0 init init-r init 0 -16 0 20 -260097
-1 -1;
#X obj 280 245 bng 48 250 50 0 play play-r play 0 -16 0 22 -4034 -1
-1;
#X obj 350 245 bng 48 250 50 0 stop stop-r stop 0 -16 0 22 -99865 -1
-1;
#X obj 17 393 sp-gtuner~ 415;
#X obj 17 376 r~ \$0-viola-in;
#X obj 17 268 cnv 15 140 100 empty empty empty 20 12 0 14 -233017 -66577
0;
#X obj 24 271 comment 130 12 Verdana ? 0 0 0 0 Legend \; 1 check DSP
\; 2 tune viola 415hz \; 3 init patch \; 4 play \; 5 tune to 440hz
\;;
#X obj 826 295 table \$0-right;
#X obj 856 228 sp-gcpu;
#X obj 21 58 sp-gtimer timer;
#X obj 674 247 sp-gmix4~ mix4;
#N canvas 223 137 972 595 input 0;
#X obj 44 239 outlet~;
#X obj 431 40 loadbang;
#X obj 112 239 outlet~;
#X obj 251 38 r stop;
#X msg 251 110 stop;
#X msg 112 110 0;
#X obj 112 37 r play;
#X obj 205 177 s stop;
#X obj 251 151 tabplay~ \$0-right;
#X obj 112 150 tabplay~ \$0-left;
#X obj 13 169 s~ \$0-viola-in;
#X msg 431 73 mix4 0 label vla \, mix4 1 label left \, mix4 2 label
righ \, mix4 3 label ... \, mix4 3 color 20 \, mix4 0 mute 0 \, mix4
1 mute 0 \, mix4 2 mute 0;
#X obj 414 151 r \$0-bus;
#X msg 132 70 record start;
#X msg 279 68 record stop;
#X obj 341 239 outlet;
#X obj 251 239 outlet~;
#X obj 33 86 sp-viola~;
#X connect 1 0 11 0;
#X connect 3 0 4 0;
#X connect 3 0 14 0;
#X connect 4 0 8 0;
#X connect 4 0 9 0;
#X connect 5 0 8 0;
#X connect 5 0 9 0;
#X connect 6 0 5 0;
#X connect 6 0 13 0;
#X connect 8 0 16 0;
#X connect 9 0 2 0;
#X connect 9 1 7 0;
#X connect 11 0 15 0;
#X connect 12 0 15 0;
#X connect 13 0 15 0;
#X connect 14 0 15 0;
#X connect 17 0 10 0;
#X connect 17 0 0 0;
#X restore 674 226 pd input ............;
#N canvas 157 132 551 315 output 0;
#X obj 46 180 sp-gpan~;
#X obj 46 77 inlet~;
#X obj 136 77 inlet~;
#X obj 214 77 inlet~;
#X obj 89 273 outlet~;
#X obj 185 271 outlet~;
#X obj 139 128 loadbang;
#X msg 139 154 pan pan -15;
#X connect 0 0 4 0;
#X connect 0 1 5 0;
#X connect 1 0 0 0;
#X connect 2 0 4 0;
#X connect 3 0 5 0;
#X connect 6 0 7 0;
#X connect 7 0 0 1;
#X restore 674 438 pd output ......;
#X obj 21 20 sp-title Jacob ter Veldhuis: Ta-ta-ta-ta;
#X obj 17 604 sp-gparam;
#N canvas 379 180 450 300 init 0;
#X obj 52 32 loadbang;
#X msg 52 58 restore 0;
#X obj 52 86 s sp-param;
#X obj 155 58 del 2000;
#X obj 155 85 s init-r;
#X connect 0 0 1 0;
#X connect 0 0 3 0;
#X connect 1 0 2 0;
#X connect 3 0 4 0;
#X restore 826 325 pd init;
#X obj 826 415 declare -path ..;
#N canvas 145 219 1022 418 midictrl 0;
#X obj 44 115 sel 127;
#X obj 44 148 s play-r;
#X obj 124 115 sel 127;
#X obj 124 148 s stop-r;
#X obj 194 115 sel 127;
#X obj 194 148 s init-r;
#X obj 274 115 / 127;
#X obj 274 182 s \$0-bus;
#X msg 274 149 volume \$1;
#X text 41 24 Bindings for Korg Nanokontrol2;
#X obj 44 80 ctlin 41;
#X obj 124 80 ctlin 42;
#X obj 194 80 ctlin 60;
#X obj 274 80 ctlin 0;
#X obj 355 115 / 127;
#X obj 355 182 s \$0-bus;
#X msg 355 149 mix4 0 volume \$1;
#X obj 355 80 ctlin 1;
#X obj 465 115 / 127;
#X obj 465 182 s \$0-bus;
#X obj 465 80 ctlin 2;
#X msg 465 149 mix4 1 volume \$1;
#X obj 575 115 / 127;
#X obj 575 182 s \$0-bus;
#X obj 575 80 ctlin 3;
#X msg 575 149 mix4 2 volume \$1;
#X obj 688 115 / 127;
#X obj 688 182 s \$0-bus;
#X msg 688 149 mix4 3 volume \$1;
#X obj 688 80 ctlin 4;
#X obj 804 66 sp-midiview;
#X obj 44 332 s \$0-bus;
#X obj 44 230 ctlin 48;
#X msg 44 299 on \$1;
#X obj 44 264 == 0;
#X obj 124 332 s \$0-bus;
#X obj 124 230 ctlin 49;
#X msg 124 299 mix4 0 mute \$1;
#X obj 234 332 s \$0-bus;
#X obj 344 332 s \$0-bus;
#X obj 234 230 ctlin 50;
#X obj 344 230 ctlin 51;
#X msg 234 299 mix4 1 mute \$1;
#X msg 344 299 mix4 2 mute \$1;
#X connect 0 0 1 0;
#X connect 2 0 3 0;
#X connect 4 0 5 0;
#X connect 6 0 8 0;
#X connect 8 0 7 0;
#X connect 10 0 0 0;
#X connect 11 0 2 0;
#X connect 12 0 4 0;
#X connect 13 0 6 0;
#X connect 14 0 16 0;
#X connect 16 0 15 0;
#X connect 17 0 14 0;
#X connect 18 0 21 0;
#X connect 20 0 18 0;
#X connect 21 0 19 0;
#X connect 22 0 25 0;
#X connect 24 0 22 0;
#X connect 25 0 23 0;
#X connect 26 0 28 0;
#X connect 28 0 27 0;
#X connect 29 0 26 0;
#X connect 32 0 34 0;
#X connect 33 0 31 0;
#X connect 34 0 33 0;
#X connect 36 0 37 0;
#X connect 37 0 35 0;
#X connect 40 0 42 0;
#X connect 41 0 43 0;
#X connect 42 0 38 0;
#X connect 43 0 39 0;
#X restore 826 385 pd midictrl;
#X obj 674 560 sp-grecord~ lynch.tatatata;
#X obj 674 645 sp-ginput~;
#X connect 0 0 28 0;
#X connect 0 1 28 1;
#X connect 0 2 28 2;
#X connect 2 0 5 0;
#X connect 5 0 4 0;
#X connect 14 0 13 0;
#X connect 20 0 22 0;
#X connect 20 1 22 1;
#X connect 20 2 22 2;
#X connect 20 4 0 2;
#X connect 21 0 20 0;
#X connect 21 1 20 1;
#X connect 22 0 0 0;
#X connect 22 1 0 1;
#X connect 28 0 29 0;
#X connect 28 1 29 0;
#X connect 28 2 29 1;
