#N canvas 3 22 1192 733 10;
#X declare -lib ggee;
#X obj 41 378 sp-glimiter~ lim1;
#X obj 41 452 +dsp;
#X obj 38 80 sp-gmix~;
#X obj 276 59 sp-gfoot-switch;
#X obj 276 125 sel 1;
#X obj 38 29 adc~ 1;
#X obj 546 96 vd~ buf;
#X obj 546 71 sig~;
#X obj 743 23 sp-gcpu;
#X obj 546 46 init 1000;
#X obj 513 489 sp-gmix8~;
#X obj 820 337 loadbang;
#X obj 513 692 s~ \$0-left;
#X obj 580 692 s~ \$0-right;
#X obj 41 351 r~ \$0-left;
#X obj 137 353 r~ \$0-right;
#X obj 671 693 delwrite~ vd1-feedback 3000;
#N canvas 63 61 1147 670 vd1 0;
#X obj 43 202 vd~ buf;
#X obj 43 182 sig~;
#X obj 43 142 random 100;
#X obj 44 553 outlet~;
#X obj 168 44 tgl 15 0 empty empty empty 17 7 0 10 -262144 -1 -1 1
1;
#X obj 44 528 *~ 0.25;
#X floatatom 8 182 5 0 0 0 - - -;
#X obj 168 14 init 1;
#X obj 168 67 metro 2000;
#X obj 43 162 maxlib/scale 0 100 20 2000;
#X obj 43 114 r \$0-vd;
#X obj 104 87 s \$0-vd;
#X obj 43 246 *~;
#X obj 97 193 random 100;
#X obj 97 221 / 100;
#X obj 44 503 catch~ \$0-out1;
#X obj 154 553 outlet~;
#X obj 154 528 *~ 0.25;
#X obj 154 503 catch~ \$0-out2;
#X obj 43 303 pan~;
#X obj 98 281 - 45;
#X obj 98 256 random 90;
#X obj 43 326 throw~ \$0-out1;
#X obj 64 350 throw~ \$0-out2;
#X floatatom 146 282 5 0 0 0 - - -;
#X obj 243 202 vd~ buf;
#X obj 243 182 sig~;
#X obj 243 142 random 100;
#X floatatom 208 182 5 0 0 0 - - -;
#X obj 243 162 maxlib/scale 0 100 20 2000;
#X obj 243 114 r \$0-vd;
#X obj 243 246 *~;
#X obj 297 193 random 100;
#X obj 297 221 / 100;
#X obj 243 303 pan~;
#X obj 298 281 - 45;
#X obj 298 256 random 90;
#X obj 243 326 throw~ \$0-out1;
#X obj 264 350 throw~ \$0-out2;
#X floatatom 346 282 5 0 0 0 - - -;
#X obj 453 192 vd~ buf;
#X obj 453 172 sig~;
#X obj 453 132 random 100;
#X floatatom 418 172 5 0 0 0 - - -;
#X obj 453 152 maxlib/scale 0 100 20 2000;
#X obj 453 104 r \$0-vd;
#X obj 453 236 *~;
#X obj 507 183 random 100;
#X obj 507 211 / 100;
#X obj 453 293 pan~;
#X obj 508 271 - 45;
#X obj 508 246 random 90;
#X obj 453 316 throw~ \$0-out1;
#X obj 474 340 throw~ \$0-out2;
#X floatatom 556 272 5 0 0 0 - - -;
#X obj 653 192 vd~ buf;
#X obj 653 172 sig~;
#X obj 653 132 random 100;
#X floatatom 618 172 5 0 0 0 - - -;
#X obj 653 152 maxlib/scale 0 100 20 2000;
#X obj 653 104 r \$0-vd;
#X obj 653 236 *~;
#X obj 707 183 random 100;
#X obj 707 211 / 100;
#X obj 653 293 pan~;
#X obj 708 271 - 45;
#X obj 708 246 random 90;
#X obj 653 316 throw~ \$0-out1;
#X obj 674 340 throw~ \$0-out2;
#X floatatom 756 272 5 0 0 0 - - -;
#X obj 843 202 vd~ buf;
#X obj 843 182 sig~;
#X obj 843 142 random 100;
#X floatatom 808 182 5 0 0 0 - - -;
#X obj 843 162 maxlib/scale 0 100 20 2000;
#X obj 843 114 r \$0-vd;
#X obj 843 246 *~;
#X obj 897 193 random 100;
#X obj 897 221 / 100;
#X obj 843 303 pan~;
#X obj 898 281 - 45;
#X obj 898 256 random 90;
#X obj 843 326 throw~ \$0-out1;
#X obj 864 350 throw~ \$0-out2;
#X floatatom 946 282 5 0 0 0 - - -;
#X obj 313 482 vd~ buf;
#X obj 313 462 sig~;
#X obj 313 422 random 100;
#X floatatom 278 462 5 0 0 0 - - -;
#X obj 313 442 maxlib/scale 0 100 20 2000;
#X obj 313 394 r \$0-vd;
#X obj 313 526 *~;
#X obj 367 473 random 100;
#X obj 367 501 / 100;
#X obj 313 583 pan~;
#X obj 368 561 - 45;
#X obj 368 536 random 90;
#X obj 313 606 throw~ \$0-out1;
#X obj 334 630 throw~ \$0-out2;
#X floatatom 416 562 5 0 0 0 - - -;
#X obj 513 482 vd~ buf;
#X obj 513 462 sig~;
#X obj 513 422 random 100;
#X floatatom 478 462 5 0 0 0 - - -;
#X obj 513 442 maxlib/scale 0 100 20 2000;
#X obj 513 394 r \$0-vd;
#X obj 513 526 *~;
#X obj 567 473 random 100;
#X obj 567 501 / 100;
#X obj 513 583 pan~;
#X obj 568 561 - 45;
#X obj 568 536 random 90;
#X obj 513 606 throw~ \$0-out1;
#X floatatom 616 562 5 0 0 0 - - -;
#X obj 713 482 vd~ buf;
#X obj 713 462 sig~;
#X obj 713 422 random 100;
#X floatatom 678 462 5 0 0 0 - - -;
#X obj 713 442 maxlib/scale 0 100 20 2000;
#X obj 713 394 r \$0-vd;
#X obj 713 526 *~;
#X obj 767 473 random 100;
#X obj 767 501 / 100;
#X obj 713 583 pan~;
#X obj 768 561 - 45;
#X obj 768 536 random 90;
#X obj 713 606 throw~ \$0-out1;
#X floatatom 816 562 5 0 0 0 - - -;
#X obj 903 492 vd~ buf;
#X obj 903 472 sig~;
#X obj 903 432 random 100;
#X floatatom 868 472 5 0 0 0 - - -;
#X obj 903 452 maxlib/scale 0 100 20 2000;
#X obj 903 404 r \$0-vd;
#X obj 903 536 *~;
#X obj 957 483 random 100;
#X obj 957 511 / 100;
#X obj 903 593 pan~;
#X obj 958 571 - 45;
#X obj 958 546 random 90;
#X obj 903 616 throw~ \$0-out1;
#X obj 96 450 delread~ vd1-feedback 3000;
#X connect 0 0 12 0;
#X connect 1 0 0 0;
#X connect 2 0 9 0;
#X connect 4 0 8 0;
#X connect 5 0 3 0;
#X connect 7 0 4 0;
#X connect 8 0 11 0;
#X connect 9 0 1 0;
#X connect 9 0 6 0;
#X connect 10 0 2 0;
#X connect 10 0 13 0;
#X connect 10 0 21 0;
#X connect 12 0 19 0;
#X connect 13 0 14 0;
#X connect 14 0 12 1;
#X connect 15 0 5 0;
#X connect 17 0 16 0;
#X connect 18 0 17 0;
#X connect 19 0 22 0;
#X connect 19 1 23 0;
#X connect 20 0 19 1;
#X connect 20 0 24 0;
#X connect 21 0 20 0;
#X connect 25 0 31 0;
#X connect 26 0 25 0;
#X connect 27 0 29 0;
#X connect 29 0 26 0;
#X connect 29 0 28 0;
#X connect 30 0 27 0;
#X connect 30 0 32 0;
#X connect 30 0 36 0;
#X connect 31 0 34 0;
#X connect 32 0 33 0;
#X connect 33 0 31 1;
#X connect 34 0 37 0;
#X connect 34 1 38 0;
#X connect 35 0 34 1;
#X connect 35 0 39 0;
#X connect 36 0 35 0;
#X connect 40 0 46 0;
#X connect 41 0 40 0;
#X connect 42 0 44 0;
#X connect 44 0 41 0;
#X connect 44 0 43 0;
#X connect 45 0 42 0;
#X connect 45 0 47 0;
#X connect 45 0 51 0;
#X connect 46 0 49 0;
#X connect 47 0 48 0;
#X connect 48 0 46 1;
#X connect 49 0 52 0;
#X connect 49 1 53 0;
#X connect 50 0 49 1;
#X connect 50 0 54 0;
#X connect 51 0 50 0;
#X connect 55 0 61 0;
#X connect 56 0 55 0;
#X connect 57 0 59 0;
#X connect 59 0 56 0;
#X connect 59 0 58 0;
#X connect 60 0 57 0;
#X connect 60 0 62 0;
#X connect 60 0 66 0;
#X connect 61 0 64 0;
#X connect 62 0 63 0;
#X connect 63 0 61 1;
#X connect 64 0 67 0;
#X connect 64 1 68 0;
#X connect 65 0 64 1;
#X connect 65 0 69 0;
#X connect 66 0 65 0;
#X connect 70 0 76 0;
#X connect 71 0 70 0;
#X connect 72 0 74 0;
#X connect 74 0 71 0;
#X connect 74 0 73 0;
#X connect 75 0 72 0;
#X connect 75 0 77 0;
#X connect 75 0 81 0;
#X connect 76 0 79 0;
#X connect 77 0 78 0;
#X connect 78 0 76 1;
#X connect 79 0 82 0;
#X connect 79 1 83 0;
#X connect 80 0 79 1;
#X connect 80 0 84 0;
#X connect 81 0 80 0;
#X connect 85 0 91 0;
#X connect 86 0 85 0;
#X connect 87 0 89 0;
#X connect 89 0 86 0;
#X connect 89 0 88 0;
#X connect 90 0 87 0;
#X connect 90 0 92 0;
#X connect 90 0 96 0;
#X connect 91 0 94 0;
#X connect 92 0 93 0;
#X connect 93 0 91 1;
#X connect 94 0 97 0;
#X connect 94 1 98 0;
#X connect 95 0 94 1;
#X connect 95 0 99 0;
#X connect 96 0 95 0;
#X connect 100 0 106 0;
#X connect 101 0 100 0;
#X connect 102 0 104 0;
#X connect 104 0 101 0;
#X connect 104 0 103 0;
#X connect 105 0 102 0;
#X connect 105 0 107 0;
#X connect 105 0 111 0;
#X connect 106 0 109 0;
#X connect 107 0 108 0;
#X connect 108 0 106 1;
#X connect 109 0 112 0;
#X connect 110 0 109 1;
#X connect 110 0 113 0;
#X connect 111 0 110 0;
#X connect 114 0 120 0;
#X connect 115 0 114 0;
#X connect 116 0 118 0;
#X connect 118 0 115 0;
#X connect 118 0 117 0;
#X connect 119 0 116 0;
#X connect 119 0 121 0;
#X connect 119 0 125 0;
#X connect 120 0 123 0;
#X connect 121 0 122 0;
#X connect 122 0 120 1;
#X connect 123 0 126 0;
#X connect 124 0 123 1;
#X connect 124 0 127 0;
#X connect 125 0 124 0;
#X connect 128 0 134 0;
#X connect 129 0 128 0;
#X connect 130 0 132 0;
#X connect 132 0 129 0;
#X connect 132 0 131 0;
#X connect 133 0 130 0;
#X connect 133 0 135 0;
#X connect 133 0 139 0;
#X connect 134 0 137 0;
#X connect 135 0 136 0;
#X connect 136 0 134 1;
#X connect 137 0 140 0;
#X connect 138 0 137 1;
#X connect 139 0 138 0;
#X connect 141 0 17 0;
#X connect 141 0 5 0;
#X restore 579 448 pd vd1;
#X obj 546 124 sp-filter-specktral~ sp1;
#X obj 39 653 table tab1;
#X obj 177 270 tabwrite~ tab1;
#X msg 39 616 \; tab1 resize \$1;
#X msg 177 242 start;
#X obj 177 192 init 1;
#X obj 39 593 init 88200;
#X obj 39 573 bng 15 250 50 0 empty empty empty 17 7 0 10 -262144 -1
-1;
#X obj 177 220 metro 2000;
#X obj 149 237 bng 15 250 50 0 empty empty empty 17 7 0 10 -262144
-1 -1;
#X obj 38 269 delwrite~ buf 10000;
#N canvas 123 105 725 637 reverb 0;
#X obj 40 154 sp-gfreeverb~ rvb;
#X obj 40 69 delread~ buf 10;
#X obj 40 469 outlet~;
#X obj 233 22 inlet;
#X obj 233 74 tgl 15 0 empty empty empty 17 7 0 10 -262144 -1 -1 0
1;
#X obj 329 72 init 0;
#X obj 40 433 *~;
#X obj 255 408 line~;
#X msg 287 299 freeverb freeze \$1;
#X obj 40 123 *~;
#X obj 233 106 t f f;
#X msg 330 118 freeverb restore;
#X obj 330 95 loadbang;
#X obj 287 173 pipe 100;
#X obj 287 205 sel 1;
#X msg 287 231 1;
#X msg 255 380 1 2000;
#X obj 255 360 sel 1;
#X msg 322 257 0;
#X msg 318 380 0 10000;
#X obj 322 232 del 4000;
#X obj 405 356 sp-gmoog~;
#X msg 600 290 moog save;
#X connect 0 0 21 0;
#X connect 1 0 9 0;
#X connect 3 0 4 0;
#X connect 4 0 10 0;
#X connect 5 0 10 0;
#X connect 6 0 2 0;
#X connect 7 0 6 1;
#X connect 8 0 0 2;
#X connect 9 0 0 0;
#X connect 10 0 9 1;
#X connect 10 1 13 0;
#X connect 11 0 0 2;
#X connect 12 0 11 0;
#X connect 13 0 14 0;
#X connect 13 0 17 0;
#X connect 14 0 15 0;
#X connect 14 1 20 0;
#X connect 15 0 8 0;
#X connect 16 0 7 0;
#X connect 17 0 16 0;
#X connect 17 1 19 0;
#X connect 18 0 8 0;
#X connect 19 0 7 0;
#X connect 20 0 18 0;
#X connect 21 0 6 0;
#X connect 22 0 21 1;
#X restore 665 417 pd reverb;
#N canvas 120 121 910 483 reverse 0;
#X obj 55 152 phasor~ 0.5;
#X msg 55 123 \$1;
#X obj 58 95 hsl 128 15 0 2 0 0 empty empty empty -2 -8 0 10 -262144
-1 -1 3175 1;
#X obj 55 227 *~ 88200;
#X obj 55 250 tabread4~ tab1;
#X obj 55 177 -~ 1;
#X obj 55 201 abs~;
#X obj 55 48 init 0.5;
#X floatatom 104 128 5 0 0 0 - - -;
#X msg 205 123 \$1;
#X obj 208 95 hsl 128 15 0 2 0 0 empty empty empty -2 -8 0 10 -262144
-1 -1 12700 1;
#X obj 205 250 tabread4~ tab1;
#X obj 205 177 -~ 1;
#X obj 205 201 abs~;
#X floatatom 254 128 5 0 0 0 - - -;
#X obj 205 48 init 2;
#X obj 53 385 outlet~;
#X obj 277 38 random 2;
#X obj 391 37 random 2;
#X obj 54 10 inlet;
#X obj 205 227 *~ 44100;
#X obj 205 152 phasor~ 1;
#X obj 277 63 scale 0 2 0.3 1;
#X obj 391 61 scale 0 2 0.4 0.8;
#X msg 505 113 \$1;
#X obj 508 85 hsl 128 15 0 2 0 0 empty empty empty -2 -8 0 10 -262144
-1 -1 12700 1;
#X obj 505 240 tabread4~ tab1;
#X obj 505 167 -~ 1;
#X obj 505 191 abs~;
#X floatatom 554 118 5 0 0 0 - - -;
#X obj 505 38 init 2;
#X obj 577 28 random 2;
#X obj 505 217 *~ 44100;
#X obj 505 142 phasor~ 1;
#X obj 577 53 scale 0 2 0.3 1;
#X obj 64 326 freeverb~;
#X obj 356 105 init 0.3;
#X obj 55 277 *~ 0.4;
#X obj 348 141 init 0.4;
#X connect 0 0 5 0;
#X connect 1 0 0 0;
#X connect 2 0 8 0;
#X connect 3 0 4 0;
#X connect 4 0 37 0;
#X connect 5 0 6 0;
#X connect 6 0 3 0;
#X connect 7 0 2 0;
#X connect 9 0 21 0;
#X connect 10 0 14 0;
#X connect 11 0 37 0;
#X connect 12 0 13 0;
#X connect 13 0 20 0;
#X connect 15 0 10 0;
#X connect 17 0 22 0;
#X connect 18 0 23 0;
#X connect 19 0 17 0;
#X connect 19 0 18 0;
#X connect 19 0 31 0;
#X connect 20 0 11 0;
#X connect 21 0 12 0;
#X connect 22 0 2 0;
#X connect 23 0 10 0;
#X connect 24 0 33 0;
#X connect 25 0 29 0;
#X connect 26 0 37 0;
#X connect 27 0 28 0;
#X connect 28 0 32 0;
#X connect 30 0 25 0;
#X connect 31 0 34 0;
#X connect 32 0 26 0;
#X connect 33 0 27 0;
#X connect 34 0 25 0;
#X connect 35 0 16 0;
#X connect 36 0 0 0;
#X connect 36 0 33 0;
#X connect 37 0 35 0;
#X connect 38 0 21 0;
#X restore 645 448 pd reverse;
#N canvas 453 292 554 345 harm 0;
#X obj 41 134 sp-octave-harmonizer~;
#X obj 19 252 outlet~;
#X obj 41 40 delread~ buf 500;
#X obj 305 101 env~;
#X obj 305 170 sel 1;
#X msg 305 192 1;
#X msg 342 192 0;
#X obj 305 144 <= 70;
#X obj 266 269 *~;
#X msg 305 218 \$1 100;
#X obj 305 240 line~;
#X obj 367 113 loadbang;
#X obj 41 192 delwrite~ harm 4000;
#X connect 0 0 1 0;
#X connect 0 0 12 0;
#X connect 2 0 8 0;
#X connect 2 0 3 0;
#X connect 3 0 7 0;
#X connect 4 0 5 0;
#X connect 4 1 6 0;
#X connect 5 0 9 0;
#X connect 6 0 9 0;
#X connect 7 0 4 0;
#X connect 8 0 0 0;
#X connect 9 0 10 0;
#X connect 10 0 8 1;
#X connect 11 0 5 0;
#X restore 513 448 pd harm;
#X msg 823 420 mix8 save;
#X msg 820 444 mix8 restore \, mix8 mute 1;
#X obj 739 75 loadbang;
#X msg 739 95 spectral random;
#X obj 862 45 hradio 30 1 0 5 \$0-cadence1-s \$0-cadence1-r Cadence_1
0 -16 0 25 -262144 -1 -1 4;
#X obj 862 165 hradio 30 1 0 5 \$0-cadence2-s \$0-cadence2-r Cadence_2
0 -16 0 25 -262144 -1 -1 4;
#X obj 276 146 f 0;
#X obj 305 146 + 1;
#X msg 213 129 0;
#X obj 276 202 s \$0-cadence1-r;
#X obj 315 249 s \$0-cadence2-r;
#X obj 792 394 r \$0-mix8;
#N canvas 165 195 743 450 cad1 0;
#X obj 27 30 inlet;
#X obj 42 378 s \$0-mix8;
#X obj 74 283 line;
#X msg 74 310 mix8 1 volume \$1;
#X obj 204 283 line;
#X msg 204 310 mix8 0 volume \$1;
#X obj 324 283 line;
#X msg 324 310 mix8 0 volume \$1;
#X obj 27 82 sel 0 1 2 3 4;
#X msg 27 130 mix8 0 mute 1 \, mix8 1 mute 1 \, mix8 0 volume 0 \,
mix8 1 volume 0;
#X obj 42 201 bang;
#X msg 42 231 mix8 1 mute 0;
#X msg 152 233 mix8 0 mute 0;
#X obj 152 204 bang;
#X obj 444 283 line;
#X msg 444 310 mix8 1 volume \$1;
#X msg 74 258 0 \, 1 6000;
#X msg 204 258 0 \, 1 2000;
#X msg 324 258 1 \, 0 2000;
#X msg 444 258 1 \, 0 5000;
#X obj 555 259 del 5000;
#X msg 555 308 mix8 0 mute 1 \, mix8 1 mute 1;
#X connect 0 0 8 0;
#X connect 2 0 3 0;
#X connect 3 0 1 0;
#X connect 4 0 5 0;
#X connect 5 0 1 0;
#X connect 6 0 7 0;
#X connect 7 0 1 0;
#X connect 8 0 9 0;
#X connect 8 1 10 0;
#X connect 8 2 13 0;
#X connect 8 3 18 0;
#X connect 8 4 19 0;
#X connect 8 4 20 0;
#X connect 9 0 1 0;
#X connect 10 0 11 0;
#X connect 10 0 16 0;
#X connect 11 0 1 0;
#X connect 12 0 1 0;
#X connect 13 0 12 0;
#X connect 13 0 17 0;
#X connect 14 0 15 0;
#X connect 15 0 1 0;
#X connect 16 0 2 0;
#X connect 17 0 4 0;
#X connect 18 0 6 0;
#X connect 19 0 14 0;
#X connect 20 0 21 0;
#X connect 21 0 1 0;
#X restore 862 82 pd cad1;
#X obj 276 172 moses 5;
#X obj 315 225 % 5;
#N canvas 165 195 743 450 cad2 0;
#X obj 27 30 inlet;
#X obj 42 378 s \$0-mix8;
#X obj 74 283 line;
#X obj 204 283 line;
#X obj 324 283 line;
#X obj 27 52 sel 0 1 2 3 4;
#X obj 42 191 bang;
#X obj 152 204 bang;
#X obj 434 283 line;
#X msg 74 258 0 \, 1 6000;
#X msg 204 258 0 \, 1 2000;
#X msg 324 258 1 \, 0 2000;
#X msg 434 258 1 \, 0 5000;
#X obj 555 259 del 5000;
#X msg 42 221 mix8 2 mute 0 \, mix8 3 mute 0;
#X msg 27 100 mix8 2 mute 1 \, mix8 3 mute 1 \, mix8 4 mute 1 \, mix8
2 volume 0 \, mix8 3 volume 0 \, mix8 4 volume 0;
#X msg 74 310 mix8 2 volume \$1 \, mix8 3 volume \$1;
#X msg 152 233 mix8 4 mute 0;
#X msg 204 310 mix8 4 volume \$1;
#X msg 324 310 mix8 4 volume \$1;
#X msg 434 310 mix8 2 volume \$1 \, mix8 3 volume \$1;
#X msg 555 308 mix8 2 mute 1 \, mix8 3 mute 1 \, mix8 4 mute 1;
#X connect 0 0 5 0;
#X connect 2 0 16 0;
#X connect 3 0 18 0;
#X connect 4 0 19 0;
#X connect 5 0 15 0;
#X connect 5 1 6 0;
#X connect 5 2 7 0;
#X connect 5 3 11 0;
#X connect 5 4 12 0;
#X connect 5 4 13 0;
#X connect 6 0 14 0;
#X connect 6 0 9 0;
#X connect 7 0 17 0;
#X connect 7 0 10 0;
#X connect 8 0 20 0;
#X connect 9 0 2 0;
#X connect 10 0 3 0;
#X connect 11 0 4 0;
#X connect 12 0 8 0;
#X connect 13 0 21 0;
#X connect 14 0 1 0;
#X connect 15 0 1 0;
#X connect 16 0 1 0;
#X connect 17 0 1 0;
#X connect 18 0 1 0;
#X connect 19 0 1 0;
#X connect 20 0 1 0;
#X connect 21 0 1 0;
#X restore 862 202 pd cad2;
#X obj 105 31 loadbang;
#X msg 105 54 mute 0;
#X connect 0 0 1 0;
#X connect 0 1 1 1;
#X connect 0 2 1 2;
#X connect 2 0 20 0;
#X connect 2 0 28 0;
#X connect 3 0 4 0;
#X connect 4 0 38 0;
#X connect 5 0 2 0;
#X connect 6 0 18 0;
#X connect 7 0 6 0;
#X connect 9 0 7 0;
#X connect 10 0 12 0;
#X connect 10 0 13 0;
#X connect 10 1 12 0;
#X connect 10 1 13 0;
#X connect 10 2 16 0;
#X connect 10 2 12 0;
#X connect 10 3 16 0;
#X connect 10 3 13 0;
#X connect 11 0 33 0;
#X connect 14 0 0 0;
#X connect 15 0 0 1;
#X connect 17 0 10 2;
#X connect 17 1 10 3;
#X connect 18 0 10 1;
#X connect 22 0 20 0;
#X connect 23 0 26 0;
#X connect 24 0 21 0;
#X connect 25 0 24 0;
#X connect 26 0 22 0;
#X connect 26 0 27 0;
#X connect 29 0 10 4;
#X connect 30 0 10 4;
#X connect 31 0 10 0;
#X connect 32 0 10 8;
#X connect 33 0 10 8;
#X connect 34 0 35 0;
#X connect 35 0 18 1;
#X connect 36 0 44 0;
#X connect 37 0 47 0;
#X connect 38 0 39 0;
#X connect 38 0 45 0;
#X connect 39 0 38 1;
#X connect 40 0 38 0;
#X connect 43 0 10 8;
#X connect 45 0 41 0;
#X connect 45 1 46 0;
#X connect 46 0 42 0;
#X connect 48 0 49 0;
#X connect 49 0 2 1;
