#N canvas 148 43 381 410 10;
#X declare -path ..;
#X obj 265 331 declare -path ..;
#X obj 43 279 +dsp;
#X obj 139 262 r~ \$0-r;
#X obj 43 262 r~ \$0-l;
#N canvas 524 133 450 300 main 0;
#X obj 51 223 s~ \$0-l;
#X obj 162 222 s~ \$0-r;
#X obj 51 124 osc~;
#X obj 51 147 *~ 0.3;
#X msg 51 95 415;
#X msg 88 95 0;
#X obj 51 68 sel 1;
#X obj 51 39 r \$0-415-s;
#X obj 141 124 osc~;
#X obj 141 147 *~ 0.3;
#X msg 178 95 0;
#X obj 141 68 sel 1;
#X obj 221 124 osc~;
#X obj 221 147 *~ 0.3;
#X msg 258 95 0;
#X obj 221 68 sel 1;
#X obj 301 124 osc~;
#X obj 301 147 *~ 0.3;
#X msg 338 95 0;
#X obj 301 68 sel 1;
#X msg 141 95 435;
#X msg 221 95 440;
#X msg 301 95 442;
#X obj 141 39 r \$0-435-s;
#X obj 221 39 r \$0-440-s;
#X obj 301 39 r \$0-442-s;
#X obj 269 219 loadbang;
#X msg 269 245 volume 0.3;
#X obj 269 271 s \$0-ctrl;
#X connect 2 0 3 0;
#X connect 3 0 0 0;
#X connect 3 0 1 0;
#X connect 4 0 2 0;
#X connect 5 0 2 0;
#X connect 6 0 4 0;
#X connect 6 1 5 0;
#X connect 7 0 6 0;
#X connect 8 0 9 0;
#X connect 9 0 0 0;
#X connect 9 0 1 0;
#X connect 10 0 8 0;
#X connect 11 0 20 0;
#X connect 11 1 10 0;
#X connect 12 0 13 0;
#X connect 13 0 0 0;
#X connect 13 0 1 0;
#X connect 14 0 12 0;
#X connect 15 0 21 0;
#X connect 15 1 14 0;
#X connect 16 0 17 0;
#X connect 17 0 0 0;
#X connect 17 0 1 0;
#X connect 18 0 16 0;
#X connect 19 0 22 0;
#X connect 19 1 18 0;
#X connect 20 0 8 0;
#X connect 21 0 12 0;
#X connect 22 0 16 0;
#X connect 23 0 11 0;
#X connect 24 0 15 0;
#X connect 25 0 19 0;
#X connect 26 0 27 0;
#X connect 27 0 28 0;
#X restore 265 362 pd main;
#X obj 41 39 cnv 15 300 200 empty empty empty 20 12 0 14 -10725 -66577
0;
#X obj 87 87 tgl 40 0 \$0-415-s \$0-415-r 415 50 20 0 20 -262144 -1
-1 0 1;
#X obj 87 157 tgl 40 0 \$0-435-s \$0-435-r 435 50 20 0 20 -262144 -1
-1 0 1;
#X obj 197 87 tgl 40 0 \$0-440-s \$0-440-r 440 50 20 0 20 -262144 -1
-1 1 1;
#X obj 197 157 tgl 40 0 \$0-442-s \$0-442-r 442 50 20 0 20 -262144
-1 -1 0 1;
#X obj 236 262 r \$0-ctrl;
#X connect 2 0 1 1;
#X connect 3 0 1 0;
#X connect 10 0 1 2;
