#N canvas 84 22 1129 755 10;
#X declare -path ../;
#X declare -lib bsaylor;
#X declare -lib bsaylor;
#X declare -lib bsaylor;
#X declare -lib flatgui;
#X declare -lib flatgui;
#X obj 33 36 sp-title Steve Reich: Viola Phase;
#X obj 34 133 declare -path ../;
#X obj 954 35 sp-gcpu;
#X obj 34 231 sp-gmix8~ mix8;
#N canvas 0 22 450 278 (subpatch) 0;
#X array \$0-loop-v1 198450 float 2;
#X coords 0 1 198450 -1 200 140 1 0 0;
#X restore 835 398 graph;
#X obj 834 258 sp-gfoot-switch;
#X obj 474 75 bng 30 250 50 0 \$0-prepare-s \$0-prepare-r CLEAN 0 -16
0 16 -262144 -1 -1;
#N canvas 177 248 846 505 speed 0;
#X obj 38 141 f 1.005;
#X obj 179 141 f 1.005;
#X msg 281 141 1;
#X obj 281 85 r \$0-freeze-all-s;
#X obj 77 24 r \$0-acceleration1;
#X obj 218 24 r \$0-acceleration3;
#X obj 179 85 r \$0-speed-up3-s;
#X obj 38 85 r \$0-speed-up1-s;
#X obj 340 264 s \$0-freeze-ind-r;
#X msg 340 225 color 6;
#X msg 485 225 color 5;
#X msg 406 225 color 7;
#X obj 698 96 r \$0-sync-all-s;
#X msg 637 231 \; sp-v1 start \; sp-v2 start \; sp-v3 start;
#X obj 637 69 r \$0-timebase;
#X obj 637 96 mod 2;
#X obj 637 123 sel 1;
#X obj 637 154 f;
#X msg 679 171 0;
#X msg 698 123 1;
#X obj 637 202 sel 1;
#X text 725 152 sync to timebase;
#X msg 38 187 \; sp-v1 speed 1 \; sp-v2 speed \$1 \; sp-v3 speed \$1
\;;
#X msg 179 186 \; sp-v1 speed 1 \; sp-v2 speed 1 \; sp-v3 speed \$1
\;;
#X connect 0 0 22 0;
#X connect 0 0 9 0;
#X connect 1 0 23 0;
#X connect 2 0 23 0;
#X connect 3 0 2 0;
#X connect 3 0 11 0;
#X connect 4 0 0 1;
#X connect 5 0 1 1;
#X connect 6 0 1 0;
#X connect 6 0 10 0;
#X connect 7 0 0 0;
#X connect 9 0 8 0;
#X connect 10 0 8 0;
#X connect 11 0 8 0;
#X connect 12 0 19 0;
#X connect 14 0 15 0;
#X connect 15 0 16 0;
#X connect 16 0 17 0;
#X connect 17 0 18 0;
#X connect 17 0 20 0;
#X connect 18 0 17 1;
#X connect 19 0 17 1;
#X connect 20 0 13 0;
#X restore 958 83 pd speed;
#N canvas 459 86 312 330 array 0;
#X msg 59 40 160;
#X obj 59 71 expr ((60 / $f1) * 44100) * 6;
#X text 124 89 looplength in samples;
#X obj 86 191 t b f;
#X obj 113 221 list prepend \$0;
#X obj 59 112 * 2;
#X obj 105 23 r \$0-init-array;
#X msg 113 249 \; \$1-loop-v1 resize \$2 \; sp-v1 setarray \$1-loop-v1
\; sp-v2 setarray \$1-loop-v1 \; sp-v3 setarray \$1-loop-v1 \;;
#X obj 59 154 s \$0-loop-len;
#X connect 0 0 1 0;
#X connect 1 0 5 0;
#X connect 3 1 4 0;
#X connect 4 0 7 0;
#X connect 5 0 3 0;
#X connect 5 0 8 0;
#X connect 6 0 0 0;
#X restore 958 111 pd array;
#N canvas 477 367 535 196 in~ 0;
#X obj 44 155 outlet~;
#X obj 94 155 outlet~;
#X obj 144 155 outlet~;
#X obj 194 155 outlet~;
#X obj 244 155 outlet~;
#X obj 294 155 outlet~;
#X obj 344 155 outlet~;
#X obj 394 155 outlet~;
#X obj 444 155 outlet;
#X obj 44 91 adc~ 1;
#X obj 94 127 r~ \$0-v1;
#X obj 144 97 r~ \$0-v2;
#X obj 194 117 r~ \$0-v3;
#X obj 244 80 r~ \$0-click;
#X obj 444 120 r \$0-bus;
#X connect 9 0 0 0;
#X connect 10 0 1 0;
#X connect 11 0 2 0;
#X connect 12 0 3 0;
#X connect 13 0 4 0;
#X connect 14 0 8 0;
#X coords 0 -1 1 1 272 20 1 100 100;
#X restore 34 202 pd in~;
#X obj 31 530 +dsp;
#X obj 337 202 sp-gparam;
#N canvas 485 345 637 312 init 0;
#X obj 84 48 loadbang;
#X obj 84 269 s \$0-bus;
#X msg 84 137 mix8 0 label vla \, mix8 1 label lp1 \, mix8 2 label
lp2 \, mix8 3 label lp3 \, mix8 4 label clk \, mix8 5 label ... \,
mix8 6 label ... \, mix8 7 label ...;
#X msg 110 85 mix8 0 color 25 \, mix8 5 color 10 \, mix8 6 color 10
\, mix8 7 color 10;
#X obj 252 266 s \$0-freeze-ind-r;
#X msg 252 234 color 0;
#X connect 0 0 2 0;
#X connect 0 0 3 0;
#X connect 0 0 5 0;
#X connect 2 0 1 0;
#X connect 3 0 1 0;
#X connect 5 0 4 0;
#X restore 958 139 pd init;
#N canvas 71 55 437 233 loops 0;
#X obj 57 37 loadbang;
#X obj 57 66 \$0;
#X msg 57 95 setarray \$1-loop-v1;
#X obj 73 133 r sp-v1;
#X obj 193 133 r sp-v2;
#X obj 349 133 r sp-v3;
#X obj 57 190 s~ \$0-v1;
#X obj 193 190 s~ \$0-v2;
#X obj 349 190 s~ \$0-v3;
#X obj 57 166 sp-looper~;
#X obj 193 166 sp-looper~;
#X obj 349 166 sp-looper~;
#X connect 0 0 1 0;
#X connect 1 0 2 0;
#X connect 2 0 9 0;
#X connect 2 0 10 0;
#X connect 2 0 11 0;
#X connect 3 0 9 0;
#X connect 4 0 10 0;
#X connect 5 0 11 0;
#X connect 9 0 6 0;
#X connect 10 0 7 0;
#X connect 11 0 8 0;
#X restore 958 167 pd loops;
#X obj 834 573 sp-gmonitor~;
#X obj 930 552 r~ \$0-click-mon;
#X obj 166 425 s~ \$0-click-mon;
#N canvas 177 275 598 332 loopwriter 0;
#X obj 226 220 tabwrite~ \$0-loop-v1;
#X obj 43 31 r~ \$0-loop-in;
#X obj 320 133 del;
#X msg 362 60 160;
#X obj 362 86 sp-bpm2ms;
#X obj 362 34 loadbang;
#X obj 320 165 s \$0-record-stop;
#X obj 192 86 t b b;
#X obj 192 32 r \$0-record;
#X obj 362 116 * 12;
#X connect 1 0 0 0;
#X connect 2 0 6 0;
#X connect 3 0 4 0;
#X connect 4 0 9 0;
#X connect 5 0 3 0;
#X connect 7 0 0 0;
#X connect 7 1 2 0;
#X connect 8 0 7 0;
#X connect 9 0 2 1;
#X restore 275 562 pd loopwriter;
#X obj 34 425 s~ \$0-loop-in;
#N canvas 231 348 814 221 ctrl 1;
#X obj 34 32 r \$0-timebase;
#X obj 34 78 sel 36;
#X obj 34 176 s sp-mix8;
#X msg 34 133 4 fade 0 10000;
#X obj 290 32 r \$0-stop;
#X obj 140 32 r \$0-play;
#X obj 465 31 r \$0-record;
#X msg 465 75 \; sp-mix8 0 mute 0 \; sp-mix8 1 mute 1 \; sp-mix8 2
mute 1 \; sp-mix8 3 mute 1 \; sp-v1 stop \; sp-v2 stop \; sp-v3 stop
\;;
#X obj 616 31 r \$0-record-stop;
#X msg 616 75 \; sp-mix8 0 mute 0 \; sp-mix8 1 mute 0 \; sp-mix8 2
mute 0 \; sp-mix8 3 mute 1 \; sp-v1 start \; sp-v2 start \; sp-v3 start
\;;
#X msg 140 79 \; sp-v1 start \; sp-v2 start \; sp-v3 start \; sp-mix8
1 mute 0 \; sp-mix8 2 mute 0 \; sp-mix8 3 mute 0 \;;
#X msg 290 65 \; sp-mix8 1 mute 1 \; sp-mix8 2 mute 1 \; sp-mix8 3
mute 1 \; sp-mix8 4 mute 1 \; sp-v1 stop \; sp-v2 stop \; sp-v3 stop
\;;
#X connect 0 0 1 0;
#X connect 3 0 2 0;
#X connect 4 0 11 0;
#X connect 5 0 10 0;
#X connect 6 0 7 0;
#X connect 8 0 9 0;
#X restore 958 195 pd ctrl;
#N canvas 348 294 635 450 timebase 0;
#X obj 22 399 s~ \$0-click;
#X obj 22 94 tgl 15 0 empty empty empty 17 7 0 10 -262144 -1 -1 1 1
;
#X obj 22 126 sp-timebase 160 2;
#X obj 121 157 mod 2;
#X obj 197 143 s \$0-timebase;
#X obj 22 262 spigot;
#X obj 121 188 == 1;
#X obj 112 262 spigot;
#X obj 155 188 == 0;
#X obj 22 58 r \$0-click-start;
#N canvas 0 22 450 278 (subpatch) 0;
#X array \$0-click-array 256 float 1;
#A 0 0 0.942855 0.942855 0.928569 0.785713 0.671427 0.657141 0.542856
0.499999 0.385713 0.328571 0.314285 0.0571427 -0.82857 -0.842855 -0.771427
-0.757141 -0.742856 -0.72857 -0.699998 -0.699998 -0.357142 -0.0285714
-0.0142857 0 0 0 0 0 0 0 0 0 0 0 0 0 0 0 0 0 0 0 0 0 0 0 0 0 0 0 0
0 0 0 0 0 0 0 0 0 0 0 0 0 0 0 0 0 0 0 0 0 0 0 0 0 0 0 0 0 0 0 0 0 0
0 0 0 0 0 0 0 0 0 0 0 0 0 0 0 0 0 0 0 0 0 0 0 0 0 0 0 0 0 0 0 0 0 0
0 0 0 0 0 0 0 0 0 0 0 0 0 0 0 0 0 0 0 0 0 0 0 0 0 0 0 0 0 0 0 0 0 0
0 0 0 0 0 0 0 0 0 0 0 0 0 0 0 0 0 0 0 0 0 0 0 0 0 0 0 0 0 0 0 0 0 0
0 0 0 0 0 0 0 0 0 0 0 0 0 0 0 0 0 0 0 0 0 0 0 0 0 0 0 0 0 0 0 0 0 0
0 0 0 0 0 0 0 0 0 0 0 0 0 0 0 0 0 0 0 0 0 0 0 0 0 0 0 0 0 0 0 0 0 0
;
#X coords 0 1 255 -1 200 140 1 0 0;
#X restore 301 58 graph;
#X obj 22 360 tabplay~ \$0-click-array;
#X msg 318 261 const 0;
#X obj 318 308 s \$0-click-array;
#X obj 182 360 tabplay~ \$0-click-array;
#X connect 1 0 2 0;
#X connect 2 0 5 0;
#X connect 2 0 7 0;
#X connect 2 1 3 0;
#X connect 2 1 4 0;
#X connect 3 0 6 0;
#X connect 3 0 8 0;
#X connect 5 0 11 0;
#X connect 6 0 5 1;
#X connect 7 0 14 0;
#X connect 8 0 7 1;
#X connect 9 0 1 0;
#X connect 11 0 0 0;
#X connect 12 0 13 0;
#X connect 14 0 0 0;
#X restore 958 223 pd timebase;
#N canvas 386 148 455 385 save_loop 0;
#X obj 34 32 inlet control;
#X obj 34 136 tabplay~ \$0-loop-v1;
#X obj 34 320 writesf~;
#X obj 34 66 t b b;
#X msg 61 261 open \$1 \, start;
#X msg 145 292 stop;
#X obj 61 104 f;
#X obj 93 103 + 1;
#X obj 61 198 sprintf vphase-%02d-%d.wav;
#X obj 214 100 loadbang;
#X obj 214 131 f \$0;
#X obj 61 226 symbol;
#X connect 0 0 3 0;
#X connect 1 0 2 0;
#X connect 1 1 5 0;
#X connect 3 0 1 0;
#X connect 3 1 6 0;
#X connect 4 0 2 0;
#X connect 5 0 2 0;
#X connect 6 0 7 0;
#X connect 6 0 8 0;
#X connect 7 0 6 1;
#X connect 8 0 11 0;
#X connect 9 0 10 0;
#X connect 10 0 8 1;
#X connect 11 0 4 0;
#X restore 734 437 pd save_loop;
#X obj 734 398 bng 30 250 50 0 \$0-save-loop-s \$0-save-loop-r SAVE_LOOP
0 -10 0 10 -262144 -1 -1;
#N canvas 412 158 740 558 effects 0;
#X obj 48 75 inlet~;
#X obj 98 75 inlet~;
#X obj 148 75 inlet~;
#X obj 198 75 inlet~;
#X obj 248 75 inlet~;
#X obj 298 75 inlet~;
#X obj 348 75 inlet~;
#X obj 398 75 inlet~;
#X obj 449 75 inlet;
#X obj 44 525 outlet~;
#X obj 176 525 outlet~;
#X obj 44 435 sp-gpan8~;
#X obj 309 518 outlet;
#X connect 1 0 11 1;
#X connect 2 0 11 2;
#X connect 3 0 11 3;
#X connect 8 0 11 8;
#X connect 11 0 9 0;
#X connect 11 1 10 0;
#X connect 11 2 12 0;
#X coords 0 -1 1 1 200 20 1 10 10;
#X restore 31 477 pd effects;
#N canvas 450 132 450 300 click_loop 0;
#X obj 31 169 r sp-c1;
#X obj 113 171 r sp-c2;
#X obj 197 172 r sp-c3;
#X restore 275 502 pd click_loop;
#X obj 604 35 cnv 15 300 100 \$0-freeze-ind-s \$0-freeze-ind-r empty
20 12 0 14 -262144 -262144 0;
#X obj 770 74 bng 30 250 50 0 \$0-speed-up3-s \$0-speed-up3-r UP3 0
-16 0 16 -257985 -1 -1;
#X obj 698 74 bng 30 250 50 0 \$0-freeze-all-s \$0-freeze-all-r FREEZE
0 -16 0 16 -4032 -1 -1;
#X obj 637 74 bng 30 250 50 0 \$0-speed-up1-s \$0-speed-up1-r UP1 0
-16 0 16 -4034 -1 -1;
#N canvas 454 323 303 230 load_loop 0;
#X obj 35 37 inlet ctrl;
#X obj 35 171 soundfiler;
#X obj 35 74 openpanel;
#X obj 35 108 list prepend \$0;
#X msg 35 142 read -resize \$2 \$1-loop-v1;
#X connect 0 0 2 0;
#X connect 2 0 3 0;
#X connect 3 0 4 0;
#X connect 4 0 1 0;
#X restore 731 501 pd load_loop;
#X obj 731 476 bng 15 250 50 0 empty empty LOAD_LOOP 0 -10 0 10 -262144
-1 -1;
#N canvas 129 66 261 194 midi_ctrl 0;
#X obj 28 19 ctlin;
#X obj 28 76 s \$0-midi-in;
#X obj 133 76 s \$0-midi-ch;
#N canvas 168 343 257 379 nanokontrol2 0;
#N canvas 432 203 450 300 viola-in 0;
#X obj 70 104 == 0;
#X obj 37 132 spigot;
#X obj 37 74 r \$0-midi-in;
#X obj 70 49 r \$0-midi-ch;
#X obj 37 185 *;
#X obj 37 157 / 127;
#X msg 37 217 mix8 0 volume \$1;
#X obj 37 247 s \$0-bus;
#X obj 157 132 spigot;
#X obj 157 74 r \$0-midi-in;
#X obj 190 49 r \$0-midi-ch;
#X obj 157 247 s \$0-bus;
#X obj 190 104 == 48;
#X obj 157 162 == 127;
#X msg 157 217 mix8 0 mute \$1;
#X connect 0 0 1 1;
#X connect 1 0 5 0;
#X connect 2 0 1 0;
#X connect 3 0 0 0;
#X connect 4 0 6 0;
#X connect 5 0 4 0;
#X connect 5 0 4 1;
#X connect 6 0 7 0;
#X connect 8 0 13 0;
#X connect 9 0 8 0;
#X connect 10 0 12 0;
#X connect 12 0 8 1;
#X connect 13 0 14 0;
#X connect 14 0 11 0;
#X restore 30 40 pd viola-in;
#N canvas 790 282 450 300 loop1 0;
#X obj 58 122 spigot;
#X obj 58 64 r \$0-midi-in;
#X obj 91 39 r \$0-midi-ch;
#X obj 58 175 *;
#X obj 58 147 / 127;
#X obj 58 237 s \$0-bus;
#X obj 178 122 spigot;
#X obj 178 64 r \$0-midi-in;
#X obj 211 39 r \$0-midi-ch;
#X obj 178 237 s \$0-bus;
#X obj 178 152 == 127;
#X msg 58 207 mix8 1 volume \$1;
#X msg 178 207 mix8 1 mute \$1;
#X obj 211 94 == 49;
#X obj 91 94 == 1;
#X obj 298 122 spigot;
#X obj 298 64 r \$0-midi-in;
#X obj 331 39 r \$0-midi-ch;
#X obj 298 147 / 127;
#X obj 298 257 s \$0-bus;
#X obj 331 94 == 17;
#X msg 298 227 pan8 1 \$1;
#X obj 298 170 - 0.5;
#X obj 298 200 * 2;
#X connect 0 0 4 0;
#X connect 1 0 0 0;
#X connect 2 0 14 0;
#X connect 3 0 11 0;
#X connect 4 0 3 0;
#X connect 4 0 3 1;
#X connect 6 0 10 0;
#X connect 7 0 6 0;
#X connect 8 0 13 0;
#X connect 10 0 12 0;
#X connect 11 0 5 0;
#X connect 12 0 9 0;
#X connect 13 0 6 1;
#X connect 14 0 0 1;
#X connect 15 0 18 0;
#X connect 16 0 15 0;
#X connect 17 0 20 0;
#X connect 18 0 22 0;
#X connect 20 0 15 1;
#X connect 21 0 19 0;
#X connect 22 0 23 0;
#X connect 23 0 21 0;
#X restore 30 72 pd loop1;
#N canvas 375 164 450 300 loop2 0;
#X obj 58 122 spigot;
#X obj 58 64 r \$0-midi-in;
#X obj 91 39 r \$0-midi-ch;
#X obj 58 175 *;
#X obj 58 147 / 127;
#X obj 58 237 s \$0-bus;
#X obj 178 122 spigot;
#X obj 178 64 r \$0-midi-in;
#X obj 211 39 r \$0-midi-ch;
#X obj 178 237 s \$0-bus;
#X obj 178 152 == 127;
#X obj 298 122 spigot;
#X obj 298 64 r \$0-midi-in;
#X obj 331 39 r \$0-midi-ch;
#X obj 298 147 / 127;
#X obj 298 257 s \$0-bus;
#X obj 298 170 - 0.5;
#X obj 298 200 * 2;
#X obj 91 94 == 2;
#X obj 211 94 == 50;
#X obj 331 94 == 18;
#X msg 178 207 mix8 2 mute \$1;
#X msg 298 227 pan8 2 \$1;
#X msg 58 207 mix8 2 volume \$1;
#X connect 0 0 4 0;
#X connect 1 0 0 0;
#X connect 2 0 18 0;
#X connect 3 0 23 0;
#X connect 4 0 3 0;
#X connect 4 0 3 1;
#X connect 6 0 10 0;
#X connect 7 0 6 0;
#X connect 8 0 19 0;
#X connect 10 0 21 0;
#X connect 11 0 14 0;
#X connect 12 0 11 0;
#X connect 13 0 20 0;
#X connect 14 0 16 0;
#X connect 16 0 17 0;
#X connect 17 0 22 0;
#X connect 18 0 0 1;
#X connect 19 0 6 1;
#X connect 20 0 11 1;
#X connect 21 0 9 0;
#X connect 22 0 15 0;
#X connect 23 0 5 0;
#X restore 30 102 pd loop2;
#N canvas 348 151 450 300 loop3 0;
#X obj 58 122 spigot;
#X obj 58 64 r \$0-midi-in;
#X obj 91 39 r \$0-midi-ch;
#X obj 58 175 *;
#X obj 58 147 / 127;
#X obj 58 237 s \$0-bus;
#X obj 178 122 spigot;
#X obj 178 64 r \$0-midi-in;
#X obj 211 39 r \$0-midi-ch;
#X obj 178 237 s \$0-bus;
#X obj 178 152 == 127;
#X obj 298 122 spigot;
#X obj 298 64 r \$0-midi-in;
#X obj 331 39 r \$0-midi-ch;
#X obj 298 147 / 127;
#X obj 298 257 s \$0-bus;
#X obj 298 170 - 0.5;
#X obj 298 200 * 2;
#X obj 91 94 == 3;
#X obj 211 94 == 51;
#X obj 331 94 == 19;
#X msg 58 207 mix8 3 volume \$1;
#X msg 178 207 mix8 3 mute \$1;
#X msg 298 227 pan8 3 \$1;
#X connect 0 0 4 0;
#X connect 1 0 0 0;
#X connect 2 0 18 0;
#X connect 3 0 21 0;
#X connect 4 0 3 0;
#X connect 4 0 3 1;
#X connect 6 0 10 0;
#X connect 7 0 6 0;
#X connect 8 0 19 0;
#X connect 10 0 22 0;
#X connect 11 0 14 0;
#X connect 12 0 11 0;
#X connect 13 0 20 0;
#X connect 14 0 16 0;
#X connect 16 0 17 0;
#X connect 17 0 23 0;
#X connect 18 0 0 1;
#X connect 19 0 6 1;
#X connect 20 0 11 1;
#X connect 21 0 5 0;
#X connect 22 0 9 0;
#X connect 23 0 15 0;
#X restore 30 132 pd loop3;
#N canvas 348 151 644 315 click 0;
#X obj 58 122 spigot;
#X obj 58 64 r \$0-midi-in;
#X obj 91 39 r \$0-midi-ch;
#X obj 58 175 *;
#X obj 58 147 / 127;
#X obj 58 237 s \$0-bus;
#X obj 178 122 spigot;
#X obj 178 64 r \$0-midi-in;
#X obj 211 39 r \$0-midi-ch;
#X obj 178 237 s \$0-bus;
#X obj 178 152 == 127;
#X obj 298 122 spigot;
#X obj 298 64 r \$0-midi-in;
#X obj 331 39 r \$0-midi-ch;
#X obj 298 147 / 127;
#X obj 298 257 s \$0-bus;
#X obj 298 170 - 0.5;
#X obj 298 200 * 2;
#X obj 91 94 == 4;
#X obj 211 94 == 52;
#X obj 331 94 == 20;
#X msg 58 207 mix8 4 volume \$1;
#X msg 178 207 mix8 4 mute \$1;
#X msg 298 227 pan8 4 \$1;
#X obj 426 125 spigot;
#X obj 426 67 r \$0-midi-in;
#X obj 459 42 r \$0-midi-ch;
#X obj 426 155 == 127;
#X obj 459 97 == 36;
#X obj 426 190 s \$0-click-start;
#X connect 0 0 4 0;
#X connect 1 0 0 0;
#X connect 2 0 18 0;
#X connect 3 0 21 0;
#X connect 4 0 3 0;
#X connect 4 0 3 1;
#X connect 6 0 10 0;
#X connect 7 0 6 0;
#X connect 8 0 19 0;
#X connect 10 0 22 0;
#X connect 11 0 14 0;
#X connect 12 0 11 0;
#X connect 13 0 20 0;
#X connect 14 0 16 0;
#X connect 16 0 17 0;
#X connect 17 0 23 0;
#X connect 18 0 0 1;
#X connect 19 0 6 1;
#X connect 20 0 11 1;
#X connect 21 0 5 0;
#X connect 22 0 9 0;
#X connect 23 0 15 0;
#X connect 24 0 27 0;
#X connect 25 0 24 0;
#X connect 26 0 28 0;
#X connect 27 0 29 0;
#X connect 28 0 24 1;
#X restore 30 162 pd click;
#N canvas 348 151 596 322 speed1 0;
#X obj 58 122 spigot;
#X obj 58 64 r \$0-midi-in;
#X obj 91 39 r \$0-midi-ch;
#X obj 91 94 == 5;
#X obj 94 183 f 1;
#X msg 58 229 speed \$1;
#X obj 58 200 +;
#X obj 124 147 loadbang;
#X obj 58 147 / 12700;
#X obj 242 63 r sp-v1;
#X obj 242 87 route speed;
#X obj 242 114 s \$0-speed1-r;
#X text 329 67 speed indicator;
#X obj 58 257 s sp-v1;
#X connect 0 0 8 0;
#X connect 1 0 0 0;
#X connect 2 0 3 0;
#X connect 3 0 0 1;
#X connect 4 0 6 1;
#X connect 5 0 13 0;
#X connect 6 0 5 0;
#X connect 7 0 4 0;
#X connect 8 0 6 0;
#X connect 9 0 10 0;
#X connect 10 0 11 0;
#X restore 30 192 pd speed1;
#N canvas 348 151 328 304 speed3 0;
#X obj 58 122 spigot;
#X obj 58 64 r \$0-midi-in;
#X obj 91 39 r \$0-midi-ch;
#X obj 94 183 f 1;
#X msg 58 229 speed \$1;
#X obj 58 200 +;
#X obj 124 147 loadbang;
#X obj 58 147 / 12700;
#X obj 207 38 r sp-v3;
#X obj 207 65 route speed;
#X obj 207 92 s \$0-speed3-r;
#X obj 58 257 s sp-v3;
#X obj 91 94 == 7;
#X connect 0 0 7 0;
#X connect 1 0 0 0;
#X connect 2 0 12 0;
#X connect 3 0 5 1;
#X connect 4 0 11 0;
#X connect 5 0 4 0;
#X connect 6 0 3 0;
#X connect 7 0 5 0;
#X connect 8 0 9 0;
#X connect 9 0 10 0;
#X connect 12 0 0 1;
#X restore 30 252 pd speed3;
#N canvas 348 151 353 299 speed2 0;
#X obj 58 122 spigot;
#X obj 58 64 r \$0-midi-in;
#X obj 91 39 r \$0-midi-ch;
#X obj 94 183 f 1;
#X msg 58 229 speed \$1;
#X obj 58 200 +;
#X obj 124 147 loadbang;
#X obj 58 147 / 12700;
#X obj 91 94 == 6;
#X obj 58 257 s sp-v2;
#X obj 228 54 r sp-v2;
#X obj 228 82 route speed;
#X obj 228 111 s \$0-speed2-r;
#X obj 128 257 s sp-v3;
#X connect 0 0 7 0;
#X connect 1 0 0 0;
#X connect 2 0 8 0;
#X connect 3 0 5 1;
#X connect 4 0 9 0;
#X connect 4 0 13 0;
#X connect 5 0 4 0;
#X connect 6 0 3 0;
#X connect 7 0 5 0;
#X connect 8 0 0 1;
#X connect 10 0 11 0;
#X connect 11 0 12 0;
#X restore 30 222 pd speed2;
#N canvas 348 151 207 261 play 0;
#X obj 58 122 spigot;
#X obj 58 64 r \$0-midi-in;
#X obj 91 39 r \$0-midi-ch;
#X obj 91 94 == 41;
#X obj 58 204 s \$0-play;
#X obj 58 162 sel 127;
#X connect 0 0 5 0;
#X connect 1 0 0 0;
#X connect 2 0 3 0;
#X connect 3 0 0 1;
#X connect 5 0 4 0;
#X restore 30 282 pd play;
#N canvas 348 151 202 272 stop 0;
#X obj 58 122 spigot;
#X obj 58 64 r \$0-midi-in;
#X obj 91 39 r \$0-midi-ch;
#X obj 91 94 == 42;
#X obj 58 211 s \$0-stop;
#X obj 58 162 sel 127;
#X connect 0 0 5 0;
#X connect 1 0 0 0;
#X connect 2 0 3 0;
#X connect 3 0 0 1;
#X connect 5 0 4 0;
#X restore 30 312 pd stop;
#N canvas 432 203 508 428 master 0;
#X obj 37 132 spigot;
#X obj 37 74 r \$0-midi-in;
#X obj 70 49 r \$0-midi-ch;
#X obj 37 185 *;
#X obj 37 157 / 127;
#X obj 37 277 s \$0-bus;
#X msg 37 247 volume \$1;
#X obj 70 104 == 16;
#X connect 0 0 4 0;
#X connect 1 0 0 0;
#X connect 2 0 7 0;
#X connect 3 0 6 0;
#X connect 4 0 3 0;
#X connect 4 0 3 1;
#X connect 6 0 5 0;
#X connect 7 0 0 1;
#X restore 120 40 pd master;
#N canvas 348 151 202 272 record 0;
#X obj 58 122 spigot;
#X obj 58 64 r \$0-midi-in;
#X obj 91 39 r \$0-midi-ch;
#X obj 91 94 == 45;
#X obj 58 211 s \$0-record;
#X obj 58 162 sel 127;
#X connect 0 0 5 0;
#X connect 1 0 0 0;
#X connect 2 0 3 0;
#X connect 3 0 0 1;
#X connect 5 0 4 0;
#X restore 30 342 pd record;
#N canvas 348 151 207 261 setup 0;
#X obj 58 122 spigot;
#X obj 58 64 r \$0-midi-in;
#X obj 91 39 r \$0-midi-ch;
#X obj 58 162 sel 127;
#X obj 91 94 == 60;
#X obj 58 204 s \$0-prepare-r;
#X connect 0 0 3 0;
#X connect 1 0 0 0;
#X connect 2 0 4 0;
#X connect 3 0 5 0;
#X connect 4 0 0 1;
#X restore 120 68 pd setup;
#X restore 30 126 pd nanokontrol2;
#X connect 0 0 1 0;
#X connect 0 1 2 0;
#X restore 275 532 pd midi_ctrl;
#N canvas 499 210 621 401 clean 0;
#X obj 62 35 inlet bang;
#X obj 79 331 s \$0-clear-loop;
#X obj 113 100 s \$0-init-array;
#X obj 263 118 \$0;
#X msg 263 148 \; \$1-loop-v1 const 0;
#X obj 263 66 t b b;
#X msg 321 90 1;
#X msg 358 90 0;
#X text 374 63 Mute/unmute master while array cleanup;
#X obj 321 66 del 300;
#X obj 263 90 del 300;
#X msg 96 130 \; sp-v1 loopbegin 0 \; sp-v2 loopbegin 0 \; sp-v3 loopbegin
0 \; sp-v1 loopend 1 \; sp-v2 loopend 1 \; sp-v3 loopend 1 \; sp-v1
stop \; sp-v2 stop \; sp-v3 stop \;;
#X obj 62 79 t b b b b;
#X obj 62 363 s \$0-clear-sync-loops;
#X obj 263 35 r \$0-clear-loop;
#X msg 404 122 \; sp-mix8 mute \$1 \; sp-mix8 3 mute 1 \; sp-mix8 3
volume 0;
#X connect 0 0 12 0;
#X connect 3 0 4 0;
#X connect 5 0 10 0;
#X connect 5 1 6 0;
#X connect 6 0 15 0;
#X connect 7 0 15 0;
#X connect 9 0 7 0;
#X connect 10 0 3 0;
#X connect 10 0 9 0;
#X connect 12 0 13 0;
#X connect 12 1 1 0;
#X connect 12 2 11 0;
#X connect 12 3 2 0;
#X connect 14 0 5 0;
#X restore 474 117 pd clean;
#X obj 846 74 bng 30 250 50 0 \$0-sync-all-s \$0-sync-all-r SYNC 0
-16 0 16 -262144 -1 -1;
#X obj 622 189 nbx 5 30 -1e+37 1e+37 0 0 \$0-speed2-s \$0-speed2-r
SPEED2 0 -16 0 20 -262144 -1 -1 1.00071 256;
#X obj 492 189 nbx 5 30 -1e+37 1e+37 0 0 \$0-speed1-s \$0-speed1-r
SPEED1 0 -16 0 20 -262144 -1 -1 1 256;
#X obj 752 189 nbx 5 30 -1e+37 1e+37 0 0 \$0-speed3-s \$0-speed3-r
SPEED3 0 -16 0 20 -262144 -1 -1 1.00071 256;
#N canvas 280 422 450 300 pedal 0;
#X obj 95 25 inlet;
#X obj 189 254 s \$0-record;
#X obj 189 40 r \$0-timebase;
#X obj 228 167 + 1;
#X obj 189 167 f 0;
#X obj 189 125 spigot;
#X msg 134 81 0;
#X msg 114 108 1;
#X obj 95 57 t b b b;
#X msg 95 131 0;
#X obj 222 88 pipe 5000;
#X obj 189 69 bang;
#X obj 189 204 sel 23;
#X connect 0 0 8 0;
#X connect 2 0 11 0;
#X connect 3 0 4 1;
#X connect 4 0 3 0;
#X connect 4 0 12 0;
#X connect 5 0 4 0;
#X connect 6 0 4 1;
#X connect 7 0 5 1;
#X connect 8 0 9 0;
#X connect 8 1 7 0;
#X connect 8 2 6 0;
#X connect 9 0 10 0;
#X connect 10 0 5 1;
#X connect 11 0 5 0;
#X connect 12 0 1 0;
#X restore 834 321 pd pedal;
#X text 416 350 1: Load presets;
#X text 416 370 2: Init patch;
#X text 416 430 5: start metro;
#X text 416 410 4: turn off metro volume;
#X text 416 390 3: move ALL sliders;
#X connect 3 0 18 0;
#X connect 3 1 23 1;
#X connect 3 2 23 2;
#X connect 3 3 23 3;
#X connect 3 4 16 0;
#X connect 3 8 23 8;
#X connect 5 0 37 0;
#X connect 6 0 32 0;
#X connect 9 0 3 0;
#X connect 9 1 3 1;
#X connect 9 2 3 2;
#X connect 9 3 3 3;
#X connect 9 4 3 4;
#X connect 9 5 3 5;
#X connect 9 6 3 6;
#X connect 9 7 3 7;
#X connect 9 8 3 8;
#X connect 15 0 14 1;
#X connect 22 0 21 0;
#X connect 23 0 10 0;
#X connect 23 1 10 1;
#X connect 23 2 10 2;
#X connect 30 0 29 0;
