#N canvas 109 40 1045 707 10;
#X declare -path ../;
#X declare -lib flatgui;
#X declare -lib mrpeach;
#X obj 33 36 sp-title Steve Reich: Viola Phase;
#X obj 45 273 declare -path ../;
#X obj 326 453 sp-gpan4~;
#N canvas 212 210 450 300 tables 0;
#X obj 36 129 table \$0-track1;
#X obj 210 69 poke~;
#X restore 91 197 pd tables;
#X obj 46 238 import mrpeach;
#X obj 608 245 sp-sooperlooper;
#X msg 608 179 record -1;
#X obj 818 286 nbx 10 14 -1e+37 1e+37 0 0 empty empty empty 0 -8 0
10 -262144 -1 -1 0.995 256;
#X obj 714 160 f 2;
#X obj 685 160 + 1;
#X msg 566 37 connect localhost 9951;
#X obj 734 87 sp-key -;
#X obj 667 87 sp-key +;
#X msg 685 129 0.001;
#X msg 734 127 -0.001;
#X msg 820 128 ping;
#X obj 608 311 print;
#X msg 685 198 stretch 1 \$1;
#X msg 824 228 stretch 1 1;
#X obj 365 598 dac~ 1 2 3 4;
#N canvas 294 441 269 183 sooperloop_in 0;
#X obj 63 46 inlet~;
#X obj 67 120 dac~ 6 7 8;
#X obj 122 45 inlet~;
#X obj 183 46 inlet~;
#X connect 0 0 1 0;
#X connect 2 0 1 1;
#X connect 3 0 1 2;
#X restore 164 495 pd sooperloop_in;
#N canvas 322 371 269 242 sooperloop_out 0;
#X obj 35 171 outlet~;
#X obj 110 171 outlet~;
#X obj 178 170 outlet~;
#X obj 35 78 adc~ 2 3 4;
#X connect 3 0 0 0;
#X connect 3 1 1 0;
#X connect 3 2 2 0;
#X restore 304 197 pd sooperloop_out;
#N canvas 368 193 450 300 viola_in 0;
#X obj 72 90 adc~ 1;
#X obj 72 128 outlet~;
#X connect 0 0 1 0;
#X restore 271 154 pd viola_in;
#X obj 924 50 sp-gcpu;
#X obj 608 82 bng 15 250 50 0 empty empty empty 17 7 0 10 -262144 -1
-1;
#X obj 824 196 bng 15 250 50 0 empty empty empty 17 7 0 10 -262144
-1 -1;
#X obj 915 229 del 100;
#X msg 915 257 1;
#X msg 494 152 record 2;
#X obj 494 115 bng 15 250 50 0 empty empty empty 17 7 0 10 -262144
-1 -1;
#X obj 271 241 sp-gmix8~ mix8;
#X obj 403 128 sp-metro 144;
#X obj 825 171 r \$0-accel-stop;
#X obj 472 182 f;
#X obj 506 182 + 1;
#X obj 520 594 bng 15 250 50 0 empty empty empty 17 7 0 10 -262144
-1 -1;
#X obj 545 597 bng 15 250 50 0 empty empty empty 17 7 0 10 -262144
-1 -1;
#X obj 578 606 bng 15 250 50 0 empty empty empty 17 7 0 10 -262144
-1 -1;
#X obj 624 614 bng 15 250 50 0 empty empty empty 17 7 0 10 -262144
-1 -1;
#X msg 182 204 \; sp-mix8 1 mute 1;
#X obj 652 605 bng 15 250 50 0 empty empty empty 17 7 0 10 -262144
-1 -1;
#X msg 490 98 0;
#X obj 541 483 spigot;
#X obj 571 386 tgl 15 0 empty empty empty 17 7 0 10 -262144 -1 -1 0
1;
#X msg 658 642 0;
#X obj 476 31 bng 15 250 50 0 empty empty empty 17 7 0 10 -262144 -1
-1;
#X msg 538 114 1;
#X msg 423 107 1;
#X obj 476 74 t b b b;
#X obj 472 211 mod 7;
#X obj 511 555 sel 0 1 2 3 6;
#X obj 713 396 sp-midiclock;
#X obj 713 346 tgl 15 0 empty empty empty 17 7 0 10 -262144 -1 -1 0
1;
#X msg 771 342 144;
#X connect 2 0 19 0;
#X connect 2 1 19 1;
#X connect 5 0 16 0;
#X connect 6 0 5 0;
#X connect 8 0 9 1;
#X connect 9 0 7 0;
#X connect 9 0 8 0;
#X connect 9 0 17 0;
#X connect 10 0 5 0;
#X connect 11 0 14 0;
#X connect 12 0 13 0;
#X connect 13 0 9 0;
#X connect 14 0 9 0;
#X connect 15 0 5 0;
#X connect 17 0 5 0;
#X connect 18 0 5 0;
#X connect 21 0 30 1;
#X connect 21 1 30 2;
#X connect 21 2 30 3;
#X connect 22 0 30 0;
#X connect 24 0 6 0;
#X connect 25 0 18 0;
#X connect 25 0 26 0;
#X connect 26 0 27 0;
#X connect 27 0 9 1;
#X connect 28 0 5 0;
#X connect 29 0 28 0;
#X connect 30 0 20 0;
#X connect 30 0 20 1;
#X connect 30 0 20 2;
#X connect 30 1 2 0;
#X connect 30 2 2 1;
#X connect 30 3 2 2;
#X connect 30 4 2 3;
#X connect 31 0 30 4;
#X connect 31 1 33 0;
#X connect 32 0 18 0;
#X connect 33 0 34 0;
#X connect 33 0 49 0;
#X connect 34 0 33 1;
#X connect 35 0 24 0;
#X connect 40 0 44 0;
#X connect 40 0 24 0;
#X connect 41 0 33 1;
#X connect 42 0 50 0;
#X connect 43 0 42 1;
#X connect 44 0 43 0;
#X connect 45 0 48 0;
#X connect 46 0 43 0;
#X connect 47 0 31 0;
#X connect 47 0 52 0;
#X connect 48 0 47 0;
#X connect 48 1 41 0;
#X connect 48 2 46 0;
#X connect 49 0 42 0;
#X connect 50 0 35 0;
#X connect 50 1 36 0;
#X connect 50 2 37 0;
#X connect 50 3 38 0;
#X connect 50 4 40 0;
#X connect 52 0 51 0;
#X connect 53 0 51 1;
