#N canvas 164 272 831 382 10;
#N canvas 50 97 395 421 EQ 0;
#X text 19 284 (K)Hz;
#X obj 50 52 vsl 30 200 0 1 0 1 \$0-EQslider0s \$0-EQslider0r empty
0 -9 0 10 -228856 -260097 -1 6200 0;
#X obj 80 52 vsl 30 200 0 1 0 1 \$0-EQslider1s \$0-EQslider1r empty
0 -9 0 10 -228856 -260097 -1 5400 0;
#X obj 110 52 vsl 30 200 0 1 0 1 \$0-EQslider2s \$0-EQslider2r empty
0 -9 0 10 -228856 -260097 -1 3300 0;
#X obj 140 52 vsl 30 200 0 1 0 1 \$0-EQslider3s \$0-EQslider3r empty
0 -9 0 10 -228856 -260097 -1 11200 0;
#X obj 170 52 vsl 30 200 0 1 0 1 \$0-EQslider4s \$0-EQslider4r empty
0 -9 0 10 -228856 -260097 -1 10700 0;
#X obj 200 52 vsl 30 200 0 1 0 1 \$0-EQslider5s \$0-EQslider5r empty
0 -9 0 10 -228856 -260097 -1 12100 0;
#X obj 230 52 vsl 30 200 0 1 0 1 \$0-EQslider6s \$0-EQslider6r empty
0 -9 0 10 -228856 -260097 -1 13600 0;
#X obj 260 52 vsl 30 200 0 1 0 1 \$0-EQslider7s \$0-EQslider7r empty
0 -9 0 10 -228856 -260097 -1 13000 0;
#X obj 290 52 vsl 30 200 0 1 0 1 \$0-EQslider8s \$0-EQslider8r empty
0 -9 0 10 -228856 -260097 -1 16700 0;
#X obj 320 52 vsl 30 200 0 1 0 1 \$0-EQslider9s \$0-EQslider9r empty
0 -9 0 10 -228856 -260097 -1 14400 0;
#X text 51 49 +12dB;
#X text 50 233 -12dB;
#X text 178 49 EQ;
#X text 55 142 0dB---------------------------------------------;
#N canvas 444 120 433 433 slidermapping.......................... 0
;
#X obj 21 29 inlet;
#X obj 61 29 inlet;
#X obj 100 29 inlet;
#X obj 140 29 inlet;
#X obj 179 29 inlet;
#X obj 219 29 inlet;
#X obj 258 29 inlet;
#X obj 298 29 inlet;
#X obj 337 29 inlet;
#X obj 377 29 inlet;
#X obj 130 113 list;
#X obj 130 356 outlet;
#X obj 130 141 unpack;
#X floatatom 184 158 3 0 0 0 - - -;
#X obj 123 181 cnv 15 200 140 empty empty empty 20 12 0 14 -233017
-66577 0;
#X obj 130 190 - 0.5;
#X obj 130 215 * 24;
#X floatatom 185 232 5 0 0 0 - - -;
#X floatatom 74 158 5 0 0 0 - - -;
#X obj 130 248 + 100;
#X obj 130 275 dbtorms;
#X floatatom 185 292 5 0 0 0 - - -;
#X obj 130 329 pack;
#X text 211 154 slider index;
#X text 32 155 value;
#X text 225 233 dB;
#X text 20 380 map slider range [0 1] to dB range and convert to RMS
amplitude;
#X text 225 292 RMS amplitude;
#X msg 21 59 \$1 0;
#X msg 61 59 \$1 1;
#X msg 100 59 \$1 2;
#X msg 140 59 \$1 3;
#X msg 179 59 \$1 4;
#X msg 219 59 \$1 5;
#X msg 258 59 \$1 6;
#X msg 298 59 \$1 7;
#X msg 337 59 \$1 8;
#X msg 377 59 \$1 9;
#X text 182 201 mapping -12 to +12 dB;
#X connect 0 0 28 0;
#X connect 1 0 29 0;
#X connect 2 0 30 0;
#X connect 3 0 31 0;
#X connect 4 0 32 0;
#X connect 5 0 33 0;
#X connect 6 0 34 0;
#X connect 7 0 35 0;
#X connect 8 0 36 0;
#X connect 9 0 37 0;
#X connect 10 0 12 0;
#X connect 12 0 15 0;
#X connect 12 0 18 0;
#X connect 12 1 22 1;
#X connect 12 1 13 0;
#X connect 15 0 16 0;
#X connect 16 0 17 0;
#X connect 16 0 19 0;
#X connect 19 0 20 0;
#X connect 20 0 21 0;
#X connect 20 0 22 0;
#X connect 22 0 11 0;
#X connect 28 0 10 0;
#X connect 29 0 10 0;
#X connect 30 0 10 0;
#X connect 31 0 10 0;
#X connect 32 0 10 0;
#X connect 33 0 10 0;
#X connect 34 0 10 0;
#X connect 35 0 10 0;
#X connect 36 0 10 0;
#X connect 37 0 10 0;
#X restore 63 309 pd slidermapping..........................;
#X obj 63 371 outlet;
#X obj 53 255 hsl 295 18 0 127 0 0 \$0-dummysend \$0-dummyreceive empty
-2 -8 0 10 -228856 -228856 -1 0 1;
#X floatatom 115 256 3 0 0 0 - - -;
#X floatatom 147 256 3 0 0 0 - - -;
#X floatatom 176 256 3 0 0 0 - - -;
#X floatatom 207 256 3 0 0 0 - - -;
#X floatatom 236 256 3 0 0 0 - - -;
#X floatatom 267 256 3 0 0 0 - - -;
#X floatatom 297 256 3 0 0 0 - - -;
#X floatatom 327 256 3 0 0 0 - - -;
#X floatatom 86 256 3 0 0 0 - - -;
#X text 50 256 (K)Hz;
#N canvas 68 269 473 427 centerfreqs------------- 0;
#X obj 151 145 samplerate~;
#X obj 151 170 / 2048;
#X obj 83 266 *;
#X obj 83 168 t b f;
#X obj 83 216 pow;
#X obj 83 145 * 0.99943;
#X obj 83 192 f 2;
#X obj 83 242 + 4;
#X obj 83 121 + 0.5;
#X obj 38 104 t f f;
#N canvas 489 206 298 300 round 0;
#X obj 29 19 inlet;
#X obj 29 47 moses 1000;
#X obj 29 74 / 10;
#X obj 29 131 int;
#X obj 29 156 * 10;
#X obj 29 262 outlet;
#X obj 86 129 int;
#X obj 86 74 / 100;
#X obj 86 156 / 10;
#X obj 29 105 + 0.5;
#X obj 86 104 + 0.5;
#X obj 86 194 moses 10;
#X obj 131 222 int;
#X connect 0 0 1 0;
#X connect 1 0 2 0;
#X connect 1 1 7 0;
#X connect 2 0 9 0;
#X connect 3 0 4 0;
#X connect 4 0 5 0;
#X connect 6 0 8 0;
#X connect 7 0 10 0;
#X connect 8 0 11 0;
#X connect 9 0 3 0;
#X connect 10 0 6 0;
#X connect 11 0 5 0;
#X connect 11 1 12 0;
#X connect 12 0 5 0;
#X restore 83 289 pd round;
#X obj 38 312 pack f f;
#X obj 38 27 loadbang;
#X obj 38 338 route 0 1 2 3 4 5 6 7 8 9;
#N canvas 417 344 314 260 forloop 0;
#X obj 54 13 inlet;
#X obj 54 41 t b b;
#X obj 54 163 f;
#X obj 84 163 + 1;
#X msg 69 136 0;
#X msg 54 71 10;
#X obj 54 198 outlet;
#X obj 54 107 until;
#X connect 0 0 1 0;
#X connect 1 0 5 0;
#X connect 1 1 4 0;
#X connect 2 0 3 0;
#X connect 2 0 6 0;
#X connect 3 0 2 1;
#X connect 4 0 2 1;
#X connect 5 0 7 0;
#X connect 7 0 2 0;
#X restore 38 80 pd forloop;
#X obj 38 53 t b b;
#X text 195 170 FFT size 2048 assumed;
#X text 115 240 start exponential curve at bin 4;
#X obj 38 7 bng 15 250 50 0 empty empty empty 17 7 0 10 -262144 -1
-1;
#X obj 38 391 outlet;
#X obj 83 391 outlet;
#X obj 128 391 outlet;
#X obj 173 391 outlet;
#X obj 218 391 outlet;
#X obj 263 391 outlet;
#X obj 308 391 outlet;
#X obj 353 391 outlet;
#X obj 398 391 outlet;
#X connect 0 0 1 0;
#X connect 1 0 2 1;
#X connect 2 0 10 0;
#X connect 3 0 6 0;
#X connect 3 1 4 1;
#X connect 4 0 7 0;
#X connect 5 0 3 0;
#X connect 6 0 4 0;
#X connect 7 0 2 0;
#X connect 8 0 5 0;
#X connect 9 0 11 0;
#X connect 9 1 8 0;
#X connect 10 0 11 1;
#X connect 11 0 13 0;
#X connect 12 0 15 0;
#X connect 13 1 19 0;
#X connect 13 2 20 0;
#X connect 13 3 21 0;
#X connect 13 4 22 0;
#X connect 13 5 23 0;
#X connect 13 6 24 0;
#X connect 13 7 25 0;
#X connect 13 8 26 0;
#X connect 13 9 27 0;
#X connect 14 0 9 0;
#X connect 15 0 14 0;
#X connect 15 1 0 0;
#X connect 18 0 12 0;
#X restore 50 15 pd centerfreqs-------------;
#X connect 1 0 15 0;
#X connect 2 0 15 1;
#X connect 3 0 15 2;
#X connect 4 0 15 3;
#X connect 5 0 15 4;
#X connect 6 0 15 5;
#X connect 7 0 15 6;
#X connect 8 0 15 7;
#X connect 9 0 15 8;
#X connect 10 0 15 9;
#X connect 15 0 16 0;
#X connect 28 0 26 0;
#X connect 28 1 18 0;
#X connect 28 2 19 0;
#X connect 28 3 20 0;
#X connect 28 4 21 0;
#X connect 28 5 22 0;
#X connect 28 6 23 0;
#X connect 28 7 24 0;
#X connect 28 8 25 0;
#X coords 0 -1 1 1 300 223 1 50 50;
#X restore 185 20 pd EQ;
#N canvas 16 248 361 235 inputsignal 0;
#X obj 73 57 adc~;
#X obj 38 19 inlet;
#X obj 94 19 inlet;
#X obj 151 20 inlet;
#X obj 207 19 inlet;
#X obj 73 87 +~;
#X obj 206 162 *~ 0;
#X obj 130 59 noise~;
#X obj 130 133 *~ 0;
#X obj 73 132 *~ 0;
#X obj 207 79 openpanel;
#X msg 207 107 open \$1 \, start;
#X obj 207 135 readsf~;
#X msg 254 52 stop;
#X obj 254 19 inlet;
#X obj 151 88 * 0.25;
#X obj 206 196 outlet~;
#X connect 0 0 5 0;
#X connect 0 1 5 1;
#X connect 1 0 6 1;
#X connect 2 0 9 1;
#X connect 3 0 15 0;
#X connect 4 0 10 0;
#X connect 5 0 9 0;
#X connect 6 0 16 0;
#X connect 7 0 8 0;
#X connect 8 0 6 0;
#X connect 9 0 6 0;
#X connect 10 0 11 0;
#X connect 11 0 12 0;
#X connect 12 0 6 0;
#X connect 13 0 12 0;
#X connect 14 0 13 0;
#X connect 15 0 8 1;
#X restore 21 157 pd inputsignal;
#X obj 185 261 r~ \$0-inputsignal;
#X obj 41 49 tgl 15 0 empty empty empty 17 7 0 10 -262144 -260097 -1
0 1;
#X obj 61 73 tgl 15 0 empty empty empty 17 7 0 10 -262144 -260097 -1
0 1;
#X obj 24 19 hsl 128 15 0 1 0 1 empty empty input-level 20 8 0 10 -262144
-260097 -1 12700 0;
#X obj 81 98 bng 15 250 50 0 empty empty empty 17 7 0 10 -262144 -1
-1;
#X obj 102 123 bng 15 250 50 0 empty empty empty 17 7 0 10 -262144
-1 -1;
#X text 119 119 stop;
#X text 60 46 adc~;
#X text 79 71 noise~;
#X text 101 94 readsf~;
#N canvas 202 428 299 158 dac~ 0;
#X obj 39 115 dac~;
#X obj 40 41 inlet~;
#X obj 97 40 inlet;
#X obj 39 87 *~ 0;
#X connect 1 0 3 0;
#X connect 2 0 3 1;
#X connect 3 0 0 0;
#X connect 3 0 0 1;
#X restore 184 341 pd dac~;
#X obj 226 316 hsl 128 15 0 1 0 0 empty empty output-level 20 8 0 10
-262144 -260097 -1 0 0;
#X floatatom 237 342 5 0 0 0 - - -;
#X obj 21 185 s~ \$0-inputsignal;
#X msg 22 289 \; pd dsp 1;
#X obj 22 263 loadbang;
#X msg 23 327 \; pd dsp 0;
#N canvas 488 126 395 421 EQ 0;
#X obj 50 52 vsl 30 200 0 1 0 1 \$0-EQslider0s \$0-EQslider0r empty
0 -9 0 10 -228856 -260097 -1 0 0;
#X obj 80 52 vsl 30 200 0 1 0 1 \$0-EQslider1s \$0-EQslider1r empty
0 -9 0 10 -228856 -260097 -1 0 0;
#X obj 110 52 vsl 30 200 0 1 0 1 \$0-EQslider2s \$0-EQslider2r empty
0 -9 0 10 -228856 -260097 -1 0 0;
#X obj 140 52 vsl 30 200 0 1 0 1 \$0-EQslider3s \$0-EQslider3r empty
0 -9 0 10 -228856 -260097 -1 0 0;
#X obj 170 52 vsl 30 200 0 1 0 1 \$0-EQslider4s \$0-EQslider4r empty
0 -9 0 10 -228856 -260097 -1 12000 0;
#X obj 200 52 vsl 30 200 0 1 0 1 \$0-EQslider5s \$0-EQslider5r empty
0 -9 0 10 -228856 -260097 -1 15100 0;
#X obj 230 52 vsl 30 200 0 1 0 1 \$0-EQslider6s \$0-EQslider6r empty
0 -9 0 10 -228856 -260097 -1 12600 0;
#X obj 260 52 vsl 30 200 0 1 0 1 \$0-EQslider7s \$0-EQslider7r empty
0 -9 0 10 -228856 -260097 -1 1200 0;
#X obj 290 52 vsl 30 200 0 1 0 1 \$0-EQslider8s \$0-EQslider8r empty
0 -9 0 10 -228856 -260097 -1 10400 0;
#X obj 320 52 vsl 30 200 0 1 0 1 \$0-EQslider9s \$0-EQslider9r empty
0 -9 0 10 -228856 -260097 -1 9600 0;
#N canvas 507 363 431 299 slidermapping.......................... 0
;
#X obj 21 29 inlet;
#X obj 61 29 inlet;
#X obj 100 29 inlet;
#X obj 140 29 inlet;
#X obj 179 29 inlet;
#X obj 219 29 inlet;
#X obj 258 29 inlet;
#X obj 298 29 inlet;
#X obj 337 29 inlet;
#X obj 377 29 inlet;
#X obj 140 113 list;
#X msg 21 59 \$1 0;
#X msg 61 59 \$1 1;
#X msg 100 59 \$1 2;
#X msg 140 59 \$1 3;
#X msg 179 59 \$1 4;
#X msg 219 59 \$1 5;
#X msg 258 59 \$1 6;
#X msg 298 59 \$1 7;
#X msg 337 59 \$1 8;
#X msg 377 59 \$1 9;
#X obj 140 233 outlet;
#X obj 140 139 unpack;
#X floatatom 82 156 5 0 0 0 - - -;
#X floatatom 198 156 5 0 0 0 - - -;
#X text 41 155 value;
#X text 234 155 index;
#X obj 140 170 * 2;
#X obj 140 200 pack;
#X text 23 255 Mapping 1 to 2: use slider values 0 - 1 for RMS values
0 - 2 in the filter.;
#X connect 0 0 11 0;
#X connect 1 0 12 0;
#X connect 2 0 13 0;
#X connect 3 0 14 0;
#X connect 4 0 15 0;
#X connect 5 0 16 0;
#X connect 6 0 17 0;
#X connect 7 0 18 0;
#X connect 8 0 19 0;
#X connect 9 0 20 0;
#X connect 10 0 22 0;
#X connect 11 0 10 0;
#X connect 12 0 10 0;
#X connect 13 0 10 0;
#X connect 14 0 10 0;
#X connect 15 0 10 0;
#X connect 16 0 10 0;
#X connect 17 0 10 0;
#X connect 18 0 10 0;
#X connect 19 0 10 0;
#X connect 20 0 10 0;
#X connect 22 0 23 0;
#X connect 22 0 27 0;
#X connect 22 1 24 0;
#X connect 22 1 28 1;
#X connect 27 0 28 0;
#X connect 28 0 21 0;
#X restore 63 309 pd slidermapping..........................;
#X obj 63 371 outlet;
#X text 53 235 0;
#X text 82 51 RMS amplitude;
#X text 55 49 2;
#X text 55 143 1 ---------------------------------------------;
#N canvas 66 264 473 427 centerfreqs------------- 0;
#X obj 151 145 samplerate~;
#X obj 151 170 / 2048;
#X obj 83 266 *;
#X obj 83 168 t b f;
#X obj 83 216 pow;
#X obj 83 145 * 0.99943;
#X obj 83 192 f 2;
#X obj 83 242 + 4;
#X obj 83 121 + 0.5;
#X obj 38 104 t f f;
#N canvas 489 206 298 300 round 0;
#X obj 29 19 inlet;
#X obj 29 47 moses 1000;
#X obj 29 74 / 10;
#X obj 29 131 int;
#X obj 29 156 * 10;
#X obj 29 262 outlet;
#X obj 86 129 int;
#X obj 86 74 / 100;
#X obj 86 156 / 10;
#X obj 29 105 + 0.5;
#X obj 86 104 + 0.5;
#X obj 86 194 moses 10;
#X obj 131 222 int;
#X connect 0 0 1 0;
#X connect 1 0 2 0;
#X connect 1 1 7 0;
#X connect 2 0 9 0;
#X connect 3 0 4 0;
#X connect 4 0 5 0;
#X connect 6 0 8 0;
#X connect 7 0 10 0;
#X connect 8 0 11 0;
#X connect 9 0 3 0;
#X connect 10 0 6 0;
#X connect 11 0 5 0;
#X connect 11 1 12 0;
#X connect 12 0 5 0;
#X restore 83 289 pd round;
#X obj 38 312 pack f f;
#X obj 38 27 loadbang;
#X obj 38 338 route 0 1 2 3 4 5 6 7 8 9;
#N canvas 417 344 314 260 forloop 0;
#X obj 54 13 inlet;
#X obj 54 41 t b b;
#X obj 54 163 f;
#X obj 84 163 + 1;
#X msg 69 136 0;
#X msg 54 71 10;
#X obj 54 198 outlet;
#X obj 54 107 until;
#X connect 0 0 1 0;
#X connect 1 0 5 0;
#X connect 1 1 4 0;
#X connect 2 0 3 0;
#X connect 2 0 6 0;
#X connect 3 0 2 1;
#X connect 4 0 2 1;
#X connect 5 0 7 0;
#X connect 7 0 2 0;
#X restore 38 80 pd forloop;
#X obj 38 53 t b b;
#X text 195 170 FFT size 2048 assumed;
#X text 115 240 start exponential curve at bin 4;
#X obj 38 7 bng 15 250 50 0 empty empty empty 17 7 0 10 -262144 -1
-1;
#X obj 38 391 outlet;
#X obj 83 391 outlet;
#X obj 128 391 outlet;
#X obj 173 391 outlet;
#X obj 218 391 outlet;
#X obj 263 391 outlet;
#X obj 308 391 outlet;
#X obj 353 391 outlet;
#X obj 398 391 outlet;
#X connect 0 0 1 0;
#X connect 1 0 2 1;
#X connect 2 0 10 0;
#X connect 3 0 6 0;
#X connect 3 1 4 1;
#X connect 4 0 7 0;
#X connect 5 0 3 0;
#X connect 6 0 4 0;
#X connect 7 0 2 0;
#X connect 8 0 5 0;
#X connect 9 0 11 0;
#X connect 9 1 8 0;
#X connect 10 0 11 1;
#X connect 11 0 13 0;
#X connect 12 0 15 0;
#X connect 13 1 19 0;
#X connect 13 2 20 0;
#X connect 13 3 21 0;
#X connect 13 4 22 0;
#X connect 13 5 23 0;
#X connect 13 6 24 0;
#X connect 13 7 25 0;
#X connect 13 8 26 0;
#X connect 13 9 27 0;
#X connect 14 0 9 0;
#X connect 15 0 14 0;
#X connect 15 1 0 0;
#X connect 18 0 12 0;
#X restore 51 14 pd centerfreqs-------------;
#X obj 53 255 hsl 295 18 0 127 0 0 \$0-dummysend \$0-dummyreceive empty
-2 -8 0 10 -228856 -228856 -1 0 1;
#X floatatom 115 256 3 0 0 0 - - -;
#X floatatom 148 256 3 0 0 0 - - -;
#X floatatom 177 256 3 0 0 0 - - -;
#X floatatom 208 256 3 0 0 0 - - -;
#X floatatom 237 256 3 0 0 0 - - -;
#X floatatom 269 256 3 0 0 0 - - -;
#X floatatom 297 256 3 0 0 0 - - -;
#X floatatom 327 256 3 0 0 0 - - -;
#X floatatom 86 256 3 0 0 0 - - -;
#X text 50 256 (K)Hz;
#X connect 0 0 10 0;
#X connect 1 0 10 1;
#X connect 2 0 10 2;
#X connect 3 0 10 3;
#X connect 4 0 10 4;
#X connect 5 0 10 5;
#X connect 6 0 10 6;
#X connect 7 0 10 7;
#X connect 8 0 10 8;
#X connect 9 0 10 9;
#X connect 10 0 11 0;
#X connect 16 0 26 0;
#X connect 16 1 18 0;
#X connect 16 2 19 0;
#X connect 16 3 20 0;
#X connect 16 4 21 0;
#X connect 16 5 22 0;
#X connect 16 6 23 0;
#X connect 16 7 24 0;
#X connect 16 8 25 0;
#X coords 0 -1 1 1 300 223 1 50 50;
#X restore 506 20 pd EQ;
#X obj 507 263 r~ \$0-inputsignal;
#N canvas 202 428 299 158 dac~ 0;
#X obj 39 115 dac~;
#X obj 40 41 inlet~;
#X obj 97 40 inlet;
#X obj 39 87 *~ 0;
#X connect 1 0 3 0;
#X connect 2 0 3 1;
#X connect 3 0 0 0;
#X connect 3 0 0 1;
#X restore 506 344 pd dac~;
#X obj 548 319 hsl 128 15 0 1 0 0 empty empty output-level 20 8 0 10
-262144 -260097 -1 0 0;
#X floatatom 559 345 5 0 0 0 - - -;
#X text 346 247 regular EQ;
#X text 666 247 'kill filter' type;
#X obj 21 213 cnv 15 70 40 empty empty empty 20 12 0 14 -260097 -66577
0;
#N canvas 447 223 400 468 info 0;
#X text 18 80 The abstraction itself is without GUI. You may design
a GUI that suits your needs or just copy one from this help patch.
Note that [partconvEQ10~] takes RMS amplitude values for the level
of each band \, and dB type GUI's need a mapping (open 'regular EQ'
GUI to see a mapping example).;
#X obj 23 412 pddplink http://www.katjaas.nl/minimumphase/minimumphase.html
;
#X text 21 393 [partconvEQ10~] Katja Vetter Aug 2013;
#X text 18 160 RMS amplitude values should be positive numbers \, where
1 is unity gain (no attenuation or amplification). When not initialized
\, [partconvEQ10~] will be set to unity amplitude for all bands.;
#X text 19 232 Calculation of a minimum-phase filter kernel is CPU
intensive \, so there will be a CPU load spike whenever the filter
settings are updated. Inbetween those moments the routine should be
a modest CPU time consumer \, around 1% load on an average laptop.
;
#X text 19 16 [partconvEQ10~] does low-latency FIR filtering using
partitioned convolution with a minimum-phase kernel. At the right inlet
it takes a list with RMS amplitude value and EQ slider index for filterbands
0 - 9;
#X text 23 320 Pd-extended objects in the abstraction: [bsaylor/partconv~]
\, [cyclone/speedlim] \, [iemlib/for++].;
#X restore 34 226 pd info;
#X obj 185 291 partconvEQ10~;
#X obj 507 291 partconvEQ10~;
#X connect 0 0 28 1;
#X connect 1 0 15 0;
#X connect 2 0 28 0;
#X connect 3 0 1 1;
#X connect 4 0 1 2;
#X connect 5 0 1 0;
#X connect 6 0 1 3;
#X connect 7 0 1 4;
#X connect 13 0 14 0;
#X connect 13 0 12 1;
#X connect 17 0 16 0;
#X connect 19 0 29 1;
#X connect 20 0 29 0;
#X connect 22 0 23 0;
#X connect 22 0 21 1;
#X connect 28 0 12 0;
#X connect 29 0 21 0;
