#N canvas 243 109 765 505 10;
#X obj 321 18 inlet;
#X obj 35 48 table arr-1-sample;
#X obj 35 78 table arr-2-sample;
#X obj 35 108 table arr-3-sample;
#X obj 35 138 table arr-4-sample;
#X obj 35 168 table arr-5-sample;
#X obj 35 198 table arr-6-sample;
#X obj 155 48 table arr-7-sample;
#X obj 155 78 table arr-8-sample;
#X obj 155 108 table arr-9-sample;
#X obj 155 138 table arr-10-sample;
#X obj 155 168 table arr-11-sample;
#X obj 155 198 table arr-12-sample;
#X msg 354 99 read -resize \$1.wav arr-\$1-sample;
#X obj 367 35 bng 15 250 50 0 empty empty empty 17 7 0 10 -262144 -1
-1;
#X obj 354 131 soundfiler;
#X obj 321 64 uzi 14;
#X obj 35 228 table arr-13-sample;
#X obj 35 258 table arr-14-sample;
#X obj 35 288 table arr-15-sample;
#X obj 35 318 table arr-16-sample;
#X obj 35 348 table arr-17-sample;
#X obj 35 378 table arr-18-sample;
#X obj 155 228 table arr-19-sample;
#X obj 155 258 table arr-20-sample;
#X obj 155 288 table arr-21-sample;
#X obj 155 318 table arr-22-sample;
#X obj 155 348 table arr-23-sample;
#X obj 155 378 table arr-24-sample;
#X connect 0 0 16 0;
#X connect 13 0 15 0;
#X connect 14 0 16 0;
#X connect 16 2 13 0;
