#N canvas 147 82 1031 661 12;
#X obj 83 -39 loadbang;
#X obj 83 9 samplerate~;
#X obj 83 37 expr $f1*2;
#X obj 59 -38 bng 15 250 50 0 empty empty empty 17 7 0 10 -262144 -1
-1;
#X text 403 163 B0;
#X text 403 196 B1;
#X text 403 232 B2;
#X obj 237 381 f;
#X obj 275 380 / 1;
#X obj 325 381 f;
#X obj 363 380 / 1;
#X obj 453 379 f;
#X obj 271 490 / 1;
#X obj 325 447 f;
#X obj 363 446 / 1;
#X obj 414 447 f;
#X obj 271 556 / 1;
#X obj 216 463 t b b;
#X floatatom 429 164 10 0 0 0 - - -;
#X floatatom 429 198 10 0 0 0 - - -;
#X floatatom 429 230 10 0 0 0 - - -;
#X obj 325 486 pack f f f f f;
#X text 333 509 fb1 fb2 ff1 ff2 ff3;
#X obj 100 163 expr $f1+($f2*$f4)+($f3*pow($f4 \, 2));
#X obj 115 196 expr (2*$f1)-(2*$f2*pow($f3 \, 2));
#X obj 134 228 expr $f1-($f2*$f4)+($f3*pow($f4 \, 2));
#X obj 234 69 t b f;
#X obj 298 70 t b f;
#X obj 102 99 t b f;
#X text 408 14 /;
#X floatatom 927 227 10 0 0 0 - - -;
#X floatatom 927 261 10 0 0 0 - - -;
#X floatatom 927 293 10 0 0 0 - - -;
#X obj 598 226 expr $f1+($f2*$f4)+($f3*pow($f4 \, 2));
#X obj 613 259 expr (2*$f1)-(2*$f2*pow($f3 \, 2));
#X obj 632 291 expr $f1-($f2*$f4)+($f3*pow($f4 \, 2));
#X obj 730 103 t b f;
#X obj 794 104 t b f;
#X obj 593 175 t b f;
#X obj 217 14 f;
#X obj 282 14 f;
#X obj 347 14 f;
#X obj 420 14 f;
#X obj 485 14 f;
#X obj 550 14 f;
#X text 436 -40 /;
#X text 901 226 A0;
#X text 901 259 A1;
#X text 901 295 A2;
#X obj 196 -14 t b f;
#X obj 267 -13 t b f;
#X obj 339 -12 t b f;
#X obj 423 -14 t b f;
#X obj 495 -14 t b f;
#X obj 566 -13 t b f;
#X obj 325 588 outlet;
#X obj 195 -40 inlet \$0-b0;
#X obj 280 -40 inlet \$0-b1;
#X obj 365 -40 inlet \$0-b2;
#X obj 450 -40 inlet \$0-a0;
#X obj 535 -40 inlet \$0-a1;
#X obj 620 -40 inlet \$0-a2;
#X obj 33 163 s \$0-B0;
#X obj 56 196 s \$0-B1;
#X obj 75 227 s \$0-B2;
#X obj 531 226 s \$0-A0;
#X obj 517 259 s \$0-A1;
#X obj 536 290 s \$0-A2;
#X obj 204 352 r \$0-B0;
#X obj 260 352 r \$0-A0;
#X obj 325 352 r \$0-B1;
#X obj 382 352 r \$0-A0;
#X obj 298 418 r \$0-A1;
#X obj 356 418 r \$0-A0;
#X obj 425 418 r \$0-A2;
#X obj 262 462 r \$0-A0;
#X obj 271 528 r \$0-A0;
#X obj 471 352 r \$0-B2;
#X obj 11 -18 inlet;
#X text 123 312 bang !;
#X obj 576 258 * -1;
#X obj 594 290 * -1;
#X obj 34 37 s \$0-c;
#X obj 593 144 r \$0-c;
#X obj 456 72 s \$0-calc;
#X obj 196 424 r \$0-calc;
#X floatatom 32 87 10 0 0 0 - - -;
#X text 559 397 Converts continuous time transfer function coefficients
into descrete time transfer function coefficients following "Simplified
\, physically-informed models of distorsion and overdrive guitar effects
pedals" article by D.T.Yeh and al. (http://ccrma.stanford.edu/~dtyeh/papers/pubs.html").
Not for commercial use.;
#X connect 0 0 1 0;
#X connect 1 0 2 0;
#X connect 1 0 86 0;
#X connect 2 0 25 3;
#X connect 2 0 28 0;
#X connect 2 0 82 0;
#X connect 3 0 1 0;
#X connect 7 0 8 0;
#X connect 8 0 21 2;
#X connect 9 0 10 0;
#X connect 10 0 21 3;
#X connect 11 0 12 0;
#X connect 12 0 21 4;
#X connect 13 0 14 0;
#X connect 14 0 21 0;
#X connect 15 0 16 0;
#X connect 16 0 21 1;
#X connect 17 0 13 0;
#X connect 17 1 9 0;
#X connect 17 1 11 0;
#X connect 17 1 7 0;
#X connect 17 1 15 0;
#X connect 21 0 55 0;
#X connect 23 0 18 0;
#X connect 23 0 62 0;
#X connect 24 0 19 0;
#X connect 24 0 63 0;
#X connect 25 0 20 0;
#X connect 25 0 64 0;
#X connect 26 0 23 0;
#X connect 26 0 24 0;
#X connect 26 0 25 0;
#X connect 26 1 23 1;
#X connect 26 1 25 1;
#X connect 27 0 23 0;
#X connect 27 0 24 0;
#X connect 27 0 25 0;
#X connect 27 1 23 2;
#X connect 27 1 24 1;
#X connect 27 1 25 2;
#X connect 28 0 23 0;
#X connect 28 0 24 0;
#X connect 28 0 25 0;
#X connect 28 1 23 3;
#X connect 28 1 24 2;
#X connect 28 1 25 3;
#X connect 33 0 30 0;
#X connect 33 0 65 0;
#X connect 34 0 31 0;
#X connect 34 0 80 0;
#X connect 35 0 32 0;
#X connect 35 0 81 0;
#X connect 36 0 33 0;
#X connect 36 0 34 0;
#X connect 36 0 35 0;
#X connect 36 1 33 1;
#X connect 36 1 35 1;
#X connect 37 0 33 0;
#X connect 37 0 34 0;
#X connect 37 0 35 0;
#X connect 37 1 33 2;
#X connect 37 1 34 1;
#X connect 37 1 35 2;
#X connect 38 0 33 0;
#X connect 38 0 34 0;
#X connect 38 0 35 0;
#X connect 38 1 33 3;
#X connect 38 1 34 2;
#X connect 38 1 35 3;
#X connect 39 0 23 0;
#X connect 39 0 24 0;
#X connect 39 0 25 0;
#X connect 40 0 26 0;
#X connect 41 0 27 0;
#X connect 42 0 33 0;
#X connect 42 0 34 0;
#X connect 42 0 35 0;
#X connect 43 0 36 0;
#X connect 44 0 37 0;
#X connect 49 0 84 0;
#X connect 49 1 39 0;
#X connect 50 0 84 0;
#X connect 50 1 40 0;
#X connect 51 0 84 0;
#X connect 51 1 41 0;
#X connect 52 0 84 0;
#X connect 52 1 42 0;
#X connect 53 0 84 0;
#X connect 53 1 43 0;
#X connect 54 0 84 0;
#X connect 54 1 44 0;
#X connect 56 0 49 0;
#X connect 57 0 50 0;
#X connect 58 0 51 0;
#X connect 59 0 52 0;
#X connect 60 0 53 0;
#X connect 61 0 54 0;
#X connect 68 0 7 1;
#X connect 69 0 8 1;
#X connect 70 0 9 1;
#X connect 71 0 10 1;
#X connect 72 0 13 1;
#X connect 73 0 14 1;
#X connect 74 0 15 1;
#X connect 75 0 12 1;
#X connect 76 0 16 1;
#X connect 77 0 11 1;
#X connect 78 0 17 0;
#X connect 80 0 66 0;
#X connect 81 0 67 0;
#X connect 83 0 38 0;
