#N canvas 333 26 445 343 10;
#X obj 135 32 inlet;
#X obj 43 93 tgl 15 0 empty empty empty 17 7 0 10 -262144 -1 -1 0 1
;
#X msg 243 181 addsemi;
#X msg 231 156 set;
#X obj 217 126 t b f b b b;
#X msg 244 242 \; 1010-display label right 1029-display label 1007-display
label;
#X obj 143 183 sel 1;
#X msg 143 234 add2 right;
#X msg 133 210 add2 left;
#X obj 61 93 cnv 15 60 17 empty \$0-display right 5 8 0 12 -262144
-66577 0;
#X obj 229 59 loadbang;
#X obj 226 100 f \$0;
#X msg 218 205 add2 \$1-display label;
#X obj 46 181 + 1;
#X obj 74 181 mod 2;
#X obj 31 32 inlet~;
#X obj 75 32 inlet~;
#X obj 77 152 *~;
#X obj 98 284 outlet~;
#X obj 30 231 *~;
#X obj 57 210 sig~;
#X obj 83 127 sig~;
#X connect 0 0 1 0;
#X connect 1 0 4 0;
#X connect 1 0 13 0;
#X connect 1 0 21 0;
#X connect 2 0 5 0;
#X connect 3 0 5 0;
#X connect 4 0 5 0;
#X connect 4 1 6 0;
#X connect 4 2 11 0;
#X connect 4 3 2 0;
#X connect 4 4 3 0;
#X connect 6 0 7 0;
#X connect 6 1 8 0;
#X connect 7 0 5 0;
#X connect 8 0 5 0;
#X connect 10 0 11 0;
#X connect 11 0 12 0;
#X connect 12 0 5 0;
#X connect 13 0 14 0;
#X connect 14 0 20 0;
#X connect 15 0 19 0;
#X connect 16 0 17 0;
#X connect 17 0 18 0;
#X connect 19 0 18 0;
#X connect 20 0 19 1;
#X connect 21 0 17 1;
#X coords 0 -1 1 1 83 21 2 40 90;
