#N canvas 111 37 718 832 12;
#X text 1073 58 gain=0;
#X obj 793 -24 rzero~ 1;
#X obj 793 4 rzero~ 1;
#X obj 797 46 bng 15 250 50 0 empty empty empty 17 7 0 10 -262144 -1
-1;
#X floatatom 875 185 10 0 0 0 - - -;
#X obj 1021 113 samplerate~;
#X obj 794 67 t b b;
#X obj 750 212 rpole~;
#X obj 789 146 expr (-1)*((($f1/($f2*$f2))-2)/(($f1/($f2*$f2))+2))
;
#X floatatom 959 298 10 0 0 0 - - -;
#X obj 1105 226 samplerate~;
#X obj 873 226 expr 600*2*3.14159;
#X obj 873 259 expr (-1)*((($f1/($f2*$f2))-2)/(($f1/($f2*$f2))+2))
;
#X obj 789 113 expr 3*2*3.14159;
#X obj 834 311 rpole~;
#X obj 169 6 loadbang;
#X obj 177 81 expr $f1*2;
#X obj 159 141 expr pow($f1 \, 2);
#X text 282 141 B0;
#X obj 174 174 expr $f1*(-2);
#X text 282 174 B1;
#X obj 250 208 f;
#X text 282 210 B2;
#X obj 153 294 expr $f1*$f2*4*pow(3.14159 \, 2);
#X obj 153 330 expr 6.28319*($f1+$f2);
#X msg 163 265 3;
#X obj 170 401 f;
#X obj 205 401 f;
#X obj 122 226 t b b b;
#X obj 155 445 expr $f1+($f2*$f3)+pow($f3 \, 2);
#X text 374 293 w1.w2 (a0);
#X text 374 329 w1+w2 (a1);
#X text 377 445 A0;
#X text 377 478 A1;
#X text 377 511 A2;
#X obj 155 511 expr $f1-($f2*$f3)+pow($f3 \, 2);
#X obj 122 359 t b b b;
#X obj 134 580 f;
#X obj 172 579 / 1;
#X obj 222 580 f;
#X obj 260 579 / 1;
#X obj 311 580 f;
#X obj 349 579 / 1;
#X obj 220 668 f;
#X obj 258 667 / 1;
#X obj 309 668 f;
#X obj 347 667 / 1;
#X obj 122 662 t b b;
#X obj 155 478 expr (2*$f1)-(2*pow($f3 \, 2));
#X obj 39 689 biquad~;
#X obj 220 707 pack f f f f f;
#X obj 118 478 * -1;
#X obj 118 510 * -1;
#X obj 122 18 t b b;
#X msg 337 265 600;
#X text 195 265 f1;
#X text 316 265 f2;
#X text 228 730 fb1 fb2 ff1 ff2 ff3;
#X obj 38 -21 inlet~;
#X obj 38 730 outlet~;
#X floatatom 241 50 10 0 0 0 - - -;
#X obj 154 50 samplerate~;
#X obj 129 -6 bng 15 250 50 0 empty empty empty 17 7 0 10 -262144 -1
-1;
#X obj 251 -20 inlet;
#X obj 95 445 s \$0-A0;
#X obj 58 478 s \$0-A1;
#X obj 58 511 s \$0-A2;
#X obj 94 551 r \$0-B0;
#X obj 152 551 r \$0-A0;
#X obj 209 551 r \$0-B1;
#X obj 265 551 r \$0-A0;
#X obj 322 551 r \$0-B2;
#X obj 380 551 r \$0-A0;
#X obj 190 639 r \$0-A1;
#X obj 248 639 r \$0-A0;
#X obj 309 639 r \$0-A2;
#X obj 367 639 r \$0-A0;
#X obj 102 141 s \$0-B0;
#X obj 115 174 s \$0-B1;
#X obj 191 207 s \$0-B2;
#X obj 177 111 s \$0-c;
#X obj 345 410 r \$0-c;
#N canvas 0 22 450 300 (subpatch) 0;
#X array \$0-plot 200 float 0;
#X coords 0 1 199 -1 200 200 1;
#X restore 418 27 graph;
#X obj 232 751 filterplot.mmb \$0-plot;
#X msg 461 675 phase \$1;
#X obj 461 645 tgl 15 0 empty empty empty 17 7 0 10 -262144 -1 -1 0
1;
#X msg 466 734 units \$1;
#X obj 466 713 tgl 15 0 empty empty empty 17 7 0 10 -262144 -1 -1 0
1;
#X msg 553 695 dbrange \$1;
#X floatatom 553 670 5 0 0 0 - - -;
#X floatatom 560 728 5 0 0 0 - - -;
#X msg 560 749 amprange \$1;
#X obj 563 625 loadbang;
#X msg 606 720 23;
#X text 375 215 -40db;
#X obj 350 605 * 64;
#X obj 268 605 * 64;
#X obj 172 606 * 64;
#X text 382 17 40db;
#X obj 464 507 f \$1;
#X msg 605 663 40;
#X obj 490 466 bng 15 250 50 0 empty empty empty 17 7 0 10 -262144
-1 -1;
#X connect 1 0 2 0;
#X connect 2 0 7 0;
#X connect 3 0 6 0;
#X connect 5 0 8 1;
#X connect 6 0 11 0;
#X connect 6 0 13 0;
#X connect 6 1 5 0;
#X connect 6 1 10 0;
#X connect 7 0 14 0;
#X connect 8 0 4 0;
#X connect 8 0 7 1;
#X connect 10 0 12 1;
#X connect 11 0 12 0;
#X connect 12 0 9 0;
#X connect 12 0 14 1;
#X connect 13 0 8 0;
#X connect 15 0 53 0;
#X connect 16 0 17 0;
#X connect 16 0 80 0;
#X connect 17 0 19 0;
#X connect 17 0 21 0;
#X connect 17 0 77 0;
#X connect 19 0 78 0;
#X connect 21 0 79 0;
#X connect 23 0 26 1;
#X connect 24 0 27 1;
#X connect 25 0 23 0;
#X connect 25 0 24 0;
#X connect 26 0 29 0;
#X connect 26 0 35 0;
#X connect 26 0 48 0;
#X connect 27 0 29 1;
#X connect 27 0 35 1;
#X connect 28 0 36 0;
#X connect 28 1 25 0;
#X connect 28 2 54 0;
#X connect 29 0 64 0;
#X connect 35 0 52 0;
#X connect 36 0 47 0;
#X connect 36 1 26 0;
#X connect 36 2 27 0;
#X connect 37 0 38 0;
#X connect 38 0 97 0;
#X connect 39 0 40 0;
#X connect 40 0 96 0;
#X connect 41 0 42 0;
#X connect 42 0 95 0;
#X connect 43 0 44 0;
#X connect 44 0 50 0;
#X connect 45 0 46 0;
#X connect 46 0 50 1;
#X connect 47 0 43 0;
#X connect 47 1 39 0;
#X connect 47 1 41 0;
#X connect 47 1 37 0;
#X connect 47 1 45 0;
#X connect 48 0 51 0;
#X connect 49 0 59 0;
#X connect 50 0 49 0;
#X connect 50 0 83 0;
#X connect 51 0 65 0;
#X connect 52 0 66 0;
#X connect 53 0 28 0;
#X connect 53 1 61 0;
#X connect 53 1 99 0;
#X connect 54 0 23 1;
#X connect 54 0 24 1;
#X connect 58 0 49 0;
#X connect 61 0 16 0;
#X connect 61 0 60 0;
#X connect 62 0 53 0;
#X connect 63 0 53 0;
#X connect 67 0 37 1;
#X connect 68 0 38 1;
#X connect 69 0 39 1;
#X connect 70 0 40 1;
#X connect 71 0 41 1;
#X connect 72 0 42 1;
#X connect 73 0 43 1;
#X connect 74 0 44 1;
#X connect 75 0 45 1;
#X connect 76 0 46 1;
#X connect 81 0 29 2;
#X connect 81 0 35 2;
#X connect 81 0 48 2;
#X connect 84 0 83 1;
#X connect 85 0 84 0;
#X connect 86 0 83 1;
#X connect 87 0 86 0;
#X connect 88 0 83 1;
#X connect 89 0 88 0;
#X connect 90 0 91 0;
#X connect 91 0 83 1;
#X connect 92 0 89 0;
#X connect 92 0 100 0;
#X connect 93 0 91 0;
#X connect 95 0 50 4;
#X connect 96 0 50 3;
#X connect 97 0 50 2;
#X connect 99 0 95 1;
#X connect 99 0 96 1;
#X connect 99 0 97 1;
#X connect 100 0 88 0;
#X connect 101 0 99 0;
