#N canvas 390 80 663 818 12;
#X obj 43 83 biquad~;
#X obj 211 130 f;
#X obj 243 130 f;
#X obj 145 41 t b l;
#X obj 132 596 bng 15 250 50 0 empty empty empty 17 7 0 10 -262144
-1 -1;
#X obj 43 -30 inlet~;
#X obj 44 672 outlet~;
#X obj 62 360 s \$0-b0;
#X obj 145 448 s \$0-a0;
#X obj 145 480 s \$0-a1;
#X obj 145 512 s \$0-a2;
#X obj 63 546 r \$0-b0;
#X obj 119 546 r \$0-b1;
#X obj 175 546 r \$0-b2;
#X obj 236 546 r \$0-a0;
#X obj 292 546 r \$0-a1;
#X obj 348 546 r \$0-a2;
#X obj 162 643 filterplot.mmb \$0-plot;
#N canvas 0 22 450 300 (subpatch) 0;
#X array \$0-plot 200 float 0;
#X coords 0 1 199 0 200 140 1;
#X restore 423 305 graph;
#X msg 428 592 dbrange \$1;
#X floatatom 428 567 5 0 0 0 - - -;
#X obj 438 522 loadbang;
#X obj 165 593 bilinear;
#X obj 145 -29 loadbang;
#X text 216 104 R1;
#X text 248 104 Cz;
#X obj 145 78 t b b b;
#X obj 153 679 pack f f f f f f;
#X obj 43 54 hip~ 720;
#X obj 206 448 f 0;
#X obj 207 512 f 1;
#X text 357 682 numbering follows the article;
#X msg 407 196 4700 4.7e-08 301033 5.1e-11;
#X obj 322 -30 inlet;
#X text 286 -30 Dist;
#X msg 407 76 4700 4.7e-08;
#X msg 407 104 add2 \$1 \$2;
#X obj 467 -10 hsl 128 15 0 1 0 0 empty empty empty -2 -8 0 10 -262144
-1 -1 0 1;
#X floatatom 519 14 5 0 0 0 - - -;
#X obj 428 134 expr 51000+($f1*500000);
#X msg 428 160 add2 \$1 5.1e-11;
#X obj 282 130 f;
#X obj 314 130 f;
#X text 319 104 Cc;
#X text 287 104 R2;
#X obj 230 172 expr $f1*$f2;
#X text 217 171 a;
#X obj 238 204 expr $f1*$f2;
#X text 225 203 b;
#X obj 246 235 expr $f1*$f2;
#X text 233 234 c;
#X obj 214 51 unpack f f f f;
#X obj 123 360 expr 1/($f1*$f2);
#X msg 448 49 set;
#X obj 384 21 t b f b b;
#X msg 145 10 4700 4.7e-08 301000 5.1e-11;
#X obj 141 318 f;
#X obj 175 318 f;
#X obj 209 318 f;
#X obj 123 389 expr ($f1+$f2+$f3)/($f1*$f2);
#X obj 62 389 s \$0-b1;
#X obj 62 417 s \$0-b2;
#X obj 123 417 f 1;
#X obj 206 480 expr ($f1+$f2)/($f1*$f2);
#X obj 141 286 t b b b b;
#X text 396 434 0dB;
#X text 389 294 41dB;
#X msg 480 560 41;
#X obj 43 114 *~ 16;
#X obj 607 37 inlet;
#X text 589 60 blocking?;
#N canvas 819 528 537 390 upsample~ 1;
#X obj 54 35 inlet~;
#X obj 55 307 outlet~;
#X obj 252 64 samplerate~;
#X obj 252 36 loadbang;
#X floatatom 174 95 10 0 0 0 - - -;
#X obj 74 125 lp10_cheb~ 18000;
#X obj 75 226 lp10_cheb~ 18000;
#X obj 75 168 tanh~;
#X obj 363 69 switch~ 64 1 16;
#X obj 363 36 inlet;
#X obj 252 108 sel 705600 768000;
#X msg 252 138 18000;
#X floatatom 289 186 5 0 0 0 - - -;
#X msg 301 138 19590;
#X text 226 237 choose antialias cutoff freq. :;
#X text 219 257 18khz if SR=44.1khz \, 19.59khz if SR=48kHz;
#X connect 0 0 5 0;
#X connect 2 0 4 0;
#X connect 2 0 10 0;
#X connect 3 0 2 0;
#X connect 5 0 7 0;
#X connect 6 0 1 0;
#X connect 7 0 6 0;
#X connect 9 0 8 0;
#X connect 10 0 11 0;
#X connect 10 1 13 0;
#X connect 11 0 12 0;
#X connect 11 0 5 1;
#X connect 11 0 6 1;
#X connect 13 0 12 0;
#X restore 43 149 pd upsample~;
#X connect 0 0 68 0;
#X connect 1 0 45 0;
#X connect 2 0 45 1;
#X connect 2 0 49 1;
#X connect 3 0 26 0;
#X connect 3 1 51 0;
#X connect 4 0 22 0;
#X connect 5 0 28 0;
#X connect 11 0 22 1;
#X connect 11 0 27 0;
#X connect 12 0 22 2;
#X connect 12 0 27 1;
#X connect 13 0 22 3;
#X connect 13 0 27 2;
#X connect 14 0 22 4;
#X connect 14 0 27 3;
#X connect 15 0 22 5;
#X connect 15 0 27 4;
#X connect 16 0 22 6;
#X connect 16 0 27 5;
#X connect 19 0 17 1;
#X connect 20 0 19 0;
#X connect 21 0 20 0;
#X connect 21 0 67 0;
#X connect 22 0 0 0;
#X connect 22 0 17 0;
#X connect 23 0 55 0;
#X connect 26 0 22 0;
#X connect 26 1 1 0;
#X connect 26 1 41 0;
#X connect 26 1 64 0;
#X connect 26 2 2 0;
#X connect 26 2 42 0;
#X connect 28 0 0 0;
#X connect 29 0 8 0;
#X connect 30 0 10 0;
#X connect 32 0 3 0;
#X connect 33 0 54 0;
#X connect 35 0 36 0;
#X connect 36 0 32 0;
#X connect 37 0 38 0;
#X connect 37 0 54 0;
#X connect 39 0 40 0;
#X connect 40 0 32 0;
#X connect 41 0 47 0;
#X connect 41 0 49 0;
#X connect 42 0 47 1;
#X connect 45 0 56 1;
#X connect 47 0 57 1;
#X connect 49 0 58 1;
#X connect 51 0 1 1;
#X connect 51 1 2 1;
#X connect 51 2 41 1;
#X connect 51 3 42 1;
#X connect 52 0 7 0;
#X connect 52 0 29 0;
#X connect 53 0 32 0;
#X connect 54 0 32 0;
#X connect 54 1 39 0;
#X connect 54 2 35 0;
#X connect 54 3 53 0;
#X connect 55 0 3 0;
#X connect 56 0 52 0;
#X connect 56 0 59 0;
#X connect 56 0 63 0;
#X connect 57 0 52 1;
#X connect 57 0 59 1;
#X connect 57 0 63 1;
#X connect 58 0 59 2;
#X connect 59 0 60 0;
#X connect 62 0 61 0;
#X connect 63 0 9 0;
#X connect 64 0 56 0;
#X connect 64 1 57 0;
#X connect 64 2 58 0;
#X connect 64 3 62 0;
#X connect 64 3 30 0;
#X connect 67 0 19 0;
#X connect 68 0 71 0;
#X connect 69 0 71 1;
#X connect 71 0 6 0;
