#N canvas 287 79 967 668 12;
#X obj 44 401 biquad~;
#X obj 170 147 f;
#X obj 202 147 f;
#X obj 145 41 t b l;
#X obj 123 354 bng 15 250 50 0 empty empty empty 17 7 0 10 -262144
-1 -1;
#X obj 43 -30 inlet~;
#X obj 37 464 outlet~;
#X obj 110 304 r \$0-b1;
#X obj 283 304 r \$0-a1;
#X obj 153 401 filterplot.mmb \$0-plot;
#X msg 375 496 dbrange \$1;
#X floatatom 375 471 5 0 0 0 - - -;
#X obj 385 426 loadbang;
#X obj 145 353 bilinear;
#X obj 145 -29 loadbang;
#X obj 144 437 pack f f f f f f;
#X text 159 278 numbering follows the article;
#X msg 583 75 1000 2.2e-07 10000 20000 0 220 2.2e-07 1000;
#X obj 354 -84 inlet;
#X obj 234 147 f;
#X obj 266 147 f;
#X msg 480 -5 set;
#X text 318 -84 Tone;
#X msg 439 50 add2 \$1 \$2 \$3;
#X obj 460 80 expr $f1*20000;
#X msg 460 106 add2 \$1;
#X msg 439 22 1000 2.2e-07 10000;
#X obj 416 -33 t b f f b b;
#X obj 471 135 expr (1-$f1)*20000;
#X msg 471 161 add2 \$1 220 2.2e-07 1000;
#X obj 214 51 unpack f f f f f f f f;
#X obj 299 147 f;
#X obj 331 147 f;
#X obj 364 147 f;
#X obj 396 147 f;
#X text 175 121 Rs;
#X text 207 121 Cs;
#X text 239 121 Ri;
#X text 271 121 Rl;
#X text 304 121 Rr;
#X text 336 121 Rz;
#X text 401 122 Rf;
#X msg 81 7 1000 2.2e-07 10000 10000 10000 220 2.2e-07 1000;
#X obj 211 184 pack f f f f f f f f;
#N canvas 0 0 672 669 calculations 0;
#X obj 124 235 unpack f f f f f f f f;
#X text 134 308 Y;
#X text 116 279 X;
#X obj 151 306 expr ($f1+$f2) * ($f3+(($f1*$f2)/($f1+$f2)));
#X text 30 405 G;
#X obj 46 362 unpack f f f f f f f f;
#X obj 45 406 expr (($f3*$f4)+$f5)/($f1*$f2*$f5);
#X text 46 437 W;
#X obj 61 438 expr $f3/(($f1*$f2)+$f3);
#X text 186 162 wz;
#X text 197 193 wp;
#X obj 208 122 unpack f f f f f f f f;
#X obj 208 163 expr 1/(($f3+ (($f1*$f2)/($f1+$f2)) )*$f4);
#X obj 219 194 expr 1/( (($f1*$f3)/($f1+$f3)) *$f2);
#X obj 132 278 expr ( ($f2/($f1+$f2)) *$f3 );
#X obj 77 33 inlet;
#X obj 345 428 s \$0-b0;
#X obj 402 537 s \$0-a0;
#X obj 402 569 s \$0-a1;
#X obj 402 601 s \$0-a2;
#X obj 464 601 f 1;
#X obj 345 457 s \$0-b1;
#X obj 345 485 s \$0-b2;
#X obj 464 430 expr $f1*$f2;
#X obj 464 459 f 1;
#X obj 464 487 f 0;
#X obj 77 75 t b l l l;
#X obj 285 555 t b;
#X text 495 187 ! wz first \, then wp;
#X obj 463 537 expr $f1*$f2;
#X obj 463 569 expr ($f1+$f2+$f3);
#X text 29 473 ! W first \, then G;
#X obj 420 433 *;
#X obj 420 462 *;
#X obj 420 490 *;
#X floatatom 116 139 10 0 0 0 - - -;
#X connect 0 3 3 0;
#X connect 0 3 14 0;
#X connect 0 4 3 1;
#X connect 0 4 14 1;
#X connect 0 5 3 2;
#X connect 0 5 14 2;
#X connect 3 0 6 4;
#X connect 3 0 8 2;
#X connect 5 0 6 0;
#X connect 5 1 6 1;
#X connect 5 3 6 2;
#X connect 5 3 8 0;
#X connect 5 7 6 3;
#X connect 5 7 8 1;
#X connect 6 0 32 0;
#X connect 6 0 33 0;
#X connect 6 0 34 0;
#X connect 8 0 23 0;
#X connect 11 0 13 0;
#X connect 11 1 13 1;
#X connect 11 2 13 2;
#X connect 11 3 12 0;
#X connect 11 4 12 1;
#X connect 11 5 12 2;
#X connect 11 6 12 3;
#X connect 12 0 14 2;
#X connect 12 0 23 1;
#X connect 12 0 29 1;
#X connect 12 0 30 2;
#X connect 13 0 29 0;
#X connect 13 0 30 1;
#X connect 13 0 35 0;
#X connect 14 0 30 0;
#X connect 15 0 26 0;
#X connect 20 0 19 0;
#X connect 23 0 32 1;
#X connect 24 0 33 1;
#X connect 25 0 34 1;
#X connect 26 0 27 0;
#X connect 26 1 5 0;
#X connect 26 2 0 0;
#X connect 26 3 11 0;
#X connect 27 0 24 0;
#X connect 27 0 25 0;
#X connect 27 0 20 0;
#X connect 29 0 17 0;
#X connect 30 0 18 0;
#X connect 32 0 16 0;
#X connect 33 0 21 0;
#X connect 34 0 22 0;
#X restore 211 234 pd calculations;
#X text 369 121 Cz;
#X obj 54 304 r \$0-b0;
#X obj 227 304 r \$0-a0;
#X obj 339 304 r \$0-a2;
#X obj 166 304 r \$0-b2;
#X msg 427 464 45;
#N canvas 0 22 450 300 (subpatch) 0;
#X array \$0-plot 200 float 0;
#X coords 0 0 199 -1 200 140 1;
#X restore 718 321 graph;
#X text 677 450 -45dB;
#X text 684 310 0dB;
#X connect 0 0 6 0;
#X connect 1 0 43 0;
#X connect 2 0 43 1;
#X connect 3 0 13 0;
#X connect 3 1 30 0;
#X connect 4 0 13 0;
#X connect 5 0 0 0;
#X connect 7 0 13 2;
#X connect 7 0 15 1;
#X connect 8 0 13 5;
#X connect 8 0 15 4;
#X connect 10 0 9 1;
#X connect 11 0 10 0;
#X connect 12 0 11 0;
#X connect 12 0 50 0;
#X connect 13 0 9 0;
#X connect 13 0 0 0;
#X connect 14 0 42 0;
#X connect 17 0 3 0;
#X connect 18 0 27 0;
#X connect 19 0 43 2;
#X connect 20 0 43 3;
#X connect 21 0 17 0;
#X connect 23 0 17 0;
#X connect 24 0 25 0;
#X connect 25 0 17 0;
#X connect 26 0 23 0;
#X connect 27 0 17 0;
#X connect 27 1 28 0;
#X connect 27 2 24 0;
#X connect 27 3 26 0;
#X connect 27 4 21 0;
#X connect 28 0 29 0;
#X connect 29 0 17 0;
#X connect 30 0 1 0;
#X connect 30 1 2 0;
#X connect 30 2 19 0;
#X connect 30 3 20 0;
#X connect 30 4 31 0;
#X connect 30 5 32 0;
#X connect 30 6 33 0;
#X connect 30 7 34 0;
#X connect 31 0 43 4;
#X connect 32 0 43 5;
#X connect 33 0 43 6;
#X connect 34 0 43 7;
#X connect 42 0 3 0;
#X connect 43 0 44 0;
#X connect 46 0 13 1;
#X connect 46 0 15 0;
#X connect 47 0 13 4;
#X connect 47 0 15 3;
#X connect 48 0 13 6;
#X connect 48 0 15 5;
#X connect 49 0 13 3;
#X connect 49 0 15 2;
#X connect 50 0 10 0;
