#N canvas 149 111 643 587 10;
#X declare -lib flatgui;
#X obj 391 -108 loadbang;
#X msg 391 -85 1;
#X obj 425 -85 switch~ 64 1 1;
#X obj 169 278 init 0;
#X obj 83 310 togsource~;
#X obj 121 285 *~ 1;
#X obj 42 -42 inlet~;
#X obj 47 413 outlet~;
#X obj 277 -77 inlet;
#X text 173 313 effect off/on;
#X obj 81 159 TS-clipping_opamp~;
#X obj 66 14 hip~ 15.9;
#X obj 66 37 hip~ 15.6;
#X obj 69 248 TS-tone_stage~;
#X obj 61 218 +~;
#X obj 76 132 *~ 1.667;
#X obj 83 337 hip~ 3;
#X obj 83 361 hip~ 3;
#X obj 257 77 cnv 15 110 151 empty empty empty 20 12 0 14 -84357 -1
0;
#X obj 267 97 knob 24 24 0.001 1 0 0 empty empty empty 0 -8 0 8 -262144
-1 -1 0 1;
#X obj 331 97 knob 24 24 0.01 1 0 0 empty empty empty 0 -8 0 8 -262144
-1 -1 0 1;
#X obj 299 125 knob 24 24 0 1 0 0 empty empty empty 0 -8 0 8 -262144
-1 -1 0 1;
#X text 299 106 Tone;
#X text 329 78 Level;
#X obj 282 163 tgl 60 0 empty empty empty 17 7 0 10 -262144 -1 -1 0
1;
#X text 267 337 a humble try to implement Ibanez TubeScreamer overdrive
pedal following "Simplified \, physically-informed models of distorsion
and overdrive guitar effects pedals" article by D.T.Yeh \, J.S. Abel
and J.O.Smith. (http://ccrma.stanford.edu/~dtyeh/papers/pubs.html").
Development discussion at "http://puredata.hurleur.com/sujet-5775-better-sounding-guitar-distorsion-beyond-clip-tanh".
;
#X obj 277 18 unpack f f f f;
#X text 197 -52 list: Dist Tone Level bypass;
#X text 264 78 Drive;
#X obj 416 -30 import flatgui;
#X connect 0 0 1 0;
#X connect 1 0 2 0;
#X connect 3 0 4 2;
#X connect 4 0 16 0;
#X connect 5 0 4 1;
#X connect 6 0 11 0;
#X connect 8 0 26 0;
#X connect 10 0 14 1;
#X connect 11 0 12 0;
#X connect 12 0 15 0;
#X connect 12 0 14 0;
#X connect 12 0 4 0;
#X connect 13 0 5 0;
#X connect 14 0 13 0;
#X connect 15 0 10 0;
#X connect 16 0 17 0;
#X connect 17 0 7 0;
#X connect 19 0 10 1;
#X connect 20 0 5 1;
#X connect 21 0 13 1;
#X connect 24 0 10 2;
#X connect 24 0 4 2;
#X connect 26 0 21 0;
#X connect 26 1 20 0;
#X connect 26 2 19 0;
#X connect 26 3 24 0;
#X coords 0 -1 1 1 114 155 2 255 75;
