#N canvas 0 22 530 495 10;
#X obj 205 42 noise~;
#X obj 245 77 lop~ 1;
#X obj 245 112 env~;
#X obj 245 138 moses 50;
#X obj 290 163 moses 51;
#X msg 290 188 bang;
#X obj 290 211 random 30;
#X obj 290 236 t f f;
#X obj 317 280 * 500;
#X obj 317 307 + 1500;
#X obj 205 356 bp~ 2000 1;
#X msg 120 286 1 \, 0 \$1;
#X obj 120 314 line~;
#X obj 120 343 *~;
#X obj 120 372 *~;
#X obj 120 405 *~;
#X obj 176 443 outlet~;
#X obj 278 40 inlet density;
#X connect 0 0 1 0;
#X connect 0 0 10 0;
#X connect 1 0 2 0;
#X connect 2 0 3 0;
#X connect 3 1 4 0;
#X connect 4 0 5 0;
#X connect 5 0 6 0;
#X connect 6 0 7 0;
#X connect 7 0 11 0;
#X connect 7 1 8 0;
#X connect 8 0 9 0;
#X connect 9 0 10 1;
#X connect 10 0 15 1;
#X connect 11 0 12 0;
#X connect 12 0 13 0;
#X connect 12 0 13 1;
#X connect 13 0 14 0;
#X connect 13 0 14 1;
#X connect 14 0 15 0;
#X connect 15 0 16 0;
#X connect 17 0 1 1;
