#N canvas 811 148 195 298 10;
#X obj 66 29 noise~;
#X obj 117 65 lop~ 1;
#X obj 22 80 hip~ 1000;
#X obj 117 96 *~ 10;
#X obj 117 129 *~;
#X obj 117 159 *~;
#X obj 117 187 *~ 600;
#X obj 22 204 *~;
#X obj 22 247 outlet~;
#X connect 0 0 2 0;
#X connect 0 0 1 0;
#X connect 1 0 3 0;
#X connect 2 0 7 0;
#X connect 3 0 4 0;
#X connect 3 0 4 1;
#X connect 4 0 5 0;
#X connect 4 0 5 1;
#X connect 5 0 6 0;
#X connect 6 0 7 1;
#X connect 7 0 8 0;
