#N canvas 476 383 423 209 10;
#X obj 73 80 sp-jetengine~;
#X obj 76 22 hsl 128 15 0 1 0 0 empty empty empty -2 -8 0 10 -262144
-1 -1 0 1;
#X obj 73 135 dac~;
#X connect 0 0 2 0;
#X connect 0 0 2 1;
#X connect 1 0 0 0;
