#N canvas 0 22 451 345 10;
#X obj 163 42 inlet~;
#X obj 163 69 clip~ -0.9 0.9;
#X obj 163 96 bp~ 2000 12;
#X obj 194 139 clip~ -0.4 0.4;
#X obj 194 170 *~ 0.15;
#X obj 115 142 *~ 0.5;
#X obj 115 170 bp~ 400 3;
#X obj 149 224 hip~ 90;
#X obj 149 251 hip~ 90;
#X obj 149 279 outlet~;
#X connect 0 0 1 0;
#X connect 1 0 2 0;
#X connect 2 0 3 0;
#X connect 2 0 5 0;
#X connect 3 0 4 0;
#X connect 4 0 7 0;
#X connect 5 0 6 0;
#X connect 6 0 7 0;
#X connect 7 0 8 0;
#X connect 8 0 9 0;
